<?xml version="1.0" encoding="UTF-8"?>
<svg xmlns="http://www.w3.org/2000/svg" xmlns:xlink="http://www.w3.org/1999/xlink" width="810pt" height="809.999993pt" viewBox="0 0 810 809.999993" version="1.2">
<defs>
<clipPath id="clip1">
  <path d="M 17.222656 17.222656 L 792.675781 17.222656 L 792.675781 792.675781 L 17.222656 792.675781 Z M 17.222656 17.222656 "/>
</clipPath>
</defs>
<g id="surface1">
<path style=" stroke:none;fill-rule:nonzero;fill:rgb(98.81897%,84.309387%,43.919373%);fill-opacity:1;" d="M 730.140625 379.9375 C 743.871094 379.9375 755.15625 391.171875 755.15625 404.949219 L 755.15625 429.964844 C 755.15625 443.742188 743.871094 454.980469 730.140625 454.980469 L 454.980469 454.980469 L 454.980469 379.9375 L 730.140625 379.9375 "/>
<path style=" stroke:none;fill-rule:nonzero;fill:rgb(98.81897%,84.309387%,43.919373%);fill-opacity:1;" d="M 705.125 530.023438 L 730.140625 530.023438 C 743.871094 530.023438 755.15625 541.261719 755.15625 555.039062 L 755.15625 580.054688 C 755.15625 593.832031 743.871094 605.066406 730.140625 605.066406 L 454.980469 605.066406 L 454.980469 530.023438 L 705.125 530.023438 "/>
<path style=" stroke:none;fill-rule:nonzero;fill:rgb(100%,78.039551%,16.079712%);fill-opacity:1;" d="M 655.097656 605.066406 L 680.113281 605.066406 C 693.839844 605.066406 705.125 616.304688 705.125 630.082031 L 705.125 655.097656 C 705.125 668.875 693.839844 680.113281 680.113281 680.113281 L 454.980469 680.113281 L 454.980469 605.066406 L 655.097656 605.066406 "/>
<path style=" stroke:none;fill-rule:nonzero;fill:rgb(100%,78.039551%,16.079712%);fill-opacity:1;" d="M 655.097656 454.980469 L 680.113281 454.980469 C 693.839844 454.980469 705.125 466.21875 705.125 479.996094 L 705.125 505.007812 C 705.125 518.785156 693.839844 530.023438 680.113281 530.023438 L 454.980469 530.023438 L 454.980469 454.980469 L 655.097656 454.980469 "/>
<path style=" stroke:none;fill-rule:nonzero;fill:rgb(100%,78.039551%,16.079712%);fill-opacity:1;" d="M 605.066406 379.9375 L 454.980469 379.9375 L 454.980469 279.878906 C 454.980469 252.226562 432.605469 229.847656 404.949219 229.847656 L 379.9375 229.847656 L 379.9375 192.328125 L 411.691406 182.214844 C 415.453125 168.925781 420.730469 156.320312 427.230469 144.398438 L 411.9375 114.886719 L 465.09375 61.734375 L 494.601562 77.023438 C 506.523438 70.527344 519.128906 65.25 532.417969 61.488281 L 542.53125 29.730469 L 617.574219 29.730469 L 627.6875 61.488281 C 640.976562 65.25 653.582031 70.527344 665.503906 77.023438 L 695.011719 61.734375 L 748.167969 114.886719 L 732.875 144.398438 C 739.375 156.320312 744.652344 168.925781 748.414062 182.214844 L 780.171875 192.328125 L 780.171875 267.371094 L 748.414062 277.484375 C 744.652344 290.773438 739.375 303.378906 732.875 315.296875 L 748.167969 344.808594 L 712.992188 379.9375 L 605.066406 379.9375 "/>
<path style=" stroke:none;fill-rule:nonzero;fill:rgb(98.81897%,84.309387%,43.919373%);fill-opacity:1;" d="M 580.054688 104.773438 C 649.085938 104.773438 705.125 160.8125 705.125 229.847656 C 705.125 298.882812 649.085938 354.921875 580.054688 354.921875 C 511.019531 354.921875 454.980469 298.882812 454.980469 229.847656 C 454.980469 160.8125 511.019531 104.773438 580.054688 104.773438 "/>
<path style=" stroke:none;fill-rule:nonzero;fill:rgb(58.81958%,62.348938%,66.668701%);fill-opacity:1;" d="M 454.980469 680.113281 L 454.980469 730.140625 C 454.980469 757.792969 432.605469 780.171875 404.949219 780.171875 L 79.761719 780.171875 C 52.109375 780.171875 29.730469 757.792969 29.730469 730.140625 L 29.730469 279.878906 C 29.730469 252.226562 52.109375 229.847656 79.761719 229.847656 L 404.949219 229.847656 C 432.605469 229.847656 454.980469 252.226562 454.980469 279.878906 L 454.980469 680.113281 "/>
<path style=" stroke:none;fill-rule:nonzero;fill:rgb(100%,50.979614%,43.139648%);fill-opacity:1;" d="M 404.949219 592.558594 L 404.949219 717.632812 C 404.949219 724.523438 399.332031 730.140625 392.445312 730.140625 L 342.414062 730.140625 C 335.523438 730.140625 329.90625 724.523438 329.90625 717.632812 L 329.90625 592.558594 C 329.90625 585.671875 335.523438 580.054688 342.414062 580.054688 L 392.445312 580.054688 C 399.332031 580.054688 404.949219 585.671875 404.949219 592.558594 "/>
<path style=" stroke:none;fill-rule:nonzero;fill:rgb(100%,50.979614%,43.139648%);fill-opacity:1;" d="M 404.949219 492.5 L 404.949219 517.515625 C 404.949219 524.40625 399.332031 530.023438 392.445312 530.023438 L 342.414062 530.023438 C 335.523438 530.023438 329.90625 524.40625 329.90625 517.515625 L 329.90625 492.5 C 329.90625 485.613281 335.523438 479.996094 342.414062 479.996094 L 392.445312 479.996094 C 399.332031 479.996094 404.949219 485.613281 404.949219 492.5 "/>
<path style=" stroke:none;fill-rule:nonzero;fill:rgb(100%,50.979614%,43.139648%);fill-opacity:1;" d="M 279.878906 492.5 L 279.878906 517.515625 C 279.878906 524.40625 274.257812 530.023438 267.371094 530.023438 L 217.339844 530.023438 C 210.453125 530.023438 204.832031 524.40625 204.832031 517.515625 L 204.832031 492.5 C 204.832031 485.613281 210.453125 479.996094 217.339844 479.996094 L 267.371094 479.996094 C 274.257812 479.996094 279.878906 485.613281 279.878906 492.5 "/>
<path style=" stroke:none;fill-rule:nonzero;fill:rgb(100%,50.979614%,43.139648%);fill-opacity:1;" d="M 279.878906 592.558594 L 279.878906 617.574219 C 279.878906 624.464844 274.257812 630.082031 267.371094 630.082031 L 217.339844 630.082031 C 210.453125 630.082031 204.832031 624.464844 204.832031 617.574219 L 204.832031 592.558594 C 204.832031 585.671875 210.453125 580.054688 217.339844 580.054688 L 267.371094 580.054688 C 274.257812 580.054688 279.878906 585.671875 279.878906 592.558594 "/>
<path style=" stroke:none;fill-rule:nonzero;fill:rgb(100%,50.979614%,43.139648%);fill-opacity:1;" d="M 279.878906 692.617188 L 279.878906 717.632812 C 279.878906 724.523438 274.257812 730.140625 267.371094 730.140625 L 217.339844 730.140625 C 210.453125 730.140625 204.832031 724.523438 204.832031 717.632812 L 204.832031 692.617188 C 204.832031 685.730469 210.453125 680.113281 217.339844 680.113281 L 267.371094 680.113281 C 274.257812 680.113281 279.878906 685.730469 279.878906 692.617188 "/>
<path style=" stroke:none;fill-rule:nonzero;fill:rgb(100%,50.979614%,43.139648%);fill-opacity:1;" d="M 154.804688 692.617188 L 154.804688 717.632812 C 154.804688 724.523438 149.1875 730.140625 142.296875 730.140625 L 92.269531 730.140625 C 85.378906 730.140625 79.761719 724.523438 79.761719 717.632812 L 79.761719 692.617188 C 79.761719 685.730469 85.378906 680.113281 92.269531 680.113281 L 142.296875 680.113281 C 149.1875 680.113281 154.804688 685.730469 154.804688 692.617188 "/>
<path style=" stroke:none;fill-rule:nonzero;fill:rgb(100%,50.979614%,43.139648%);fill-opacity:1;" d="M 154.804688 592.558594 L 154.804688 617.574219 C 154.804688 624.464844 149.1875 630.082031 142.296875 630.082031 L 92.269531 630.082031 C 85.378906 630.082031 79.761719 624.464844 79.761719 617.574219 L 79.761719 592.558594 C 79.761719 585.671875 85.378906 580.054688 92.269531 580.054688 L 142.296875 580.054688 C 149.1875 580.054688 154.804688 585.671875 154.804688 592.558594 "/>
<path style=" stroke:none;fill-rule:nonzero;fill:rgb(100%,50.979614%,43.139648%);fill-opacity:1;" d="M 154.804688 492.5 L 154.804688 517.515625 C 154.804688 524.40625 149.1875 530.023438 142.296875 530.023438 L 92.269531 530.023438 C 85.378906 530.023438 79.761719 524.40625 79.761719 517.515625 L 79.761719 492.5 C 79.761719 485.613281 85.378906 479.996094 92.269531 479.996094 L 142.296875 479.996094 C 149.1875 479.996094 154.804688 485.613281 154.804688 492.5 "/>
<path style=" stroke:none;fill-rule:nonzero;fill:rgb(41.178894%,83.918762%,95.689392%);fill-opacity:1;" d="M 404.949219 292.386719 L 404.949219 417.457031 C 404.949219 424.347656 399.332031 429.964844 392.445312 429.964844 L 92.269531 429.964844 C 85.378906 429.964844 79.761719 424.347656 79.761719 417.457031 L 79.761719 292.386719 C 79.761719 285.496094 85.378906 279.878906 92.269531 279.878906 L 392.445312 279.878906 C 399.332031 279.878906 404.949219 285.496094 404.949219 292.386719 "/>
<g clip-path="url(#clip1)" clip-rule="nonzero">
<path style=" stroke:none;fill-rule:nonzero;fill:rgb(0%,0%,0%);fill-opacity:1;" d="M 467.488281 229.847656 C 467.488281 167.800781 517.957031 117.28125 580.054688 117.28125 C 642.148438 117.28125 692.617188 167.800781 692.617188 229.847656 C 692.617188 291.894531 642.148438 342.414062 580.054688 342.414062 C 517.957031 342.414062 467.488281 291.894531 467.488281 229.847656 Z M 738.203125 267.710938 L 736.34375 274.160156 C 732.875 286.523438 728.039062 298.296875 721.933594 309.144531 L 718.660156 314.957031 L 732.828125 342.414062 L 707.8125 367.429688 L 467.488281 367.429688 L 467.488281 308.703125 C 492.402344 344.171875 533.542969 367.429688 580.054688 367.429688 C 655.925781 367.429688 717.632812 305.722656 717.632812 229.847656 C 717.632812 153.972656 655.925781 92.269531 580.054688 92.269531 C 504.179688 92.269531 442.472656 153.972656 442.472656 229.847656 C 442.472656 229.945312 442.472656 230.09375 442.472656 230.191406 C 432.015625 222.226562 419.121094 217.339844 404.949219 217.339844 L 392.445312 217.339844 L 392.445312 201.460938 L 421.902344 191.984375 L 423.761719 185.535156 C 427.230469 173.175781 432.066406 161.398438 438.171875 150.554688 L 441.445312 144.738281 L 427.277344 117.28125 L 467.488281 77.121094 L 494.945312 91.242188 L 500.757812 87.96875 C 511.652344 81.863281 523.429688 77.023438 535.789062 73.554688 L 542.238281 71.699219 L 551.667969 42.238281 L 608.4375 42.238281 L 617.867188 71.699219 L 624.316406 73.554688 C 636.679688 77.023438 648.453125 81.863281 659.347656 87.96875 L 665.160156 91.242188 L 692.617188 77.121094 L 732.828125 117.28125 L 718.660156 144.738281 L 721.933594 150.554688 C 728.039062 161.398438 732.875 173.175781 736.34375 185.535156 L 738.203125 191.984375 L 767.664062 201.460938 L 767.664062 258.234375 Z M 742.648438 429.964844 C 742.648438 436.855469 737.03125 442.472656 730.140625 442.472656 L 467.488281 442.472656 L 467.488281 392.445312 L 492.5 392.445312 L 492.5 417.457031 L 517.515625 417.457031 L 517.515625 392.445312 L 542.53125 392.445312 L 542.53125 417.457031 L 567.546875 417.457031 L 567.546875 392.445312 L 592.558594 392.445312 L 592.558594 417.457031 L 617.574219 417.457031 L 617.574219 392.445312 L 642.589844 392.445312 L 642.589844 417.457031 L 667.605469 417.457031 L 667.605469 392.445312 L 692.617188 392.445312 L 692.617188 417.457031 L 717.632812 417.457031 L 717.632812 392.445312 L 730.140625 392.445312 C 737.03125 392.445312 742.648438 398.0625 742.648438 404.949219 Z M 692.617188 479.996094 L 692.617188 505.007812 C 692.617188 511.898438 687 517.515625 680.113281 517.515625 L 467.488281 517.515625 L 467.488281 467.488281 L 492.5 467.488281 L 492.5 492.5 L 517.515625 492.5 L 517.515625 467.488281 L 542.53125 467.488281 L 542.53125 492.5 L 567.546875 492.5 L 567.546875 467.488281 L 592.558594 467.488281 L 592.558594 492.5 L 617.574219 492.5 L 617.574219 467.488281 L 642.589844 467.488281 L 642.589844 492.5 L 667.605469 492.5 L 667.605469 467.488281 L 680.113281 467.488281 C 687 467.488281 692.617188 473.105469 692.617188 479.996094 Z M 742.648438 555.039062 L 742.648438 580.054688 C 742.648438 586.941406 737.03125 592.558594 730.140625 592.558594 L 467.488281 592.558594 L 467.488281 542.53125 L 492.5 542.53125 L 492.5 567.546875 L 517.515625 567.546875 L 517.515625 542.53125 L 542.53125 542.53125 L 542.53125 567.546875 L 567.546875 567.546875 L 567.546875 542.53125 L 592.558594 542.53125 L 592.558594 567.546875 L 617.574219 567.546875 L 617.574219 542.53125 L 642.589844 542.53125 L 642.589844 567.546875 L 667.605469 567.546875 L 667.605469 542.53125 L 692.617188 542.53125 L 692.617188 567.546875 L 717.632812 567.546875 L 717.632812 542.53125 L 730.140625 542.53125 C 737.03125 542.53125 742.648438 548.148438 742.648438 555.039062 Z M 692.617188 630.082031 L 692.617188 655.097656 C 692.617188 661.984375 687 667.605469 680.113281 667.605469 L 467.488281 667.605469 L 467.488281 617.574219 L 492.5 617.574219 L 492.5 642.589844 L 517.515625 642.589844 L 517.515625 617.574219 L 542.53125 617.574219 L 542.53125 642.589844 L 567.546875 642.589844 L 567.546875 617.574219 L 592.558594 617.574219 L 592.558594 642.589844 L 617.574219 642.589844 L 617.574219 617.574219 L 642.589844 617.574219 L 642.589844 642.589844 L 667.605469 642.589844 L 667.605469 617.574219 L 680.113281 617.574219 C 687 617.574219 692.617188 623.195312 692.617188 630.082031 Z M 442.472656 730.140625 C 442.472656 750.855469 425.664062 767.664062 404.949219 767.664062 L 79.761719 767.664062 C 59.046875 767.664062 42.238281 750.855469 42.238281 730.140625 L 42.238281 279.878906 C 42.238281 259.164062 59.046875 242.355469 79.761719 242.355469 L 404.949219 242.355469 C 425.664062 242.355469 442.472656 259.164062 442.472656 279.878906 Z M 792.675781 276.507812 L 792.675781 183.191406 L 758.476562 172.246094 C 755.351562 162.574219 751.539062 153.242188 746.996094 144.347656 L 763.363281 112.496094 L 697.40625 46.539062 L 665.550781 62.90625 C 656.660156 58.363281 647.328125 54.5 637.65625 51.425781 L 626.710938 17.222656 L 533.394531 17.222656 L 522.449219 51.425781 C 512.777344 54.5 503.445312 58.363281 494.554688 62.90625 L 462.699219 46.539062 L 396.742188 112.496094 L 413.109375 144.347656 C 408.566406 153.242188 404.753906 162.574219 401.628906 172.246094 L 367.429688 183.191406 L 367.429688 217.339844 L 79.761719 217.339844 C 45.269531 217.339844 17.222656 245.386719 17.222656 279.878906 L 17.222656 730.140625 C 17.222656 764.632812 45.269531 792.675781 79.761719 792.675781 L 404.949219 792.675781 C 439.445312 792.675781 467.488281 764.632812 467.488281 730.140625 L 467.488281 692.617188 L 680.113281 692.617188 C 700.828125 692.617188 717.632812 675.8125 717.632812 655.097656 L 717.632812 630.082031 C 717.632812 625.683594 716.707031 621.53125 715.335938 617.574219 L 730.140625 617.574219 C 750.855469 617.574219 767.664062 600.769531 767.664062 580.054688 L 767.664062 555.039062 C 767.664062 534.324219 750.855469 517.515625 730.140625 517.515625 L 715.335938 517.515625 C 716.707031 513.558594 717.632812 509.40625 717.632812 505.007812 L 717.632812 479.996094 C 717.632812 475.597656 716.707031 471.445312 715.335938 467.488281 L 730.140625 467.488281 C 750.855469 467.488281 767.664062 450.679688 767.664062 429.964844 L 767.664062 404.949219 C 767.664062 388.144531 756.523438 374.074219 741.28125 369.335938 L 763.363281 347.203125 L 746.996094 315.347656 C 751.539062 306.457031 755.351562 297.125 758.476562 287.449219 L 792.675781 276.507812 "/>
</g>
<path style=" stroke:none;fill-rule:nonzero;fill:rgb(0%,0%,0%);fill-opacity:1;" d="M 580.054688 267.371094 C 573.164062 267.371094 567.546875 261.75 567.546875 254.863281 L 542.53125 254.863281 C 542.53125 271.132812 553.035156 284.910156 567.546875 290.089844 L 567.546875 317.398438 L 592.558594 317.398438 L 592.558594 290.089844 C 607.070312 284.910156 617.574219 271.132812 617.574219 254.863281 C 617.574219 234.148438 600.769531 217.339844 580.054688 217.339844 C 573.164062 217.339844 567.546875 211.722656 567.546875 204.832031 C 567.546875 197.945312 573.164062 192.328125 580.054688 192.328125 C 586.941406 192.328125 592.558594 197.945312 592.558594 204.832031 L 617.574219 204.832031 C 617.574219 188.566406 607.070312 174.785156 592.558594 169.609375 L 592.558594 142.296875 L 567.546875 142.296875 L 567.546875 169.609375 C 553.035156 174.785156 542.53125 188.566406 542.53125 204.832031 C 542.53125 225.550781 559.335938 242.355469 580.054688 242.355469 C 586.941406 242.355469 592.558594 247.972656 592.558594 254.863281 C 592.558594 261.75 586.941406 267.371094 580.054688 267.371094 "/>
<path style=" stroke:none;fill-rule:nonzero;fill:rgb(0%,0%,0%);fill-opacity:1;" d="M 92.269531 417.457031 L 92.269531 292.386719 L 392.445312 292.386719 L 392.445312 417.457031 Z M 392.445312 267.371094 L 92.269531 267.371094 C 78.492188 267.371094 67.253906 278.605469 67.253906 292.386719 L 67.253906 417.457031 C 67.253906 431.234375 78.492188 442.472656 92.269531 442.472656 L 392.445312 442.472656 C 406.222656 442.472656 417.457031 431.234375 417.457031 417.457031 L 417.457031 292.386719 C 417.457031 278.605469 406.222656 267.371094 392.445312 267.371094 "/>
<path style=" stroke:none;fill-rule:nonzero;fill:rgb(0%,0%,0%);fill-opacity:1;" d="M 92.269531 517.515625 L 92.269531 492.5 L 142.296875 492.5 L 142.296875 517.515625 Z M 142.296875 467.488281 L 92.269531 467.488281 C 78.492188 467.488281 67.253906 478.722656 67.253906 492.5 L 67.253906 517.515625 C 67.253906 531.292969 78.492188 542.53125 92.269531 542.53125 L 142.296875 542.53125 C 156.074219 542.53125 167.3125 531.292969 167.3125 517.515625 L 167.3125 492.5 C 167.3125 478.722656 156.074219 467.488281 142.296875 467.488281 "/>
<path style=" stroke:none;fill-rule:nonzero;fill:rgb(0%,0%,0%);fill-opacity:1;" d="M 217.339844 517.515625 L 217.339844 492.5 L 267.371094 492.5 L 267.371094 517.515625 Z M 267.371094 467.488281 L 217.339844 467.488281 C 203.5625 467.488281 192.328125 478.722656 192.328125 492.5 L 192.328125 517.515625 C 192.328125 531.292969 203.5625 542.53125 217.339844 542.53125 L 267.371094 542.53125 C 281.148438 542.53125 292.386719 531.292969 292.386719 517.515625 L 292.386719 492.5 C 292.386719 478.722656 281.148438 467.488281 267.371094 467.488281 "/>
<path style=" stroke:none;fill-rule:nonzero;fill:rgb(0%,0%,0%);fill-opacity:1;" d="M 342.414062 517.515625 L 342.414062 492.5 L 392.445312 492.5 L 392.445312 517.515625 Z M 392.445312 467.488281 L 342.414062 467.488281 C 328.636719 467.488281 317.398438 478.722656 317.398438 492.5 L 317.398438 517.515625 C 317.398438 531.292969 328.636719 542.53125 342.414062 542.53125 L 392.445312 542.53125 C 406.222656 542.53125 417.457031 531.292969 417.457031 517.515625 L 417.457031 492.5 C 417.457031 478.722656 406.222656 467.488281 392.445312 467.488281 "/>
<path style=" stroke:none;fill-rule:nonzero;fill:rgb(0%,0%,0%);fill-opacity:1;" d="M 92.269531 617.574219 L 92.269531 592.558594 L 142.296875 592.558594 L 142.296875 617.574219 Z M 142.296875 567.546875 L 92.269531 567.546875 C 78.492188 567.546875 67.253906 578.78125 67.253906 592.558594 L 67.253906 617.574219 C 67.253906 631.351562 78.492188 642.589844 92.269531 642.589844 L 142.296875 642.589844 C 156.074219 642.589844 167.3125 631.351562 167.3125 617.574219 L 167.3125 592.558594 C 167.3125 578.78125 156.074219 567.546875 142.296875 567.546875 "/>
<path style=" stroke:none;fill-rule:nonzero;fill:rgb(0%,0%,0%);fill-opacity:1;" d="M 217.339844 617.574219 L 217.339844 592.558594 L 267.371094 592.558594 L 267.371094 617.574219 Z M 267.371094 567.546875 L 217.339844 567.546875 C 203.5625 567.546875 192.328125 578.78125 192.328125 592.558594 L 192.328125 617.574219 C 192.328125 631.351562 203.5625 642.589844 217.339844 642.589844 L 267.371094 642.589844 C 281.148438 642.589844 292.386719 631.351562 292.386719 617.574219 L 292.386719 592.558594 C 292.386719 578.78125 281.148438 567.546875 267.371094 567.546875 "/>
<path style=" stroke:none;fill-rule:nonzero;fill:rgb(0%,0%,0%);fill-opacity:1;" d="M 92.269531 717.632812 L 92.269531 692.617188 L 142.296875 692.617188 L 142.296875 717.632812 Z M 142.296875 667.605469 L 92.269531 667.605469 C 78.492188 667.605469 67.253906 678.839844 67.253906 692.617188 L 67.253906 717.632812 C 67.253906 731.410156 78.492188 742.648438 92.269531 742.648438 L 142.296875 742.648438 C 156.074219 742.648438 167.3125 731.410156 167.3125 717.632812 L 167.3125 692.617188 C 167.3125 678.839844 156.074219 667.605469 142.296875 667.605469 "/>
<path style=" stroke:none;fill-rule:nonzero;fill:rgb(0%,0%,0%);fill-opacity:1;" d="M 217.339844 717.632812 L 217.339844 692.617188 L 267.371094 692.617188 L 267.371094 717.632812 Z M 267.371094 667.605469 L 217.339844 667.605469 C 203.5625 667.605469 192.328125 678.839844 192.328125 692.617188 L 192.328125 717.632812 C 192.328125 731.410156 203.5625 742.648438 217.339844 742.648438 L 267.371094 742.648438 C 281.148438 742.648438 292.386719 731.410156 292.386719 717.632812 L 292.386719 692.617188 C 292.386719 678.839844 281.148438 667.605469 267.371094 667.605469 "/>
<path style=" stroke:none;fill-rule:nonzero;fill:rgb(0%,0%,0%);fill-opacity:1;" d="M 342.414062 717.632812 L 342.414062 592.558594 L 392.445312 592.558594 L 392.445312 717.632812 Z M 392.445312 567.546875 L 342.414062 567.546875 C 328.636719 567.546875 317.398438 578.78125 317.398438 592.558594 L 317.398438 717.632812 C 317.398438 731.410156 328.636719 742.648438 342.414062 742.648438 L 392.445312 742.648438 C 406.222656 742.648438 417.457031 731.410156 417.457031 717.632812 L 417.457031 592.558594 C 417.457031 578.78125 406.222656 567.546875 392.445312 567.546875 "/>
<path style=" stroke:none;fill-rule:nonzero;fill:rgb(0%,0%,0%);fill-opacity:1;" d="M 342.414062 392.445312 L 367.429688 392.445312 L 367.429688 367.429688 L 342.414062 367.429688 L 342.414062 392.445312 "/>
<path style=" stroke:none;fill-rule:nonzero;fill:rgb(0%,0%,0%);fill-opacity:1;" d="M 292.386719 392.445312 L 317.398438 392.445312 L 317.398438 367.429688 L 292.386719 367.429688 L 292.386719 392.445312 "/>
<path style=" stroke:none;fill-rule:nonzero;fill:rgb(0%,0%,0%);fill-opacity:1;" d="M 242.355469 392.445312 L 267.371094 392.445312 L 267.371094 367.429688 L 242.355469 367.429688 L 242.355469 392.445312 "/>
</g>
</svg>
