<?xml version="1.0" encoding="UTF-8"?>
<svg xmlns="http://www.w3.org/2000/svg" xmlns:xlink="http://www.w3.org/1999/xlink" width="810pt" height="809.999993pt" viewBox="0 0 810 809.999993" version="1.2">
<defs>
<clipPath id="clip1">
  <path d="M 25.953125 25.953125 L 784.203125 25.953125 L 784.203125 784.203125 L 25.953125 784.203125 Z M 25.953125 25.953125 "/>
</clipPath>
</defs>
<g id="surface1">
<path style=" stroke:none;fill-rule:nonzero;fill:rgb(70.588684%,86.669922%,49.798584%);fill-opacity:1;" d="M 62.648438 478.554688 L 197.207031 478.554688 C 203.945312 478.554688 209.441406 484.050781 209.441406 490.785156 L 209.441406 637.578125 C 209.441406 644.3125 203.945312 649.808594 197.207031 649.808594 L 38.183594 649.808594 L 38.183594 478.554688 L 62.648438 478.554688 "/>
<path style=" stroke:none;fill-rule:nonzero;fill:rgb(98.81897%,84.309387%,43.919373%);fill-opacity:1;" d="M 503.019531 551.949219 C 503.019531 538.523438 491.980469 527.484375 478.554688 527.484375 L 527.484375 527.484375 C 534.222656 527.484375 540.339844 524.808594 544.734375 520.269531 C 549.273438 515.875 551.949219 509.757812 551.949219 503.019531 L 710.972656 503.019531 C 717.710938 503.019531 723.203125 497.523438 723.203125 490.785156 L 723.203125 99.347656 C 723.203125 92.609375 717.710938 87.113281 710.972656 87.113281 L 123.8125 87.113281 C 117.074219 87.113281 111.578125 92.609375 111.578125 99.347656 L 111.578125 478.554688 L 62.648438 478.554688 L 62.648438 74.882812 C 62.648438 54.574219 79.039062 38.183594 99.347656 38.183594 L 735.4375 38.183594 C 755.746094 38.183594 772.132812 54.574219 772.132812 74.882812 L 772.132812 515.25 C 772.132812 535.558594 755.746094 551.949219 735.4375 551.949219 L 503.019531 551.949219 "/>
<path style=" stroke:none;fill-rule:nonzero;fill:rgb(90.19928%,91.369629%,92.939758%);fill-opacity:1;" d="M 339.746094 356.230469 C 331.90625 380.457031 331.765625 382.03125 331.765625 383.609375 C 331.765625 397.464844 337.257812 410.65625 346.910156 420.308594 L 356.230469 429.625 L 317.476562 429.625 C 273.183594 429.625 232.183594 452.894531 209.441406 490.785156 C 209.441406 484.050781 203.945312 478.554688 197.207031 478.554688 L 111.578125 478.554688 L 111.578125 99.347656 C 111.578125 92.609375 117.074219 87.113281 123.8125 87.113281 L 710.972656 87.113281 C 717.710938 87.113281 723.203125 92.609375 723.203125 99.347656 L 723.203125 490.785156 C 723.203125 497.523438 717.710938 503.019531 710.972656 503.019531 L 551.949219 503.019531 C 551.949219 489.59375 540.910156 478.554688 527.484375 478.554688 L 454.089844 478.554688 L 454.089844 441.855469 L 469.859375 418.253906 C 475.496094 409.699219 478.554688 399.664062 478.554688 389.488281 L 478.554688 383.609375 C 478.554688 354.988281 455.285156 331.765625 426.710938 331.765625 L 383.609375 331.765625 C 373.574219 331.765625 364.210938 334.679688 356.230469 339.695312 L 356.230469 319.53125 C 356.230469 312.792969 350.734375 307.300781 343.996094 307.300781 L 172.742188 307.300781 C 166.003906 307.300781 160.511719 312.792969 160.511719 319.53125 L 160.511719 343.996094 C 160.511719 350.734375 166.003906 356.230469 172.742188 356.230469 Z M 307.300781 246.136719 L 307.300781 148.277344 C 307.300781 141.539062 301.804688 136.046875 295.066406 136.046875 L 172.742188 136.046875 C 166.003906 136.046875 160.511719 141.539062 160.511719 148.277344 L 160.511719 246.136719 C 160.511719 252.875 166.003906 258.371094 172.742188 258.371094 L 295.066406 258.371094 C 301.804688 258.371094 307.300781 252.875 307.300781 246.136719 Z M 503.019531 343.996094 C 503.019531 359.429688 507.082031 373.957031 514.25 386.429688 C 528.964844 412.277344 556.726562 429.625 588.648438 429.625 C 636 429.625 674.273438 391.351562 674.273438 343.996094 C 674.273438 328.46875 670.210938 314.039062 663.046875 301.566406 C 648.328125 275.714844 620.566406 258.371094 588.648438 258.371094 C 541.292969 258.371094 503.019531 296.644531 503.019531 343.996094 "/>
<path style=" stroke:none;fill-rule:nonzero;fill:rgb(70.588684%,86.669922%,49.798584%);fill-opacity:1;" d="M 258.371094 307.300781 L 258.371094 356.230469 L 209.441406 356.230469 L 209.441406 307.300781 L 258.371094 307.300781 "/>
<path style=" stroke:none;fill-rule:nonzero;fill:rgb(70.588684%,86.669922%,49.798584%);fill-opacity:1;" d="M 209.441406 307.300781 L 209.441406 356.230469 L 172.742188 356.230469 C 166.003906 356.230469 160.511719 350.734375 160.511719 343.996094 L 160.511719 319.53125 C 160.511719 312.792969 166.003906 307.300781 172.742188 307.300781 L 209.441406 307.300781 "/>
<path style=" stroke:none;fill-rule:nonzero;fill:rgb(70.588684%,86.669922%,49.798584%);fill-opacity:1;" d="M 307.300781 307.300781 L 307.300781 356.230469 L 258.371094 356.230469 L 258.371094 307.300781 L 307.300781 307.300781 "/>
<path style=" stroke:none;fill-rule:nonzero;fill:rgb(70.588684%,86.669922%,49.798584%);fill-opacity:1;" d="M 356.230469 339.601562 L 356.230469 339.695312 C 352.789062 341.65625 349.730469 344.140625 346.910156 346.910156 C 344.140625 349.730469 341.65625 352.789062 339.746094 356.230469 L 307.300781 356.230469 L 307.300781 307.300781 L 343.996094 307.300781 C 350.734375 307.300781 356.230469 312.792969 356.230469 319.53125 L 356.230469 339.601562 "/>
<path style=" stroke:none;fill-rule:nonzero;fill:rgb(98.81897%,84.309387%,43.919373%);fill-opacity:1;" d="M 307.300781 148.277344 L 307.300781 246.136719 C 307.300781 252.875 301.804688 258.371094 295.066406 258.371094 L 172.742188 258.371094 C 166.003906 258.371094 160.511719 252.875 160.511719 246.136719 L 160.511719 148.277344 C 160.511719 141.539062 166.003906 136.046875 172.742188 136.046875 L 295.066406 136.046875 C 301.804688 136.046875 307.300781 141.539062 307.300781 148.277344 "/>
<path style=" stroke:none;fill-rule:nonzero;fill:rgb(94.119263%,81.568909%,70.588684%);fill-opacity:1;" d="M 454.089844 441.855469 C 454.089844 452.035156 449.933594 461.210938 443.339844 467.804688 C 436.746094 474.398438 427.570312 478.554688 417.390625 478.554688 L 380.695312 478.554688 C 375.199219 489.6875 366.597656 498.863281 356.230469 505.21875 L 356.230469 674.273438 L 297.980469 674.273438 C 264.867188 674.273438 232.902344 661.039062 209.441406 637.578125 L 209.441406 490.785156 C 232.183594 452.894531 273.183594 429.625 317.476562 429.625 L 441.855469 429.625 C 448.59375 429.625 454.089844 435.121094 454.089844 441.855469 "/>
<path style=" stroke:none;fill-rule:nonzero;fill:rgb(94.119263%,81.568909%,70.588684%);fill-opacity:1;" d="M 478.554688 527.484375 C 491.980469 527.484375 503.019531 538.523438 503.019531 551.949219 C 503.019531 558.6875 500.34375 564.804688 495.804688 569.199219 C 491.40625 573.738281 485.292969 576.414062 478.554688 576.414062 L 454.089844 576.414062 C 440.664062 576.414062 429.625 565.375 429.625 551.949219 C 429.625 545.210938 432.300781 539.097656 436.839844 534.699219 C 441.234375 530.160156 447.351562 527.484375 454.089844 527.484375 L 478.554688 527.484375 "/>
<path style=" stroke:none;fill-rule:nonzero;fill:rgb(94.119263%,81.568909%,70.588684%);fill-opacity:1;" d="M 478.554688 576.414062 C 491.980469 576.414062 503.019531 587.453125 503.019531 600.878906 C 503.019531 607.617188 500.34375 613.734375 495.804688 618.128906 C 491.40625 622.667969 485.292969 625.34375 478.554688 625.34375 L 454.089844 625.34375 C 440.664062 625.34375 429.625 614.304688 429.625 600.878906 C 429.625 594.140625 432.300781 588.027344 436.839844 583.628906 C 441.234375 579.089844 447.351562 576.414062 454.089844 576.414062 L 478.554688 576.414062 "/>
<path style=" stroke:none;fill-rule:nonzero;fill:rgb(94.119263%,81.568909%,70.588684%);fill-opacity:1;" d="M 478.554688 625.34375 C 491.980469 625.34375 503.019531 636.382812 503.019531 649.808594 C 503.019531 656.546875 500.34375 662.664062 495.804688 667.058594 C 491.40625 671.597656 485.292969 674.273438 478.554688 674.273438 L 454.089844 674.273438 C 440.664062 674.273438 429.625 663.285156 429.625 649.808594 C 429.625 643.070312 432.300781 636.957031 436.839844 632.558594 C 441.234375 628.019531 447.351562 625.34375 454.089844 625.34375 L 478.554688 625.34375 "/>
<path style=" stroke:none;fill-rule:nonzero;fill:rgb(94.119263%,81.568909%,70.588684%);fill-opacity:1;" d="M 527.484375 478.554688 C 540.910156 478.554688 551.949219 489.59375 551.949219 503.019531 C 551.949219 509.757812 549.273438 515.875 544.734375 520.269531 C 540.339844 524.808594 534.222656 527.484375 527.484375 527.484375 L 454.089844 527.484375 L 454.089844 478.554688 L 527.484375 478.554688 "/>
<path style=" stroke:none;fill-rule:nonzero;fill:rgb(69.799805%,47.44873%,27.449036%);fill-opacity:1;" d="M 576.414062 723.203125 L 576.414062 759.902344 C 576.414062 766.640625 570.917969 772.132812 564.183594 772.132812 L 246.136719 772.132812 C 239.398438 772.132812 233.90625 766.640625 233.90625 759.902344 L 233.90625 723.203125 L 576.414062 723.203125 "/>
<path style=" stroke:none;fill-rule:nonzero;fill:rgb(69.799805%,47.44873%,27.449036%);fill-opacity:1;" d="M 233.90625 723.203125 C 233.90625 696.160156 255.789062 674.273438 282.835938 674.273438 L 527.484375 674.273438 C 554.53125 674.273438 576.414062 696.160156 576.414062 723.203125 L 233.90625 723.203125 "/>
<path style=" stroke:none;fill-rule:nonzero;fill:rgb(69.799805%,47.44873%,27.449036%);fill-opacity:1;" d="M 454.089844 478.554688 L 454.089844 527.484375 C 447.351562 527.484375 441.234375 530.160156 436.839844 534.699219 C 432.300781 539.097656 429.625 545.210938 429.625 551.949219 C 429.625 565.375 440.664062 576.414062 454.089844 576.414062 C 447.351562 576.414062 441.234375 579.089844 436.839844 583.628906 C 432.300781 588.027344 429.625 594.140625 429.625 600.878906 C 429.625 614.304688 440.664062 625.34375 454.089844 625.34375 C 447.351562 625.34375 441.234375 628.019531 436.839844 632.558594 C 432.300781 636.957031 429.625 643.070312 429.625 649.808594 C 429.625 663.285156 440.664062 674.273438 454.089844 674.273438 L 356.230469 674.273438 L 356.230469 505.21875 C 366.597656 498.863281 375.199219 489.6875 380.695312 478.554688 L 417.390625 478.554688 C 427.570312 478.554688 436.746094 474.398438 443.339844 467.804688 C 449.933594 461.210938 454.089844 452.035156 454.089844 441.855469 L 454.089844 478.554688 "/>
<path style=" stroke:none;fill-rule:nonzero;fill:rgb(69.799805%,47.44873%,27.449036%);fill-opacity:1;" d="M 469.859375 418.253906 L 454.089844 441.855469 C 454.089844 435.121094 448.59375 429.625 441.855469 429.625 L 356.230469 429.625 L 346.910156 420.308594 C 337.257812 410.65625 331.765625 397.464844 331.765625 383.609375 C 331.765625 382.03125 331.90625 380.457031 339.746094 356.230469 C 341.65625 352.789062 344.140625 349.730469 346.910156 346.910156 C 349.730469 344.140625 352.789062 341.65625 356.230469 339.695312 C 364.210938 334.679688 373.574219 331.765625 383.609375 331.765625 L 426.710938 331.765625 C 455.285156 331.765625 478.554688 354.988281 478.554688 383.609375 L 478.554688 389.488281 C 478.554688 399.664062 475.496094 409.699219 469.859375 418.253906 "/>
<path style=" stroke:none;fill-rule:nonzero;fill:rgb(93.728638%,45.098877%,52.159119%);fill-opacity:1;" d="M 663.046875 301.566406 L 620.566406 325.792969 C 614.210938 314.753906 602.359375 307.300781 588.648438 307.300781 C 568.339844 307.300781 551.949219 323.6875 551.949219 343.996094 C 551.949219 350.589844 553.8125 356.851562 556.726562 362.203125 L 514.25 386.429688 C 507.082031 373.957031 503.019531 359.429688 503.019531 343.996094 C 503.019531 296.644531 541.292969 258.371094 588.648438 258.371094 C 620.566406 258.371094 648.328125 275.714844 663.046875 301.566406 "/>
<path style=" stroke:none;fill-rule:nonzero;fill:rgb(93.728638%,45.098877%,52.159119%);fill-opacity:1;" d="M 663.046875 301.566406 C 670.210938 314.039062 674.273438 328.46875 674.273438 343.996094 C 674.273438 391.351562 636 429.625 588.648438 429.625 C 556.726562 429.625 528.964844 412.277344 514.25 386.429688 L 556.726562 362.203125 C 563.082031 373.242188 574.933594 380.695312 588.648438 380.695312 C 608.953125 380.695312 625.34375 364.304688 625.34375 343.996094 C 625.34375 337.402344 623.480469 331.144531 620.566406 325.792969 L 663.046875 301.566406 "/>
<path style=" stroke:none;fill-rule:nonzero;fill:rgb(93.728638%,45.098877%,52.159119%);fill-opacity:1;" d="M 620.566406 325.792969 L 556.726562 362.203125 C 553.8125 356.851562 551.949219 350.589844 551.949219 343.996094 C 551.949219 323.6875 568.339844 307.300781 588.648438 307.300781 C 602.359375 307.300781 614.210938 314.753906 620.566406 325.792969 "/>
<path style=" stroke:none;fill-rule:nonzero;fill:rgb(93.728638%,45.098877%,52.159119%);fill-opacity:1;" d="M 625.34375 343.996094 C 625.34375 364.304688 608.953125 380.695312 588.648438 380.695312 C 574.933594 380.695312 563.082031 373.242188 556.726562 362.203125 L 620.566406 325.792969 C 623.480469 331.144531 625.34375 337.402344 625.34375 343.996094 "/>
<g clip-path="url(#clip1)" clip-rule="nonzero">
<path style=" stroke:none;fill-rule:nonzero;fill:rgb(0%,0%,0%);fill-opacity:1;" d="M 759.902344 515.25 C 759.902344 528.726562 748.910156 539.71875 735.4375 539.71875 L 527.484375 539.71875 C 543.394531 539.71875 556.871094 529.445312 561.9375 515.25 L 710.972656 515.25 C 724.445312 515.25 735.4375 504.261719 735.4375 490.785156 L 735.4375 99.347656 C 735.4375 85.871094 724.445312 74.882812 710.972656 74.882812 L 123.8125 74.882812 C 110.335938 74.882812 99.347656 85.871094 99.347656 99.347656 L 99.347656 466.320312 L 74.882812 466.320312 L 74.882812 74.882812 C 74.882812 61.40625 85.871094 50.417969 99.347656 50.417969 L 735.4375 50.417969 C 748.910156 50.417969 759.902344 61.40625 759.902344 74.882812 Z M 454.089844 662.042969 C 447.351562 662.042969 441.855469 656.546875 441.855469 649.808594 C 441.855469 643.070312 447.351562 637.578125 454.089844 637.578125 L 478.554688 637.578125 C 485.292969 637.578125 490.785156 643.070312 490.785156 649.808594 C 490.785156 656.546875 485.292969 662.042969 478.554688 662.042969 Z M 561.9375 710.972656 L 248.382812 710.972656 C 253.449219 696.78125 266.921875 686.507812 282.835938 686.507812 L 527.484375 686.507812 C 543.394531 686.507812 556.871094 696.78125 561.9375 710.972656 Z M 246.136719 759.902344 L 246.136719 735.4375 L 564.183594 735.4375 L 564.230469 759.902344 Z M 478.554688 515.25 L 466.320312 515.25 L 466.320312 490.785156 L 527.484375 490.785156 C 534.222656 490.785156 539.71875 496.28125 539.71875 503.019531 C 539.71875 509.757812 534.222656 515.25 527.484375 515.25 Z M 368.460938 511.621094 C 376.058594 505.933594 382.703125 498.957031 387.8125 490.785156 L 417.390625 490.785156 C 426.328125 490.785156 434.640625 488.207031 441.855469 484 L 441.855469 517.496094 C 427.664062 522.5625 417.390625 536.039062 417.390625 551.949219 C 417.390625 561.410156 421.070312 569.914062 426.949219 576.414062 C 421.070312 582.914062 417.390625 591.417969 417.390625 600.878906 C 417.390625 610.339844 421.070312 618.847656 426.949219 625.34375 C 421.070312 631.84375 417.390625 640.347656 417.390625 649.808594 C 417.390625 654.109375 418.300781 658.171875 419.636719 662.042969 L 368.460938 662.042969 Z M 355.609375 411.707031 C 348.203125 404.300781 343.996094 394.074219 343.996094 383.65625 C 343.996094 361.773438 361.773438 343.996094 383.65625 343.996094 L 426.660156 343.996094 C 448.546875 343.996094 466.320312 361.773438 466.320312 383.65625 L 466.320312 389.4375 C 466.320312 397.324219 464.027344 404.921875 459.679688 411.46875 L 453.613281 420.546875 C 450.074219 418.585938 446.109375 417.390625 441.855469 417.390625 L 361.292969 417.390625 Z M 319.53125 319.53125 L 343.996094 319.53125 L 343.996094 333.675781 C 340.175781 336.734375 336.734375 340.175781 333.675781 343.996094 L 319.53125 343.996094 Z M 270.601562 319.53125 L 295.066406 319.53125 L 295.066406 343.996094 L 270.601562 343.996094 Z M 221.671875 319.53125 L 246.136719 319.53125 L 246.136719 343.996094 L 221.671875 343.996094 Z M 172.742188 343.996094 L 172.742188 319.53125 L 197.207031 319.53125 L 197.207031 343.996094 Z M 221.671875 494.5625 C 242.410156 462.023438 278.773438 441.855469 317.476562 441.855469 L 441.855469 441.855469 C 441.855469 455.332031 430.867188 466.320312 417.390625 466.320312 L 373.144531 466.320312 L 369.753906 473.058594 C 363.347656 485.914062 352.261719 495.515625 338.644531 500.058594 L 327.894531 503.640625 L 335.636719 526.863281 L 343.996094 524.042969 L 343.996094 579.234375 C 331.046875 567.382812 315.710938 558.160156 298.9375 552.570312 L 291.195312 575.792969 C 312.269531 582.816406 330.714844 596.867188 343.042969 615.359375 L 343.996094 616.792969 L 343.996094 662.042969 L 298.03125 662.042969 C 269.457031 662.042969 242.601562 651.433594 221.671875 632.175781 Z M 490.785156 600.878906 C 490.785156 607.617188 485.292969 613.113281 478.554688 613.113281 L 454.089844 613.113281 C 447.351562 613.113281 441.855469 607.617188 441.855469 600.878906 C 441.855469 594.140625 447.351562 588.648438 454.089844 588.648438 L 478.554688 588.648438 C 485.292969 588.648438 490.785156 594.140625 490.785156 600.878906 Z M 490.785156 551.949219 C 490.785156 558.6875 485.292969 564.183594 478.554688 564.183594 L 454.089844 564.183594 C 447.351562 564.183594 441.855469 558.6875 441.855469 551.949219 C 441.855469 545.210938 447.351562 539.71875 454.089844 539.71875 L 478.554688 539.71875 C 485.292969 539.71875 490.785156 545.210938 490.785156 551.949219 Z M 123.8125 466.320312 L 123.8125 99.347656 L 710.972656 99.347656 L 710.972656 490.785156 L 561.9375 490.785156 C 556.871094 476.59375 543.394531 466.320312 527.484375 466.320312 L 466.320312 466.320312 L 466.320312 445.535156 L 479.988281 425.039062 C 487.058594 414.476562 490.785156 402.148438 490.785156 389.4375 L 490.785156 383.65625 C 490.785156 348.296875 462.023438 319.53125 426.660156 319.53125 L 383.65625 319.53125 C 378.402344 319.53125 373.382812 320.34375 368.460938 321.539062 L 368.460938 319.53125 C 368.460938 306.058594 357.472656 295.066406 343.996094 295.066406 L 172.742188 295.066406 C 159.265625 295.066406 148.277344 306.058594 148.277344 319.53125 L 148.277344 343.996094 C 148.277344 357.472656 159.265625 368.460938 172.742188 368.460938 L 321.539062 368.460938 C 320.34375 373.382812 319.53125 378.402344 319.53125 383.65625 C 319.53125 395.792969 323.019531 407.359375 329.28125 417.390625 L 317.476562 417.390625 C 275.285156 417.390625 235.242188 437.03125 209.25 469.667969 C 205.710938 467.5625 201.601562 466.320312 197.207031 466.320312 Z M 197.207031 637.578125 L 50.417969 637.578125 L 50.417969 490.785156 L 197.207031 490.785156 Z M 735.4375 25.953125 L 99.347656 25.953125 C 72.351562 25.953125 50.417969 47.886719 50.417969 74.882812 L 50.417969 466.320312 L 25.953125 466.320312 L 25.953125 662.042969 L 197.207031 662.042969 C 202.988281 662.042969 208.246094 659.9375 212.449219 656.546875 C 222.339844 664.480469 233.1875 670.929688 244.703125 675.804688 C 230.75 686.984375 221.671875 703.949219 221.671875 723.203125 L 221.671875 759.902344 C 221.671875 773.375 232.664062 784.367188 246.136719 784.367188 L 564.183594 784.367188 C 577.65625 784.367188 588.648438 773.375 588.648438 759.902344 L 588.648438 723.203125 C 588.648438 689.46875 561.21875 662.042969 527.484375 662.042969 L 513.007812 662.042969 C 514.34375 658.171875 515.25 654.109375 515.25 649.808594 C 515.25 640.347656 511.574219 631.84375 505.695312 625.34375 C 511.574219 618.847656 515.25 610.339844 515.25 600.878906 C 515.25 591.417969 511.574219 582.914062 505.695312 576.414062 C 508.898438 572.878906 511.382812 568.769531 513.007812 564.183594 L 735.4375 564.183594 C 762.433594 564.183594 784.367188 542.25 784.367188 515.25 L 784.367188 74.882812 C 784.367188 47.886719 762.433594 25.953125 735.4375 25.953125 "/>
</g>
<path style=" stroke:none;fill-rule:nonzero;fill:rgb(0%,0%,0%);fill-opacity:1;" d="M 172.742188 148.277344 L 295.066406 148.277344 L 295.066406 246.136719 L 172.742188 246.136719 Z M 172.742188 270.601562 L 295.066406 270.601562 C 308.542969 270.601562 319.53125 259.613281 319.53125 246.136719 L 319.53125 148.277344 C 319.53125 134.800781 308.542969 123.8125 295.066406 123.8125 L 172.742188 123.8125 C 159.265625 123.8125 148.277344 134.800781 148.277344 148.277344 L 148.277344 246.136719 C 148.277344 259.613281 159.265625 270.601562 172.742188 270.601562 "/>
<path style=" stroke:none;fill-rule:nonzero;fill:rgb(0%,0%,0%);fill-opacity:1;" d="M 417.390625 148.277344 L 343.996094 148.277344 L 343.996094 172.742188 L 417.390625 172.742188 L 417.390625 148.277344 "/>
<path style=" stroke:none;fill-rule:nonzero;fill:rgb(0%,0%,0%);fill-opacity:1;" d="M 613.113281 148.277344 L 441.855469 148.277344 L 441.855469 172.742188 L 613.113281 172.742188 L 613.113281 148.277344 "/>
<path style=" stroke:none;fill-rule:nonzero;fill:rgb(0%,0%,0%);fill-opacity:1;" d="M 613.113281 197.207031 L 343.996094 197.207031 L 343.996094 221.671875 L 613.113281 221.671875 L 613.113281 197.207031 "/>
<path style=" stroke:none;fill-rule:nonzero;fill:rgb(0%,0%,0%);fill-opacity:1;" d="M 515.25 246.136719 L 343.996094 246.136719 L 343.996094 270.601562 L 515.25 270.601562 L 515.25 246.136719 "/>
<path style=" stroke:none;fill-rule:nonzero;fill:rgb(0%,0%,0%);fill-opacity:1;" d="M 148.277344 417.390625 L 172.742188 417.390625 L 172.742188 392.925781 L 148.277344 392.925781 L 148.277344 417.390625 "/>
<path style=" stroke:none;fill-rule:nonzero;fill:rgb(0%,0%,0%);fill-opacity:1;" d="M 221.671875 392.925781 L 197.207031 392.925781 L 197.207031 417.390625 L 221.671875 417.390625 L 221.671875 392.925781 "/>
<path style=" stroke:none;fill-rule:nonzero;fill:rgb(0%,0%,0%);fill-opacity:1;" d="M 270.601562 392.925781 L 246.136719 392.925781 L 246.136719 417.390625 L 270.601562 417.390625 L 270.601562 392.925781 "/>
<path style=" stroke:none;fill-rule:nonzero;fill:rgb(0%,0%,0%);fill-opacity:1;" d="M 645.367188 297.503906 L 623.625 309.929688 C 614.738281 300.800781 602.359375 295.066406 588.648438 295.066406 C 561.648438 295.066406 539.71875 317 539.71875 343.996094 C 539.71875 348.441406 540.527344 352.695312 541.628906 356.753906 L 519.792969 369.226562 C 516.925781 361.34375 515.25 352.886719 515.25 343.996094 C 515.25 303.523438 548.175781 270.601562 588.648438 270.601562 C 611.488281 270.601562 631.890625 281.066406 645.367188 297.503906 Z M 613.113281 344.09375 C 613.015625 357.566406 602.074219 368.460938 588.648438 368.460938 C 584.203125 368.460938 580.046875 367.171875 576.414062 365.070312 Z M 564.183594 343.902344 C 564.277344 330.425781 575.21875 319.53125 588.648438 319.53125 C 593.089844 319.53125 597.246094 320.824219 600.878906 322.925781 Z M 588.648438 417.390625 C 565.804688 417.390625 545.402344 406.925781 531.929688 390.488281 L 553.667969 378.066406 C 562.558594 387.191406 574.933594 392.925781 588.648438 392.925781 C 615.644531 392.925781 637.578125 370.996094 637.578125 343.996094 C 637.578125 339.554688 636.765625 335.300781 635.664062 331.238281 L 657.503906 318.769531 C 660.371094 326.652344 662.042969 335.109375 662.042969 343.996094 C 662.042969 384.46875 629.117188 417.390625 588.648438 417.390625 Z M 490.785156 343.996094 C 490.785156 397.945312 534.699219 441.855469 588.648438 441.855469 C 642.59375 441.855469 686.507812 397.945312 686.507812 343.996094 C 686.507812 290.050781 642.59375 246.136719 588.648438 246.136719 C 534.699219 246.136719 490.785156 290.050781 490.785156 343.996094 "/>
</g>
</svg>
