<?xml version="1.0" encoding="UTF-8"?>
<svg xmlns="http://www.w3.org/2000/svg" xmlns:xlink="http://www.w3.org/1999/xlink" width="810pt" height="809.999993pt" viewBox="0 0 810 809.999993" version="1.2">
<defs>
<clipPath id="clip1">
  <path d="M 51.5 19 L 758.75 19 L 758.75 792 L 51.5 792 Z M 51.5 19 "/>
</clipPath>
</defs>
<g id="surface1">
<g clip-path="url(#clip1)" clip-rule="nonzero">
<path style=" stroke:none;fill-rule:nonzero;fill:rgb(5.099487%,27.839661%,63.139343%);fill-opacity:1;" d="M 51.820312 83.539062 L 51.820312 662.65625 C 51.820312 698.03125 80.792969 726.996094 116.171875 726.996094 L 470.839844 726.996094 C 500.183594 765.851562 546.332031 791.34375 598.78125 791.34375 C 687.601562 791.34375 759.65625 719.300781 759.65625 630.476562 C 759.65625 552.664062 704.355469 487.78125 630.953125 472.851562 L 630.953125 83.539062 C 630.953125 48.148438 601.984375 19.191406 566.609375 19.191406 L 116.171875 19.191406 C 80.792969 19.191406 51.820312 48.148438 51.820312 83.539062 Z M 51.820312 83.539062 "/>
</g>
<path style=" stroke:none;fill-rule:nonzero;fill:rgb(89.019775%,94.898987%,99.21875%);fill-opacity:1;" d="M 574.652344 654.605469 L 695.304688 654.605469 L 695.304688 606.347656 L 622.910156 606.347656 L 622.910156 533.964844 L 574.652344 533.964844 Z M 574.652344 654.605469 "/>
<path style=" stroke:none;fill-rule:nonzero;fill:rgb(89.019775%,94.898987%,99.21875%);fill-opacity:1;" d="M 116.171875 662.65625 L 441.179688 662.65625 C 439.035156 652.25 437.90625 641.519531 437.90625 630.476562 C 437.90625 552.664062 493.207031 487.78125 566.609375 472.851562 L 566.609375 83.539062 L 116.171875 83.539062 Z M 116.171875 662.65625 "/>
<path style=" stroke:none;fill-rule:nonzero;fill:rgb(5.099487%,27.839661%,63.139343%);fill-opacity:1;" d="M 180.523438 405.269531 L 437.90625 405.269531 L 437.90625 469.609375 L 180.523438 469.609375 Z M 180.523438 405.269531 "/>
<path style=" stroke:none;fill-rule:nonzero;fill:rgb(5.099487%,27.839661%,63.139343%);fill-opacity:1;" d="M 180.523438 533.964844 L 373.566406 533.964844 L 373.566406 598.304688 L 180.523438 598.304688 Z M 180.523438 533.964844 "/>
<path style=" stroke:none;fill-rule:nonzero;fill:rgb(5.099487%,27.839661%,63.139343%);fill-opacity:1;" d="M 180.523438 276.578125 L 502.257812 276.578125 L 502.257812 340.929688 L 180.523438 340.929688 Z M 180.523438 276.578125 "/>
<path style=" stroke:none;fill-rule:nonzero;fill:rgb(5.099487%,27.839661%,63.139343%);fill-opacity:1;" d="M 180.523438 147.878906 L 437.90625 147.878906 L 437.90625 212.230469 L 180.523438 212.230469 Z M 180.523438 147.878906 "/>
</g>
</svg>
