<?xml version="1.0" encoding="UTF-8"?>
<svg xmlns="http://www.w3.org/2000/svg" xmlns:xlink="http://www.w3.org/1999/xlink" width="810pt" height="809.999993pt" viewBox="0 0 810 809.999993" version="1.2">
<defs>
<clipPath id="clip1">
  <path d="M 26.535156 39 L 783.109375 39 L 783.109375 783.109375 L 26.535156 783.109375 Z M 26.535156 39 "/>
</clipPath>
<clipPath id="clip2">
  <path d="M 26.535156 127 L 52 127 L 52 153 L 26.535156 153 Z M 26.535156 127 "/>
</clipPath>
<clipPath id="clip3">
  <path d="M 657 26.535156 L 683 26.535156 L 683 52 L 657 52 Z M 657 26.535156 "/>
</clipPath>
<clipPath id="clip4">
  <path d="M 707 26.535156 L 733 26.535156 L 733 52 L 707 52 Z M 707 26.535156 "/>
</clipPath>
<clipPath id="clip5">
  <path d="M 757 26.535156 L 783.109375 26.535156 L 783.109375 52 L 757 52 Z M 757 26.535156 "/>
</clipPath>
</defs>
<g id="surface1">
<path style=" stroke:none;fill-rule:nonzero;fill:rgb(91.758728%,49.409485%,45.098877%);fill-opacity:1;" d="M 745.28125 303.945312 C 745.28125 276.078125 722.707031 253.507812 694.839844 253.507812 L 114.800781 253.507812 C 86.933594 253.507812 64.363281 276.078125 64.363281 303.945312 L 64.363281 707.453125 L 39.144531 707.453125 L 39.144531 720.0625 C 39.144531 747.914062 61.726562 770.5 89.582031 770.5 L 720.0625 770.5 C 747.914062 770.5 770.5 747.914062 770.5 720.0625 L 770.5 707.453125 L 745.28125 707.453125 Z M 114.800781 303.945312 L 694.839844 303.945312 L 694.839844 657.011719 L 114.800781 657.011719 Z M 114.800781 303.945312 "/>
<path style=" stroke:none;fill-rule:nonzero;fill:rgb(96.859741%,93.328857%,85.488892%);fill-opacity:1;" d="M 694.839844 303.945312 L 114.800781 303.945312 L 114.800781 657.011719 L 694.839844 657.011719 Z M 354.246094 565.011719 C 351.484375 567.472656 348.671875 569.882812 345.683594 572.0625 C 326.957031 585.792969 303.804688 593.964844 278.726562 593.964844 C 253.644531 593.964844 230.496094 585.792969 211.769531 572.0625 C 208.78125 569.882812 205.957031 567.472656 203.207031 565.011719 C 179.90625 544.21875 165.238281 514.070312 165.238281 480.480469 C 165.238281 417.835938 216.082031 366.992188 278.726562 366.992188 C 341.371094 366.992188 392.210938 417.835938 392.210938 480.480469 C 392.210938 514.070312 377.546875 544.21875 354.246094 565.011719 Z M 644.402344 606.574219 L 442.648438 606.574219 L 442.648438 505.699219 L 644.402344 505.699219 Z M 644.402344 455.261719 L 442.648438 455.261719 L 442.648438 354.382812 L 644.402344 354.382812 Z M 644.402344 455.261719 "/>
<path style=" stroke:none;fill-rule:nonzero;fill:rgb(93.728638%,75.289917%,38.42926%);fill-opacity:1;" d="M 278.726562 366.992188 C 216.082031 366.992188 165.238281 417.835938 165.238281 480.480469 C 165.238281 514.070312 179.90625 544.21875 203.207031 565.011719 C 205.136719 524.953125 238.273438 493.089844 278.726562 493.089844 C 257.832031 493.089844 240.898438 476.152344 240.898438 455.261719 C 240.898438 434.367188 257.832031 417.429688 278.726562 417.429688 C 299.621094 417.429688 316.554688 434.367188 316.554688 455.261719 C 316.554688 476.152344 299.621094 493.089844 278.726562 493.089844 C 319.175781 493.089844 352.316406 524.953125 354.246094 565.011719 C 377.546875 544.21875 392.210938 514.070312 392.210938 480.480469 C 392.210938 417.835938 341.371094 366.992188 278.726562 366.992188 Z M 278.726562 366.992188 "/>
<path style=" stroke:none;fill-rule:nonzero;fill:rgb(38.038635%,85.879517%,85.879517%);fill-opacity:1;" d="M 278.726562 493.089844 C 238.273438 493.089844 205.136719 524.953125 203.207031 565.011719 C 205.96875 567.472656 208.78125 569.882812 211.769531 572.0625 C 230.496094 585.792969 253.644531 593.964844 278.726562 593.964844 C 303.804688 593.964844 326.957031 585.792969 345.683594 572.0625 C 348.671875 569.882812 351.496094 567.472656 354.246094 565.011719 C 352.316406 524.953125 319.175781 493.089844 278.726562 493.089844 Z M 278.726562 493.089844 "/>
<path style=" stroke:none;fill-rule:nonzero;fill:rgb(38.038635%,85.879517%,85.879517%);fill-opacity:1;" d="M 316.554688 455.261719 C 316.554688 456.5 316.492188 457.734375 316.371094 458.96875 C 316.25 460.199219 316.070312 461.425781 315.828125 462.640625 C 315.585938 463.855469 315.285156 465.054688 314.925781 466.242188 C 314.566406 467.425781 314.148438 468.589844 313.675781 469.734375 C 313.199219 470.882812 312.671875 472 312.085938 473.09375 C 311.503906 474.183594 310.867188 475.246094 310.179688 476.277344 C 309.492188 477.304688 308.753906 478.300781 307.96875 479.257812 C 307.183594 480.214844 306.351562 481.132812 305.476562 482.007812 C 304.597656 482.886719 303.683594 483.714844 302.722656 484.5 C 301.765625 485.289062 300.773438 486.023438 299.742188 486.714844 C 298.710938 487.402344 297.652344 488.039062 296.558594 488.621094 C 295.464844 489.207031 294.347656 489.734375 293.203125 490.210938 C 292.058594 490.683594 290.894531 491.101562 289.707031 491.460938 C 288.519531 491.820312 287.320312 492.121094 286.105469 492.363281 C 284.890625 492.601562 283.667969 492.785156 282.433594 492.90625 C 281.199219 493.027344 279.964844 493.089844 278.726562 493.089844 C 277.488281 493.089844 276.25 493.027344 275.019531 492.90625 C 273.785156 492.785156 272.5625 492.601562 271.347656 492.363281 C 270.128906 492.121094 268.929688 491.820312 267.746094 491.460938 C 266.558594 491.101562 265.394531 490.683594 264.25 490.210938 C 263.105469 489.734375 261.984375 489.207031 260.894531 488.621094 C 259.800781 488.039062 258.738281 487.402344 257.710938 486.714844 C 256.679688 486.023438 255.683594 485.289062 254.726562 484.503906 C 253.769531 483.714844 252.851562 482.886719 251.976562 482.007812 C 251.101562 481.132812 250.269531 480.214844 249.484375 479.257812 C 248.699219 478.300781 247.960938 477.304688 247.273438 476.277344 C 246.585938 475.246094 245.949219 474.183594 245.363281 473.09375 C 244.78125 472 244.25 470.882812 243.777344 469.734375 C 243.300781 468.589844 242.886719 467.425781 242.527344 466.242188 C 242.167969 465.054688 241.867188 463.855469 241.625 462.640625 C 241.382812 461.425781 241.199219 460.199219 241.078125 458.96875 C 240.957031 457.734375 240.898438 456.5 240.898438 455.261719 C 240.898438 454.019531 240.957031 452.785156 241.078125 451.550781 C 241.199219 450.320312 241.382812 449.09375 241.625 447.878906 C 241.867188 446.664062 242.167969 445.464844 242.527344 444.277344 C 242.886719 443.09375 243.300781 441.929688 243.777344 440.785156 C 244.25 439.640625 244.78125 438.519531 245.363281 437.425781 C 245.949219 436.335938 246.585938 435.273438 247.273438 434.242188 C 247.960938 433.214844 248.699219 432.21875 249.484375 431.261719 C 250.269531 430.304688 251.101562 429.386719 251.976562 428.511719 C 252.851562 427.636719 253.769531 426.804688 254.726562 426.019531 C 255.683594 425.230469 256.679688 424.496094 257.710938 423.804688 C 258.738281 423.117188 259.800781 422.480469 260.894531 421.898438 C 261.984375 421.3125 263.105469 420.785156 264.25 420.3125 C 265.394531 419.835938 266.558594 419.417969 267.746094 419.058594 C 268.929688 418.699219 270.128906 418.398438 271.347656 418.15625 C 272.5625 417.917969 273.785156 417.734375 275.019531 417.613281 C 276.25 417.492188 277.488281 417.429688 278.726562 417.429688 C 279.964844 417.429688 281.199219 417.492188 282.433594 417.613281 C 283.667969 417.734375 284.890625 417.917969 286.105469 418.15625 C 287.320312 418.398438 288.519531 418.699219 289.707031 419.058594 C 290.894531 419.417969 292.058594 419.835938 293.203125 420.3125 C 294.347656 420.785156 295.464844 421.3125 296.558594 421.898438 C 297.652344 422.480469 298.710938 423.117188 299.742188 423.804688 C 300.773438 424.496094 301.765625 425.230469 302.722656 426.019531 C 303.683594 426.804688 304.597656 427.636719 305.476562 428.511719 C 306.351562 429.386719 307.183594 430.304688 307.96875 431.261719 C 308.753906 432.21875 309.492188 433.214844 310.179688 434.242188 C 310.867188 435.273438 311.503906 436.335938 312.085938 437.425781 C 312.671875 438.519531 313.199219 439.640625 313.675781 440.785156 C 314.148438 441.929688 314.566406 443.09375 314.925781 444.277344 C 315.285156 445.464844 315.585938 446.664062 315.828125 447.878906 C 316.070312 449.09375 316.25 450.320312 316.371094 451.550781 C 316.492188 452.785156 316.554688 454.019531 316.554688 455.261719 Z M 316.554688 455.261719 "/>
<path style=" stroke:none;fill-rule:nonzero;fill:rgb(93.728638%,75.289917%,38.42926%);fill-opacity:1;" d="M 442.648438 354.382812 L 644.402344 354.382812 L 644.402344 455.261719 L 442.648438 455.261719 Z M 442.648438 354.382812 "/>
<path style=" stroke:none;fill-rule:nonzero;fill:rgb(93.728638%,75.289917%,38.42926%);fill-opacity:1;" d="M 442.648438 505.699219 L 644.402344 505.699219 L 644.402344 606.574219 L 442.648438 606.574219 Z M 442.648438 505.699219 "/>
<path style=" stroke:none;fill-rule:nonzero;fill:rgb(38.038635%,85.879517%,85.879517%);fill-opacity:1;" d="M 404.820312 203.070312 L 442.648438 203.070312 L 442.648438 127.410156 L 518.308594 127.410156 L 518.308594 51.753906 L 291.335938 51.753906 L 291.335938 127.410156 L 366.992188 127.410156 L 366.992188 203.070312 Z M 404.820312 203.070312 "/>
<path style=" stroke:none;fill-rule:nonzero;fill:rgb(7.058716%,13.729858%,19.999695%);fill-opacity:1;" d="M 278.726562 354.382812 C 209.195312 354.382812 152.628906 410.949219 152.628906 480.480469 C 152.628906 520.539062 171.960938 558.570312 204.316406 582.226562 C 226.03125 598.152344 251.765625 606.574219 278.726562 606.574219 C 305.683594 606.574219 331.421875 598.152344 353.121094 582.238281 C 385.492188 558.570312 404.820312 520.539062 404.820312 480.480469 C 404.820312 410.949219 348.253906 354.382812 278.726562 354.382812 Z M 219.207031 561.875 C 218.3125 561.21875 217.519531 560.449219 216.648438 559.753906 C 221.039062 529.050781 247.0625 505.699219 278.726562 505.699219 C 310.386719 505.699219 336.414062 529.050781 340.804688 559.753906 C 339.921875 560.449219 339.136719 561.21875 338.230469 561.886719 C 303.492188 587.359375 253.984375 587.371094 219.207031 561.875 Z M 253.507812 455.261719 C 253.507812 441.351562 264.816406 430.039062 278.726562 430.039062 C 292.632812 430.039062 303.945312 441.351562 303.945312 455.261719 C 303.945312 469.167969 292.632812 480.480469 278.726562 480.480469 C 264.816406 480.480469 253.507812 469.167969 253.507812 455.261719 Z M 361.417969 537.964844 C 353.335938 516.152344 336.917969 498.574219 316.089844 488.828125 C 324.132812 479.898438 329.164062 468.199219 329.164062 455.261719 C 329.164062 427.441406 306.542969 404.820312 278.726562 404.820312 C 250.910156 404.820312 228.289062 427.441406 228.289062 455.261719 C 228.289062 468.199219 233.320312 479.898438 241.363281 488.839844 C 220.519531 498.574219 204.113281 516.164062 196.03125 537.980469 C 184.417969 521.257812 177.847656 501.234375 177.847656 480.480469 C 177.847656 424.859375 223.105469 379.601562 278.726562 379.601562 C 334.347656 379.601562 379.601562 424.859375 379.601562 480.480469 C 379.601562 501.234375 373.03125 521.257812 361.417969 537.964844 Z M 361.417969 537.964844 "/>
<path style=" stroke:none;fill-rule:nonzero;fill:rgb(7.058716%,13.729858%,19.999695%);fill-opacity:1;" d="M 102.191406 303.945312 L 102.191406 657.011719 C 102.191406 663.984375 107.839844 669.621094 114.800781 669.621094 L 694.839844 669.621094 C 701.800781 669.621094 707.453125 663.984375 707.453125 657.011719 L 707.453125 303.945312 C 707.453125 296.972656 701.800781 291.335938 694.839844 291.335938 L 114.800781 291.335938 C 107.839844 291.335938 102.191406 296.972656 102.191406 303.945312 Z M 127.410156 316.554688 L 682.230469 316.554688 L 682.230469 644.402344 L 127.410156 644.402344 Z M 127.410156 316.554688 "/>
<path style=" stroke:none;fill-rule:nonzero;fill:rgb(7.058716%,13.729858%,19.999695%);fill-opacity:1;" d="M 644.402344 341.773438 L 442.648438 341.773438 C 435.691406 341.773438 430.039062 347.410156 430.039062 354.382812 L 430.039062 455.261719 C 430.039062 462.234375 435.691406 467.871094 442.648438 467.871094 L 644.402344 467.871094 C 651.363281 467.871094 657.011719 462.234375 657.011719 455.261719 L 657.011719 354.382812 C 657.011719 347.410156 651.363281 341.773438 644.402344 341.773438 Z M 631.792969 442.648438 L 455.261719 442.648438 L 455.261719 366.992188 L 631.792969 366.992188 Z M 631.792969 442.648438 "/>
<path style=" stroke:none;fill-rule:nonzero;fill:rgb(7.058716%,13.729858%,19.999695%);fill-opacity:1;" d="M 530.917969 392.210938 L 556.136719 392.210938 L 556.136719 417.429688 L 530.917969 417.429688 Z M 530.917969 392.210938 "/>
<path style=" stroke:none;fill-rule:nonzero;fill:rgb(7.058716%,13.729858%,19.999695%);fill-opacity:1;" d="M 480.480469 392.210938 L 505.699219 392.210938 L 505.699219 417.429688 L 480.480469 417.429688 Z M 480.480469 392.210938 "/>
<path style=" stroke:none;fill-rule:nonzero;fill:rgb(7.058716%,13.729858%,19.999695%);fill-opacity:1;" d="M 581.355469 392.210938 L 606.574219 392.210938 L 606.574219 417.429688 L 581.355469 417.429688 Z M 581.355469 392.210938 "/>
<path style=" stroke:none;fill-rule:nonzero;fill:rgb(7.058716%,13.729858%,19.999695%);fill-opacity:1;" d="M 644.402344 493.089844 L 442.648438 493.089844 C 435.691406 493.089844 430.039062 498.726562 430.039062 505.699219 L 430.039062 606.574219 C 430.039062 613.546875 435.691406 619.183594 442.648438 619.183594 L 644.402344 619.183594 C 651.363281 619.183594 657.011719 613.546875 657.011719 606.574219 L 657.011719 505.699219 C 657.011719 498.726562 651.363281 493.089844 644.402344 493.089844 Z M 631.792969 593.964844 L 455.261719 593.964844 L 455.261719 518.308594 L 631.792969 518.308594 Z M 631.792969 593.964844 "/>
<path style=" stroke:none;fill-rule:nonzero;fill:rgb(7.058716%,13.729858%,19.999695%);fill-opacity:1;" d="M 530.917969 543.527344 L 556.136719 543.527344 L 556.136719 568.746094 L 530.917969 568.746094 Z M 530.917969 543.527344 "/>
<path style=" stroke:none;fill-rule:nonzero;fill:rgb(7.058716%,13.729858%,19.999695%);fill-opacity:1;" d="M 480.480469 543.527344 L 505.699219 543.527344 L 505.699219 568.746094 L 480.480469 568.746094 Z M 480.480469 543.527344 "/>
<path style=" stroke:none;fill-rule:nonzero;fill:rgb(7.058716%,13.729858%,19.999695%);fill-opacity:1;" d="M 581.355469 543.527344 L 606.574219 543.527344 L 606.574219 568.746094 L 581.355469 568.746094 Z M 581.355469 543.527344 "/>
<g clip-path="url(#clip1)" clip-rule="nonzero">
<path style=" stroke:none;fill-rule:nonzero;fill:rgb(7.058716%,13.729858%,19.999695%);fill-opacity:1;" d="M 530.917969 51.753906 C 530.917969 44.78125 525.269531 39.144531 518.308594 39.144531 L 291.335938 39.144531 C 284.375 39.144531 278.726562 44.78125 278.726562 51.753906 L 278.726562 76.972656 L 26.535156 76.972656 L 26.535156 102.191406 L 278.726562 102.191406 L 278.726562 127.410156 C 278.726562 134.382812 284.375 140.019531 291.335938 140.019531 L 354.382812 140.019531 L 354.382812 203.070312 C 354.382812 210.042969 360.03125 215.679688 366.992188 215.679688 L 392.210938 215.679688 L 392.210938 240.898438 L 114.800781 240.898438 C 80.035156 240.898438 51.753906 269.179688 51.753906 303.945312 L 51.753906 694.839844 L 39.144531 694.839844 C 32.183594 694.839844 26.535156 700.476562 26.535156 707.453125 L 26.535156 720.0625 C 26.535156 754.824219 54.816406 783.109375 89.582031 783.109375 L 720.0625 783.109375 C 754.824219 783.109375 783.109375 754.824219 783.109375 720.0625 L 783.109375 707.453125 C 783.109375 700.476562 777.460938 694.839844 770.5 694.839844 L 757.890625 694.839844 L 757.890625 303.945312 C 757.890625 269.179688 729.605469 240.898438 694.839844 240.898438 L 417.429688 240.898438 L 417.429688 215.679688 L 442.648438 215.679688 C 449.609375 215.679688 455.261719 210.042969 455.261719 203.070312 L 455.261719 140.019531 L 518.308594 140.019531 C 525.269531 140.019531 530.917969 134.382812 530.917969 127.410156 L 530.917969 102.191406 L 783.109375 102.191406 L 783.109375 76.972656 L 530.917969 76.972656 Z M 720.0625 757.890625 L 89.582031 757.890625 C 68.726562 757.890625 51.753906 740.917969 51.753906 720.0625 L 757.890625 720.0625 C 757.890625 740.917969 740.917969 757.890625 720.0625 757.890625 Z M 732.671875 303.945312 L 732.671875 694.839844 L 76.972656 694.839844 L 76.972656 303.945312 C 76.972656 283.089844 93.945312 266.117188 114.800781 266.117188 L 694.839844 266.117188 C 715.699219 266.117188 732.671875 283.089844 732.671875 303.945312 Z M 505.699219 114.800781 L 442.648438 114.800781 C 435.691406 114.800781 430.039062 120.4375 430.039062 127.410156 L 430.039062 190.457031 L 379.601562 190.457031 L 379.601562 127.410156 C 379.601562 120.4375 373.953125 114.800781 366.992188 114.800781 L 303.945312 114.800781 L 303.945312 64.363281 L 505.699219 64.363281 Z M 505.699219 114.800781 "/>
</g>
<g clip-path="url(#clip2)" clip-rule="nonzero">
<path style=" stroke:none;fill-rule:nonzero;fill:rgb(7.058716%,13.729858%,19.999695%);fill-opacity:1;" d="M 26.535156 127.410156 L 51.753906 127.410156 L 51.753906 152.628906 L 26.535156 152.628906 Z M 26.535156 127.410156 "/>
</g>
<path style=" stroke:none;fill-rule:nonzero;fill:rgb(7.058716%,13.729858%,19.999695%);fill-opacity:1;" d="M 76.972656 127.410156 L 102.191406 127.410156 L 102.191406 152.628906 L 76.972656 152.628906 Z M 76.972656 127.410156 "/>
<path style=" stroke:none;fill-rule:nonzero;fill:rgb(7.058716%,13.729858%,19.999695%);fill-opacity:1;" d="M 127.410156 127.410156 L 152.628906 127.410156 L 152.628906 152.628906 L 127.410156 152.628906 Z M 127.410156 127.410156 "/>
<g clip-path="url(#clip3)" clip-rule="nonzero">
<path style=" stroke:none;fill-rule:nonzero;fill:rgb(7.058716%,13.729858%,19.999695%);fill-opacity:1;" d="M 657.011719 26.535156 L 682.230469 26.535156 L 682.230469 51.753906 L 657.011719 51.753906 Z M 657.011719 26.535156 "/>
</g>
<g clip-path="url(#clip4)" clip-rule="nonzero">
<path style=" stroke:none;fill-rule:nonzero;fill:rgb(7.058716%,13.729858%,19.999695%);fill-opacity:1;" d="M 707.453125 26.535156 L 732.671875 26.535156 L 732.671875 51.753906 L 707.453125 51.753906 Z M 707.453125 26.535156 "/>
</g>
<g clip-path="url(#clip5)" clip-rule="nonzero">
<path style=" stroke:none;fill-rule:nonzero;fill:rgb(7.058716%,13.729858%,19.999695%);fill-opacity:1;" d="M 757.890625 26.535156 L 783.109375 26.535156 L 783.109375 51.753906 L 757.890625 51.753906 Z M 757.890625 26.535156 "/>
</g>
</g>
</svg>
