<?xml version="1.0" encoding="UTF-8"?>
<svg xmlns="http://www.w3.org/2000/svg" xmlns:xlink="http://www.w3.org/1999/xlink" width="810pt" height="809.999993pt" viewBox="0 0 810 809.999993" version="1.2">
<defs>
<clipPath id="clip1">
  <path d="M 40.058594 195 L 317 195 L 317 435 L 40.058594 435 Z M 40.058594 195 "/>
</clipPath>
<clipPath id="clip2">
  <path d="M 492 195 L 769.679688 195 L 769.679688 435 L 492 435 Z M 492 195 "/>
</clipPath>
<clipPath id="clip3">
  <path d="M 643 698 L 769.679688 698 L 769.679688 775 L 643 775 Z M 643 698 "/>
</clipPath>
</defs>
<g id="surface1">
<path style=" stroke:none;fill-rule:nonzero;fill:rgb(24.708557%,43.919373%,55.288696%);fill-opacity:1;" d="M 316.808594 245.785156 L 367.128906 245.785156 L 404.867188 283.535156 L 442.605469 245.785156 L 568.402344 245.785156 L 568.402344 44.460938 L 241.332031 44.460938 L 241.332031 195.457031 L 316.808594 195.457031 L 316.808594 245.785156 "/>
<g clip-path="url(#clip1)" clip-rule="nonzero">
<path style=" stroke:none;fill-rule:nonzero;fill:rgb(97.24884%,52.938843%,33.729553%);fill-opacity:1;" d="M 316.808594 396.78125 L 241.332031 396.78125 L 203.59375 434.53125 L 165.855469 396.78125 L 40.058594 396.78125 L 40.058594 195.457031 L 316.808594 195.457031 L 316.808594 396.78125 "/>
</g>
<g clip-path="url(#clip2)" clip-rule="nonzero">
<path style=" stroke:none;fill-rule:nonzero;fill:rgb(89.019775%,86.268616%,85.099792%);fill-opacity:1;" d="M 568.402344 195.457031 L 769.679688 195.457031 L 769.679688 396.78125 L 669.039062 396.78125 L 631.300781 434.53125 L 593.5625 396.78125 L 492.726562 398.058594 L 492.726562 247.066406 L 568.402344 245.785156 L 568.402344 195.457031 "/>
</g>
<path style=" stroke:none;fill-rule:nonzero;fill:rgb(97.24884%,52.938843%,33.729553%);fill-opacity:1;" d="M 199.90625 60.730469 L 162.167969 22.980469 L 144.378906 40.773438 L 160.644531 57.042969 L 102.957031 57.042969 C 96.027344 57.042969 90.375 62.695312 90.375 69.625 L 90.375 157.707031 L 115.535156 157.707031 L 115.535156 82.207031 L 160.644531 82.207031 L 144.378906 98.476562 L 162.167969 116.269531 L 199.90625 78.523438 C 204.820312 73.605469 204.820312 65.644531 199.90625 60.730469 "/>
<path style=" stroke:none;fill-rule:nonzero;fill:rgb(97.24884%,52.938843%,33.729553%);fill-opacity:1;" d="M 719.359375 145.125 L 694.199219 145.125 L 694.199219 82.207031 L 606.140625 82.207031 L 606.140625 57.042969 L 706.78125 57.042969 C 713.707031 57.042969 719.359375 62.695312 719.359375 69.625 L 719.359375 145.125 "/>
<path style=" stroke:none;fill-rule:nonzero;fill:rgb(97.24884%,52.938843%,33.729553%);fill-opacity:1;" d="M 706.78125 157.707031 C 703.535156 157.707031 700.34375 156.476562 697.886719 154.019531 L 660.144531 116.269531 L 677.933594 98.476562 L 706.78125 127.332031 L 735.625 98.476562 L 753.414062 116.269531 L 715.671875 154.019531 C 713.214844 156.476562 710.023438 157.707031 706.78125 157.707031 "/>
<path style=" stroke:none;fill-rule:nonzero;fill:rgb(89.019775%,86.268616%,85.099792%);fill-opacity:1;" d="M 115.535156 308.703125 L 90.375 308.703125 L 90.375 283.535156 L 115.535156 283.535156 L 115.535156 308.703125 "/>
<path style=" stroke:none;fill-rule:nonzero;fill:rgb(89.019775%,86.268616%,85.099792%);fill-opacity:1;" d="M 165.855469 308.703125 L 140.695312 308.703125 L 140.695312 283.535156 L 165.855469 283.535156 L 165.855469 308.703125 "/>
<path style=" stroke:none;fill-rule:nonzero;fill:rgb(89.019775%,86.268616%,85.099792%);fill-opacity:1;" d="M 216.171875 308.703125 L 191.011719 308.703125 L 191.011719 283.535156 L 216.171875 283.535156 L 216.171875 308.703125 "/>
<path style=" stroke:none;fill-rule:nonzero;fill:rgb(89.019775%,86.268616%,85.099792%);fill-opacity:1;" d="M 266.492188 308.703125 L 241.332031 308.703125 L 241.332031 283.535156 L 266.492188 283.535156 L 266.492188 308.703125 "/>
<path style=" stroke:none;fill-rule:nonzero;fill:rgb(97.24884%,52.938843%,33.729553%);fill-opacity:1;" d="M 341.96875 157.707031 L 316.808594 157.707031 L 316.808594 132.539062 L 341.96875 132.539062 L 341.96875 157.707031 "/>
<path style=" stroke:none;fill-rule:nonzero;fill:rgb(97.24884%,52.938843%,33.729553%);fill-opacity:1;" d="M 392.289062 157.707031 L 367.128906 157.707031 L 367.128906 132.539062 L 392.289062 132.539062 L 392.289062 157.707031 "/>
<path style=" stroke:none;fill-rule:nonzero;fill:rgb(97.24884%,52.938843%,33.729553%);fill-opacity:1;" d="M 442.605469 157.707031 L 417.445312 157.707031 L 417.445312 132.539062 L 442.605469 132.539062 L 442.605469 157.707031 "/>
<path style=" stroke:none;fill-rule:nonzero;fill:rgb(97.24884%,52.938843%,33.729553%);fill-opacity:1;" d="M 492.925781 157.707031 L 467.765625 157.707031 L 467.765625 132.539062 L 492.925781 132.539062 L 492.925781 157.707031 "/>
<path style=" stroke:none;fill-rule:nonzero;fill:rgb(97.24884%,52.938843%,33.729553%);fill-opacity:1;" d="M 568.402344 308.703125 L 543.242188 308.703125 L 543.242188 283.535156 L 568.402344 283.535156 L 568.402344 308.703125 "/>
<path style=" stroke:none;fill-rule:nonzero;fill:rgb(97.24884%,52.938843%,33.729553%);fill-opacity:1;" d="M 618.722656 308.703125 L 593.5625 308.703125 L 593.5625 283.535156 L 618.722656 283.535156 L 618.722656 308.703125 "/>
<path style=" stroke:none;fill-rule:nonzero;fill:rgb(97.24884%,52.938843%,33.729553%);fill-opacity:1;" d="M 669.039062 308.703125 L 643.882812 308.703125 L 643.882812 283.535156 L 669.039062 283.535156 L 669.039062 308.703125 "/>
<path style=" stroke:none;fill-rule:nonzero;fill:rgb(97.24884%,52.938843%,33.729553%);fill-opacity:1;" d="M 719.359375 308.703125 L 694.199219 308.703125 L 694.199219 283.535156 L 719.359375 283.535156 L 719.359375 308.703125 "/>
<g clip-path="url(#clip3)" clip-rule="nonzero">
<path style=" stroke:none;fill-rule:nonzero;fill:rgb(100%,70.199585%,59.609985%);fill-opacity:1;" d="M 750.808594 736.523438 L 719.359375 736.523438 L 719.359375 723.941406 C 719.359375 710.03125 708.105469 698.773438 694.199219 698.773438 L 643.882812 698.773438 L 643.882812 774.273438 L 750.808594 774.273438 C 761.226562 774.273438 769.679688 765.816406 769.679688 755.398438 C 769.679688 744.976562 761.226562 736.523438 750.808594 736.523438 "/>
</g>
<path style=" stroke:none;fill-rule:nonzero;fill:rgb(100%,70.199585%,59.609985%);fill-opacity:1;" d="M 165.855469 478.570312 C 165.855469 468.152344 157.402344 459.699219 146.984375 459.699219 C 136.566406 459.699219 128.113281 468.152344 128.113281 478.570312 L 128.113281 510.027344 L 115.535156 510.027344 C 101.628906 510.027344 90.375 521.285156 90.375 535.195312 L 90.375 585.527344 L 165.855469 585.527344 L 165.855469 478.570312 "/>
<path style=" stroke:none;fill-rule:nonzero;fill:rgb(24.708557%,43.919373%,55.288696%);fill-opacity:1;" d="M 291.648438 585.527344 C 249.980469 585.527344 216.171875 619.34375 216.171875 661.023438 L 216.171875 673.609375 C 216.171875 687.519531 204.917969 698.773438 191.011719 698.773438 C 177.105469 698.773438 165.855469 687.519531 165.855469 673.609375 L 165.855469 585.527344 L 90.375 585.527344 L 90.375 698.773438 C 90.375 740.453125 124.183594 774.273438 165.855469 774.273438 L 216.171875 774.273438 C 257.84375 774.273438 291.648438 740.453125 291.648438 698.773438 L 291.648438 786.855469 L 341.96875 786.855469 L 341.96875 585.527344 L 291.648438 585.527344 "/>
<path style=" stroke:none;fill-rule:nonzero;fill:rgb(24.708557%,43.919373%,55.288696%);fill-opacity:1;" d="M 631.300781 698.773438 C 617.394531 698.773438 606.140625 687.519531 606.140625 673.609375 L 606.140625 661.023438 C 606.140625 619.34375 572.335938 585.527344 530.664062 585.527344 L 467.765625 585.527344 L 467.765625 786.855469 L 530.664062 786.855469 L 530.664062 698.773438 C 530.664062 740.453125 564.472656 774.273438 606.140625 774.273438 L 643.882812 774.273438 L 643.882812 698.773438 L 631.300781 698.773438 "/>
<path style=" stroke:none;fill-rule:nonzero;fill:rgb(100%,70.199585%,59.609985%);fill-opacity:1;" d="M 442.605469 551.808594 C 472.433594 537.703125 492.925781 507.523438 492.925781 472.28125 C 492.925781 422.929688 452.484375 383.117188 402.902344 384.25 C 356.90625 385.230469 318.234375 423.519531 316.859375 469.527344 C 315.730469 505.949219 336.5625 537.359375 367.128906 551.808594 L 367.128906 585.527344 L 442.605469 585.527344 L 442.605469 551.808594 "/>
<path style=" stroke:none;fill-rule:nonzero;fill:rgb(90.589905%,96.469116%,99.609375%);fill-opacity:1;" d="M 442.605469 585.527344 L 341.96875 585.527344 L 341.96875 786.855469 L 467.765625 786.855469 L 467.765625 585.527344 L 442.605469 585.527344 "/>
<path style=" stroke:none;fill-rule:nonzero;fill:rgb(97.24884%,52.938843%,33.729553%);fill-opacity:1;" d="M 379.707031 510.027344 L 430.027344 510.027344 C 420.9375 532.738281 388.796875 532.738281 379.707031 510.027344 "/>
<path style=" stroke:none;fill-rule:nonzero;fill:rgb(97.24884%,52.938843%,33.729553%);fill-opacity:1;" d="M 379.707031 610.691406 L 404.867188 585.527344 L 430.027344 610.691406 L 417.445312 635.859375 L 442.605469 749.105469 L 404.867188 786.855469 L 367.128906 749.105469 L 392.289062 635.859375 L 379.707031 610.691406 "/>
</g>
</svg>
