<?xml version="1.0" encoding="UTF-8"?>
<svg xmlns="http://www.w3.org/2000/svg" xmlns:xlink="http://www.w3.org/1999/xlink" width="810pt" height="809.999993pt" viewBox="0 0 810 809.999993" version="1.2">
<g id="surface1">
<path style=" stroke:none;fill-rule:nonzero;fill:rgb(94.119263%,21.958923%,27.059937%);fill-opacity:1;" d="M 132.78125 297.460938 L 339.492188 510.246094 C 339.492188 510.246094 388.65625 510.246094 401.632812 504.257812 C 401.632812 504.257812 435.578125 488.292969 451.050781 497.769531 C 451.050781 497.769531 493.476562 529.214844 501.460938 532.203125 C 501.460938 532.203125 520.429688 543.1875 521.925781 568.640625 C 521.925781 568.640625 531.910156 613.554688 537.902344 624.535156 C 537.902344 624.535156 499.988281 644.515625 482.742188 582.867188 C 482.742188 582.867188 451.621094 560.085938 444.816406 548.925781 C 444.816406 548.925781 402.339844 603.667969 363.949219 604.929688 C 363.949219 604.929688 343.042969 659.191406 300.089844 674.796875 C 300.089844 674.796875 250.429688 625.339844 256.941406 589.636719 C 256.941406 589.636719 67.28125 420.039062 38.253906 391.976562 L 132.78125 297.460938 "/>
<path style=" stroke:none;fill-rule:nonzero;fill:rgb(97.648621%,76.078796%,74.119568%);fill-opacity:1;" d="M 537.902344 624.535156 C 537.902344 624.535156 520.371094 629.21875 518.597656 594.140625 C 518.597656 594.140625 525.707031 593.34375 528.085938 594.082031 L 537.902344 624.535156 "/>
<path style=" stroke:none;fill-rule:nonzero;fill:rgb(29.798889%,74.508667%,30.198669%);fill-opacity:1;" d="M 195.132812 480.664062 C 195.132812 480.664062 223.726562 452.839844 207.019531 436.222656 C 207.019531 436.222656 194.042969 420.070312 165.40625 452.515625 C 165.40625 452.515625 120 492.460938 116.632812 500.835938 C 116.632812 500.835938 108.339844 530.132812 143.933594 533.621094 C 143.933594 533.621094 169.914062 517.304688 195.132812 480.664062 "/>
<path style=" stroke:none;fill-rule:nonzero;fill:rgb(29.798889%,74.508667%,30.198669%);fill-opacity:1;" d="M 161.757812 448.296875 C 161.757812 448.296875 191.269531 421.4375 175.15625 404.242188 C 175.15625 404.242188 162.757812 387.644531 133.046875 419.105469 C 133.046875 419.105469 77.824219 465.164062 74.175781 473.421875 C 74.175781 473.421875 64.890625 502.445312 100.304688 507.160156 C 100.304688 507.160156 135.308594 484.082031 161.757812 448.296875 "/>
<path style=" stroke:none;fill-rule:nonzero;fill:rgb(29.798889%,74.508667%,30.198669%);fill-opacity:1;" d="M 129.761719 414.550781 C 129.761719 414.550781 158.683594 390.164062 143.261719 372.351562 C 143.261719 372.351562 131.429688 355.347656 102.257812 384.222656 C 102.257812 384.222656 48.199219 425.746094 44.5625 433.589844 C 44.5625 433.589844 35.230469 461.359375 69.515625 468.195312 C 69.515625 468.195312 103.714844 447.847656 129.761719 414.550781 "/>
<path style=" stroke:none;fill-rule:nonzero;fill:rgb(29.798889%,74.508667%,30.198669%);fill-opacity:1;" d="M 97.785156 385.066406 C 97.785156 385.066406 126.046875 364.417969 113.820312 347.992188 C 113.820312 347.992188 104.753906 332.40625 75.859375 357.046875 C 75.859375 357.046875 23.398438 392.042969 19.40625 398.902344 C 19.40625 398.902344 8.441406 423.28125 38.644531 430.632812 C 38.644531 430.632812 71.28125 413.769531 97.785156 385.066406 "/>
<path style=" stroke:none;fill-rule:nonzero;fill:rgb(29.798889%,74.508667%,30.198669%);fill-opacity:1;" d="M 512.820312 136.8125 L 299.992188 343.488281 C 299.992188 343.488281 299.992188 392.644531 305.984375 405.617188 C 305.984375 405.617188 321.953125 439.550781 312.472656 455.027344 C 312.472656 455.027344 281.023438 497.445312 278.03125 505.433594 C 278.03125 505.433594 267.046875 524.394531 241.589844 525.898438 C 241.589844 525.898438 196.671875 535.878906 185.6875 541.871094 C 185.6875 541.871094 165.699219 503.957031 227.363281 486.722656 C 227.363281 486.722656 250.144531 455.597656 261.308594 448.792969 C 261.308594 448.792969 203.75 407.601562 202.492188 369.222656 C 202.492188 369.222656 148.40625 340.398438 132.78125 297.460938 C 132.78125 297.460938 184.878906 254.441406 220.589844 260.953125 C 220.589844 260.953125 390.21875 71.324219 418.292969 42.292969 L 512.820312 136.8125 "/>
<path style=" stroke:none;fill-rule:nonzero;fill:rgb(27.059937%,56.079102%,82.749939%);fill-opacity:1;" d="M 673.078125 512.644531 L 466.367188 299.859375 C 466.367188 299.859375 417.203125 299.859375 404.226562 305.847656 C 404.226562 305.847656 370.28125 321.824219 354.808594 312.335938 C 354.808594 312.335938 312.382812 280.902344 304.398438 277.902344 C 304.398438 277.902344 285.429688 266.925781 283.933594 241.464844 C 283.933594 241.464844 273.949219 196.554688 267.957031 185.578125 C 267.957031 185.578125 305.878906 165.589844 323.117188 227.242188 C 323.117188 227.242188 354.238281 250.027344 361.054688 261.1875 C 361.054688 261.1875 403.519531 206.445312 441.910156 205.1875 C 441.910156 205.1875 466.792969 149.347656 509.738281 133.730469 C 509.738281 133.730469 555.429688 184.773438 548.925781 220.46875 C 548.925781 220.46875 738.578125 390.074219 767.613281 418.136719 L 673.078125 512.644531 "/>
<path style=" stroke:none;fill-rule:nonzero;fill:rgb(95.689392%,60.778809%,18.429565%);fill-opacity:1;" d="M 615.117188 327.960938 C 615.117188 327.960938 586.523438 355.792969 603.230469 372.402344 C 603.230469 372.402344 616.207031 388.554688 644.84375 356.113281 C 644.84375 356.113281 690.25 316.171875 693.617188 307.792969 C 693.617188 307.792969 701.910156 278.496094 666.324219 275.015625 C 666.324219 275.015625 640.339844 291.324219 615.117188 327.960938 "/>
<path style=" stroke:none;fill-rule:nonzero;fill:rgb(95.689392%,60.778809%,18.429565%);fill-opacity:1;" d="M 648.5 360.332031 C 648.5 360.332031 618.980469 387.1875 635.101562 404.375 C 635.101562 404.375 647.492188 420.988281 677.203125 389.523438 C 677.203125 389.523438 732.425781 343.460938 736.074219 335.195312 C 736.074219 335.195312 745.359375 306.183594 709.945312 301.46875 C 709.945312 301.46875 674.941406 324.546875 648.5 360.332031 "/>
<path style=" stroke:none;fill-rule:nonzero;fill:rgb(95.689392%,60.778809%,18.429565%);fill-opacity:1;" d="M 680.488281 394.074219 C 680.488281 394.074219 651.566406 418.460938 666.988281 436.273438 C 666.988281 436.273438 678.828125 453.277344 707.992188 424.40625 C 707.992188 424.40625 762.050781 382.878906 765.6875 375.042969 C 765.6875 375.042969 775.019531 347.265625 740.742188 340.429688 C 740.742188 340.429688 706.539062 360.777344 680.488281 394.074219 "/>
<path style=" stroke:none;fill-rule:nonzero;fill:rgb(95.689392%,60.778809%,18.429565%);fill-opacity:1;" d="M 712.472656 423.550781 C 712.472656 423.550781 684.203125 444.207031 696.429688 460.644531 C 696.429688 460.644531 705.496094 476.226562 734.402344 451.578125 C 734.402344 451.578125 786.851562 416.585938 790.84375 409.722656 C 790.84375 409.722656 801.8125 385.34375 771.613281 377.996094 C 771.613281 377.996094 738.96875 394.855469 712.472656 423.550781 "/>
<path style=" stroke:none;fill-rule:nonzero;fill:rgb(95.689392%,60.778809%,18.429565%);fill-opacity:1;" d="M 297.441406 671.8125 L 510.257812 465.148438 C 510.257812 465.148438 510.257812 415.984375 504.273438 403.007812 C 504.273438 403.007812 488.296875 369.078125 497.777344 353.597656 C 497.777344 353.597656 529.226562 311.183594 532.226562 303.199219 C 532.226562 303.199219 543.203125 284.234375 568.660156 282.738281 C 568.660156 282.738281 613.582031 272.753906 624.566406 266.765625 C 624.566406 266.765625 644.550781 304.679688 582.886719 321.914062 C 582.886719 321.914062 560.105469 353.03125 548.941406 359.84375 C 548.941406 359.84375 603.695312 402.300781 604.953125 440.6875 C 604.953125 440.6875 658.347656 468.820312 673.964844 511.761719 C 673.964844 511.761719 625.371094 554.1875 589.667969 547.683594 C 589.667969 547.683594 420.03125 737.300781 391.964844 766.332031 L 297.441406 671.8125 "/>
<path style=" stroke:none;fill-rule:nonzero;fill:rgb(27.059937%,56.079102%,82.749939%);fill-opacity:1;" d="M 326.976562 199.390625 C 326.976562 199.390625 354.816406 227.980469 371.429688 211.273438 C 371.429688 211.273438 387.589844 198.300781 355.144531 169.667969 C 355.144531 169.667969 315.1875 124.269531 306.804688 120.902344 C 306.804688 120.902344 277.503906 112.613281 274.023438 148.191406 C 274.023438 148.191406 290.332031 174.171875 326.976562 199.390625 "/>
<path style=" stroke:none;fill-rule:nonzero;fill:rgb(27.059937%,56.079102%,82.749939%);fill-opacity:1;" d="M 359.355469 166.011719 C 359.355469 166.011719 386.226562 195.527344 403.414062 179.417969 C 403.414062 179.417969 420.023438 167.019531 388.550781 137.308594 C 388.550781 137.308594 342.492188 82.101562 334.222656 78.453125 C 334.222656 78.453125 305.195312 69.167969 300.488281 104.578125 C 300.488281 104.578125 323.570312 139.574219 359.355469 166.011719 "/>
<path style=" stroke:none;fill-rule:nonzero;fill:rgb(27.059937%,56.079102%,82.749939%);fill-opacity:1;" d="M 393.105469 134.03125 C 393.105469 134.03125 417.496094 162.945312 435.316406 147.527344 C 435.316406 147.527344 452.328125 135.691406 423.449219 106.53125 C 423.449219 106.53125 381.917969 52.480469 374.070312 48.847656 C 374.070312 48.847656 346.296875 39.507812 339.457031 73.792969 C 339.457031 73.792969 359.800781 107.984375 393.105469 134.03125 "/>
<path style=" stroke:none;fill-rule:nonzero;fill:rgb(27.059937%,56.079102%,82.749939%);fill-opacity:1;" d="M 422.59375 102.058594 C 422.59375 102.058594 443.246094 130.316406 459.683594 118.089844 C 459.683594 118.089844 475.273438 109.027344 450.621094 80.136719 C 450.621094 80.136719 415.617188 27.6875 408.765625 23.695312 C 408.765625 23.695312 384.371094 12.730469 377.023438 42.929688 C 377.023438 42.929688 393.882812 75.558594 422.59375 102.058594 "/>
<path style=" stroke:none;fill-rule:nonzero;fill:rgb(94.119263%,21.958923%,27.059937%);fill-opacity:1;" d="M 478.882812 610.722656 C 478.882812 610.722656 451.042969 582.125 434.433594 598.839844 C 434.433594 598.839844 418.277344 611.804688 450.726562 640.445312 C 450.726562 640.445312 490.671875 685.84375 499.054688 689.210938 C 499.054688 689.210938 528.355469 697.503906 531.835938 661.914062 C 531.835938 661.914062 515.527344 635.941406 478.882812 610.722656 "/>
<path style=" stroke:none;fill-rule:nonzero;fill:rgb(94.119263%,21.958923%,27.059937%);fill-opacity:1;" d="M 446.503906 644.09375 C 446.503906 644.09375 419.640625 614.585938 402.445312 630.695312 C 402.445312 630.695312 385.84375 643.09375 417.308594 672.796875 C 417.308594 672.796875 463.375 728.003906 471.636719 731.652344 C 471.636719 731.652344 500.664062 740.945312 505.371094 705.535156 C 505.371094 705.535156 482.296875 670.53125 446.503906 644.09375 "/>
<path style=" stroke:none;fill-rule:nonzero;fill:rgb(94.119263%,21.958923%,27.059937%);fill-opacity:1;" d="M 412.753906 676.082031 C 412.753906 676.082031 388.363281 647.167969 370.542969 662.585938 C 370.542969 662.585938 353.53125 674.414062 382.414062 703.574219 C 382.414062 703.574219 423.945312 757.625 431.789062 761.265625 C 431.789062 761.265625 459.570312 770.597656 466.402344 736.320312 C 466.402344 736.320312 446.058594 702.128906 412.753906 676.082031 "/>
<path style=" stroke:none;fill-rule:nonzero;fill:rgb(94.119263%,21.958923%,27.059937%);fill-opacity:1;" d="M 383.265625 708.054688 C 383.265625 708.054688 362.613281 679.796875 346.175781 692.023438 C 346.175781 692.023438 330.597656 701.085938 355.238281 729.976562 C 355.238281 729.976562 390.242188 782.425781 397.097656 786.417969 C 397.097656 786.417969 421.488281 797.375 428.839844 767.183594 C 428.839844 767.183594 411.976562 734.554688 383.265625 708.054688 "/>
<path style=" stroke:none;fill-rule:nonzero;fill:rgb(94.119263%,21.958923%,27.059937%);fill-opacity:1;" d="M 501.460938 532.203125 C 493.476562 529.214844 451.050781 497.769531 451.050781 497.769531 C 435.578125 488.292969 401.632812 504.257812 401.632812 504.257812 C 391.015625 509.167969 356.183594 510.054688 343.867188 510.214844 L 256.316406 597.742188 C 256.917969 632.574219 300.089844 674.796875 300.089844 674.796875 C 343.042969 659.191406 368.648438 607.609375 368.648438 607.609375 C 407.03125 606.351562 444.816406 548.925781 444.816406 548.925781 C 451.621094 560.085938 482.742188 582.867188 482.742188 582.867188 C 499.988281 644.515625 537.902344 624.535156 537.902344 624.535156 C 531.910156 613.554688 521.925781 568.640625 521.925781 568.640625 C 520.429688 543.1875 501.460938 532.203125 501.460938 532.203125 "/>
</g>
</svg>
