<?xml version="1.0" encoding="UTF-8"?>
<svg xmlns="http://www.w3.org/2000/svg" xmlns:xlink="http://www.w3.org/1999/xlink" width="810pt" height="809.999993pt" viewBox="0 0 810 809.999993" version="1.2">
<defs>
<clipPath id="clip1">
  <path d="M 16.828125 394 L 233 394 L 233 662 L 16.828125 662 Z M 16.828125 394 "/>
</clipPath>
<clipPath id="clip2">
  <path d="M 518 435 L 792.984375 435 L 792.984375 715 L 518 715 Z M 518 435 "/>
</clipPath>
<clipPath id="clip3">
  <path d="M 518 435 L 792.984375 435 L 792.984375 510 L 518 510 Z M 518 435 "/>
</clipPath>
</defs>
<g id="surface1">
<path style=" stroke:none;fill-rule:nonzero;fill:rgb(86.268616%,85.879517%,85.879517%);fill-opacity:1;" d="M 209.675781 687.652344 L 663.882812 687.652344 L 663.882812 111.664062 L 269.320312 111.664062 L 209.675781 172.90625 L 209.675781 687.652344 "/>
<path style=" stroke:none;fill-rule:nonzero;fill:rgb(81.17981%,80.778503%,80.778503%);fill-opacity:1;" d="M 269.742188 111.46875 L 269.824219 172.746094 L 209.675781 172.90625 Z M 269.742188 111.46875 "/>
<path style=" stroke:none;fill-rule:nonzero;fill:rgb(23.919678%,25.489807%,42.749023%);fill-opacity:1;" d="M 288.246094 246.898438 L 600.234375 246.898438 L 600.234375 240.9375 L 288.246094 240.9375 L 288.246094 246.898438 "/>
<path style=" stroke:none;fill-rule:nonzero;fill:rgb(23.919678%,25.489807%,42.749023%);fill-opacity:1;" d="M 288.246094 176.917969 L 600.234375 176.917969 L 600.234375 170.964844 L 288.246094 170.964844 L 288.246094 176.917969 "/>
<path style=" stroke:none;fill-rule:nonzero;fill:rgb(23.919678%,25.489807%,42.749023%);fill-opacity:1;" d="M 259.183594 467.960938 L 259.183594 469.058594 L 626.644531 469.058594 L 626.644531 284.03125 L 258.078125 284.03125 L 258.078125 469.058594 L 259.183594 469.058594 L 259.183594 467.960938 L 260.277344 467.960938 L 260.277344 286.226562 L 624.453125 286.226562 L 624.453125 466.867188 L 259.183594 466.867188 L 259.183594 467.960938 L 260.277344 467.960938 L 259.183594 467.960938 "/>
<path style=" stroke:none;fill-rule:nonzero;fill:rgb(23.919678%,25.489807%,42.749023%);fill-opacity:1;" d="M 490.082031 467.757812 L 492.269531 467.757812 L 492.269531 301 L 490.082031 301 Z M 490.082031 467.757812 "/>
<path style=" stroke:none;fill-rule:nonzero;fill:rgb(23.919678%,25.489807%,42.749023%);fill-opacity:1;" d="M 259.054688 315.5625 L 625.667969 315.5625 L 625.667969 283.882812 L 259.054688 283.882812 L 259.054688 315.5625 "/>
<path style=" stroke:none;fill-rule:nonzero;fill:rgb(23.919678%,25.489807%,42.749023%);fill-opacity:1;" d="M 259.910156 363.558594 L 624.648438 363.558594 L 624.648438 361.371094 L 259.910156 361.371094 Z M 259.910156 363.558594 "/>
<path style=" stroke:none;fill-rule:nonzero;fill:rgb(23.919678%,25.489807%,42.749023%);fill-opacity:1;" d="M 259.910156 415.066406 L 624.648438 415.066406 L 624.648438 412.875 L 259.910156 412.875 Z M 259.910156 415.066406 "/>
<path style=" stroke:none;fill-rule:nonzero;fill:rgb(58.039856%,76.858521%,92.158508%);fill-opacity:1;" d="M 438.675781 512.832031 L 612.773438 512.832031 L 612.773438 493.054688 L 438.675781 493.054688 L 438.675781 512.832031 "/>
<path style=" stroke:none;fill-rule:nonzero;fill:rgb(58.039856%,76.858521%,92.158508%);fill-opacity:1;" d="M 438.675781 552.417969 L 612.773438 552.417969 L 612.773438 532.640625 L 438.675781 532.640625 L 438.675781 552.417969 "/>
<path style=" stroke:none;fill-rule:nonzero;fill:rgb(58.039856%,76.858521%,92.158508%);fill-opacity:1;" d="M 438.675781 592.011719 L 612.773438 592.011719 L 612.773438 572.238281 L 438.675781 572.238281 L 438.675781 592.011719 "/>
<path style=" stroke:none;fill-rule:nonzero;fill:rgb(58.039856%,76.858521%,92.158508%);fill-opacity:1;" d="M 271.949219 631.597656 L 612.773438 631.597656 L 612.773438 611.832031 L 271.949219 611.832031 L 271.949219 631.597656 "/>
<path style=" stroke:none;fill-rule:nonzero;fill:rgb(58.039856%,76.858521%,92.158508%);fill-opacity:1;" d="M 383.453125 529.796875 L 419.195312 529.796875 L 419.195312 494.066406 L 383.453125 494.066406 L 383.453125 529.796875 "/>
<path style=" stroke:none;fill-rule:nonzero;fill:rgb(58.039856%,76.858521%,92.158508%);fill-opacity:1;" d="M 328.820312 529.796875 L 364.5625 529.796875 L 364.5625 494.066406 L 328.820312 494.066406 L 328.820312 529.796875 "/>
<path style=" stroke:none;fill-rule:nonzero;fill:rgb(58.039856%,76.858521%,92.158508%);fill-opacity:1;" d="M 274.1875 529.796875 L 309.929688 529.796875 L 309.929688 494.066406 L 274.1875 494.066406 L 274.1875 529.796875 "/>
<path style=" stroke:none;fill-rule:nonzero;fill:rgb(58.039856%,76.858521%,92.158508%);fill-opacity:1;" d="M 383.453125 590.054688 L 419.195312 590.054688 L 419.195312 554.324219 L 383.453125 554.324219 L 383.453125 590.054688 "/>
<path style=" stroke:none;fill-rule:nonzero;fill:rgb(58.039856%,76.858521%,92.158508%);fill-opacity:1;" d="M 328.820312 590.054688 L 364.5625 590.054688 L 364.5625 554.324219 L 328.820312 554.324219 L 328.820312 590.054688 "/>
<path style=" stroke:none;fill-rule:nonzero;fill:rgb(58.039856%,76.858521%,92.158508%);fill-opacity:1;" d="M 274.1875 590.054688 L 309.929688 590.054688 L 309.929688 554.324219 L 274.1875 554.324219 L 274.1875 590.054688 "/>
<path style=" stroke:none;fill-rule:nonzero;fill:rgb(93.728638%,19.219971%,50.588989%);fill-opacity:1;" d="M 359.78125 686.976562 C 361.421875 693.242188 357.667969 699.65625 351.40625 701.304688 L 114.5625 763.386719 C 108.292969 765.027344 101.875 761.28125 100.234375 755.015625 L 50.308594 564.796875 C 48.664062 558.53125 52.410156 552.117188 58.691406 550.46875 L 295.523438 488.386719 C 301.796875 486.746094 308.210938 490.492188 309.863281 496.75 L 359.78125 686.976562 "/>
<g clip-path="url(#clip1)" clip-rule="nonzero">
<path style=" stroke:none;fill-rule:nonzero;fill:rgb(32.548523%,35.289001%,69.799805%);fill-opacity:1;" d="M 125.1875 394.777344 L 232.542969 606.777344 L 124.210938 661.558594 L 16.867188 449.554688 L 125.1875 394.777344 "/>
</g>
<path style=" stroke:none;fill-rule:nonzero;fill:rgb(58.039856%,76.858521%,92.158508%);fill-opacity:1;" d="M 60.152344 448.347656 C 64.996094 457.917969 61.171875 469.597656 51.605469 474.445312 C 49.527344 475.488281 47.363281 476.101562 45.183594 476.367188 L 118.667969 621.492188 C 120.132812 619.980469 121.859375 618.652344 123.863281 617.644531 C 133.433594 612.804688 145.113281 616.636719 149.964844 626.203125 C 151.453125 629.152344 152.109375 632.316406 152.035156 635.421875 L 193.753906 614.320312 C 191.207031 612.539062 189.050781 610.148438 187.5625 607.1875 C 182.710938 597.621094 186.542969 585.941406 196.117188 581.101562 C 198.570312 579.863281 201.164062 579.195312 203.765625 579.050781 L 129.894531 433.148438 C 128.257812 435.0625 126.25 436.6875 123.851562 437.894531 C 114.289062 442.730469 102.601562 438.902344 97.761719 429.335938 C 96.519531 426.898438 95.851562 424.316406 95.707031 421.75 L 55.261719 442.210938 C 57.238281 443.851562 58.921875 445.914062 60.152344 448.347656 "/>
<path style=" stroke:none;fill-rule:nonzero;fill:rgb(32.548523%,35.289001%,69.799805%);fill-opacity:1;" d="M 79.855469 485.738281 L 96.425781 518.476562 C 93.125 526.503906 93.175781 535.855469 97.410156 544.210938 C 101.644531 552.5625 109.148438 558.148438 117.574219 560.25 L 134.152344 592.988281 C 139.183594 602.929688 151.339844 606.90625 161.289062 601.871094 C 171.238281 596.84375 175.234375 584.703125 170.1875 574.75 L 153.617188 542.023438 C 156.917969 533.992188 156.859375 524.632812 152.632812 516.277344 C 148.40625 507.925781 140.894531 502.339844 132.460938 500.246094 L 115.890625 467.507812 C 110.851562 457.574219 98.703125 453.589844 88.742188 458.625 C 78.8125 463.652344 74.824219 475.792969 79.855469 485.738281 "/>
<path style=" stroke:none;fill-rule:nonzero;fill:rgb(58.039856%,76.858521%,92.158508%);fill-opacity:1;" d="M 114.125 509.386719 C 125.425781 503.660156 139.21875 508.191406 144.949219 519.484375 C 150.671875 530.777344 146.148438 544.570312 134.839844 550.28125 C 123.535156 556 109.738281 551.484375 104.023438 540.183594 C 98.292969 528.890625 102.824219 515.105469 114.125 509.386719 "/>
<path style=" stroke:none;fill-rule:nonzero;fill:rgb(58.039856%,76.858521%,92.158508%);fill-opacity:1;" d="M 88.589844 458.941406 C 98.128906 454.113281 109.789062 457.933594 114.613281 467.46875 C 119.449219 477.007812 115.625 488.652344 106.085938 493.484375 C 96.527344 498.316406 84.886719 494.492188 80.050781 484.953125 C 75.21875 475.410156 79.042969 463.773438 88.589844 458.941406 "/>
<path style=" stroke:none;fill-rule:nonzero;fill:rgb(21.179199%,22.349548%,37.649536%);fill-opacity:1;" d="M 95.132812 476.324219 C 95.878906 478 96.460938 480.136719 95.058594 480.847656 C 93.484375 481.652344 92.019531 481.011719 91.054688 479.101562 C 90.207031 477.4375 90.644531 475.53125 92.011719 474.835938 L 89.574219 470.015625 C 86.820312 471.410156 85.742188 475.042969 86.734375 478.726562 L 84.910156 479.640625 L 86.964844 483.695312 L 88.753906 482.789062 C 91.140625 485.984375 94.519531 487.175781 97.496094 485.667969 C 100.480469 484.15625 101.003906 479.941406 98.804688 474.929688 C 97.753906 472.519531 98.171875 471.726562 99.273438 471.160156 C 100.386719 470.597656 102.457031 471.296875 103.277344 472.914062 C 104.117188 474.582031 103.691406 476.488281 102.328125 477.171875 L 104.757812 481.992188 C 107.523438 480.597656 108.601562 476.949219 107.589844 473.261719 L 109.320312 472.390625 L 107.273438 468.339844 L 105.511719 469.226562 C 103.140625 466.339844 99.488281 465.003906 96.835938 466.347656 C 93.679688 467.945312 93.0625 471.578125 95.132812 476.324219 "/>
<path style=" stroke:none;fill-rule:nonzero;fill:rgb(58.039856%,76.858521%,92.158508%);fill-opacity:1;" d="M 143.324219 567.421875 C 152.863281 562.59375 164.515625 566.414062 169.347656 575.949219 C 174.171875 585.496094 170.347656 597.132812 160.8125 601.964844 C 151.261719 606.796875 139.621094 602.972656 134.777344 593.433594 C 129.953125 583.898438 133.769531 572.253906 143.324219 567.421875 "/>
<path style=" stroke:none;fill-rule:nonzero;fill:rgb(21.179199%,22.349548%,37.649536%);fill-opacity:1;" d="M 149.878906 584.796875 C 150.605469 586.480469 151.195312 588.617188 149.785156 589.328125 C 148.210938 590.125 146.746094 589.492188 145.78125 587.574219 C 144.949219 585.925781 145.367188 584.011719 146.738281 583.316406 L 144.300781 578.496094 C 141.546875 579.898438 140.476562 583.523438 141.476562 587.199219 L 139.644531 588.132812 L 141.699219 592.183594 L 143.488281 591.269531 C 145.875 594.476562 149.246094 595.65625 152.230469 594.148438 C 155.222656 592.636719 155.738281 588.429688 153.539062 583.410156 C 152.476562 580.992188 152.898438 580.195312 154.007812 579.640625 C 155.128906 579.078125 157.191406 579.777344 158.011719 581.402344 C 158.859375 583.050781 158.425781 584.96875 157.046875 585.660156 L 159.492188 590.472656 C 162.257812 589.078125 163.324219 585.4375 162.316406 581.753906 L 164.042969 580.871094 L 162 576.828125 L 160.246094 577.71875 C 157.875 574.820312 154.214844 573.492188 151.570312 574.828125 C 148.40625 576.425781 147.796875 580.058594 149.878906 584.796875 "/>
<path style=" stroke:none;fill-rule:nonzero;fill:rgb(32.548523%,35.289001%,69.799805%);fill-opacity:1;" d="M 309.085938 419.835938 L 221.96875 640.917969 L 109.003906 596.449219 L 196.125 375.375 L 309.085938 419.835938 "/>
<path style=" stroke:none;fill-rule:nonzero;fill:rgb(58.039856%,76.858521%,92.158508%);fill-opacity:1;" d="M 225.800781 406.898438 C 221.875 416.867188 210.589844 421.777344 200.609375 417.851562 C 198.453125 416.996094 196.542969 415.792969 194.910156 414.347656 L 135.265625 565.679688 C 137.378906 565.757812 139.515625 566.183594 141.597656 566.996094 C 151.578125 570.929688 156.472656 582.1875 152.546875 592.175781 C 151.339844 595.246094 149.40625 597.84375 147.046875 599.84375 L 190.539062 616.96875 C 190.1875 613.890625 190.546875 610.683594 191.753906 607.597656 C 195.679688 597.628906 206.972656 592.722656 216.949219 596.65625 C 219.515625 597.664062 221.730469 599.152344 223.570312 601 L 283.515625 448.855469 C 281 448.90625 278.449219 448.484375 275.960938 447.503906 C 265.984375 443.570312 261.082031 432.300781 265.007812 422.332031 C 266.019531 419.785156 267.5 417.578125 269.3125 415.757812 L 227.136719 399.152344 C 227.222656 401.71875 226.8125 404.351562 225.800781 406.898438 "/>
<path style=" stroke:none;fill-rule:nonzero;fill:rgb(32.548523%,35.289001%,69.799805%);fill-opacity:1;" d="M 210.941406 446.460938 L 197.492188 480.589844 C 189.289062 483.453125 182.34375 489.714844 178.90625 498.425781 C 175.480469 507.136719 176.296875 516.464844 180.332031 524.152344 L 166.875 558.285156 C 162.785156 568.65625 167.894531 580.375 178.261719 584.453125 C 188.640625 588.542969 200.367188 583.445312 204.449219 573.074219 L 217.90625 538.945312 C 226.109375 536.070312 233.066406 529.8125 236.496094 521.089844 C 239.925781 512.378906 239.113281 503.070312 235.066406 495.382812 L 248.523438 461.242188 C 252.613281 450.871094 247.507812 439.160156 237.121094 435.070312 C 226.761719 430.984375 215.03125 436.082031 210.941406 446.460938 "/>
<path style=" stroke:none;fill-rule:nonzero;fill:rgb(58.039856%,76.858521%,92.158508%);fill-opacity:1;" d="M 216.058594 487.765625 C 227.847656 492.40625 233.628906 505.703125 228.992188 517.492188 C 224.347656 529.273438 211.035156 535.0625 199.257812 530.417969 C 187.460938 525.777344 181.675781 512.472656 186.3125 500.691406 C 190.949219 488.910156 204.261719 483.121094 216.058594 487.765625 "/>
<path style=" stroke:none;fill-rule:nonzero;fill:rgb(58.039856%,76.858521%,92.158508%);fill-opacity:1;" d="M 236.785156 435.164062 C 246.746094 439.082031 251.628906 450.316406 247.710938 460.257812 C 243.785156 470.210938 232.535156 475.101562 222.59375 471.1875 C 212.636719 467.261719 207.75 456.027344 211.660156 446.074219 C 215.585938 436.132812 226.828125 431.242188 236.785156 435.164062 "/>
<path style=" stroke:none;fill-rule:nonzero;fill:rgb(21.179199%,22.349548%,37.649536%);fill-opacity:1;" d="M 228.15625 451.605469 C 227.375 453.273438 226.171875 455.128906 224.707031 454.554688 C 223.054688 453.914062 222.570312 452.394531 223.355469 450.402344 C 224.039062 448.675781 225.75 447.726562 227.179688 448.289062 L 229.15625 443.261719 C 226.28125 442.125 222.859375 443.742188 220.761719 446.929688 L 218.863281 446.175781 L 217.203125 450.410156 L 219.070312 451.136719 C 218.265625 455.042969 219.617188 458.359375 222.722656 459.582031 C 225.84375 460.804688 229.34375 458.386719 231.621094 453.417969 C 232.722656 451.027344 233.605469 450.8125 234.75 451.265625 C 235.921875 451.726562 236.769531 453.734375 236.101562 455.421875 C 235.425781 457.148438 233.714844 458.105469 232.285156 457.53125 L 230.300781 462.566406 C 233.175781 463.695312 236.625 462.070312 238.710938 458.867188 L 240.507812 459.582031 L 242.175781 455.359375 L 240.34375 454.632812 C 240.9375 450.949219 239.5 447.324219 236.734375 446.238281 C 233.441406 444.945312 230.320312 446.90625 228.15625 451.605469 "/>
<path style=" stroke:none;fill-rule:nonzero;fill:rgb(58.039856%,76.858521%,92.158508%);fill-opacity:1;" d="M 192.078125 548.144531 C 202.027344 552.058594 206.914062 563.292969 202.996094 573.238281 C 199.078125 583.1875 187.835938 588.070312 177.878906 584.164062 C 167.917969 580.246094 163.042969 569.003906 166.953125 559.054688 C 170.878906 549.109375 182.121094 544.226562 192.078125 548.144531 "/>
<path style=" stroke:none;fill-rule:nonzero;fill:rgb(21.179199%,22.349548%,37.649536%);fill-opacity:1;" d="M 183.445312 564.585938 C 182.6875 566.242188 181.460938 568.105469 180 567.535156 C 178.355469 566.882812 177.859375 565.371094 178.648438 563.378906 C 179.332031 561.652344 181.042969 560.703125 182.472656 561.257812 L 184.449219 556.230469 C 181.574219 555.113281 178.152344 556.71875 176.0625 559.90625 L 174.148438 559.164062 L 172.488281 563.386719 L 174.363281 564.113281 C 173.558594 568.023438 174.917969 571.332031 178.023438 572.5625 C 181.136719 573.785156 184.628906 571.375 186.910156 566.398438 C 188.015625 563.996094 188.90625 563.789062 190.042969 564.242188 C 191.214844 564.703125 192.0625 566.714844 191.394531 568.398438 C 190.71875 570.125 189 571.074219 187.570312 570.507812 L 185.59375 575.535156 C 188.46875 576.675781 191.917969 575.050781 193.996094 571.84375 L 195.808594 572.5625 L 197.476562 568.339844 L 195.628906 567.609375 C 196.21875 563.925781 194.78125 560.308594 192.019531 559.214844 C 188.734375 557.925781 185.601562 559.882812 183.445312 564.585938 "/>
<path style=" stroke:none;fill-rule:nonzero;fill:rgb(93.728638%,19.219971%,50.588989%);fill-opacity:1;" d="M 345.21875 706.394531 C 346.871094 712.660156 343.125 719.070312 336.835938 720.714844 L 100.011719 782.792969 C 93.75 784.4375 87.324219 780.691406 85.671875 774.425781 L 35.753906 584.199219 C 34.113281 577.941406 37.859375 571.527344 44.128906 569.878906 L 280.972656 507.796875 C 287.234375 506.15625 293.660156 509.898438 295.300781 516.167969 L 345.21875 706.394531 "/>
<path style=" stroke:none;fill-rule:nonzero;fill:rgb(93.728638%,19.219971%,50.588989%);fill-opacity:1;" d="M 350.105469 621.5 C 351.277344 625.980469 349.316406 630.375 345.714844 631.316406 L 252.777344 655.683594 C 249.175781 656.625 245.308594 653.757812 244.125 649.289062 L 235.90625 617.945312 C 234.726562 613.464844 236.691406 609.070312 240.292969 608.128906 L 333.234375 583.761719 C 336.835938 582.820312 340.710938 585.6875 341.890625 590.164062 L 350.105469 621.5 "/>
<path style=" stroke:none;fill-rule:nonzero;fill:rgb(98.429871%,80.778503%,15.689087%);fill-opacity:1;" d="M 282.195312 622.5625 C 284.464844 631.214844 279.277344 640.070312 270.613281 642.34375 C 261.957031 644.613281 253.101562 639.4375 250.824219 630.777344 C 248.566406 622.125 253.734375 613.269531 262.390625 610.992188 C 271.066406 608.726562 279.914062 613.910156 282.195312 622.5625 "/>
<g clip-path="url(#clip2)" clip-rule="nonzero">
<path style=" stroke:none;fill-rule:nonzero;fill:rgb(23.919678%,25.489807%,42.749023%);fill-opacity:1;" d="M 518.464844 714.539062 L 792.941406 714.539062 L 792.941406 435.363281 L 518.464844 435.363281 L 518.464844 714.539062 "/>
</g>
<path style=" stroke:none;fill-rule:nonzero;fill:rgb(98.429871%,80.778503%,15.689087%);fill-opacity:1;" d="M 738.730469 537.320312 L 779.125 537.320312 L 779.125 525.28125 L 738.730469 525.28125 L 738.730469 537.320312 "/>
<path style=" stroke:none;fill-rule:nonzero;fill:rgb(98.429871%,80.778503%,15.689087%);fill-opacity:1;" d="M 687.628906 537.320312 L 728.019531 537.320312 L 728.019531 525.28125 L 687.628906 525.28125 L 687.628906 537.320312 "/>
<path style=" stroke:none;fill-rule:nonzero;fill:rgb(58.039856%,76.858521%,92.158508%);fill-opacity:1;" d="M 636.53125 537.320312 L 676.929688 537.320312 L 676.929688 525.28125 L 636.53125 525.28125 L 636.53125 537.320312 "/>
<path style=" stroke:none;fill-rule:nonzero;fill:rgb(58.039856%,76.858521%,92.158508%);fill-opacity:1;" d="M 585.433594 537.320312 L 625.820312 537.320312 L 625.820312 525.28125 L 585.433594 525.28125 L 585.433594 537.320312 "/>
<path style=" stroke:none;fill-rule:nonzero;fill:rgb(58.039856%,76.858521%,92.158508%);fill-opacity:1;" d="M 534.335938 537.320312 L 574.722656 537.320312 L 574.722656 525.28125 L 534.335938 525.28125 L 534.335938 537.320312 "/>
<path style=" stroke:none;fill-rule:nonzero;fill:rgb(93.728638%,19.219971%,50.588989%);fill-opacity:1;" d="M 750.867188 584.273438 L 778.246094 584.273438 L 778.246094 556.914062 L 750.867188 556.914062 L 750.867188 584.273438 "/>
<path style=" stroke:none;fill-rule:nonzero;fill:rgb(93.728638%,19.219971%,50.588989%);fill-opacity:1;" d="M 707.382812 584.273438 L 734.75 584.273438 L 734.75 556.914062 L 707.382812 556.914062 L 707.382812 584.273438 "/>
<path style=" stroke:none;fill-rule:nonzero;fill:rgb(93.728638%,19.219971%,50.588989%);fill-opacity:1;" d="M 663.882812 584.273438 L 691.257812 584.273438 L 691.257812 556.914062 L 663.882812 556.914062 L 663.882812 584.273438 "/>
<path style=" stroke:none;fill-rule:nonzero;fill:rgb(58.039856%,76.858521%,92.158508%);fill-opacity:1;" d="M 620.390625 584.273438 L 647.765625 584.273438 L 647.765625 556.914062 L 620.390625 556.914062 L 620.390625 584.273438 "/>
<path style=" stroke:none;fill-rule:nonzero;fill:rgb(58.039856%,76.858521%,92.158508%);fill-opacity:1;" d="M 576.894531 584.273438 L 604.273438 584.273438 L 604.273438 556.914062 L 576.894531 556.914062 L 576.894531 584.273438 "/>
<path style=" stroke:none;fill-rule:nonzero;fill:rgb(58.039856%,76.858521%,92.158508%);fill-opacity:1;" d="M 533.402344 584.273438 L 560.769531 584.273438 L 560.769531 556.914062 L 533.402344 556.914062 L 533.402344 584.273438 "/>
<path style=" stroke:none;fill-rule:nonzero;fill:rgb(93.728638%,19.219971%,50.588989%);fill-opacity:1;" d="M 750.867188 621.234375 L 778.246094 621.234375 L 778.246094 593.875 L 750.867188 593.875 L 750.867188 621.234375 "/>
<path style=" stroke:none;fill-rule:nonzero;fill:rgb(93.728638%,19.219971%,50.588989%);fill-opacity:1;" d="M 707.382812 621.234375 L 734.75 621.234375 L 734.75 593.875 L 707.382812 593.875 L 707.382812 621.234375 "/>
<path style=" stroke:none;fill-rule:nonzero;fill:rgb(93.728638%,19.219971%,50.588989%);fill-opacity:1;" d="M 663.882812 621.234375 L 691.257812 621.234375 L 691.257812 593.875 L 663.882812 593.875 L 663.882812 621.234375 "/>
<path style=" stroke:none;fill-rule:nonzero;fill:rgb(58.039856%,76.858521%,92.158508%);fill-opacity:1;" d="M 620.390625 621.234375 L 647.765625 621.234375 L 647.765625 593.875 L 620.390625 593.875 L 620.390625 621.234375 "/>
<path style=" stroke:none;fill-rule:nonzero;fill:rgb(58.039856%,76.858521%,92.158508%);fill-opacity:1;" d="M 576.894531 621.234375 L 604.273438 621.234375 L 604.273438 593.875 L 576.894531 593.875 L 576.894531 621.234375 "/>
<path style=" stroke:none;fill-rule:nonzero;fill:rgb(58.039856%,76.858521%,92.158508%);fill-opacity:1;" d="M 533.402344 621.234375 L 560.769531 621.234375 L 560.769531 593.875 L 533.402344 593.875 L 533.402344 621.234375 "/>
<path style=" stroke:none;fill-rule:nonzero;fill:rgb(93.728638%,19.219971%,50.588989%);fill-opacity:1;" d="M 750.867188 658.207031 L 778.246094 658.207031 L 778.246094 630.847656 L 750.867188 630.847656 L 750.867188 658.207031 "/>
<path style=" stroke:none;fill-rule:nonzero;fill:rgb(93.728638%,19.219971%,50.588989%);fill-opacity:1;" d="M 707.382812 658.207031 L 734.75 658.207031 L 734.75 630.847656 L 707.382812 630.847656 L 707.382812 658.207031 "/>
<path style=" stroke:none;fill-rule:nonzero;fill:rgb(93.728638%,19.219971%,50.588989%);fill-opacity:1;" d="M 663.882812 658.207031 L 691.257812 658.207031 L 691.257812 630.847656 L 663.882812 630.847656 L 663.882812 658.207031 "/>
<path style=" stroke:none;fill-rule:nonzero;fill:rgb(58.039856%,76.858521%,92.158508%);fill-opacity:1;" d="M 620.390625 658.207031 L 647.765625 658.207031 L 647.765625 630.847656 L 620.390625 630.847656 L 620.390625 658.207031 "/>
<path style=" stroke:none;fill-rule:nonzero;fill:rgb(58.039856%,76.858521%,92.158508%);fill-opacity:1;" d="M 576.894531 658.207031 L 604.273438 658.207031 L 604.273438 630.847656 L 576.894531 630.847656 L 576.894531 658.207031 "/>
<path style=" stroke:none;fill-rule:nonzero;fill:rgb(58.039856%,76.858521%,92.158508%);fill-opacity:1;" d="M 533.402344 658.207031 L 560.769531 658.207031 L 560.769531 630.847656 L 533.402344 630.847656 L 533.402344 658.207031 "/>
<path style=" stroke:none;fill-rule:nonzero;fill:rgb(58.039856%,76.858521%,92.158508%);fill-opacity:1;" d="M 750.867188 695.167969 L 778.246094 695.167969 L 778.246094 667.808594 L 750.867188 667.808594 L 750.867188 695.167969 "/>
<path style=" stroke:none;fill-rule:nonzero;fill:rgb(58.039856%,76.858521%,92.158508%);fill-opacity:1;" d="M 707.382812 695.167969 L 734.75 695.167969 L 734.75 667.808594 L 707.382812 667.808594 L 707.382812 695.167969 "/>
<path style=" stroke:none;fill-rule:nonzero;fill:rgb(58.039856%,76.858521%,92.158508%);fill-opacity:1;" d="M 663.882812 695.167969 L 691.257812 695.167969 L 691.257812 667.808594 L 663.882812 667.808594 L 663.882812 695.167969 "/>
<path style=" stroke:none;fill-rule:nonzero;fill:rgb(58.039856%,76.858521%,92.158508%);fill-opacity:1;" d="M 620.390625 695.167969 L 647.765625 695.167969 L 647.765625 667.808594 L 620.390625 667.808594 L 620.390625 695.167969 "/>
<path style=" stroke:none;fill-rule:nonzero;fill:rgb(58.039856%,76.858521%,92.158508%);fill-opacity:1;" d="M 576.894531 695.167969 L 604.273438 695.167969 L 604.273438 667.808594 L 576.894531 667.808594 L 576.894531 695.167969 "/>
<path style=" stroke:none;fill-rule:nonzero;fill:rgb(58.039856%,76.858521%,92.158508%);fill-opacity:1;" d="M 533.402344 695.167969 L 560.769531 695.167969 L 560.769531 667.808594 L 533.402344 667.808594 L 533.402344 695.167969 "/>
<g clip-path="url(#clip3)" clip-rule="nonzero">
<path style=" stroke:none;fill-rule:nonzero;fill:rgb(23.919678%,25.489807%,42.749023%);fill-opacity:1;" d="M 518.464844 509.292969 L 518.464844 435.363281 L 792.941406 435.363281 L 792.941406 509.292969 L 518.464844 509.292969 "/>
</g>
<path style=" stroke:none;fill-rule:nonzero;fill:rgb(58.039856%,76.858521%,92.158508%);fill-opacity:1;" d="M 532.820312 498.90625 L 532.820312 445.75 L 778.585938 445.75 L 778.585938 498.90625 L 532.820312 498.90625 "/>
<path style=" stroke:none;fill-rule:nonzero;fill:rgb(98.429871%,80.778503%,15.689087%);fill-opacity:1;" d="M 749.816406 105.335938 C 749.816406 138.554688 722.867188 165.46875 689.640625 165.46875 C 656.40625 165.46875 629.472656 138.554688 629.472656 105.335938 C 629.472656 72.121094 656.40625 45.199219 689.640625 45.199219 C 722.867188 45.199219 749.816406 72.121094 749.816406 105.335938 "/>
<path style=" stroke:none;fill-rule:nonzero;fill:rgb(22.349548%,23.919678%,39.99939%);fill-opacity:1;" d="M 735.296875 105.335938 C 735.296875 130.535156 714.859375 150.96875 689.640625 150.96875 C 664.4375 150.96875 643.992188 130.535156 643.992188 105.335938 C 643.992188 80.132812 664.4375 59.707031 689.640625 59.707031 C 714.859375 59.707031 735.296875 80.132812 735.296875 105.335938 "/>
<path style=" stroke:none;fill-rule:nonzero;fill:rgb(98.429871%,80.778503%,15.689087%);fill-opacity:1;" d="M 691.222656 100.582031 C 686.664062 100.335938 681.214844 99.207031 681.214844 95.28125 C 681.214844 90.871094 684.285156 88.332031 689.640625 88.332031 C 694.285156 88.332031 698.066406 91.453125 698.066406 95.28125 L 711.585938 95.28125 C 711.585938 87.570312 704.679688 81.0625 695.347656 79.148438 L 695.347656 74.027344 L 683.984375 74.027344 L 683.984375 79.039062 C 674.171875 80.746094 667.699219 86.957031 667.699219 95.28125 C 667.699219 103.660156 676.535156 109.5625 690.179688 110.320312 C 696.785156 110.691406 698.066406 112.546875 698.066406 115.621094 C 698.066406 118.753906 694.183594 122.574219 689.640625 122.574219 C 684.996094 122.574219 681.214844 119.453125 681.214844 115.621094 L 667.699219 115.621094 C 667.699219 123.351562 674.628906 129.875 683.984375 131.773438 L 683.984375 136.636719 L 695.347656 136.636719 L 695.347656 131.714844 C 704.476562 129.6875 711.585938 123.035156 711.585938 115.621094 C 711.585938 106.789062 704.160156 101.308594 691.222656 100.582031 "/>
<path style=" stroke:none;fill-rule:nonzero;fill:rgb(98.429871%,80.778503%,15.689087%);fill-opacity:1;" d="M 741.011719 246.128906 C 741.011719 279.335938 714.074219 306.257812 680.847656 306.257812 C 647.609375 306.257812 620.671875 279.335938 620.671875 246.128906 C 620.671875 212.910156 647.609375 185.988281 680.847656 185.988281 C 714.074219 185.988281 741.011719 212.910156 741.011719 246.128906 "/>
<path style=" stroke:none;fill-rule:nonzero;fill:rgb(22.349548%,23.919678%,39.99939%);fill-opacity:1;" d="M 726.496094 246.121094 C 726.496094 271.324219 706.058594 291.75 680.847656 291.75 C 655.636719 291.75 635.1875 271.324219 635.1875 246.121094 C 635.1875 220.921875 655.636719 200.496094 680.847656 200.496094 C 706.058594 200.496094 726.496094 220.921875 726.496094 246.121094 "/>
<path style=" stroke:none;fill-rule:nonzero;fill:rgb(98.429871%,80.778503%,15.689087%);fill-opacity:1;" d="M 682.421875 241.375 C 677.859375 241.117188 672.410156 239.988281 672.410156 236.074219 C 672.410156 231.652344 675.484375 229.121094 680.847656 229.121094 C 685.492188 229.121094 689.265625 232.242188 689.265625 236.074219 L 702.78125 236.074219 C 702.78125 228.363281 695.886719 221.855469 686.550781 219.929688 L 686.550781 214.820312 L 675.191406 214.820312 L 675.191406 219.828125 C 665.378906 221.539062 658.894531 227.738281 658.894531 236.074219 C 658.894531 244.453125 667.722656 250.351562 681.386719 251.113281 C 687.988281 251.480469 689.265625 253.335938 689.265625 256.414062 C 689.265625 259.542969 685.378906 263.355469 680.847656 263.355469 C 676.191406 263.355469 672.410156 260.242188 672.410156 256.414062 L 658.894531 256.414062 C 658.894531 264.140625 665.824219 270.667969 675.191406 272.5625 L 675.191406 277.429688 L 686.550781 277.429688 L 686.550781 272.496094 C 695.671875 270.46875 702.78125 263.828125 702.78125 256.414062 C 702.78125 247.574219 695.355469 242.09375 682.421875 241.375 "/>
<path style=" stroke:none;fill-rule:nonzero;fill:rgb(98.429871%,80.778503%,15.689087%);fill-opacity:1;" d="M 596.359375 85.21875 C 596.359375 118.4375 569.425781 145.351562 536.191406 145.351562 C 502.964844 145.351562 476.023438 118.4375 476.023438 85.21875 C 476.023438 52.011719 502.964844 25.089844 536.191406 25.089844 C 569.425781 25.089844 596.359375 52.011719 596.359375 85.21875 "/>
<path style=" stroke:none;fill-rule:nonzero;fill:rgb(22.349548%,23.919678%,39.99939%);fill-opacity:1;" d="M 581.839844 85.21875 C 581.839844 110.417969 561.402344 130.851562 536.191406 130.851562 C 510.980469 130.851562 490.542969 110.417969 490.542969 85.21875 C 490.542969 60.023438 510.980469 39.597656 536.191406 39.597656 C 561.402344 39.597656 581.839844 60.023438 581.839844 85.21875 "/>
<path style=" stroke:none;fill-rule:nonzero;fill:rgb(98.429871%,80.778503%,15.689087%);fill-opacity:1;" d="M 537.773438 80.472656 C 533.214844 80.21875 527.765625 79.097656 527.765625 75.171875 C 527.765625 70.753906 530.835938 68.222656 536.191406 68.222656 C 540.835938 68.222656 544.617188 71.34375 544.617188 75.171875 L 558.136719 75.171875 C 558.136719 67.453125 551.230469 60.953125 541.898438 59.039062 L 541.898438 53.917969 L 530.546875 53.917969 L 530.546875 58.929688 C 520.722656 60.628906 514.25 66.835938 514.25 75.171875 C 514.25 83.550781 523.078125 89.441406 536.738281 90.210938 C 543.335938 90.582031 544.617188 92.4375 544.617188 95.511719 C 544.617188 98.644531 540.734375 102.457031 536.191406 102.457031 C 531.546875 102.457031 527.765625 99.34375 527.765625 95.511719 L 514.25 95.511719 C 514.25 103.242188 521.175781 109.757812 530.546875 111.664062 L 530.546875 116.527344 L 541.898438 116.527344 L 541.898438 111.597656 C 551.027344 109.570312 558.136719 102.925781 558.136719 95.511719 C 558.136719 86.671875 550.710938 81.199219 537.773438 80.472656 "/>
</g>
</svg>
