<?xml version="1.0" encoding="UTF-8"?>
<svg xmlns="http://www.w3.org/2000/svg" xmlns:xlink="http://www.w3.org/1999/xlink" width="810pt" height="809.999993pt" viewBox="0 0 810 809.999993" version="1.2">
<defs>
<clipPath id="clip1">
  <path d="M 42 708 L 144 708 L 144 783.953125 L 42 783.953125 Z M 42 708 "/>
</clipPath>
<clipPath id="clip2">
  <path d="M 257 682 L 360 682 L 360 783.953125 L 257 783.953125 Z M 257 682 "/>
</clipPath>
<clipPath id="clip3">
  <path d="M 473 569 L 575 569 L 575 783.953125 L 473 783.953125 Z M 473 569 "/>
</clipPath>
<clipPath id="clip4">
  <path d="M 675 455 L 778 455 L 778 783.953125 L 675 783.953125 Z M 675 455 "/>
</clipPath>
<clipPath id="clip5">
  <path d="M 447 25.316406 L 790 25.316406 L 790 367 L 447 367 Z M 447 25.316406 "/>
</clipPath>
<clipPath id="clip6">
  <path d="M 87 25.316406 L 436 25.316406 L 436 225 L 87 225 Z M 87 25.316406 "/>
</clipPath>
</defs>
<g id="surface1">
<g clip-path="url(#clip1)" clip-rule="nonzero">
<path style=" stroke:none;fill-rule:nonzero;fill:rgb(94.509888%,39.608765%,39.608765%);fill-opacity:1;" d="M 42.421875 708.089844 L 143.765625 708.089844 L 143.765625 783.953125 L 42.421875 783.953125 Z M 42.421875 708.089844 "/>
</g>
<g clip-path="url(#clip2)" clip-rule="nonzero">
<path style=" stroke:none;fill-rule:nonzero;fill:rgb(94.509888%,83.918762%,33.729553%);fill-opacity:1;" d="M 257.777344 682.800781 L 359.121094 682.800781 L 359.121094 783.953125 L 257.777344 783.953125 Z M 257.777344 682.800781 "/>
</g>
<g clip-path="url(#clip3)" clip-rule="nonzero">
<path style=" stroke:none;fill-rule:nonzero;fill:rgb(34.509277%,63.919067%,84.709167%);fill-opacity:1;" d="M 473.132812 569.003906 L 574.476562 569.003906 L 574.476562 783.953125 L 473.132812 783.953125 Z M 473.132812 569.003906 "/>
</g>
<g clip-path="url(#clip4)" clip-rule="nonzero">
<path style=" stroke:none;fill-rule:nonzero;fill:rgb(20.779419%,51.759338%,74.508667%);fill-opacity:1;" d="M 675.820312 455.210938 L 777.164062 455.210938 L 777.164062 783.953125 L 675.820312 783.953125 Z M 675.820312 455.210938 "/>
</g>
<g clip-path="url(#clip5)" clip-rule="nonzero">
<path style=" stroke:none;fill-rule:nonzero;fill:rgb(94.509888%,83.918762%,33.729553%);fill-opacity:1;" d="M 789.832031 224.519531 L 789.832031 167.496094 L 752.640625 155.207031 C 750.003906 146.585938 746.535156 138.316406 742.351562 130.488281 L 758.148438 97.285156 C 747.027344 81.683594 733.371094 68.039062 717.726562 56.9375 L 684.460938 72.707031 C 676.617188 68.53125 668.332031 65.082031 659.695312 62.4375 L 647.382812 25.316406 L 590.25 25.316406 L 577.933594 62.4375 L 553.167969 72.691406 L 519.890625 56.925781 C 504.257812 68.027344 490.589844 81.65625 479.480469 97.273438 L 495.277344 130.488281 L 484.992188 155.207031 L 447.796875 167.496094 L 447.796875 224.519531 L 484.992188 236.8125 L 495.277344 261.53125 L 479.480469 294.734375 C 490.601562 310.335938 504.257812 323.980469 519.902344 335.082031 L 553.167969 319.3125 C 561.011719 323.484375 569.296875 326.9375 577.933594 329.578125 L 590.25 366.703125 L 647.382812 366.703125 L 659.695312 329.578125 C 668.332031 326.949219 676.617188 323.484375 684.460938 319.3125 L 717.726562 335.078125 C 733.359375 323.980469 747.027344 310.347656 758.136719 294.746094 L 742.339844 261.542969 C 746.519531 253.714844 749.980469 245.445312 752.625 236.824219 Z M 789.832031 224.519531 "/>
</g>
<path style=" stroke:none;fill-rule:nonzero;fill:rgb(72.938538%,75.289917%,75.289917%);fill-opacity:1;" d="M 713.824219 196.007812 C 713.824219 197.5625 713.785156 199.113281 713.710938 200.664062 C 713.632812 202.210938 713.519531 203.757812 713.367188 205.304688 C 713.214844 206.847656 713.023438 208.386719 712.796875 209.921875 C 712.566406 211.457031 712.300781 212.988281 712 214.507812 C 711.695312 216.03125 711.355469 217.546875 710.976562 219.050781 C 710.597656 220.554688 710.183594 222.050781 709.734375 223.535156 C 709.28125 225.023438 708.792969 226.496094 708.269531 227.957031 C 707.746094 229.417969 707.1875 230.863281 706.59375 232.300781 C 705.996094 233.734375 705.367188 235.152344 704.703125 236.554688 C 704.039062 237.957031 703.339844 239.34375 702.605469 240.710938 C 701.871094 242.082031 701.105469 243.429688 700.308594 244.761719 C 699.507812 246.09375 698.675781 247.402344 697.8125 248.695312 C 696.949219 249.984375 696.054688 251.253906 695.128906 252.5 C 694.199219 253.746094 693.246094 254.96875 692.257812 256.167969 C 691.273438 257.367188 690.257812 258.542969 689.210938 259.691406 C 688.167969 260.84375 687.097656 261.964844 685.996094 263.0625 C 684.898438 264.160156 683.773438 265.230469 682.621094 266.273438 C 681.46875 267.316406 680.289062 268.328125 679.089844 269.3125 C 677.886719 270.296875 676.660156 271.253906 675.410156 272.175781 C 674.164062 273.101562 672.890625 273.996094 671.597656 274.855469 C 670.304688 275.71875 668.992188 276.550781 667.660156 277.347656 C 666.324219 278.144531 664.972656 278.910156 663.601562 279.640625 C 662.230469 280.375 660.84375 281.070312 659.4375 281.734375 C 658.03125 282.398438 656.609375 283.027344 655.171875 283.621094 C 653.738281 284.214844 652.285156 284.773438 650.824219 285.296875 C 649.359375 285.820312 647.882812 286.304688 646.394531 286.753906 C 644.90625 287.207031 643.410156 287.621094 641.898438 287.996094 C 640.390625 288.375 638.875 288.714844 637.351562 289.015625 C 635.824219 289.320312 634.292969 289.585938 632.753906 289.8125 C 631.21875 290.039062 629.675781 290.230469 628.128906 290.382812 C 626.582031 290.535156 625.03125 290.648438 623.476562 290.726562 C 621.921875 290.800781 620.371094 290.839844 618.816406 290.839844 C 617.261719 290.839844 615.707031 290.800781 614.152344 290.726562 C 612.601562 290.648438 611.050781 290.535156 609.503906 290.382812 C 607.953125 290.230469 606.414062 290.039062 604.875 289.8125 C 603.335938 289.585938 601.804688 289.320312 600.28125 289.015625 C 598.753906 288.714844 597.238281 288.375 595.730469 287.996094 C 594.222656 287.621094 592.722656 287.207031 591.234375 286.753906 C 589.746094 286.304688 588.269531 285.820312 586.808594 285.296875 C 585.34375 284.773438 583.894531 284.214844 582.457031 283.621094 C 581.019531 283.027344 579.597656 282.398438 578.191406 281.734375 C 576.789062 281.070312 575.398438 280.375 574.027344 279.640625 C 572.65625 278.910156 571.304688 278.144531 569.96875 277.347656 C 568.636719 276.550781 567.324219 275.71875 566.03125 274.855469 C 564.738281 273.996094 563.464844 273.101562 562.21875 272.175781 C 560.96875 271.253906 559.742188 270.296875 558.542969 269.3125 C 557.339844 268.328125 556.164062 267.316406 555.011719 266.273438 C 553.859375 265.230469 552.734375 264.160156 551.632812 263.0625 C 550.535156 261.964844 549.460938 260.84375 548.417969 259.691406 C 547.375 258.542969 546.359375 257.367188 545.371094 256.167969 C 544.386719 254.96875 543.429688 253.746094 542.503906 252.5 C 541.578125 251.253906 540.679688 249.984375 539.816406 248.695312 C 538.953125 247.402344 538.121094 246.09375 537.324219 244.761719 C 536.523438 243.429688 535.757812 242.082031 535.023438 240.710938 C 534.289062 239.34375 533.59375 237.957031 532.925781 236.554688 C 532.261719 235.152344 531.632812 233.734375 531.039062 232.300781 C 530.441406 230.863281 529.882812 229.417969 529.359375 227.957031 C 528.835938 226.496094 528.347656 225.023438 527.894531 223.535156 C 527.445312 222.050781 527.03125 220.554688 526.652344 219.050781 C 526.273438 217.546875 525.933594 216.03125 525.628906 214.507812 C 525.328125 212.988281 525.0625 211.457031 524.832031 209.921875 C 524.605469 208.386719 524.414062 206.847656 524.261719 205.304688 C 524.109375 203.757812 523.996094 202.210938 523.917969 200.664062 C 523.84375 199.113281 523.804688 197.5625 523.804688 196.007812 C 523.804688 194.457031 523.84375 192.90625 523.917969 191.355469 C 523.996094 189.804688 524.109375 188.257812 524.261719 186.714844 C 524.414062 185.167969 524.605469 183.628906 524.832031 182.09375 C 525.0625 180.558594 525.328125 179.03125 525.628906 177.507812 C 525.933594 175.988281 526.273438 174.472656 526.652344 172.96875 C 527.03125 171.460938 527.445312 169.96875 527.894531 168.480469 C 528.347656 166.996094 528.835938 165.523438 529.359375 164.0625 C 529.882812 162.601562 530.441406 161.152344 531.039062 159.71875 C 531.632812 158.285156 532.261719 156.867188 532.925781 155.464844 C 533.59375 154.0625 534.289062 152.675781 535.023438 151.308594 C 535.757812 149.9375 536.523438 148.589844 537.324219 147.257812 C 538.121094 145.925781 538.953125 144.613281 539.816406 143.324219 C 540.679688 142.035156 541.574219 140.765625 542.503906 139.519531 C 543.429688 138.273438 544.386719 137.050781 545.371094 135.851562 C 546.359375 134.648438 547.375 133.476562 548.417969 132.324219 C 549.460938 131.175781 550.535156 130.050781 551.632812 128.953125 C 552.734375 127.855469 553.859375 126.789062 555.011719 125.746094 C 556.164062 124.703125 557.339844 123.691406 558.542969 122.703125 C 559.742188 121.71875 560.96875 120.765625 562.21875 119.839844 C 563.464844 118.917969 564.738281 118.023438 566.03125 117.160156 C 567.324219 116.300781 568.636719 115.46875 569.96875 114.671875 C 571.304688 113.875 572.65625 113.109375 574.027344 112.378906 C 575.398438 111.644531 576.789062 110.949219 578.191406 110.285156 C 579.597656 109.621094 581.019531 108.992188 582.457031 108.398438 C 583.894531 107.804688 585.34375 107.246094 586.808594 106.722656 C 588.269531 106.199219 589.746094 105.714844 591.234375 105.261719 C 592.722656 104.8125 594.222656 104.398438 595.730469 104.023438 C 597.238281 103.644531 598.753906 103.304688 600.28125 103 C 601.804688 102.699219 603.335938 102.433594 604.875 102.207031 C 606.414062 101.976562 607.953125 101.789062 609.503906 101.636719 C 611.050781 101.484375 612.601562 101.371094 614.152344 101.292969 C 615.707031 101.21875 617.261719 101.179688 618.816406 101.179688 C 620.371094 101.179688 621.921875 101.21875 623.476562 101.292969 C 625.03125 101.371094 626.582031 101.484375 628.128906 101.636719 C 629.675781 101.789062 631.21875 101.976562 632.753906 102.207031 C 634.292969 102.433594 635.824219 102.699219 637.351562 103 C 638.875 103.304688 640.390625 103.644531 641.898438 104.023438 C 643.410156 104.398438 644.90625 104.8125 646.394531 105.261719 C 647.882812 105.714844 649.359375 106.199219 650.824219 106.722656 C 652.285156 107.246094 653.738281 107.804688 655.171875 108.398438 C 656.609375 108.992188 658.03125 109.621094 659.4375 110.285156 C 660.84375 110.949219 662.230469 111.644531 663.601562 112.378906 C 664.972656 113.109375 666.324219 113.875 667.660156 114.671875 C 668.992188 115.46875 670.304688 116.300781 671.597656 117.160156 C 672.890625 118.023438 674.164062 118.917969 675.410156 119.839844 C 676.660156 120.765625 677.886719 121.71875 679.089844 122.703125 C 680.289062 123.691406 681.46875 124.703125 682.621094 125.746094 C 683.773438 126.789062 684.898438 127.855469 685.996094 128.953125 C 687.097656 130.050781 688.167969 131.175781 689.210938 132.324219 C 690.257812 133.476562 691.273438 134.648438 692.257812 135.851562 C 693.246094 137.050781 694.199219 138.273438 695.128906 139.519531 C 696.054688 140.765625 696.949219 142.035156 697.8125 143.324219 C 698.675781 144.613281 699.507812 145.925781 700.308594 147.257812 C 701.105469 148.589844 701.871094 149.9375 702.605469 151.308594 C 703.339844 152.675781 704.039062 154.0625 704.703125 155.464844 C 705.367188 156.867188 705.996094 158.285156 706.59375 159.71875 C 707.1875 161.152344 707.746094 162.601562 708.269531 164.0625 C 708.792969 165.523438 709.28125 166.996094 709.734375 168.480469 C 710.183594 169.96875 710.597656 171.460938 710.976562 172.96875 C 711.355469 174.472656 711.695312 175.988281 712 177.507812 C 712.300781 179.03125 712.566406 180.558594 712.796875 182.09375 C 713.023438 183.628906 713.214844 185.167969 713.367188 186.714844 C 713.519531 188.257812 713.632812 189.804688 713.710938 191.355469 C 713.785156 192.90625 713.824219 194.457031 713.824219 196.007812 Z M 713.824219 196.007812 "/>
<path style=" stroke:none;fill-rule:nonzero;fill:rgb(53.329468%,53.329468%,53.329468%);fill-opacity:1;" d="M 618.816406 214.976562 C 629.292969 214.976562 637.816406 206.464844 637.816406 196.007812 C 637.816406 194.59375 637.640625 193.226562 637.335938 191.898438 L 660.796875 159.101562 L 640.171875 144.410156 L 616.675781 177.257812 C 607.210938 178.332031 599.8125 186.285156 599.8125 196.007812 C 599.8125 206.464844 608.339844 214.976562 618.816406 214.976562 Z M 618.816406 214.976562 "/>
<path style=" stroke:none;fill-rule:nonzero;fill:rgb(20.779419%,51.759338%,74.508667%);fill-opacity:1;" d="M 36.472656 229.109375 L 61.808594 215.617188 L 73.734375 237.929688 L 48.394531 251.421875 Z M 36.472656 229.109375 "/>
<g clip-path="url(#clip6)" clip-rule="nonzero">
<path style=" stroke:none;fill-rule:nonzero;fill:rgb(20.779419%,51.759338%,74.508667%);fill-opacity:1;" d="M 99.0625 224.445312 L 393.363281 67.785156 L 373.132812 108.171875 L 395.796875 119.488281 L 433.800781 43.625 C 435.761719 39.703125 435.546875 35.050781 433.242188 31.320312 C 430.921875 27.59375 426.855469 25.316406 422.460938 25.316406 L 333.785156 25.316406 L 333.785156 50.605469 L 371.789062 50.605469 L 87.128906 202.128906 Z M 99.0625 224.445312 "/>
</g>
<path style=" stroke:none;fill-rule:nonzero;fill:rgb(94.509888%,39.608765%,39.608765%);fill-opacity:1;" d="M 400.382812 458.941406 L 400.382812 395.582031 L 359.046875 381.925781 C 356.121094 372.339844 352.269531 363.164062 347.621094 354.464844 L 365.175781 317.566406 C 352.824219 300.234375 337.636719 285.074219 320.269531 272.746094 L 283.304688 290.269531 C 274.589844 285.640625 265.390625 281.796875 255.789062 278.863281 L 242.109375 237.609375 L 178.617188 237.609375 L 164.933594 278.863281 L 137.421875 290.269531 L 100.441406 272.71875 C 83.074219 285.046875 67.886719 300.207031 55.535156 317.542969 L 73.09375 354.4375 L 61.664062 381.902344 L 20.328125 395.554688 L 20.328125 458.914062 L 61.664062 472.570312 L 73.09375 500.03125 L 55.535156 536.929688 C 67.886719 554.261719 83.074219 569.421875 100.441406 581.75 L 137.40625 564.226562 L 164.921875 575.632812 L 178.601562 616.886719 L 242.082031 616.886719 L 255.765625 575.632812 C 265.367188 572.710938 274.5625 568.867188 283.277344 564.226562 L 320.242188 581.75 C 337.613281 569.421875 352.800781 554.261719 365.152344 536.929688 L 347.59375 500.03125 C 352.242188 491.335938 356.082031 482.15625 359.019531 472.570312 Z M 400.382812 458.941406 "/>
<path style=" stroke:none;fill-rule:nonzero;fill:rgb(72.938538%,75.289917%,75.289917%);fill-opacity:1;" d="M 315.925781 427.253906 C 315.925781 428.980469 315.882812 430.703125 315.796875 432.425781 C 315.710938 434.148438 315.585938 435.867188 315.414062 437.582031 C 315.246094 439.296875 315.035156 441.007812 314.78125 442.714844 C 314.527344 444.421875 314.234375 446.117188 313.894531 447.808594 C 313.558594 449.5 313.179688 451.183594 312.761719 452.855469 C 312.339844 454.527344 311.878906 456.1875 311.378906 457.839844 C 310.878906 459.488281 310.335938 461.125 309.753906 462.75 C 309.171875 464.375 308.550781 465.980469 307.886719 467.574219 C 307.226562 469.167969 306.527344 470.742188 305.789062 472.300781 C 305.050781 473.859375 304.273438 475.402344 303.460938 476.921875 C 302.644531 478.441406 301.792969 479.941406 300.90625 481.421875 C 300.015625 482.898438 299.09375 484.355469 298.132812 485.789062 C 297.175781 487.222656 296.179688 488.632812 295.148438 490.019531 C 294.121094 491.402344 293.058594 492.761719 291.960938 494.09375 C 290.867188 495.429688 289.738281 496.734375 288.578125 498.011719 C 287.417969 499.289062 286.226562 500.539062 285.003906 501.757812 C 283.785156 502.976562 282.535156 504.164062 281.253906 505.324219 C 279.972656 506.480469 278.664062 507.605469 277.328125 508.699219 C 275.996094 509.792969 274.632812 510.855469 273.246094 511.882812 C 271.859375 512.910156 270.445312 513.902344 269.007812 514.859375 C 267.574219 515.816406 266.113281 516.738281 264.632812 517.625 C 263.148438 518.511719 261.648438 519.363281 260.125 520.175781 C 258.601562 520.988281 257.058594 521.761719 255.496094 522.5 C 253.933594 523.238281 252.355469 523.9375 250.757812 524.597656 C 249.164062 525.257812 247.550781 525.875 245.925781 526.457031 C 244.296875 527.039062 242.660156 527.578125 241.003906 528.078125 C 239.351562 528.582031 237.6875 529.039062 236.011719 529.457031 C 234.335938 529.878906 232.652344 530.253906 230.957031 530.59375 C 229.261719 530.929688 227.558594 531.222656 225.851562 531.476562 C 224.140625 531.730469 222.429688 531.941406 220.707031 532.109375 C 218.988281 532.277344 217.265625 532.40625 215.542969 532.488281 C 213.816406 532.574219 212.089844 532.617188 210.363281 532.617188 C 208.632812 532.617188 206.90625 532.574219 205.183594 532.488281 C 203.457031 532.40625 201.734375 532.277344 200.015625 532.109375 C 198.296875 531.941406 196.582031 531.730469 194.871094 531.476562 C 193.164062 531.222656 191.460938 530.929688 189.769531 530.59375 C 188.074219 530.253906 186.386719 529.878906 184.710938 529.457031 C 183.035156 529.039062 181.371094 528.582031 179.71875 528.078125 C 178.066406 527.578125 176.425781 527.039062 174.800781 526.457031 C 173.171875 525.875 171.5625 525.257812 169.964844 524.597656 C 168.367188 523.9375 166.789062 523.238281 165.226562 522.5 C 163.667969 521.761719 162.125 520.988281 160.601562 520.175781 C 159.078125 519.363281 157.574219 518.511719 156.09375 517.625 C 154.609375 516.738281 153.152344 515.816406 151.714844 514.859375 C 150.277344 513.902344 148.867188 512.910156 147.480469 511.882812 C 146.089844 510.855469 144.730469 509.792969 143.394531 508.699219 C 142.058594 507.605469 140.75 506.480469 139.472656 505.324219 C 138.191406 504.164062 136.941406 502.976562 135.71875 501.757812 C 134.496094 500.539062 133.304688 499.289062 132.144531 498.011719 C 130.984375 496.734375 129.859375 495.429688 128.761719 494.09375 C 127.664062 492.761719 126.601562 491.402344 125.574219 490.019531 C 124.542969 488.632812 123.550781 487.222656 122.589844 485.789062 C 121.628906 484.355469 120.707031 482.898438 119.820312 481.421875 C 118.929688 479.941406 118.078125 478.441406 117.265625 476.921875 C 116.449219 475.402344 115.671875 473.859375 114.933594 472.300781 C 114.195312 470.742188 113.496094 469.167969 112.835938 467.574219 C 112.175781 465.980469 111.550781 464.375 110.96875 462.75 C 110.390625 461.125 109.847656 459.488281 109.34375 457.839844 C 108.84375 456.1875 108.382812 454.527344 107.964844 452.855469 C 107.542969 451.183594 107.164062 449.5 106.828125 447.808594 C 106.492188 446.117188 106.195312 444.417969 105.941406 442.714844 C 105.6875 441.007812 105.476562 439.296875 105.308594 437.582031 C 105.140625 435.867188 105.011719 434.148438 104.925781 432.425781 C 104.84375 430.703125 104.800781 428.980469 104.800781 427.253906 C 104.800781 425.53125 104.84375 423.808594 104.925781 422.085938 C 105.011719 420.363281 105.140625 418.644531 105.308594 416.925781 C 105.476562 415.210938 105.6875 413.5 105.941406 411.792969 C 106.195312 410.089844 106.492188 408.390625 106.828125 406.699219 C 107.164062 405.007812 107.542969 403.328125 107.964844 401.652344 C 108.382812 399.980469 108.84375 398.320312 109.34375 396.667969 C 109.847656 395.019531 110.390625 393.382812 110.96875 391.757812 C 111.550781 390.136719 112.175781 388.527344 112.835938 386.933594 C 113.496094 385.339844 114.195312 383.765625 114.933594 382.207031 C 115.671875 380.648438 116.449219 379.109375 117.265625 377.585938 C 118.078125 376.066406 118.929688 374.566406 119.820312 373.085938 C 120.707031 371.609375 121.628906 370.152344 122.589844 368.71875 C 123.550781 367.285156 124.542969 365.875 125.574219 364.492188 C 126.601562 363.105469 127.664062 361.746094 128.761719 360.414062 C 129.859375 359.082031 130.984375 357.773438 132.144531 356.496094 C 133.304688 355.21875 134.496094 353.972656 135.71875 352.753906 C 136.941406 351.53125 138.191406 350.34375 139.472656 349.1875 C 140.75 348.027344 142.058594 346.902344 143.394531 345.808594 C 144.730469 344.714844 146.089844 343.652344 147.480469 342.625 C 148.867188 341.601562 150.277344 340.605469 151.714844 339.648438 C 153.152344 338.691406 154.609375 337.769531 156.09375 336.882812 C 157.574219 335.996094 159.078125 335.144531 160.601562 334.332031 C 162.125 333.519531 163.667969 332.746094 165.226562 332.007812 C 166.789062 331.269531 168.367188 330.574219 169.964844 329.914062 C 171.5625 329.253906 173.171875 328.632812 174.800781 328.050781 C 176.425781 327.46875 178.066406 326.929688 179.71875 326.429688 C 181.371094 325.929688 183.035156 325.46875 184.710938 325.050781 C 186.386719 324.632812 188.074219 324.253906 189.769531 323.917969 C 191.460938 323.582031 193.164062 323.285156 194.871094 323.03125 C 196.582031 322.78125 198.296875 322.570312 200.015625 322.398438 C 201.734375 322.230469 203.457031 322.105469 205.183594 322.019531 C 206.90625 321.933594 208.632812 321.890625 210.363281 321.890625 C 212.089844 321.890625 213.816406 321.933594 215.542969 322.019531 C 217.265625 322.105469 218.988281 322.230469 220.707031 322.398438 C 222.429688 322.570312 224.140625 322.78125 225.851562 323.03125 C 227.558594 323.285156 229.261719 323.582031 230.957031 323.917969 C 232.652344 324.253906 234.335938 324.632812 236.011719 325.050781 C 237.6875 325.46875 239.351562 325.929688 241.003906 326.429688 C 242.660156 326.929688 244.296875 327.46875 245.925781 328.050781 C 247.550781 328.632812 249.164062 329.253906 250.757812 329.914062 C 252.355469 330.574219 253.933594 331.269531 255.496094 332.007812 C 257.058594 332.746094 258.601562 333.519531 260.125 334.332031 C 261.648438 335.144531 263.148438 335.996094 264.632812 336.882812 C 266.113281 337.769531 267.574219 338.691406 269.007812 339.648438 C 270.445312 340.605469 271.859375 341.601562 273.246094 342.625 C 274.632812 343.652344 275.996094 344.714844 277.328125 345.808594 C 278.664062 346.902344 279.972656 348.027344 281.253906 349.1875 C 282.535156 350.34375 283.785156 351.53125 285.003906 352.753906 C 286.226562 353.972656 287.417969 355.21875 288.578125 356.496094 C 289.738281 357.773438 290.867188 359.082031 291.960938 360.414062 C 293.058594 361.746094 294.121094 363.105469 295.148438 364.492188 C 296.179688 365.875 297.175781 367.285156 298.132812 368.71875 C 299.09375 370.152344 300.015625 371.609375 300.90625 373.085938 C 301.792969 374.566406 302.644531 376.066406 303.460938 377.585938 C 304.273438 379.109375 305.050781 380.648438 305.789062 382.207031 C 306.527344 383.765625 307.226562 385.339844 307.886719 386.933594 C 308.550781 388.527344 309.171875 390.136719 309.753906 391.757812 C 310.335938 393.382812 310.878906 395.019531 311.378906 396.667969 C 311.878906 398.320312 312.339844 399.980469 312.761719 401.652344 C 313.179688 403.328125 313.558594 405.007812 313.894531 406.699219 C 314.234375 408.390625 314.527344 410.089844 314.78125 411.792969 C 315.035156 413.5 315.246094 415.210938 315.414062 416.925781 C 315.585938 418.644531 315.710938 420.363281 315.796875 422.085938 C 315.882812 423.808594 315.925781 425.53125 315.925781 427.253906 Z M 315.925781 427.253906 "/>
<path style=" stroke:none;fill-rule:nonzero;fill:rgb(20.779419%,51.759338%,74.508667%);fill-opacity:1;" d="M 235.546875 439.898438 C 241.257812 432.363281 243.84375 422.324219 240.625 411.539062 C 237.546875 401.234375 228.921875 392.914062 218.457031 390.320312 C 197.464844 385.125 178.691406 400.839844 178.691406 420.933594 C 178.691406 428.078125 181.164062 434.601562 185.164062 439.898438 C 171.089844 439.898438 159.691406 451.277344 159.691406 465.324219 L 159.691406 519.695312 C 174.738281 527.925781 191.992188 532.628906 210.363281 532.628906 C 228.730469 532.628906 245.984375 527.925781 261.035156 519.695312 L 261.035156 465.324219 C 261.035156 451.289062 249.621094 439.898438 235.546875 439.898438 Z M 235.546875 439.898438 "/>
</g>
</svg>
