<?xml version="1.0" encoding="UTF-8"?>
<svg xmlns="http://www.w3.org/2000/svg" xmlns:xlink="http://www.w3.org/1999/xlink" width="810pt" height="809.999993pt" viewBox="0 0 810 809.999993" version="1.2">
<defs>
<clipPath id="clip1">
  <path d="M 129.425781 16.183594 L 680.675781 16.183594 L 680.675781 793.933594 L 129.425781 793.933594 Z M 129.425781 16.183594 "/>
</clipPath>
</defs>
<g id="surface1">
<path style=" stroke:none;fill-rule:nonzero;fill:rgb(16.468811%,59.21936%,74.119568%);fill-opacity:1;" d="M 671.222656 784.753906 L 138.914062 784.753906 L 138.914062 25.414062 L 671.222656 25.414062 L 671.222656 784.753906 "/>
<g clip-path="url(#clip1)" clip-rule="nonzero">
<path style=" stroke:none;fill-rule:nonzero;fill:rgb(10.198975%,19.60907%,23.919678%);fill-opacity:1;" d="M 148.164062 775.511719 L 661.964844 775.511719 L 661.964844 34.664062 L 148.164062 34.664062 Z M 671.222656 794.007812 L 138.914062 794.007812 C 133.804688 794.007812 129.660156 789.867188 129.660156 784.753906 L 129.660156 25.414062 C 129.660156 20.300781 133.804688 16.160156 138.914062 16.160156 L 671.222656 16.160156 C 676.324219 16.160156 680.464844 20.300781 680.464844 25.414062 L 680.464844 784.753906 C 680.464844 789.867188 676.324219 794.007812 671.222656 794.007812 "/>
</g>
<path style=" stroke:none;fill-rule:nonzero;fill:rgb(10.198975%,19.60907%,23.919678%);fill-opacity:1;" d="M 599.3125 174.050781 L 411.917969 174.050781 C 406.808594 174.050781 402.660156 169.914062 402.660156 164.800781 C 402.660156 159.691406 406.808594 155.554688 411.917969 155.554688 L 599.3125 155.554688 C 604.417969 155.554688 608.5625 159.691406 608.5625 164.800781 C 608.5625 169.914062 604.417969 174.050781 599.3125 174.050781 "/>
<path style=" stroke:none;fill-rule:nonzero;fill:rgb(10.198975%,19.60907%,23.919678%);fill-opacity:1;" d="M 599.3125 216.484375 L 411.917969 216.484375 C 406.808594 216.484375 402.660156 212.347656 402.660156 207.238281 C 402.660156 202.125 406.808594 197.988281 411.917969 197.988281 L 599.3125 197.988281 C 604.417969 197.988281 608.5625 202.125 608.5625 207.238281 C 608.5625 212.347656 604.417969 216.484375 599.3125 216.484375 "/>
<path style=" stroke:none;fill-rule:nonzero;fill:rgb(96.078491%,66.668701%,10.5896%);fill-opacity:1;" d="M 355.734375 267.988281 L 210.820312 267.988281 L 210.820312 138.339844 L 355.734375 138.339844 L 355.734375 267.988281 "/>
<path style=" stroke:none;fill-rule:nonzero;fill:rgb(96.078491%,66.668701%,10.5896%);fill-opacity:1;" d="M 355.734375 491.703125 L 210.820312 491.703125 L 210.820312 362.046875 L 355.734375 362.046875 L 355.734375 491.703125 "/>
<path style=" stroke:none;fill-rule:nonzero;fill:rgb(96.078491%,66.668701%,10.5896%);fill-opacity:1;" d="M 355.734375 715.410156 L 210.820312 715.410156 L 210.820312 585.753906 L 355.734375 585.753906 L 355.734375 715.410156 "/>
<path style=" stroke:none;fill-rule:nonzero;fill:rgb(10.198975%,19.60907%,23.919678%);fill-opacity:1;" d="M 599.3125 258.929688 L 411.917969 258.929688 C 406.808594 258.929688 402.660156 254.78125 402.660156 249.675781 C 402.660156 244.558594 406.808594 240.421875 411.917969 240.421875 L 599.3125 240.421875 C 604.417969 240.421875 608.5625 244.558594 608.5625 249.675781 C 608.5625 254.78125 604.417969 258.929688 599.3125 258.929688 "/>
<path style=" stroke:none;fill-rule:nonzero;fill:rgb(10.198975%,19.60907%,23.919678%);fill-opacity:1;" d="M 220.074219 258.746094 L 346.484375 258.746094 L 346.484375 147.59375 L 220.074219 147.59375 Z M 355.734375 277.246094 L 210.820312 277.246094 C 205.710938 277.246094 201.570312 273.105469 201.570312 267.988281 L 201.570312 138.339844 C 201.570312 133.226562 205.710938 129.085938 210.820312 129.085938 L 355.734375 129.085938 C 360.84375 129.085938 364.984375 133.226562 364.984375 138.339844 L 364.984375 267.988281 C 364.984375 273.105469 360.84375 277.246094 355.734375 277.246094 "/>
<path style=" stroke:none;fill-rule:nonzero;fill:rgb(10.198975%,19.60907%,23.919678%);fill-opacity:1;" d="M 283.273438 244.015625 C 279.203125 244.015625 275.585938 241.34375 274.414062 237.402344 C 268.980469 219.167969 250.28125 204.316406 243.535156 200.136719 C 239.191406 197.441406 237.855469 191.742188 240.550781 187.398438 C 243.242188 183.050781 248.945312 181.71875 253.285156 184.40625 C 254.148438 184.9375 268.480469 193.960938 280.003906 209.039062 C 288.984375 176.691406 309.074219 119.628906 345.269531 87.8125 C 349.105469 84.433594 354.949219 84.8125 358.324219 88.652344 C 361.699219 92.488281 361.320312 98.332031 357.484375 101.703125 C 310.832031 142.71875 292.542969 235.578125 292.363281 236.503906 C 291.558594 240.691406 287.996094 243.792969 283.742188 244.007812 C 283.582031 244.015625 283.429688 244.015625 283.273438 244.015625 "/>
<path style=" stroke:none;fill-rule:nonzero;fill:rgb(10.198975%,19.60907%,23.919678%);fill-opacity:1;" d="M 599.3125 397.761719 L 411.917969 397.761719 C 406.808594 397.761719 402.660156 393.617188 402.660156 388.515625 C 402.660156 383.398438 406.808594 379.261719 411.917969 379.261719 L 599.3125 379.261719 C 604.417969 379.261719 608.5625 383.398438 608.5625 388.515625 C 608.5625 393.617188 604.417969 397.761719 599.3125 397.761719 "/>
<path style=" stroke:none;fill-rule:nonzero;fill:rgb(10.198975%,19.60907%,23.919678%);fill-opacity:1;" d="M 599.3125 440.199219 L 411.917969 440.199219 C 406.808594 440.199219 402.660156 436.050781 402.660156 430.949219 C 402.660156 425.835938 406.808594 421.695312 411.917969 421.695312 L 599.3125 421.695312 C 604.417969 421.695312 608.5625 425.835938 608.5625 430.949219 C 608.5625 436.050781 604.417969 440.199219 599.3125 440.199219 "/>
<path style=" stroke:none;fill-rule:nonzero;fill:rgb(10.198975%,19.60907%,23.919678%);fill-opacity:1;" d="M 599.3125 482.632812 L 411.917969 482.632812 C 406.808594 482.632812 402.660156 478.488281 402.660156 473.382812 C 402.660156 468.269531 406.808594 464.128906 411.917969 464.128906 L 599.3125 464.128906 C 604.417969 464.128906 608.5625 468.269531 608.5625 473.382812 C 608.5625 478.488281 604.417969 482.632812 599.3125 482.632812 "/>
<path style=" stroke:none;fill-rule:nonzero;fill:rgb(10.198975%,19.60907%,23.919678%);fill-opacity:1;" d="M 220.074219 482.449219 L 346.484375 482.449219 L 346.484375 371.300781 L 220.074219 371.300781 Z M 355.734375 500.949219 L 210.820312 500.949219 C 205.710938 500.949219 201.570312 496.8125 201.570312 491.703125 L 201.570312 362.046875 C 201.570312 356.941406 205.710938 352.796875 210.820312 352.796875 L 355.734375 352.796875 C 360.84375 352.796875 364.984375 356.941406 364.984375 362.046875 L 364.984375 491.703125 C 364.984375 496.8125 360.84375 500.949219 355.734375 500.949219 "/>
<path style=" stroke:none;fill-rule:nonzero;fill:rgb(10.198975%,19.60907%,23.919678%);fill-opacity:1;" d="M 283.273438 467.722656 C 279.203125 467.722656 275.585938 465.046875 274.414062 461.117188 C 268.980469 442.871094 250.28125 428.023438 243.535156 423.84375 C 239.191406 421.148438 237.855469 415.449219 240.550781 411.101562 C 243.242188 406.765625 248.945312 405.425781 253.285156 408.113281 C 254.148438 408.652344 268.480469 417.667969 280.003906 432.746094 C 288.984375 400.398438 309.074219 343.335938 345.269531 311.515625 C 349.105469 308.140625 354.949219 308.523438 358.324219 312.359375 C 361.699219 316.195312 361.320312 322.042969 357.484375 325.417969 C 310.832031 366.433594 292.542969 459.285156 292.363281 460.21875 C 291.558594 464.40625 287.996094 467.496094 283.742188 467.710938 C 283.582031 467.722656 283.429688 467.722656 283.273438 467.722656 "/>
<path style=" stroke:none;fill-rule:nonzero;fill:rgb(10.198975%,19.60907%,23.919678%);fill-opacity:1;" d="M 599.3125 621.472656 L 411.917969 621.472656 C 406.808594 621.472656 402.660156 617.328125 402.660156 612.21875 C 402.660156 607.105469 406.808594 602.964844 411.917969 602.964844 L 599.3125 602.964844 C 604.417969 602.964844 608.5625 607.105469 608.5625 612.21875 C 608.5625 617.328125 604.417969 621.472656 599.3125 621.472656 "/>
<path style=" stroke:none;fill-rule:nonzero;fill:rgb(10.198975%,19.60907%,23.919678%);fill-opacity:1;" d="M 599.3125 663.90625 L 411.917969 663.90625 C 406.808594 663.90625 402.660156 659.761719 402.660156 654.652344 C 402.660156 649.546875 406.808594 645.402344 411.917969 645.402344 L 599.3125 645.402344 C 604.417969 645.402344 608.5625 649.546875 608.5625 654.652344 C 608.5625 659.761719 604.417969 663.90625 599.3125 663.90625 "/>
<path style=" stroke:none;fill-rule:nonzero;fill:rgb(10.198975%,19.60907%,23.919678%);fill-opacity:1;" d="M 599.3125 706.34375 L 411.917969 706.34375 C 406.808594 706.34375 402.660156 702.199219 402.660156 697.085938 C 402.660156 691.984375 406.808594 687.835938 411.917969 687.835938 L 599.3125 687.835938 C 604.417969 687.835938 608.5625 691.984375 608.5625 697.085938 C 608.5625 702.199219 604.417969 706.34375 599.3125 706.34375 "/>
<path style=" stroke:none;fill-rule:nonzero;fill:rgb(10.198975%,19.60907%,23.919678%);fill-opacity:1;" d="M 220.074219 706.160156 L 346.484375 706.160156 L 346.484375 595.007812 L 220.074219 595.007812 Z M 355.734375 724.664062 L 210.820312 724.664062 C 205.710938 724.664062 201.570312 720.515625 201.570312 715.410156 L 201.570312 585.753906 C 201.570312 580.648438 205.710938 576.5 210.820312 576.5 L 355.734375 576.5 C 360.84375 576.5 364.984375 580.648438 364.984375 585.753906 L 364.984375 715.410156 C 364.984375 720.515625 360.84375 724.664062 355.734375 724.664062 "/>
<path style=" stroke:none;fill-rule:nonzero;fill:rgb(10.198975%,19.60907%,23.919678%);fill-opacity:1;" d="M 283.273438 691.425781 C 279.203125 691.425781 275.585938 688.757812 274.414062 684.824219 C 268.980469 666.578125 250.28125 651.726562 243.535156 647.550781 C 239.191406 644.863281 237.855469 639.152344 240.550781 634.816406 C 243.242188 630.472656 248.945312 629.128906 253.285156 631.828125 C 254.148438 632.359375 268.480469 641.375 280.003906 656.453125 C 288.984375 624.105469 309.074219 567.042969 345.269531 535.226562 C 349.105469 531.855469 354.949219 532.226562 358.324219 536.066406 C 361.699219 539.902344 361.320312 545.746094 357.484375 549.125 C 310.832031 590.136719 292.542969 682.992188 292.363281 683.929688 C 291.558594 688.113281 287.996094 691.207031 283.742188 691.417969 C 283.582031 691.425781 283.429688 691.425781 283.273438 691.425781 "/>
</g>
</svg>
