<?xml version="1.0" encoding="UTF-8"?>
<svg xmlns="http://www.w3.org/2000/svg" xmlns:xlink="http://www.w3.org/1999/xlink" width="810pt" height="809.999993pt" viewBox="0 0 810 809.999993" version="1.2">
<defs>
<clipPath id="clip1">
  <path d="M 20.59375 20.59375 L 789.285156 20.59375 L 789.285156 789.285156 L 20.59375 789.285156 Z M 20.59375 20.59375 "/>
</clipPath>
</defs>
<g id="surface1">
<rect x="0" y="0" width="810" height="809.999993" style="fill:rgb(100%,100%,100%);fill-opacity:1;stroke:none;"/>
<rect x="0" y="0" width="810" height="809.999993" style="fill:rgb(100%,100%,100%);fill-opacity:1;stroke:none;"/>
<rect x="0" y="0" width="810" height="809.999993" style="fill:rgb(100%,100%,100%);fill-opacity:1;stroke:none;"/>
<path style=" stroke:none;fill-rule:nonzero;fill:rgb(98.81897%,84.309387%,43.919373%);fill-opacity:1;" d="M 739.691406 318.152344 L 739.691406 417.335938 L 709.566406 424.890625 C 701.480469 467.945312 684.625 507.949219 660.703125 542.820312 L 641.378906 565.003906 C 619.195312 575.800781 601.226562 593.625 590.28125 615.710938 L 484.511719 615.710938 C 504.609375 609.269531 523.738281 600.453125 541.320312 589.554688 C 559.53125 578.367188 576.285156 565.003906 590.914062 549.746094 C 637.019531 502.914062 665.300781 438.648438 665.300781 367.746094 C 665.300781 223.90625 548.730469 107.382812 404.9375 107.382812 C 261.148438 107.382812 144.574219 223.90625 144.574219 367.746094 C 144.574219 438.648438 172.957031 503.011719 218.820312 549.890625 C 248.070312 579.726562 284.539062 602.679688 325.222656 615.710938 L 179.542969 615.710938 L 133.195312 569.359375 L 149.175781 542.820312 C 125.25 507.949219 108.398438 467.945312 100.308594 424.890625 L 70.1875 417.335938 L 70.1875 318.152344 L 100.308594 310.597656 C 108.398438 267.542969 125.25 227.539062 149.175781 192.667969 L 133.195312 166.128906 L 203.320312 96 L 229.863281 111.980469 C 264.730469 88.058594 304.734375 71.203125 347.789062 63.117188 L 355.347656 32.992188 L 454.53125 32.992188 L 462.085938 63.117188 C 505.140625 71.203125 545.144531 88.058594 580.015625 111.980469 L 606.554688 96 L 676.683594 166.128906 L 660.703125 192.667969 C 684.625 227.539062 701.480469 267.542969 709.566406 310.597656 L 739.691406 318.152344 "/>
<path style=" stroke:none;fill-rule:nonzero;fill:rgb(66.668701%,69.799805%,74.119568%);fill-opacity:1;" d="M 218.964844 549.746094 L 218.964844 342.949219 L 417.335938 342.949219 L 417.335938 615.710938 L 325.222656 615.710938 C 284.539062 602.679688 248.070312 579.726562 218.820312 549.890625 L 218.964844 549.746094 "/>
<path style=" stroke:none;fill-rule:nonzero;fill:rgb(79.998779%,81.959534%,85.099792%);fill-opacity:1;" d="M 528.921875 218.964844 L 532.019531 268.558594 L 476.230469 268.558594 L 479.328125 218.964844 L 528.921875 218.964844 "/>
<path style=" stroke:none;fill-rule:nonzero;fill:rgb(66.668701%,69.799805%,74.119568%);fill-opacity:1;" d="M 532.019531 268.558594 L 541.320312 417.335938 L 466.929688 417.335938 L 476.230469 268.558594 L 532.019531 268.558594 "/>
<path style=" stroke:none;fill-rule:nonzero;fill:rgb(87.449646%,69.799805%,54.508972%);fill-opacity:1;" d="M 541.320312 417.335938 L 417.335938 417.335938 L 417.335938 615.710938 L 466.929688 615.710938 L 466.929688 516.523438 L 541.320312 516.523438 L 541.320312 589.554688 C 559.53125 578.367188 576.285156 565.003906 590.914062 549.746094 L 590.914062 417.335938 L 541.320312 417.335938 "/>
<path style=" stroke:none;fill-rule:nonzero;fill:rgb(69.799805%,47.44873%,27.449036%);fill-opacity:1;" d="M 541.320312 516.523438 L 541.320312 589.554688 C 523.738281 600.453125 504.609375 609.269531 484.511719 615.710938 L 466.929688 615.710938 L 466.929688 516.523438 L 541.320312 516.523438 "/>
<path style=" stroke:none;fill-rule:nonzero;fill:rgb(79.998779%,81.959534%,85.099792%);fill-opacity:1;" d="M 325.222656 615.710938 L 590.28125 615.710938 C 601.226562 593.625 619.195312 575.800781 641.378906 565.003906 C 656.148438 557.835938 672.613281 553.71875 690.097656 553.71875 C 725.210938 553.71875 756.398438 565.488281 776.886719 590.914062 L 776.886719 628.105469 L 677.699219 628.105469 L 677.699219 702.496094 L 776.886719 702.496094 L 776.886719 739.691406 C 756.398438 764.972656 725.210938 776.886719 690.097656 776.886719 C 646.316406 776.886719 608.492188 751.605469 590.28125 714.894531 L 82.585938 714.894531 C 68.925781 714.894531 56.527344 709.324219 47.472656 700.414062 C 38.5625 691.359375 32.992188 678.960938 32.992188 665.300781 C 32.992188 637.890625 55.171875 615.710938 82.585938 615.710938 L 325.222656 615.710938 "/>
<path style=" stroke:none;fill-rule:nonzero;fill:rgb(0%,0%,0%);fill-opacity:1;" d="M 82.585938 652.902344 C 75.753906 652.902344 70.1875 658.472656 70.1875 665.300781 C 70.1875 672.128906 75.753906 677.699219 82.585938 677.699219 C 89.414062 677.699219 94.984375 672.128906 94.984375 665.300781 C 94.984375 658.472656 89.414062 652.902344 82.585938 652.902344 "/>
<path style=" stroke:none;fill-rule:nonzero;fill:rgb(0%,0%,0%);fill-opacity:1;" d="M 305.753906 404.9375 L 330.550781 404.9375 L 330.550781 380.140625 L 305.753906 380.140625 L 305.753906 404.9375 "/>
<path style=" stroke:none;fill-rule:nonzero;fill:rgb(0%,0%,0%);fill-opacity:1;" d="M 256.160156 404.9375 L 280.957031 404.9375 L 280.957031 380.140625 L 256.160156 380.140625 L 256.160156 404.9375 "/>
<path style=" stroke:none;fill-rule:nonzero;fill:rgb(0%,0%,0%);fill-opacity:1;" d="M 355.347656 380.140625 L 355.347656 404.9375 L 380.140625 404.9375 L 380.140625 380.140625 L 355.347656 380.140625 "/>
<path style=" stroke:none;fill-rule:nonzero;fill:rgb(0%,0%,0%);fill-opacity:1;" d="M 305.753906 454.53125 L 330.550781 454.53125 L 330.550781 429.734375 L 305.753906 429.734375 L 305.753906 454.53125 "/>
<path style=" stroke:none;fill-rule:nonzero;fill:rgb(0%,0%,0%);fill-opacity:1;" d="M 256.160156 454.53125 L 280.957031 454.53125 L 280.957031 429.734375 L 256.160156 429.734375 L 256.160156 454.53125 "/>
<path style=" stroke:none;fill-rule:nonzero;fill:rgb(0%,0%,0%);fill-opacity:1;" d="M 355.347656 454.53125 L 380.140625 454.53125 L 380.140625 429.734375 L 355.347656 429.734375 L 355.347656 454.53125 "/>
<path style=" stroke:none;fill-rule:nonzero;fill:rgb(0%,0%,0%);fill-opacity:1;" d="M 355.347656 504.125 L 380.140625 504.125 L 380.140625 479.328125 L 355.347656 479.328125 L 355.347656 504.125 "/>
<path style=" stroke:none;fill-rule:nonzero;fill:rgb(0%,0%,0%);fill-opacity:1;" d="M 256.160156 504.125 L 280.957031 504.125 L 280.957031 479.328125 L 256.160156 479.328125 L 256.160156 504.125 "/>
<path style=" stroke:none;fill-rule:nonzero;fill:rgb(0%,0%,0%);fill-opacity:1;" d="M 305.753906 504.125 L 330.550781 504.125 L 330.550781 479.328125 L 305.753906 479.328125 L 305.753906 504.125 "/>
<path style=" stroke:none;fill-rule:nonzero;fill:rgb(0%,0%,0%);fill-opacity:1;" d="M 256.160156 553.71875 L 280.957031 553.71875 L 280.957031 528.921875 L 256.160156 528.921875 L 256.160156 553.71875 "/>
<path style=" stroke:none;fill-rule:nonzero;fill:rgb(0%,0%,0%);fill-opacity:1;" d="M 355.347656 553.71875 L 380.140625 553.71875 L 380.140625 528.921875 L 355.347656 528.921875 L 355.347656 553.71875 "/>
<path style=" stroke:none;fill-rule:nonzero;fill:rgb(0%,0%,0%);fill-opacity:1;" d="M 305.753906 553.71875 L 330.550781 553.71875 L 330.550781 528.921875 L 305.753906 528.921875 L 305.753906 553.71875 "/>
<g clip-path="url(#clip1)" clip-rule="nonzero">
<path style=" stroke:none;fill-rule:nonzero;fill:rgb(0%,0%,0%);fill-opacity:1;" d="M 764.488281 714.894531 L 764.488281 735.140625 C 742.839844 759.304688 712.328125 764.488281 690.097656 764.488281 C 652.273438 764.488281 618.277344 743.371094 601.375 709.375 L 597.933594 702.496094 L 82.585938 702.496094 C 62.050781 702.496094 45.390625 685.835938 45.390625 665.300781 C 45.390625 644.765625 62.050781 628.105469 82.585938 628.105469 L 323.429688 628.105469 C 323.574219 628.15625 323.71875 628.203125 323.816406 628.253906 L 323.867188 628.105469 L 597.933594 628.105469 L 601.375 621.230469 C 618.277344 587.230469 652.273438 566.117188 690.097656 566.117188 C 712.375 566.117188 742.886719 571.296875 764.488281 595.464844 L 764.488281 615.710938 L 665.300781 615.710938 L 665.300781 714.894531 Z M 479.328125 528.921875 L 528.921875 528.921875 L 528.921875 582.4375 C 514.34375 590.816406 498.847656 597.933594 482.378906 603.3125 L 479.328125 603.3125 Z M 429.734375 479.328125 L 578.515625 479.328125 L 578.515625 545 C 570.765625 552.605469 562.484375 559.675781 553.71875 566.214844 L 553.71875 504.125 L 454.53125 504.125 L 454.53125 603.3125 L 429.734375 603.3125 Z M 552.992188 404.9375 L 540.59375 206.566406 L 467.65625 206.566406 L 455.257812 404.9375 L 429.734375 404.9375 L 429.734375 330.550781 L 380.140625 330.550781 L 380.140625 280.957031 L 355.347656 280.957031 L 355.347656 330.550781 L 330.550781 330.550781 L 330.550781 256.160156 L 305.753906 256.160156 L 305.753906 330.550781 L 280.957031 330.550781 L 280.957031 280.957031 L 256.160156 280.957031 L 256.160156 330.550781 L 206.566406 330.550781 L 206.566406 516.910156 C 175.136719 475.066406 156.972656 423.246094 156.972656 367.746094 C 156.972656 231.023438 268.21875 119.777344 404.9375 119.777344 C 541.660156 119.777344 652.902344 231.023438 652.902344 367.746094 C 652.902344 423.101562 634.742188 474.871094 603.3125 516.71875 L 603.3125 404.9375 Z M 489.449219 256.160156 L 491 231.363281 L 517.25 231.363281 L 518.800781 256.160156 Z M 487.902344 280.957031 L 520.347656 280.957031 L 528.097656 404.9375 L 480.152344 404.9375 Z M 429.734375 429.734375 L 578.515625 429.734375 L 578.515625 454.53125 L 429.734375 454.53125 Z M 327.691406 603.3125 C 290.59375 591.15625 257.902344 571.105469 231.363281 545.195312 L 231.363281 355.347656 L 404.9375 355.347656 L 404.9375 603.3125 Z M 148.789062 567.472656 L 163.851562 542.335938 L 159.394531 535.75 C 135.90625 501.507812 120.117188 463.441406 112.515625 422.566406 L 111.0625 414.769531 L 82.585938 407.652344 L 82.585938 327.835938 L 111.0625 320.71875 L 112.515625 312.871094 C 120.117188 272.046875 135.90625 233.980469 159.394531 199.738281 L 163.851562 193.152344 L 148.789062 168.015625 L 205.210938 111.59375 L 230.347656 126.65625 L 236.933594 122.152344 C 271.171875 98.710938 309.238281 82.921875 350.117188 75.320312 L 357.914062 73.867188 L 365.03125 45.390625 L 444.847656 45.390625 L 451.964844 73.867188 L 459.761719 75.320312 C 500.636719 82.921875 538.703125 98.710938 572.945312 122.152344 L 579.53125 126.65625 L 604.667969 111.59375 L 661.089844 168.015625 L 646.027344 193.152344 L 650.480469 199.738281 C 673.972656 233.980469 689.757812 272.046875 697.363281 312.871094 L 698.816406 320.71875 L 727.292969 327.835938 L 727.292969 407.652344 L 698.816406 414.769531 L 697.363281 422.566406 C 689.808594 463.199219 674.164062 501.074219 650.917969 535.167969 L 633.335938 555.269531 C 612.609375 565.972656 594.933594 582.292969 582.824219 603.3125 L 542.386719 603.3125 C 625.105469 555.269531 677.699219 466.640625 677.699219 367.746094 C 677.699219 217.320312 555.363281 94.984375 404.9375 94.984375 C 254.511719 94.984375 132.175781 217.320312 132.175781 367.746094 C 132.175781 466.832031 184.628906 555.316406 267.347656 603.3125 L 184.628906 603.3125 Z M 789.285156 640.503906 L 789.285156 586.554688 L 786.574219 583.117188 C 764.828125 556.1875 730.585938 541.320312 690.097656 541.320312 C 685.253906 541.320312 680.558594 541.707031 675.859375 542.238281 C 697.121094 509.308594 712.039062 473.371094 720.175781 434.964844 L 752.089844 427.023438 L 752.089844 308.464844 L 720.175781 300.472656 C 711.988281 261.828125 696.925781 225.503906 675.425781 192.375 L 692.328125 164.191406 L 608.492188 80.355469 L 580.304688 97.257812 C 547.179688 75.753906 510.855469 60.695312 472.160156 52.507812 L 464.21875 20.59375 L 345.660156 20.59375 L 337.71875 52.507812 C 299.019531 60.695312 262.699219 75.753906 229.570312 97.257812 L 201.386719 80.355469 L 117.550781 164.191406 L 134.453125 192.375 C 112.949219 225.503906 97.886719 261.828125 89.703125 300.472656 L 57.789062 308.464844 L 57.789062 427.023438 L 89.703125 434.964844 C 97.886719 473.660156 112.949219 509.984375 134.453125 543.113281 L 117.550781 571.296875 L 149.5625 603.3125 L 82.585938 603.3125 C 48.390625 603.3125 20.59375 631.109375 20.59375 665.300781 C 20.59375 699.496094 48.390625 727.292969 82.585938 727.292969 L 582.824219 727.292969 C 605.007812 765.746094 645.398438 789.285156 690.097656 789.285156 C 730.488281 789.285156 764.777344 774.417969 786.523438 747.488281 L 789.285156 744.097656 L 789.285156 690.097656 L 690.097656 690.097656 L 690.097656 640.503906 L 789.285156 640.503906 "/>
</g>
</g>
</svg>
