<?xml version="1.0" encoding="UTF-8"?>
<svg xmlns="http://www.w3.org/2000/svg" xmlns:xlink="http://www.w3.org/1999/xlink" width="810pt" height="809.999993pt" viewBox="0 0 810 809.999993" version="1.2">
<defs>
<clipPath id="clip1">
  <path d="M 135 392 L 674 392 L 674 784.015625 L 135 784.015625 Z M 135 392 "/>
</clipPath>
<clipPath id="clip2">
  <path d="M 368 148 L 784.015625 148 L 784.015625 418 L 368 418 Z M 368 148 "/>
</clipPath>
<clipPath id="clip3">
  <path d="M 25.835938 25.835938 L 344 25.835938 L 344 344 L 25.835938 344 Z M 25.835938 25.835938 "/>
</clipPath>
</defs>
<g id="surface1">
<path style=" stroke:none;fill-rule:nonzero;fill:rgb(100%,78.039551%,16.079712%);fill-opacity:1;" d="M 661.726562 625.042969 C 661.726562 706.058594 596.046875 771.785156 514.984375 771.785156 C 433.921875 771.785156 368.238281 706.058594 368.238281 625.042969 C 368.238281 543.980469 433.921875 478.296875 514.984375 478.296875 C 596.046875 478.296875 661.726562 543.980469 661.726562 625.042969 "/>
<path style=" stroke:none;fill-rule:nonzero;fill:rgb(66.668701%,69.799805%,74.119568%);fill-opacity:1;" d="M 563.898438 221.496094 L 637.269531 221.496094 L 637.269531 270.410156 L 563.898438 270.410156 L 563.898438 221.496094 "/>
<path style=" stroke:none;fill-rule:nonzero;fill:rgb(58.81958%,62.348938%,66.668701%);fill-opacity:1;" d="M 563.898438 270.410156 L 609.230469 270.410156 C 611.523438 262.621094 612.8125 254.453125 612.8125 245.953125 C 612.8125 237.449219 611.523438 229.28125 609.230469 221.496094 L 563.898438 221.496094 L 563.898438 270.410156 "/>
<path style=" stroke:none;fill-rule:nonzero;fill:rgb(66.668701%,69.799805%,74.119568%);fill-opacity:1;" d="M 490.527344 184.808594 L 527.210938 184.808594 C 560.984375 184.808594 588.355469 212.179688 588.355469 245.953125 C 588.355469 279.722656 560.984375 307.09375 527.210938 307.09375 L 490.527344 307.09375 L 490.527344 184.808594 "/>
<path style=" stroke:none;fill-rule:nonzero;fill:rgb(66.668701%,69.799805%,74.119568%);fill-opacity:1;" d="M 490.527344 331.554688 L 441.609375 331.554688 L 441.609375 160.351562 L 490.527344 160.351562 L 490.527344 331.554688 "/>
<path style=" stroke:none;fill-rule:nonzero;fill:rgb(100%,78.039551%,16.079712%);fill-opacity:1;" d="M 331.550781 331.554688 L 38.0625 331.554688 L 38.0625 38.0625 L 331.550781 38.0625 L 331.550781 331.554688 "/>
<path style=" stroke:none;fill-rule:nonzero;fill:rgb(90.19928%,91.369629%,92.939758%);fill-opacity:1;" d="M 258.179688 270.410156 L 111.4375 270.410156 C 97.917969 270.410156 86.980469 259.46875 86.980469 245.953125 L 86.980469 123.664062 C 86.980469 110.144531 97.917969 99.207031 111.4375 99.207031 L 258.179688 99.207031 C 271.699219 99.207031 282.636719 110.144531 282.636719 123.664062 L 282.636719 245.953125 C 282.636719 259.46875 271.699219 270.410156 258.179688 270.410156 "/>
<path style=" stroke:none;fill-rule:nonzero;fill:rgb(58.81958%,62.348938%,66.668701%);fill-opacity:1;" d="M 514.984375 184.808594 L 490.527344 184.808594 L 490.527344 307.09375 L 514.984375 307.09375 L 514.984375 184.808594 "/>
<g clip-path="url(#clip1)" clip-rule="nonzero">
<path style=" stroke:none;fill-rule:nonzero;fill:rgb(0%,0%,0%);fill-opacity:1;" d="M 514.984375 759.558594 C 440.800781 759.558594 380.46875 699.226562 380.46875 625.042969 C 380.46875 550.855469 440.800781 490.527344 514.984375 490.527344 C 589.167969 490.527344 649.5 550.855469 649.5 625.042969 C 649.5 699.226562 589.167969 759.558594 514.984375 759.558594 Z M 514.984375 466.070312 C 431.4375 466.070312 362.9375 530.84375 356.632812 612.8125 L 258.179688 612.8125 C 204.25 612.8125 160.351562 568.914062 160.351562 514.984375 C 160.351562 461.054688 204.25 417.152344 258.179688 417.152344 L 453.839844 417.152344 L 453.839844 392.695312 L 258.179688 392.695312 C 190.730469 392.695312 135.894531 447.535156 135.894531 514.984375 C 135.894531 582.433594 190.730469 637.269531 258.179688 637.269531 L 356.632812 637.269531 C 362.9375 719.191406 431.4375 784.015625 514.984375 784.015625 C 602.636719 784.015625 673.957031 712.695312 673.957031 625.042969 C 673.957031 537.386719 602.636719 466.070312 514.984375 466.070312 "/>
</g>
<path style=" stroke:none;fill-rule:nonzero;fill:rgb(0%,0%,0%);fill-opacity:1;" d="M 538.152344 532.707031 L 516.273438 521.71875 L 458.519531 637.269531 L 531.894531 637.269531 L 491.816406 717.378906 L 513.695312 728.363281 L 571.445312 612.8125 L 498.074219 612.8125 L 538.152344 532.707031 "/>
<g clip-path="url(#clip2)" clip-rule="nonzero">
<path style=" stroke:none;fill-rule:nonzero;fill:rgb(0%,0%,0%);fill-opacity:1;" d="M 625.042969 258.179688 L 599.484375 258.179688 C 600.152344 254.167969 600.585938 250.15625 600.585938 245.953125 C 600.585938 241.75 600.152344 237.734375 599.484375 233.722656 L 625.042969 233.722656 Z M 527.210938 294.867188 L 502.753906 294.867188 L 502.753906 197.035156 L 527.210938 197.035156 C 554.199219 197.035156 576.125 218.960938 576.125 245.953125 C 576.125 272.941406 554.199219 294.867188 527.210938 294.867188 Z M 478.296875 319.324219 L 453.839844 319.324219 L 453.839844 172.578125 L 478.296875 172.578125 Z M 692.300781 233.722656 L 649.5 233.722656 L 649.5 209.265625 L 590.648438 209.265625 C 577.941406 187.386719 554.296875 172.578125 527.210938 172.578125 L 502.753906 172.578125 L 502.753906 148.121094 L 429.382812 148.121094 L 429.382812 184.808594 L 368.238281 184.808594 L 368.238281 209.265625 L 429.382812 209.265625 L 429.382812 282.636719 L 368.238281 282.636719 L 368.238281 307.09375 L 429.382812 307.09375 L 429.382812 343.78125 L 502.753906 343.78125 L 502.753906 319.324219 L 527.210938 319.324219 C 554.296875 319.324219 577.941406 304.515625 590.648438 282.636719 L 649.5 282.636719 L 649.5 258.179688 L 692.300781 258.179688 C 729.367188 258.179688 759.558594 288.371094 759.558594 325.4375 C 759.558594 362.507812 729.367188 392.695312 692.300781 392.695312 L 625.042969 392.695312 L 625.042969 417.152344 L 692.300781 417.152344 C 742.886719 417.152344 784.015625 376.023438 784.015625 325.4375 C 784.015625 274.851562 742.886719 233.722656 692.300781 233.722656 "/>
</g>
<g clip-path="url(#clip3)" clip-rule="nonzero">
<path style=" stroke:none;fill-rule:nonzero;fill:rgb(0%,0%,0%);fill-opacity:1;" d="M 319.324219 319.324219 L 50.292969 319.324219 L 50.292969 50.292969 L 319.324219 50.292969 Z M 343.78125 25.835938 L 25.835938 25.835938 L 25.835938 343.78125 L 343.78125 343.78125 L 343.78125 25.835938 "/>
</g>
<path style=" stroke:none;fill-rule:nonzero;fill:rgb(0%,0%,0%);fill-opacity:1;" d="M 99.207031 123.664062 C 99.207031 116.929688 104.699219 111.4375 111.4375 111.4375 L 258.179688 111.4375 C 264.914062 111.4375 270.410156 116.929688 270.410156 123.664062 L 270.410156 245.953125 C 270.410156 252.6875 264.914062 258.179688 258.179688 258.179688 L 111.4375 258.179688 C 104.699219 258.179688 99.207031 252.6875 99.207031 245.953125 Z M 111.4375 282.636719 L 258.179688 282.636719 C 278.433594 282.636719 294.867188 266.207031 294.867188 245.953125 L 294.867188 123.664062 C 294.867188 103.410156 278.433594 86.980469 258.179688 86.980469 L 111.4375 86.980469 C 91.183594 86.980469 74.75 103.410156 74.75 123.664062 L 74.75 245.953125 C 74.75 266.207031 91.183594 282.636719 111.4375 282.636719 "/>
<path style=" stroke:none;fill-rule:nonzero;fill:rgb(0%,0%,0%);fill-opacity:1;" d="M 160.351562 160.351562 L 135.894531 160.351562 L 135.894531 209.265625 L 160.351562 209.265625 L 160.351562 160.351562 "/>
<path style=" stroke:none;fill-rule:nonzero;fill:rgb(0%,0%,0%);fill-opacity:1;" d="M 233.722656 160.351562 L 209.265625 160.351562 L 209.265625 209.265625 L 233.722656 209.265625 L 233.722656 160.351562 "/>
<path style=" stroke:none;fill-rule:nonzero;fill:rgb(0%,0%,0%);fill-opacity:1;" d="M 478.296875 392.695312 L 478.296875 417.152344 L 502.753906 417.152344 L 502.753906 392.695312 L 478.296875 392.695312 "/>
<path style=" stroke:none;fill-rule:nonzero;fill:rgb(0%,0%,0%);fill-opacity:1;" d="M 527.210938 392.695312 L 527.210938 417.152344 L 551.667969 417.152344 L 551.667969 392.695312 L 527.210938 392.695312 "/>
<path style=" stroke:none;fill-rule:nonzero;fill:rgb(0%,0%,0%);fill-opacity:1;" d="M 576.125 392.695312 L 576.125 417.152344 L 600.585938 417.152344 L 600.585938 392.695312 L 576.125 392.695312 "/>
</g>
</svg>
