<?xml version="1.0" encoding="UTF-8"?>
<svg xmlns="http://www.w3.org/2000/svg" xmlns:xlink="http://www.w3.org/1999/xlink" width="810pt" height="809.999993pt" viewBox="0 0 810 809.999993" version="1.2">
<defs>
<clipPath id="clip1">
  <path d="M 194 61.96875 L 736 61.96875 L 736 748.21875 L 194 748.21875 Z M 194 61.96875 "/>
</clipPath>
<clipPath id="clip2">
  <path d="M 19.03125 276 L 156 276 L 156 743 L 19.03125 743 Z M 19.03125 276 "/>
</clipPath>
</defs>
<g id="surface1">
<path style=" stroke:none;fill-rule:nonzero;fill:rgb(100%,100%,100%);fill-opacity:1;" d="M 208.570312 76.230469 L 721.277344 76.230469 L 721.277344 734.15625 L 208.570312 734.15625 Z M 208.570312 76.230469 "/>
<g clip-path="url(#clip1)" clip-rule="nonzero">
<path style=" stroke:none;fill-rule:nonzero;fill:rgb(30.589294%,21.179199%,59.999084%);fill-opacity:1;" d="M 721.277344 748.425781 L 208.570312 748.425781 C 200.695312 748.425781 194.3125 742.035156 194.3125 734.15625 L 194.3125 76.230469 C 194.3125 68.347656 200.695312 61.960938 208.570312 61.960938 L 721.277344 61.960938 C 729.152344 61.960938 735.53125 68.347656 735.53125 76.230469 L 735.53125 734.15625 C 735.53125 742.035156 729.152344 748.425781 721.277344 748.425781 Z M 222.824219 719.886719 L 707.023438 719.886719 L 707.023438 90.503906 L 222.824219 90.503906 Z M 222.824219 719.886719 "/>
</g>
<path style=" stroke:none;fill-rule:nonzero;fill:rgb(50.19989%,78.819275%,100%);fill-opacity:1;" d="M 77.742188 359.167969 L 141.648438 359.167969 L 141.648438 664.117188 L 77.742188 664.117188 Z M 77.742188 359.167969 "/>
<path style=" stroke:none;fill-rule:nonzero;fill:rgb(100%,72.158813%,16.079712%);fill-opacity:1;" d="M 112.320312 728.09375 L 106.792969 728.09375 C 90.75 728.09375 77.742188 715.074219 77.742188 699.011719 L 77.742188 664.117188 L 141.648438 664.117188 L 141.648438 698.730469 C 141.648438 714.949219 128.519531 728.09375 112.320312 728.09375 Z M 112.320312 728.09375 "/>
<path style=" stroke:none;fill-rule:nonzero;fill:rgb(100%,72.158813%,16.079712%);fill-opacity:1;" d="M 77.742188 359.167969 L 141.648438 359.167969 L 109.695312 290.925781 Z M 77.742188 359.167969 "/>
<g clip-path="url(#clip2)" clip-rule="nonzero">
<path style=" stroke:none;fill-rule:nonzero;fill:rgb(30.589294%,21.179199%,59.999084%);fill-opacity:1;" d="M 155.878906 358.644531 C 155.871094 358.449219 155.863281 358.257812 155.847656 358.066406 C 155.816406 357.640625 155.761719 357.226562 155.695312 356.816406 C 155.671875 356.695312 155.660156 356.578125 155.640625 356.460938 C 155.535156 355.902344 155.394531 355.355469 155.226562 354.820312 C 155.214844 354.785156 155.203125 354.757812 155.191406 354.726562 C 155.027344 354.226562 154.832031 353.742188 154.617188 353.265625 C 154.59375 353.214844 154.578125 353.160156 154.554688 353.109375 L 122.601562 284.871094 C 120.253906 279.859375 115.226562 276.65625 109.695312 276.65625 C 104.167969 276.65625 99.136719 279.859375 96.789062 284.867188 L 64.835938 353.109375 C 64.808594 353.160156 64.796875 353.21875 64.769531 353.273438 C 64.558594 353.742188 64.367188 354.21875 64.207031 354.710938 C 64.191406 354.746094 64.175781 354.78125 64.167969 354.820312 C 63.996094 355.355469 63.859375 355.898438 63.753906 356.457031 C 63.726562 356.574219 63.71875 356.699219 63.695312 356.816406 C 63.628906 357.226562 63.578125 357.640625 63.542969 358.0625 C 63.527344 358.257812 63.519531 358.449219 63.511719 358.640625 C 63.507812 358.816406 63.488281 358.988281 63.488281 359.167969 L 63.488281 649.847656 L 48.144531 649.847656 L 48.144531 519.90625 C 48.144531 512.023438 41.761719 505.636719 33.890625 505.636719 C 26.015625 505.636719 19.636719 512.023438 19.636719 519.90625 L 19.636719 664.117188 C 19.636719 672 26.019531 678.386719 33.890625 678.386719 L 63.488281 678.386719 L 63.488281 699.007812 C 63.488281 722.914062 82.914062 742.363281 106.796875 742.363281 L 112.320312 742.363281 C 136.355469 742.363281 155.90625 722.789062 155.90625 698.730469 L 155.90625 359.167969 C 155.90625 358.988281 155.882812 358.816406 155.878906 358.644531 Z M 109.699219 324.546875 L 119.226562 344.898438 L 100.167969 344.898438 Z M 127.394531 698.730469 C 127.394531 707.050781 120.632812 713.824219 112.320312 713.824219 L 106.792969 713.824219 C 98.632812 713.824219 91.996094 707.179688 91.996094 699.011719 L 91.996094 678.386719 L 127.394531 678.386719 Z M 127.394531 649.847656 L 91.996094 649.847656 L 91.996094 373.4375 L 127.394531 373.4375 Z M 127.394531 649.847656 "/>
</g>
<path style=" stroke:none;fill-rule:nonzero;fill:rgb(50.19989%,78.819275%,100%);fill-opacity:1;" d="M 370.832031 361.828125 C 325.785156 361.828125 285.074219 333.40625 269.523438 291.101562 L 320.804688 272.210938 C 328.480469 293.097656 348.585938 307.128906 370.832031 307.128906 C 400.210938 307.128906 424.113281 283.199219 424.113281 253.789062 C 424.113281 228.558594 406.230469 206.578125 381.597656 201.53125 L 392.550781 147.941406 C 442.5 158.175781 478.753906 202.691406 478.753906 253.789062 C 478.757812 313.359375 430.34375 361.828125 370.832031 361.828125 Z M 370.832031 361.828125 "/>
<path style=" stroke:none;fill-rule:nonzero;fill:rgb(100%,72.158813%,16.079712%);fill-opacity:1;" d="M 315.90625 253.597656 L 261.261719 253.597656 C 261.261719 203.09375 297.007812 158.6875 346.261719 148.003906 L 357.832031 201.464844 C 333.539062 206.734375 315.90625 228.660156 315.90625 253.597656 Z M 315.90625 253.597656 "/>
<path style=" stroke:none;fill-rule:nonzero;fill:rgb(83.139038%,79.998779%,94.898987%);fill-opacity:1;" d="M 652.84375 193.761719 L 524.546875 193.761719 C 516.675781 193.761719 510.292969 187.375 510.292969 179.492188 C 510.292969 171.613281 516.679688 165.222656 524.546875 165.222656 L 652.84375 165.222656 C 660.714844 165.222656 667.09375 171.613281 667.09375 179.492188 C 667.097656 187.375 660.714844 193.761719 652.84375 193.761719 Z M 652.84375 193.761719 "/>
<path style=" stroke:none;fill-rule:nonzero;fill:rgb(83.139038%,79.998779%,94.898987%);fill-opacity:1;" d="M 652.84375 246.679688 L 524.546875 246.679688 C 516.675781 246.679688 510.292969 240.289062 510.292969 232.410156 C 510.292969 224.527344 516.679688 218.140625 524.546875 218.140625 L 652.84375 218.140625 C 660.714844 218.140625 667.09375 224.527344 667.09375 232.410156 C 667.097656 240.289062 660.714844 246.679688 652.84375 246.679688 Z M 652.84375 246.679688 "/>
<path style=" stroke:none;fill-rule:nonzero;fill:rgb(83.139038%,79.998779%,94.898987%);fill-opacity:1;" d="M 652.84375 299.59375 L 524.546875 299.59375 C 516.675781 299.59375 510.292969 293.207031 510.292969 285.324219 C 510.292969 277.445312 516.679688 271.054688 524.546875 271.054688 L 652.84375 271.054688 C 660.714844 271.054688 667.09375 277.445312 667.09375 285.324219 C 667.097656 293.207031 660.714844 299.59375 652.84375 299.59375 Z M 652.84375 299.59375 "/>
<path style=" stroke:none;fill-rule:nonzero;fill:rgb(100%,72.158813%,16.079712%);fill-opacity:1;" d="M 365.140625 551.253906 C 355.296875 551.253906 347.320312 559.234375 347.320312 569.089844 L 347.320312 648.53125 C 347.320312 658.386719 355.296875 666.371094 365.140625 666.371094 C 374.980469 666.371094 382.957031 658.386719 382.957031 648.53125 L 382.957031 569.089844 C 382.957031 559.238281 374.980469 551.253906 365.140625 551.253906 Z M 365.140625 551.253906 "/>
<path style=" stroke:none;fill-rule:nonzero;fill:rgb(100%,41.569519%,28.239441%);fill-opacity:1;" d="M 431.664062 494.078125 C 421.820312 494.078125 413.84375 502.058594 413.84375 511.914062 L 413.84375 648.53125 C 413.84375 658.386719 421.820312 666.371094 431.664062 666.371094 C 441.503906 666.371094 449.480469 658.386719 449.480469 648.53125 L 449.480469 511.914062 C 449.480469 502.0625 441.503906 494.078125 431.664062 494.078125 Z M 431.664062 494.078125 "/>
<path style=" stroke:none;fill-rule:nonzero;fill:rgb(100%,72.158813%,16.079712%);fill-opacity:1;" d="M 498.183594 542.195312 C 488.34375 542.195312 480.367188 550.179688 480.367188 560.03125 L 480.367188 648.535156 C 480.367188 658.386719 488.34375 666.371094 498.183594 666.371094 C 508.027344 666.371094 516.003906 658.386719 516.003906 648.535156 L 516.003906 560.03125 C 516.003906 550.179688 508.023438 542.195312 498.183594 542.195312 Z M 498.183594 542.195312 "/>
<path style=" stroke:none;fill-rule:nonzero;fill:rgb(100%,41.569519%,28.239441%);fill-opacity:1;" d="M 564.707031 467.464844 C 554.863281 467.464844 546.886719 475.449219 546.886719 485.304688 L 546.886719 648.535156 C 546.886719 658.386719 554.863281 666.371094 564.707031 666.371094 C 574.550781 666.371094 582.527344 658.386719 582.527344 648.535156 L 582.527344 485.304688 C 582.527344 475.449219 574.546875 467.464844 564.707031 467.464844 Z M 564.707031 467.464844 "/>
<path style=" stroke:none;fill-rule:nonzero;fill:rgb(30.589294%,21.179199%,59.999084%);fill-opacity:1;" d="M 607.105469 357.257812 C 604.253906 354.40625 600.152344 353.199219 596.214844 354.039062 L 530.671875 368.097656 C 526.417969 369.011719 523.003906 372.179688 521.765625 376.359375 C 520.53125 380.535156 521.683594 385.054688 524.761719 388.136719 L 540.671875 404.066406 L 485.699219 459.09375 L 440.578125 413.929688 C 435.015625 408.351562 425.984375 408.351562 420.421875 413.929688 L 321.058594 513.394531 C 315.492188 518.964844 315.492188 528 321.058594 533.574219 C 323.84375 536.359375 327.492188 537.753906 331.140625 537.753906 C 334.789062 537.753906 338.4375 536.359375 341.21875 533.574219 L 430.503906 444.195312 L 475.625 489.363281 C 481.1875 494.9375 490.21875 494.9375 495.78125 489.367188 L 560.835938 424.242188 L 576.261719 439.6875 C 578.523438 441.953125 581.558594 443.171875 584.664062 443.171875 C 585.785156 443.171875 586.921875 443.011719 588.027344 442.683594 C 592.203125 441.453125 595.363281 438.03125 596.277344 433.773438 L 610.320312 368.15625 C 611.164062 364.214844 609.953125 360.109375 607.105469 357.257812 Z M 607.105469 357.257812 "/>
<path style=" stroke:none;fill-rule:nonzero;fill:rgb(30.589294%,21.179199%,59.999084%);fill-opacity:1;" d="M 633.605469 642.476562 L 296.242188 642.476562 C 288.371094 642.476562 281.988281 648.863281 281.988281 656.742188 C 281.988281 664.625 288.371094 671.011719 296.242188 671.011719 L 633.605469 671.011719 C 641.476562 671.011719 647.859375 664.625 647.859375 656.742188 C 647.859375 648.863281 641.476562 642.476562 633.605469 642.476562 Z M 633.605469 642.476562 "/>
<path style=" stroke:none;fill-rule:nonzero;fill:rgb(30.589294%,21.179199%,59.999084%);fill-opacity:1;" d="M 775.730469 223.621094 C 767.859375 223.621094 761.480469 230.011719 761.480469 237.890625 L 761.480469 301.800781 C 761.480469 309.683594 767.863281 316.074219 775.730469 316.074219 C 783.605469 316.074219 789.984375 309.683594 789.984375 301.800781 L 789.984375 237.890625 C 789.984375 230.007812 783.605469 223.621094 775.730469 223.621094 Z M 775.730469 223.621094 "/>
<path style=" stroke:none;fill-rule:nonzero;fill:rgb(30.589294%,21.179199%,59.999084%);fill-opacity:1;" d="M 775.730469 336.335938 C 767.859375 336.335938 761.480469 342.726562 761.480469 350.605469 L 761.480469 374.121094 C 761.480469 382 767.863281 388.390625 775.730469 388.390625 C 783.605469 388.390625 789.984375 382 789.984375 374.121094 L 789.984375 350.605469 C 789.984375 342.726562 783.605469 336.335938 775.730469 336.335938 Z M 775.730469 336.335938 "/>
<path style=" stroke:none;fill-rule:nonzero;fill:rgb(30.589294%,21.179199%,59.999084%);fill-opacity:1;" d="M 775.730469 411.402344 C 767.859375 411.402344 761.480469 417.792969 761.480469 425.671875 L 761.480469 609.933594 C 761.480469 617.8125 767.863281 624.203125 775.730469 624.203125 C 783.605469 624.203125 789.984375 617.808594 789.984375 609.933594 L 789.984375 425.671875 C 789.984375 417.792969 783.605469 411.402344 775.730469 411.402344 Z M 775.730469 411.402344 "/>
</g>
</svg>
