<?xml version="1.0" encoding="UTF-8"?>
<svg xmlns="http://www.w3.org/2000/svg" xmlns:xlink="http://www.w3.org/1999/xlink" width="810pt" height="809.999993pt" viewBox="0 0 810 809.999993" version="1.2">
<defs>
<clipPath id="clip1">
  <path d="M 466 204 L 776.703125 204 L 776.703125 766 L 466 766 Z M 466 204 "/>
</clipPath>
<clipPath id="clip2">
  <path d="M 97 26.355469 L 688 26.355469 L 688 228 L 97 228 Z M 97 26.355469 "/>
</clipPath>
<clipPath id="clip3">
  <path d="M 33.453125 257 L 415 257 L 415 783.855469 L 33.453125 783.855469 Z M 33.453125 257 "/>
</clipPath>
</defs>
<g id="surface1">
<path style=" stroke:none;fill-rule:nonzero;fill:rgb(52.159119%,69.018555%,15.289307%);fill-opacity:1;" d="M 233.878906 305.855469 C 242.847656 347.648438 254.457031 395.625 278.917969 435.449219 C 303.730469 474.992188 341.574219 506.683594 375.085938 533.289062 C 395.285156 548.941406 413.160156 562.21875 424.003906 570.070312 C 419.285156 560.4375 413.175781 545.535156 409.371094 526.039062 C 407.941406 519.027344 406.265625 508.371094 405.765625 495.429688 C 399.453125 480.039062 391.59375 462.371094 382.296875 443.9375 C 377.664062 434.65625 372.546875 425.25 367.265625 415.742188 C 361.945312 406.261719 356.300781 396.761719 350.398438 387.4375 C 344.5625 378.066406 338.46875 368.847656 332.234375 359.941406 C 325.984375 351.046875 319.730469 342.347656 313.382812 334.132812 C 307.046875 325.925781 300.800781 318.066406 294.679688 310.765625 C 288.542969 303.46875 282.632812 296.640625 277.050781 290.4375 C 254.660156 265.691406 238.140625 250.355469 238.222656 250.292969 C 238.140625 250.355469 256.125 263.980469 279.835938 287.804688 C 285.753906 293.753906 292.046875 300.320312 298.449219 307.484375 C 304.871094 314.636719 311.5 322.304688 318.027344 330.492188 C 324.566406 338.667969 331.1875 347.230469 337.53125 356.199219 C 343.890625 365.160156 350.117188 374.433594 356.082031 383.867188 C 361.984375 393.339844 367.628906 402.972656 372.929688 412.589844 C 378.265625 422.199219 383.082031 431.890625 387.617188 441.332031 C 394.699219 456.214844 400.710938 470.640625 405.664062 483.835938 C 406.175781 458.710938 411.710938 427.542969 430.339844 397.847656 C 435.625 389.257812 441.503906 381.597656 447.714844 374.742188 C 443.34375 363.523438 437.816406 352.230469 430.84375 341.109375 L 430.824219 341.082031 C 390.191406 274.9375 322.179688 250.984375 294.824219 243.753906 C 258.59375 233.84375 230.910156 235.320312 221.039062 235.929688 C 222.421875 245.355469 227.203125 272.914062 233.878906 305.855469 "/>
<path style=" stroke:none;fill-rule:nonzero;fill:rgb(21.958923%,48.239136%,16.079712%);fill-opacity:1;" d="M 491.578125 433.144531 C 496.050781 426.078125 500.722656 419.128906 505.492188 412.410156 C 510.246094 405.679688 515.210938 399.265625 520.109375 393.128906 C 525.007812 386.992188 529.980469 381.246094 534.789062 375.878906 C 539.585938 370.515625 544.304688 365.589844 548.738281 361.125 C 566.511719 343.265625 580.007812 333.058594 579.945312 333.003906 C 580 333.058594 567.625 344.550781 550.832031 363.101562 C 546.644531 367.757812 542.21875 372.867188 537.621094 378.339844 C 533.03125 383.820312 528.351562 389.714844 523.585938 395.859375 C 518.835938 402.015625 514.144531 408.539062 509.453125 415.214844 C 504.785156 421.890625 500.222656 428.800781 495.839844 435.824219 C 491.414062 442.816406 487.179688 449.9375 483.203125 457.050781 C 479.242188 464.171875 475.40625 471.222656 471.929688 478.179688 C 464.925781 492.070312 459.015625 505.363281 454.273438 516.941406 C 444.855469 540.109375 439.882812 556.246094 439.8125 556.210938 C 439.882812 556.246094 443.21875 539.671875 451.566406 515.910156 C 455.730469 504.035156 461.191406 490.402344 467.941406 476.230469 C 471.335938 469.15625 474.953125 461.886719 478.949219 454.683594 C 482.929688 447.472656 487.152344 440.25 491.578125 433.144531 Z M 436.296875 401.527344 L 436.277344 401.554688 C 405.507812 450.585938 412.011719 503.988281 416.226562 524.671875 C 421.382812 551.074219 430.925781 568.730469 434.929688 575.761719 C 441.40625 571.226562 457.859375 559.160156 476.820312 544.460938 C 501.859375 524.589844 530.164062 500.882812 548.710938 471.332031 C 566.949219 441.625 575.636719 405.742188 582.347656 374.449219 C 587.101562 350.964844 590.625 330.871094 591.820312 323.058594 C 589.589844 322.921875 586.457031 322.777344 582.539062 322.777344 C 572.242188 322.777344 556.535156 323.816406 537.765625 328.941406 C 517.324219 334.34375 466.582031 352.210938 436.296875 401.527344 "/>
<g clip-path="url(#clip1)" clip-rule="nonzero">
<path style=" stroke:none;fill-rule:nonzero;fill:rgb(52.159119%,69.018555%,15.289307%);fill-opacity:1;" d="M 754.460938 270.410156 L 753.296875 267.214844 L 775.578125 258.363281 L 699.488281 204.429688 L 681.121094 295.875 L 705.445312 286.21875 L 706.675781 289.617188 C 719.210938 324.414062 725.578125 360.960938 725.578125 398.246094 C 725.578125 551.882812 616.777344 683.671875 466.445312 712.722656 L 466.445312 765.015625 C 643.796875 735.621094 777.027344 578.667969 777.027344 398.246094 C 777.027344 354.304688 769.433594 311.300781 754.460938 270.410156 "/>
</g>
<g clip-path="url(#clip2)" clip-rule="nonzero">
<path style=" stroke:none;fill-rule:nonzero;fill:rgb(52.159119%,69.018555%,15.289307%);fill-opacity:1;" d="M 97.972656 227.863281 L 186.691406 199.109375 L 167.539062 183.582031 L 170.074219 180.84375 C 230.554688 115.425781 316.289062 77.90625 405.28125 77.90625 C 495.960938 77.90625 582.511719 116.484375 643.242188 183.847656 L 687.285156 156.027344 C 616.46875 73.625 513.925781 26.449219 405.28125 26.449219 C 300.589844 26.449219 200.167969 71.011719 129.769531 148.703125 L 127.546875 151.164062 L 107.75 135.105469 L 97.972656 227.863281 "/>
</g>
<g clip-path="url(#clip3)" clip-rule="nonzero">
<path style=" stroke:none;fill-rule:nonzero;fill:rgb(52.159119%,69.018555%,15.289307%);fill-opacity:1;" d="M 339.65625 711.832031 C 268.691406 697.050781 204.101562 657.898438 157.789062 601.589844 C 110.835938 544.507812 84.976562 472.289062 84.976562 398.246094 C 84.976562 359.433594 91.851562 321.511719 105.410156 285.484375 L 61.089844 257.488281 C 42.804688 302.167969 33.527344 349.496094 33.527344 398.246094 C 33.527344 573.105469 157.535156 726.101562 328.382812 762.039062 L 331.839844 762.769531 L 327.050781 784.269531 L 414.433594 751.667969 L 349.152344 685.058594 L 343.03125 712.535156 L 339.65625 711.832031 "/>
</g>
</g>
</svg>
