<?xml version="1.0" encoding="UTF-8"?>
<svg xmlns="http://www.w3.org/2000/svg" xmlns:xlink="http://www.w3.org/1999/xlink" width="810pt" height="809.999993pt" viewBox="0 0 810 809.999993" version="1.2">
<defs>
<clipPath id="clip1">
  <path d="M 12.730469 501 L 71 501 L 71 560 L 12.730469 560 Z M 12.730469 501 "/>
</clipPath>
<clipPath id="clip2">
  <path d="M 768 617 L 797.195312 617 L 797.195312 647 L 768 647 Z M 768 617 "/>
</clipPath>
</defs>
<g id="surface1">
<path style=" stroke:none;fill-rule:nonzero;fill:rgb(0%,44.709778%,100%);fill-opacity:1;" d="M 653.523438 386.949219 L 464.667969 43.820312 C 463.558594 41.796875 462.320312 39.859375 460.949219 38.003906 C 459.582031 36.152344 458.09375 34.394531 456.488281 32.738281 C 454.886719 31.082031 453.175781 29.542969 451.367188 28.113281 C 449.558594 26.6875 447.660156 25.386719 445.675781 24.210938 C 443.691406 23.039062 441.636719 22 439.515625 21.101562 C 437.390625 20.203125 435.21875 19.449219 432.992188 18.839844 C 430.769531 18.234375 428.515625 17.773438 426.230469 17.46875 C 423.945312 17.160156 421.648438 17.007812 419.34375 17.007812 C 417.039062 17.007812 414.742188 17.160156 412.457031 17.46875 C 410.171875 17.773438 407.917969 18.234375 405.695312 18.839844 C 403.472656 19.449219 401.296875 20.203125 399.175781 21.101562 C 397.050781 22 395 23.039062 393.015625 24.210938 C 391.03125 25.386719 389.132812 26.6875 387.320312 28.113281 C 385.511719 29.542969 383.804688 31.082031 382.199219 32.738281 C 380.597656 34.394531 379.109375 36.152344 377.738281 38.003906 C 376.371094 39.859375 375.128906 41.796875 374.019531 43.820312 C 371.691406 48.152344 369.570312 52.589844 367.667969 57.128906 C 365.761719 61.667969 364.078125 66.285156 362.617188 70.988281 C 361.152344 75.6875 359.921875 80.445312 358.914062 85.261719 C 357.910156 90.082031 357.136719 94.9375 356.597656 99.828125 C 356.054688 104.722656 355.75 109.628906 355.679688 114.550781 C 355.613281 119.472656 355.777344 124.386719 356.179688 129.289062 C 356.582031 134.195312 357.214844 139.070312 358.085938 143.917969 C 358.953125 148.761719 360.054688 153.554688 361.382812 158.292969 C 367.503906 182.117188 370.457031 206.328125 370.242188 230.929688 C 370.242188 308.503906 342.207031 371.40625 307.632812 371.40625 C 285.113281 371.40625 265.503906 344.820312 254.460938 305.015625 C 254.164062 303.84375 253.703125 302.742188 253.078125 301.710938 C 252.449219 300.679688 251.683594 299.761719 250.78125 298.960938 C 249.878906 298.15625 248.878906 297.503906 247.78125 297.003906 C 246.679688 296.5 245.53125 296.171875 244.335938 296.015625 C 243.136719 295.859375 241.941406 295.882812 240.753906 296.085938 C 239.5625 296.289062 238.425781 296.660156 237.347656 297.203125 C 236.269531 297.746094 235.292969 298.4375 234.421875 299.273438 C 233.550781 300.109375 232.824219 301.054688 232.234375 302.109375 L 185.457031 386.804688 C 183.726562 389.871094 182.054688 392.972656 180.445312 396.105469 C 178.832031 399.238281 177.28125 402.398438 175.792969 405.589844 C 174.300781 408.78125 172.871094 412 171.503906 415.246094 C 170.136719 418.492188 168.832031 421.765625 167.589844 425.0625 C 166.347656 428.359375 165.171875 431.675781 164.054688 435.019531 C 162.941406 438.359375 161.890625 441.722656 160.902344 445.101562 C 159.917969 448.484375 158.996094 451.882812 158.140625 455.300781 C 157.285156 458.71875 156.492188 462.148438 155.769531 465.597656 C 155.042969 469.042969 154.386719 472.503906 153.792969 475.976562 C 153.199219 479.449219 152.675781 482.929688 152.214844 486.421875 C 151.757812 489.917969 151.363281 493.417969 151.039062 496.921875 C 150.714844 500.429688 150.457031 503.945312 150.265625 507.460938 C 150.078125 510.980469 149.953125 514.5 149.898438 518.019531 C 149.84375 521.542969 149.855469 525.0625 149.933594 528.585938 C 150.011719 532.109375 150.160156 535.625 150.371094 539.144531 C 150.585938 542.660156 150.867188 546.167969 151.214844 549.675781 C 151.5625 553.179688 151.980469 556.675781 152.460938 560.167969 C 152.945312 563.65625 153.492188 567.136719 154.109375 570.601562 C 154.722656 574.070312 155.40625 577.527344 156.152344 580.96875 C 156.898438 584.410156 157.714844 587.839844 158.59375 591.25 C 159.472656 594.660156 160.414062 598.054688 161.421875 601.429688 C 162.433594 604.804688 163.503906 608.160156 164.640625 611.492188 C 165.78125 614.828125 166.980469 618.136719 168.242188 621.425781 C 169.507812 624.714844 170.835938 627.976562 172.222656 631.210938 C 173.613281 634.449219 175.0625 637.660156 176.574219 640.839844 C 178.085938 644.023438 179.65625 647.175781 181.289062 650.296875 C 182.921875 653.417969 184.613281 656.507812 186.363281 659.5625 C 188.117188 662.621094 189.925781 665.640625 191.789062 668.628906 C 193.65625 671.617188 195.582031 674.566406 197.558594 677.480469 C 199.539062 680.394531 201.574219 683.269531 203.664062 686.105469 C 205.753906 688.941406 207.894531 691.738281 210.089844 694.492188 C 212.289062 697.246094 214.535156 699.957031 216.835938 702.625 C 220.007812 706.210938 223.269531 709.710938 226.628906 713.125 C 229.984375 716.542969 233.429688 719.863281 236.960938 723.09375 C 240.496094 726.324219 244.113281 729.460938 247.8125 732.5 C 251.511719 735.539062 255.292969 738.476562 259.148438 741.3125 C 263.003906 744.152344 266.933594 746.886719 270.9375 749.515625 C 274.9375 752.144531 279.007812 754.664062 283.144531 757.074219 C 287.277344 759.488281 291.476562 761.789062 295.734375 763.976562 C 299.992188 766.167969 304.304688 768.242188 308.675781 770.199219 C 313.042969 772.160156 317.460938 774.003906 321.929688 775.726562 C 326.394531 777.453125 330.902344 779.058594 335.457031 780.542969 C 340.007812 782.027344 344.597656 783.390625 349.21875 784.628906 C 353.84375 785.871094 358.5 786.988281 363.183594 787.980469 C 367.867188 788.972656 372.574219 789.84375 377.304688 790.585938 C 382.035156 791.328125 386.78125 791.945312 391.542969 792.433594 C 396.304688 792.925781 401.078125 793.289062 405.859375 793.527344 C 410.644531 793.761719 415.429688 793.871094 420.214844 793.855469 C 415.984375 793.855469 411.765625 793.621094 407.558594 793.160156 C 403.351562 792.699219 399.183594 792.011719 395.050781 791.097656 C 390.921875 790.179688 386.851562 789.039062 382.84375 787.679688 C 378.839844 786.320312 374.917969 784.746094 371.082031 782.957031 C 367.25 781.164062 363.523438 779.171875 359.90625 776.976562 C 356.289062 774.78125 352.800781 772.394531 349.445312 769.816406 C 346.089844 767.242188 342.882812 764.488281 339.828125 761.5625 C 336.769531 758.632812 333.882812 755.550781 331.164062 752.304688 C 329.261719 749.996094 327.449219 747.621094 325.726562 745.171875 C 324.003906 742.726562 322.375 740.222656 320.839844 737.652344 C 319.304688 735.085938 317.871094 732.460938 316.53125 729.785156 C 315.195312 727.109375 313.960938 724.386719 312.828125 721.617188 C 311.695312 718.847656 310.667969 716.039062 309.75 713.191406 C 308.828125 710.347656 308.015625 707.46875 307.308594 704.5625 C 306.605469 701.652344 306.011719 698.722656 305.527344 695.769531 C 305.042969 692.820312 304.671875 689.851562 304.410156 686.871094 C 304.148438 683.890625 304 680.90625 303.964844 677.914062 C 303.929688 674.921875 304.003906 671.933594 304.195312 668.945312 C 304.382812 665.960938 304.683594 662.984375 305.097656 660.023438 C 305.511719 657.058594 306.035156 654.117188 306.667969 651.191406 C 307.300781 648.269531 308.046875 645.371094 308.898438 642.503906 C 309.75 639.636719 310.707031 636.804688 311.773438 634.007812 C 312.839844 631.214844 314.007812 628.460938 315.28125 625.753906 C 316.554688 623.046875 317.925781 620.390625 319.398438 617.785156 L 413.679688 446.945312 C 413.964844 446.414062 414.316406 445.929688 414.734375 445.496094 C 415.152344 445.058594 415.617188 444.6875 416.136719 444.378906 C 416.652344 444.066406 417.203125 443.832031 417.785156 443.671875 C 418.367188 443.511719 418.960938 443.433594 419.5625 443.433594 C 420.164062 443.433594 420.757812 443.511719 421.339844 443.671875 C 421.921875 443.832031 422.472656 444.066406 422.988281 444.378906 C 423.507812 444.6875 423.972656 445.058594 424.390625 445.496094 C 424.808594 445.929688 425.160156 446.414062 425.445312 446.945312 L 439.972656 472.222656 C 441.941406 475.9375 443.535156 479.808594 444.757812 483.832031 C 445.980469 487.851562 446.8125 491.953125 447.246094 496.136719 C 447.683594 500.316406 447.714844 504.503906 447.347656 508.691406 C 446.980469 512.878906 446.214844 516.992188 445.058594 521.035156 C 442.476562 531.136719 441.214844 541.402344 441.28125 551.832031 C 441.28125 585.097656 453.339844 612.121094 468.15625 612.121094 C 477.742188 612.121094 486.316406 600.789062 490.964844 583.066406 C 491.09375 582.5625 491.292969 582.089844 491.566406 581.648438 C 491.835938 581.207031 492.164062 580.8125 492.550781 580.46875 C 492.941406 580.125 493.371094 579.84375 493.839844 579.625 C 494.3125 579.410156 494.804688 579.265625 495.320312 579.195312 C 495.832031 579.125 496.347656 579.132812 496.859375 579.214844 C 497.371094 579.296875 497.859375 579.453125 498.324219 579.679688 C 498.789062 579.910156 499.214844 580.199219 499.59375 580.554688 C 499.972656 580.90625 500.292969 581.308594 500.550781 581.757812 L 520.742188 618.367188 C 522.238281 621.019531 523.628906 623.722656 524.914062 626.484375 C 526.199219 629.242188 527.378906 632.046875 528.445312 634.898438 C 529.515625 637.75 530.476562 640.636719 531.320312 643.558594 C 532.167969 646.484375 532.902344 649.4375 533.523438 652.417969 C 534.140625 655.398438 534.644531 658.398438 535.035156 661.417969 C 535.421875 664.4375 535.695312 667.46875 535.851562 670.507812 C 536.003906 673.546875 536.042969 676.589844 535.964844 679.632812 C 535.882812 682.675781 535.6875 685.710938 535.375 688.738281 C 535.0625 691.769531 534.632812 694.78125 534.085938 697.773438 C 533.542969 700.769531 532.882812 703.738281 532.109375 706.683594 C 531.335938 709.628906 530.449219 712.539062 529.449219 715.414062 C 528.453125 718.289062 527.34375 721.125 526.128906 723.914062 C 524.910156 726.707031 523.589844 729.445312 522.164062 732.132812 C 520.734375 734.824219 519.207031 737.453125 517.574219 740.023438 C 515.945312 742.59375 514.21875 745.101562 512.394531 747.539062 C 510.570312 749.976562 508.65625 752.339844 506.652344 754.628906 C 504.261719 757.324219 501.753906 759.902344 499.125 762.363281 C 496.496094 764.824219 493.757812 767.160156 490.910156 769.363281 C 488.066406 771.570312 485.121094 773.640625 482.082031 775.574219 C 479.042969 777.507812 475.921875 779.296875 472.71875 780.9375 C 469.511719 782.582031 466.238281 784.070312 462.894531 785.410156 C 459.550781 786.746094 456.152344 787.929688 452.699219 788.949219 C 449.246094 789.972656 445.753906 790.832031 442.222656 791.53125 C 438.6875 792.226562 435.128906 792.761719 431.546875 793.128906 C 436.175781 792.9375 440.796875 792.628906 445.40625 792.203125 C 450.019531 791.773438 454.617188 791.226562 459.199219 790.5625 C 463.785156 789.898438 468.347656 789.117188 472.890625 788.21875 C 477.433594 787.316406 481.953125 786.300781 486.441406 785.167969 C 490.933594 784.035156 495.390625 782.789062 499.820312 781.425781 C 504.246094 780.0625 508.632812 778.589844 512.984375 777 C 517.335938 775.410156 521.644531 773.710938 525.90625 771.902344 C 530.167969 770.089844 534.382812 768.171875 538.546875 766.144531 C 542.710938 764.117188 546.820312 761.984375 550.875 759.742188 C 554.929688 757.503906 558.921875 755.164062 562.855469 752.71875 C 566.789062 750.273438 570.65625 747.726562 574.460938 745.082031 C 578.261719 742.4375 581.996094 739.695312 585.65625 736.859375 C 589.316406 734.023438 592.902344 731.09375 596.414062 728.074219 C 599.921875 725.050781 603.351562 721.941406 606.703125 718.742188 C 610.054688 715.542969 613.316406 712.261719 616.5 708.894531 C 619.679688 705.527344 622.773438 702.082031 625.773438 698.554688 C 627.984375 695.886719 630.140625 693.175781 632.25 690.425781 C 634.355469 687.675781 636.410156 684.886719 638.414062 682.058594 C 640.414062 679.230469 642.363281 676.363281 644.257812 673.464844 C 646.152344 670.5625 647.988281 667.625 649.773438 664.65625 C 651.558594 661.683594 653.285156 658.679688 654.953125 655.644531 C 656.625 652.609375 658.238281 649.542969 659.792969 646.445312 C 661.347656 643.351562 662.84375 640.226562 664.28125 637.074219 C 665.71875 633.917969 667.09375 630.742188 668.414062 627.535156 C 669.730469 624.332031 670.988281 621.101562 672.183594 617.851562 C 673.378906 614.597656 674.511719 611.324219 675.585938 608.03125 C 676.660156 604.734375 677.667969 601.421875 678.617188 598.089844 C 679.566406 594.757812 680.449219 591.40625 681.273438 588.039062 C 682.09375 584.675781 682.851562 581.292969 683.546875 577.898438 C 684.242188 574.503906 684.871094 571.097656 685.4375 567.679688 C 686.003906 564.261719 686.503906 560.832031 686.941406 557.394531 C 687.378906 553.957031 687.75 550.515625 688.058594 547.0625 C 688.363281 543.613281 688.609375 540.15625 688.785156 536.695312 C 688.960938 533.234375 689.074219 529.773438 689.121094 526.308594 C 689.167969 522.84375 689.148438 519.378906 689.066406 515.914062 C 688.980469 512.449219 688.832031 508.988281 688.617188 505.53125 C 688.40625 502.074219 688.125 498.621094 687.78125 495.171875 C 687.4375 491.722656 687.027344 488.285156 686.554688 484.851562 C 686.082031 481.417969 685.542969 477.996094 684.941406 474.585938 C 684.335938 471.171875 683.671875 467.773438 682.941406 464.386719 C 682.210938 461 681.414062 457.625 680.558594 454.269531 C 679.699219 450.910156 678.78125 447.570312 677.796875 444.25 C 676.8125 440.925781 675.769531 437.625 674.660156 434.339844 C 673.550781 431.058594 672.382812 427.796875 671.152344 424.558594 C 669.921875 421.316406 668.632812 418.101562 667.28125 414.914062 C 665.929688 411.722656 664.515625 408.558594 663.046875 405.421875 C 661.574219 402.285156 660.046875 399.175781 658.457031 396.09375 C 656.871094 393.015625 655.222656 389.96875 653.523438 386.949219 Z M 653.523438 386.949219 "/>
<g clip-path="url(#clip1)" clip-rule="nonzero">
<path style=" stroke:none;fill-rule:nonzero;fill:rgb(0%,44.709778%,100%);fill-opacity:1;" d="M 70.839844 530.621094 C 70.839844 531.574219 70.792969 532.523438 70.699219 533.46875 C 70.605469 534.417969 70.464844 535.355469 70.28125 536.289062 C 70.09375 537.222656 69.863281 538.144531 69.585938 539.054688 C 69.3125 539.96875 68.992188 540.863281 68.628906 541.742188 C 68.261719 542.621094 67.855469 543.480469 67.40625 544.320312 C 66.960938 545.15625 66.472656 545.972656 65.941406 546.765625 C 65.414062 547.554688 64.847656 548.320312 64.242188 549.054688 C 63.640625 549.789062 63 550.492188 62.328125 551.167969 C 61.65625 551.839844 60.953125 552.476562 60.214844 553.082031 C 59.480469 553.683594 58.71875 554.25 57.925781 554.78125 C 57.136719 555.308594 56.320312 555.796875 55.480469 556.246094 C 54.640625 556.695312 53.78125 557.101562 52.902344 557.464844 C 52.023438 557.828125 51.128906 558.148438 50.21875 558.425781 C 49.308594 558.703125 48.386719 558.933594 47.453125 559.117188 C 46.519531 559.304688 45.578125 559.445312 44.632812 559.535156 C 43.683594 559.628906 42.734375 559.675781 41.785156 559.675781 C 40.832031 559.675781 39.882812 559.628906 38.9375 559.535156 C 37.988281 559.445312 37.050781 559.304688 36.117188 559.117188 C 35.183594 558.933594 34.261719 558.703125 33.351562 558.425781 C 32.441406 558.148438 31.546875 557.828125 30.667969 557.464844 C 29.785156 557.101562 28.929688 556.695312 28.089844 556.246094 C 27.25 555.796875 26.433594 555.308594 25.644531 554.78125 C 24.851562 554.25 24.089844 553.683594 23.351562 553.082031 C 22.617188 552.476562 21.914062 551.839844 21.238281 551.167969 C 20.566406 550.492188 19.929688 549.789062 19.324219 549.054688 C 18.722656 548.320312 18.15625 547.554688 17.625 546.765625 C 17.097656 545.972656 16.609375 545.15625 16.160156 544.320312 C 15.710938 543.480469 15.304688 542.621094 14.941406 541.742188 C 14.578125 540.863281 14.257812 539.96875 13.980469 539.054688 C 13.707031 538.144531 13.472656 537.222656 13.289062 536.289062 C 13.101562 535.355469 12.964844 534.417969 12.871094 533.46875 C 12.777344 532.523438 12.730469 531.574219 12.730469 530.621094 C 12.730469 529.671875 12.777344 528.722656 12.871094 527.773438 C 12.964844 526.828125 13.101562 525.886719 13.289062 524.953125 C 13.472656 524.019531 13.707031 523.097656 13.980469 522.1875 C 14.257812 521.277344 14.578125 520.382812 14.941406 519.503906 C 15.304688 518.625 15.710938 517.765625 16.160156 516.925781 C 16.609375 516.085938 17.097656 515.273438 17.625 514.480469 C 18.15625 513.691406 18.722656 512.925781 19.324219 512.191406 C 19.929688 511.453125 20.566406 510.75 21.238281 510.078125 C 21.914062 509.40625 22.617188 508.765625 23.351562 508.164062 C 24.089844 507.558594 24.851562 506.992188 25.644531 506.464844 C 26.433594 505.9375 27.25 505.449219 28.089844 505 C 28.929688 504.550781 29.785156 504.144531 30.667969 503.78125 C 31.546875 503.414062 32.441406 503.09375 33.351562 502.820312 C 34.261719 502.542969 35.183594 502.3125 36.117188 502.125 C 37.050781 501.941406 37.988281 501.800781 38.9375 501.707031 C 39.882812 501.613281 40.832031 501.566406 41.785156 501.566406 C 42.734375 501.566406 43.683594 501.613281 44.632812 501.707031 C 45.578125 501.800781 46.519531 501.941406 47.453125 502.125 C 48.386719 502.3125 49.308594 502.542969 50.21875 502.820312 C 51.128906 503.09375 52.023438 503.414062 52.902344 503.78125 C 53.78125 504.144531 54.640625 504.550781 55.480469 505 C 56.320312 505.449219 57.136719 505.9375 57.925781 506.464844 C 58.71875 506.992188 59.480469 507.558594 60.214844 508.164062 C 60.953125 508.765625 61.65625 509.40625 62.328125 510.078125 C 63 510.75 63.640625 511.453125 64.242188 512.191406 C 64.847656 512.925781 65.414062 513.691406 65.941406 514.480469 C 66.472656 515.273438 66.960938 516.085938 67.40625 516.925781 C 67.855469 517.765625 68.261719 518.625 68.628906 519.503906 C 68.992188 520.382812 69.3125 521.277344 69.585938 522.1875 C 69.863281 523.097656 70.09375 524.019531 70.28125 524.953125 C 70.464844 525.886719 70.605469 526.828125 70.699219 527.773438 C 70.792969 528.722656 70.839844 529.671875 70.839844 530.621094 Z M 70.839844 530.621094 "/>
</g>
<path style=" stroke:none;fill-rule:nonzero;fill:rgb(0%,44.709778%,100%);fill-opacity:1;" d="M 768.140625 704.949219 C 768.140625 705.898438 768.09375 706.847656 768 707.796875 C 767.90625 708.742188 767.769531 709.683594 767.582031 710.617188 C 767.398438 711.550781 767.164062 712.472656 766.890625 713.382812 C 766.613281 714.292969 766.292969 715.1875 765.929688 716.066406 C 765.566406 716.945312 765.160156 717.804688 764.710938 718.644531 C 764.261719 719.484375 763.773438 720.296875 763.246094 721.089844 C 762.714844 721.878906 762.148438 722.644531 761.546875 723.378906 C 760.941406 724.117188 760.304688 724.820312 759.632812 725.492188 C 758.957031 726.164062 758.253906 726.804688 757.519531 727.40625 C 756.78125 728.011719 756.019531 728.578125 755.226562 729.105469 C 754.4375 729.632812 753.621094 730.121094 752.78125 730.570312 C 751.945312 731.019531 751.085938 731.425781 750.207031 731.789062 C 749.324219 732.15625 748.429688 732.476562 747.519531 732.75 C 746.609375 733.027344 745.6875 733.257812 744.753906 733.445312 C 743.820312 733.628906 742.882812 733.769531 741.933594 733.863281 C 740.988281 733.957031 740.039062 734.003906 739.085938 734.003906 C 738.136719 734.003906 737.1875 733.957031 736.238281 733.863281 C 735.292969 733.769531 734.351562 733.628906 733.417969 733.445312 C 732.484375 733.257812 731.5625 733.027344 730.652344 732.75 C 729.742188 732.476562 728.847656 732.15625 727.96875 731.789062 C 727.089844 731.425781 726.230469 731.019531 725.390625 730.570312 C 724.550781 730.121094 723.734375 729.632812 722.945312 729.105469 C 722.152344 728.578125 721.390625 728.011719 720.65625 727.40625 C 719.917969 726.804688 719.214844 726.164062 718.542969 725.492188 C 717.871094 724.820312 717.230469 724.117188 716.628906 723.378906 C 716.023438 722.644531 715.457031 721.878906 714.929688 721.089844 C 714.398438 720.296875 713.910156 719.484375 713.464844 718.644531 C 713.015625 717.804688 712.609375 716.945312 712.242188 716.066406 C 711.878906 715.1875 711.558594 714.292969 711.285156 713.382812 C 711.007812 712.472656 710.777344 711.550781 710.589844 710.617188 C 710.40625 709.683594 710.265625 708.742188 710.171875 707.796875 C 710.078125 706.847656 710.03125 705.898438 710.03125 704.949219 C 710.03125 703.996094 710.078125 703.046875 710.171875 702.101562 C 710.265625 701.152344 710.40625 700.214844 710.589844 699.28125 C 710.777344 698.347656 711.007812 697.425781 711.285156 696.515625 C 711.558594 695.601562 711.878906 694.707031 712.242188 693.828125 C 712.609375 692.949219 713.015625 692.089844 713.464844 691.25 C 713.910156 690.414062 714.398438 689.597656 714.929688 688.804688 C 715.457031 688.015625 716.023438 687.25 716.628906 686.515625 C 717.230469 685.78125 717.871094 685.078125 718.542969 684.402344 C 719.214844 683.730469 719.917969 683.09375 720.65625 682.488281 C 721.390625 681.886719 722.152344 681.320312 722.945312 680.789062 C 723.734375 680.261719 724.550781 679.773438 725.390625 679.324219 C 726.230469 678.875 727.089844 678.46875 727.96875 678.105469 C 728.847656 677.742188 729.742188 677.421875 730.652344 677.144531 C 731.5625 676.867188 732.484375 676.636719 733.417969 676.453125 C 734.351562 676.265625 735.292969 676.125 736.238281 676.035156 C 737.1875 675.941406 738.136719 675.894531 739.085938 675.894531 C 740.039062 675.894531 740.988281 675.941406 741.933594 676.035156 C 742.882812 676.125 743.820312 676.265625 744.753906 676.453125 C 745.6875 676.636719 746.609375 676.867188 747.519531 677.144531 C 748.429688 677.421875 749.324219 677.742188 750.207031 678.105469 C 751.085938 678.46875 751.945312 678.875 752.78125 679.324219 C 753.621094 679.773438 754.4375 680.261719 755.226562 680.789062 C 756.019531 681.320312 756.78125 681.886719 757.519531 682.488281 C 758.253906 683.09375 758.957031 683.730469 759.632812 684.402344 C 760.304688 685.078125 760.941406 685.78125 761.546875 686.515625 C 762.148438 687.25 762.714844 688.015625 763.246094 688.804688 C 763.773438 689.597656 764.261719 690.414062 764.710938 691.25 C 765.160156 692.089844 765.566406 692.949219 765.929688 693.828125 C 766.292969 694.707031 766.613281 695.601562 766.890625 696.515625 C 767.164062 697.425781 767.398438 698.347656 767.582031 699.28125 C 767.769531 700.214844 767.90625 701.152344 768 702.101562 C 768.09375 703.046875 768.140625 703.996094 768.140625 704.949219 Z M 768.140625 704.949219 "/>
<path style=" stroke:none;fill-rule:nonzero;fill:rgb(0%,44.709778%,100%);fill-opacity:1;" d="M 128.949219 457.988281 C 128.949219 458.941406 128.855469 459.886719 128.667969 460.820312 C 128.480469 461.757812 128.207031 462.664062 127.839844 463.546875 C 127.476562 464.425781 127.027344 465.265625 126.5 466.058594 C 125.96875 466.851562 125.367188 467.585938 124.691406 468.257812 C 124.019531 468.933594 123.285156 469.535156 122.492188 470.066406 C 121.699219 470.59375 120.859375 471.042969 119.980469 471.40625 C 119.097656 471.773438 118.191406 472.046875 117.253906 472.234375 C 116.320312 472.421875 115.375 472.515625 114.421875 472.515625 C 113.464844 472.515625 112.523438 472.421875 111.585938 472.234375 C 110.652344 472.046875 109.742188 471.773438 108.859375 471.40625 C 107.980469 471.042969 107.140625 470.59375 106.347656 470.066406 C 105.554688 469.535156 104.824219 468.933594 104.148438 468.257812 C 103.472656 467.585938 102.871094 466.851562 102.339844 466.058594 C 101.8125 465.265625 101.363281 464.425781 101 463.546875 C 100.632812 462.664062 100.359375 461.757812 100.171875 460.820312 C 99.984375 459.886719 99.894531 458.941406 99.894531 457.988281 C 99.894531 457.03125 99.984375 456.089844 100.171875 455.152344 C 100.359375 454.21875 100.632812 453.308594 101 452.425781 C 101.363281 451.546875 101.8125 450.707031 102.339844 449.914062 C 102.871094 449.121094 103.472656 448.390625 104.148438 447.714844 C 104.824219 447.039062 105.554688 446.4375 106.347656 445.90625 C 107.140625 445.378906 107.980469 444.929688 108.859375 444.566406 C 109.742188 444.199219 110.652344 443.925781 111.585938 443.738281 C 112.523438 443.550781 113.464844 443.460938 114.421875 443.460938 C 115.375 443.460938 116.320312 443.550781 117.253906 443.738281 C 118.191406 443.925781 119.097656 444.199219 119.980469 444.566406 C 120.859375 444.929688 121.699219 445.378906 122.492188 445.90625 C 123.285156 446.4375 124.019531 447.039062 124.691406 447.714844 C 125.367188 448.390625 125.96875 449.121094 126.5 449.914062 C 127.027344 450.707031 127.476562 451.546875 127.839844 452.425781 C 128.207031 453.308594 128.480469 454.21875 128.667969 455.152344 C 128.855469 456.089844 128.949219 457.03125 128.949219 457.988281 Z M 128.949219 457.988281 "/>
<path style=" stroke:none;fill-rule:nonzero;fill:rgb(0%,44.709778%,100%);fill-opacity:1;" d="M 99.894531 603.257812 C 99.894531 604.210938 99.800781 605.15625 99.613281 606.09375 C 99.429688 607.027344 99.152344 607.9375 98.789062 608.816406 C 98.421875 609.699219 97.976562 610.535156 97.445312 611.328125 C 96.914062 612.121094 96.3125 612.855469 95.636719 613.53125 C 94.964844 614.203125 94.230469 614.808594 93.4375 615.335938 C 92.644531 615.867188 91.804688 616.3125 90.925781 616.679688 C 90.042969 617.042969 89.136719 617.320312 88.199219 617.507812 C 87.265625 617.691406 86.320312 617.785156 85.367188 617.785156 C 84.414062 617.785156 83.46875 617.691406 82.53125 617.507812 C 81.597656 617.320312 80.6875 617.042969 79.808594 616.679688 C 78.925781 616.3125 78.089844 615.867188 77.296875 615.335938 C 76.503906 614.808594 75.769531 614.203125 75.09375 613.53125 C 74.417969 612.855469 73.816406 612.121094 73.289062 611.328125 C 72.757812 610.535156 72.308594 609.699219 71.945312 608.816406 C 71.578125 607.9375 71.304688 607.027344 71.117188 606.09375 C 70.933594 605.15625 70.839844 604.210938 70.839844 603.257812 C 70.839844 602.304688 70.933594 601.359375 71.117188 600.425781 C 71.304688 599.488281 71.578125 598.578125 71.945312 597.699219 C 72.308594 596.816406 72.757812 595.980469 73.289062 595.1875 C 73.816406 594.394531 74.417969 593.660156 75.09375 592.984375 C 75.769531 592.3125 76.503906 591.710938 77.296875 591.179688 C 78.089844 590.648438 78.925781 590.203125 79.808594 589.835938 C 80.6875 589.472656 81.597656 589.195312 82.53125 589.011719 C 83.46875 588.824219 84.414062 588.730469 85.367188 588.730469 C 86.320312 588.730469 87.265625 588.824219 88.199219 589.011719 C 89.136719 589.195312 90.042969 589.472656 90.925781 589.835938 C 91.804688 590.203125 92.644531 590.648438 93.4375 591.179688 C 94.230469 591.710938 94.964844 592.3125 95.636719 592.984375 C 96.3125 593.660156 96.914062 594.394531 97.445312 595.1875 C 97.976562 595.980469 98.421875 596.816406 98.789062 597.699219 C 99.152344 598.578125 99.429688 599.488281 99.613281 600.425781 C 99.800781 601.359375 99.894531 602.304688 99.894531 603.257812 Z M 99.894531 603.257812 "/>
<path style=" stroke:none;fill-rule:nonzero;fill:rgb(0%,44.709778%,100%);fill-opacity:1;" d="M 768.140625 516.09375 C 768.140625 517.050781 768.046875 517.992188 767.863281 518.929688 C 767.675781 519.863281 767.398438 520.773438 767.035156 521.65625 C 766.671875 522.535156 766.222656 523.371094 765.691406 524.167969 C 765.164062 524.960938 764.558594 525.691406 763.886719 526.367188 C 763.210938 527.042969 762.476562 527.644531 761.683594 528.175781 C 760.890625 528.703125 760.054688 529.152344 759.171875 529.515625 C 758.292969 529.882812 757.382812 530.15625 756.449219 530.34375 C 755.511719 530.53125 754.566406 530.621094 753.613281 530.621094 C 752.660156 530.621094 751.714844 530.53125 750.78125 530.34375 C 749.84375 530.15625 748.9375 529.882812 748.054688 529.515625 C 747.171875 529.152344 746.335938 528.703125 745.542969 528.175781 C 744.75 527.644531 744.015625 527.042969 743.339844 526.367188 C 742.667969 525.691406 742.066406 524.960938 741.535156 524.164062 C 741.003906 523.371094 740.558594 522.535156 740.191406 521.65625 C 739.828125 520.773438 739.550781 519.863281 739.367188 518.929688 C 739.179688 517.992188 739.085938 517.050781 739.085938 516.09375 C 739.085938 515.140625 739.179688 514.195312 739.367188 513.261719 C 739.550781 512.324219 739.828125 511.417969 740.191406 510.535156 C 740.558594 509.65625 741.003906 508.816406 741.535156 508.023438 C 742.066406 507.230469 742.667969 506.496094 743.339844 505.824219 C 744.015625 505.148438 744.75 504.546875 745.542969 504.015625 C 746.335938 503.488281 747.171875 503.039062 748.054688 502.675781 C 748.9375 502.308594 749.84375 502.035156 750.78125 501.847656 C 751.714844 501.660156 752.660156 501.566406 753.613281 501.566406 C 754.566406 501.566406 755.511719 501.660156 756.449219 501.847656 C 757.382812 502.035156 758.292969 502.308594 759.171875 502.675781 C 760.054688 503.039062 760.890625 503.488281 761.683594 504.015625 C 762.476562 504.546875 763.210938 505.148438 763.886719 505.824219 C 764.558594 506.496094 765.164062 507.230469 765.691406 508.023438 C 766.222656 508.816406 766.671875 509.65625 767.035156 510.535156 C 767.398438 511.417969 767.675781 512.324219 767.863281 513.261719 C 768.046875 514.195312 768.140625 515.140625 768.140625 516.09375 Z M 768.140625 516.09375 "/>
<g clip-path="url(#clip2)" clip-rule="nonzero">
<path style=" stroke:none;fill-rule:nonzero;fill:rgb(0%,44.709778%,100%);fill-opacity:1;" d="M 797.195312 632.3125 C 797.195312 633.265625 797.101562 634.210938 796.914062 635.144531 C 796.730469 636.082031 796.453125 636.992188 796.089844 637.871094 C 795.722656 638.753906 795.277344 639.589844 794.746094 640.382812 C 794.21875 641.175781 793.613281 641.910156 792.941406 642.585938 C 792.265625 643.257812 791.53125 643.859375 790.738281 644.390625 C 789.945312 644.921875 789.109375 645.367188 788.226562 645.734375 C 787.347656 646.097656 786.4375 646.375 785.503906 646.558594 C 784.566406 646.746094 783.621094 646.839844 782.667969 646.839844 C 781.714844 646.839844 780.769531 646.746094 779.832031 646.558594 C 778.898438 646.375 777.988281 646.097656 777.109375 645.734375 C 776.226562 645.367188 775.390625 644.921875 774.597656 644.390625 C 773.804688 643.859375 773.070312 643.257812 772.394531 642.585938 C 771.722656 641.910156 771.117188 641.175781 770.589844 640.382812 C 770.058594 639.589844 769.613281 638.753906 769.246094 637.871094 C 768.882812 636.992188 768.605469 636.082031 768.421875 635.144531 C 768.234375 634.210938 768.140625 633.265625 768.140625 632.3125 C 768.140625 631.359375 768.234375 630.414062 768.421875 629.476562 C 768.605469 628.542969 768.882812 627.632812 769.246094 626.753906 C 769.613281 625.871094 770.058594 625.035156 770.589844 624.242188 C 771.117188 623.449219 771.722656 622.714844 772.394531 622.039062 C 773.070312 621.367188 773.804688 620.761719 774.597656 620.234375 C 775.390625 619.703125 776.226562 619.257812 777.109375 618.890625 C 777.988281 618.527344 778.898438 618.25 779.832031 618.0625 C 780.769531 617.878906 781.714844 617.785156 782.667969 617.785156 C 783.621094 617.785156 784.566406 617.878906 785.503906 618.0625 C 786.4375 618.25 787.347656 618.527344 788.226562 618.890625 C 789.109375 619.257812 789.945312 619.703125 790.738281 620.234375 C 791.53125 620.761719 792.265625 621.367188 792.941406 622.039062 C 793.613281 622.714844 794.21875 623.449219 794.746094 624.242188 C 795.277344 625.035156 795.722656 625.871094 796.089844 626.753906 C 796.453125 627.632812 796.730469 628.542969 796.914062 629.476562 C 797.101562 630.414062 797.195312 631.359375 797.195312 632.3125 Z M 797.195312 632.3125 "/>
</g>
</g>
</svg>
