<?xml version="1.0" encoding="UTF-8"?>
<svg xmlns="http://www.w3.org/2000/svg" xmlns:xlink="http://www.w3.org/1999/xlink" width="810pt" height="809.999993pt" viewBox="0 0 810 809.999993" version="1.2">
<defs>
<clipPath id="clip1">
  <path d="M 34.59375 21.65625 L 503 21.65625 L 503 787.980469 L 34.59375 787.980469 Z M 34.59375 21.65625 "/>
</clipPath>
<clipPath id="clip2">
  <path d="M 34.59375 21.65625 L 456 21.65625 L 456 787.980469 L 34.59375 787.980469 Z M 34.59375 21.65625 "/>
</clipPath>
<clipPath id="clip3">
  <path d="M 437 73 L 775.59375 73 L 775.59375 412 L 437 412 Z M 437 73 "/>
</clipPath>
</defs>
<g id="surface1">
<g clip-path="url(#clip1)" clip-rule="nonzero">
<path style=" stroke:none;fill-rule:nonzero;fill:rgb(96.078491%,72.938538%,66.668701%);fill-opacity:1;" d="M 281.679688 787.980469 L 34.652344 787.980469 L 34.652344 294.417969 L 391.6875 32.160156 C 401.4375 25.058594 412.457031 21.808594 423.125 21.808594 C 450.851562 21.808594 476.703125 43.625 476.703125 75.183594 C 476.703125 90.609375 469.949219 105.425781 458.269531 115.570312 L 267.511719 280.109375 L 268.679688 281.429688 L 346.6875 281.429688 C 368.273438 281.429688 385.691406 298.832031 385.691406 320.394531 L 385.691406 372.347656 L 386.097656 372.753906 L 395.851562 363.925781 C 417.535156 339.726562 454.355469 336.78125 479.699219 357.027344 C 494.785156 369.101562 502.707031 386.910156 502.707031 404.972656 C 502.707031 418.875 497.882812 432.878906 488.128906 444.445312 L 330.945312 619.132812 L 320.6875 671.085938 L 278.429688 720.300781 L 281.679688 723.039062 L 281.679688 787.980469 "/>
</g>
<g clip-path="url(#clip2)" clip-rule="nonzero">
<path style=" stroke:none;fill-rule:nonzero;fill:rgb(93.728638%,57.649231%,51.759338%);fill-opacity:1;" d="M 455.625 32.972656 C 446.332031 25.96875 434.957031 21.808594 423.125 21.808594 C 412.457031 21.808594 401.4375 25.058594 391.6875 32.160156 L 34.652344 294.417969 L 34.652344 787.980469 L 99.660156 787.980469 L 99.660156 294.417969 L 455.625 32.972656 "/>
</g>
<path style=" stroke:none;fill-rule:nonzero;fill:rgb(93.728638%,57.649231%,51.759338%);fill-opacity:1;" d="M 385.691406 355.554688 L 307.683594 426.027344 L 307.683594 372.347656 L 281.679688 372.347656 L 281.679688 449.519531 L 205.195312 518.570312 L 222.667969 537.851562 L 385.691406 372.347656 L 385.691406 355.554688 "/>
<g clip-path="url(#clip3)" clip-rule="nonzero">
<path style=" stroke:none;fill-rule:nonzero;fill:rgb(94.898987%,59.21936%,6.269836%);fill-opacity:1;" d="M 684.726562 242.464844 C 684.726562 199.488281 649.734375 164.53125 606.71875 164.53125 C 563.703125 164.53125 528.710938 199.488281 528.710938 242.464844 C 528.710938 285.4375 563.703125 320.394531 606.71875 320.394531 C 649.734375 320.394531 684.726562 285.4375 684.726562 242.464844 Z M 775.738281 216.484375 L 775.738281 268.441406 L 734.144531 268.441406 C 730.742188 285.082031 724.238281 300.402344 715.148438 314.050781 L 744.65625 343.53125 L 707.886719 380.261719 L 678.378906 350.785156 C 664.71875 359.867188 649.378906 366.363281 632.722656 369.761719 L 632.722656 411.3125 L 580.714844 411.3125 L 580.714844 369.761719 C 564.058594 366.363281 548.71875 359.867188 535.058594 350.785156 L 505.550781 380.261719 L 468.78125 343.53125 L 498.289062 314.050781 C 489.195312 300.402344 482.695312 285.082031 479.292969 268.441406 L 437.699219 268.441406 L 437.699219 216.484375 L 479.292969 216.484375 C 482.695312 199.84375 489.195312 184.523438 498.289062 170.875 L 468.78125 141.394531 L 505.550781 104.664062 L 535.058594 134.140625 C 548.71875 125.058594 564.058594 118.566406 580.714844 115.164062 L 580.714844 73.613281 L 632.722656 73.613281 L 632.722656 115.164062 C 649.378906 118.566406 664.71875 125.058594 678.378906 134.140625 L 707.886719 104.664062 L 744.65625 141.394531 L 715.148438 170.875 C 724.238281 184.523438 730.742188 199.84375 734.144531 216.484375 L 775.738281 216.484375 "/>
</g>
<path style=" stroke:none;fill-rule:nonzero;fill:rgb(98.429871%,77.648926%,14.118958%);fill-opacity:1;" d="M 606.71875 411.3125 L 606.71875 320.394531 C 563.703125 320.394531 528.710938 285.4375 528.710938 242.464844 C 528.710938 199.488281 563.703125 164.53125 606.71875 164.53125 L 606.71875 73.613281 L 580.714844 73.613281 L 580.714844 115.164062 C 564.058594 118.566406 548.71875 125.058594 535.058594 134.140625 L 505.550781 104.664062 L 468.78125 141.394531 L 498.289062 170.875 C 489.195312 184.523438 482.695312 199.84375 479.292969 216.484375 L 437.699219 216.484375 L 437.699219 268.441406 L 479.292969 268.441406 C 482.695312 285.082031 489.195312 300.402344 498.289062 314.050781 L 468.78125 343.53125 L 505.550781 380.261719 L 535.058594 350.785156 C 548.71875 359.867188 564.058594 366.363281 580.714844 369.761719 L 580.714844 411.3125 L 606.71875 411.3125 "/>
<path style=" stroke:none;fill-rule:nonzero;fill:rgb(93.728638%,57.649231%,51.759338%);fill-opacity:1;" d="M 268.679688 281.429688 L 216.671875 320.394531 L 307.683594 281.429688 Z M 268.679688 281.429688 "/>
</g>
</svg>
