<?xml version="1.0" encoding="UTF-8"?>
<svg xmlns="http://www.w3.org/2000/svg" xmlns:xlink="http://www.w3.org/1999/xlink" width="810pt" height="809.999993pt" viewBox="0 0 810 809.999993" version="1.2">
<defs>
<clipPath id="clip1">
  <path d="M 20 411 L 539 411 L 539 789.703125 L 20 789.703125 Z M 20 411 "/>
</clipPath>
</defs>
<g id="surface1">
<path style=" stroke:none;fill-rule:nonzero;fill:rgb(97.24884%,65.489197%,10.198975%);fill-opacity:1;" d="M 497.375 46.558594 L 46.199219 125.863281 L 97.730469 417.183594 L 80.394531 417.183594 C 78.003906 417.183594 75.652344 417.363281 73.355469 417.695312 L 20.375 118.183594 C 19.226562 111.652344 23.613281 105.429688 30.167969 104.289062 L 505.078125 20.816406 C 511.632812 19.675781 517.875 24.050781 519.019531 30.582031 L 549.46875 202.734375 L 524.386719 199.222656 Z M 232.089844 297.28125 C 219.566406 299.199219 207.367188 296.1875 197.667969 289.421875 C 187.972656 282.648438 178.730469 269.53125 178.171875 257.203125 C 177.546875 243.484375 199.550781 239.945312 202.164062 255.496094 C 204.128906 267.214844 215.164062 274.980469 228.496094 273.53125 C 245.898438 271.640625 247.199219 294.96875 232.089844 297.28125 Z M 764.898438 287.496094 L 323.121094 225.601562 L 301.1875 381.152344 L 276.898438 381.160156 L 300.972656 210.421875 C 301.878906 203.859375 307.953125 199.277344 314.535156 200.1875 L 780.132812 265.417969 C 786.71875 266.320312 791.3125 272.375 790.398438 278.9375 L 740.0625 635.941406 C 739.148438 642.5 733.082031 647.078125 726.496094 646.175781 L 568.6875 624.066406 L 568.6875 578.613281 L 720.847656 599.933594 Z M 385.402344 381.175781 L 459.101562 309.003906 C 467.621094 300.660156 481.625 302.621094 487.507812 312.984375 L 542.179688 409.261719 C 548.058594 419.625 562.066406 421.589844 570.582031 413.242188 L 586.914062 397.253906 C 595.429688 388.917969 609.4375 390.875 615.316406 401.234375 L 691.96875 536.230469 C 699.367188 549.261719 688.589844 565.042969 673.71875 562.957031 L 568.683594 548.242188 L 568.683594 489.277344 C 568.683594 462.742188 547.085938 441.210938 520.46875 441.210938 L 441.035156 441.210938 L 428.648438 412.714844 C 421.96875 394.480469 404.886719 382 385.402344 381.175781 Z M 656.8125 310.308594 C 635.464844 307.320312 615.734375 322.140625 612.734375 343.417969 C 609.738281 364.695312 624.605469 384.363281 645.949219 387.355469 C 667.296875 390.347656 687.027344 375.523438 690.03125 354.246094 C 693.03125 332.96875 678.15625 313.296875 656.8125 310.308594 Z M 656.8125 310.308594 "/>
<path style=" stroke:none;fill-rule:nonzero;fill:rgb(97.24884%,65.489197%,10.198975%);fill-opacity:1;" d="M 111.195312 293.886719 L 135.773438 287.316406 C 142.40625 303.550781 153.1875 317.171875 166.53125 327.261719 L 153.804688 349.238281 C 145.875 362.9375 166.75 374.953125 174.683594 361.25 L 187.410156 339.277344 C 202.84375 345.75 220.074219 348.25 237.492188 345.855469 L 244.074219 370.355469 C 244.707031 372.710938 245.796875 374.554688 247.171875 375.933594 L 257.820312 300.429688 C 240.199219 312.324219 216.390625 315.203125 194.671875 302.707031 C 148.746094 276.273438 157.851562 207.382812 209.070312 193.699219 C 232.164062 187.53125 255.710938 195.742188 270.164062 212.820312 L 271.097656 206.207031 C 272.691406 194.890625 278.675781 185.261719 287.089844 178.785156 C 285.597656 177.507812 284.070312 176.273438 282.503906 175.089844 L 295.226562 153.117188 C 303.164062 139.417969 282.285156 127.398438 274.351562 141.097656 L 261.625 163.070312 C 246.1875 156.601562 228.964844 154.101562 211.542969 156.496094 L 204.960938 131.992188 C 200.851562 116.714844 177.566406 122.933594 181.671875 138.210938 L 188.257812 162.714844 C 171.972656 169.324219 158.3125 180.070312 148.1875 193.371094 L 126.144531 180.683594 C 112.402344 172.773438 100.347656 193.589844 114.09375 201.496094 L 136.136719 214.183594 C 129.644531 229.570312 127.132812 246.742188 129.535156 264.105469 L 104.957031 270.671875 C 89.625 274.765625 95.863281 297.980469 111.195312 293.886719 Z M 111.195312 293.886719 "/>
<path style=" stroke:none;fill-rule:nonzero;fill:rgb(97.24884%,65.489197%,10.198975%);fill-opacity:1;" d="M 244.695312 568.867188 C 210.757812 602.703125 210.757812 658.25 244.695312 692.082031 C 278.636719 725.917969 334.359375 725.917969 368.296875 692.082031 C 402.238281 658.25 402.238281 602.703125 368.296875 568.867188 C 334.359375 535.035156 278.636719 535.035156 244.695312 568.867188 Z M 244.695312 568.867188 "/>
<g clip-path="url(#clip1)" clip-rule="nonzero">
<path style=" stroke:none;fill-rule:nonzero;fill:rgb(97.24884%,65.489197%,10.198975%);fill-opacity:1;" d="M 520.46875 471.253906 L 421.246094 471.253906 L 400.550781 423.644531 C 397.515625 416.667969 391.386719 411.175781 383.34375 411.175781 L 226.628906 411.175781 C 219.253906 411.175781 212.625 415.6875 209.890625 422.503906 L 190.332031 471.253906 L 146.695312 471.253906 L 146.695312 465.25 C 146.695312 455.296875 138.597656 447.222656 128.613281 447.222656 L 80.394531 447.222656 C 70.40625 447.222656 62.3125 455.296875 62.3125 465.25 L 62.3125 471.253906 L 38.269531 471.253906 C 28.28125 471.253906 20.183594 479.328125 20.183594 489.28125 L 20.183594 771.675781 C 20.183594 781.625 28.285156 789.699219 38.269531 789.699219 L 520.46875 789.699219 C 530.457031 789.699219 538.554688 781.628906 538.554688 771.675781 L 538.554688 489.28125 C 538.554688 479.328125 530.457031 471.253906 520.46875 471.253906 Z M 128.613281 555.375 L 80.394531 555.375 L 80.394531 531.339844 L 128.613281 531.339844 Z M 393.867188 717.566406 C 345.875 765.402344 267.117188 765.402344 219.125 717.566406 C 171.136719 669.726562 171.136719 591.214844 219.125 543.382812 C 267.117188 495.546875 345.875 495.546875 393.867188 543.382812 C 441.855469 591.222656 441.855469 669.734375 393.867188 717.566406 Z M 393.867188 717.566406 "/>
</g>
</g>
</svg>
