<?xml version="1.0" encoding="UTF-8"?>
<svg xmlns="http://www.w3.org/2000/svg" xmlns:xlink="http://www.w3.org/1999/xlink" width="810pt" height="809.999993pt" viewBox="0 0 810 809.999993" version="1.2">
<defs>
<clipPath id="clip1">
  <path d="M 21.46875 21.46875 L 788.71875 21.46875 L 788.71875 788.71875 L 21.46875 788.71875 Z M 21.46875 21.46875 "/>
</clipPath>
</defs>
<g id="surface1">
<path style=" stroke:none;fill-rule:nonzero;fill:rgb(100%,100%,100%);fill-opacity:1;" d="M 366.6875 254.234375 L 439.964844 254.234375 L 439.964844 155.75 L 366.6875 155.75 L 366.6875 254.234375 "/>
<path style=" stroke:none;fill-rule:nonzero;fill:rgb(1.568604%,2.349854%,2.349854%);fill-opacity:1;" d="M 366.6875 254.234375 L 366.6875 256.558594 L 439.964844 256.558594 C 440.582031 256.558594 441.179688 256.316406 441.617188 255.878906 C 442.042969 255.453125 442.289062 254.851562 442.289062 254.234375 L 442.289062 155.75 C 442.289062 155.132812 442.042969 154.53125 441.617188 154.105469 C 441.179688 153.667969 440.582031 153.421875 439.964844 153.421875 L 366.6875 153.421875 C 366.078125 153.421875 365.476562 153.667969 365.042969 154.105469 C 364.613281 154.53125 364.359375 155.132812 364.359375 155.75 L 364.359375 254.234375 C 364.359375 254.851562 364.613281 255.453125 365.042969 255.878906 C 365.476562 256.316406 366.078125 256.558594 366.6875 256.558594 L 366.6875 254.234375 L 369.011719 254.234375 L 369.011719 158.074219 L 437.636719 158.074219 L 437.636719 251.90625 L 366.6875 251.90625 L 366.6875 254.234375 L 369.011719 254.234375 L 366.6875 254.234375 "/>
<path style=" stroke:none;fill-rule:nonzero;fill:rgb(100%,100%,100%);fill-opacity:1;" d="M 366.6875 654.863281 L 439.964844 654.863281 L 439.964844 556.367188 L 366.6875 556.367188 L 366.6875 654.863281 "/>
<path style=" stroke:none;fill-rule:nonzero;fill:rgb(1.568604%,2.349854%,2.349854%);fill-opacity:1;" d="M 366.6875 654.863281 L 366.6875 657.1875 L 439.964844 657.1875 C 440.582031 657.1875 441.179688 656.933594 441.617188 656.507812 C 442.042969 656.070312 442.289062 655.472656 442.289062 654.863281 L 442.289062 556.367188 C 442.289062 555.757812 442.042969 555.160156 441.617188 554.722656 C 441.179688 554.289062 440.582031 554.042969 439.964844 554.042969 L 366.6875 554.042969 C 366.078125 554.042969 365.476562 554.289062 365.042969 554.722656 C 364.613281 555.160156 364.359375 555.757812 364.359375 556.367188 L 364.359375 654.863281 C 364.359375 655.472656 364.613281 656.070312 365.042969 656.507812 C 365.476562 656.933594 366.078125 657.1875 366.6875 657.1875 L 366.6875 654.863281 L 369.011719 654.863281 L 369.011719 558.695312 L 437.636719 558.695312 L 437.636719 652.535156 L 366.6875 652.535156 L 366.6875 654.863281 L 369.011719 654.863281 L 366.6875 654.863281 "/>
<path style=" stroke:none;fill-rule:nonzero;fill:rgb(100%,100%,100%);fill-opacity:1;" d="M 252.261719 441.945312 L 252.261719 368.667969 L 153.769531 368.667969 L 153.769531 441.945312 L 252.261719 441.945312 "/>
<path style=" stroke:none;fill-rule:nonzero;fill:rgb(1.568604%,2.349854%,2.349854%);fill-opacity:1;" d="M 252.261719 441.945312 L 254.589844 441.945312 L 254.589844 368.667969 C 254.589844 368.050781 254.335938 367.449219 253.90625 367.023438 C 253.472656 366.585938 252.871094 366.339844 252.261719 366.339844 L 153.769531 366.339844 C 153.160156 366.339844 152.558594 366.585938 152.125 367.023438 C 151.695312 367.449219 151.441406 368.050781 151.441406 368.667969 L 151.441406 441.945312 C 151.441406 442.554688 151.695312 443.152344 152.125 443.589844 C 152.558594 444.015625 153.160156 444.269531 153.769531 444.269531 L 252.261719 444.269531 C 252.871094 444.269531 253.472656 444.015625 253.90625 443.589844 C 254.335938 443.152344 254.589844 442.554688 254.589844 441.945312 L 252.261719 441.945312 L 252.261719 439.617188 L 156.09375 439.617188 L 156.09375 370.992188 L 249.9375 370.992188 L 249.9375 441.945312 L 252.261719 441.945312 L 252.261719 439.617188 L 252.261719 441.945312 "/>
<path style=" stroke:none;fill-rule:nonzero;fill:rgb(100%,100%,100%);fill-opacity:1;" d="M 652.882812 441.945312 L 652.882812 368.667969 L 554.394531 368.667969 L 554.394531 441.945312 L 652.882812 441.945312 "/>
<path style=" stroke:none;fill-rule:nonzero;fill:rgb(1.568604%,2.349854%,2.349854%);fill-opacity:1;" d="M 652.882812 441.945312 L 655.207031 441.945312 L 655.207031 368.667969 C 655.207031 368.050781 654.960938 367.449219 654.527344 367.023438 C 654.097656 366.585938 653.5 366.339844 652.882812 366.339844 L 554.394531 366.339844 C 553.789062 366.339844 553.1875 366.585938 552.75 367.023438 C 552.316406 367.449219 552.070312 368.050781 552.070312 368.667969 L 552.070312 441.945312 C 552.070312 442.554688 552.316406 443.152344 552.75 443.589844 C 553.1875 444.015625 553.789062 444.269531 554.394531 444.269531 L 652.882812 444.269531 C 653.5 444.269531 654.097656 444.015625 654.527344 443.589844 C 654.960938 443.152344 655.207031 442.554688 655.207031 441.945312 L 652.882812 441.945312 L 652.882812 439.617188 L 556.722656 439.617188 L 556.722656 370.992188 L 650.554688 370.992188 L 650.554688 441.945312 L 652.882812 441.945312 L 652.882812 439.617188 L 652.882812 441.945312 "/>
<path style=" stroke:none;fill-rule:nonzero;fill:rgb(23.139954%,66.668701%,60.778809%);fill-opacity:1;" d="M 347.867188 405.304688 C 347.867188 373.582031 373.582031 347.867188 405.304688 347.867188 C 437.019531 347.867188 462.734375 373.582031 462.734375 405.304688 C 462.734375 437.027344 437.019531 462.734375 405.304688 462.734375 C 373.582031 462.734375 347.867188 437.027344 347.867188 405.304688 Z M 254.234375 382.371094 L 254.234375 428.230469 C 254.234375 432.183594 257.433594 435.382812 261.386719 435.382812 L 283.820312 435.382812 C 286.867188 447.722656 291.734375 459.335938 298.132812 469.933594 L 282.269531 485.796875 C 279.476562 488.589844 279.476562 493.113281 282.269531 495.914062 L 314.699219 528.335938 C 317.488281 531.132812 322.015625 531.132812 324.8125 528.335938 L 340.679688 512.46875 C 351.273438 518.867188 362.886719 523.738281 375.21875 526.78125 L 375.21875 549.214844 C 375.21875 553.167969 378.425781 556.367188 382.371094 556.367188 L 428.230469 556.367188 C 432.183594 556.367188 435.382812 553.167969 435.382812 549.214844 L 435.382812 526.78125 C 447.722656 523.738281 459.335938 518.867188 469.921875 512.46875 L 485.796875 528.335938 C 488.589844 531.132812 493.113281 531.132812 495.902344 528.335938 L 528.335938 495.914062 C 531.132812 493.113281 531.132812 488.589844 528.335938 485.796875 L 512.46875 469.933594 C 518.867188 459.335938 523.738281 447.722656 526.78125 435.382812 L 549.214844 435.382812 C 553.167969 435.382812 556.367188 432.183594 556.367188 428.230469 L 556.367188 382.371094 C 556.367188 378.425781 553.167969 375.21875 549.214844 375.21875 L 526.78125 375.21875 C 523.738281 362.886719 518.867188 351.273438 512.46875 340.679688 L 528.335938 324.8125 C 531.132812 322.015625 531.132812 317.488281 528.335938 314.699219 L 495.902344 282.269531 C 493.113281 279.476562 488.589844 279.476562 485.796875 282.269531 L 469.921875 298.132812 C 459.335938 291.734375 447.722656 286.867188 435.382812 283.820312 L 435.382812 261.386719 C 435.382812 257.441406 432.183594 254.234375 428.230469 254.234375 L 382.371094 254.234375 C 378.425781 254.234375 375.21875 257.441406 375.21875 261.386719 L 375.21875 283.820312 C 362.886719 286.867188 351.273438 291.734375 340.679688 298.132812 L 324.804688 282.269531 C 322.015625 279.476562 317.488281 279.476562 314.699219 282.269531 L 282.269531 314.699219 C 279.476562 317.488281 279.476562 322.015625 282.269531 324.8125 L 298.132812 340.679688 C 291.734375 351.265625 286.867188 362.886719 283.820312 375.21875 L 261.386719 375.21875 C 257.433594 375.21875 254.234375 378.425781 254.234375 382.371094 "/>
<path style=" stroke:none;fill-rule:nonzero;fill:rgb(1.568604%,2.349854%,2.349854%);fill-opacity:1;" d="M 347.867188 405.304688 L 350.191406 405.304688 C 350.191406 390.074219 356.363281 376.316406 366.339844 366.332031 C 376.316406 356.363281 390.074219 350.191406 405.304688 350.191406 C 420.527344 350.191406 434.292969 356.363281 444.269531 366.332031 C 454.25 376.316406 460.410156 390.074219 460.410156 405.304688 C 460.410156 420.527344 454.25 434.292969 444.269531 444.269531 C 434.292969 454.25 420.527344 460.410156 405.304688 460.410156 C 390.074219 460.410156 376.316406 454.25 366.339844 444.269531 C 356.363281 434.292969 350.191406 420.527344 350.191406 405.304688 L 345.539062 405.304688 C 345.539062 438.308594 372.292969 465.0625 405.304688 465.0625 C 438.308594 465.0625 465.0625 438.308594 465.0625 405.304688 C 465.0625 372.300781 438.308594 345.539062 405.304688 345.539062 C 372.292969 345.539062 345.539062 372.300781 345.539062 405.304688 Z M 254.234375 382.371094 L 251.90625 382.371094 L 251.90625 428.230469 C 251.90625 433.464844 256.152344 437.699219 261.386719 437.710938 L 283.820312 437.710938 L 283.820312 435.382812 L 281.566406 435.9375 C 284.667969 448.503906 289.628906 460.34375 296.144531 471.132812 L 298.132812 469.933594 L 296.488281 468.289062 L 280.621094 484.152344 C 278.777344 486 277.84375 488.433594 277.851562 490.851562 C 277.84375 493.269531 278.777344 495.710938 280.621094 497.558594 L 313.054688 529.980469 C 314.898438 531.824219 317.335938 532.761719 319.75 532.761719 C 322.167969 532.761719 324.613281 531.824219 326.457031 529.980469 L 342.324219 514.113281 L 340.679688 512.46875 L 339.480469 514.457031 C 350.265625 520.972656 362.097656 525.945312 374.664062 529.042969 L 375.21875 526.78125 L 372.890625 526.78125 L 372.890625 549.214844 C 372.902344 554.449219 377.136719 558.695312 382.371094 558.695312 L 428.230469 558.695312 C 433.476562 558.695312 437.710938 554.449219 437.710938 549.214844 L 437.710938 526.78125 L 435.382812 526.78125 L 435.9375 529.042969 C 448.515625 525.945312 460.34375 520.972656 471.132812 514.457031 L 469.921875 512.46875 L 468.277344 514.113281 L 484.152344 529.980469 C 486 531.824219 488.433594 532.761719 490.851562 532.761719 C 493.269531 532.761719 495.710938 531.824219 497.558594 529.980469 L 529.980469 497.558594 C 531.832031 495.710938 532.761719 493.269531 532.761719 490.851562 C 532.761719 488.433594 531.832031 486 529.980469 484.152344 L 514.113281 468.289062 L 512.46875 469.933594 L 514.457031 471.132812 C 520.984375 460.34375 525.945312 448.503906 529.042969 435.9375 L 526.78125 435.382812 L 526.78125 437.710938 L 549.214844 437.710938 C 554.449219 437.699219 558.695312 433.464844 558.695312 428.230469 L 558.695312 382.371094 C 558.695312 377.136719 554.460938 372.890625 549.214844 372.890625 L 526.78125 372.890625 L 526.78125 375.21875 L 529.042969 374.664062 C 525.945312 362.097656 520.972656 350.265625 514.457031 339.46875 L 512.46875 340.679688 L 514.113281 342.324219 L 529.980469 326.457031 C 531.832031 324.605469 532.761719 322.167969 532.761719 319.75 C 532.761719 317.335938 531.832031 314.898438 529.980469 313.054688 L 497.546875 280.621094 C 495.710938 278.777344 493.269531 277.84375 490.851562 277.84375 C 488.433594 277.84375 486 278.777344 484.152344 280.621094 L 468.277344 296.488281 L 469.921875 298.132812 L 471.132812 296.144531 C 460.34375 289.628906 448.515625 284.667969 435.9375 281.558594 L 435.382812 283.820312 L 437.710938 283.820312 L 437.710938 261.386719 C 437.710938 256.152344 433.476562 251.90625 428.230469 251.90625 L 382.371094 251.90625 C 377.136719 251.90625 372.902344 256.152344 372.890625 261.386719 L 372.890625 283.820312 L 375.21875 283.820312 L 374.664062 281.566406 C 362.097656 284.667969 350.265625 289.628906 339.480469 296.144531 L 340.679688 298.132812 L 342.324219 296.488281 L 326.449219 280.621094 C 324.613281 278.777344 322.167969 277.84375 319.75 277.84375 C 317.335938 277.84375 314.898438 278.777344 313.054688 280.621094 L 280.621094 313.054688 C 278.777344 314.898438 277.84375 317.335938 277.851562 319.75 C 277.84375 322.167969 278.777344 324.605469 280.621094 326.449219 L 280.621094 326.457031 L 296.488281 342.324219 L 298.132812 340.679688 L 296.144531 339.46875 C 289.628906 350.257812 284.667969 362.097656 281.566406 374.664062 L 283.820312 375.21875 L 283.820312 372.890625 L 261.386719 372.890625 C 256.152344 372.890625 251.90625 377.136719 251.90625 382.371094 L 256.558594 382.371094 C 256.570312 379.707031 258.722656 377.554688 261.386719 377.542969 L 283.820312 377.542969 C 284.894531 377.542969 285.828125 376.808594 286.085938 375.773438 C 289.066406 363.667969 293.855469 352.273438 300.132812 341.878906 C 300.679688 340.960938 300.53125 339.789062 299.777344 339.035156 L 283.914062 323.160156 L 283.914062 323.167969 C 282.96875 322.214844 282.503906 320.996094 282.503906 319.75 C 282.503906 318.507812 282.96875 317.289062 283.914062 316.34375 L 316.34375 283.914062 C 317.289062 282.96875 318.515625 282.503906 319.75 282.503906 C 320.996094 282.503906 322.214844 282.96875 323.160156 283.914062 L 339.035156 299.777344 C 339.789062 300.53125 340.96875 300.679688 341.878906 300.125 C 352.28125 293.84375 363.667969 289.066406 375.78125 286.085938 C 376.816406 285.820312 377.542969 284.894531 377.542969 283.820312 L 377.542969 261.386719 C 377.554688 258.722656 379.714844 256.570312 382.371094 256.558594 L 428.230469 256.558594 C 430.894531 256.570312 433.046875 258.722656 433.058594 261.386719 L 433.058594 283.820312 C 433.058594 284.894531 433.792969 285.820312 434.820312 286.085938 C 446.933594 289.066406 458.328125 293.84375 468.722656 300.125 C 469.640625 300.679688 470.8125 300.53125 471.566406 299.777344 L 487.441406 283.914062 C 488.386719 282.96875 489.613281 282.503906 490.851562 282.503906 C 492.09375 282.503906 493.3125 282.96875 494.257812 283.914062 L 526.691406 316.34375 C 527.644531 317.289062 528.109375 318.507812 528.109375 319.75 C 528.109375 320.996094 527.644531 322.214844 526.691406 323.160156 L 510.824219 339.035156 C 510.070312 339.789062 509.925781 340.960938 510.480469 341.878906 C 516.757812 352.273438 521.539062 363.667969 524.527344 375.773438 C 524.78125 376.816406 525.71875 377.542969 526.78125 377.542969 L 549.214844 377.542969 C 551.878906 377.554688 554.03125 379.707031 554.042969 382.371094 L 554.042969 428.230469 C 554.03125 430.894531 551.878906 433.046875 549.214844 433.058594 L 526.78125 433.058594 C 525.71875 433.058594 524.78125 433.785156 524.527344 434.820312 C 521.539062 446.933594 516.757812 458.328125 510.480469 468.722656 C 509.925781 469.640625 510.070312 470.824219 510.824219 471.578125 L 526.691406 487.441406 C 527.644531 488.386719 528.109375 489.613281 528.109375 490.851562 C 528.109375 492.09375 527.644531 493.3125 526.691406 494.265625 L 494.257812 526.691406 C 493.3125 527.636719 492.09375 528.097656 490.851562 528.109375 C 489.613281 528.097656 488.386719 527.636719 487.441406 526.691406 L 471.566406 510.824219 C 470.8125 510.070312 469.640625 509.925781 468.722656 510.480469 C 458.328125 516.757812 446.933594 521.539062 434.820312 524.527344 C 433.792969 524.78125 433.058594 525.71875 433.058594 526.78125 L 433.058594 549.214844 C 433.046875 551.878906 430.894531 554.03125 428.230469 554.042969 L 382.371094 554.042969 C 379.714844 554.03125 377.554688 551.878906 377.542969 549.214844 L 377.542969 526.78125 C 377.542969 525.71875 376.816406 524.78125 375.78125 524.527344 C 363.667969 521.539062 352.28125 516.757812 341.878906 510.480469 C 340.96875 509.925781 339.789062 510.070312 339.035156 510.824219 L 323.167969 526.691406 C 322.214844 527.636719 320.996094 528.097656 319.75 528.109375 C 318.515625 528.097656 317.289062 527.636719 316.34375 526.691406 L 283.914062 494.265625 C 282.96875 493.3125 282.503906 492.09375 282.503906 490.851562 C 282.503906 489.613281 282.96875 488.386719 283.914062 487.441406 L 299.777344 471.578125 C 300.53125 470.824219 300.679688 469.640625 300.132812 468.722656 C 293.855469 458.328125 289.066406 446.933594 286.085938 434.820312 C 285.828125 433.785156 284.894531 433.058594 283.820312 433.058594 L 261.386719 433.058594 C 258.722656 433.046875 256.570312 430.894531 256.558594 428.230469 L 256.558594 382.371094 L 254.234375 382.371094 "/>
<path style=" stroke:none;fill-rule:nonzero;fill:rgb(23.139954%,66.668701%,60.778809%);fill-opacity:1;" d="M 173.832031 405.304688 C 173.832031 277.460938 277.453125 173.824219 405.296875 173.824219 C 533.140625 173.824219 636.777344 277.460938 636.777344 405.304688 C 636.777344 533.140625 533.140625 636.777344 405.296875 636.777344 C 277.453125 636.777344 173.832031 533.140625 173.832031 405.304688 Z M 23.90625 347.402344 L 23.90625 463.199219 C 23.90625 473.167969 31.984375 481.246094 41.945312 481.246094 L 98.601562 481.246094 C 106.28125 512.394531 118.582031 541.730469 134.738281 568.472656 L 94.675781 608.527344 C 87.625 615.578125 87.625 627 94.675781 634.054688 L 176.550781 715.9375 C 183.601562 722.988281 195.03125 722.988281 202.074219 715.9375 L 242.140625 675.871094 C 268.882812 692.027344 298.214844 704.324219 329.355469 712.011719 L 329.355469 768.648438 C 329.355469 778.617188 337.433594 786.707031 347.402344 786.707031 L 463.199219 786.707031 C 473.167969 786.707031 481.246094 778.617188 481.246094 768.648438 L 481.246094 712.011719 C 512.394531 704.324219 541.730469 692.027344 568.460938 675.871094 L 608.527344 715.9375 C 615.578125 722.976562 627 722.976562 634.054688 715.9375 L 715.925781 634.054688 C 722.976562 627 722.976562 615.578125 715.925781 608.527344 L 675.863281 568.460938 C 692.027344 541.730469 704.324219 512.394531 712 481.246094 L 768.648438 481.246094 C 778.617188 481.246094 786.695312 473.167969 786.695312 463.199219 L 786.695312 347.402344 C 786.695312 337.445312 778.617188 329.355469 768.648438 329.355469 L 712 329.355469 C 704.324219 298.214844 692.027344 268.882812 675.863281 242.140625 L 715.9375 202.074219 C 722.976562 195.03125 722.976562 183.601562 715.9375 176.558594 L 634.054688 94.675781 C 627 87.625 615.578125 87.625 608.527344 94.675781 L 568.460938 134.730469 C 541.730469 118.582031 512.394531 106.289062 481.246094 98.601562 L 481.246094 41.953125 C 481.246094 31.984375 473.167969 23.90625 463.199219 23.90625 L 347.402344 23.90625 C 337.433594 23.90625 329.355469 31.984375 329.355469 41.953125 L 329.355469 98.601562 C 298.214844 106.289062 268.882812 118.582031 242.140625 134.730469 L 202.066406 94.675781 C 195.03125 87.625 183.601562 87.625 176.550781 94.675781 L 94.667969 176.558594 C 87.625 183.601562 87.625 195.03125 94.667969 202.074219 L 134.738281 242.140625 C 118.582031 268.882812 106.28125 298.214844 98.601562 329.355469 L 41.945312 329.355469 C 31.984375 329.355469 23.90625 337.445312 23.90625 347.402344 "/>
<g clip-path="url(#clip1)" clip-rule="nonzero">
<path style=" stroke:none;fill-rule:nonzero;fill:rgb(1.568604%,2.349854%,2.349854%);fill-opacity:1;" d="M 173.832031 405.304688 L 176.160156 405.304688 C 176.160156 342.015625 201.800781 284.75 243.265625 243.265625 C 284.738281 201.792969 342.015625 176.148438 405.296875 176.148438 C 468.585938 176.148438 525.863281 201.792969 567.335938 243.265625 C 608.808594 284.75 634.453125 342.015625 634.453125 405.304688 C 634.453125 468.585938 608.808594 525.863281 567.335938 567.335938 C 525.863281 608.808594 468.585938 634.453125 405.296875 634.453125 C 342.015625 634.453125 284.738281 608.808594 243.265625 567.335938 C 201.800781 525.863281 176.160156 468.585938 176.160156 405.304688 L 171.507812 405.304688 C 171.507812 534.433594 276.171875 639.105469 405.296875 639.105469 C 534.433594 639.105469 639.105469 534.433594 639.105469 405.304688 C 639.105469 276.179688 534.433594 171.496094 405.296875 171.496094 C 276.171875 171.496094 171.507812 276.179688 171.507812 405.304688 Z M 23.90625 347.402344 L 21.578125 347.402344 L 21.578125 463.199219 C 21.578125 474.449219 30.695312 483.570312 41.945312 483.570312 L 98.601562 483.570312 L 98.601562 481.246094 L 96.339844 481.800781 C 104.082031 513.1875 116.476562 542.726562 132.75 569.671875 L 134.738281 568.472656 L 133.09375 566.828125 L 93.03125 606.882812 C 89.050781 610.855469 87.058594 616.085938 87.058594 621.292969 C 87.058594 626.5 89.050781 631.726562 93.03125 635.699219 L 174.90625 717.582031 C 178.882812 721.550781 184.109375 723.550781 189.316406 723.550781 C 194.523438 723.550781 199.75 721.550781 203.71875 717.582031 L 243.785156 677.515625 L 242.140625 675.871094 L 240.941406 677.863281 C 267.882812 694.136719 297.425781 706.523438 328.800781 714.265625 L 329.355469 712.011719 L 327.03125 712.011719 L 327.03125 768.648438 C 327.03125 779.910156 336.152344 789.023438 347.402344 789.03125 L 463.199219 789.03125 C 474.457031 789.023438 483.570312 779.910156 483.570312 768.648438 L 483.570312 712.011719 L 481.246094 712.011719 L 481.800781 714.265625 C 513.1875 706.523438 542.738281 694.136719 569.664062 677.863281 L 568.460938 675.871094 L 566.816406 677.515625 L 606.882812 717.582031 C 610.863281 721.550781 616.085938 723.542969 621.292969 723.542969 C 626.5 723.542969 631.726562 721.550781 635.699219 717.582031 L 717.570312 635.699219 C 721.550781 631.726562 723.550781 626.5 723.542969 621.292969 C 723.550781 616.085938 721.550781 610.855469 717.570312 606.882812 L 677.507812 566.816406 L 675.863281 568.460938 L 677.863281 569.671875 C 694.136719 542.726562 706.523438 513.1875 714.265625 481.800781 L 712 481.246094 L 712 483.570312 L 768.648438 483.570312 C 779.898438 483.570312 789.023438 474.457031 789.023438 463.199219 L 789.023438 347.402344 C 789.023438 336.152344 779.898438 327.03125 768.648438 327.03125 L 712 327.03125 L 712 329.355469 L 714.265625 328.800781 C 706.523438 297.425781 694.136719 267.875 677.863281 240.941406 L 675.863281 242.140625 L 677.507812 243.785156 L 717.582031 203.71875 C 721.550781 199.75 723.550781 194.523438 723.542969 189.316406 C 723.550781 184.109375 721.550781 178.882812 717.582031 174.914062 L 635.699219 93.03125 C 631.726562 89.058594 626.5 87.058594 621.292969 87.058594 C 616.085938 87.058594 610.855469 89.058594 606.882812 93.03125 L 566.816406 133.09375 L 568.460938 134.730469 L 569.664062 132.75 C 542.738281 116.464844 513.1875 104.082031 481.800781 96.339844 L 481.246094 98.601562 L 483.570312 98.601562 L 483.570312 41.953125 C 483.570312 30.703125 474.457031 21.578125 463.199219 21.578125 L 347.402344 21.578125 C 336.152344 21.578125 327.03125 30.703125 327.03125 41.953125 L 327.03125 98.601562 L 329.355469 98.601562 L 328.800781 96.339844 C 297.425781 104.082031 267.882812 116.464844 240.941406 132.75 L 242.140625 134.730469 L 243.785156 133.09375 L 203.710938 93.03125 L 203.71875 93.03125 C 199.75 89.058594 194.523438 87.058594 189.316406 87.058594 C 184.109375 87.058594 178.882812 89.058594 174.90625 93.03125 L 93.023438 174.914062 C 89.050781 178.882812 87.050781 184.109375 87.058594 189.316406 C 87.050781 194.523438 89.050781 199.75 93.023438 203.71875 L 133.09375 243.785156 L 134.738281 242.140625 L 132.75 240.941406 C 116.476562 267.875 104.082031 297.425781 96.339844 328.800781 L 98.601562 329.355469 L 98.601562 327.03125 L 41.945312 327.03125 C 30.695312 327.03125 21.578125 336.152344 21.578125 347.402344 L 26.230469 347.402344 C 26.230469 343.058594 27.984375 339.144531 30.839844 336.289062 C 33.683594 333.445312 37.601562 331.683594 41.945312 331.683594 L 98.601562 331.683594 C 99.664062 331.683594 100.601562 330.957031 100.855469 329.910156 C 108.488281 298.996094 120.691406 269.882812 136.730469 243.347656 C 137.285156 242.429688 137.140625 241.25 136.386719 240.496094 L 96.3125 200.429688 C 93.238281 197.359375 91.714844 193.34375 91.714844 189.316406 C 91.714844 185.28125 93.238281 181.273438 96.3125 178.203125 L 178.195312 96.320312 C 181.273438 93.238281 185.28125 91.714844 189.316406 91.714844 C 193.34375 91.714844 197.347656 93.238281 200.421875 96.320312 L 240.496094 136.386719 C 241.25 137.140625 242.429688 137.285156 243.347656 136.730469 C 269.890625 120.691406 299.003906 108.488281 329.910156 100.855469 C 330.945312 100.601562 331.683594 99.664062 331.683594 98.601562 L 331.683594 41.953125 C 331.683594 37.601562 333.4375 33.691406 336.289062 30.839844 C 339.144531 27.984375 343.058594 26.230469 347.402344 26.230469 L 463.199219 26.230469 C 467.550781 26.230469 471.46875 27.984375 474.3125 30.839844 C 477.164062 33.683594 478.917969 37.601562 478.917969 41.953125 L 478.917969 98.601562 C 478.917969 99.664062 479.644531 100.601562 480.691406 100.855469 C 511.605469 108.488281 540.71875 120.691406 567.261719 136.730469 C 568.171875 137.285156 569.351562 137.140625 570.109375 136.386719 L 610.171875 96.320312 C 613.253906 93.238281 617.261719 91.714844 621.292969 91.714844 C 625.320312 91.714844 629.328125 93.238281 632.40625 96.320312 L 714.292969 178.203125 C 717.363281 181.273438 718.890625 185.28125 718.890625 189.316406 C 718.890625 193.34375 717.363281 197.359375 714.292969 200.429688 L 674.21875 240.496094 C 673.464844 241.25 673.316406 242.429688 673.871094 243.347656 C 689.917969 269.890625 702.125 298.996094 709.746094 329.910156 C 710.003906 330.957031 710.9375 331.683594 712 331.683594 L 768.648438 331.683594 C 772.992188 331.683594 776.917969 333.445312 779.761719 336.289062 C 782.617188 339.144531 784.371094 343.058594 784.371094 347.402344 L 784.371094 463.199219 C 784.371094 467.550781 782.617188 471.460938 779.761719 474.3125 C 776.917969 477.164062 772.992188 478.917969 768.648438 478.917969 L 712 478.917969 C 710.9375 478.917969 710.003906 479.65625 709.746094 480.691406 C 702.125 511.613281 689.917969 540.71875 673.871094 567.261719 C 673.316406 568.171875 673.464844 569.351562 674.21875 570.109375 L 714.28125 610.171875 C 717.363281 613.253906 718.890625 617.261719 718.890625 621.292969 C 718.890625 625.320312 717.363281 629.328125 714.28125 632.40625 L 632.40625 714.28125 C 629.328125 717.363281 625.320312 718.890625 621.292969 718.890625 C 617.261719 718.890625 613.253906 717.363281 610.171875 714.28125 L 570.109375 674.226562 C 569.351562 673.472656 568.171875 673.328125 567.261719 673.882812 C 540.71875 689.910156 511.605469 702.113281 480.691406 709.746094 C 479.644531 710.003906 478.917969 710.9375 478.917969 712.011719 L 478.917969 768.648438 C 478.917969 773.003906 477.164062 776.917969 474.3125 779.773438 C 471.46875 782.617188 467.550781 784.378906 463.199219 784.378906 L 347.402344 784.378906 C 343.058594 784.378906 339.144531 782.617188 336.289062 779.773438 C 333.4375 776.917969 331.683594 773.003906 331.683594 768.648438 L 331.683594 712.011719 C 331.683594 710.9375 330.945312 710.003906 329.910156 709.746094 C 299.003906 702.113281 269.890625 689.910156 243.347656 673.882812 C 242.429688 673.328125 241.25 673.472656 240.496094 674.226562 L 200.429688 714.28125 C 197.359375 717.363281 193.351562 718.890625 189.316406 718.898438 C 185.28125 718.890625 181.273438 717.363281 178.195312 714.28125 L 96.320312 632.40625 C 93.238281 629.328125 91.714844 625.320312 91.714844 621.292969 C 91.714844 617.261719 93.238281 613.253906 96.320312 610.171875 L 136.386719 570.117188 C 137.140625 569.351562 137.285156 568.179688 136.730469 567.261719 C 120.691406 540.71875 108.488281 511.605469 100.855469 480.691406 C 100.601562 479.65625 99.664062 478.917969 98.601562 478.917969 L 41.945312 478.917969 C 37.601562 478.917969 33.683594 477.164062 30.839844 474.320312 C 27.984375 471.46875 26.230469 467.550781 26.230469 463.199219 L 26.230469 347.402344 L 23.90625 347.402344 "/>
</g>
<path style=" stroke:none;fill-rule:nonzero;fill:rgb(100%,100%,100%);fill-opacity:1;" d="M 260.296875 405.304688 C 260.296875 325.222656 325.210938 260.296875 405.296875 260.296875 C 485.390625 260.296875 550.308594 325.222656 550.308594 405.304688 C 550.308594 485.390625 485.390625 550.316406 405.296875 550.316406 C 325.210938 550.316406 260.296875 485.390625 260.296875 405.304688 Z M 237.976562 405.304688 C 237.976562 497.710938 312.890625 572.625 405.296875 572.625 C 497.710938 572.625 572.625 497.710938 572.625 405.304688 C 572.625 312.890625 497.710938 237.976562 405.296875 237.976562 C 312.890625 237.976562 237.976562 312.890625 237.976562 405.304688 "/>
<path style=" stroke:none;fill-rule:nonzero;fill:rgb(1.568604%,2.349854%,2.349854%);fill-opacity:1;" d="M 260.296875 405.304688 L 262.621094 405.304688 C 262.621094 365.894531 278.585938 330.238281 304.414062 304.414062 C 330.238281 278.585938 365.894531 262.621094 405.296875 262.621094 C 444.707031 262.621094 480.363281 278.585938 506.191406 304.414062 C 532.015625 330.238281 547.980469 365.894531 547.980469 405.304688 C 547.980469 444.714844 532.015625 480.363281 506.191406 506.199219 C 480.363281 532.015625 444.707031 547.980469 405.296875 547.988281 C 365.894531 547.980469 330.238281 532.015625 304.414062 506.199219 C 278.585938 480.363281 262.621094 444.714844 262.621094 405.304688 L 257.96875 405.304688 C 257.96875 486.679688 323.929688 552.632812 405.296875 552.640625 C 486.671875 552.632812 552.632812 486.679688 552.632812 405.304688 C 552.632812 323.929688 486.671875 257.96875 405.296875 257.96875 C 323.929688 257.96875 257.96875 323.929688 257.96875 405.304688 Z M 237.976562 405.304688 L 235.652344 405.304688 C 235.652344 499 311.601562 574.949219 405.296875 574.949219 C 499 574.949219 574.949219 499 574.949219 405.304688 C 574.949219 311.609375 499 235.652344 405.296875 235.652344 C 311.601562 235.652344 235.652344 311.609375 235.652344 405.304688 L 240.304688 405.304688 C 240.304688 359.734375 258.769531 318.496094 288.628906 288.628906 C 318.496094 258.769531 359.734375 240.304688 405.296875 240.304688 C 450.867188 240.304688 492.105469 258.769531 521.972656 288.628906 C 551.832031 318.496094 570.296875 359.734375 570.296875 405.304688 C 570.296875 450.878906 551.832031 492.105469 521.972656 521.972656 C 492.105469 551.832031 450.867188 570.296875 405.296875 570.296875 C 359.734375 570.296875 318.496094 551.832031 288.628906 521.972656 C 258.769531 492.105469 240.304688 450.878906 240.304688 405.304688 L 237.976562 405.304688 "/>
<path style=" stroke:none;fill-rule:nonzero;fill:rgb(1.568604%,2.349854%,2.349854%);fill-opacity:1;" d="M 405.296875 140.347656 L 405.296875 142.671875 C 477.828125 142.683594 543.472656 172.070312 591.007812 219.605469 C 638.53125 267.128906 667.929688 332.773438 667.929688 405.304688 C 667.929688 477.828125 638.53125 543.472656 591.007812 591.007812 C 543.472656 638.53125 477.828125 667.929688 405.296875 667.929688 C 332.773438 667.929688 267.128906 638.542969 219.59375 591.007812 C 172.070312 543.472656 142.683594 477.828125 142.671875 405.304688 C 142.683594 332.773438 172.070312 267.128906 219.59375 219.605469 C 267.128906 172.070312 332.773438 142.683594 405.296875 142.671875 L 405.296875 138.019531 C 257.6875 138.03125 138.03125 257.6875 138.019531 405.304688 C 138.03125 552.914062 257.6875 672.582031 405.296875 672.582031 C 552.914062 672.582031 672.582031 552.914062 672.582031 405.304688 C 672.582031 257.6875 552.914062 138.03125 405.296875 138.019531 L 405.296875 140.347656 "/>
<path style=" stroke:none;fill-rule:nonzero;fill:rgb(100%,100%,100%);fill-opacity:1;" d="M 389.957031 74.074219 C 389.957031 82.542969 396.820312 89.414062 405.296875 89.414062 C 413.773438 89.414062 420.644531 82.542969 420.644531 74.074219 C 420.644531 65.597656 413.773438 58.726562 405.296875 58.726562 C 396.820312 58.726562 389.957031 65.597656 389.957031 74.074219 "/>
<path style=" stroke:none;fill-rule:nonzero;fill:rgb(1.568604%,2.349854%,2.349854%);fill-opacity:1;" d="M 389.957031 74.074219 L 387.632812 74.074219 C 387.632812 83.824219 395.539062 91.742188 405.296875 91.742188 C 415.054688 91.742188 422.972656 83.835938 422.972656 74.074219 C 422.972656 64.316406 415.054688 56.402344 405.296875 56.402344 C 395.539062 56.402344 387.632812 64.316406 387.632812 74.074219 L 392.285156 74.074219 C 392.285156 70.46875 393.738281 67.234375 396.089844 64.871094 C 398.453125 62.507812 401.699219 61.054688 405.296875 61.054688 C 408.902344 61.054688 412.140625 62.507812 414.5 64.871094 C 416.863281 67.234375 418.316406 70.46875 418.316406 74.074219 C 418.316406 77.671875 416.863281 80.910156 414.5 83.28125 C 412.140625 85.632812 408.902344 87.085938 405.296875 87.085938 C 401.699219 87.085938 398.453125 85.632812 396.089844 83.28125 C 393.738281 80.910156 392.285156 77.671875 392.285156 74.074219 L 389.957031 74.074219 "/>
<path style=" stroke:none;fill-rule:nonzero;fill:rgb(100%,100%,100%);fill-opacity:1;" d="M 389.957031 736.535156 C 389.957031 745.015625 396.820312 751.875 405.296875 751.875 C 413.773438 751.875 420.644531 745.015625 420.644531 736.535156 C 420.644531 728.066406 413.773438 721.199219 405.296875 721.199219 C 396.820312 721.199219 389.957031 728.066406 389.957031 736.535156 "/>
<path style=" stroke:none;fill-rule:nonzero;fill:rgb(1.568604%,2.349854%,2.349854%);fill-opacity:1;" d="M 389.957031 736.535156 L 387.632812 736.535156 C 387.632812 746.296875 395.539062 754.203125 405.296875 754.203125 C 415.054688 754.203125 422.972656 746.296875 422.972656 736.535156 C 422.972656 726.777344 415.054688 718.871094 405.296875 718.871094 C 395.539062 718.871094 387.632812 726.777344 387.632812 736.535156 L 392.285156 736.535156 C 392.285156 732.9375 393.738281 729.695312 396.089844 727.332031 C 398.453125 724.976562 401.699219 723.523438 405.296875 723.523438 C 408.902344 723.523438 412.140625 724.976562 414.5 727.332031 C 416.863281 729.695312 418.316406 732.9375 418.316406 736.535156 C 418.316406 740.132812 416.863281 743.378906 414.5 745.742188 C 412.140625 748.09375 408.902344 749.546875 405.296875 749.546875 C 401.699219 749.546875 398.453125 748.09375 396.089844 745.742188 C 393.738281 743.378906 392.285156 740.132812 392.285156 736.535156 L 389.957031 736.535156 "/>
<path style=" stroke:none;fill-rule:nonzero;fill:rgb(100%,100%,100%);fill-opacity:1;" d="M 160.230469 181.9375 C 166.226562 187.925781 175.941406 187.925781 181.929688 181.9375 C 187.917969 175.949219 187.917969 166.234375 181.929688 160.238281 C 175.949219 154.25 166.226562 154.25 160.230469 160.238281 C 154.242188 166.234375 154.25 175.949219 160.230469 181.9375 "/>
<path style=" stroke:none;fill-rule:nonzero;fill:rgb(1.568604%,2.349854%,2.349854%);fill-opacity:1;" d="M 160.230469 181.9375 L 158.59375 183.582031 C 162.039062 187.027344 166.570312 188.761719 171.078125 188.753906 C 175.59375 188.761719 180.128906 187.027344 183.574219 183.582031 C 187.019531 180.140625 188.753906 175.605469 188.753906 171.089844 C 188.753906 166.570312 187.019531 162.039062 183.574219 158.59375 C 180.140625 155.148438 175.605469 153.414062 171.089844 153.421875 C 166.570312 153.414062 162.039062 155.148438 158.59375 158.59375 L 158.585938 158.59375 C 155.140625 162.039062 153.414062 166.570312 153.414062 171.089844 C 153.414062 175.605469 155.140625 180.140625 158.585938 183.574219 L 158.59375 183.582031 L 160.230469 181.9375 L 161.882812 180.292969 C 159.339844 177.738281 158.074219 174.421875 158.066406 171.089844 C 158.074219 167.742188 159.328125 164.425781 161.882812 161.882812 L 161.875 161.882812 C 164.425781 159.339844 167.753906 158.074219 171.089844 158.074219 C 174.433594 158.074219 177.738281 159.339844 180.285156 161.882812 C 182.828125 164.425781 184.089844 167.753906 184.101562 171.089844 C 184.089844 174.421875 182.828125 177.738281 180.285156 180.285156 C 177.738281 182.835938 174.421875 184.101562 171.078125 184.101562 C 167.742188 184.101562 164.425781 182.835938 161.875 180.285156 L 161.882812 180.292969 L 160.230469 181.9375 "/>
<path style=" stroke:none;fill-rule:nonzero;fill:rgb(100%,100%,100%);fill-opacity:1;" d="M 628.671875 650.375 C 634.660156 656.363281 644.375 656.363281 650.363281 650.375 C 656.351562 644.375 656.351562 634.660156 650.363281 628.671875 C 644.375 622.683594 634.660156 622.683594 628.671875 628.671875 C 622.675781 634.660156 622.675781 644.375 628.671875 650.375 "/>
<path style=" stroke:none;fill-rule:nonzero;fill:rgb(1.568604%,2.349854%,2.349854%);fill-opacity:1;" d="M 628.671875 650.375 L 627.027344 652.019531 C 630.472656 655.460938 635.007812 657.1875 639.523438 657.1875 C 644.03125 657.1875 648.566406 655.460938 652.007812 652.019531 C 655.453125 648.566406 657.1875 644.03125 657.1875 639.515625 C 657.1875 635.007812 655.453125 630.472656 652.007812 627.027344 C 648.566406 623.585938 644.03125 621.847656 639.523438 621.847656 C 635.007812 621.847656 630.472656 623.585938 627.027344 627.027344 C 623.574219 630.472656 621.847656 635.007812 621.847656 639.523438 C 621.847656 644.039062 623.574219 648.574219 627.027344 652.019531 L 628.671875 650.375 L 630.316406 648.71875 C 627.765625 646.175781 626.5 642.859375 626.5 639.523438 C 626.5 636.179688 627.765625 632.871094 630.316406 630.316406 C 632.863281 627.773438 636.179688 626.511719 639.523438 626.5 C 642.859375 626.511719 646.175781 627.773438 648.71875 630.316406 C 651.261719 632.863281 652.527344 636.179688 652.535156 639.515625 C 652.527344 642.859375 651.261719 646.175781 648.71875 648.726562 C 646.175781 651.273438 642.859375 652.535156 639.523438 652.535156 C 636.179688 652.535156 632.863281 651.273438 630.316406 648.71875 L 628.671875 650.375 "/>
<path style=" stroke:none;fill-rule:nonzero;fill:rgb(100%,100%,100%);fill-opacity:1;" d="M 736.535156 389.96875 C 728.058594 389.96875 721.195312 396.835938 721.195312 405.304688 C 721.195312 413.773438 728.058594 420.644531 736.535156 420.644531 C 745.003906 420.644531 751.867188 413.773438 751.867188 405.304688 C 751.867188 396.835938 745.003906 389.96875 736.535156 389.96875 "/>
<path style=" stroke:none;fill-rule:nonzero;fill:rgb(1.568604%,2.349854%,2.349854%);fill-opacity:1;" d="M 736.535156 389.96875 L 736.535156 387.640625 C 726.777344 387.640625 718.871094 395.546875 718.871094 405.304688 C 718.871094 415.066406 726.777344 422.972656 736.535156 422.972656 C 746.296875 422.972656 754.191406 415.066406 754.191406 405.304688 C 754.191406 395.546875 746.296875 387.640625 736.535156 387.640625 L 736.535156 392.292969 C 740.132812 392.292969 743.378906 393.746094 745.730469 396.101562 C 748.085938 398.464844 749.539062 401.707031 749.539062 405.304688 C 749.539062 408.902344 748.09375 412.148438 745.730469 414.511719 C 743.378906 416.863281 740.132812 418.316406 736.535156 418.316406 C 732.9375 418.316406 729.695312 416.863281 727.332031 414.511719 C 724.976562 412.148438 723.523438 408.902344 723.523438 405.304688 C 723.523438 401.707031 724.976562 398.464844 727.332031 396.101562 C 729.695312 393.746094 732.9375 392.292969 736.535156 392.292969 L 736.535156 389.96875 "/>
<path style=" stroke:none;fill-rule:nonzero;fill:rgb(100%,100%,100%);fill-opacity:1;" d="M 74.066406 389.96875 C 65.597656 389.96875 58.726562 396.835938 58.726562 405.304688 C 58.726562 413.773438 65.597656 420.644531 74.066406 420.644531 C 82.542969 420.644531 89.40625 413.773438 89.40625 405.304688 C 89.40625 396.835938 82.542969 389.96875 74.066406 389.96875 "/>
<path style=" stroke:none;fill-rule:nonzero;fill:rgb(1.568604%,2.349854%,2.349854%);fill-opacity:1;" d="M 74.066406 389.96875 L 74.066406 387.640625 C 64.308594 387.640625 56.402344 395.546875 56.402344 405.304688 C 56.402344 415.066406 64.308594 422.972656 74.066406 422.972656 C 83.824219 422.972656 91.730469 415.066406 91.730469 405.304688 C 91.730469 395.546875 83.824219 387.640625 74.066406 387.640625 L 74.066406 392.292969 C 77.671875 392.292969 80.910156 393.746094 83.269531 396.101562 C 85.625 398.464844 87.078125 401.707031 87.078125 405.304688 C 87.078125 408.902344 85.625 412.148438 83.269531 414.511719 C 80.910156 416.863281 77.671875 418.316406 74.066406 418.316406 C 70.46875 418.316406 67.234375 416.863281 64.859375 414.511719 C 62.507812 412.140625 61.054688 408.902344 61.054688 405.304688 C 61.054688 401.707031 62.507812 398.464844 64.871094 396.101562 C 67.234375 393.746094 70.46875 392.292969 74.066406 392.292969 L 74.066406 389.96875 "/>
<path style=" stroke:none;fill-rule:nonzero;fill:rgb(100%,100%,100%);fill-opacity:1;" d="M 628.671875 160.238281 C 622.675781 166.234375 622.675781 175.949219 628.671875 181.9375 C 634.660156 187.925781 644.375 187.925781 650.363281 181.9375 C 656.351562 175.949219 656.351562 166.234375 650.363281 160.238281 C 644.375 154.25 634.660156 154.25 628.671875 160.238281 "/>
<path style=" stroke:none;fill-rule:nonzero;fill:rgb(1.568604%,2.349854%,2.349854%);fill-opacity:1;" d="M 628.671875 160.238281 L 627.027344 158.59375 C 623.574219 162.039062 621.847656 166.570312 621.847656 171.089844 C 621.847656 175.605469 623.574219 180.140625 627.027344 183.582031 C 630.472656 187.027344 635.007812 188.761719 639.515625 188.753906 C 644.03125 188.761719 648.566406 187.027344 652.007812 183.574219 C 655.453125 180.140625 657.1875 175.605469 657.179688 171.089844 C 657.1875 166.570312 655.453125 162.039062 652.007812 158.59375 C 648.566406 155.148438 644.03125 153.414062 639.523438 153.421875 C 635.007812 153.414062 630.472656 155.148438 627.027344 158.59375 L 630.316406 161.882812 C 632.863281 159.339844 636.179688 158.074219 639.523438 158.074219 C 642.859375 158.074219 646.175781 159.339844 648.71875 161.882812 C 651.261719 164.4375 652.527344 167.753906 652.527344 171.089844 C 652.527344 174.433594 651.261719 177.738281 648.71875 180.285156 C 646.175781 182.835938 642.859375 184.101562 639.515625 184.101562 C 636.179688 184.101562 632.863281 182.835938 630.316406 180.285156 C 627.765625 177.738281 626.5 174.421875 626.5 171.089844 C 626.5 167.753906 627.765625 164.4375 630.316406 161.882812 L 628.671875 160.238281 "/>
<path style=" stroke:none;fill-rule:nonzero;fill:rgb(100%,100%,100%);fill-opacity:1;" d="M 160.230469 628.671875 C 154.25 634.660156 154.242188 644.375 160.230469 650.375 C 166.226562 656.351562 175.941406 656.363281 181.929688 650.375 C 187.917969 644.375 187.917969 634.660156 181.929688 628.671875 C 175.941406 622.683594 166.226562 622.683594 160.230469 628.671875 "/>
<path style=" stroke:none;fill-rule:nonzero;fill:rgb(1.568604%,2.349854%,2.349854%);fill-opacity:1;" d="M 160.230469 628.671875 L 158.585938 627.027344 C 155.140625 630.472656 153.414062 635.007812 153.414062 639.523438 C 153.414062 644.03125 155.140625 648.574219 158.585938 652.019531 L 158.59375 652.019531 C 162.039062 655.460938 166.570312 657.1875 171.089844 657.1875 C 175.59375 657.1875 180.128906 655.460938 183.574219 652.019531 C 187.019531 648.574219 188.753906 644.03125 188.753906 639.523438 C 188.753906 635.007812 187.019531 630.472656 183.574219 627.027344 C 180.128906 623.585938 175.59375 621.847656 171.078125 621.847656 C 166.570312 621.847656 162.039062 623.585938 158.59375 627.027344 L 158.585938 627.027344 L 161.875 630.316406 C 164.425781 627.773438 167.742188 626.511719 171.078125 626.5 C 174.421875 626.511719 177.738281 627.773438 180.285156 630.316406 C 182.828125 632.863281 184.089844 636.179688 184.101562 639.523438 C 184.089844 642.859375 182.828125 646.175781 180.285156 648.726562 L 180.285156 648.71875 C 177.738281 651.273438 174.421875 652.527344 171.089844 652.535156 C 167.742188 652.527344 164.425781 651.261719 161.875 648.71875 L 161.882812 648.726562 C 159.328125 646.175781 158.074219 642.859375 158.066406 639.523438 C 158.074219 636.179688 159.339844 632.863281 161.882812 630.316406 L 161.875 630.316406 L 160.230469 628.671875 "/>
</g>
</svg>
