<?xml version="1.0" encoding="UTF-8"?>
<svg xmlns="http://www.w3.org/2000/svg" xmlns:xlink="http://www.w3.org/1999/xlink" width="810pt" height="809.999993pt" viewBox="0 0 810 809.999993" version="1.2">
<defs>
<clipPath id="clip1">
  <path d="M 37 37.460938 L 773 37.460938 L 773 541 L 37 541 Z M 37 37.460938 "/>
</clipPath>
<clipPath id="clip2">
  <path d="M 18.117188 37.460938 L 792.117188 37.460938 L 792.117188 541 L 18.117188 541 Z M 18.117188 37.460938 "/>
</clipPath>
<clipPath id="clip3">
  <path d="M 618 559 L 735 559 L 735 772.390625 L 618 772.390625 Z M 618 559 "/>
</clipPath>
</defs>
<g id="surface1">
<path style=" stroke:none;fill-rule:nonzero;fill:rgb(87.449646%,94.119263%,99.609375%);fill-opacity:1;" d="M 589.113281 530.636719 L 589.113281 424.265625 C 589.113281 397.617188 567.414062 375.914062 540.722656 375.914062 L 269.746094 375.914062 C 147.011719 375.914062 47.15625 276.140625 47.15625 153.503906 L 47.15625 47.132812 L 221.355469 47.132812 L 221.355469 153.503906 C 221.355469 180.152344 243.054688 201.851562 269.746094 201.851562 L 540.722656 201.851562 C 663.457031 201.851562 763.3125 301.628906 763.3125 424.265625 L 763.3125 530.636719 Z M 589.113281 530.636719 "/>
<g clip-path="url(#clip1)" clip-rule="nonzero">
<path style=" stroke:none;fill-rule:nonzero;fill:rgb(27.839661%,53.329468%,78.039551%);fill-opacity:1;" d="M 211.675781 56.800781 L 211.675781 153.503906 C 211.675781 185.492188 237.730469 211.523438 269.746094 211.523438 L 540.722656 211.523438 C 658.117188 211.523438 753.636719 306.96875 753.636719 424.265625 L 753.636719 520.96875 L 598.792969 520.96875 L 598.792969 424.265625 C 598.792969 392.277344 572.738281 366.246094 540.722656 366.246094 L 269.746094 366.246094 C 152.351562 366.246094 56.832031 270.800781 56.832031 153.503906 L 56.832031 56.800781 L 211.675781 56.800781 M 231.035156 37.460938 L 37.476562 37.460938 L 37.476562 153.503906 C 37.476562 281.671875 141.472656 385.585938 269.746094 385.585938 L 540.722656 385.585938 C 562.113281 385.585938 579.433594 402.894531 579.433594 424.265625 L 579.433594 540.308594 L 772.992188 540.308594 L 772.992188 424.265625 C 772.992188 296.097656 668.992188 192.183594 540.722656 192.183594 L 269.746094 192.183594 C 248.355469 192.183594 231.035156 174.875 231.035156 153.503906 Z M 231.035156 37.460938 "/>
</g>
<g clip-path="url(#clip2)" clip-rule="nonzero">
<path style="fill:none;stroke-width:1;stroke-linecap:round;stroke-linejoin:miter;stroke:rgb(27.839661%,53.329468%,78.039551%);stroke-opacity:1;stroke-miterlimit:10;" d="M 0.49991 1.500075 L 11.499994 1.500075 M 28.500015 26.49995 L 39.500099 26.49995 " transform="matrix(19.355675,0,0,19.340252,18.120786,18.120991)"/>
</g>
<path style=" stroke:none;fill-rule:nonzero;fill:rgb(59.609985%,79.998779%,99.21875%);fill-opacity:1;" d="M 676.214844 762.722656 C 649.523438 762.722656 627.824219 741.019531 627.824219 714.371094 C 627.824219 695.105469 654.226562 630.859375 676.214844 582.625 C 698.203125 630.859375 724.601562 695.105469 724.601562 714.371094 C 724.601562 741.019531 702.90625 762.722656 676.214844 762.722656 Z M 676.214844 762.722656 "/>
<g clip-path="url(#clip3)" clip-rule="nonzero">
<path style=" stroke:none;fill-rule:nonzero;fill:rgb(27.839661%,53.329468%,78.039551%);fill-opacity:1;" d="M 676.214844 606.335938 C 695.703125 650.683594 714.925781 699.769531 714.925781 714.371094 C 714.925781 735.703125 697.5625 753.050781 676.214844 753.050781 C 654.863281 753.050781 637.503906 735.703125 637.503906 714.371094 C 637.503906 699.769531 656.722656 650.683594 676.214844 606.335938 M 676.214844 559.648438 C 676.214844 559.648438 618.148438 682.324219 618.148438 714.371094 C 618.148438 746.417969 644.140625 772.390625 676.214844 772.390625 C 708.285156 772.390625 734.28125 746.417969 734.28125 714.371094 C 734.28125 682.324219 676.214844 559.648438 676.214844 559.648438 Z M 676.214844 559.648438 "/>
</g>
<path style="fill:none;stroke-width:1;stroke-linecap:round;stroke-linejoin:miter;stroke:rgb(27.839661%,53.329468%,78.039551%);stroke-opacity:1;stroke-miterlimit:10;" d="M 19.499909 8.499927 L 19.499909 19.500098 " transform="matrix(19.355675,0,0,19.340252,18.120786,18.120991)"/>
<path style=" stroke:none;fill-rule:nonzero;fill:rgb(27.839661%,53.329468%,78.039551%);fill-opacity:1;" d="M 434.269531 211.523438 C 433.632812 211.523438 433.003906 211.585938 432.378906 211.710938 C 431.757812 211.832031 431.152344 212.015625 430.5625 212.257812 C 429.976562 212.503906 429.417969 212.800781 428.890625 213.152344 C 428.363281 213.507812 427.875 213.90625 427.425781 214.355469 C 426.976562 214.804688 426.574219 215.292969 426.222656 215.820312 C 425.867188 216.347656 425.570312 216.90625 425.328125 217.492188 C 425.082031 218.078125 424.898438 218.683594 424.777344 219.308594 C 424.652344 219.929688 424.589844 220.558594 424.589844 221.195312 C 424.589844 221.828125 424.652344 222.457031 424.777344 223.082031 C 424.898438 223.703125 425.082031 224.308594 425.328125 224.894531 C 425.570312 225.480469 425.867188 226.039062 426.222656 226.566406 C 426.574219 227.09375 426.976562 227.582031 427.425781 228.03125 C 427.875 228.480469 428.363281 228.882812 428.890625 229.234375 C 429.417969 229.585938 429.976562 229.882812 430.5625 230.128906 C 431.152344 230.371094 431.757812 230.554688 432.378906 230.679688 C 433.003906 230.800781 433.632812 230.863281 434.269531 230.863281 C 434.902344 230.863281 435.53125 230.800781 436.15625 230.679688 C 436.777344 230.554688 437.382812 230.371094 437.972656 230.128906 C 438.558594 229.882812 439.117188 229.585938 439.644531 229.234375 C 440.171875 228.882812 440.660156 228.480469 441.109375 228.03125 C 441.558594 227.582031 441.960938 227.09375 442.316406 226.566406 C 442.667969 226.039062 442.964844 225.480469 443.207031 224.894531 C 443.453125 224.308594 443.636719 223.703125 443.757812 223.082031 C 443.882812 222.457031 443.945312 221.828125 443.945312 221.195312 C 443.945312 220.558594 443.882812 219.929688 443.757812 219.308594 C 443.636719 218.683594 443.453125 218.078125 443.207031 217.492188 C 442.964844 216.90625 442.667969 216.347656 442.316406 215.820312 C 441.960938 215.292969 441.558594 214.804688 441.109375 214.355469 C 440.660156 213.90625 440.171875 213.507812 439.644531 213.152344 C 439.117188 212.800781 438.558594 212.503906 437.972656 212.257812 C 437.382812 212.015625 436.777344 211.832031 436.15625 211.710938 C 435.53125 211.585938 434.902344 211.523438 434.269531 211.523438 Z M 434.269531 250.203125 C 433.632812 250.203125 433.003906 250.265625 432.378906 250.390625 C 431.757812 250.515625 431.152344 250.695312 430.5625 250.941406 C 429.976562 251.183594 429.417969 251.480469 428.890625 251.832031 C 428.363281 252.1875 427.875 252.585938 427.425781 253.035156 C 426.976562 253.484375 426.574219 253.972656 426.222656 254.5 C 425.867188 255.03125 425.570312 255.585938 425.328125 256.171875 C 425.082031 256.761719 424.898438 257.363281 424.777344 257.988281 C 424.652344 258.609375 424.589844 259.238281 424.589844 259.875 C 424.589844 260.507812 424.652344 261.136719 424.777344 261.761719 C 424.898438 262.382812 425.082031 262.988281 425.328125 263.574219 C 425.570312 264.160156 425.867188 264.71875 426.222656 265.246094 C 426.574219 265.773438 426.976562 266.261719 427.425781 266.710938 C 427.875 267.160156 428.363281 267.5625 428.890625 267.914062 C 429.417969 268.265625 429.976562 268.566406 430.5625 268.808594 C 431.152344 269.050781 431.757812 269.234375 432.378906 269.359375 C 433.003906 269.480469 433.632812 269.542969 434.269531 269.542969 C 434.902344 269.542969 435.53125 269.480469 436.15625 269.359375 C 436.777344 269.234375 437.382812 269.050781 437.972656 268.808594 C 438.558594 268.566406 439.117188 268.265625 439.644531 267.914062 C 440.171875 267.5625 440.660156 267.160156 441.109375 266.710938 C 441.558594 266.261719 441.960938 265.773438 442.316406 265.246094 C 442.667969 264.71875 442.964844 264.160156 443.207031 263.574219 C 443.453125 262.988281 443.636719 262.382812 443.757812 261.761719 C 443.882812 261.136719 443.945312 260.507812 443.945312 259.875 C 443.945312 259.238281 443.882812 258.609375 443.757812 257.988281 C 443.636719 257.363281 443.453125 256.761719 443.207031 256.171875 C 442.964844 255.585938 442.667969 255.03125 442.316406 254.5 C 441.960938 253.972656 441.558594 253.484375 441.109375 253.035156 C 440.660156 252.585938 440.171875 252.1875 439.644531 251.832031 C 439.117188 251.480469 438.558594 251.183594 437.972656 250.941406 C 437.382812 250.695312 436.777344 250.515625 436.15625 250.390625 C 435.53125 250.265625 434.902344 250.203125 434.269531 250.203125 Z M 434.269531 288.882812 C 433.632812 288.882812 433.003906 288.945312 432.378906 289.070312 C 431.757812 289.195312 431.152344 289.378906 430.5625 289.621094 C 429.976562 289.863281 429.417969 290.160156 428.890625 290.515625 C 428.363281 290.867188 427.875 291.269531 427.425781 291.71875 C 426.976562 292.164062 426.574219 292.652344 426.222656 293.183594 C 425.867188 293.710938 425.570312 294.265625 425.328125 294.855469 C 425.082031 295.441406 424.898438 296.046875 424.777344 296.667969 C 424.652344 297.289062 424.589844 297.917969 424.589844 298.554688 C 424.589844 299.191406 424.652344 299.820312 424.777344 300.441406 C 424.898438 301.0625 425.082031 301.667969 425.328125 302.253906 C 425.570312 302.84375 425.867188 303.398438 426.222656 303.925781 C 426.574219 304.453125 426.976562 304.945312 427.425781 305.390625 C 427.875 305.839844 428.363281 306.242188 428.890625 306.59375 C 429.417969 306.949219 429.976562 307.246094 430.5625 307.488281 C 431.152344 307.730469 431.757812 307.914062 432.378906 308.039062 C 433.003906 308.164062 433.632812 308.226562 434.269531 308.226562 C 434.902344 308.226562 435.53125 308.164062 436.15625 308.039062 C 436.777344 307.914062 437.382812 307.730469 437.972656 307.488281 C 438.558594 307.246094 439.117188 306.949219 439.644531 306.59375 C 440.171875 306.242188 440.660156 305.839844 441.109375 305.390625 C 441.558594 304.945312 441.960938 304.453125 442.316406 303.925781 C 442.667969 303.398438 442.964844 302.84375 443.207031 302.253906 C 443.453125 301.667969 443.636719 301.0625 443.757812 300.441406 C 443.882812 299.820312 443.945312 299.191406 443.945312 298.554688 C 443.945312 297.917969 443.882812 297.289062 443.757812 296.667969 C 443.636719 296.046875 443.453125 295.441406 443.207031 294.855469 C 442.964844 294.265625 442.667969 293.710938 442.316406 293.183594 C 441.960938 292.652344 441.558594 292.164062 441.109375 291.71875 C 440.660156 291.269531 440.171875 290.867188 439.644531 290.515625 C 439.117188 290.160156 438.558594 289.863281 437.972656 289.621094 C 437.382812 289.378906 436.777344 289.195312 436.15625 289.070312 C 435.53125 288.945312 434.902344 288.882812 434.269531 288.882812 Z M 434.269531 327.566406 C 433.632812 327.566406 433.003906 327.628906 432.378906 327.75 C 431.757812 327.875 431.152344 328.058594 430.5625 328.300781 C 429.976562 328.542969 429.417969 328.84375 428.890625 329.195312 C 428.363281 329.546875 427.875 329.949219 427.425781 330.398438 C 426.976562 330.847656 426.574219 331.335938 426.222656 331.863281 C 425.867188 332.390625 425.570312 332.949219 425.328125 333.535156 C 425.082031 334.121094 424.898438 334.726562 424.777344 335.347656 C 424.652344 335.972656 424.589844 336.601562 424.589844 337.234375 C 424.589844 337.871094 424.652344 338.5 424.777344 339.121094 C 424.898438 339.746094 425.082031 340.347656 425.328125 340.9375 C 425.570312 341.523438 425.867188 342.078125 426.222656 342.609375 C 426.574219 343.136719 426.976562 343.625 427.425781 344.074219 C 427.875 344.523438 428.363281 344.921875 428.890625 345.277344 C 429.417969 345.628906 429.976562 345.925781 430.5625 346.167969 C 431.152344 346.414062 431.757812 346.59375 432.378906 346.71875 C 433.003906 346.84375 433.632812 346.90625 434.269531 346.90625 C 434.902344 346.90625 435.53125 346.84375 436.15625 346.71875 C 436.777344 346.59375 437.382812 346.414062 437.972656 346.167969 C 438.558594 345.925781 439.117188 345.628906 439.644531 345.277344 C 440.171875 344.921875 440.660156 344.523438 441.109375 344.074219 C 441.558594 343.625 441.960938 343.136719 442.316406 342.609375 C 442.667969 342.078125 442.964844 341.523438 443.207031 340.9375 C 443.453125 340.347656 443.636719 339.746094 443.757812 339.121094 C 443.882812 338.5 443.945312 337.871094 443.945312 337.234375 C 443.945312 336.601562 443.882812 335.972656 443.757812 335.347656 C 443.636719 334.726562 443.453125 334.121094 443.207031 333.535156 C 442.964844 332.949219 442.667969 332.390625 442.316406 331.863281 C 441.960938 331.335938 441.558594 330.847656 441.109375 330.398438 C 440.660156 329.949219 440.171875 329.546875 439.644531 329.195312 C 439.117188 328.84375 438.558594 328.542969 437.972656 328.300781 C 437.382812 328.058594 436.777344 327.875 436.15625 327.75 C 435.53125 327.628906 434.902344 327.566406 434.269531 327.566406 Z M 356.84375 230.863281 C 356.210938 230.863281 355.582031 230.925781 354.957031 231.050781 C 354.332031 231.171875 353.730469 231.355469 353.140625 231.601562 C 352.554688 231.84375 351.996094 232.140625 351.46875 232.492188 C 350.941406 232.847656 350.449219 233.246094 350 233.695312 C 349.550781 234.144531 349.152344 234.632812 348.796875 235.160156 C 348.445312 235.6875 348.148438 236.246094 347.902344 236.832031 C 347.660156 237.417969 347.476562 238.023438 347.351562 238.648438 C 347.230469 239.269531 347.167969 239.898438 347.167969 240.535156 C 347.167969 241.167969 347.230469 241.796875 347.351562 242.421875 C 347.476562 243.042969 347.660156 243.648438 347.902344 244.234375 C 348.148438 244.820312 348.445312 245.378906 348.796875 245.90625 C 349.152344 246.433594 349.550781 246.921875 350 247.371094 C 350.449219 247.820312 350.941406 248.222656 351.46875 248.574219 C 351.996094 248.925781 352.554688 249.226562 353.140625 249.46875 C 353.730469 249.710938 354.332031 249.894531 354.957031 250.019531 C 355.582031 250.140625 356.210938 250.203125 356.84375 250.203125 C 357.480469 250.203125 358.109375 250.140625 358.734375 250.019531 C 359.355469 249.894531 359.960938 249.710938 360.546875 249.46875 C 361.136719 249.226562 361.695312 248.925781 362.222656 248.574219 C 362.75 248.222656 363.238281 247.820312 363.6875 247.371094 C 364.136719 246.921875 364.539062 246.433594 364.890625 245.90625 C 365.246094 245.378906 365.542969 244.820312 365.785156 244.234375 C 366.03125 243.648438 366.214844 243.042969 366.335938 242.421875 C 366.460938 241.796875 366.523438 241.167969 366.523438 240.535156 C 366.523438 239.898438 366.460938 239.269531 366.335938 238.648438 C 366.214844 238.023438 366.03125 237.417969 365.785156 236.832031 C 365.542969 236.246094 365.246094 235.6875 364.890625 235.160156 C 364.539062 234.632812 364.136719 234.144531 363.6875 233.695312 C 363.238281 233.246094 362.75 232.847656 362.222656 232.492188 C 361.695312 232.140625 361.136719 231.84375 360.546875 231.601562 C 359.960938 231.355469 359.355469 231.171875 358.734375 231.050781 C 358.109375 230.925781 357.480469 230.863281 356.84375 230.863281 Z M 356.84375 269.542969 C 356.210938 269.542969 355.582031 269.605469 354.957031 269.730469 C 354.332031 269.855469 353.730469 270.039062 353.140625 270.28125 C 352.554688 270.523438 351.996094 270.820312 351.46875 271.175781 C 350.941406 271.527344 350.449219 271.925781 350 272.375 C 349.550781 272.824219 349.152344 273.3125 348.796875 273.84375 C 348.445312 274.371094 348.148438 274.925781 347.902344 275.515625 C 347.660156 276.101562 347.476562 276.703125 347.351562 277.328125 C 347.230469 277.949219 347.167969 278.578125 347.167969 279.214844 C 347.167969 279.847656 347.230469 280.476562 347.351562 281.101562 C 347.476562 281.722656 347.660156 282.328125 347.902344 282.914062 C 348.148438 283.5 348.445312 284.058594 348.796875 284.585938 C 349.152344 285.113281 349.550781 285.601562 350 286.050781 C 350.449219 286.5 350.941406 286.902344 351.46875 287.253906 C 351.996094 287.609375 352.554688 287.90625 353.140625 288.148438 C 353.730469 288.390625 354.332031 288.574219 354.957031 288.699219 C 355.582031 288.824219 356.210938 288.882812 356.84375 288.882812 C 357.480469 288.882812 358.109375 288.824219 358.734375 288.699219 C 359.355469 288.574219 359.960938 288.390625 360.546875 288.148438 C 361.136719 287.90625 361.695312 287.609375 362.222656 287.253906 C 362.75 286.902344 363.238281 286.5 363.6875 286.050781 C 364.136719 285.601562 364.539062 285.113281 364.890625 284.585938 C 365.246094 284.058594 365.542969 283.5 365.785156 282.914062 C 366.03125 282.328125 366.214844 281.722656 366.335938 281.101562 C 366.460938 280.476562 366.523438 279.847656 366.523438 279.214844 C 366.523438 278.578125 366.460938 277.949219 366.335938 277.328125 C 366.214844 276.703125 366.03125 276.101562 365.785156 275.515625 C 365.542969 274.925781 365.246094 274.371094 364.890625 273.84375 C 364.539062 273.3125 364.136719 272.824219 363.6875 272.375 C 363.238281 271.925781 362.75 271.527344 362.222656 271.175781 C 361.695312 270.820312 361.136719 270.523438 360.546875 270.28125 C 359.960938 270.039062 359.355469 269.855469 358.734375 269.730469 C 358.109375 269.605469 357.480469 269.542969 356.84375 269.542969 Z M 356.84375 308.226562 C 356.210938 308.226562 355.582031 308.285156 354.957031 308.410156 C 354.332031 308.535156 353.730469 308.71875 353.140625 308.960938 C 352.554688 309.203125 351.996094 309.5 351.46875 309.855469 C 350.941406 310.207031 350.449219 310.609375 350 311.058594 C 349.550781 311.507812 349.152344 311.996094 348.796875 312.523438 C 348.445312 313.050781 348.148438 313.609375 347.902344 314.195312 C 347.660156 314.78125 347.476562 315.386719 347.351562 316.007812 C 347.230469 316.632812 347.167969 317.261719 347.167969 317.894531 C 347.167969 318.53125 347.230469 319.160156 347.351562 319.78125 C 347.476562 320.402344 347.660156 321.007812 347.902344 321.59375 C 348.148438 322.183594 348.445312 322.738281 348.796875 323.265625 C 349.152344 323.796875 349.550781 324.285156 350 324.734375 C 350.449219 325.183594 350.941406 325.582031 351.46875 325.933594 C 351.996094 326.289062 352.554688 326.585938 353.140625 326.828125 C 353.730469 327.070312 354.332031 327.253906 354.957031 327.378906 C 355.582031 327.503906 356.210938 327.566406 356.84375 327.566406 C 357.480469 327.566406 358.109375 327.503906 358.734375 327.378906 C 359.355469 327.253906 359.960938 327.070312 360.546875 326.828125 C 361.136719 326.585938 361.695312 326.289062 362.222656 325.933594 C 362.75 325.582031 363.238281 325.183594 363.6875 324.734375 C 364.136719 324.285156 364.539062 323.796875 364.890625 323.265625 C 365.246094 322.738281 365.542969 322.183594 365.785156 321.59375 C 366.03125 321.007812 366.214844 320.402344 366.335938 319.78125 C 366.460938 319.160156 366.523438 318.53125 366.523438 317.894531 C 366.523438 317.261719 366.460938 316.632812 366.335938 316.007812 C 366.214844 315.386719 366.03125 314.78125 365.785156 314.195312 C 365.542969 313.609375 365.246094 313.050781 364.890625 312.523438 C 364.539062 311.996094 364.136719 311.507812 363.6875 311.058594 C 363.238281 310.609375 362.75 310.207031 362.222656 309.855469 C 361.695312 309.5 361.136719 309.203125 360.546875 308.960938 C 359.960938 308.71875 359.355469 308.535156 358.734375 308.410156 C 358.109375 308.285156 357.480469 308.226562 356.84375 308.226562 Z M 356.84375 346.90625 C 356.210938 346.90625 355.582031 346.96875 354.957031 347.089844 C 354.332031 347.214844 353.730469 347.398438 353.140625 347.640625 C 352.554688 347.882812 351.996094 348.183594 351.46875 348.535156 C 350.941406 348.886719 350.449219 349.289062 350 349.738281 C 349.550781 350.1875 349.152344 350.675781 348.796875 351.203125 C 348.445312 351.730469 348.148438 352.289062 347.902344 352.875 C 347.660156 353.460938 347.476562 354.066406 347.351562 354.6875 C 347.230469 355.3125 347.167969 355.941406 347.167969 356.574219 C 347.167969 357.210938 347.230469 357.839844 347.351562 358.460938 C 347.476562 359.085938 347.660156 359.6875 347.902344 360.277344 C 348.148438 360.863281 348.445312 361.417969 348.796875 361.949219 C 349.152344 362.476562 349.550781 362.964844 350 363.414062 C 350.449219 363.863281 350.941406 364.261719 351.46875 364.617188 C 351.996094 364.96875 352.554688 365.265625 353.140625 365.507812 C 353.730469 365.753906 354.332031 365.9375 354.957031 366.058594 C 355.582031 366.183594 356.210938 366.246094 356.84375 366.246094 C 357.480469 366.246094 358.109375 366.183594 358.734375 366.058594 C 359.355469 365.9375 359.960938 365.753906 360.546875 365.507812 C 361.136719 365.265625 361.695312 364.96875 362.222656 364.617188 C 362.75 364.261719 363.238281 363.863281 363.6875 363.414062 C 364.136719 362.964844 364.539062 362.476562 364.890625 361.949219 C 365.246094 361.417969 365.542969 360.863281 365.785156 360.277344 C 366.03125 359.6875 366.214844 359.085938 366.335938 358.460938 C 366.460938 357.839844 366.523438 357.210938 366.523438 356.574219 C 366.523438 355.941406 366.460938 355.3125 366.335938 354.6875 C 366.214844 354.066406 366.03125 353.460938 365.785156 352.875 C 365.542969 352.289062 365.246094 351.730469 364.890625 351.203125 C 364.539062 350.675781 364.136719 350.1875 363.6875 349.738281 C 363.238281 349.289062 362.75 348.886719 362.222656 348.535156 C 361.695312 348.183594 361.136719 347.882812 360.546875 347.640625 C 359.960938 347.398438 359.355469 347.214844 358.734375 347.089844 C 358.109375 346.96875 357.480469 346.90625 356.84375 346.90625 Z M 356.84375 346.90625 "/>
</g>
</svg>
