<?xml version="1.0" encoding="UTF-8"?>
<svg xmlns="http://www.w3.org/2000/svg" xmlns:xlink="http://www.w3.org/1999/xlink" width="810pt" height="809.999993pt" viewBox="0 0 810 809.999993" version="1.2">
<defs>
<clipPath id="clip1">
  <path d="M 27.082031 164 L 46 164 L 46 198 L 27.082031 198 Z M 27.082031 164 "/>
</clipPath>
<clipPath id="clip2">
  <path d="M 27.082031 213 L 47 213 L 47 247 L 27.082031 247 Z M 27.082031 213 "/>
</clipPath>
<clipPath id="clip3">
  <path d="M 580 27.082031 L 614 27.082031 L 614 45 L 580 45 Z M 580 27.082031 "/>
</clipPath>
<clipPath id="clip4">
  <path d="M 27.082031 550 L 45 550 L 45 584 L 27.082031 584 Z M 27.082031 550 "/>
</clipPath>
</defs>
<g id="surface1">
<path style=" stroke:none;fill-rule:nonzero;fill:rgb(59.999084%,74.119568%,85.879517%);fill-opacity:1;" d="M 289.140625 193.941406 C 289.171875 192.484375 289.171875 191.023438 289.140625 189.566406 C 289.125 188.984375 289.082031 188.417969 289.050781 187.839844 C 288.761719 184.757812 286.671875 182.113281 283.742188 181.046875 L 266.59375 174.941406 C 265.332031 174.492188 264.242188 173.738281 263.375 172.78125 C 262.496094 171.8125 261.839844 170.640625 261.472656 169.339844 C 260.742188 166.773438 259.828125 164.261719 258.851562 161.761719 C 258.679688 161.328125 258.566406 160.859375 258.382812 160.425781 C 258.148438 159.84375 257.820312 159.304688 257.566406 158.730469 C 256.542969 156.417969 255.484375 154.125 254.261719 151.929688 C 253.28125 150.175781 252.929688 148.167969 253.304688 146.253906 C 253.429688 145.605469 253.625 144.964844 253.917969 144.351562 L 261.734375 127.902344 C 263.054688 125.074219 262.660156 121.742188 260.6875 119.355469 C 260.292969 118.921875 259.917969 118.488281 259.523438 118.0625 C 258.515625 117.011719 257.484375 115.980469 256.433594 114.972656 C 256.007812 114.570312 255.574219 114.195312 255.148438 113.808594 C 252.765625 111.835938 249.421875 111.441406 246.585938 112.769531 L 230.152344 120.578125 C 229.539062 120.871094 228.898438 121.070312 228.253906 121.191406 C 226.335938 121.558594 224.328125 121.214844 222.574219 120.234375 C 220.238281 118.929688 217.796875 117.792969 215.332031 116.71875 C 214.90625 116.539062 214.503906 116.292969 214.085938 116.113281 C 213.503906 115.867188 212.875 115.710938 212.285156 115.480469 C 209.933594 114.570312 207.574219 113.695312 205.164062 113.015625 C 203.863281 112.648438 202.691406 111.992188 201.722656 111.113281 C 200.757812 110.246094 200.003906 109.15625 199.554688 107.894531 L 193.449219 90.738281 C 192.386719 87.808594 189.746094 85.726562 186.667969 85.4375 C 186.09375 85.40625 185.519531 85.375 184.9375 85.347656 C 183.480469 85.316406 182.03125 85.316406 180.570312 85.347656 C 179.988281 85.367188 179.417969 85.40625 178.835938 85.4375 C 175.753906 85.734375 173.117188 87.816406 172.050781 90.746094 L 165.949219 107.894531 C 165.496094 109.15625 164.742188 110.246094 163.785156 111.113281 C 162.816406 111.992188 161.644531 112.648438 160.34375 113.015625 C 157.871094 113.710938 155.453125 114.605469 153.042969 115.539062 C 152.511719 115.742188 151.945312 115.882812 151.421875 116.105469 C 150.945312 116.300781 150.496094 116.570312 150.019531 116.785156 C 147.605469 117.839844 145.21875 118.945312 142.925781 120.226562 C 141.246094 121.167969 139.347656 121.503906 137.503906 121.207031 C 136.765625 121.09375 136.035156 120.90625 135.339844 120.578125 L 118.898438 112.761719 C 116.070312 111.441406 112.726562 111.835938 110.351562 113.808594 C 109.925781 114.195312 109.492188 114.570312 109.066406 114.972656 C 108.019531 115.980469 106.984375 117.011719 105.976562 118.0625 C 105.578125 118.488281 105.199219 118.921875 104.816406 119.347656 C 102.839844 121.730469 102.445312 125.074219 103.773438 127.902344 L 111.589844 144.34375 C 111.882812 144.957031 112.082031 145.597656 112.203125 146.246094 C 112.574219 148.160156 112.21875 150.167969 111.246094 151.921875 C 109.96875 154.207031 108.863281 156.589844 107.804688 159 C 107.601562 159.476562 107.320312 159.933594 107.125 160.417969 C 106.902344 160.949219 106.765625 161.515625 106.550781 162.054688 C 105.617188 164.457031 104.722656 166.875 104.027344 169.339844 C 103.660156 170.640625 103.003906 171.8125 102.128906 172.78125 C 101.257812 173.746094 100.167969 174.5 98.90625 174.953125 L 81.753906 181.054688 C 78.820312 182.121094 76.738281 184.757812 76.453125 187.839844 C 76.417969 188.410156 76.386719 188.984375 76.363281 189.566406 C 76.328125 191.023438 76.328125 192.484375 76.363281 193.941406 C 76.378906 194.523438 76.417969 195.089844 76.453125 195.671875 C 76.738281 198.75 78.828125 201.390625 81.761719 202.453125 L 98.90625 208.558594 C 100.167969 209.007812 101.257812 209.761719 102.128906 210.726562 C 103.003906 211.695312 103.660156 212.867188 104.027344 214.167969 C 104.722656 216.636719 105.617188 219.050781 106.550781 221.453125 C 106.765625 221.984375 106.902344 222.558594 107.125 223.089844 C 107.320312 223.574219 107.601562 224.023438 107.804688 224.507812 C 108.863281 226.917969 109.96875 229.300781 111.246094 231.585938 C 112.230469 233.339844 112.582031 235.347656 112.203125 237.265625 C 112.082031 237.910156 111.882812 238.550781 111.589844 239.164062 L 103.773438 255.605469 C 102.453125 258.433594 102.847656 261.777344 104.824219 264.152344 C 105.207031 264.578125 105.59375 265.019531 105.984375 265.4375 C 106.992188 266.488281 108.027344 267.519531 109.074219 268.527344 C 109.5 268.929688 109.933594 269.304688 110.359375 269.691406 C 112.746094 271.664062 116.085938 272.058594 118.914062 270.730469 L 135.355469 262.921875 C 135.972656 262.628906 136.609375 262.433594 137.257812 262.308594 C 139.175781 261.941406 141.179688 262.285156 142.933594 263.265625 C 145.21875 264.546875 147.613281 265.652344 150.03125 266.707031 C 150.503906 266.914062 150.957031 267.191406 151.429688 267.386719 C 151.960938 267.609375 152.527344 267.75 153.070312 267.960938 C 155.46875 268.894531 157.886719 269.789062 160.351562 270.484375 C 161.65625 270.855469 162.824219 271.507812 163.792969 272.386719 C 164.757812 273.253906 165.511719 274.34375 165.957031 275.605469 L 172.058594 292.761719 C 173.125 295.695312 175.761719 297.78125 178.84375 298.070312 C 179.417969 298.101562 179.988281 298.136719 180.570312 298.160156 C 182.03125 298.191406 183.488281 298.191406 184.945312 298.160156 C 185.527344 298.144531 186.09375 298.101562 186.675781 298.070312 C 189.753906 297.78125 192.402344 295.695312 193.464844 292.753906 L 199.570312 275.605469 C 200.019531 274.34375 200.773438 273.253906 201.734375 272.386719 C 202.699219 271.507812 203.871094 270.855469 205.171875 270.484375 C 207.664062 269.78125 210.113281 268.878906 212.539062 267.9375 C 213.046875 267.742188 213.585938 267.601562 214.09375 267.394531 C 214.59375 267.191406 215.070312 266.90625 215.570312 266.683594 C 217.960938 265.636719 220.328125 264.539062 222.589844 263.277344 C 224.34375 262.292969 226.351562 261.941406 228.269531 262.316406 C 228.914062 262.441406 229.554688 262.636719 230.167969 262.929688 L 246.613281 270.746094 C 249.4375 272.066406 252.78125 271.671875 255.164062 269.699219 C 255.589844 269.3125 256.035156 268.9375 256.449219 268.535156 C 257.5 267.527344 258.53125 266.496094 259.539062 265.445312 C 259.941406 265.019531 260.316406 264.585938 260.703125 264.160156 C 262.675781 261.777344 263.070312 258.433594 261.742188 255.605469 L 253.9375 239.164062 C 253.640625 238.550781 253.445312 237.910156 253.320312 237.265625 C 252.953125 235.347656 253.296875 233.339844 254.28125 231.585938 C 255.574219 229.277344 256.695312 226.859375 257.761719 224.417969 C 257.957031 223.96875 258.210938 223.542969 258.402344 223.097656 C 258.636719 222.535156 258.785156 221.925781 259.007812 221.363281 C 259.925781 218.996094 260.808594 216.609375 261.496094 214.175781 C 261.867188 212.875 262.523438 211.703125 263.398438 210.738281 C 264.265625 209.769531 265.355469 209.015625 266.617188 208.574219 L 283.773438 202.46875 C 286.707031 201.40625 288.796875 198.765625 289.082031 195.6875 C 289.074219 195.097656 289.113281 194.523438 289.140625 193.941406 Z M 289.140625 193.941406 "/>
<path style=" stroke:none;fill-rule:nonzero;fill:rgb(49.798584%,62.348938%,74.899292%);fill-opacity:1;" d="M 734.570312 613.632812 C 737.363281 612.484375 739.386719 609.902344 739.617188 606.890625 C 739.757812 605.070312 739.839844 603.234375 739.839844 601.382812 C 739.839844 599.53125 739.757812 597.695312 739.617188 595.886719 C 739.386719 592.871094 737.363281 590.289062 734.570312 589.144531 L 724.445312 584.988281 C 722.214844 584.074219 720.578125 582.195312 719.789062 579.917969 C 718.945312 577.46875 717.964844 575.085938 716.851562 572.785156 C 715.800781 570.621094 715.636719 568.144531 716.5625 565.925781 L 720.734375 555.949219 C 721.921875 553.113281 721.503906 549.777344 719.480469 547.46875 C 717.105469 544.757812 714.546875 542.199219 711.828125 539.816406 C 709.515625 537.792969 706.183594 537.375 703.347656 538.5625 L 693.371094 542.734375 C 691.148438 543.660156 688.683594 543.488281 686.519531 542.445312 C 684.210938 541.332031 681.835938 540.347656 679.386719 539.503906 C 677.109375 538.71875 675.230469 537.078125 674.3125 534.859375 L 670.160156 524.734375 C 669.011719 521.941406 666.433594 519.917969 663.417969 519.6875 C 661.597656 519.539062 659.765625 519.457031 657.914062 519.457031 C 656.0625 519.457031 654.226562 519.539062 652.414062 519.679688 C 649.398438 519.910156 646.820312 521.933594 645.671875 524.726562 L 641.519531 534.851562 C 640.601562 537.078125 638.726562 538.71875 636.449219 539.503906 C 634 540.347656 631.613281 541.332031 629.3125 542.445312 C 627.148438 543.496094 624.675781 543.660156 622.464844 542.734375 L 612.484375 538.5625 C 609.648438 537.375 606.316406 537.792969 604.003906 539.816406 C 601.292969 542.191406 598.738281 544.75 596.351562 547.46875 C 594.328125 549.777344 593.910156 553.113281 595.101562 555.949219 L 599.269531 565.933594 C 600.195312 568.15625 600.023438 570.621094 598.984375 572.785156 C 597.867188 575.09375 596.886719 577.46875 596.042969 579.917969 C 595.253906 582.195312 593.617188 584.074219 591.398438 584.992188 L 581.269531 589.144531 C 578.476562 590.289062 576.453125 592.871094 576.222656 595.886719 C 576.070312 597.695312 575.988281 599.53125 575.988281 601.382812 C 575.988281 603.234375 576.070312 605.070312 576.207031 606.878906 C 576.4375 609.894531 578.460938 612.476562 581.253906 613.625 L 591.378906 617.777344 C 593.609375 618.695312 595.246094 620.570312 596.027344 622.847656 C 596.871094 625.296875 597.851562 627.683594 598.964844 629.984375 C 600.015625 632.148438 600.179688 634.621094 599.253906 636.832031 L 595.082031 646.8125 C 593.894531 649.644531 594.3125 652.980469 596.335938 655.289062 C 598.710938 658.003906 601.269531 660.558594 603.988281 662.941406 C 606.300781 664.964844 609.632812 665.382812 612.46875 664.195312 L 622.445312 660.027344 C 624.667969 659.101562 627.132812 659.273438 629.296875 660.3125 C 631.605469 661.425781 633.980469 662.410156 636.429688 663.253906 C 638.710938 664.039062 640.585938 665.679688 641.503906 667.898438 L 645.65625 678.023438 C 646.804688 680.820312 649.382812 682.84375 652.398438 683.070312 C 654.226562 683.226562 656.0625 683.308594 657.914062 683.308594 C 659.765625 683.308594 661.597656 683.226562 663.410156 683.089844 C 666.425781 682.859375 669.003906 680.835938 670.152344 678.042969 L 674.304688 667.914062 C 675.222656 665.6875 677.097656 664.046875 679.378906 663.261719 C 681.828125 662.417969 684.210938 661.433594 686.511719 660.320312 C 688.675781 659.273438 691.148438 659.109375 693.371094 660.035156 L 703.347656 664.203125 C 706.183594 665.390625 709.515625 664.972656 711.828125 662.949219 C 714.539062 660.574219 717.09375 658.019531 719.480469 655.300781 C 721.503906 652.988281 721.921875 649.652344 720.734375 646.820312 L 716.5625 636.839844 C 715.636719 634.621094 715.808594 632.15625 716.851562 629.992188 C 717.964844 627.683594 718.945312 625.304688 719.792969 622.855469 C 720.578125 620.578125 722.214844 618.703125 724.4375 617.785156 Z M 734.570312 613.632812 "/>
<path style=" stroke:none;fill-rule:nonzero;fill:rgb(78.819275%,78.039551%,77.648926%);fill-opacity:1;" d="M 725.261719 221.894531 C 728.703125 221.042969 731.277344 218.085938 731.464844 214.546875 C 731.582031 212.425781 731.644531 210.292969 731.644531 208.140625 C 731.644531 205.984375 731.582031 203.855469 731.464844 201.722656 C 731.277344 198.183594 728.695312 195.226562 725.261719 194.375 L 710.296875 190.671875 C 707.257812 189.917969 705.003906 187.46875 704.308594 184.414062 C 702.882812 178.15625 700.898438 172.117188 698.417969 166.332031 C 697.179688 163.449219 697.5625 160.148438 699.589844 157.746094 L 709.417969 146.0625 C 711.722656 143.328125 712.066406 139.355469 710.105469 136.363281 C 707.78125 132.808594 705.28125 129.375 702.628906 126.082031 C 700.390625 123.296875 696.507812 122.402344 693.199219 123.746094 L 679.082031 129.480469 C 676.171875 130.660156 672.914062 130.007812 670.554688 127.941406 C 665.769531 123.753906 660.625 119.980469 655.144531 116.695312 C 652.457031 115.078125 650.832031 112.1875 651.054688 109.066406 L 652.152344 93.828125 C 652.40625 90.257812 650.359375 86.832031 647.007812 85.570312 C 643.082031 84.105469 639.070312 82.816406 634.972656 81.710938 C 631.523438 80.785156 627.863281 82.335938 625.976562 85.375 L 617.917969 98.335938 C 616.292969 100.9375 613.351562 102.480469 610.304688 102.167969 C 607.09375 101.839844 603.859375 101.636719 600.5625 101.636719 C 597.269531 101.636719 594.035156 101.839844 590.832031 102.167969 C 587.785156 102.480469 584.835938 100.929688 583.21875 98.335938 L 575.160156 85.375 C 573.273438 82.34375 569.605469 80.785156 566.164062 81.710938 C 562.066406 82.816406 558.054688 84.105469 554.128906 85.585938 C 550.777344 86.847656 548.730469 90.273438 548.984375 93.84375 L 550.082031 109.082031 C 550.304688 112.203125 548.679688 115.097656 545.992188 116.710938 C 540.511719 119.996094 535.367188 123.773438 530.582031 127.957031 C 528.222656 130.023438 524.964844 130.679688 522.054688 129.5 L 507.9375 123.765625 C 504.628906 122.421875 500.746094 123.3125 498.507812 126.097656 C 495.855469 129.402344 493.355469 132.832031 491.03125 136.378906 C 489.070312 139.371094 489.414062 143.34375 491.71875 146.082031 L 501.546875 157.761719 C 503.5625 160.164062 503.957031 163.464844 502.71875 166.347656 C 500.238281 172.132812 498.253906 178.171875 496.828125 184.429688 C 496.132812 187.484375 493.878906 189.933594 490.839844 190.6875 L 475.875 194.390625 C 472.433594 195.246094 469.859375 198.203125 469.671875 201.742188 C 469.546875 203.855469 469.484375 205.984375 469.484375 208.140625 C 469.484375 210.292969 469.546875 212.425781 469.664062 214.554688 C 469.851562 218.09375 472.433594 221.050781 475.863281 221.902344 L 490.832031 225.605469 C 493.871094 226.359375 496.125 228.808594 496.820312 231.863281 C 498.246094 238.125 500.230469 244.164062 502.710938 249.945312 C 503.949219 252.828125 503.5625 256.132812 501.539062 258.53125 L 491.710938 270.214844 C 489.40625 272.949219 489.0625 276.925781 491.019531 279.914062 C 493.347656 283.46875 495.847656 286.894531 498.5 290.195312 C 500.738281 292.980469 504.621094 293.875 507.929688 292.53125 L 522.046875 286.796875 C 524.953125 285.617188 528.214844 286.273438 530.574219 288.335938 C 535.359375 292.523438 540.503906 296.300781 545.984375 299.585938 C 548.671875 301.199219 550.292969 304.089844 550.074219 307.210938 L 548.976562 322.449219 C 548.722656 326.023438 550.769531 329.445312 554.121094 330.707031 C 558.042969 332.191406 562.058594 333.476562 566.15625 334.582031 C 569.605469 335.507812 573.265625 333.960938 575.152344 330.921875 L 583.210938 317.960938 C 584.835938 315.355469 587.777344 313.816406 590.824219 314.125 C 594.035156 314.4375 597.269531 314.644531 600.5625 314.644531 C 603.859375 314.644531 607.09375 314.4375 610.296875 314.109375 C 613.34375 313.800781 616.292969 315.347656 617.90625 317.945312 L 625.96875 330.90625 C 627.855469 333.9375 631.523438 335.492188 634.964844 334.566406 C 639.0625 333.460938 643.074219 332.175781 647 330.691406 C 650.351562 329.429688 652.398438 326.007812 652.144531 322.433594 L 651.046875 307.195312 C 650.824219 304.074219 652.449219 301.183594 655.136719 299.570312 C 660.617188 296.285156 665.761719 292.507812 670.546875 288.320312 C 672.90625 286.253906 676.164062 285.601562 679.074219 286.78125 L 693.191406 292.515625 C 696.5 293.859375 700.382812 292.964844 702.621094 290.179688 C 705.273438 286.878906 707.773438 283.445312 710.097656 279.898438 C 712.058594 276.90625 711.714844 272.933594 709.410156 270.199219 L 699.578125 258.515625 C 697.566406 256.113281 697.171875 252.8125 698.410156 249.929688 C 700.890625 244.144531 702.875 238.109375 704.300781 231.847656 C 704.996094 228.792969 707.25 226.34375 710.289062 225.589844 Z M 725.261719 221.894531 "/>
<path style=" stroke:none;fill-rule:nonzero;fill:rgb(93.728638%,57.249451%,55.288696%);fill-opacity:1;" d="M 397.378906 589.242188 C 401.027344 588.429688 403.605469 585.253906 403.804688 581.523438 C 403.886719 579.96875 403.941406 578.394531 403.941406 576.804688 C 403.941406 575.214844 403.886719 573.644531 403.804688 572.078125 C 403.605469 568.351562 401.027344 565.179688 397.378906 564.359375 L 383.765625 561.320312 C 380.453125 560.585938 378.019531 557.855469 377.472656 554.503906 C 376.929688 551.210938 376.277344 547.960938 375.515625 544.757812 C 374.726562 541.445312 375.941406 537.996094 378.726562 536.039062 L 390.097656 528.066406 C 393.128906 525.9375 394.4375 522.003906 393.113281 518.546875 C 391.972656 515.566406 390.742188 512.632812 389.433594 509.742188 C 387.910156 506.375 384.222656 504.53125 380.585938 505.167969 L 366.960938 507.570312 C 363.617188 508.160156 360.332031 506.578125 358.539062 503.695312 C 356.785156 500.867188 354.933594 498.117188 352.984375 495.4375 C 350.984375 492.683594 350.789062 489.03125 352.609375 486.15625 L 360.046875 474.449219 C 362.027344 471.324219 361.734375 467.207031 359.195312 464.511719 C 356.992188 462.167969 354.714844 459.898438 352.371094 457.683594 C 349.675781 455.144531 345.5625 454.851562 342.433594 456.832031 L 330.726562 464.273438 C 327.859375 466.097656 324.203125 465.894531 321.441406 463.894531 C 318.753906 461.953125 316.003906 460.09375 313.175781 458.339844 C 310.292969 456.546875 308.710938 453.261719 309.300781 449.917969 L 311.703125 436.292969 C 312.339844 432.65625 310.496094 428.96875 307.128906 427.445312 C 304.238281 426.136719 301.296875 424.90625 298.324219 423.769531 C 294.859375 422.441406 290.925781 423.742188 288.804688 426.78125 L 280.832031 438.15625 C 278.882812 440.941406 275.425781 442.152344 272.125 441.367188 C 268.910156 440.605469 265.660156 439.949219 262.367188 439.40625 C 259.015625 438.859375 256.296875 436.433594 255.550781 433.117188 L 252.511719 419.5 C 251.699219 415.855469 248.519531 413.273438 244.792969 413.078125 C 243.253906 413.011719 241.679688 412.953125 240.089844 412.953125 C 238.5 412.953125 236.929688 413.011719 235.363281 413.09375 C 231.636719 413.289062 228.464844 415.871094 227.644531 419.515625 L 224.605469 433.132812 C 223.871094 436.441406 221.140625 438.875 217.789062 439.425781 C 214.496094 439.964844 211.246094 440.621094 208.042969 441.382812 C 204.730469 442.167969 201.28125 440.957031 199.324219 438.171875 L 191.351562 426.800781 C 189.222656 423.769531 185.289062 422.457031 181.832031 423.785156 C 178.851562 424.921875 175.917969 426.152344 173.027344 427.464844 C 169.660156 428.988281 167.816406 432.671875 168.453125 436.3125 L 170.855469 449.933594 C 171.445312 453.277344 169.863281 456.5625 166.980469 458.355469 C 164.152344 460.109375 161.402344 461.960938 158.722656 463.910156 C 155.96875 465.910156 152.316406 466.109375 149.441406 464.289062 L 137.730469 456.851562 C 134.609375 454.867188 130.488281 455.164062 127.792969 457.703125 C 125.453125 459.90625 123.183594 462.183594 120.96875 464.519531 C 118.429688 467.214844 118.136719 471.328125 120.117188 474.457031 L 127.558594 486.164062 C 129.382812 489.03125 129.179688 492.683594 127.179688 495.445312 C 125.230469 498.132812 123.378906 500.886719 121.625 503.710938 C 119.832031 506.59375 116.546875 508.175781 113.203125 507.585938 L 99.578125 505.1875 C 95.941406 504.546875 92.253906 506.390625 90.730469 509.757812 C 89.421875 512.648438 88.191406 515.589844 87.054688 518.566406 C 85.726562 522.03125 87.027344 525.960938 90.066406 528.085938 L 101.4375 536.054688 C 104.222656 538.003906 105.4375 541.464844 104.652344 544.765625 C 103.890625 547.976562 103.234375 551.230469 102.691406 554.523438 C 102.144531 557.871094 99.71875 560.59375 96.402344 561.339844 L 82.785156 564.378906 C 79.140625 565.1875 76.558594 568.367188 76.363281 572.09375 C 76.296875 573.644531 76.238281 575.214844 76.238281 576.804688 C 76.238281 578.394531 76.296875 579.96875 76.378906 581.53125 C 76.574219 585.261719 79.15625 588.429688 82.800781 589.25 L 96.417969 592.289062 C 99.726562 593.027344 102.160156 595.753906 102.707031 599.105469 C 103.25 602.398438 103.90625 605.652344 104.667969 608.855469 C 105.453125 612.164062 104.242188 615.613281 101.457031 617.570312 L 90.085938 625.542969 C 87.054688 627.671875 85.742188 631.605469 87.070312 635.0625 C 88.207031 638.046875 89.4375 640.976562 90.746094 643.871094 C 92.273438 647.238281 95.957031 649.082031 99.597656 648.441406 L 113.21875 646.042969 C 116.5625 645.453125 119.847656 647.03125 121.640625 649.917969 C 123.394531 652.742188 125.246094 655.496094 127.195312 658.175781 C 129.195312 660.925781 129.390625 664.582031 127.574219 667.457031 L 120.132812 679.164062 C 118.152344 682.285156 118.445312 686.40625 120.988281 689.101562 C 123.191406 691.445312 125.46875 693.714844 127.8125 695.925781 C 130.507812 698.464844 134.617188 698.761719 137.75 696.777344 L 149.457031 689.339844 C 152.324219 687.511719 155.976562 687.71875 158.738281 689.714844 C 161.425781 691.664062 164.179688 693.515625 167.003906 695.269531 C 169.886719 697.066406 171.46875 700.351562 170.878906 703.691406 L 168.480469 717.316406 C 167.839844 720.953125 169.683594 724.640625 173.050781 726.164062 C 175.941406 727.476562 178.882812 728.703125 181.859375 729.84375 C 185.324219 731.171875 189.253906 729.867188 191.378906 726.828125 L 199.347656 715.457031 C 201.296875 712.671875 204.757812 711.460938 208.058594 712.246094 C 211.269531 713.007812 214.519531 713.664062 217.816406 714.203125 C 221.164062 714.753906 223.886719 717.179688 224.632812 720.496094 L 227.671875 734.113281 C 228.480469 737.757812 231.660156 740.339844 235.386719 740.535156 C 236.929688 740.601562 238.5 740.65625 240.089844 740.65625 C 241.679688 740.65625 243.253906 740.601562 244.816406 740.519531 C 248.546875 740.320312 251.714844 737.742188 252.535156 734.09375 L 255.574219 720.480469 C 256.3125 717.167969 259.039062 714.734375 262.390625 714.1875 C 265.683594 713.648438 268.9375 712.992188 272.140625 712.230469 C 275.449219 711.441406 278.898438 712.65625 280.855469 715.441406 L 288.828125 726.8125 C 290.957031 729.84375 294.890625 731.152344 298.347656 729.828125 C 301.328125 728.6875 304.261719 727.460938 307.15625 726.148438 C 310.523438 724.625 312.367188 720.9375 311.726562 717.300781 L 309.324219 703.675781 C 308.734375 700.332031 310.316406 697.046875 313.199219 695.253906 C 316.027344 693.5 318.78125 691.648438 321.460938 689.699219 C 324.210938 687.699219 327.867188 687.503906 330.742188 689.324219 L 342.449219 696.761719 C 345.570312 698.746094 349.691406 698.449219 352.386719 695.910156 C 354.730469 693.707031 357 691.429688 359.210938 689.085938 C 361.75 686.390625 362.046875 682.277344 360.0625 679.148438 L 352.625 667.441406 C 350.796875 664.574219 351 660.917969 353 658.15625 C 354.949219 655.472656 356.800781 652.71875 358.554688 649.890625 C 360.347656 647.007812 363.632812 645.425781 366.976562 646.015625 L 380.601562 648.417969 C 384.238281 649.054688 387.925781 647.210938 389.449219 643.847656 C 390.761719 640.953125 391.988281 638.011719 393.128906 635.039062 C 394.457031 631.582031 393.152344 627.640625 390.113281 625.519531 L 378.742188 617.546875 C 375.957031 615.597656 374.742188 612.140625 375.53125 608.839844 C 376.292969 605.628906 376.949219 602.375 377.488281 599.082031 C 378.039062 595.730469 380.460938 593.011719 383.78125 592.265625 Z M 397.378906 589.242188 "/>
<path style=" stroke:none;fill-rule:nonzero;fill:rgb(94.898987%,83.918762%,45.489502%);fill-opacity:1;" d="M 240.089844 478.496094 L 240.089844 576.804688 L 322.015625 625.960938 L 240.089844 576.804688 L 158.164062 625.960938 L 240.089844 576.804688 L 240.089844 478.496094 C 185.796875 478.496094 141.78125 522.511719 141.78125 576.804688 C 141.78125 631.097656 185.796875 675.117188 240.089844 675.117188 C 294.382812 675.117188 338.402344 631.097656 338.402344 576.804688 C 338.402344 522.511719 294.382812 478.496094 240.089844 478.496094 Z M 240.089844 478.496094 "/>
<path style=" stroke:none;fill-rule:nonzero;fill:rgb(94.898987%,83.918762%,45.489502%);fill-opacity:1;" d="M 682.488281 601.382812 C 682.488281 602.1875 682.449219 602.992188 682.371094 603.792969 C 682.292969 604.59375 682.175781 605.390625 682.019531 606.179688 C 681.859375 606.96875 681.664062 607.746094 681.433594 608.519531 C 681.199219 609.289062 680.925781 610.046875 680.621094 610.789062 C 680.3125 611.53125 679.96875 612.257812 679.589844 612.96875 C 679.207031 613.679688 678.796875 614.367188 678.347656 615.039062 C 677.902344 615.707031 677.421875 616.351562 676.910156 616.976562 C 676.402344 617.597656 675.859375 618.195312 675.292969 618.761719 C 674.722656 619.332031 674.125 619.871094 673.503906 620.382812 C 672.882812 620.894531 672.234375 621.371094 671.566406 621.820312 C 670.898438 622.265625 670.207031 622.679688 669.5 623.058594 C 668.789062 623.4375 668.0625 623.78125 667.316406 624.089844 C 666.574219 624.398438 665.816406 624.667969 665.046875 624.902344 C 664.277344 625.136719 663.496094 625.332031 662.707031 625.488281 C 661.917969 625.644531 661.121094 625.765625 660.320312 625.84375 C 659.519531 625.921875 658.71875 625.960938 657.914062 625.960938 C 657.105469 625.960938 656.304688 625.921875 655.503906 625.84375 C 654.703125 625.765625 653.90625 625.644531 653.117188 625.488281 C 652.328125 625.332031 651.546875 625.136719 650.777344 624.902344 C 650.007812 624.667969 649.25 624.398438 648.507812 624.089844 C 647.761719 623.78125 647.035156 623.4375 646.328125 623.058594 C 645.617188 622.679688 644.925781 622.265625 644.257812 621.820312 C 643.589844 621.371094 642.941406 620.894531 642.320312 620.382812 C 641.699219 619.871094 641.101562 619.332031 640.535156 618.761719 C 639.964844 618.195312 639.425781 617.597656 638.914062 616.976562 C 638.402344 616.351562 637.925781 615.707031 637.476562 615.039062 C 637.03125 614.367188 636.617188 613.679688 636.238281 612.96875 C 635.855469 612.257812 635.511719 611.53125 635.207031 610.789062 C 634.898438 610.046875 634.625 609.289062 634.394531 608.519531 C 634.160156 607.746094 633.964844 606.96875 633.808594 606.179688 C 633.648438 605.390625 633.53125 604.59375 633.453125 603.792969 C 633.375 602.992188 633.335938 602.1875 633.335938 601.382812 C 633.335938 600.578125 633.375 599.777344 633.453125 598.972656 C 633.53125 598.171875 633.648438 597.378906 633.808594 596.589844 C 633.964844 595.800781 634.160156 595.019531 634.394531 594.25 C 634.625 593.480469 634.898438 592.722656 635.207031 591.976562 C 635.511719 591.234375 635.855469 590.507812 636.238281 589.796875 C 636.617188 589.085938 637.03125 588.398438 637.476562 587.730469 C 637.925781 587.058594 638.402344 586.414062 638.914062 585.792969 C 639.425781 585.167969 639.964844 584.574219 640.535156 584.003906 C 641.101562 583.433594 641.699219 582.894531 642.320312 582.382812 C 642.941406 581.875 643.589844 581.394531 644.257812 580.949219 C 644.925781 580.5 645.617188 580.085938 646.328125 579.707031 C 647.035156 579.328125 647.761719 578.984375 648.507812 578.675781 C 649.25 578.367188 650.007812 578.097656 650.777344 577.863281 C 651.546875 577.628906 652.328125 577.433594 653.117188 577.277344 C 653.90625 577.121094 654.703125 577.003906 655.503906 576.925781 C 656.304688 576.84375 657.105469 576.804688 657.914062 576.804688 C 658.71875 576.804688 659.519531 576.84375 660.320312 576.925781 C 661.121094 577.003906 661.917969 577.121094 662.707031 577.277344 C 663.496094 577.433594 664.277344 577.628906 665.046875 577.863281 C 665.816406 578.097656 666.574219 578.367188 667.316406 578.675781 C 668.0625 578.984375 668.789062 579.328125 669.5 579.707031 C 670.207031 580.085938 670.898438 580.5 671.566406 580.949219 C 672.234375 581.394531 672.882812 581.875 673.503906 582.382812 C 674.125 582.894531 674.722656 583.433594 675.292969 584.003906 C 675.859375 584.574219 676.402344 585.167969 676.910156 585.792969 C 677.421875 586.414062 677.902344 587.058594 678.347656 587.730469 C 678.796875 588.398438 679.207031 589.085938 679.589844 589.796875 C 679.96875 590.507812 680.3125 591.234375 680.621094 591.976562 C 680.925781 592.722656 681.199219 593.480469 681.433594 594.25 C 681.664062 595.019531 681.859375 595.800781 682.019531 596.589844 C 682.175781 597.378906 682.292969 598.171875 682.371094 598.972656 C 682.449219 599.777344 682.488281 600.578125 682.488281 601.382812 Z M 682.488281 601.382812 "/>
<path style=" stroke:none;fill-rule:nonzero;fill:rgb(94.898987%,83.918762%,45.489502%);fill-opacity:1;" d="M 600.5625 142.597656 L 600.5625 208.140625 L 649.71875 249.101562 L 600.5625 208.140625 L 551.410156 249.101562 L 600.5625 208.140625 L 600.5625 142.597656 C 564.371094 142.597656 535.023438 171.945312 535.023438 208.140625 C 535.023438 244.335938 564.371094 273.679688 600.5625 273.679688 C 636.757812 273.679688 666.105469 244.335938 666.105469 208.140625 C 666.105469 171.945312 636.757812 142.597656 600.5625 142.597656 Z M 600.5625 142.597656 "/>
<path style=" stroke:none;fill-rule:nonzero;fill:rgb(94.898987%,83.918762%,45.489502%);fill-opacity:1;" d="M 182.742188 150.792969 C 160.121094 150.792969 141.78125 169.132812 141.78125 191.753906 C 141.78125 200.980469 144.941406 209.402344 150.085938 216.25 L 182.742188 191.753906 Z M 182.742188 150.792969 "/>
<path style=" stroke:none;fill-rule:nonzero;fill:rgb(94.898987%,83.918762%,45.489502%);fill-opacity:1;" d="M 182.742188 150.792969 L 182.742188 191.753906 L 215.398438 216.25 C 220.542969 209.402344 223.707031 200.980469 223.707031 191.753906 C 223.707031 169.132812 205.363281 150.792969 182.742188 150.792969 Z M 182.742188 150.792969 "/>
<path style=" stroke:none;fill-rule:nonzero;fill:rgb(94.898987%,83.918762%,45.489502%);fill-opacity:1;" d="M 150.085938 216.25 C 157.558594 226.1875 169.347656 232.71875 182.742188 232.71875 C 196.136719 232.71875 207.925781 226.1875 215.398438 216.25 L 182.742188 191.753906 Z M 150.085938 216.25 "/>
<path style=" stroke:none;fill-rule:nonzero;fill:rgb(59.999084%,74.119568%,85.879517%);fill-opacity:1;" d="M 258.484375 373.433594 C 258.417969 377.957031 262.03125 381.675781 266.550781 381.75 C 271.902344 381.820312 277.261719 382.011719 282.601562 382.296875 C 282.757812 382.304688 282.90625 382.304688 283.050781 382.304688 C 287.371094 382.304688 290.992188 378.921875 291.230469 374.554688 C 291.472656 370.042969 288.007812 366.175781 283.496094 365.929688 C 277.933594 365.625 272.371094 365.4375 266.796875 365.355469 C 266.757812 365.355469 266.714844 365.355469 266.675781 365.355469 C 262.203125 365.363281 258.546875 368.953125 258.484375 373.433594 Z M 258.484375 373.433594 "/>
<path style=" stroke:none;fill-rule:nonzero;fill:rgb(59.999084%,74.119568%,85.879517%);fill-opacity:1;" d="M 150.5625 51.023438 C 151.636719 51.023438 152.726562 50.808594 153.773438 50.359375 C 158.640625 48.285156 163.578125 46.34375 168.578125 44.558594 C 172.835938 43.035156 175.058594 38.347656 173.527344 34.089844 C 172 29.828125 167.316406 27.609375 163.054688 29.140625 C 157.753906 31.039062 152.503906 33.089844 147.34375 35.292969 C 143.179688 37.070312 141.246094 41.878906 143.023438 46.039062 C 144.351562 49.152344 147.375 51.023438 150.5625 51.023438 Z M 150.5625 51.023438 "/>
<path style=" stroke:none;fill-rule:nonzero;fill:rgb(59.999084%,74.119568%,85.879517%);fill-opacity:1;" d="M 307.554688 376.03125 C 307.039062 380.527344 310.269531 384.582031 314.757812 385.109375 C 320.089844 385.722656 325.457031 386.402344 330.839844 387.140625 C 331.214844 387.1875 331.585938 387.214844 331.960938 387.214844 C 335.992188 387.214844 339.507812 384.238281 340.066406 380.125 C 340.679688 375.644531 337.542969 371.515625 333.058594 370.902344 C 327.5625 370.148438 322.082031 369.453125 316.632812 368.828125 C 312.128906 368.335938 308.074219 371.53125 307.554688 376.03125 Z M 307.554688 376.03125 "/>
<path style=" stroke:none;fill-rule:nonzero;fill:rgb(59.999084%,74.119568%,85.879517%);fill-opacity:1;" d="M 338.566406 248.90625 C 341.5625 244.507812 344.628906 240.058594 347.816406 235.566406 C 350.4375 231.882812 349.566406 226.769531 345.882812 224.140625 C 342.1875 221.527344 337.074219 222.394531 334.453125 226.074219 C 331.207031 230.644531 328.085938 235.183594 325.03125 239.664062 C 322.476562 243.410156 323.441406 248.503906 327.175781 251.050781 C 328.59375 252.019531 330.199219 252.476562 331.789062 252.476562 C 334.410156 252.476562 336.984375 251.230469 338.566406 248.90625 Z M 338.566406 248.90625 "/>
<path style=" stroke:none;fill-rule:nonzero;fill:rgb(59.999084%,74.119568%,85.879517%);fill-opacity:1;" d="M 306.441406 266.234375 C 303.019531 270.8125 299.789062 274.859375 296.585938 278.59375 C 293.636719 282.027344 294.03125 287.199219 297.464844 290.148438 C 299.003906 291.472656 300.902344 292.121094 302.796875 292.121094 C 305.105469 292.121094 307.402344 291.15625 309.015625 289.261719 C 312.464844 285.238281 315.921875 280.914062 319.566406 276.023438 C 322.277344 272.402344 321.53125 267.265625 317.902344 264.5625 C 314.289062 261.851562 309.144531 262.605469 306.441406 266.234375 Z M 306.441406 266.234375 "/>
<path style=" stroke:none;fill-rule:nonzero;fill:rgb(59.999084%,74.119568%,85.879517%);fill-opacity:1;" d="M 460.773438 98.277344 C 464.804688 94.820312 468.925781 91.46875 473.136719 88.257812 C 476.734375 85.511719 477.421875 80.367188 474.675781 76.769531 C 471.925781 73.175781 466.78125 72.476562 463.191406 75.230469 C 458.734375 78.640625 454.367188 82.179688 450.105469 85.832031 C 446.675781 88.773438 446.273438 93.949219 449.222656 97.382812 C 450.84375 99.269531 453.136719 100.242188 455.449219 100.242188 C 457.332031 100.242188 459.234375 99.597656 460.773438 98.277344 Z M 460.773438 98.277344 "/>
<path style=" stroke:none;fill-rule:nonzero;fill:rgb(59.999084%,74.119568%,85.879517%);fill-opacity:1;" d="M 540.390625 52.308594 C 541.144531 52.308594 541.921875 52.203125 542.675781 51.980469 C 547.664062 50.53125 552.792969 49.269531 557.921875 48.226562 C 562.355469 47.335938 565.222656 43.007812 564.328125 38.578125 C 563.433594 34.144531 559.125 31.261719 554.675781 32.171875 C 549.105469 33.292969 543.535156 34.660156 538.113281 36.242188 C 533.761719 37.503906 531.269531 42.050781 532.523438 46.394531 C 533.566406 49.980469 536.835938 52.308594 540.390625 52.308594 Z M 540.390625 52.308594 "/>
<path style=" stroke:none;fill-rule:nonzero;fill:rgb(59.999084%,74.119568%,85.879517%);fill-opacity:1;" d="M 233.296875 366.394531 C 227.710938 366.828125 222.140625 367.410156 216.578125 368.132812 C 212.089844 368.722656 208.925781 372.835938 209.515625 377.316406 C 210.054688 381.445312 213.578125 384.453125 217.625 384.453125 C 217.980469 384.453125 218.339844 384.4375 218.699219 384.386719 C 223.984375 383.699219 229.277344 383.148438 234.578125 382.738281 C 239.089844 382.386719 242.457031 378.445312 242.105469 373.933594 C 241.746094 369.410156 237.804688 365.996094 233.296875 366.394531 Z M 233.296875 366.394531 "/>
<path style=" stroke:none;fill-rule:nonzero;fill:rgb(59.999084%,74.119568%,85.879517%);fill-opacity:1;" d="M 431.3125 712.074219 C 433.410156 712.074219 435.515625 711.269531 437.113281 709.671875 C 441.085938 705.691406 444.929688 701.578125 448.65625 697.359375 C 451.65625 693.96875 451.335938 688.789062 447.945312 685.792969 C 444.5625 682.792969 439.375 683.121094 436.375 686.503906 C 432.871094 690.476562 429.25 694.34375 425.511719 698.089844 C 422.316406 701.292969 422.328125 706.476562 425.519531 709.679688 C 427.128906 711.277344 429.222656 712.074219 431.3125 712.074219 Z M 431.3125 712.074219 "/>
<path style=" stroke:none;fill-rule:nonzero;fill:rgb(59.999084%,74.119568%,85.879517%);fill-opacity:1;" d="M 555.285156 746.574219 C 556.5625 746.574219 557.863281 746.269531 559.085938 745.628906 C 563.179688 743.476562 567.820312 741.601562 572.847656 740.050781 C 577.175781 738.722656 579.597656 734.136719 578.273438 729.8125 C 576.945312 725.476562 572.332031 723.042969 568.03125 724.386719 C 562.035156 726.230469 556.464844 728.492188 551.472656 731.113281 C 547.46875 733.210938 545.929688 738.167969 548.035156 742.171875 C 549.492188 744.984375 552.34375 746.574219 555.285156 746.574219 Z M 555.285156 746.574219 "/>
<path style=" stroke:none;fill-rule:nonzero;fill:rgb(59.999084%,74.119568%,85.879517%);fill-opacity:1;" d="M 183.382812 374.417969 C 177.910156 375.839844 172.402344 377.539062 167.039062 379.453125 C 162.777344 380.976562 160.558594 385.664062 162.082031 389.925781 C 163.277344 393.277344 166.429688 395.363281 169.796875 395.363281 C 170.714844 395.363281 171.640625 395.207031 172.550781 394.882812 C 177.464844 393.128906 182.496094 391.570312 187.511719 390.269531 C 191.894531 389.128906 194.515625 384.648438 193.375 380.273438 C 192.238281 375.898438 187.789062 373.261719 183.382812 374.417969 Z M 183.382812 374.417969 "/>
<path style=" stroke:none;fill-rule:nonzero;fill:rgb(59.999084%,74.119568%,85.879517%);fill-opacity:1;" d="M 195.671875 337.453125 C 195.449219 332.9375 191.679688 329.40625 187.078125 329.683594 C 181.875 329.945312 176.640625 329.980469 171.410156 329.792969 C 166.816406 329.652344 163.097656 333.160156 162.925781 337.679688 C 162.761719 342.203125 166.292969 346.003906 170.8125 346.167969 C 173.207031 346.257812 175.597656 346.300781 177.992188 346.300781 C 181.300781 346.300781 184.601562 346.21875 187.902344 346.046875 C 192.417969 345.816406 195.898438 341.972656 195.671875 337.453125 Z M 195.671875 337.453125 "/>
<path style=" stroke:none;fill-rule:nonzero;fill:rgb(59.999084%,74.119568%,85.879517%);fill-opacity:1;" d="M 495.386719 71.742188 C 496.773438 71.742188 498.179688 71.390625 499.46875 70.652344 C 504.070312 67.996094 508.765625 65.523438 513.410156 63.285156 C 517.492188 61.320312 519.203125 56.429688 517.238281 52.347656 C 515.269531 48.269531 510.386719 46.574219 506.300781 48.523438 C 501.304688 50.933594 496.25 53.601562 491.292969 56.453125 C 487.367188 58.707031 486.023438 63.71875 488.277344 67.644531 C 489.792969 70.265625 492.554688 71.742188 495.386719 71.742188 Z M 495.386719 71.742188 "/>
<path style=" stroke:none;fill-rule:nonzero;fill:rgb(59.999084%,74.119568%,85.879517%);fill-opacity:1;" d="M 243.472656 326.398438 C 242.058594 322.113281 237.429688 319.789062 233.117188 321.1875 C 228.21875 322.8125 223.164062 324.226562 218.078125 325.390625 C 213.660156 326.40625 210.910156 330.808594 211.933594 335.214844 C 212.800781 339.007812 216.175781 341.570312 219.914062 341.570312 C 220.519531 341.570312 221.140625 341.507812 221.753906 341.367188 C 227.335938 340.082031 232.890625 338.53125 238.273438 336.753906 C 242.566406 335.335938 244.890625 330.699219 243.472656 326.398438 Z M 243.472656 326.398438 "/>
<path style=" stroke:none;fill-rule:nonzero;fill:rgb(59.999084%,74.119568%,85.879517%);fill-opacity:1;" d="M 288.164062 300.160156 C 285.445312 296.554688 280.316406 295.839844 276.6875 298.554688 C 272.574219 301.65625 268.230469 304.625 263.792969 307.367188 C 259.941406 309.742188 258.746094 314.796875 261.121094 318.640625 C 263.167969 321.949219 267.183594 323.292969 270.714844 322.097656 C 271.289062 321.902344 271.851562 321.640625 272.394531 321.3125 C 277.269531 318.304688 282.027344 315.050781 286.550781 311.636719 C 290.171875 308.917969 290.882812 303.78125 288.164062 300.160156 Z M 288.164062 300.160156 "/>
<path style=" stroke:none;fill-rule:nonzero;fill:rgb(59.999084%,74.119568%,85.879517%);fill-opacity:1;" d="M 465.671875 648.34375 C 462.625 652.792969 459.527344 657.183594 456.367188 661.507812 C 453.6875 665.164062 454.480469 670.285156 458.136719 672.953125 C 459.59375 674.019531 461.289062 674.535156 462.96875 674.535156 C 465.492188 674.535156 467.984375 673.371094 469.589844 671.183594 C 472.859375 666.726562 476.054688 662.1875 479.199219 657.59375 C 481.753906 653.855469 480.796875 648.761719 477.070312 646.207031 C 473.332031 643.664062 468.238281 644.609375 465.671875 648.34375 Z M 465.671875 648.34375 "/>
<path style=" stroke:none;fill-rule:nonzero;fill:rgb(59.999084%,74.119568%,85.879517%);fill-opacity:1;" d="M 393.054688 742.746094 C 394.527344 742.746094 396.019531 742.351562 397.355469 741.519531 C 402.125 738.570312 406.875 735.339844 411.472656 731.925781 C 415.101562 729.230469 415.863281 724.09375 413.167969 720.460938 C 410.472656 716.839844 405.351562 716.070312 401.707031 718.765625 C 397.46875 721.90625 393.113281 724.878906 388.738281 727.589844 C 384.886719 729.972656 383.699219 735.019531 386.082031 738.863281 C 387.628906 741.371094 390.308594 742.746094 393.054688 742.746094 Z M 393.054688 742.746094 "/>
<path style=" stroke:none;fill-rule:nonzero;fill:rgb(59.999084%,74.119568%,85.879517%);fill-opacity:1;" d="M 719.5625 505.6875 C 724.027344 508.070312 728.277344 510.796875 732.203125 513.804688 C 733.6875 514.945312 735.4375 515.492188 737.175781 515.492188 C 739.640625 515.492188 742.074219 514.386719 743.6875 512.28125 C 746.441406 508.691406 745.753906 503.546875 742.164062 500.796875 C 737.535156 497.246094 732.523438 494.027344 727.269531 491.234375 C 723.273438 489.097656 718.308594 490.613281 716.1875 494.609375 C 714.0625 498.589844 715.570312 503.554688 719.5625 505.6875 Z M 719.5625 505.6875 "/>
<path style=" stroke:none;fill-rule:nonzero;fill:rgb(59.999084%,74.119568%,85.879517%);fill-opacity:1;" d="M 486 632.484375 C 487.367188 633.359375 488.898438 633.785156 490.421875 633.785156 C 493.117188 633.785156 495.757812 632.457031 497.320312 630.023438 L 506.175781 616.277344 C 508.636719 612.484375 507.554688 607.40625 503.761719 604.949219 C 499.960938 602.480469 494.886719 603.570312 492.429688 607.363281 L 483.550781 621.167969 C 481.089844 624.96875 482.199219 630.03125 486 632.484375 Z M 486 632.484375 "/>
<path style=" stroke:none;fill-rule:nonzero;fill:rgb(59.999084%,74.119568%,85.879517%);fill-opacity:1;" d="M 583.84375 402.902344 C 583.335938 398.402344 579.320312 395.152344 574.796875 395.667969 C 569.53125 396.257812 564.230469 396.699219 558.914062 397.011719 C 554.398438 397.273438 550.949219 401.148438 551.21875 405.671875 C 551.472656 410.019531 555.085938 413.378906 559.386719 413.378906 C 559.550781 413.378906 559.714844 413.378906 559.878906 413.363281 C 565.492188 413.035156 571.070312 412.570312 576.617188 411.945312 C 581.105469 411.445312 584.351562 407.398438 583.84375 402.902344 Z M 583.84375 402.902344 "/>
<path style=" stroke:none;fill-rule:nonzero;fill:rgb(59.999084%,74.119568%,85.879517%);fill-opacity:1;" d="M 41.445312 272.796875 C 44.097656 278.046875 47.121094 283.109375 50.433594 287.84375 C 52.03125 290.121094 54.570312 291.34375 57.15625 291.34375 C 58.78125 291.34375 60.410156 290.859375 61.84375 289.867188 C 65.554688 287.28125 66.457031 282.167969 63.867188 278.457031 C 61 274.351562 58.378906 269.960938 56.070312 265.398438 C 54.019531 261.359375 49.089844 259.746094 45.058594 261.785156 C 41.019531 263.832031 39.40625 268.757812 41.445312 272.796875 Z M 41.445312 272.796875 "/>
<path style=" stroke:none;fill-rule:nonzero;fill:rgb(59.999084%,74.119568%,85.879517%);fill-opacity:1;" d="M 159.113281 748.859375 C 154.902344 747.210938 150.152344 749.316406 148.515625 753.527344 C 146.875 757.746094 148.964844 762.492188 153.183594 764.128906 C 158.394531 766.160156 163.785156 768.039062 169.199219 769.707031 C 170.011719 769.960938 170.820312 770.078125 171.625 770.078125 C 175.125 770.078125 178.359375 767.824219 179.449219 764.300781 C 180.792969 759.984375 178.375 755.386719 174.050781 754.050781 C 168.996094 752.503906 163.972656 750.75 159.113281 748.859375 Z M 159.113281 748.859375 "/>
<path style=" stroke:none;fill-rule:nonzero;fill:rgb(59.999084%,74.119568%,85.879517%);fill-opacity:1;" d="M 75.371094 689.4375 C 71.78125 692.199219 71.109375 697.34375 73.871094 700.921875 C 77.277344 705.347656 80.84375 709.722656 84.578125 713.992188 C 86.191406 715.851562 88.46875 716.792969 90.746094 716.792969 C 92.65625 716.792969 94.582031 716.128906 96.128906 714.769531 C 99.539062 711.796875 99.890625 706.617188 96.910156 703.210938 C 93.410156 699.195312 90.050781 695.082031 86.847656 690.929688 C 84.09375 687.339844 78.949219 686.675781 75.371094 689.4375 Z M 75.371094 689.4375 "/>
<path style=" stroke:none;fill-rule:nonzero;fill:rgb(59.999084%,74.119568%,85.879517%);fill-opacity:1;" d="M 112.292969 73.222656 C 116.488281 70.273438 120.945312 67.390625 125.523438 64.65625 C 129.410156 62.335938 130.679688 57.304688 128.367188 53.421875 C 126.058594 49.539062 121.027344 48.261719 117.136719 50.578125 C 112.195312 53.527344 107.394531 56.640625 102.863281 59.828125 C 99.160156 62.433594 98.277344 67.546875 100.882812 71.242188 C 102.480469 73.511719 105.011719 74.714844 107.582031 74.714844 C 109.214844 74.722656 110.859375 74.238281 112.292969 73.222656 Z M 112.292969 73.222656 "/>
<path style=" stroke:none;fill-rule:nonzero;fill:rgb(59.999084%,74.119568%,85.879517%);fill-opacity:1;" d="M 126.082031 417.535156 C 127.65625 417.535156 129.253906 417.082031 130.652344 416.132812 C 134.988281 413.207031 139.492188 410.4375 144.023438 407.890625 C 147.964844 405.679688 149.375 400.691406 147.160156 396.742188 C 144.957031 392.800781 139.96875 391.390625 136.011719 393.601562 C 131.089844 396.363281 126.207031 399.378906 121.496094 402.550781 C 117.742188 405.082031 116.75 410.167969 119.28125 413.921875 C 120.863281 416.273438 123.453125 417.535156 126.082031 417.535156 Z M 126.082031 417.535156 "/>
<path style=" stroke:none;fill-rule:nonzero;fill:rgb(59.999084%,74.119568%,85.879517%);fill-opacity:1;" d="M 268.175781 764.113281 L 263.832031 764.40625 C 259.992188 764.644531 256.140625 764.800781 252.28125 764.867188 C 247.757812 764.949219 244.152344 768.683594 244.234375 773.207031 C 244.316406 777.679688 247.972656 781.25 252.429688 781.25 C 252.476562 781.25 252.527344 781.25 252.585938 781.25 C 256.679688 781.179688 260.761719 781.015625 264.847656 780.761719 L 269.410156 780.449219 C 273.925781 780.105469 277.300781 776.179688 276.964844 771.667969 C 276.628906 767.160156 272.835938 763.828125 268.175781 764.113281 Z M 268.175781 764.113281 "/>
<path style=" stroke:none;fill-rule:nonzero;fill:rgb(59.999084%,74.119568%,85.879517%);fill-opacity:1;" d="M 315.496094 756.96875 C 310.308594 758.171875 305.089844 759.238281 299.863281 760.164062 C 295.40625 760.957031 292.433594 765.210938 293.21875 769.660156 C 293.925781 773.632812 297.382812 776.425781 301.28125 776.425781 C 301.757812 776.425781 302.230469 776.386719 302.714844 776.304688 C 308.226562 775.320312 313.726562 774.207031 319.191406 772.9375 C 323.597656 771.914062 326.34375 767.511719 325.316406 763.105469 C 324.308594 758.679688 319.878906 755.945312 315.496094 756.96875 Z M 315.496094 756.96875 "/>
<path style=" stroke:none;fill-rule:nonzero;fill:rgb(59.999084%,74.119568%,85.879517%);fill-opacity:1;" d="M 204.847656 761.386719 C 200.324219 760.589844 196.152344 763.628906 195.40625 768.09375 C 194.65625 772.558594 197.660156 776.785156 202.117188 777.53125 C 207.671875 778.472656 213.257812 779.226562 218.863281 779.816406 C 219.148438 779.84375 219.4375 779.859375 219.722656 779.859375 C 223.871094 779.859375 227.425781 776.730469 227.867188 772.519531 C 228.34375 768.019531 225.074219 763.988281 220.566406 763.515625 C 215.300781 762.972656 210.054688 762.261719 204.847656 761.386719 Z M 204.847656 761.386719 "/>
<path style=" stroke:none;fill-rule:nonzero;fill:rgb(59.999084%,74.119568%,85.879517%);fill-opacity:1;" d="M 420.492188 134.757812 C 422.734375 134.757812 424.980469 133.839844 426.59375 132.03125 C 430.183594 128.03125 433.828125 124.101562 437.539062 120.25 C 440.6875 116.996094 440.597656 111.8125 437.335938 108.664062 C 434.089844 105.527344 428.898438 105.609375 425.75 108.871094 C 421.890625 112.859375 418.105469 116.941406 414.386719 121.09375 C 411.363281 124.46875 411.652344 129.644531 415.019531 132.660156 C 416.589844 134.070312 418.550781 134.757812 420.492188 134.757812 Z M 420.492188 134.757812 "/>
<path style=" stroke:none;fill-rule:nonzero;fill:rgb(59.999084%,74.119568%,85.879517%);fill-opacity:1;" d="M 773.730469 569.308594 C 769.21875 569.597656 765.785156 573.488281 766.070312 578.011719 C 766.210938 580.164062 766.277344 582.328125 766.269531 584.515625 C 766.269531 587.414062 766.152344 590.316406 765.921875 593.222656 C 765.570312 597.730469 768.945312 601.679688 773.453125 602.03125 C 773.664062 602.046875 773.886719 602.054688 774.101562 602.054688 C 778.335938 602.054688 781.921875 598.792969 782.257812 594.5 C 782.523438 591.167969 782.652344 587.839844 782.652344 584.53125 C 782.652344 582 782.578125 579.484375 782.421875 576.976562 C 782.136719 572.457031 778.136719 568.980469 773.730469 569.308594 Z M 773.730469 569.308594 "/>
<path style=" stroke:none;fill-rule:nonzero;fill:rgb(59.999084%,74.119568%,85.879517%);fill-opacity:1;" d="M 119.300781 725.371094 C 115.839844 722.460938 110.664062 722.914062 107.753906 726.378906 C 104.847656 729.84375 105.296875 735.011719 108.761719 737.921875 C 113.292969 741.730469 117.914062 745.238281 122.476562 748.335938 C 123.886719 749.292969 125.492188 749.75 127.074219 749.75 C 129.695312 749.75 132.277344 748.496094 133.855469 746.164062 C 136.40625 742.417969 135.421875 737.324219 131.6875 734.785156 C 127.574219 731.980469 123.410156 728.8125 119.300781 725.371094 Z M 119.300781 725.371094 "/>
<path style=" stroke:none;fill-rule:nonzero;fill:rgb(59.999084%,74.119568%,85.879517%);fill-opacity:1;" d="M 360.734375 742.140625 C 355.882812 744.246094 350.96875 746.195312 345.996094 747.980469 C 341.734375 749.523438 339.53125 754.207031 341.0625 758.46875 C 342.269531 761.8125 345.414062 763.890625 348.773438 763.890625 C 349.699219 763.890625 350.632812 763.726562 351.550781 763.398438 C 356.851562 761.492188 362.101562 759.410156 367.265625 757.164062 C 371.417969 755.363281 373.316406 750.539062 371.515625 746.390625 C 369.714844 742.238281 364.894531 740.339844 360.734375 742.140625 Z M 360.734375 742.140625 "/>
<path style=" stroke:none;fill-rule:nonzero;fill:rgb(59.999084%,74.119568%,85.879517%);fill-opacity:1;" d="M 526.40625 413.796875 C 526.488281 413.796875 526.570312 413.796875 526.644531 413.796875 C 531.058594 413.796875 534.695312 410.285156 534.828125 405.84375 C 534.957031 401.320312 531.394531 397.542969 526.871094 397.421875 C 521.53125 397.265625 516.164062 397.019531 510.796875 396.675781 C 506.324219 396.308594 502.390625 399.8125 502.097656 404.335938 C 501.8125 408.847656 505.234375 412.742188 509.757812 413.035156 C 515.320312 413.378906 520.875 413.640625 526.40625 413.796875 Z M 526.40625 413.796875 "/>
<path style=" stroke:none;fill-rule:nonzero;fill:rgb(59.999084%,74.119568%,85.879517%);fill-opacity:1;" d="M 517.523438 592.773438 C 520.097656 592.773438 522.628906 591.570312 524.226562 589.308594 L 526.59375 585.980469 C 528.929688 582.722656 531.304688 579.484375 533.730469 576.28125 C 536.457031 572.667969 535.734375 567.53125 532.125 564.804688 C 528.492188 562.066406 523.367188 562.796875 520.644531 566.410156 C 518.148438 569.726562 515.6875 573.0625 513.257812 576.460938 L 510.847656 579.871094 C 508.242188 583.566406 509.117188 588.675781 512.8125 591.289062 C 514.246094 592.289062 515.894531 592.773438 517.523438 592.773438 Z M 517.523438 592.773438 "/>
<path style=" stroke:none;fill-rule:nonzero;fill:rgb(59.999084%,74.119568%,85.879517%);fill-opacity:1;" d="M 525.078125 782.160156 C 525.652344 782.285156 526.226562 782.339844 526.789062 782.339844 C 530.574219 782.339844 533.976562 779.703125 534.792969 775.851562 C 535.664062 771.757812 537.070312 767.90625 538.972656 764.417969 C 541.144531 760.441406 539.667969 755.46875 535.703125 753.308594 C 531.730469 751.136719 526.75 752.601562 524.59375 756.574219 C 521.933594 761.449219 519.980469 766.792969 518.777344 772.445312 C 517.828125 776.867188 520.644531 781.21875 525.078125 782.160156 Z M 525.078125 782.160156 "/>
<path style=" stroke:none;fill-rule:nonzero;fill:rgb(59.999084%,74.119568%,85.879517%);fill-opacity:1;" d="M 548.050781 554.285156 C 550.277344 554.285156 552.5 553.382812 554.113281 551.605469 C 557.683594 547.679688 561.363281 543.855469 565.148438 540.144531 C 568.375 536.972656 568.425781 531.789062 565.261719 528.558594 C 562.09375 525.324219 556.914062 525.273438 553.679688 528.445312 C 549.671875 532.371094 545.78125 536.425781 541.996094 540.578125 C 538.949219 543.921875 539.195312 549.105469 542.542969 552.15625 C 544.109375 553.578125 546.082031 554.285156 548.050781 554.285156 Z M 548.050781 554.285156 "/>
<path style=" stroke:none;fill-rule:nonzero;fill:rgb(59.999084%,74.119568%,85.879517%);fill-opacity:1;" d="M 428.996094 403.066406 C 432.9375 403.066406 436.417969 400.207031 437.074219 396.191406 C 437.800781 391.726562 434.769531 387.515625 430.304688 386.785156 C 424.929688 385.910156 419.558594 385.007812 414.191406 384.101562 C 409.703125 383.347656 405.5 386.351562 404.746094 390.808594 C 403.992188 395.265625 406.988281 399.5 411.453125 400.253906 C 416.855469 401.171875 422.261719 402.082031 427.667969 402.960938 C 428.117188 403.023438 428.5625 403.066406 428.996094 403.066406 Z M 428.996094 403.066406 "/>
<path style=" stroke:none;fill-rule:nonzero;fill:rgb(59.999084%,74.119568%,85.879517%);fill-opacity:1;" d="M 737.644531 691.886719 C 740.003906 691.886719 742.34375 690.871094 743.96875 688.90625 C 747.554688 684.5625 750.988281 679.859375 754.183594 674.921875 C 756.640625 671.128906 755.558594 666.046875 751.757812 663.589844 C 747.957031 661.132812 742.886719 662.207031 740.429688 666.015625 C 737.570312 670.421875 734.511719 674.609375 731.328125 678.476562 C 728.441406 681.964844 728.941406 687.128906 732.433594 690.011719 C 733.957031 691.273438 735.808594 691.886719 737.644531 691.886719 Z M 737.644531 691.886719 "/>
<path style=" stroke:none;fill-rule:nonzero;fill:rgb(59.999084%,74.119568%,85.879517%);fill-opacity:1;" d="M 766.160156 648.738281 C 768.453125 648.171875 770.488281 646.632812 771.59375 644.335938 C 774.042969 639.265625 776.253906 633.875 778.1875 628.328125 C 779.671875 624.050781 777.410156 619.390625 773.132812 617.898438 C 768.855469 616.417969 764.1875 618.667969 762.703125 622.953125 C 760.976562 627.910156 759 632.710938 756.828125 637.226562 C 754.863281 641.296875 756.574219 646.195312 760.65625 648.164062 C 762.441406 649.023438 764.382812 649.179688 766.160156 648.738281 Z M 766.160156 648.738281 "/>
<path style=" stroke:none;fill-rule:nonzero;fill:rgb(59.999084%,74.119568%,85.879517%);fill-opacity:1;" d="M 54.054688 144.730469 C 55.960938 139.9375 58.148438 135.199219 60.550781 130.652344 C 62.664062 126.648438 61.132812 121.699219 57.132812 119.585938 C 53.128906 117.464844 48.179688 119.011719 46.066406 123.003906 C 43.394531 128.058594 40.960938 133.324219 38.839844 138.648438 C 37.160156 142.851562 39.207031 147.621094 43.410156 149.292969 C 44.410156 149.683594 45.433594 149.882812 46.441406 149.882812 C 49.695312 149.890625 52.765625 147.941406 54.054688 144.730469 Z M 54.054688 144.730469 "/>
<path style=" stroke:none;fill-rule:nonzero;fill:rgb(59.999084%,74.119568%,85.879517%);fill-opacity:1;" d="M 778.574219 233.414062 C 779.6875 227.777344 780.570312 222.109375 781.195312 216.546875 C 781.703125 212.046875 778.464844 207.992188 773.96875 207.492188 C 769.503906 206.992188 765.414062 210.21875 764.914062 214.71875 C 764.34375 219.832031 763.53125 225.050781 762.507812 230.234375 C 761.628906 234.675781 764.515625 238.984375 768.953125 239.859375 C 769.496094 239.96875 770.027344 240.015625 770.550781 240.015625 C 774.378906 240.007812 777.800781 237.3125 778.574219 233.414062 Z M 778.574219 233.414062 "/>
<path style=" stroke:none;fill-rule:nonzero;fill:rgb(59.999084%,74.119568%,85.879517%);fill-opacity:1;" d="M 741.164062 86.527344 C 737.847656 82.980469 734.300781 79.5 730.613281 76.191406 C 727.238281 73.160156 722.058594 73.4375 719.046875 76.8125 C 716.023438 80.179688 716.300781 85.355469 719.667969 88.378906 C 722.996094 91.371094 726.199219 94.507812 729.195312 97.71875 L 730.71875 99.367188 C 732.332031 101.128906 734.546875 102.027344 736.765625 102.027344 C 738.742188 102.027344 740.722656 101.316406 742.296875 99.875 C 745.628906 96.820312 745.859375 91.640625 742.804688 88.296875 Z M 741.164062 86.527344 "/>
<path style=" stroke:none;fill-rule:nonzero;fill:rgb(59.999084%,74.119568%,85.879517%);fill-opacity:1;" d="M 779.890625 165.257812 C 779.121094 160.8125 774.910156 157.828125 770.421875 158.582031 C 765.964844 159.351562 762.972656 163.589844 763.746094 168.054688 C 764.613281 173.089844 765.242188 178.285156 765.613281 183.496094 C 765.921875 187.8125 769.519531 191.105469 773.78125 191.105469 C 773.976562 191.105469 774.171875 191.097656 774.371094 191.089844 C 778.882812 190.769531 782.285156 186.847656 781.964844 182.339844 C 781.554688 176.582031 780.859375 170.839844 779.890625 165.257812 Z M 779.890625 165.257812 "/>
<path style=" stroke:none;fill-rule:nonzero;fill:rgb(59.999084%,74.119568%,85.879517%);fill-opacity:1;" d="M 770.144531 553.253906 C 774.3125 551.5 776.277344 546.699219 774.527344 542.527344 C 772.238281 537.070312 769.4375 531.78125 766.203125 526.78125 C 763.746094 522.988281 758.679688 521.890625 754.871094 524.355469 C 751.078125 526.816406 749.988281 531.886719 752.445312 535.6875 C 755.160156 539.875 757.5 544.3125 759.417969 548.867188 C 760.738281 552.007812 763.777344 553.890625 766.972656 553.890625 C 768.027344 553.898438 769.109375 553.6875 770.144531 553.253906 Z M 770.144531 553.253906 "/>
<g clip-path="url(#clip1)" clip-rule="nonzero">
<path style=" stroke:none;fill-rule:nonzero;fill:rgb(59.999084%,74.119568%,85.879517%);fill-opacity:1;" d="M 34.539062 197.53125 C 34.792969 197.546875 35.039062 197.5625 35.285156 197.5625 C 39.480469 197.5625 43.050781 194.367188 43.4375 190.109375 C 43.730469 186.863281 44.117188 183.601562 44.589844 180.316406 C 44.871094 178.382812 45.179688 176.476562 45.523438 174.589844 C 46.335938 170.140625 43.378906 165.875 38.929688 165.0625 C 34.464844 164.242188 30.210938 167.21875 29.402344 171.65625 C 29.023438 173.738281 28.679688 175.851562 28.378906 177.972656 C 27.863281 181.539062 27.445312 185.085938 27.125 188.625 C 26.707031 193.128906 30.03125 197.121094 34.539062 197.53125 Z M 34.539062 197.53125 "/>
</g>
<path style=" stroke:none;fill-rule:nonzero;fill:rgb(59.999084%,74.119568%,85.879517%);fill-opacity:1;" d="M 657.773438 389.113281 C 662.84375 386.632812 667.882812 383.917969 672.75 381.050781 C 676.648438 378.757812 677.941406 373.726562 675.648438 369.835938 C 673.355469 365.9375 668.324219 364.632812 664.433594 366.9375 C 659.9375 369.589844 655.265625 372.097656 650.570312 374.398438 C 646.507812 376.390625 644.828125 381.296875 646.820312 385.363281 C 648.238281 388.261719 651.152344 389.949219 654.183594 389.949219 C 655.382812 389.949219 656.609375 389.679688 657.773438 389.113281 Z M 657.773438 389.113281 "/>
<g clip-path="url(#clip2)" clip-rule="nonzero">
<path style=" stroke:none;fill-rule:nonzero;fill:rgb(59.999084%,74.119568%,85.879517%);fill-opacity:1;" d="M 37.9375 246.457031 C 38.511719 246.457031 39.09375 246.398438 39.675781 246.277344 C 44.097656 245.316406 46.910156 240.957031 45.949219 236.535156 C 44.878906 231.585938 44.066406 226.449219 43.535156 221.253906 C 43.074219 216.757812 39.09375 213.390625 34.546875 213.941406 C 30.050781 214.398438 26.773438 218.421875 27.230469 222.925781 C 27.820312 228.726562 28.738281 234.46875 29.933594 240 C 30.769531 243.835938 34.160156 246.457031 37.9375 246.457031 Z M 37.9375 246.457031 "/>
</g>
<path style=" stroke:none;fill-rule:nonzero;fill:rgb(59.999084%,74.119568%,85.879517%);fill-opacity:1;" d="M 675.828125 493.5625 C 680.964844 493.921875 686.078125 494.609375 691.019531 495.601562 C 691.558594 495.707031 692.101562 495.765625 692.640625 495.765625 C 696.464844 495.765625 699.882812 493.078125 700.660156 489.1875 C 701.554688 484.746094 698.679688 480.4375 694.238281 479.542969 C 688.617188 478.414062 682.800781 477.632812 676.96875 477.226562 C 672.496094 476.988281 668.539062 480.3125 668.226562 484.828125 C 667.914062 489.339844 671.316406 493.25 675.828125 493.5625 Z M 675.828125 493.5625 "/>
<g clip-path="url(#clip3)" clip-rule="nonzero">
<path style=" stroke:none;fill-rule:nonzero;fill:rgb(59.999084%,74.119568%,85.879517%);fill-opacity:1;" d="M 589.136719 44.46875 C 591.824219 44.351562 594.519531 44.296875 597.214844 44.296875 C 599.761719 44.335938 602.324219 44.335938 604.882812 44.433594 C 609.363281 44.746094 613.207031 41.066406 613.359375 36.539062 C 613.523438 32.015625 609.984375 28.222656 605.464844 28.058594 C 602.800781 27.960938 600.136719 27.910156 597.484375 27.910156 C 594.417969 27.871094 591.460938 27.96875 588.449219 28.089844 C 583.925781 28.28125 580.417969 32.097656 580.597656 36.621094 C 580.78125 41.027344 584.410156 44.46875 588.785156 44.46875 C 588.90625 44.476562 589.019531 44.46875 589.136719 44.46875 Z M 589.136719 44.46875 "/>
</g>
<path style=" stroke:none;fill-rule:nonzero;fill:rgb(59.999084%,74.119568%,85.879517%);fill-opacity:1;" d="M 713.375 350.484375 C 716.667969 347.398438 716.644531 342.398438 713.566406 339.097656 C 710.476562 335.789062 705.101562 335.789062 701.800781 338.875 C 698 342.414062 694.15625 345.757812 690.273438 348.921875 C 686.757812 351.78125 686.226562 356.933594 689.078125 360.449219 C 690.699219 362.445312 693.058594 363.480469 695.441406 363.480469 C 697.261719 363.480469 699.089844 362.882812 700.605469 361.644531 C 704.78125 358.253906 708.945312 354.632812 712.902344 350.9375 C 712.925781 350.902344 713.34375 350.519531 713.375 350.484375 Z M 713.375 350.484375 "/>
<path style=" stroke:none;fill-rule:nonzero;fill:rgb(59.999084%,74.119568%,85.879517%);fill-opacity:1;" d="M 636.128906 48.023438 C 641.28125 49.03125 646.425781 50.25 651.425781 51.660156 C 652.160156 51.867188 652.90625 51.972656 653.644531 51.972656 C 657.222656 51.972656 660.507812 49.605469 661.523438 45.992188 C 662.746094 41.640625 660.207031 37.121094 655.855469 35.890625 C 650.441406 34.367188 644.863281 33.039062 639.28125 31.949219 C 634.816406 31.082031 630.539062 33.972656 629.664062 38.414062 C 628.796875 42.847656 631.6875 47.15625 636.128906 48.023438 Z M 636.128906 48.023438 "/>
<path style=" stroke:none;fill-rule:nonzero;fill:rgb(59.999084%,74.119568%,85.879517%);fill-opacity:1;" d="M 680.769531 62.648438 C 685.519531 64.910156 690.160156 67.382812 694.550781 70.003906 C 695.867188 70.78125 697.308594 71.160156 698.734375 71.160156 C 701.53125 71.160156 704.25 69.734375 705.78125 67.160156 C 708.09375 63.269531 706.820312 58.246094 702.929688 55.929688 C 698.105469 53.054688 693.019531 50.34375 687.816406 47.859375 C 683.742188 45.925781 678.84375 47.648438 676.894531 51.734375 C 674.953125 55.816406 676.691406 60.707031 680.769531 62.648438 Z M 680.769531 62.648438 "/>
<path style=" stroke:none;fill-rule:nonzero;fill:rgb(59.999084%,74.119568%,85.879517%);fill-opacity:1;" d="M 743.96875 300.230469 C 740.191406 297.734375 735.101562 298.765625 732.613281 302.542969 C 730.023438 306.457031 727.3125 310.261719 724.460938 313.953125 L 723.394531 315.324219 C 720.617188 318.894531 721.265625 324.039062 724.835938 326.816406 C 726.328125 327.980469 728.097656 328.539062 729.859375 328.539062 C 732.300781 328.539062 734.71875 327.449219 736.332031 325.375 L 737.445312 323.941406 C 740.519531 319.945312 743.46875 315.816406 746.277344 311.570312 C 748.777344 307.808594 747.742188 302.730469 743.96875 300.230469 Z M 743.96875 300.230469 "/>
<path style=" stroke:none;fill-rule:nonzero;fill:rgb(59.999084%,74.119568%,85.879517%);fill-opacity:1;" d="M 609.878906 406.210938 C 615.433594 404.875 620.929688 403.351562 626.214844 401.6875 C 630.53125 400.328125 632.925781 395.734375 631.566406 391.414062 C 630.207031 387.097656 625.59375 384.699219 621.292969 386.066406 C 616.367188 387.613281 611.238281 389.03125 606.054688 390.277344 C 601.652344 391.332031 598.941406 395.757812 600 400.15625 C 600.898438 403.910156 604.257812 406.441406 607.960938 406.441406 C 608.59375 406.433594 609.230469 406.359375 609.878906 406.210938 Z M 609.878906 406.210938 "/>
<path style=" stroke:none;fill-rule:nonzero;fill:rgb(59.999084%,74.119568%,85.879517%);fill-opacity:1;" d="M 755.25 138.3125 C 756.550781 141.484375 759.605469 143.402344 762.835938 143.402344 C 763.867188 143.402344 764.925781 143.203125 765.941406 142.789062 C 770.125 141.074219 772.125 136.289062 770.414062 132.097656 C 768.21875 126.746094 765.703125 121.496094 762.933594 116.472656 C 760.746094 112.515625 755.78125 111.074219 751.808594 113.253906 C 747.851562 115.441406 746.402344 120.421875 748.585938 124.378906 C 751.054688 128.859375 753.289062 133.546875 755.25 138.3125 Z M 755.25 138.3125 "/>
<path style=" stroke:none;fill-rule:nonzero;fill:rgb(59.999084%,74.119568%,85.879517%);fill-opacity:1;" d="M 584.261719 521.152344 C 585.957031 521.152344 587.667969 520.628906 589.136719 519.539062 C 591.757812 517.589844 594.4375 515.707031 597.15625 513.878906 C 598.746094 512.8125 600.375 511.789062 602.023438 510.804688 C 605.90625 508.480469 607.160156 503.449219 604.832031 499.566406 C 602.507812 495.683594 597.484375 494.421875 593.59375 496.757812 C 591.707031 497.886719 589.847656 499.050781 588.03125 500.269531 C 585.089844 502.246094 582.195312 504.285156 579.363281 506.382812 C 575.722656 509.078125 574.960938 514.214844 577.65625 517.84375 C 579.289062 520.015625 581.753906 521.152344 584.261719 521.152344 Z M 584.261719 521.152344 "/>
<path style=" stroke:none;fill-rule:nonzero;fill:rgb(59.999084%,74.119568%,85.879517%);fill-opacity:1;" d="M 138.648438 342.078125 C 142.410156 342.078125 145.792969 339.484375 146.644531 335.65625 C 147.621094 331.242188 144.828125 326.867188 140.410156 325.890625 C 135.289062 324.761719 130.226562 323.382812 125.378906 321.804688 C 121.070312 320.394531 116.457031 322.753906 115.046875 327.054688 C 113.644531 331.355469 115.996094 335.984375 120.296875 337.386719 C 125.65625 339.128906 131.234375 340.644531 136.871094 341.898438 C 137.46875 342.023438 138.066406 342.078125 138.648438 342.078125 Z M 138.648438 342.078125 "/>
<path style=" stroke:none;fill-rule:nonzero;fill:rgb(59.999084%,74.119568%,85.879517%);fill-opacity:1;" d="M 627.796875 498.960938 C 628.566406 498.960938 629.34375 498.84375 630.113281 498.617188 C 635.015625 497.175781 640.0625 496.003906 645.132812 495.132812 C 649.589844 494.371094 652.585938 490.136719 651.824219 485.671875 C 651.0625 481.214844 646.851562 478.234375 642.363281 478.976562 C 636.667969 479.953125 630.984375 481.273438 625.476562 482.902344 C 621.136719 484.179688 618.652344 488.734375 619.941406 493.078125 C 620.988281 496.648438 624.257812 498.960938 627.796875 498.960938 Z M 627.796875 498.960938 "/>
<path style=" stroke:none;fill-rule:nonzero;fill:rgb(59.999084%,74.119568%,85.879517%);fill-opacity:1;" d="M 751.9375 285.894531 C 753.042969 286.402344 754.207031 286.640625 755.355469 286.640625 C 758.460938 286.640625 761.425781 284.871094 762.800781 281.863281 C 765.160156 276.726562 767.347656 271.433594 769.308594 266.160156 C 770.871094 261.914062 768.707031 257.203125 764.464844 255.632812 C 760.214844 254.082031 755.511719 256.230469 753.9375 260.472656 C 752.128906 265.371094 750.09375 270.273438 747.917969 275.039062 C 746.023438 279.144531 747.824219 284.011719 751.9375 285.894531 Z M 751.9375 285.894531 "/>
<path style=" stroke:none;fill-rule:nonzero;fill:rgb(59.999084%,74.119568%,85.879517%);fill-opacity:1;" d="M 709.066406 699.128906 C 705.003906 701.898438 700.621094 704.363281 696.023438 706.460938 C 691.910156 708.335938 690.09375 713.195312 691.96875 717.316406 C 693.335938 720.332031 696.320312 722.109375 699.425781 722.109375 C 700.5625 722.109375 701.71875 721.871094 702.824219 721.363281 C 708.265625 718.882812 713.472656 715.957031 718.308594 712.65625 C 722.042969 710.105469 723.003906 705.011719 720.453125 701.265625 C 717.90625 697.539062 712.820312 696.574219 709.066406 699.128906 Z M 709.066406 699.128906 "/>
<path style=" stroke:none;fill-rule:nonzero;fill:rgb(59.999084%,74.119568%,85.879517%);fill-opacity:1;" d="M 363.175781 186.085938 C 359.949219 190.535156 356.753906 194.980469 353.574219 199.421875 C 350.9375 203.101562 351.789062 208.222656 355.464844 210.851562 C 356.910156 211.882812 358.570312 212.382812 360.226562 212.382812 C 362.78125 212.382812 365.296875 211.195312 366.894531 208.957031 C 370.058594 204.550781 373.226562 200.117188 376.441406 195.695312 C 379.09375 192.03125 378.28125 186.914062 374.613281 184.257812 C 370.941406 181.605469 365.832031 182.421875 363.175781 186.085938 Z M 363.175781 186.085938 "/>
<path style=" stroke:none;fill-rule:nonzero;fill:rgb(59.999084%,74.119568%,85.879517%);fill-opacity:1;" d="M 485.777344 402.8125 C 486.300781 398.320312 483.089844 394.25 478.601562 393.71875 C 473.242188 393.085938 467.867188 392.398438 462.503906 391.667969 C 458.070312 391.046875 453.890625 394.191406 453.277344 398.675781 C 452.664062 403.15625 455.800781 407.285156 460.28125 407.898438 C 465.753906 408.644531 471.21875 409.347656 476.683594 409.988281 C 477.011719 410.03125 477.332031 410.046875 477.652344 410.046875 C 481.753906 410.054688 485.292969 406.980469 485.777344 402.8125 Z M 485.777344 402.8125 "/>
<path style=" stroke:none;fill-rule:nonzero;fill:rgb(59.999084%,74.119568%,85.879517%);fill-opacity:1;" d="M 54.855469 672.996094 C 56.378906 675.601562 59.125 677.050781 61.933594 677.050781 C 63.335938 677.050781 64.761719 676.691406 66.0625 675.929688 C 69.972656 673.640625 71.28125 668.628906 68.996094 664.71875 C 66.375 660.230469 63.890625 655.5625 61.648438 650.851562 C 59.699219 646.761719 54.796875 645.035156 50.726562 646.992188 C 46.648438 648.941406 44.917969 653.832031 46.867188 657.914062 C 49.316406 663.03125 52.003906 668.105469 54.855469 672.996094 Z M 54.855469 672.996094 "/>
<path style=" stroke:none;fill-rule:nonzero;fill:rgb(59.999084%,74.119568%,85.879517%);fill-opacity:1;" d="M 76.6875 81.734375 C 72.601562 85.816406 68.71875 90.09375 65.136719 94.425781 C 62.253906 97.917969 62.753906 103.085938 66.242188 105.960938 C 67.777344 107.222656 69.617188 107.835938 71.453125 107.835938 C 73.8125 107.835938 76.15625 106.820312 77.777344 104.855469 C 81.023438 100.921875 84.554688 97.039062 88.265625 93.335938 C 91.476562 90.132812 91.476562 84.949219 88.273438 81.746094 C 85.078125 78.53125 79.894531 78.539062 76.6875 81.734375 Z M 76.6875 81.734375 "/>
<path style=" stroke:none;fill-rule:nonzero;fill:rgb(59.999084%,74.119568%,85.879517%);fill-opacity:1;" d="M 618.949219 718.085938 L 610.953125 718.195312 C 608.09375 718.234375 605.152344 718.339844 602.171875 718.519531 C 597.65625 718.800781 594.214844 722.683594 594.492188 727.207031 C 594.765625 731.546875 598.367188 734.890625 602.660156 734.890625 C 602.832031 734.890625 603.003906 734.890625 603.167969 734.875 C 605.890625 734.703125 608.550781 734.613281 611.164062 734.578125 L 619.160156 734.472656 C 623.683594 734.414062 627.304688 730.695312 627.238281 726.164062 C 627.171875 721.632812 623.183594 717.859375 618.949219 718.085938 Z M 618.949219 718.085938 "/>
<path style=" stroke:none;fill-rule:nonzero;fill:rgb(59.999084%,74.119568%,85.879517%);fill-opacity:1;" d="M 37.453125 599.761719 C 33.015625 600.605469 30.089844 604.890625 30.933594 609.332031 C 31.980469 614.886719 33.300781 620.480469 34.839844 625.960938 C 35.859375 629.574219 39.144531 631.941406 42.722656 631.941406 C 43.453125 631.941406 44.207031 631.84375 44.941406 631.628906 C 49.300781 630.410156 51.839844 625.878906 50.613281 621.527344 C 49.195312 616.5 47.992188 611.371094 47.023438 606.28125 C 46.1875 601.84375 41.910156 598.902344 37.453125 599.761719 Z M 37.453125 599.761719 "/>
<g clip-path="url(#clip4)" clip-rule="nonzero">
<path style=" stroke:none;fill-rule:nonzero;fill:rgb(59.999084%,74.119568%,85.879517%);fill-opacity:1;" d="M 36.800781 550.867188 C 32.292969 550.515625 28.34375 553.890625 28 558.398438 C 27.558594 564.035156 27.363281 569.777344 27.417969 575.46875 C 27.453125 579.222656 30.007812 582.367188 33.464844 583.300781 C 34.167969 583.492188 34.921875 583.589844 35.683594 583.589844 C 40.207031 583.546875 43.84375 579.84375 43.804688 575.324219 C 43.753906 570.097656 43.933594 564.828125 44.335938 559.667969 C 44.671875 555.152344 41.320312 551.195312 36.800781 550.867188 Z M 36.800781 550.867188 "/>
</g>
<path style=" stroke:none;fill-rule:nonzero;fill:rgb(59.999084%,74.119568%,85.879517%);fill-opacity:1;" d="M 666.742188 715 C 661.894531 715.800781 656.789062 716.414062 651.136719 716.882812 C 646.632812 717.25 643.28125 721.207031 643.648438 725.722656 C 644 730 647.582031 733.234375 651.808594 733.234375 C 652.03125 733.234375 652.257812 733.226562 652.488281 733.210938 C 658.585938 732.703125 664.113281 732.039062 669.40625 731.164062 C 673.871094 730.425781 676.894531 726.214844 676.15625 721.75 C 675.410156 717.292969 671.242188 714.253906 666.742188 715 Z M 666.742188 715 "/>
<path style=" stroke:none;fill-rule:nonzero;fill:rgb(59.999084%,74.119568%,85.879517%);fill-opacity:1;" d="M 88.929688 449.558594 C 91.148438 449.558594 93.351562 448.664062 94.96875 446.902344 C 98.53125 443.019531 102.257812 439.261719 106.050781 435.714844 C 109.351562 432.625 109.535156 427.4375 106.445312 424.128906 C 103.363281 420.820312 98.171875 420.648438 94.859375 423.734375 C 90.765625 427.570312 86.734375 431.632812 82.890625 435.820312 C 79.828125 439.152344 80.054688 444.339844 83.390625 447.394531 C 84.972656 448.847656 86.953125 449.558594 88.929688 449.558594 Z M 88.929688 449.558594 "/>
<path style=" stroke:none;fill-rule:nonzero;fill:rgb(59.999084%,74.119568%,85.879517%);fill-opacity:1;" d="M 34.007812 524.527344 C 32.851562 528.902344 35.464844 533.386719 39.839844 534.539062 C 40.535156 534.730469 41.238281 534.820312 41.929688 534.820312 C 45.558594 534.820312 48.875 532.386719 49.84375 528.707031 C 51.160156 523.710938 52.726562 518.664062 54.480469 513.722656 C 56.003906 509.453125 53.773438 504.777344 49.515625 503.253906 C 45.222656 501.730469 40.558594 503.949219 39.042969 508.21875 C 37.144531 513.601562 35.441406 519.089844 34.007812 524.527344 Z M 34.007812 524.527344 "/>
<path style=" stroke:none;fill-rule:nonzero;fill:rgb(59.999084%,74.119568%,85.879517%);fill-opacity:1;" d="M 389.308594 172.753906 C 391.777344 172.753906 394.21875 171.648438 395.824219 169.535156 C 399.109375 165.242188 402.425781 160.976562 405.800781 156.738281 C 408.621094 153.199219 408.039062 148.046875 404.5 145.230469 C 400.96875 142.417969 395.816406 142.992188 392.988281 146.53125 C 389.554688 150.847656 386.164062 155.207031 382.8125 159.589844 C 380.070312 163.179688 380.757812 168.324219 384.355469 171.066406 C 385.828125 172.207031 387.574219 172.753906 389.308594 172.753906 Z M 389.308594 172.753906 "/>
<path style=" stroke:none;fill-rule:nonzero;fill:rgb(59.999084%,74.119568%,85.879517%);fill-opacity:1;" d="M 61.941406 462.632812 C 58.820312 467.34375 55.847656 472.234375 53.101562 477.183594 C 50.90625 481.140625 52.339844 486.128906 56.296875 488.316406 C 57.558594 489.015625 58.917969 489.339844 60.261719 489.339844 C 63.148438 489.339844 65.941406 487.816406 67.433594 485.121094 C 69.972656 480.550781 72.714844 476.019531 75.601562 471.671875 C 78.097656 467.902344 77.066406 462.8125 73.296875 460.316406 C 69.511719 457.816406 64.433594 458.867188 61.941406 462.632812 Z M 61.941406 462.632812 "/>
<path style=" stroke:none;fill-rule:nonzero;fill:rgb(59.999084%,74.119568%,85.879517%);fill-opacity:1;" d="M 92.984375 324.390625 C 95.785156 324.390625 98.515625 322.957031 100.046875 320.371094 C 102.347656 316.46875 101.0625 311.449219 97.164062 309.144531 C 92.753906 306.539062 88.527344 303.640625 84.601562 300.511719 C 81.0625 297.691406 75.910156 298.289062 73.09375 301.820312 C 70.273438 305.359375 70.863281 310.523438 74.402344 313.332031 C 78.917969 316.921875 83.769531 320.253906 88.8125 323.246094 C 90.132812 324.023438 91.566406 324.390625 92.984375 324.390625 Z M 92.984375 324.390625 "/>
<path style=" stroke:none;fill-rule:nonzero;fill:rgb(59.999084%,74.119568%,85.879517%);fill-opacity:1;" d="M 356.269531 382.609375 C 355.539062 387.074219 358.5625 391.285156 363.027344 392.015625 C 368.386719 392.890625 373.761719 393.792969 379.144531 394.710938 C 379.609375 394.792969 380.070312 394.824219 380.527344 394.824219 C 384.453125 394.824219 387.917969 392.003906 388.597656 388.007812 C 389.359375 383.550781 386.359375 379.316406 381.894531 378.554688 C 376.480469 377.628906 371.074219 376.726562 365.683594 375.839844 C 361.203125 375.121094 357 378.144531 356.269531 382.609375 Z M 356.269531 382.609375 "/>
<path style=" stroke:none;fill-rule:nonzero;fill:rgb(90.19928%,76.858521%,31.759644%);fill-opacity:1;" d="M 326.234375 618.941406 L 248.28125 572.167969 L 248.28125 478.90625 C 245.570312 478.683594 242.859375 478.496094 240.089844 478.496094 C 237.320312 478.496094 234.609375 478.683594 231.898438 478.90625 L 231.898438 572.160156 L 153.945312 618.933594 C 153.222656 619.367188 152.683594 619.972656 152.152344 620.570312 C 154.460938 625.199219 157.097656 629.625 160.082031 633.800781 C 160.859375 633.613281 161.65625 633.425781 162.375 632.980469 L 240.089844 586.359375 L 317.796875 632.980469 C 318.511719 633.410156 319.261719 633.695312 320.027344 633.882812 C 323.03125 629.679688 325.695312 625.230469 328.023438 620.570312 C 327.488281 619.972656 326.957031 619.375 326.234375 618.941406 Z M 326.234375 618.941406 "/>
<path style=" stroke:none;fill-rule:nonzero;fill:rgb(90.19928%,76.858521%,31.759644%);fill-opacity:1;" d="M 654.964844 242.808594 L 608.757812 204.304688 L 608.757812 143.164062 C 606.070312 142.828125 603.339844 142.597656 600.5625 142.597656 C 597.785156 142.597656 595.058594 142.828125 592.371094 143.164062 L 592.371094 204.304688 L 546.164062 242.808594 C 545.886719 243.039062 545.757812 243.367188 545.511719 243.621094 C 548.417969 248.121094 551.867188 252.222656 555.75 255.878906 C 556.046875 255.6875 556.375 255.625 556.652344 255.394531 L 600.5625 218.804688 L 644.476562 255.394531 C 644.746094 255.617188 645.066406 255.714844 645.351562 255.894531 C 649.253906 252.238281 652.703125 248.128906 655.617188 243.621094 C 655.382812 243.359375 655.242188 243.039062 654.964844 242.808594 Z M 654.964844 242.808594 "/>
<path style=" stroke:none;fill-rule:nonzero;fill:rgb(90.19928%,76.858521%,31.759644%);fill-opacity:1;" d="M 219.667969 209.203125 L 190.933594 187.65625 L 190.933594 151.617188 C 188.289062 151.078125 185.550781 150.792969 182.742188 150.792969 C 179.933594 150.792969 177.195312 151.078125 174.550781 151.617188 L 174.550781 187.65625 L 145.820312 209.203125 C 148.203125 214.226562 151.570312 218.640625 155.683594 222.289062 L 182.742188 201.996094 L 209.800781 222.289062 C 213.914062 218.640625 217.28125 214.234375 219.667969 209.203125 Z M 219.667969 209.203125 "/>
<path style=" stroke:none;fill-rule:nonzero;fill:rgb(90.19928%,76.858521%,31.759644%);fill-opacity:1;" d="M 281.054688 527.648438 C 281.054688 528.1875 281 528.722656 280.894531 529.25 C 280.792969 529.777344 280.636719 530.289062 280.429688 530.785156 C 280.222656 531.28125 279.972656 531.753906 279.671875 532.203125 C 279.375 532.648438 279.035156 533.0625 278.652344 533.441406 C 278.273438 533.824219 277.859375 534.164062 277.414062 534.460938 C 276.964844 534.761719 276.492188 535.011719 275.996094 535.21875 C 275.5 535.425781 274.988281 535.582031 274.460938 535.683594 C 273.929688 535.789062 273.398438 535.84375 272.859375 535.84375 C 272.324219 535.84375 271.789062 535.789062 271.261719 535.683594 C 270.734375 535.582031 270.222656 535.425781 269.726562 535.21875 C 269.230469 535.011719 268.757812 534.761719 268.308594 534.460938 C 267.863281 534.164062 267.449219 533.824219 267.066406 533.441406 C 266.6875 533.0625 266.347656 532.648438 266.050781 532.203125 C 265.75 531.753906 265.496094 531.28125 265.292969 530.785156 C 265.085938 530.289062 264.929688 529.777344 264.824219 529.25 C 264.71875 528.722656 264.667969 528.1875 264.667969 527.648438 C 264.667969 527.113281 264.71875 526.578125 264.824219 526.050781 C 264.929688 525.523438 265.085938 525.011719 265.292969 524.515625 C 265.496094 524.019531 265.75 523.546875 266.050781 523.097656 C 266.347656 522.652344 266.6875 522.238281 267.066406 521.855469 C 267.449219 521.476562 267.863281 521.136719 268.308594 520.839844 C 268.757812 520.539062 269.230469 520.289062 269.726562 520.082031 C 270.222656 519.875 270.734375 519.71875 271.261719 519.613281 C 271.789062 519.511719 272.324219 519.457031 272.859375 519.457031 C 273.398438 519.457031 273.929688 519.511719 274.460938 519.613281 C 274.988281 519.71875 275.5 519.875 275.996094 520.082031 C 276.492188 520.289062 276.964844 520.539062 277.414062 520.839844 C 277.859375 521.136719 278.273438 521.476562 278.652344 521.855469 C 279.035156 522.238281 279.375 522.652344 279.671875 523.097656 C 279.972656 523.546875 280.222656 524.019531 280.429688 524.515625 C 280.636719 525.011719 280.792969 525.523438 280.894531 526.050781 C 281 526.578125 281.054688 527.113281 281.054688 527.648438 Z M 281.054688 527.648438 "/>
<path style=" stroke:none;fill-rule:nonzero;fill:rgb(90.19928%,76.858521%,31.759644%);fill-opacity:1;" d="M 281.054688 560.421875 C 281.054688 560.957031 281 561.492188 280.894531 562.019531 C 280.792969 562.546875 280.636719 563.058594 280.429688 563.554688 C 280.222656 564.050781 279.972656 564.523438 279.671875 564.972656 C 279.375 565.417969 279.035156 565.832031 278.652344 566.214844 C 278.273438 566.59375 277.859375 566.933594 277.414062 567.234375 C 276.964844 567.53125 276.492188 567.785156 275.996094 567.988281 C 275.5 568.195312 274.988281 568.351562 274.460938 568.457031 C 273.929688 568.5625 273.398438 568.613281 272.859375 568.613281 C 272.324219 568.613281 271.789062 568.5625 271.261719 568.457031 C 270.734375 568.351562 270.222656 568.195312 269.726562 567.988281 C 269.230469 567.785156 268.757812 567.53125 268.308594 567.234375 C 267.863281 566.933594 267.449219 566.59375 267.066406 566.214844 C 266.6875 565.832031 266.347656 565.417969 266.050781 564.972656 C 265.75 564.523438 265.496094 564.050781 265.292969 563.554688 C 265.085938 563.058594 264.929688 562.546875 264.824219 562.019531 C 264.71875 561.492188 264.667969 560.957031 264.667969 560.421875 C 264.667969 559.882812 264.71875 559.351562 264.824219 558.824219 C 264.929688 558.292969 265.085938 557.78125 265.292969 557.285156 C 265.496094 556.789062 265.75 556.316406 266.050781 555.867188 C 266.347656 555.421875 266.6875 555.007812 267.066406 554.628906 C 267.449219 554.246094 267.863281 553.90625 268.308594 553.609375 C 268.757812 553.308594 269.230469 553.058594 269.726562 552.851562 C 270.222656 552.644531 270.734375 552.492188 271.261719 552.386719 C 271.789062 552.28125 272.324219 552.226562 272.859375 552.226562 C 273.398438 552.226562 273.929688 552.28125 274.460938 552.386719 C 274.988281 552.492188 275.5 552.644531 275.996094 552.851562 C 276.492188 553.058594 276.964844 553.308594 277.414062 553.609375 C 277.859375 553.90625 278.273438 554.246094 278.652344 554.628906 C 279.035156 555.007812 279.375 555.421875 279.671875 555.867188 C 279.972656 556.316406 280.222656 556.789062 280.429688 557.285156 C 280.636719 557.78125 280.792969 558.292969 280.894531 558.824219 C 281 559.351562 281.054688 559.882812 281.054688 560.421875 Z M 281.054688 560.421875 "/>
<path style=" stroke:none;fill-rule:nonzero;fill:rgb(90.19928%,76.858521%,31.759644%);fill-opacity:1;" d="M 264.667969 625.960938 C 264.667969 626.5 264.617188 627.03125 264.511719 627.558594 C 264.40625 628.085938 264.25 628.597656 264.042969 629.097656 C 263.839844 629.59375 263.585938 630.066406 263.289062 630.511719 C 262.988281 630.960938 262.648438 631.375 262.269531 631.753906 C 261.886719 632.132812 261.472656 632.472656 261.027344 632.773438 C 260.578125 633.070312 260.109375 633.324219 259.609375 633.53125 C 259.113281 633.734375 258.601562 633.890625 258.074219 633.996094 C 257.546875 634.101562 257.011719 634.152344 256.476562 634.152344 C 255.9375 634.152344 255.40625 634.101562 254.878906 633.996094 C 254.351562 633.890625 253.835938 633.734375 253.339844 633.53125 C 252.84375 633.324219 252.371094 633.070312 251.925781 632.773438 C 251.476562 632.472656 251.0625 632.132812 250.683594 631.753906 C 250.300781 631.375 249.960938 630.960938 249.664062 630.511719 C 249.363281 630.066406 249.113281 629.59375 248.90625 629.097656 C 248.699219 628.597656 248.546875 628.085938 248.441406 627.558594 C 248.335938 627.03125 248.28125 626.5 248.28125 625.960938 C 248.28125 625.421875 248.335938 624.890625 248.441406 624.363281 C 248.546875 623.835938 248.699219 623.324219 248.90625 622.824219 C 249.113281 622.328125 249.363281 621.855469 249.664062 621.410156 C 249.960938 620.960938 250.300781 620.546875 250.683594 620.167969 C 251.0625 619.789062 251.476562 619.449219 251.925781 619.148438 C 252.371094 618.851562 252.84375 618.597656 253.339844 618.390625 C 253.835938 618.1875 254.351562 618.03125 254.878906 617.925781 C 255.40625 617.820312 255.9375 617.769531 256.476562 617.769531 C 257.011719 617.769531 257.546875 617.820312 258.074219 617.925781 C 258.601562 618.03125 259.113281 618.1875 259.609375 618.390625 C 260.109375 618.597656 260.578125 618.851562 261.027344 619.148438 C 261.472656 619.449219 261.886719 619.789062 262.269531 620.167969 C 262.648438 620.546875 262.988281 620.960938 263.289062 621.410156 C 263.585938 621.855469 263.839844 622.328125 264.042969 622.824219 C 264.25 623.324219 264.40625 623.835938 264.511719 624.363281 C 264.617188 624.890625 264.667969 625.421875 264.667969 625.960938 Z M 264.667969 625.960938 "/>
<path style=" stroke:none;fill-rule:nonzero;fill:rgb(90.19928%,76.858521%,31.759644%);fill-opacity:1;" d="M 231.898438 625.960938 C 231.898438 626.5 231.84375 627.03125 231.742188 627.558594 C 231.636719 628.085938 231.480469 628.597656 231.273438 629.097656 C 231.066406 629.59375 230.816406 630.066406 230.515625 630.511719 C 230.21875 630.960938 229.878906 631.375 229.5 631.753906 C 229.117188 632.132812 228.703125 632.472656 228.257812 632.773438 C 227.808594 633.070312 227.335938 633.324219 226.839844 633.53125 C 226.34375 633.734375 225.832031 633.890625 225.304688 633.996094 C 224.777344 634.101562 224.242188 634.152344 223.707031 634.152344 C 223.167969 634.152344 222.632812 634.101562 222.105469 633.996094 C 221.578125 633.890625 221.066406 633.734375 220.570312 633.53125 C 220.074219 633.324219 219.601562 633.070312 219.152344 632.773438 C 218.707031 632.472656 218.292969 632.132812 217.914062 631.753906 C 217.53125 631.375 217.191406 630.960938 216.894531 630.511719 C 216.59375 630.066406 216.34375 629.59375 216.136719 629.097656 C 215.929688 628.597656 215.773438 628.085938 215.671875 627.558594 C 215.566406 627.03125 215.511719 626.5 215.511719 625.960938 C 215.511719 625.421875 215.566406 624.890625 215.671875 624.363281 C 215.773438 623.835938 215.929688 623.324219 216.136719 622.824219 C 216.34375 622.328125 216.59375 621.855469 216.894531 621.410156 C 217.191406 620.960938 217.53125 620.546875 217.914062 620.167969 C 218.292969 619.789062 218.707031 619.449219 219.152344 619.148438 C 219.601562 618.851562 220.074219 618.597656 220.570312 618.390625 C 221.066406 618.1875 221.578125 618.03125 222.105469 617.925781 C 222.632812 617.820312 223.167969 617.769531 223.707031 617.769531 C 224.242188 617.769531 224.777344 617.820312 225.304688 617.925781 C 225.832031 618.03125 226.34375 618.1875 226.839844 618.390625 C 227.335938 618.597656 227.808594 618.851562 228.257812 619.148438 C 228.703125 619.449219 229.117188 619.789062 229.5 620.167969 C 229.878906 620.546875 230.21875 620.960938 230.515625 621.410156 C 230.816406 621.855469 231.066406 622.328125 231.273438 622.824219 C 231.480469 623.324219 231.636719 623.835938 231.742188 624.363281 C 231.84375 624.890625 231.898438 625.421875 231.898438 625.960938 Z M 231.898438 625.960938 "/>
<path style=" stroke:none;fill-rule:nonzero;fill:rgb(90.19928%,76.858521%,31.759644%);fill-opacity:1;" d="M 215.511719 560.421875 C 215.511719 560.957031 215.460938 561.492188 215.355469 562.019531 C 215.25 562.546875 215.09375 563.058594 214.890625 563.554688 C 214.683594 564.050781 214.429688 564.523438 214.132812 564.972656 C 213.832031 565.417969 213.492188 565.832031 213.113281 566.214844 C 212.734375 566.59375 212.320312 566.933594 211.871094 567.234375 C 211.425781 567.53125 210.953125 567.785156 210.457031 567.988281 C 209.957031 568.195312 209.445312 568.351562 208.917969 568.457031 C 208.390625 568.5625 207.859375 568.613281 207.320312 568.613281 C 206.78125 568.613281 206.25 568.5625 205.722656 568.457031 C 205.195312 568.351562 204.683594 568.195312 204.183594 567.988281 C 203.6875 567.785156 203.214844 567.53125 202.769531 567.234375 C 202.320312 566.933594 201.90625 566.59375 201.527344 566.214844 C 201.148438 565.832031 200.808594 565.417969 200.507812 564.972656 C 200.210938 564.523438 199.957031 564.050781 199.75 563.554688 C 199.546875 563.058594 199.390625 562.546875 199.285156 562.019531 C 199.179688 561.492188 199.128906 560.957031 199.128906 560.421875 C 199.128906 559.882812 199.179688 559.351562 199.285156 558.824219 C 199.390625 558.292969 199.546875 557.78125 199.75 557.285156 C 199.957031 556.789062 200.210938 556.316406 200.507812 555.867188 C 200.808594 555.421875 201.148438 555.007812 201.527344 554.628906 C 201.90625 554.246094 202.320312 553.90625 202.769531 553.609375 C 203.214844 553.308594 203.6875 553.058594 204.183594 552.851562 C 204.683594 552.644531 205.195312 552.492188 205.722656 552.386719 C 206.25 552.28125 206.78125 552.226562 207.320312 552.226562 C 207.859375 552.226562 208.390625 552.28125 208.917969 552.386719 C 209.445312 552.492188 209.957031 552.644531 210.457031 552.851562 C 210.953125 553.058594 211.425781 553.308594 211.871094 553.609375 C 212.320312 553.90625 212.734375 554.246094 213.113281 554.628906 C 213.492188 555.007812 213.832031 555.421875 214.132812 555.867188 C 214.429688 556.316406 214.683594 556.789062 214.890625 557.285156 C 215.09375 557.78125 215.25 558.292969 215.355469 558.824219 C 215.460938 559.351562 215.511719 559.882812 215.511719 560.421875 Z M 215.511719 560.421875 "/>
<path style=" stroke:none;fill-rule:nonzero;fill:rgb(90.19928%,76.858521%,31.759644%);fill-opacity:1;" d="M 215.511719 527.648438 C 215.511719 528.1875 215.460938 528.722656 215.355469 529.25 C 215.25 529.777344 215.09375 530.289062 214.890625 530.785156 C 214.683594 531.28125 214.429688 531.753906 214.132812 532.203125 C 213.832031 532.648438 213.492188 533.0625 213.113281 533.441406 C 212.734375 533.824219 212.320312 534.164062 211.871094 534.460938 C 211.425781 534.761719 210.953125 535.011719 210.457031 535.21875 C 209.957031 535.425781 209.445312 535.582031 208.917969 535.683594 C 208.390625 535.789062 207.859375 535.84375 207.320312 535.84375 C 206.78125 535.84375 206.25 535.789062 205.722656 535.683594 C 205.195312 535.582031 204.683594 535.425781 204.183594 535.21875 C 203.6875 535.011719 203.214844 534.761719 202.769531 534.460938 C 202.320312 534.164062 201.90625 533.824219 201.527344 533.441406 C 201.148438 533.0625 200.808594 532.648438 200.507812 532.203125 C 200.210938 531.753906 199.957031 531.28125 199.75 530.785156 C 199.546875 530.289062 199.390625 529.777344 199.285156 529.25 C 199.179688 528.722656 199.128906 528.1875 199.128906 527.648438 C 199.128906 527.113281 199.179688 526.578125 199.285156 526.050781 C 199.390625 525.523438 199.546875 525.011719 199.75 524.515625 C 199.957031 524.019531 200.210938 523.546875 200.507812 523.097656 C 200.808594 522.652344 201.148438 522.238281 201.527344 521.855469 C 201.90625 521.476562 202.320312 521.136719 202.769531 520.839844 C 203.214844 520.539062 203.6875 520.289062 204.183594 520.082031 C 204.683594 519.875 205.195312 519.71875 205.722656 519.613281 C 206.25 519.511719 206.78125 519.457031 207.320312 519.457031 C 207.859375 519.457031 208.390625 519.511719 208.917969 519.613281 C 209.445312 519.71875 209.957031 519.875 210.457031 520.082031 C 210.953125 520.289062 211.425781 520.539062 211.871094 520.839844 C 212.320312 521.136719 212.734375 521.476562 213.113281 521.855469 C 213.492188 522.238281 213.832031 522.652344 214.132812 523.097656 C 214.429688 523.546875 214.683594 524.019531 214.890625 524.515625 C 215.09375 525.011719 215.25 525.523438 215.355469 526.050781 C 215.460938 526.578125 215.511719 527.113281 215.511719 527.648438 Z M 215.511719 527.648438 "/>
</g>
</svg>
