<?xml version="1.0" encoding="UTF-8"?>
<svg xmlns="http://www.w3.org/2000/svg" xmlns:xlink="http://www.w3.org/1999/xlink" width="810pt" height="809.999993pt" viewBox="0 0 810 809.999993" version="1.2">
<defs>
<clipPath id="clip1">
  <path d="M 270 9.621094 L 540 9.621094 L 540 92 L 270 92 Z M 270 9.621094 "/>
</clipPath>
<clipPath id="clip2">
  <path d="M 303.128906 597.019531 L 506.726562 597.019531 L 506.726562 799.875 L 303.128906 799.875 Z M 303.128906 597.019531 "/>
</clipPath>
<clipPath id="clip3">
  <path d="M 162.335938 41 L 296 41 L 296 747 L 162.335938 747 Z M 162.335938 41 "/>
</clipPath>
<clipPath id="clip4">
  <path d="M 513 41 L 647.515625 41 L 647.515625 747 L 513 747 Z M 513 41 "/>
</clipPath>
</defs>
<g id="surface1">
<path style=" stroke:none;fill-rule:nonzero;fill:rgb(26.269531%,82.749939%,90.979004%);fill-opacity:1;" d="M 357.292969 688.761719 L 343.359375 706.96875 L 401.488281 751.417969 L 491.246094 627.480469 L 472.675781 614.039062 L 396.722656 718.910156 L 357.292969 688.761719 "/>
<g clip-path="url(#clip1)" clip-rule="nonzero">
<path style=" stroke:none;fill-rule:nonzero;fill:rgb(26.269531%,82.749939%,90.979004%);fill-opacity:1;" d="M 331.0625 91.03125 L 479.507812 91.03125 C 512.878906 91.03125 539.929688 63.984375 539.929688 30.625 L 539.929688 18.871094 C 539.929688 13.765625 535.785156 9.621094 530.675781 9.621094 L 279.890625 9.621094 C 274.78125 9.621094 270.636719 13.765625 270.636719 18.871094 L 270.636719 30.625 C 270.636719 63.984375 297.6875 91.03125 331.0625 91.03125 "/>
</g>
<path style=" stroke:none;fill-rule:nonzero;fill:rgb(26.269531%,82.749939%,90.979004%);fill-opacity:1;" d="M 264.308594 216 L 545.542969 216 C 547.972656 216 549.9375 214.03125 549.9375 211.605469 L 549.9375 143.269531 C 549.9375 140.84375 547.972656 138.875 545.542969 138.875 L 264.308594 138.875 C 261.882812 138.875 259.914062 140.84375 259.914062 143.269531 L 259.914062 211.605469 C 259.914062 214.03125 261.882812 216 264.308594 216 "/>
<path style=" stroke:none;fill-rule:nonzero;fill:rgb(26.269531%,82.749939%,90.979004%);fill-opacity:1;" d="M 439.144531 240.34375 L 370.585938 240.34375 C 368.613281 240.34375 367.015625 241.941406 367.015625 243.910156 L 367.015625 281.292969 C 367.015625 283.265625 365.414062 284.863281 363.441406 284.863281 L 323.988281 284.863281 C 321.226562 284.863281 319.507812 287.863281 320.910156 290.246094 L 401.789062 341.953125 C 403.167969 344.300781 406.5625 344.300781 407.945312 341.953125 L 488.824219 290.246094 C 490.222656 287.863281 488.507812 284.863281 485.746094 284.863281 L 446.289062 284.863281 C 444.316406 284.863281 442.71875 283.265625 442.71875 281.292969 L 442.71875 243.910156 C 442.71875 241.941406 441.117188 240.34375 439.144531 240.34375 "/>
<path style=" stroke:none;fill-rule:nonzero;fill:rgb(26.269531%,82.749939%,90.979004%);fill-opacity:1;" d="M 264.308594 445.230469 L 545.542969 445.230469 C 547.972656 445.230469 549.9375 443.261719 549.9375 440.835938 L 549.9375 372.5 C 549.9375 370.074219 547.972656 368.109375 545.542969 368.109375 L 264.308594 368.109375 C 261.882812 368.109375 259.914062 370.074219 259.914062 372.5 L 259.914062 440.835938 C 259.914062 443.261719 261.882812 445.230469 264.308594 445.230469 "/>
<path style=" stroke:none;fill-rule:nonzero;fill:rgb(26.269531%,82.749939%,90.979004%);fill-opacity:1;" d="M 439.144531 469.570312 L 370.585938 469.570312 C 368.613281 469.570312 367.015625 471.171875 367.015625 473.144531 L 367.015625 510.523438 C 367.015625 512.496094 365.414062 514.09375 363.441406 514.09375 L 323.988281 514.09375 C 321.226562 514.09375 319.507812 517.097656 320.910156 519.476562 L 401.789062 571.183594 C 403.167969 573.53125 406.5625 573.53125 407.945312 571.183594 L 488.824219 519.476562 C 490.222656 517.097656 488.507812 514.09375 485.746094 514.09375 L 446.289062 514.09375 C 444.316406 514.09375 442.71875 512.496094 442.71875 510.523438 L 442.71875 473.144531 C 442.71875 471.171875 441.117188 469.570312 439.144531 469.570312 "/>
<g clip-path="url(#clip2)" clip-rule="nonzero">
<path style=" stroke:none;fill-rule:nonzero;fill:rgb(26.269531%,82.749939%,90.979004%);fill-opacity:1;" d="M 479.722656 661.902344 C 494.953125 693.039062 489.648438 731.765625 463.792969 757.613281 C 431.253906 790.140625 378.308594 790.140625 345.765625 757.613281 C 313.226562 725.085938 313.226562 672.15625 345.765625 639.625 C 373.792969 611.609375 416.953125 607.726562 449.175781 627.96875 L 459.679688 613.464844 C 420.449219 588.175781 367.441406 592.679688 333.121094 626.988281 C 293.609375 666.484375 293.609375 730.753906 333.121094 770.253906 C 372.636719 809.753906 436.921875 809.753906 476.4375 770.253906 C 510.128906 736.570312 515.082031 684.882812 491.316406 645.894531 L 479.722656 661.902344 "/>
</g>
<g clip-path="url(#clip3)" clip-rule="nonzero">
<path style=" stroke:none;fill-rule:nonzero;fill:rgb(26.269531%,82.749939%,90.979004%);fill-opacity:1;" d="M 180.265625 728.375 L 180.265625 59.253906 L 256.105469 59.253906 C 253.273438 53.6875 251.15625 47.695312 249.882812 41.402344 L 171.335938 41.402344 C 166.40625 41.402344 162.40625 45.394531 162.40625 50.328125 L 162.40625 737.304688 C 162.40625 742.234375 166.40625 746.230469 171.335938 746.230469 L 295.507812 746.230469 C 292.980469 740.421875 290.949219 734.445312 289.394531 728.375 L 180.265625 728.375 "/>
</g>
<g clip-path="url(#clip4)" clip-rule="nonzero">
<path style=" stroke:none;fill-rule:nonzero;fill:rgb(26.269531%,82.749939%,90.979004%);fill-opacity:1;" d="M 638.519531 41.402344 L 560.6875 41.402344 C 559.414062 47.695312 557.296875 53.6875 554.460938 59.253906 L 629.589844 59.253906 L 629.589844 728.375 L 520.148438 728.375 C 518.570312 734.488281 516.511719 740.460938 513.996094 746.230469 L 638.519531 746.230469 C 643.449219 746.230469 647.449219 742.234375 647.449219 737.304688 L 647.449219 50.328125 C 647.449219 45.394531 643.449219 41.402344 638.519531 41.402344 "/>
</g>
</g>
</svg>
