<?xml version="1.0" encoding="UTF-8"?>
<svg xmlns="http://www.w3.org/2000/svg" xmlns:xlink="http://www.w3.org/1999/xlink" width="810pt" height="809.999993pt" viewBox="0 0 810 809.999993" version="1.2">
<defs>
<clipPath id="clip1">
  <path d="M 521 18.972656 L 611 18.972656 L 611 127 L 521 127 Z M 521 18.972656 "/>
</clipPath>
<clipPath id="clip2">
  <path d="M 636 18.972656 L 790.417969 18.972656 L 790.417969 45 L 636 45 Z M 636 18.972656 "/>
</clipPath>
<clipPath id="clip3">
  <path d="M 173 18.972656 L 275 18.972656 L 275 115 L 173 115 Z M 173 18.972656 "/>
</clipPath>
<clipPath id="clip4">
  <path d="M 70 18.972656 L 148 18.972656 L 148 45 L 70 45 Z M 70 18.972656 "/>
</clipPath>
<clipPath id="clip5">
  <path d="M 18.972656 18.972656 L 45 18.972656 L 45 45 L 18.972656 45 Z M 18.972656 18.972656 "/>
</clipPath>
<clipPath id="clip6">
  <path d="M 96 713 L 122 713 L 122 790.417969 L 96 790.417969 Z M 96 713 "/>
</clipPath>
<clipPath id="clip7">
  <path d="M 687 713 L 714 713 L 714 790.417969 L 687 790.417969 Z M 687 713 "/>
</clipPath>
<clipPath id="clip8">
  <path d="M 521 18.972656 L 611 18.972656 L 611 127 L 521 127 Z M 521 18.972656 "/>
</clipPath>
<clipPath id="clip9">
  <path d="M 636 18.972656 L 790.417969 18.972656 L 790.417969 45 L 636 45 Z M 636 18.972656 "/>
</clipPath>
<clipPath id="clip10">
  <path d="M 173 18.972656 L 275 18.972656 L 275 115 L 173 115 Z M 173 18.972656 "/>
</clipPath>
<clipPath id="clip11">
  <path d="M 70 18.972656 L 148 18.972656 L 148 45 L 70 45 Z M 70 18.972656 "/>
</clipPath>
<clipPath id="clip12">
  <path d="M 18.972656 18.972656 L 45 18.972656 L 45 45 L 18.972656 45 Z M 18.972656 18.972656 "/>
</clipPath>
<clipPath id="clip13">
  <path d="M 96 713 L 482 713 L 482 790.417969 L 96 790.417969 Z M 96 713 "/>
</clipPath>
<clipPath id="clip14">
  <path d="M 558 713 L 714 713 L 714 790.417969 L 558 790.417969 Z M 558 713 "/>
</clipPath>
</defs>
<g id="surface1">
<path style=" stroke:none;fill-rule:nonzero;fill:rgb(80.389404%,93.328857%,96.469116%);fill-opacity:1;" d="M 121.832031 160.402344 L 674.699219 198.976562 L 674.699219 584.699219 L 121.832031 584.699219 L 121.832031 160.402344 "/>
<path style=" stroke:none;fill-rule:nonzero;fill:rgb(48.629761%,72.158813%,92.158508%);fill-opacity:1;" d="M 726.128906 623.269531 L 83.257812 623.269531 L 83.257812 571.839844 L 726.128906 571.839844 L 726.128906 623.269531 "/>
<path style=" stroke:none;fill-rule:nonzero;fill:rgb(80.389404%,93.328857%,96.469116%);fill-opacity:1;" d="M 160.402344 674.699219 L 108.972656 674.699219 L 108.972656 623.269531 L 160.402344 623.269531 L 160.402344 674.699219 "/>
<path style=" stroke:none;fill-rule:nonzero;fill:rgb(80.389404%,93.328857%,96.469116%);fill-opacity:1;" d="M 430.410156 674.699219 L 378.980469 674.699219 L 378.980469 623.269531 L 430.410156 623.269531 L 430.410156 674.699219 "/>
<path style=" stroke:none;fill-rule:nonzero;fill:rgb(80.389404%,93.328857%,96.469116%);fill-opacity:1;" d="M 700.414062 674.699219 L 648.984375 674.699219 L 648.984375 623.269531 L 700.414062 623.269531 L 700.414062 674.699219 "/>
<path style=" stroke:none;fill-rule:nonzero;fill:rgb(48.629761%,72.158813%,92.158508%);fill-opacity:1;" d="M 160.402344 571.839844 L 108.972656 571.839844 L 108.972656 189.882812 L 160.402344 192.796875 L 160.402344 571.839844 "/>
<path style=" stroke:none;fill-rule:nonzero;fill:rgb(48.629761%,72.158813%,92.158508%);fill-opacity:1;" d="M 533.269531 571.839844 L 481.839844 571.839844 L 481.839844 210.226562 L 533.269531 213.1875 L 533.269531 571.839844 "/>
<path style=" stroke:none;fill-rule:nonzero;fill:rgb(48.629761%,72.158813%,92.158508%);fill-opacity:1;" d="M 700.414062 571.839844 L 648.984375 571.839844 L 648.984375 219.867188 L 700.414062 222.53125 L 700.414062 571.839844 "/>
<path style=" stroke:none;fill-rule:nonzero;fill:rgb(48.629761%,72.158813%,92.158508%);fill-opacity:1;" d="M 738.988281 224.691406 L 44.6875 186.117188 L 44.6875 134.6875 L 738.988281 173.261719 L 738.988281 224.691406 "/>
<g clip-path="url(#clip1)" clip-rule="nonzero">
<path style=" stroke:none;fill-rule:nonzero;fill:rgb(30.979919%,51.368713%,81.959534%);fill-opacity:1;" d="M 545.070312 126.902344 L 521.464844 116.757812 L 563.351562 18.972656 L 610.414062 18.972656 L 610.414062 44.6875 L 580.328125 44.6875 L 545.070312 126.902344 "/>
</g>
<g clip-path="url(#clip2)" clip-rule="nonzero">
<path style=" stroke:none;fill-rule:nonzero;fill:rgb(30.979919%,51.368713%,81.959534%);fill-opacity:1;" d="M 790.417969 44.6875 L 636.128906 44.6875 L 636.128906 18.972656 L 790.417969 18.972656 L 790.417969 44.6875 "/>
</g>
<path style=" stroke:none;fill-rule:nonzero;fill:rgb(30.979919%,51.368713%,81.959534%);fill-opacity:1;" d="M 713.273438 96.117188 L 636.128906 96.117188 L 636.128906 70.402344 L 713.273438 70.402344 L 713.273438 96.117188 "/>
<path style=" stroke:none;fill-rule:nonzero;fill:rgb(30.979919%,51.368713%,81.959534%);fill-opacity:1;" d="M 764.703125 96.117188 L 738.988281 96.117188 L 738.988281 70.402344 L 764.703125 70.402344 L 764.703125 96.117188 "/>
<g clip-path="url(#clip3)" clip-rule="nonzero">
<path style=" stroke:none;fill-rule:nonzero;fill:rgb(30.979919%,51.368713%,81.959534%);fill-opacity:1;" d="M 251.761719 114.75 L 216.753906 44.6875 L 173.261719 44.6875 L 173.261719 18.972656 L 232.625 18.972656 L 274.761719 103.195312 L 251.761719 114.75 "/>
</g>
<path style=" stroke:none;fill-rule:nonzero;fill:rgb(30.979919%,51.368713%,81.959534%);fill-opacity:1;" d="M 147.546875 83.257812 L 31.828125 83.257812 L 31.828125 57.542969 L 147.546875 57.542969 L 147.546875 83.257812 "/>
<g clip-path="url(#clip4)" clip-rule="nonzero">
<path style=" stroke:none;fill-rule:nonzero;fill:rgb(30.979919%,51.368713%,81.959534%);fill-opacity:1;" d="M 147.546875 44.6875 L 70.402344 44.6875 L 70.402344 18.972656 L 147.546875 18.972656 L 147.546875 44.6875 "/>
</g>
<g clip-path="url(#clip5)" clip-rule="nonzero">
<path style=" stroke:none;fill-rule:nonzero;fill:rgb(30.979919%,51.368713%,81.959534%);fill-opacity:1;" d="M 44.6875 44.6875 L 18.972656 44.6875 L 18.972656 18.972656 L 44.6875 18.972656 L 44.6875 44.6875 "/>
</g>
<g clip-path="url(#clip6)" clip-rule="nonzero">
<path style=" stroke:none;fill-rule:nonzero;fill:rgb(30.979919%,51.368713%,81.959534%);fill-opacity:1;" d="M 121.832031 790.417969 L 96.117188 790.417969 L 96.117188 713.273438 L 121.832031 713.273438 L 121.832031 790.417969 "/>
</g>
<path style=" stroke:none;fill-rule:nonzero;fill:rgb(30.979919%,51.368713%,81.959534%);fill-opacity:1;" d="M 481.839844 764.703125 L 108.972656 764.703125 L 108.972656 738.988281 L 481.839844 738.988281 L 481.839844 764.703125 "/>
<path style=" stroke:none;fill-rule:nonzero;fill:rgb(30.979919%,51.368713%,81.959534%);fill-opacity:1;" d="M 533.269531 764.703125 L 507.554688 764.703125 L 507.554688 738.988281 L 533.269531 738.988281 L 533.269531 764.703125 "/>
<path style=" stroke:none;fill-rule:nonzero;fill:rgb(30.979919%,51.368713%,81.959534%);fill-opacity:1;" d="M 700.414062 764.703125 L 558.984375 764.703125 L 558.984375 738.988281 L 700.414062 738.988281 L 700.414062 764.703125 "/>
<g clip-path="url(#clip7)" clip-rule="nonzero">
<path style=" stroke:none;fill-rule:nonzero;fill:rgb(30.979919%,51.368713%,81.959534%);fill-opacity:1;" d="M 713.273438 790.417969 L 687.558594 790.417969 L 687.558594 713.273438 L 713.273438 713.273438 L 713.273438 790.417969 "/>
</g>
<path style=" stroke:none;fill-rule:nonzero;fill:rgb(48.629761%,72.158813%,92.158508%);fill-opacity:1;" d="M 391.835938 571.839844 L 237.546875 571.839844 L 237.546875 314.691406 L 391.835938 314.691406 L 391.835938 571.839844 "/>
<path style=" stroke:none;fill-rule:nonzero;fill:rgb(30.979919%,51.368713%,81.959534%);fill-opacity:1;" d="M 301.835938 443.265625 L 276.121094 443.265625 L 276.121094 417.550781 L 301.835938 417.550781 L 301.835938 443.265625 "/>
<path style=" stroke:none;fill-rule:nonzero;fill:rgb(30.979919%,51.368713%,81.959534%);fill-opacity:1;" d="M 57.542969 148.25 L 726.128906 185.414062 L 726.128906 211.128906 L 57.542969 173.964844 Z M 661.84375 558.984375 L 661.84375 233.429688 L 687.558594 234.734375 L 687.558594 558.984375 Z M 546.125 558.984375 L 546.125 226.847656 L 636.128906 231.820312 L 636.128906 558.984375 Z M 494.695312 558.984375 L 494.695312 223.988281 L 520.410156 225.394531 L 520.410156 558.984375 Z M 378.980469 327.550781 L 378.980469 558.984375 L 250.40625 558.984375 L 250.40625 327.550781 Z M 224.691406 301.835938 L 224.691406 558.984375 L 173.261719 558.984375 L 173.261719 206.15625 L 468.980469 222.582031 L 468.980469 558.984375 L 404.695312 558.984375 L 404.695312 301.835938 Z M 121.832031 558.984375 L 121.832031 203.496094 L 147.546875 204.953125 L 147.546875 558.984375 Z M 713.273438 610.414062 L 96.117188 610.414062 L 96.117188 584.699219 L 713.273438 584.699219 Z M 687.558594 661.84375 L 661.84375 661.84375 L 661.84375 636.128906 L 687.558594 636.128906 Z M 417.550781 661.84375 L 391.835938 661.84375 L 391.835938 636.128906 L 417.550781 636.128906 Z M 147.546875 661.84375 L 121.832031 661.84375 L 121.832031 636.128906 L 147.546875 636.128906 Z M 31.828125 198.273438 L 96.117188 201.835938 L 96.117188 558.984375 L 70.402344 558.984375 L 70.402344 636.128906 L 96.117188 636.128906 L 96.117188 687.558594 L 173.261719 687.558594 L 173.261719 636.128906 L 366.121094 636.128906 L 366.121094 687.558594 L 443.265625 687.558594 L 443.265625 636.128906 L 636.128906 636.128906 L 636.128906 687.558594 L 713.273438 687.558594 L 713.273438 636.128906 L 738.988281 636.128906 L 738.988281 558.984375 L 713.273438 558.984375 L 713.273438 236.140625 L 751.84375 238.25 L 751.84375 161.105469 L 31.828125 121.128906 L 31.828125 198.273438 "/>
<g clip-path="url(#clip8)" clip-rule="nonzero">
<path style=" stroke:none;fill-rule:nonzero;fill:rgb(30.979919%,51.368713%,81.959534%);fill-opacity:1;" d="M 610.414062 44.6875 L 610.414062 18.972656 L 563.351562 18.972656 L 521.464844 116.757812 L 545.070312 126.902344 L 580.328125 44.6875 L 610.414062 44.6875 "/>
</g>
<g clip-path="url(#clip9)" clip-rule="nonzero">
<path style=" stroke:none;fill-rule:nonzero;fill:rgb(30.979919%,51.368713%,81.959534%);fill-opacity:1;" d="M 636.128906 44.6875 L 790.417969 44.6875 L 790.417969 18.972656 L 636.128906 18.972656 L 636.128906 44.6875 "/>
</g>
<path style=" stroke:none;fill-rule:nonzero;fill:rgb(30.979919%,51.368713%,81.959534%);fill-opacity:1;" d="M 636.128906 70.402344 L 636.128906 96.117188 L 713.273438 96.117188 L 713.273438 70.402344 L 636.128906 70.402344 "/>
<path style=" stroke:none;fill-rule:nonzero;fill:rgb(30.979919%,51.368713%,81.959534%);fill-opacity:1;" d="M 738.988281 96.117188 L 764.703125 96.117188 L 764.703125 70.402344 L 738.988281 70.402344 L 738.988281 96.117188 "/>
<g clip-path="url(#clip10)" clip-rule="nonzero">
<path style=" stroke:none;fill-rule:nonzero;fill:rgb(30.979919%,51.368713%,81.959534%);fill-opacity:1;" d="M 274.761719 103.195312 L 232.625 18.972656 L 173.261719 18.972656 L 173.261719 44.6875 L 216.753906 44.6875 L 251.761719 114.75 L 274.761719 103.195312 "/>
</g>
<path style=" stroke:none;fill-rule:nonzero;fill:rgb(30.979919%,51.368713%,81.959534%);fill-opacity:1;" d="M 31.828125 83.257812 L 147.546875 83.257812 L 147.546875 57.542969 L 31.828125 57.542969 L 31.828125 83.257812 "/>
<g clip-path="url(#clip11)" clip-rule="nonzero">
<path style=" stroke:none;fill-rule:nonzero;fill:rgb(30.979919%,51.368713%,81.959534%);fill-opacity:1;" d="M 70.402344 44.6875 L 147.546875 44.6875 L 147.546875 18.972656 L 70.402344 18.972656 L 70.402344 44.6875 "/>
</g>
<g clip-path="url(#clip12)" clip-rule="nonzero">
<path style=" stroke:none;fill-rule:nonzero;fill:rgb(30.979919%,51.368713%,81.959534%);fill-opacity:1;" d="M 18.972656 44.6875 L 44.6875 44.6875 L 44.6875 18.972656 L 18.972656 18.972656 L 18.972656 44.6875 "/>
</g>
<g clip-path="url(#clip13)" clip-rule="nonzero">
<path style=" stroke:none;fill-rule:nonzero;fill:rgb(30.979919%,51.368713%,81.959534%);fill-opacity:1;" d="M 481.839844 738.988281 L 121.832031 738.988281 L 121.832031 713.273438 L 96.117188 713.273438 L 96.117188 790.417969 L 121.832031 790.417969 L 121.832031 764.703125 L 481.839844 764.703125 L 481.839844 738.988281 "/>
</g>
<path style=" stroke:none;fill-rule:nonzero;fill:rgb(30.979919%,51.368713%,81.959534%);fill-opacity:1;" d="M 507.554688 738.988281 L 507.554688 764.703125 L 533.269531 764.703125 L 533.269531 738.988281 L 507.554688 738.988281 "/>
<g clip-path="url(#clip14)" clip-rule="nonzero">
<path style=" stroke:none;fill-rule:nonzero;fill:rgb(30.979919%,51.368713%,81.959534%);fill-opacity:1;" d="M 687.558594 738.988281 L 558.984375 738.988281 L 558.984375 764.703125 L 687.558594 764.703125 L 687.558594 790.417969 L 713.273438 790.417969 L 713.273438 713.273438 L 687.558594 713.273438 L 687.558594 738.988281 "/>
</g>
<path style=" stroke:none;fill-rule:nonzero;fill:rgb(30.979919%,51.368713%,81.959534%);fill-opacity:1;" d="M 301.835938 417.550781 L 276.121094 417.550781 L 276.121094 443.265625 L 301.835938 443.265625 L 301.835938 417.550781 "/>
</g>
</svg>
