<?xml version="1.0" encoding="UTF-8"?>
<svg xmlns="http://www.w3.org/2000/svg" xmlns:xlink="http://www.w3.org/1999/xlink" width="810pt" height="809.999993pt" viewBox="0 0 810 809.999993" version="1.2">
<defs>
<clipPath id="clip1">
  <path d="M 223 20.25 L 587 20.25 L 587 366 L 223 366 Z M 223 20.25 "/>
</clipPath>
<clipPath id="clip2">
  <path d="M 326 530 L 483 530 L 483 789.746094 L 326 789.746094 Z M 326 530 "/>
</clipPath>
<clipPath id="clip3">
  <path d="M 223 634 L 327 634 L 327 789.746094 L 223 789.746094 Z M 223 634 "/>
</clipPath>
<clipPath id="clip4">
  <path d="M 482 634 L 587 634 L 587 789.746094 L 482 789.746094 Z M 482 634 "/>
</clipPath>
<clipPath id="clip5">
  <path d="M 378 737 L 431 737 L 431 789.746094 L 378 789.746094 Z M 378 737 "/>
</clipPath>
</defs>
<g id="surface1">
<path style=" stroke:none;fill-rule:nonzero;fill:rgb(90.19928%,45.098877%,47.839355%);fill-opacity:1;" d="M 521.523438 296.644531 L 456.675781 335.574219 L 521.523438 478.316406 L 534.492188 413.433594 L 599.34375 439.386719 Z M 521.523438 296.644531 "/>
<path style=" stroke:none;fill-rule:nonzero;fill:rgb(90.19928%,45.098877%,47.839355%);fill-opacity:1;" d="M 288.066406 296.644531 L 210.25 439.386719 L 275.097656 413.433594 L 288.066406 478.316406 L 352.917969 335.574219 Z M 288.066406 296.644531 "/>
<g clip-path="url(#clip1)" clip-rule="nonzero">
<path style=" stroke:none;fill-rule:nonzero;fill:rgb(100%,50.19989%,53.329468%);fill-opacity:1;" d="M 586.371094 192.835938 L 552.859375 240.976562 L 551.691406 299.628906 L 496.269531 318.835938 L 460.914062 365.652344 L 404.796875 348.550781 L 348.675781 365.652344 L 313.320312 318.820312 L 257.886719 299.628906 L 256.730469 240.976562 L 223.21875 192.835938 L 256.730469 144.691406 L 257.898438 86.039062 L 313.320312 66.832031 L 348.675781 20.015625 L 404.796875 37.117188 L 460.914062 20.015625 L 496.269531 66.847656 L 551.703125 86.039062 L 552.859375 144.691406 Z M 586.371094 192.835938 "/>
</g>
<path style=" stroke:none;fill-rule:nonzero;fill:rgb(56.469727%,82.348633%,98.81897%);fill-opacity:1;" d="M 508.554688 192.835938 C 508.554688 194.53125 508.511719 196.230469 508.429688 197.929688 C 508.34375 199.625 508.21875 201.320312 508.054688 203.007812 C 507.886719 204.699219 507.679688 206.386719 507.429688 208.066406 C 507.179688 209.746094 506.890625 211.421875 506.558594 213.085938 C 506.230469 214.753906 505.855469 216.410156 505.445312 218.058594 C 505.03125 219.707031 504.578125 221.34375 504.085938 222.96875 C 503.59375 224.59375 503.058594 226.207031 502.488281 227.808594 C 501.917969 229.40625 501.304688 230.992188 500.65625 232.5625 C 500.003906 234.128906 499.316406 235.683594 498.589844 237.21875 C 497.867188 238.753906 497.101562 240.273438 496.300781 241.769531 C 495.5 243.269531 494.664062 244.746094 493.792969 246.203125 C 492.917969 247.660156 492.011719 249.097656 491.066406 250.507812 C 490.125 251.921875 489.144531 253.308594 488.132812 254.675781 C 487.125 256.039062 486.078125 257.378906 485 258.691406 C 483.925781 260.003906 482.816406 261.289062 481.675781 262.550781 C 480.535156 263.808594 479.363281 265.039062 478.164062 266.238281 C 476.960938 267.441406 475.734375 268.613281 474.476562 269.753906 C 473.21875 270.894531 471.929688 272.003906 470.617188 273.082031 C 469.304688 274.160156 467.96875 275.203125 466.605469 276.214844 C 465.238281 277.226562 463.851562 278.207031 462.441406 279.148438 C 461.027344 280.09375 459.59375 281.003906 458.136719 281.875 C 456.679688 282.75 455.203125 283.585938 453.707031 284.386719 C 452.210938 285.1875 450.691406 285.953125 449.15625 286.679688 C 447.621094 287.40625 446.070312 288.09375 444.5 288.742188 C 442.933594 289.394531 441.347656 290.003906 439.75 290.578125 C 438.152344 291.148438 436.539062 291.683594 434.914062 292.175781 C 433.289062 292.667969 431.652344 293.121094 430.007812 293.535156 C 428.359375 293.945312 426.703125 294.320312 425.039062 294.652344 C 423.371094 294.980469 421.699219 295.273438 420.019531 295.523438 C 418.339844 295.769531 416.65625 295.980469 414.964844 296.144531 C 413.277344 296.3125 411.582031 296.4375 409.886719 296.519531 C 408.191406 296.601562 406.492188 296.644531 404.796875 296.644531 C 403.097656 296.644531 401.398438 296.601562 399.703125 296.519531 C 398.007812 296.4375 396.316406 296.3125 394.625 296.144531 C 392.933594 295.980469 391.25 295.769531 389.570312 295.523438 C 387.890625 295.273438 386.21875 294.980469 384.554688 294.652344 C 382.886719 294.320312 381.230469 293.945312 379.585938 293.535156 C 377.9375 293.121094 376.300781 292.667969 374.675781 292.175781 C 373.050781 291.683594 371.4375 291.148438 369.839844 290.578125 C 368.242188 290.003906 366.65625 289.394531 365.089844 288.742188 C 363.519531 288.09375 361.96875 287.40625 360.433594 286.679688 C 358.898438 285.953125 357.382812 285.1875 355.882812 284.386719 C 354.386719 283.585938 352.910156 282.75 351.453125 281.875 C 349.996094 281.003906 348.5625 280.09375 347.148438 279.148438 C 345.738281 278.207031 344.351562 277.226562 342.988281 276.214844 C 341.621094 275.203125 340.285156 274.160156 338.972656 273.082031 C 337.660156 272.003906 336.375 270.894531 335.117188 269.753906 C 333.855469 268.613281 332.628906 267.441406 331.425781 266.238281 C 330.226562 265.039062 329.054688 263.808594 327.914062 262.550781 C 326.773438 261.289062 325.667969 260.003906 324.589844 258.691406 C 323.511719 257.378906 322.46875 256.039062 321.457031 254.675781 C 320.445312 253.308594 319.464844 251.921875 318.523438 250.507812 C 317.578125 249.097656 316.671875 247.660156 315.796875 246.203125 C 314.925781 244.746094 314.089844 243.269531 313.289062 241.769531 C 312.488281 240.273438 311.726562 238.753906 311 237.21875 C 310.273438 235.683594 309.585938 234.128906 308.933594 232.5625 C 308.285156 230.992188 307.675781 229.40625 307.101562 227.808594 C 306.53125 226.207031 305.996094 224.59375 305.503906 222.96875 C 305.011719 221.34375 304.558594 219.707031 304.148438 218.058594 C 303.734375 216.410156 303.363281 214.753906 303.03125 213.085938 C 302.699219 211.421875 302.410156 209.746094 302.160156 208.066406 C 301.910156 206.386719 301.703125 204.699219 301.535156 203.007812 C 301.371094 201.320312 301.246094 199.625 301.160156 197.929688 C 301.078125 196.230469 301.035156 194.53125 301.035156 192.835938 C 301.035156 191.136719 301.078125 189.4375 301.160156 187.742188 C 301.246094 186.042969 301.371094 184.347656 301.535156 182.660156 C 301.703125 180.96875 301.910156 179.28125 302.160156 177.601562 C 302.410156 175.921875 302.699219 174.246094 303.03125 172.582031 C 303.363281 170.914062 303.734375 169.257812 304.144531 167.609375 C 304.558594 165.960938 305.011719 164.324219 305.503906 162.699219 C 305.996094 161.074219 306.53125 159.460938 307.101562 157.859375 C 307.675781 156.261719 308.285156 154.675781 308.933594 153.105469 C 309.585938 151.539062 310.273438 149.984375 311 148.449219 C 311.726562 146.914062 312.488281 145.394531 313.289062 143.898438 C 314.089844 142.398438 314.925781 140.921875 315.796875 139.464844 C 316.671875 138.007812 317.578125 136.574219 318.523438 135.160156 C 319.464844 133.746094 320.445312 132.359375 321.457031 130.992188 C 322.46875 129.628906 323.511719 128.289062 324.589844 126.976562 C 325.667969 125.664062 326.773438 124.378906 327.914062 123.117188 C 329.054688 121.859375 330.226562 120.628906 331.425781 119.429688 C 332.628906 118.226562 333.855469 117.054688 335.117188 115.914062 C 336.375 114.773438 337.660156 113.664062 338.972656 112.585938 C 340.285156 111.507812 341.621094 110.464844 342.988281 109.453125 C 344.351562 108.441406 345.738281 107.460938 347.148438 106.519531 C 348.5625 105.574219 349.996094 104.664062 351.453125 103.792969 C 352.910156 102.917969 354.386719 102.082031 355.882812 101.28125 C 357.382812 100.480469 358.898438 99.714844 360.433594 98.988281 C 361.96875 98.261719 363.519531 97.574219 365.089844 96.925781 C 366.65625 96.273438 368.242188 95.664062 369.839844 95.089844 C 371.4375 94.519531 373.050781 93.984375 374.675781 93.492188 C 376.300781 93 377.9375 92.546875 379.585938 92.132812 C 381.230469 91.722656 382.886719 91.347656 384.554688 91.019531 C 386.21875 90.6875 387.890625 90.394531 389.570312 90.148438 C 391.25 89.898438 392.933594 89.6875 394.625 89.523438 C 396.316406 89.355469 398.007812 89.230469 399.703125 89.148438 C 401.398438 89.066406 403.097656 89.023438 404.796875 89.023438 C 406.492188 89.023438 408.191406 89.066406 409.886719 89.148438 C 411.582031 89.230469 413.277344 89.355469 414.964844 89.523438 C 416.65625 89.6875 418.339844 89.898438 420.019531 90.148438 C 421.699219 90.394531 423.371094 90.6875 425.039062 91.019531 C 426.703125 91.347656 428.359375 91.722656 430.007812 92.132812 C 431.652344 92.546875 433.289062 93 434.914062 93.492188 C 436.539062 93.984375 438.152344 94.519531 439.75 95.089844 C 441.347656 95.664062 442.933594 96.273438 444.5 96.925781 C 446.070312 97.574219 447.621094 98.261719 449.15625 98.988281 C 450.691406 99.714844 452.210938 100.480469 453.707031 101.28125 C 455.203125 102.082031 456.679688 102.917969 458.136719 103.792969 C 459.59375 104.664062 461.027344 105.574219 462.441406 106.519531 C 463.851562 107.460938 465.238281 108.441406 466.605469 109.453125 C 467.96875 110.464844 469.304688 111.507812 470.617188 112.585938 C 471.929688 113.664062 473.21875 114.773438 474.476562 115.914062 C 475.734375 117.054688 476.960938 118.226562 478.164062 119.429688 C 479.363281 120.628906 480.535156 121.859375 481.675781 123.117188 C 482.816406 124.378906 483.925781 125.664062 485 126.976562 C 486.078125 128.289062 487.125 129.628906 488.132812 130.992188 C 489.144531 132.359375 490.125 133.746094 491.066406 135.160156 C 492.011719 136.574219 492.917969 138.007812 493.792969 139.464844 C 494.664062 140.921875 495.5 142.398438 496.300781 143.898438 C 497.101562 145.394531 497.867188 146.914062 498.589844 148.449219 C 499.316406 149.984375 500.003906 151.539062 500.65625 153.105469 C 501.304688 154.675781 501.917969 156.261719 502.488281 157.859375 C 503.058594 159.460938 503.59375 161.074219 504.085938 162.699219 C 504.578125 164.324219 505.03125 165.960938 505.445312 167.609375 C 505.855469 169.257812 506.230469 170.914062 506.558594 172.582031 C 506.890625 174.246094 507.179688 175.921875 507.429688 177.601562 C 507.679688 179.28125 507.886719 180.96875 508.054688 182.660156 C 508.21875 184.347656 508.34375 186.042969 508.429688 187.742188 C 508.511719 189.4375 508.554688 191.136719 508.554688 192.835938 Z M 508.554688 192.835938 "/>
<path style=" stroke:none;fill-rule:nonzero;fill:rgb(91.758728%,91.758728%,91.758728%);fill-opacity:1;" d="M 404.796875 127.953125 L 424.832031 170.671875 L 469.644531 177.523438 L 437.21875 210.765625 L 444.871094 257.714844 L 404.796875 235.550781 L 364.71875 257.714844 L 372.371094 210.765625 L 339.945312 177.523438 L 384.757812 170.671875 Z M 404.796875 127.953125 "/>
<path style=" stroke:none;fill-rule:nonzero;fill:rgb(0%,0%,0%);fill-opacity:1;" d="M 391.824219 452.363281 L 417.765625 452.363281 L 417.765625 491.292969 L 391.824219 491.292969 Z M 391.824219 452.363281 "/>
<path style=" stroke:none;fill-rule:nonzero;fill:rgb(65.489197%,85.879517%,98.81897%);fill-opacity:1;" d="M 631.078125 648.304688 L 619.472656 625.089844 C 702.75 583.4375 756.238281 519.8125 766.210938 450.519531 L 791.878906 454.21875 C 780.699219 532.050781 722.074219 602.785156 631.078125 648.304688 Z M 631.078125 648.304688 "/>
<path style=" stroke:none;fill-rule:nonzero;fill:rgb(65.489197%,85.879517%,98.81897%);fill-opacity:1;" d="M 793.890625 426.410156 L 767.949219 426.410156 C 767.949219 418.363281 767.367188 410.253906 766.222656 402.3125 L 791.890625 398.613281 C 793.214844 407.773438 793.890625 417.132812 793.890625 426.410156 Z M 793.890625 426.410156 "/>
<path style=" stroke:none;fill-rule:nonzero;fill:rgb(65.489197%,85.879517%,98.81897%);fill-opacity:1;" d="M 760.945312 378.164062 C 743.230469 317.914062 692.984375 264.488281 619.472656 227.726562 L 631.078125 204.511719 C 711.089844 244.53125 766.054688 303.601562 785.835938 370.832031 Z M 760.945312 378.164062 "/>
<path style=" stroke:none;fill-rule:nonzero;fill:rgb(65.489197%,85.879517%,98.81897%);fill-opacity:1;" d="M 48.644531 378.164062 L 23.757812 370.84375 C 43.042969 305.289062 96.089844 247.207031 173.128906 207.277344 L 185.0625 230.308594 C 114.351562 266.957031 65.90625 319.46875 48.644531 378.164062 Z M 48.644531 378.164062 "/>
<path style=" stroke:none;fill-rule:nonzero;fill:rgb(65.489197%,85.879517%,98.81897%);fill-opacity:1;" d="M 41.640625 426.410156 L 15.703125 426.410156 C 15.703125 417.132812 16.375 407.773438 17.6875 398.601562 L 43.351562 402.300781 C 42.226562 410.253906 41.640625 418.363281 41.640625 426.410156 Z M 41.640625 426.410156 "/>
<path style=" stroke:none;fill-rule:nonzero;fill:rgb(65.489197%,85.879517%,98.81897%);fill-opacity:1;" d="M 178.511719 648.304688 C 87.515625 602.785156 28.890625 532.050781 17.6875 454.21875 L 43.351562 450.519531 C 53.328125 519.8125 106.8125 583.4375 190.09375 625.089844 Z M 178.511719 648.304688 "/>
<path style=" stroke:none;fill-rule:nonzero;fill:rgb(65.879822%,65.879822%,65.879822%);fill-opacity:1;" d="M 391.824219 452.363281 L 417.765625 452.363281 L 417.765625 491.292969 L 391.824219 491.292969 Z M 391.824219 452.363281 "/>
<g clip-path="url(#clip2)" clip-rule="nonzero">
<path style=" stroke:none;fill-rule:nonzero;fill:rgb(65.879822%,65.879822%,65.879822%);fill-opacity:1;" d="M 326.976562 530.21875 L 482.613281 530.21875 L 482.613281 789.746094 L 326.976562 789.746094 Z M 326.976562 530.21875 "/>
</g>
<g clip-path="url(#clip3)" clip-rule="nonzero">
<path style=" stroke:none;fill-rule:nonzero;fill:rgb(59.999084%,59.999084%,59.999084%);fill-opacity:1;" d="M 223.21875 634.03125 L 326.976562 634.03125 L 326.976562 789.746094 L 223.21875 789.746094 Z M 223.21875 634.03125 "/>
</g>
<g clip-path="url(#clip4)" clip-rule="nonzero">
<path style=" stroke:none;fill-rule:nonzero;fill:rgb(59.999084%,59.999084%,59.999084%);fill-opacity:1;" d="M 482.613281 634.03125 L 586.371094 634.03125 L 586.371094 789.746094 L 482.613281 789.746094 Z M 482.613281 634.03125 "/>
</g>
<path style=" stroke:none;fill-rule:nonzero;fill:rgb(59.999084%,59.999084%,59.999084%);fill-opacity:1;" d="M 430.734375 478.316406 L 378.855469 478.316406 C 364.523438 478.316406 352.917969 489.929688 352.917969 504.265625 L 352.917969 530.21875 L 456.675781 530.21875 L 456.675781 504.265625 C 456.675781 489.929688 445.066406 478.316406 430.734375 478.316406 Z M 430.734375 478.316406 "/>
<g clip-path="url(#clip5)" clip-rule="nonzero">
<path style=" stroke:none;fill-rule:nonzero;fill:rgb(91.758728%,91.758728%,91.758728%);fill-opacity:1;" d="M 378.855469 737.84375 L 430.734375 737.84375 L 430.734375 789.746094 L 378.855469 789.746094 Z M 378.855469 737.84375 "/>
</g>
<path style=" stroke:none;fill-rule:nonzero;fill:rgb(91.758728%,91.758728%,91.758728%);fill-opacity:1;" d="M 365.886719 569.148438 L 443.703125 569.148438 L 443.703125 595.101562 L 365.886719 595.101562 Z M 365.886719 569.148438 "/>
<path style=" stroke:none;fill-rule:nonzero;fill:rgb(91.758728%,91.758728%,91.758728%);fill-opacity:1;" d="M 365.886719 621.054688 L 443.703125 621.054688 L 443.703125 647.007812 L 365.886719 647.007812 Z M 365.886719 621.054688 "/>
<path style=" stroke:none;fill-rule:nonzero;fill:rgb(91.758728%,91.758728%,91.758728%);fill-opacity:1;" d="M 365.886719 672.960938 L 443.703125 672.960938 L 443.703125 698.914062 L 365.886719 698.914062 Z M 365.886719 672.960938 "/>
<path style=" stroke:none;fill-rule:nonzero;fill:rgb(91.758728%,91.758728%,91.758728%);fill-opacity:1;" d="M 521.523438 672.960938 L 547.464844 672.960938 L 547.464844 698.914062 L 521.523438 698.914062 Z M 521.523438 672.960938 "/>
<path style=" stroke:none;fill-rule:nonzero;fill:rgb(91.758728%,91.758728%,91.758728%);fill-opacity:1;" d="M 521.523438 724.867188 L 547.464844 724.867188 L 547.464844 750.820312 L 521.523438 750.820312 Z M 521.523438 724.867188 "/>
<path style=" stroke:none;fill-rule:nonzero;fill:rgb(91.758728%,91.758728%,91.758728%);fill-opacity:1;" d="M 262.128906 672.960938 L 288.066406 672.960938 L 288.066406 698.914062 L 262.128906 698.914062 Z M 262.128906 672.960938 "/>
<path style=" stroke:none;fill-rule:nonzero;fill:rgb(91.758728%,91.758728%,91.758728%);fill-opacity:1;" d="M 262.128906 724.867188 L 288.066406 724.867188 L 288.066406 750.820312 L 262.128906 750.820312 Z M 262.128906 724.867188 "/>
</g>
</svg>
