<?xml version="1.0" encoding="UTF-8"?>
<svg xmlns="http://www.w3.org/2000/svg" xmlns:xlink="http://www.w3.org/1999/xlink" width="810pt" height="809.999993pt" viewBox="0 0 810 809.999993" version="1.2">
<defs>
<clipPath id="clip1">
  <path d="M 125 112 L 698 112 L 698 788.699219 L 125 788.699219 Z M 125 112 "/>
</clipPath>
<clipPath id="clip2">
  <path d="M 711 411 L 788.699219 411 L 788.699219 491 L 711 491 Z M 711 411 "/>
</clipPath>
<clipPath id="clip3">
  <path d="M 21.449219 21.449219 L 126 21.449219 L 126 126 L 21.449219 126 Z M 21.449219 21.449219 "/>
</clipPath>
</defs>
<g id="surface1">
<g clip-path="url(#clip1)" clip-rule="nonzero">
<path style=" stroke:none;fill-rule:nonzero;fill:rgb(87.838745%,21.958923%,20.779419%);fill-opacity:1;" d="M 697.800781 749.828125 C 697.800781 771.371094 680.324219 788.851562 658.78125 788.851562 L 164.523438 788.851562 C 142.980469 788.851562 125.503906 771.371094 125.503906 749.828125 L 125.503906 151.515625 C 125.503906 129.972656 142.980469 112.496094 164.523438 112.496094 L 658.78125 112.496094 C 680.324219 112.496094 697.800781 129.972656 697.800781 151.515625 L 697.800781 749.828125 "/>
<path style=" stroke:none;fill-rule:nonzero;fill:rgb(81.959534%,21.569824%,19.60907%);fill-opacity:1;" d="M 661.933594 112.800781 C 613.511719 535.625 305.414062 681.898438 125.503906 731.539062 L 125.503906 749.828125 C 125.503906 771.371094 142.980469 788.851562 164.523438 788.851562 L 658.78125 788.851562 C 680.324219 788.851562 697.800781 771.371094 697.800781 749.828125 L 697.800781 151.515625 C 697.800781 131.039062 682 114.476562 661.933594 112.800781 "/>
</g>
<path style=" stroke:none;fill-rule:nonzero;fill:rgb(85.879517%,85.488892%,84.709167%);fill-opacity:1;" d="M 645.773438 515.707031 L 645.773438 164.523438 L 177.53125 164.523438 L 177.53125 736.824219 L 645.773438 736.824219 L 645.773438 515.707031 "/>
<path style=" stroke:none;fill-rule:nonzero;fill:rgb(97.648621%,68.238831%,10.978699%);fill-opacity:1;" d="M 359.625 112.496094 L 366.230469 72.96875 C 369.886719 50.765625 389.144531 34.453125 411.652344 34.453125 C 434.160156 34.453125 453.417969 50.765625 457.074219 72.96875 L 463.679688 112.496094 L 545.429688 145.214844 C 574.644531 156.851562 593.746094 185.152344 593.746094 216.550781 L 229.558594 216.550781 C 229.558594 185.152344 248.660156 156.851562 277.875 145.214844 L 359.625 112.496094 "/>
<path style=" stroke:none;fill-rule:nonzero;fill:rgb(32.939148%,59.609985%,84.309387%);fill-opacity:1;" d="M 411.652344 658.78125 C 506.15625 619.40625 567.734375 527.035156 567.734375 424.660156 L 567.734375 333.609375 C 517.28125 333.609375 468.457031 315.929688 429.738281 283.667969 L 411.652344 268.578125 L 393.566406 283.667969 C 354.847656 315.929688 306.023438 333.609375 255.570312 333.609375 L 255.570312 424.660156 C 255.570312 527.035156 317.148438 619.40625 411.652344 658.78125 "/>
<path style=" stroke:none;fill-rule:nonzero;fill:rgb(30.198669%,54.508972%,80.778503%);fill-opacity:1;" d="M 504.984375 324.109375 C 450.417969 454.535156 368.414062 522.515625 293.371094 557.625 C 320.757812 601.980469 361.503906 637.898438 411.652344 658.78125 C 506.15625 619.40625 567.734375 527.035156 567.734375 424.660156 L 567.734375 333.609375 C 546.292969 333.609375 525.207031 330.207031 504.984375 324.109375 "/>
<path style=" stroke:none;fill-rule:nonzero;fill:rgb(100%,100%,100%);fill-opacity:1;" d="M 411.652344 541.71875 C 408.195312 541.71875 404.894531 540.347656 402.457031 537.910156 L 350.429688 485.882812 L 368.820312 467.488281 L 411.09375 509.761719 L 506.003906 403.015625 L 525.410156 420.289062 L 421.355469 537.351562 C 419.019531 540.042969 415.613281 541.617188 412.058594 541.71875 C 411.90625 541.71875 411.804688 541.71875 411.652344 541.71875 "/>
<path style=" stroke:none;fill-rule:nonzero;fill:rgb(32.939148%,59.609985%,84.309387%);fill-opacity:1;" d="M 528.714844 645.773438 L 528.714844 684.796875 L 567.734375 684.796875 L 750.945312 490.8125 L 711.925781 451.789062 L 528.714844 645.773438 "/>
<g clip-path="url(#clip2)" clip-rule="nonzero">
<path style=" stroke:none;fill-rule:nonzero;fill:rgb(30.198669%,54.508972%,80.778503%);fill-opacity:1;" d="M 749.828125 411.652344 L 711.925781 451.789062 L 750.945312 490.8125 L 788.851562 450.671875 L 749.828125 411.652344 "/>
</g>
<g clip-path="url(#clip3)" clip-rule="nonzero">
<path style=" stroke:none;fill-rule:nonzero;fill:rgb(85.879517%,85.488892%,84.709167%);fill-opacity:1;" d="M 125.503906 60.46875 L 86.480469 60.46875 L 86.480469 21.449219 L 60.46875 21.449219 L 60.46875 60.46875 L 21.449219 60.46875 L 21.449219 86.480469 L 60.46875 86.480469 L 60.46875 125.503906 L 86.480469 125.503906 L 86.480469 86.480469 L 125.503906 86.480469 L 125.503906 60.46875 "/>
</g>
<path style=" stroke:none;fill-rule:nonzero;fill:rgb(100%,100%,100%);fill-opacity:1;" d="M 294.589844 281.585938 L 216.550781 281.585938 L 216.550781 255.570312 L 294.589844 255.570312 L 294.589844 281.585938 "/>
<path style=" stroke:none;fill-rule:nonzero;fill:rgb(100%,100%,100%);fill-opacity:1;" d="M 268.578125 645.773438 L 216.550781 645.773438 L 216.550781 619.761719 L 268.578125 619.761719 L 268.578125 645.773438 "/>
<path style=" stroke:none;fill-rule:nonzero;fill:rgb(100%,100%,100%);fill-opacity:1;" d="M 294.589844 697.800781 L 216.550781 697.800781 L 216.550781 671.789062 L 294.589844 671.789062 L 294.589844 697.800781 "/>
<path style=" stroke:none;fill-rule:nonzero;fill:rgb(96.859741%,59.21936%,12.939453%);fill-opacity:1;" d="M 545.429688 145.214844 L 529.222656 138.710938 C 407.027344 179.003906 304.957031 187.589844 235.804688 186.675781 C 231.84375 195.972656 229.558594 206.03125 229.558594 216.550781 L 593.746094 216.550781 C 593.746094 185.152344 574.644531 156.851562 545.429688 145.214844 "/>
</g>
</svg>
