<?xml version="1.0" encoding="UTF-8"?>
<svg xmlns="http://www.w3.org/2000/svg" xmlns:xlink="http://www.w3.org/1999/xlink" width="810pt" height="809.999993pt" viewBox="0 0 810 809.999993" version="1.2">
<defs>
<clipPath id="clip1">
  <path d="M 21.992188 21.992188 L 787.484375 21.992188 L 787.484375 787.484375 L 21.992188 787.484375 Z M 21.992188 21.992188 "/>
</clipPath>
</defs>
<g id="surface1">
<g clip-path="url(#clip1)" clip-rule="nonzero">
<path style=" stroke:none;fill-rule:nonzero;fill:rgb(94.119263%,76.858521%,54.119873%);fill-opacity:1;" d="M 787.484375 404.738281 C 787.484375 616.125 616.121094 787.484375 404.738281 787.484375 C 193.351562 787.484375 21.992188 616.125 21.992188 404.738281 C 21.992188 193.355469 193.351562 21.992188 404.738281 21.992188 C 616.121094 21.992188 787.484375 193.355469 787.484375 404.738281 "/>
</g>
<path style=" stroke:none;fill-rule:nonzero;fill:rgb(100%,100%,100%);fill-opacity:1;" d="M 532.734375 645.628906 L 155.144531 645.628906 C 137.15625 645.628906 122.566406 631.046875 122.566406 613.054688 L 122.566406 88.132812 C 122.566406 70.140625 137.15625 55.554688 155.144531 55.554688 L 532.734375 55.554688 C 550.726562 55.554688 565.316406 70.140625 565.316406 88.132812 L 565.316406 613.054688 C 565.316406 631.046875 550.726562 645.628906 532.734375 645.628906 "/>
<path style=" stroke:none;fill-rule:nonzero;fill:rgb(82.749939%,90.19928%,97.24884%);fill-opacity:1;" d="M 532.925781 56.320312 L 507.21875 56.320312 L 507.21875 646.15625 L 532.925781 646.15625 C 550.925781 646.15625 566.390625 631.046875 566.390625 613.054688 L 566.390625 88.136719 C 566.390625 70.144531 550.925781 56.320312 532.925781 56.320312 "/>
<path style=" stroke:none;fill-rule:nonzero;fill:rgb(29.798889%,26.269531%,44.709778%);fill-opacity:1;" d="M 155.144531 66.648438 C 143.300781 66.648438 133.664062 76.289062 133.664062 88.132812 L 133.664062 613.054688 C 133.664062 624.902344 143.300781 634.535156 155.144531 634.535156 L 532.734375 634.535156 C 544.582031 634.535156 554.21875 624.902344 554.21875 613.054688 L 554.21875 88.132812 C 554.21875 76.289062 544.582031 66.648438 532.734375 66.648438 Z M 532.734375 656.726562 L 155.144531 656.726562 C 131.066406 656.726562 111.472656 637.132812 111.472656 613.054688 L 111.472656 88.132812 C 111.472656 64.054688 131.066406 44.464844 155.144531 44.464844 L 532.734375 44.464844 C 556.816406 44.464844 576.410156 64.054688 576.410156 88.132812 L 576.410156 613.054688 C 576.410156 637.132812 556.816406 656.726562 532.734375 656.726562 "/>
<path style=" stroke:none;fill-rule:nonzero;fill:rgb(82.749939%,90.19928%,97.24884%);fill-opacity:1;" d="M 344.644531 358.972656 C 292.65625 358.972656 250.511719 316.824219 250.511719 264.839844 C 250.511719 212.851562 292.65625 170.710938 344.644531 170.710938 C 396.628906 170.710938 438.773438 212.851562 438.773438 264.839844 C 438.773438 316.824219 396.628906 358.972656 344.644531 358.972656 Z M 512.765625 289.296875 L 512.765625 241.21875 L 477.445312 241.21875 C 473.984375 220.882812 466.144531 203.050781 454.953125 187.144531 L 479.445312 162.757812 L 446.625 129.988281 L 422.476562 154.503906 C 406.574219 143.308594 388.882812 135.496094 368.542969 132.035156 L 368.542969 96.996094 L 322.320312 96.996094 L 322.320312 132.035156 C 303.828125 135.496094 283.503906 143.335938 267.597656 154.527344 L 242.882812 130.039062 L 209.953125 162.859375 L 234.386719 187.144531 C 223.191406 203.050781 215.296875 220.882812 211.835938 241.21875 L 179.945312 241.21875 L 179.945312 289.296875 L 211.835938 289.296875 C 215.296875 309.632812 223.136719 327.042969 234.332031 342.953125 L 209.839844 367.128906 L 242.664062 399.796875 L 267.597656 375.226562 C 283.5 386.421875 303.828125 394.183594 322.320312 397.644531 L 322.320312 431.667969 L 368.542969 431.667969 L 368.542969 397.644531 C 388.882812 394.183594 406.574219 386.34375 422.476562 375.148438 L 446.796875 399.640625 L 479.53125 366.820312 L 454.996094 342.953125 C 466.191406 327.042969 473.984375 309.632812 477.445312 289.296875 L 512.765625 289.296875 "/>
<path style=" stroke:none;fill-rule:nonzero;fill:rgb(29.798889%,26.269531%,44.709778%);fill-opacity:1;" d="M 345.664062 181.800781 C 299.878906 181.800781 262.628906 219.050781 262.628906 264.839844 C 262.628906 310.625 299.878906 347.875 345.664062 347.875 C 391.449219 347.875 428.703125 310.625 428.703125 264.839844 C 428.703125 219.050781 391.449219 181.800781 345.664062 181.800781 Z M 345.664062 370.066406 C 287.644531 370.066406 240.4375 322.863281 240.4375 264.839844 C 240.4375 206.816406 287.644531 159.613281 345.664062 159.613281 C 403.6875 159.613281 450.890625 206.816406 450.890625 264.839844 C 450.890625 322.863281 403.6875 370.066406 345.664062 370.066406 Z M 334.476562 423.226562 L 358.515625 423.226562 L 358.515625 397.644531 C 358.515625 392.234375 362.414062 387.613281 367.75 386.707031 C 385.5625 383.675781 401.71875 376.929688 417.132812 366.078125 C 421.5625 362.964844 427.582031 363.5 431.394531 367.335938 L 447.84375 383.910156 L 464.542969 367.171875 L 448.515625 352.445312 C 444.410156 348.675781 443.742188 342.445312 446.949219 337.894531 C 457.316406 323.160156 464.449219 306.566406 467.5625 289.90625 C 468.546875 284.660156 473.128906 280.855469 478.46875 280.855469 L 500.890625 280.855469 L 500.890625 254.964844 L 478.46875 254.964844 C 473.058594 254.964844 468.433594 251.0625 467.53125 245.734375 C 464.367188 227.132812 457.234375 209.539062 446.902344 194.855469 C 443.824219 190.484375 444.304688 184.539062 448.042969 180.714844 L 464.898438 163.472656 L 447.648438 146.078125 L 431.402344 162.480469 C 427.589844 166.320312 421.558594 166.851562 417.132812 163.738281 C 401.539062 152.765625 385.386719 145.972656 367.75 142.972656 C 362.414062 142.0625 358.515625 137.441406 358.515625 132.035156 L 358.515625 110.746094 L 334.476562 110.746094 L 334.476562 132.035156 C 334.476562 137.441406 330.574219 142.0625 325.242188 142.972656 C 306.949219 146.082031 290.050781 153.023438 275.023438 163.601562 C 270.628906 166.699219 264.648438 166.191406 260.832031 162.410156 L 243.941406 145.675781 L 226.496094 163.058594 L 243.441406 180.8125 C 247.09375 184.648438 247.53125 190.527344 244.484375 194.855469 C 234.101562 209.609375 226.949219 227.199219 223.796875 245.734375 C 222.890625 251.0625 218.269531 254.964844 212.859375 254.964844 L 190.253906 254.964844 L 190.253906 280.855469 L 212.859375 280.855469 C 218.199219 280.855469 222.78125 284.660156 223.765625 289.90625 C 226.871094 306.503906 234.015625 323.097656 244.425781 337.894531 C 247.578125 342.375 246.988281 348.484375 243.039062 352.277344 L 226.773438 367.898438 L 243.660156 384.53125 L 260.828125 367.515625 C 264.644531 363.730469 270.628906 363.222656 275.023438 366.320312 C 289.75 376.683594 306.644531 383.542969 325.242188 386.707031 C 330.574219 387.613281 334.476562 392.234375 334.476562 397.644531 Z M 369.609375 445.417969 L 323.382812 445.417969 C 317.257812 445.417969 312.289062 440.445312 312.289062 434.320312 L 312.289062 406.722656 C 297.132812 403.191406 282.992188 397.453125 270.074219 389.589844 L 251.496094 408.007812 C 247.179688 412.285156 240.222656 412.296875 235.898438 408.03125 L 203.078125 375.699219 C 200.941406 373.59375 199.75 370.722656 199.769531 367.722656 C 199.789062 364.726562 201.019531 361.867188 203.179688 359.792969 L 221.015625 342.660156 C 213.324219 330.140625 207.542969 316.695312 203.984375 303.042969 L 179.160156 303.042969 C 173.03125 303.042969 168.066406 298.070312 168.066406 291.949219 L 168.066406 243.871094 C 168.066406 237.746094 173.03125 232.78125 179.160156 232.78125 L 203.792969 232.78125 C 207.390625 217.472656 213.339844 202.863281 221.3125 189.761719 L 202.949219 170.515625 C 198.785156 166.152344 198.875 159.257812 203.148438 155 L 236.085938 122.175781 C 240.410156 117.871094 247.390625 117.863281 251.722656 122.15625 L 270.0625 140.324219 C 283.136719 132.316406 297.277344 126.507812 312.289062 122.964844 L 312.289062 99.648438 C 312.289062 93.519531 317.257812 88.554688 323.382812 88.554688 L 369.609375 88.554688 C 375.734375 88.554688 380.703125 93.519531 380.703125 99.648438 L 380.703125 122.988281 C 395.203125 126.460938 408.851562 132.210938 422.046875 140.390625 L 439.765625 122.507812 C 441.847656 120.40625 444.683594 119.222656 447.644531 119.222656 C 450.601562 119.222656 453.441406 120.40625 455.523438 122.507812 L 488.34375 155.609375 C 492.609375 159.910156 492.636719 166.84375 488.394531 171.175781 L 470.128906 189.863281 C 478.039062 202.898438 483.953125 217.476562 487.539062 232.78125 L 511.984375 232.78125 C 518.105469 232.78125 523.074219 237.746094 523.074219 243.871094 L 523.074219 291.949219 C 523.074219 298.070312 518.105469 303.042969 511.984375 303.042969 L 487.351562 303.042969 C 483.808594 316.660156 478.078125 330.039062 470.46875 342.484375 L 488.0625 358.652344 C 490.285156 360.695312 491.582031 363.558594 491.652344 366.578125 C 491.714844 369.597656 490.546875 372.511719 488.414062 374.652344 L 455.683594 407.472656 C 453.605469 409.5625 450.773438 410.734375 447.828125 410.734375 C 447.828125 410.734375 447.820312 410.734375 447.816406 410.734375 C 444.863281 410.734375 442.035156 409.554688 439.953125 407.457031 L 422.050781 389.414062 C 408.945312 397.519531 395.296875 403.226562 380.703125 406.699219 L 380.703125 434.320312 C 380.703125 440.445312 375.734375 445.417969 369.609375 445.417969 "/>
<path style=" stroke:none;fill-rule:nonzero;fill:rgb(29.798889%,26.269531%,44.709778%);fill-opacity:1;" d="M 482.398438 488.988281 L 206.894531 488.988281 C 200.765625 488.988281 195.800781 484.019531 195.800781 477.894531 C 195.800781 471.765625 200.765625 466.800781 206.894531 466.800781 L 482.398438 466.800781 C 488.527344 466.800781 493.492188 471.765625 493.492188 477.894531 C 493.492188 484.019531 488.527344 488.988281 482.398438 488.988281 "/>
<path style=" stroke:none;fill-rule:nonzero;fill:rgb(29.798889%,26.269531%,44.709778%);fill-opacity:1;" d="M 482.398438 546.308594 L 206.894531 546.308594 C 200.765625 546.308594 195.800781 541.34375 195.800781 535.214844 C 195.800781 529.089844 200.765625 524.121094 206.894531 524.121094 L 482.398438 524.121094 C 488.527344 524.121094 493.492188 529.089844 493.492188 535.214844 C 493.492188 541.34375 488.527344 546.308594 482.398438 546.308594 "/>
<path style=" stroke:none;fill-rule:nonzero;fill:rgb(29.798889%,26.269531%,44.709778%);fill-opacity:1;" d="M 482.398438 603.628906 L 206.894531 603.628906 C 200.765625 603.628906 195.800781 598.660156 195.800781 592.535156 C 195.800781 586.40625 200.765625 581.441406 206.894531 581.441406 L 482.398438 581.441406 C 488.527344 581.441406 493.492188 586.40625 493.492188 592.535156 C 493.492188 598.660156 488.527344 603.628906 482.398438 603.628906 "/>
<path style=" stroke:none;fill-rule:nonzero;fill:rgb(99.21875%,56.858826%,61.959839%);fill-opacity:1;" d="M 686.90625 632.808594 C 686.90625 699.695312 632.6875 753.917969 565.796875 753.917969 C 498.910156 753.917969 444.6875 699.695312 444.6875 632.808594 C 444.6875 565.921875 498.910156 511.699219 565.796875 511.699219 C 632.6875 511.699219 686.90625 565.921875 686.90625 632.808594 "/>
<path style=" stroke:none;fill-rule:nonzero;fill:rgb(90.979004%,40.388489%,49.01886%);fill-opacity:1;" d="M 565.796875 511.699219 C 558.539062 511.699219 551.441406 512.375 544.53125 513.597656 C 601.273438 523.652344 644.378906 573.179688 644.378906 632.808594 C 644.378906 692.4375 601.273438 741.964844 544.53125 752.019531 C 551.441406 753.242188 558.539062 753.917969 565.796875 753.917969 C 632.6875 753.917969 686.90625 699.699219 686.90625 632.808594 C 686.90625 565.921875 632.6875 511.699219 565.796875 511.699219 "/>
<path style=" stroke:none;fill-rule:nonzero;fill:rgb(100%,100%,100%);fill-opacity:1;" d="M 545.300781 709.804688 L 472.347656 636.851562 L 497.464844 611.730469 L 545.300781 659.566406 L 630.550781 574.3125 L 655.667969 599.433594 L 545.300781 709.804688 "/>
<path style=" stroke:none;fill-rule:nonzero;fill:rgb(29.798889%,26.269531%,44.709778%);fill-opacity:1;" d="M 565.796875 522.792969 C 505.136719 522.792969 455.78125 572.144531 455.78125 632.808594 C 455.78125 693.472656 505.136719 742.824219 565.796875 742.824219 C 626.460938 742.824219 675.8125 693.472656 675.8125 632.808594 C 675.8125 572.144531 626.460938 522.792969 565.796875 522.792969 Z M 565.796875 765.011719 C 492.902344 765.011719 433.59375 705.707031 433.59375 632.808594 C 433.59375 559.910156 492.902344 500.601562 565.796875 500.601562 C 638.695312 500.601562 698.003906 559.910156 698.003906 632.808594 C 698.003906 705.707031 638.695312 765.011719 565.796875 765.011719 "/>
<path style=" stroke:none;fill-rule:nonzero;fill:rgb(29.798889%,26.269531%,44.709778%);fill-opacity:1;" d="M 488.035156 636.851562 L 545.296875 694.117188 L 639.980469 599.433594 L 630.546875 590.003906 L 553.144531 667.410156 C 551.0625 669.488281 548.242188 670.660156 545.296875 670.660156 C 542.355469 670.660156 539.535156 669.488281 537.453125 667.410156 L 497.464844 627.421875 Z M 545.296875 720.898438 C 542.457031 720.898438 539.617188 719.816406 537.453125 717.648438 L 464.5 644.695312 C 460.167969 640.363281 460.167969 633.339844 464.5 629.007812 L 489.621094 603.886719 C 491.703125 601.804688 494.523438 600.636719 497.464844 600.636719 C 500.410156 600.636719 503.230469 601.804688 505.3125 603.886719 L 545.296875 643.875 L 622.703125 566.472656 C 627.035156 562.136719 634.058594 562.140625 638.390625 566.46875 L 663.511719 591.589844 C 665.59375 593.671875 666.765625 596.492188 666.765625 599.433594 C 666.765625 602.378906 665.59375 605.199219 663.511719 607.28125 L 553.144531 717.648438 C 550.976562 719.816406 548.136719 720.898438 545.296875 720.898438 "/>
</g>
</svg>
