<?xml version="1.0" encoding="UTF-8"?>
<svg xmlns="http://www.w3.org/2000/svg" xmlns:xlink="http://www.w3.org/1999/xlink" width="810pt" height="809.999993pt" viewBox="0 0 810 809.999993" version="1.2">
<defs>
<clipPath id="clip1">
  <path d="M 51 12 L 759 12 L 759 797.859375 L 51 797.859375 Z M 51 12 "/>
</clipPath>
</defs>
<g id="surface1">
<path style=" stroke:none;fill-rule:nonzero;fill:rgb(80.389404%,93.328857%,96.469116%);fill-opacity:1;" d="M 614.746094 784.773438 L 64.5 784.773438 L 64.5 104.355469 L 614.746094 104.355469 L 614.746094 784.773438 "/>
<path style=" stroke:none;fill-rule:nonzero;fill:rgb(48.629761%,72.158813%,92.158508%);fill-opacity:1;" d="M 667.148438 758.605469 L 614.746094 745.519531 L 614.746094 104.355469 L 182.410156 104.355469 L 195.511719 25.84375 L 745.757812 78.183594 L 667.148438 758.605469 "/>
<path style=" stroke:none;fill-rule:nonzero;fill:rgb(30.979919%,51.368713%,81.959534%);fill-opacity:1;" d="M 575.441406 431.480469 L 103.800781 431.480469 L 103.800781 222.117188 L 130.003906 222.117188 L 130.003906 405.308594 L 575.441406 405.308594 L 575.441406 431.480469 "/>
<path style=" stroke:none;fill-rule:nonzero;fill:rgb(30.979919%,51.368713%,81.959534%);fill-opacity:1;" d="M 165.46875 375.304688 L 146.945312 356.804688 L 221.710938 282.125 L 261.015625 321.382812 L 337.933594 244.558594 L 419.199219 298.585938 L 569.554688 223.5 L 581.328125 246.910156 L 417.257812 328.84375 L 341.3125 278.191406 L 261.015625 358.386719 L 221.710938 319.132812 L 165.46875 375.304688 "/>
<path style=" stroke:none;fill-rule:nonzero;fill:rgb(48.629761%,72.158813%,92.158508%);fill-opacity:1;" d="M 130.003906 169.726562 L 130.003906 169.777344 Z M 130.003906 195.949219 C 115.574219 195.949219 103.800781 184.191406 103.800781 169.777344 C 103.800781 155.363281 115.574219 143.609375 130.003906 143.609375 C 144.4375 143.609375 156.207031 155.363281 156.207031 169.777344 C 156.207031 184.191406 144.4375 195.949219 130.003906 195.949219 "/>
<path style=" stroke:none;fill-rule:nonzero;fill:rgb(48.629761%,72.158813%,92.158508%);fill-opacity:1;" d="M 549.238281 169.726562 L 549.238281 169.777344 Z M 549.238281 195.949219 C 534.808594 195.949219 523.039062 184.191406 523.039062 169.777344 C 523.039062 155.363281 534.808594 143.609375 549.238281 143.609375 C 563.671875 143.609375 575.441406 155.363281 575.441406 169.777344 C 575.441406 184.191406 563.671875 195.949219 549.238281 195.949219 "/>
<path style=" stroke:none;fill-rule:nonzero;fill:rgb(48.629761%,72.158813%,92.158508%);fill-opacity:1;" d="M 130.003906 719.351562 Z M 130.003906 745.519531 C 115.574219 745.519531 103.800781 733.765625 103.800781 719.351562 C 103.800781 704.9375 115.574219 693.179688 130.003906 693.179688 C 144.4375 693.179688 156.207031 704.9375 156.207031 719.351562 C 156.207031 733.765625 144.4375 745.519531 130.003906 745.519531 "/>
<path style=" stroke:none;fill-rule:nonzero;fill:rgb(48.629761%,72.158813%,92.158508%);fill-opacity:1;" d="M 549.238281 719.351562 Z M 549.238281 745.519531 C 534.808594 745.519531 523.039062 733.765625 523.039062 719.351562 C 523.039062 704.9375 534.808594 693.179688 549.238281 693.179688 C 563.671875 693.179688 575.441406 704.9375 575.441406 719.351562 C 575.441406 733.765625 563.671875 745.519531 549.238281 745.519531 "/>
<path style=" stroke:none;fill-rule:nonzero;fill:rgb(30.979919%,51.368713%,81.959534%);fill-opacity:1;" d="M 261.015625 483.820312 L 103.800781 483.820312 L 103.800781 457.648438 L 261.015625 457.648438 L 261.015625 483.820312 "/>
<path style=" stroke:none;fill-rule:nonzero;fill:rgb(30.979919%,51.368713%,81.959534%);fill-opacity:1;" d="M 496.835938 745.519531 L 339.621094 745.519531 L 339.621094 719.351562 L 496.835938 719.351562 L 496.835938 745.519531 "/>
<path style=" stroke:none;fill-rule:nonzero;fill:rgb(30.979919%,51.368713%,81.959534%);fill-opacity:1;" d="M 261.015625 536.160156 L 103.800781 536.160156 L 103.800781 509.988281 L 261.015625 509.988281 L 261.015625 536.160156 "/>
<path style=" stroke:none;fill-rule:nonzero;fill:rgb(30.979919%,51.368713%,81.959534%);fill-opacity:1;" d="M 261.015625 588.5 L 103.800781 588.5 L 103.800781 562.328125 L 261.015625 562.328125 L 261.015625 588.5 "/>
<path style=" stroke:none;fill-rule:nonzero;fill:rgb(30.979919%,51.368713%,81.959534%);fill-opacity:1;" d="M 130.003906 640.839844 L 103.800781 640.839844 L 103.800781 614.667969 L 130.003906 614.667969 L 130.003906 640.839844 "/>
<path style=" stroke:none;fill-rule:nonzero;fill:rgb(30.979919%,51.368713%,81.959534%);fill-opacity:1;" d="M 182.410156 640.839844 L 156.207031 640.839844 L 156.207031 614.667969 L 182.410156 614.667969 L 182.410156 640.839844 "/>
<path style=" stroke:none;fill-rule:nonzero;fill:rgb(30.979919%,51.368713%,81.959534%);fill-opacity:1;" d="M 234.8125 640.839844 L 208.609375 640.839844 L 208.609375 614.667969 L 234.8125 614.667969 L 234.8125 640.839844 "/>
<path style=" stroke:none;fill-rule:nonzero;fill:rgb(48.629761%,72.158813%,92.158508%);fill-opacity:1;" d="M 405.128906 470.734375 C 347.246094 470.734375 300.320312 517.605469 300.320312 575.414062 C 300.320312 633.222656 347.246094 680.09375 405.128906 680.09375 C 463.007812 680.09375 509.9375 633.222656 509.9375 575.414062 L 405.128906 575.414062 L 405.128906 470.734375 "/>
<path style=" stroke:none;fill-rule:nonzero;fill:rgb(30.979919%,51.368713%,81.959534%);fill-opacity:1;" d="M 456.609375 541.015625 L 432.25 531.304688 L 461.78125 457.648438 L 575.441406 457.648438 L 575.441406 483.820312 L 479.488281 483.820312 L 456.609375 541.015625 "/>
<path style=" stroke:none;fill-rule:nonzero;fill:rgb(30.979919%,51.368713%,81.959534%);fill-opacity:1;" d="M 313.417969 745.519531 L 287.21875 745.519531 L 287.21875 719.351562 L 313.417969 719.351562 L 313.417969 745.519531 "/>
<path style=" stroke:none;fill-rule:nonzero;fill:rgb(30.979919%,51.368713%,81.959534%);fill-opacity:1;" d="M 261.015625 745.519531 L 234.8125 745.519531 L 234.8125 719.351562 L 261.015625 719.351562 L 261.015625 745.519531 "/>
<g clip-path="url(#clip1)" clip-rule="nonzero">
<path style=" stroke:none;fill-rule:nonzero;fill:rgb(30.979919%,51.368713%,81.959534%);fill-opacity:1;" d="M 655.839844 742.300781 L 627.847656 735.296875 L 627.847656 104.355469 C 627.847656 97.148438 621.960938 91.269531 614.746094 91.269531 L 197.863281 91.269531 L 206.410156 40.054688 L 731.222656 89.941406 Z M 601.644531 771.691406 L 77.601562 771.691406 L 77.601562 117.4375 L 601.644531 117.4375 Z M 196.738281 12.808594 C 189.777344 11.992188 183.6875 16.949219 182.613281 23.695312 L 171.304688 91.269531 L 64.5 91.269531 C 57.28125 91.269531 51.398438 97.148438 51.398438 104.355469 L 51.398438 784.773438 C 51.398438 791.980469 57.28125 797.859375 64.5 797.859375 L 614.746094 797.859375 C 621.960938 797.859375 627.847656 791.980469 627.847656 784.773438 L 627.847656 762.285156 L 663.976562 771.28125 C 665.050781 771.535156 666.074219 771.691406 667.148438 771.691406 C 669.808594 771.691406 672.421875 770.871094 674.621094 769.390625 C 677.691406 767.191406 679.738281 763.820312 680.148438 760.085938 L 758.753906 79.664062 C 759.164062 76.191406 758.140625 72.714844 755.941406 69.953125 C 753.738281 67.195312 750.515625 65.507812 746.984375 65.148438 L 196.738281 12.808594 "/>
</g>
<path style=" stroke:none;fill-rule:nonzero;fill:rgb(30.979919%,51.368713%,81.959534%);fill-opacity:1;" d="M 130.003906 222.117188 L 103.800781 222.117188 L 103.800781 431.480469 L 575.441406 431.480469 L 575.441406 405.308594 L 130.003906 405.308594 L 130.003906 222.117188 "/>
<path style=" stroke:none;fill-rule:nonzero;fill:rgb(30.979919%,51.368713%,81.959534%);fill-opacity:1;" d="M 419.199219 298.585938 L 337.933594 244.558594 L 261.015625 321.382812 L 221.710938 282.125 L 146.945312 356.804688 L 165.46875 375.304688 L 221.710938 319.132812 L 261.015625 358.386719 L 341.3125 278.191406 L 417.257812 328.84375 L 581.328125 246.910156 L 569.554688 223.5 L 419.199219 298.585938 "/>
<path style=" stroke:none;fill-rule:nonzero;fill:rgb(30.979919%,51.368713%,81.959534%);fill-opacity:1;" d="M 130.003906 195.949219 C 144.4375 195.949219 156.207031 184.191406 156.207031 169.777344 C 156.207031 155.363281 144.4375 143.609375 130.003906 143.609375 C 115.574219 143.609375 103.800781 155.363281 103.800781 169.777344 C 103.800781 184.191406 115.574219 195.949219 130.003906 195.949219 "/>
<path style=" stroke:none;fill-rule:nonzero;fill:rgb(30.979919%,51.368713%,81.959534%);fill-opacity:1;" d="M 549.238281 195.949219 C 563.671875 195.949219 575.441406 184.191406 575.441406 169.777344 C 575.441406 155.363281 563.671875 143.609375 549.238281 143.609375 C 534.808594 143.609375 523.039062 155.363281 523.039062 169.777344 C 523.039062 184.191406 534.808594 195.949219 549.238281 195.949219 "/>
<path style=" stroke:none;fill-rule:nonzero;fill:rgb(30.979919%,51.368713%,81.959534%);fill-opacity:1;" d="M 130.003906 693.179688 C 115.574219 693.179688 103.800781 704.9375 103.800781 719.351562 C 103.800781 733.765625 115.574219 745.519531 130.003906 745.519531 C 144.4375 745.519531 156.207031 733.765625 156.207031 719.351562 C 156.207031 704.9375 144.4375 693.179688 130.003906 693.179688 "/>
<path style=" stroke:none;fill-rule:nonzero;fill:rgb(30.979919%,51.368713%,81.959534%);fill-opacity:1;" d="M 549.238281 693.179688 C 534.808594 693.179688 523.039062 704.9375 523.039062 719.351562 C 523.039062 733.765625 534.808594 745.519531 549.238281 745.519531 C 563.671875 745.519531 575.441406 733.765625 575.441406 719.351562 C 575.441406 704.9375 563.671875 693.179688 549.238281 693.179688 "/>
<path style=" stroke:none;fill-rule:nonzero;fill:rgb(30.979919%,51.368713%,81.959534%);fill-opacity:1;" d="M 103.800781 483.820312 L 261.015625 483.820312 L 261.015625 457.648438 L 103.800781 457.648438 L 103.800781 483.820312 "/>
<path style=" stroke:none;fill-rule:nonzero;fill:rgb(30.979919%,51.368713%,81.959534%);fill-opacity:1;" d="M 339.621094 745.519531 L 496.835938 745.519531 L 496.835938 719.351562 L 339.621094 719.351562 L 339.621094 745.519531 "/>
<path style=" stroke:none;fill-rule:nonzero;fill:rgb(30.979919%,51.368713%,81.959534%);fill-opacity:1;" d="M 103.800781 536.160156 L 261.015625 536.160156 L 261.015625 509.988281 L 103.800781 509.988281 L 103.800781 536.160156 "/>
<path style=" stroke:none;fill-rule:nonzero;fill:rgb(30.979919%,51.368713%,81.959534%);fill-opacity:1;" d="M 103.800781 588.5 L 261.015625 588.5 L 261.015625 562.328125 L 103.800781 562.328125 L 103.800781 588.5 "/>
<path style=" stroke:none;fill-rule:nonzero;fill:rgb(30.979919%,51.368713%,81.959534%);fill-opacity:1;" d="M 130.003906 614.667969 L 103.800781 614.667969 L 103.800781 640.839844 L 130.003906 640.839844 L 130.003906 614.667969 "/>
<path style=" stroke:none;fill-rule:nonzero;fill:rgb(30.979919%,51.368713%,81.959534%);fill-opacity:1;" d="M 156.207031 640.839844 L 182.410156 640.839844 L 182.410156 614.667969 L 156.207031 614.667969 L 156.207031 640.839844 "/>
<path style=" stroke:none;fill-rule:nonzero;fill:rgb(30.979919%,51.368713%,81.959534%);fill-opacity:1;" d="M 234.8125 614.667969 L 208.609375 614.667969 L 208.609375 640.839844 L 234.8125 640.839844 L 234.8125 614.667969 "/>
<path style=" stroke:none;fill-rule:nonzero;fill:rgb(30.979919%,51.368713%,81.959534%);fill-opacity:1;" d="M 313.417969 575.414062 C 313.417969 529.363281 347.65625 491.128906 392.027344 484.738281 L 392.027344 588.5 L 495.914062 588.5 C 489.515625 632.816406 451.238281 667.011719 405.128906 667.011719 C 354.566406 667.011719 313.417969 625.914062 313.417969 575.414062 Z M 523.039062 575.414062 L 523.039062 562.328125 L 418.230469 562.328125 L 418.230469 457.648438 L 405.128906 457.648438 C 340.082031 457.648438 287.21875 510.449219 287.21875 575.414062 C 287.21875 640.378906 340.082031 693.179688 405.128906 693.179688 C 470.171875 693.179688 523.039062 640.378906 523.039062 575.414062 "/>
<path style=" stroke:none;fill-rule:nonzero;fill:rgb(30.979919%,51.368713%,81.959534%);fill-opacity:1;" d="M 432.25 531.304688 L 456.609375 541.015625 L 479.488281 483.820312 L 575.441406 483.820312 L 575.441406 457.648438 L 461.78125 457.648438 L 432.25 531.304688 "/>
<path style=" stroke:none;fill-rule:nonzero;fill:rgb(30.979919%,51.368713%,81.959534%);fill-opacity:1;" d="M 287.21875 745.519531 L 313.417969 745.519531 L 313.417969 719.351562 L 287.21875 719.351562 L 287.21875 745.519531 "/>
<path style=" stroke:none;fill-rule:nonzero;fill:rgb(30.979919%,51.368713%,81.959534%);fill-opacity:1;" d="M 234.8125 745.519531 L 261.015625 745.519531 L 261.015625 719.351562 L 234.8125 719.351562 L 234.8125 745.519531 "/>
</g>
</svg>
