<?xml version="1.0" encoding="UTF-8"?>
<svg xmlns="http://www.w3.org/2000/svg" xmlns:xlink="http://www.w3.org/1999/xlink" width="810pt" height="809.999993pt" viewBox="0 0 810 809.999993" version="1.2">
<defs>
<clipPath id="clip1">
  <path d="M 16.546875 417 L 354 417 L 354 793.546875 L 16.546875 793.546875 Z M 16.546875 417 "/>
</clipPath>
<clipPath id="clip2">
  <path d="M 456 417 L 793.546875 417 L 793.546875 793.546875 L 456 793.546875 Z M 456 417 "/>
</clipPath>
</defs>
<g id="surface1">
<path style=" stroke:none;fill-rule:nonzero;fill:rgb(95.689392%,22.349548%,23.919678%);fill-opacity:1;" d="M 17.921875 204.777344 L 43.035156 210.046875 C 44.460938 217.933594 46.558594 225.550781 49.199219 232.933594 L 29.964844 250.171875 C 35.367188 262.851562 42.414062 274.625 50.613281 285.480469 L 74.871094 277.527344 C 80 283.574219 85.621094 289.183594 91.65625 294.3125 L 83.691406 318.582031 C 94.542969 326.78125 106.316406 333.828125 119.007812 339.226562 L 136.25 319.996094 C 143.632812 322.636719 151.257812 324.734375 159.132812 326.160156 L 164.417969 351.273438 L 205.4375 351.273438 L 210.707031 326.160156 C 218.597656 324.734375 226.210938 322.636719 233.59375 319.996094 L 250.832031 339.230469 C 263.511719 333.828125 275.285156 326.78125 286.140625 318.582031 L 278.175781 294.324219 C 284.222656 289.195312 289.832031 283.574219 294.960938 277.539062 L 319.230469 285.515625 C 327.429688 274.664062 334.476562 262.890625 339.875 250.199219 L 320.644531 232.960938 C 323.285156 225.578125 325.382812 217.949219 326.808594 210.074219 L 351.921875 204.800781 L 351.921875 163.785156 L 326.808594 158.511719 C 325.382812 150.625 323.285156 143.007812 320.644531 135.625 L 339.875 118.386719 C 334.476562 105.707031 327.429688 93.933594 319.230469 83.082031 L 294.972656 91.019531 C 289.84375 84.972656 284.222656 79.363281 278.1875 74.234375 L 286.164062 49.964844 C 275.3125 41.765625 263.539062 34.71875 250.84375 29.320312 L 233.605469 48.550781 C 226.222656 45.898438 218.597656 43.8125 210.722656 42.386719 L 205.4375 17.273438 L 164.417969 17.273438 L 159.148438 42.386719 C 151.257812 43.8125 143.644531 45.910156 136.261719 48.550781 L 119.007812 29.304688 C 106.328125 34.707031 94.558594 41.753906 83.703125 49.949219 L 91.667969 74.222656 C 85.621094 79.351562 80.011719 84.972656 74.882812 91.019531 L 50.613281 83.042969 C 42.414062 93.910156 35.367188 105.683594 29.964844 118.363281 L 49.199219 135.601562 C 46.542969 142.984375 44.460938 150.613281 43.035156 158.488281 L 17.921875 163.769531 M 184.921875 274.9375 C 134.851562 274.9375 94.257812 234.34375 94.257812 184.273438 C 94.257812 134.203125 134.851562 93.613281 184.921875 93.613281 C 234.992188 93.613281 275.582031 134.203125 275.582031 184.273438 C 275.582031 234.34375 234.992188 274.9375 184.921875 274.9375 Z M 184.921875 274.9375 "/>
<g clip-path="url(#clip1)" clip-rule="nonzero">
<path style=" stroke:none;fill-rule:nonzero;fill:rgb(95.689392%,22.349548%,23.919678%);fill-opacity:1;" d="M 301.488281 417.40625 L 301.488281 507.808594 C 301.488281 536.5625 278.175781 559.875 249.421875 559.875 L 223.425781 559.875 C 239.265625 548.074219 249.679688 529.347656 249.679688 508.066406 C 249.679688 472.308594 220.679688 443.308594 184.921875 443.308594 C 149.160156 443.308594 120.164062 472.308594 120.164062 508.066406 C 120.164062 529.347656 130.574219 548.074219 146.414062 559.875 L 120.421875 559.875 C 91.667969 559.875 68.355469 536.5625 68.355469 507.808594 L 68.355469 417.40625 L 16.546875 417.40625 L 16.546875 533.972656 C 16.546875 584.042969 57.140625 624.632812 107.210938 624.632812 L 107.210938 793.007812 L 262.632812 793.007812 L 262.632812 624.632812 C 312.703125 624.632812 353.292969 584.042969 353.292969 533.972656 L 353.292969 417.40625 Z M 301.488281 417.40625 "/>
</g>
<g clip-path="url(#clip2)" clip-rule="nonzero">
<path style=" stroke:none;fill-rule:nonzero;fill:rgb(9.01947%,68.629456%,86.268616%);fill-opacity:1;" d="M 741.847656 417.40625 L 741.847656 507.808594 C 741.847656 536.5625 718.535156 559.875 689.78125 559.875 L 663.785156 559.875 C 679.625 548.074219 690.039062 529.347656 690.039062 508.066406 C 690.039062 472.308594 661.039062 443.308594 625.28125 443.308594 C 589.519531 443.308594 560.523438 472.308594 560.523438 508.066406 C 560.523438 529.347656 570.933594 548.074219 586.777344 559.875 L 560.78125 559.875 C 532.027344 559.875 508.714844 536.5625 508.714844 507.808594 L 508.714844 417.40625 L 456.90625 417.40625 L 456.90625 533.972656 C 456.90625 584.042969 497.5 624.632812 547.570312 624.632812 L 547.570312 793.007812 L 702.992188 793.007812 L 702.992188 624.632812 C 753.0625 624.632812 793.652344 584.042969 793.652344 533.972656 L 793.652344 417.40625 Z M 741.847656 417.40625 "/>
</g>
<path style=" stroke:none;fill-rule:nonzero;fill:rgb(9.01947%,68.629456%,86.268616%);fill-opacity:1;" d="M 792.28125 204.789062 L 792.28125 163.769531 L 767.167969 158.5 C 765.742188 150.613281 763.644531 142.996094 761.003906 135.613281 L 780.234375 118.375 C 774.835938 105.695312 767.789062 93.921875 759.589844 83.070312 L 735.332031 91.019531 C 730.203125 84.972656 724.582031 79.363281 718.546875 74.234375 L 726.523438 49.964844 C 715.671875 41.765625 703.898438 34.71875 691.207031 29.320312 L 673.964844 48.550781 C 666.585938 45.898438 658.957031 43.8125 651.082031 42.386719 L 645.796875 17.273438 L 604.777344 17.273438 L 599.507812 42.386719 C 591.621094 43.8125 584.003906 45.910156 576.621094 48.550781 L 559.382812 29.320312 C 546.703125 34.71875 534.929688 41.765625 524.074219 49.964844 L 532.027344 74.222656 C 525.980469 79.351562 520.371094 84.972656 515.242188 91.007812 L 490.972656 83.042969 C 482.773438 93.894531 475.726562 105.667969 470.324219 118.363281 L 489.558594 135.601562 C 486.90625 142.984375 484.820312 150.613281 483.394531 158.488281 L 458.28125 163.769531 L 458.28125 204.789062 L 483.394531 210.0625 C 484.820312 217.949219 486.917969 225.5625 489.558594 232.945312 L 470.324219 250.183594 C 475.726562 262.863281 482.773438 274.636719 490.972656 285.492188 L 515.242188 277.527344 C 520.371094 283.574219 525.992188 289.183594 532.027344 294.3125 L 524.050781 318.582031 C 534.902344 326.78125 546.675781 333.828125 559.371094 339.226562 L 576.609375 319.996094 C 583.992188 322.636719 591.621094 324.734375 599.492188 326.160156 L 604.777344 351.273438 L 645.796875 351.273438 L 651.066406 326.160156 C 658.957031 324.734375 666.570312 322.636719 673.953125 319.996094 L 691.191406 339.230469 C 703.871094 333.828125 715.644531 326.78125 726.5 318.582031 L 718.535156 294.324219 C 724.582031 289.195312 730.191406 283.574219 735.320312 277.539062 L 759.589844 285.515625 C 767.789062 274.664062 774.835938 262.890625 780.234375 250.199219 L 761.003906 232.960938 C 763.644531 225.578125 765.742188 217.949219 767.167969 210.074219 Z M 625.28125 274.9375 C 575.210938 274.9375 534.617188 234.34375 534.617188 184.273438 C 534.617188 134.203125 575.210938 93.613281 625.28125 93.613281 C 675.351562 93.613281 715.941406 134.203125 715.941406 184.273438 C 715.941406 234.34375 675.351562 274.9375 625.28125 274.9375 Z M 625.28125 274.9375 "/>
<path style=" stroke:none;fill-rule:nonzero;fill:rgb(9.01947%,68.629456%,86.268616%);fill-opacity:1;" d="M 599.378906 145.417969 L 599.378906 223.128906 L 677.089844 184.273438 Z M 599.378906 145.417969 "/>
<path style=" stroke:none;fill-rule:nonzero;fill:rgb(95.689392%,22.349548%,23.919678%);fill-opacity:1;" d="M 159.019531 145.417969 L 159.019531 223.128906 L 236.726562 184.273438 Z M 159.019531 145.417969 "/>
<path style=" stroke:none;fill-rule:nonzero;fill:rgb(24.708557%,24.708557%,24.708557%);fill-opacity:1;" d="M 651.183594 741.199219 L 677.089844 741.199219 L 677.089844 767.101562 L 651.183594 767.101562 Z M 651.183594 741.199219 "/>
<path style=" stroke:none;fill-rule:nonzero;fill:rgb(24.708557%,24.708557%,24.708557%);fill-opacity:1;" d="M 133.113281 741.199219 L 159.019531 741.199219 L 159.019531 767.101562 L 133.113281 767.101562 Z M 133.113281 741.199219 "/>
<path style=" stroke:none;fill-rule:nonzero;fill:rgb(97.648621%,57.649231%,59.609985%);fill-opacity:1;" d="M 184.921875 67.707031 C 120.539062 67.707031 68.355469 119.890625 68.355469 184.273438 C 68.355469 248.65625 120.539062 300.839844 184.921875 300.839844 C 249.304688 300.839844 301.488281 248.65625 301.488281 184.273438 C 301.488281 119.890625 249.304688 67.707031 184.921875 67.707031 Z M 184.921875 274.9375 C 134.851562 274.9375 94.257812 234.34375 94.257812 184.273438 C 94.257812 134.203125 134.851562 93.613281 184.921875 93.613281 C 234.992188 93.613281 275.582031 134.203125 275.582031 184.273438 C 275.582031 234.34375 234.992188 274.9375 184.921875 274.9375 Z M 184.921875 274.9375 "/>
<path style=" stroke:none;fill-rule:nonzero;fill:rgb(50.588989%,89.7995%,98.81897%);fill-opacity:1;" d="M 625.28125 67.707031 C 560.898438 67.707031 508.714844 119.890625 508.714844 184.273438 C 508.714844 248.65625 560.898438 300.839844 625.28125 300.839844 C 689.664062 300.839844 741.847656 248.65625 741.847656 184.273438 C 741.847656 119.890625 689.664062 67.707031 625.28125 67.707031 Z M 625.28125 274.9375 C 575.210938 274.9375 534.617188 234.34375 534.617188 184.273438 C 534.617188 134.203125 575.210938 93.613281 625.28125 93.613281 C 675.351562 93.613281 715.941406 134.203125 715.941406 184.273438 C 715.941406 234.34375 675.351562 274.9375 625.28125 274.9375 Z M 625.28125 274.9375 "/>
</g>
</svg>
