<?xml version="1.0" encoding="UTF-8"?>
<svg xmlns="http://www.w3.org/2000/svg" xmlns:xlink="http://www.w3.org/1999/xlink" width="810pt" height="809.999993pt" viewBox="0 0 810 809.999993" version="1.2">
<defs>
<clipPath id="clip1">
  <path d="M 23.3125 108 L 540 108 L 540 778.347656 L 23.3125 778.347656 Z M 23.3125 108 "/>
</clipPath>
<clipPath id="clip2">
  <path d="M 139 30.949219 L 398 30.949219 L 398 122 L 139 122 Z M 139 30.949219 "/>
</clipPath>
<clipPath id="clip3">
  <path d="M 445 430 L 786.8125 430 L 786.8125 778.347656 L 445 778.347656 Z M 445 430 "/>
</clipPath>
</defs>
<g id="surface1">
<g clip-path="url(#clip1)" clip-rule="nonzero">
<path style=" stroke:none;fill-rule:nonzero;fill:rgb(35.289001%,58.039856%,83.529663%);fill-opacity:1;" d="M 23.453125 108.265625 L 539.558594 108.265625 L 539.558594 778.347656 L 23.453125 778.347656 L 23.453125 108.265625 "/>
</g>
<path style=" stroke:none;fill-rule:nonzero;fill:rgb(69.018555%,86.669922%,96.469116%);fill-opacity:1;" d="M 397.628906 752.574219 L 62.160156 752.574219 L 62.160156 108.265625 L 500.851562 108.265625 L 500.851562 662.371094 L 397.628906 752.574219 "/>
<path style=" stroke:none;fill-rule:nonzero;fill:rgb(53.329468%,75.289917%,91.758728%);fill-opacity:1;" d="M 500.851562 662.371094 L 397.628906 752.574219 L 397.628906 662.371094 Z M 500.851562 662.371094 "/>
<path style=" stroke:none;fill-rule:nonzero;fill:rgb(53.329468%,75.289917%,91.758728%);fill-opacity:1;" d="M 462.140625 185.582031 L 100.867188 185.582031 L 100.867188 159.808594 L 462.140625 159.808594 L 462.140625 185.582031 "/>
<path style=" stroke:none;fill-rule:nonzero;fill:rgb(53.329468%,75.289917%,91.758728%);fill-opacity:1;" d="M 178.285156 301.558594 L 100.867188 301.558594 L 100.867188 237.128906 L 178.285156 237.128906 L 178.285156 301.558594 "/>
<path style=" stroke:none;fill-rule:nonzero;fill:rgb(53.329468%,75.289917%,91.758728%);fill-opacity:1;" d="M 178.285156 404.648438 L 100.867188 404.648438 L 100.867188 340.214844 L 178.285156 340.214844 L 178.285156 404.648438 "/>
<path style=" stroke:none;fill-rule:nonzero;fill:rgb(53.329468%,75.289917%,91.758728%);fill-opacity:1;" d="M 178.285156 507.738281 L 100.867188 507.738281 L 100.867188 443.304688 L 178.285156 443.304688 L 178.285156 507.738281 "/>
<path style=" stroke:none;fill-rule:nonzero;fill:rgb(53.329468%,75.289917%,91.758728%);fill-opacity:1;" d="M 178.285156 610.828125 L 100.867188 610.828125 L 100.867188 546.394531 L 178.285156 546.394531 L 178.285156 610.828125 "/>
<path style=" stroke:none;fill-rule:nonzero;fill:rgb(53.329468%,75.289917%,91.758728%);fill-opacity:1;" d="M 178.285156 713.914062 L 100.867188 713.914062 L 100.867188 649.484375 L 178.285156 649.484375 L 178.285156 713.914062 "/>
<path style=" stroke:none;fill-rule:nonzero;fill:rgb(53.329468%,75.289917%,91.758728%);fill-opacity:1;" d="M 449.238281 256.457031 L 204.089844 256.457031 C 200.523438 256.457031 197.636719 253.574219 197.636719 250.011719 C 197.636719 246.453125 200.523438 243.570312 204.089844 243.570312 L 449.238281 243.570312 C 452.804688 243.570312 455.691406 246.453125 455.691406 250.011719 C 455.691406 253.574219 452.804688 256.457031 449.238281 256.457031 "/>
<path style=" stroke:none;fill-rule:nonzero;fill:rgb(53.329468%,75.289917%,91.758728%);fill-opacity:1;" d="M 449.238281 295.113281 L 204.089844 295.113281 C 200.523438 295.113281 197.636719 292.234375 197.636719 288.671875 C 197.636719 285.109375 200.523438 282.230469 204.089844 282.230469 L 449.238281 282.230469 C 452.804688 282.230469 455.691406 285.109375 455.691406 288.671875 C 455.691406 292.234375 452.804688 295.113281 449.238281 295.113281 "/>
<path style=" stroke:none;fill-rule:nonzero;fill:rgb(53.329468%,75.289917%,91.758728%);fill-opacity:1;" d="M 449.238281 359.546875 L 204.089844 359.546875 C 200.523438 359.546875 197.636719 356.664062 197.636719 353.101562 C 197.636719 349.542969 200.523438 346.660156 204.089844 346.660156 L 449.238281 346.660156 C 452.804688 346.660156 455.691406 349.542969 455.691406 353.101562 C 455.691406 356.664062 452.804688 359.546875 449.238281 359.546875 "/>
<path style=" stroke:none;fill-rule:nonzero;fill:rgb(53.329468%,75.289917%,91.758728%);fill-opacity:1;" d="M 449.238281 398.203125 L 204.089844 398.203125 C 200.523438 398.203125 197.636719 395.324219 197.636719 391.761719 C 197.636719 388.199219 200.523438 385.316406 204.089844 385.316406 L 449.238281 385.316406 C 452.804688 385.316406 455.691406 388.199219 455.691406 391.761719 C 455.691406 395.324219 452.804688 398.203125 449.238281 398.203125 "/>
<path style=" stroke:none;fill-rule:nonzero;fill:rgb(53.329468%,75.289917%,91.758728%);fill-opacity:1;" d="M 384.726562 462.636719 L 204.089844 462.636719 C 200.523438 462.636719 197.636719 459.753906 197.636719 456.191406 C 197.636719 452.628906 200.523438 449.75 204.089844 449.75 L 384.726562 449.75 C 388.292969 449.75 391.179688 452.628906 391.179688 456.191406 C 391.179688 459.753906 388.292969 462.636719 384.726562 462.636719 "/>
<path style=" stroke:none;fill-rule:nonzero;fill:rgb(53.329468%,75.289917%,91.758728%);fill-opacity:1;" d="M 294.40625 501.292969 L 204.089844 501.292969 C 200.523438 501.292969 197.636719 498.410156 197.636719 494.851562 C 197.636719 491.289062 200.523438 488.40625 204.089844 488.40625 L 294.40625 488.40625 C 297.972656 488.40625 300.859375 491.289062 300.859375 494.851562 C 300.859375 498.410156 297.972656 501.292969 294.40625 501.292969 "/>
<g clip-path="url(#clip2)" clip-rule="nonzero">
<path style=" stroke:none;fill-rule:nonzero;fill:rgb(35.289001%,58.039856%,83.529663%);fill-opacity:1;" d="M 333.117188 82.492188 C 333.117188 71.816406 324.453125 63.164062 313.761719 63.164062 L 294.40625 63.164062 L 294.40625 56.71875 C 294.40625 42.488281 282.851562 30.949219 268.601562 30.949219 C 254.351562 30.949219 242.796875 42.488281 242.796875 56.71875 L 242.796875 63.164062 L 223.441406 63.164062 C 212.75 63.164062 204.089844 71.816406 204.089844 82.492188 L 146.027344 82.492188 C 142.460938 82.492188 139.574219 85.375 139.574219 88.9375 L 139.574219 121.152344 L 397.628906 121.152344 L 397.628906 88.9375 C 397.628906 85.375 394.742188 82.492188 391.179688 82.492188 L 333.117188 82.492188 "/>
</g>
<g clip-path="url(#clip3)" clip-rule="nonzero">
<path style=" stroke:none;fill-rule:nonzero;fill:rgb(15.289307%,24.708557%,52.549744%);fill-opacity:1;" d="M 668.660156 559.28125 L 668.628906 508.824219 L 668.585938 430.417969 L 539.558594 463.421875 L 514.90625 507.742188 L 491.28125 550.207031 C 480.632812 569.347656 475.046875 590.886719 475.046875 612.789062 L 475.046875 759.015625 L 446.316406 775.339844 C 444.875 776.15625 445.453125 778.347656 447.109375 778.347656 L 539.558594 778.347656 L 539.558594 592.285156 L 579.300781 508.195312 L 604.101562 508.371094 L 604.121094 536.9375 C 604.132812 567.972656 615.367188 597.953125 635.742188 621.378906 L 727.207031 726.53125 L 721.140625 760.226562 C 720.855469 761.792969 722.785156 762.773438 723.886719 761.621094 L 786.8125 696.296875 L 668.660156 559.28125 "/>
</g>
<path style=" stroke:none;fill-rule:nonzero;fill:rgb(42.349243%,33.329773%,69.018555%);fill-opacity:1;" d="M 681.488281 275.785156 L 681.488281 327.332031 L 642.519531 317.601562 L 668.585938 430.417969 L 539.558594 463.421875 L 502.742188 357.109375 L 496.136719 386.269531 L 449.0625 374.042969 L 448.289062 373.835938 L 453.011719 356.324219 C 458.480469 336.0625 473.496094 319.730469 493.238281 312.554688 L 606.6875 271.324219 C 621.792969 265.832031 638.21875 264.976562 653.8125 268.875 L 681.488281 275.785156 "/>
<path style=" stroke:none;fill-rule:nonzero;fill:rgb(96.078491%,49.01886%,76.078796%);fill-opacity:1;" d="M 496.136719 386.269531 L 481.660156 450.328125 C 477.042969 470.753906 465.917969 489.132812 449.933594 502.695312 L 421.445312 526.890625 L 330.292969 542.222656 L 423.433594 465.855469 L 448.289062 373.835938 L 449.0625 374.042969 L 496.136719 386.269531 "/>
<path style=" stroke:none;fill-rule:nonzero;fill:rgb(96.078491%,49.01886%,76.078796%);fill-opacity:1;" d="M 726.550781 411.191406 L 774.753906 357.707031 C 781.160156 350.59375 784.707031 341.367188 784.707031 331.796875 C 784.707031 314.023438 772.601562 298.53125 755.332031 294.222656 L 681.488281 275.785156 L 681.488281 327.417969 L 737.765625 339.265625 L 632.921875 443.929688 L 726.550781 411.191406 "/>
<path style=" stroke:none;fill-rule:nonzero;fill:rgb(93.728638%,17.649841%,28.62854%);fill-opacity:1;" d="M 549.386719 331.890625 L 561.980469 343.609375 L 567.613281 362.628906 C 576.773438 393.585938 578.878906 426.203125 573.753906 458.078125 L 569.339844 485.558594 L 583.457031 508 L 600.203125 479.453125 L 601.773438 460.175781 C 604.949219 421.265625 597.5 382.222656 580.226562 347.207031 L 575.386719 337.386719 L 576.148438 320.691406 L 558.15625 315.414062 L 549.386719 331.890625 "/>
<path style=" stroke:none;fill-rule:nonzero;fill:rgb(97.24884%,75.289917%,6.269836%);fill-opacity:1;" d="M 744.167969 411.738281 L 265.15625 585.578125 L 238.722656 512.910156 L 717.726562 339.070312 C 727.773438 335.421875 738.875 340.601562 742.53125 350.636719 L 755.746094 386.964844 C 759.402344 397.003906 754.214844 408.09375 744.167969 411.738281 "/>
<path style=" stroke:none;fill-rule:nonzero;fill:rgb(95.289612%,59.21936%,6.269836%);fill-opacity:1;" d="M 265.15625 585.578125 L 179.179688 575.648438 L 238.722656 512.910156 Z M 265.15625 585.578125 "/>
<path style=" stroke:none;fill-rule:nonzero;fill:rgb(95.289612%,59.21936%,6.269836%);fill-opacity:1;" d="M 271.785156 534.773438 C 269.152344 534.773438 266.675781 533.152344 265.722656 530.53125 C 264.507812 527.1875 266.234375 523.492188 269.578125 522.273438 L 706.144531 363.835938 C 709.492188 362.628906 713.195312 364.347656 714.414062 367.695312 C 715.628906 371.042969 713.902344 374.734375 710.550781 375.949219 L 273.988281 534.390625 C 273.257812 534.648438 272.515625 534.773438 271.785156 534.773438 "/>
<path style=" stroke:none;fill-rule:nonzero;fill:rgb(95.289612%,59.21936%,6.269836%);fill-opacity:1;" d="M 280.597656 559 C 277.964844 559 275.488281 557.367188 274.539062 554.75 C 274.273438 554.027344 274.148438 553.285156 274.148438 552.554688 C 274.148438 549.925781 275.773438 547.445312 278.394531 546.496094 L 714.960938 388.0625 C 718.304688 386.851562 722.011719 388.570312 723.226562 391.917969 C 723.492188 392.640625 723.617188 393.382812 723.617188 394.113281 C 723.617188 396.75 721.992188 399.222656 719.363281 400.171875 L 282.804688 558.609375 C 282.070312 558.871094 281.328125 559 280.597656 559 "/>
<path style=" stroke:none;fill-rule:nonzero;fill:rgb(96.078491%,49.01886%,76.078796%);fill-opacity:1;" d="M 653.441406 444.664062 L 649.03125 435.679688 C 647.566406 432.699219 644.070312 431.320312 640.957031 432.488281 L 609.433594 444.382812 C 607.140625 445.242188 605.261719 447.957031 605.261719 450.410156 L 605.261719 460.476562 C 605.261719 468.78125 612.011719 475.519531 620.324219 475.519531 L 651.59375 475.519531 C 662.410156 475.519531 672.71875 470.933594 679.949219 462.910156 L 717.265625 421.503906 L 653.441406 444.664062 "/>
<path style=" stroke:none;fill-rule:nonzero;fill:rgb(96.078491%,49.01886%,76.078796%);fill-opacity:1;" d="M 417.378906 530.332031 L 342.359375 557.5625 L 336.925781 550.132812 C 332.554688 544.148438 324.667969 541.921875 317.804688 544.722656 L 302.867188 550.804688 C 294.097656 554.386719 290.292969 564.710938 294.640625 573.117188 L 299.226562 581.972656 C 302.648438 588.582031 310.164062 591.992188 317.402344 590.214844 L 351.410156 581.871094 C 356.269531 580.679688 360.785156 578.371094 364.605469 575.136719 L 417.378906 530.332031 "/>
<path style=" stroke:none;fill-rule:nonzero;fill:rgb(96.078491%,49.01886%,76.078796%);fill-opacity:1;" d="M 546.5 246.390625 L 562.257812 287.46875 L 554.453125 306.433594 L 535.789062 297.089844 L 520.203125 256.449219 L 546.5 246.390625 "/>
<path style=" stroke:none;fill-rule:nonzero;fill:rgb(90.589905%,21.958923%,54.899597%);fill-opacity:1;" d="M 538.394531 264.546875 L 525.246094 269.582031 L 532.796875 289.277344 L 533.894531 288.855469 C 540.546875 286.3125 543.878906 278.863281 541.328125 272.210938 L 538.394531 264.546875 "/>
<path style=" stroke:none;fill-rule:nonzero;fill:rgb(96.078491%,49.01886%,76.078796%);fill-opacity:1;" d="M 538.949219 226.6875 L 492.929688 244.292969 L 503.003906 270.5625 C 507.175781 281.4375 519.386719 286.878906 530.277344 282.714844 C 544.800781 277.15625 552.0625 260.890625 546.5 246.390625 L 538.949219 226.6875 "/>
<path style=" stroke:none;fill-rule:nonzero;fill:rgb(15.289307%,24.708557%,52.549744%);fill-opacity:1;" d="M 469.707031 223.0625 L 476.363281 240.40625 C 480.707031 251.75 494.53125 256.046875 504.554688 249.175781 L 520.707031 238.101562 L 527.34375 246.796875 C 532.402344 253.429688 541.226562 255.941406 549.019531 252.953125 L 552.335938 229.695312 C 555.429688 207.976562 534.019531 190.929688 513.515625 198.777344 C 508.144531 200.828125 503.269531 203.980469 499.195312 208.019531 C 495.117188 212.058594 490.242188 215.210938 484.875 217.261719 L 469.707031 223.0625 "/>
<path style=" stroke:none;fill-rule:nonzero;fill:rgb(96.078491%,49.01886%,76.078796%);fill-opacity:1;" d="M 537.410156 242.335938 C 536.019531 238.710938 531.949219 236.902344 528.320312 238.292969 C 524.683594 239.675781 522.871094 243.738281 524.261719 247.371094 C 525.652344 250.996094 529.722656 252.808594 533.351562 251.417969 C 536.980469 250.03125 538.800781 245.960938 537.410156 242.335938 "/>
<path style=" stroke:none;fill-rule:nonzero;fill:rgb(34.899902%,26.269531%,64.309692%);fill-opacity:1;" d="M 542.445312 351.238281 C 543.804688 350.675781 544.996094 349.6875 545.800781 348.320312 L 560.992188 322.578125 L 589.992188 329.933594 C 593.757812 330.890625 597.589844 328.621094 598.546875 324.851562 L 607.214844 290.78125 C 608.171875 287.015625 605.890625 283.191406 602.125 282.234375 C 598.359375 281.277344 594.527344 283.554688 593.570312 287.320312 L 586.632812 314.578125 L 559.339844 307.648438 C 556.308594 306.882812 553.136719 308.203125 551.542969 310.894531 L 537.246094 335.125 L 512.984375 320.84375 C 509.632812 318.875 505.316406 319.988281 503.34375 323.328125 C 501.375 326.675781 502.488281 330.984375 505.832031 332.957031 L 536.164062 350.804688 C 538.148438 351.976562 540.472656 352.058594 542.445312 351.238281 "/>
<path style=" stroke:none;fill-rule:nonzero;fill:rgb(93.728638%,17.649841%,28.62854%);fill-opacity:1;" d="M 139.574219 494.851562 C 137.882812 494.851562 136.238281 494.183594 135.015625 492.964844 L 115.660156 473.632812 C 113.140625 471.117188 113.140625 467.039062 115.660156 464.523438 C 118.175781 462.007812 122.269531 462.007812 124.785156 464.523438 L 137.21875 476.945312 L 159.390625 421.585938 C 160.710938 418.28125 164.472656 416.671875 167.773438 417.992188 C 171.082031 419.3125 172.695312 423.0625 171.371094 426.367188 L 145.566406 490.796875 C 144.761719 492.8125 142.996094 494.285156 140.875 494.71875 C 140.4375 494.804688 140.011719 494.851562 139.574219 494.851562 "/>
<path style=" stroke:none;fill-rule:nonzero;fill:rgb(93.728638%,17.649841%,28.62854%);fill-opacity:1;" d="M 139.574219 391.761719 C 137.882812 391.761719 136.238281 391.09375 135.015625 389.875 L 115.660156 370.542969 C 113.140625 368.027344 113.140625 363.949219 115.660156 361.433594 C 118.175781 358.917969 122.269531 358.917969 124.785156 361.433594 L 137.21875 373.855469 L 159.390625 318.496094 C 160.710938 315.1875 164.472656 313.582031 167.773438 314.902344 C 171.082031 316.226562 172.695312 319.976562 171.371094 323.277344 L 145.566406 387.710938 C 144.761719 389.722656 142.996094 391.195312 140.875 391.628906 C 140.4375 391.71875 140.011719 391.761719 139.574219 391.761719 "/>
<path style=" stroke:none;fill-rule:nonzero;fill:rgb(93.728638%,17.649841%,28.62854%);fill-opacity:1;" d="M 139.574219 288.671875 C 137.882812 288.671875 136.238281 288.003906 135.015625 286.785156 L 115.660156 267.453125 C 113.140625 264.9375 113.140625 260.859375 115.660156 258.34375 C 118.175781 255.828125 122.269531 255.828125 124.785156 258.34375 L 137.21875 270.765625 L 159.390625 215.40625 C 160.710938 212.097656 164.472656 210.492188 167.773438 211.8125 C 171.082031 213.136719 172.695312 216.886719 171.371094 220.1875 L 145.566406 284.621094 C 144.761719 286.632812 142.996094 288.105469 140.875 288.539062 C 140.4375 288.628906 140.011719 288.671875 139.574219 288.671875 "/>
</g>
</svg>
