<?xml version="1.0" encoding="UTF-8"?>
<svg xmlns="http://www.w3.org/2000/svg" xmlns:xlink="http://www.w3.org/1999/xlink" width="810pt" height="809.999993pt" viewBox="0 0 810 809.999993" version="1.2">
<defs>
<clipPath id="clip1">
  <path d="M 24 182 L 77 182 L 77 786.375 L 24 786.375 Z M 24 182 "/>
</clipPath>
<clipPath id="clip2">
  <path d="M 733 182 L 786 182 L 786 786.375 L 733 786.375 Z M 733 182 "/>
</clipPath>
<clipPath id="clip3">
  <path d="M 76 445 L 734 445 L 734 786.375 L 76 786.375 Z M 76 445 "/>
</clipPath>
<clipPath id="clip4">
  <path d="M 76 465 L 734 465 L 734 786.375 L 76 786.375 Z M 76 465 "/>
</clipPath>
<clipPath id="clip5">
  <path d="M 76 445 L 104 445 L 104 786.375 L 76 786.375 Z M 76 445 "/>
</clipPath>
<clipPath id="clip6">
  <path d="M 706 445 L 734 445 L 734 786.375 L 706 786.375 Z M 706 445 "/>
</clipPath>
</defs>
<g id="surface1">
<g clip-path="url(#clip1)" clip-rule="nonzero">
<path style=" stroke:none;fill-rule:nonzero;fill:rgb(58.428955%,27.059937%,11.369324%);fill-opacity:1;" d="M 76.792969 786.375 L 24.28125 786.375 L 24.28125 182.476562 L 76.792969 182.476562 L 76.792969 786.375 "/>
</g>
<g clip-path="url(#clip2)" clip-rule="nonzero">
<path style=" stroke:none;fill-rule:nonzero;fill:rgb(58.428955%,27.059937%,11.369324%);fill-opacity:1;" d="M 785.71875 786.375 L 733.207031 786.375 L 733.207031 182.476562 L 785.71875 182.476562 L 785.71875 786.375 "/>
</g>
<path style=" stroke:none;fill-rule:nonzero;fill:rgb(54.508972%,25.099182%,10.978699%);fill-opacity:1;" d="M 76.792969 287.503906 L 733.207031 287.503906 L 733.207031 234.988281 L 76.792969 234.988281 L 76.792969 287.503906 "/>
<path style=" stroke:none;fill-rule:nonzero;fill:rgb(76.469421%,76.078796%,74.508667%);fill-opacity:1;" d="M 208.488281 641.964844 L 169.101562 641.964844 L 149.410156 609.144531 L 169.101562 576.324219 L 208.488281 576.324219 L 228.179688 609.144531 Z M 234.332031 537.296875 L 234.332031 226.527344 C 234.332031 209.195312 238.230469 191.964844 246.4375 176.734375 C 258.847656 153.65625 273.71875 137.808594 273.71875 110.269531 C 273.71875 62.734375 234.847656 24.269531 187.152344 24.9375 C 176.589844 25.089844 166.433594 27.398438 157.050781 31.195312 L 198.792969 72.9375 C 203.921875 78.066406 203.921875 86.375 198.792969 91.503906 L 170.949219 119.347656 C 165.820312 124.476562 157.511719 124.476562 152.382812 119.347656 L 110.179688 77.144531 C 105.101562 88.734375 102.488281 101.503906 103.152344 114.734375 C 104.128906 133.757812 114.640625 150.066406 124.433594 166.21875 C 135.511719 184.628906 142.433594 203.449219 142.433594 225.246094 L 142.433594 537.296875 C 114.84375 554.988281 98.023438 588.066406 104.382812 624.476562 C 110.332031 658.527344 137.359375 686.222656 171.257812 692.785156 C 225.871094 703.453125 273.71875 661.863281 273.71875 609.144531 C 273.71875 578.9375 257.972656 552.476562 234.332031 537.296875 "/>
<path style=" stroke:none;fill-rule:nonzero;fill:rgb(63.529968%,63.529968%,62.348938%);fill-opacity:1;" d="M 200.691406 536.9375 L 174.433594 536.9375 L 174.433594 208.734375 L 200.691406 208.734375 L 200.691406 536.9375 "/>
<path style=" stroke:none;fill-rule:nonzero;fill:rgb(76.469421%,76.078796%,74.508667%);fill-opacity:1;" d="M 378.742188 340.015625 L 326.230469 340.015625 L 326.230469 116.835938 L 313.101562 77.449219 L 326.230469 24.9375 L 378.742188 24.9375 L 391.871094 77.449219 L 378.742188 116.835938 L 378.742188 340.015625 "/>
<path style=" stroke:none;fill-rule:nonzero;fill:rgb(44.309998%,66.668701%,17.649841%);fill-opacity:1;" d="M 286.847656 340.015625 L 286.847656 392.527344 L 313.101562 392.527344 L 286.847656 445.042969 L 286.847656 681.347656 C 286.847656 717.605469 316.230469 746.992188 352.488281 746.992188 C 388.742188 746.992188 418.128906 717.605469 418.128906 681.347656 L 418.128906 445.042969 L 391.871094 392.527344 L 418.128906 392.527344 L 418.128906 340.015625 L 286.847656 340.015625 "/>
<g clip-path="url(#clip3)" clip-rule="nonzero">
<path style=" stroke:none;fill-rule:nonzero;fill:rgb(58.428955%,27.059937%,11.369324%);fill-opacity:1;" d="M 733.207031 786.375 L 76.792969 786.375 L 76.792969 445.042969 L 733.207031 445.042969 L 733.207031 786.375 "/>
</g>
<path style=" stroke:none;fill-rule:nonzero;fill:rgb(97.648621%,68.238831%,10.978699%);fill-opacity:1;" d="M 575.667969 445.042969 L 470.640625 445.042969 L 470.640625 24.9375 L 575.667969 24.9375 L 575.667969 445.042969 "/>
<path style=" stroke:none;fill-rule:nonzero;fill:rgb(96.078491%,46.669006%,14.509583%);fill-opacity:1;" d="M 523.152344 90.578125 L 470.640625 90.578125 L 470.640625 64.324219 L 523.152344 64.324219 L 523.152344 90.578125 "/>
<path style=" stroke:none;fill-rule:nonzero;fill:rgb(96.078491%,46.669006%,14.509583%);fill-opacity:1;" d="M 523.152344 143.09375 L 470.640625 143.09375 L 470.640625 116.835938 L 523.152344 116.835938 L 523.152344 143.09375 "/>
<path style=" stroke:none;fill-rule:nonzero;fill:rgb(96.078491%,46.669006%,14.509583%);fill-opacity:1;" d="M 523.152344 195.605469 L 470.640625 195.605469 L 470.640625 169.347656 L 523.152344 169.347656 L 523.152344 195.605469 "/>
<path style=" stroke:none;fill-rule:nonzero;fill:rgb(96.078491%,46.669006%,14.509583%);fill-opacity:1;" d="M 523.152344 248.117188 L 470.640625 248.117188 L 470.640625 221.859375 L 523.152344 221.859375 L 523.152344 248.117188 "/>
<path style=" stroke:none;fill-rule:nonzero;fill:rgb(96.078491%,46.669006%,14.509583%);fill-opacity:1;" d="M 523.152344 300.628906 L 470.640625 300.628906 L 470.640625 274.375 L 523.152344 274.375 L 523.152344 300.628906 "/>
<path style=" stroke:none;fill-rule:nonzero;fill:rgb(96.078491%,46.669006%,14.509583%);fill-opacity:1;" d="M 523.152344 353.144531 L 470.640625 353.144531 L 470.640625 326.886719 L 523.152344 326.886719 L 523.152344 353.144531 "/>
<path style=" stroke:none;fill-rule:nonzero;fill:rgb(96.078491%,46.669006%,14.509583%);fill-opacity:1;" d="M 523.152344 405.65625 L 470.640625 405.65625 L 470.640625 379.398438 L 523.152344 379.398438 L 523.152344 405.65625 "/>
<path style=" stroke:none;fill-rule:nonzero;fill:rgb(45.878601%,20.779419%,9.799194%);fill-opacity:1;" d="M 654.4375 90.578125 L 638.691406 129.964844 L 670.179688 129.964844 Z M 654.4375 90.578125 "/>
<path style=" stroke:none;fill-rule:nonzero;fill:rgb(87.449646%,20.779419%,23.919678%);fill-opacity:1;" d="M 638.691406 129.964844 L 628.179688 156.21875 L 628.179688 445.042969 L 680.691406 445.042969 L 680.691406 156.21875 L 670.179688 129.964844 L 638.691406 129.964844 "/>
<g clip-path="url(#clip4)" clip-rule="nonzero">
<path style=" stroke:none;fill-rule:nonzero;fill:rgb(54.508972%,25.099182%,10.978699%);fill-opacity:1;" d="M 76.792969 706.734375 L 76.792969 786.375 L 733.207031 786.375 L 733.207031 465.144531 C 483.257812 599.347656 237.359375 669.554688 76.792969 706.734375 "/>
</g>
<g clip-path="url(#clip5)" clip-rule="nonzero">
<path style=" stroke:none;fill-rule:nonzero;fill:rgb(45.878601%,20.779419%,9.799194%);fill-opacity:1;" d="M 103.050781 786.375 L 76.792969 786.375 L 76.792969 445.042969 L 103.050781 445.042969 L 103.050781 786.375 "/>
</g>
<g clip-path="url(#clip6)" clip-rule="nonzero">
<path style=" stroke:none;fill-rule:nonzero;fill:rgb(45.878601%,20.779419%,9.799194%);fill-opacity:1;" d="M 733.207031 786.375 L 706.949219 786.375 L 706.949219 445.042969 L 733.207031 445.042969 L 733.207031 786.375 "/>
</g>
<path style=" stroke:none;fill-rule:nonzero;fill:rgb(45.878601%,20.779419%,9.799194%);fill-opacity:1;" d="M 103.050781 287.503906 L 76.792969 287.503906 L 76.792969 234.988281 L 103.050781 234.988281 L 103.050781 287.503906 "/>
<path style=" stroke:none;fill-rule:nonzero;fill:rgb(45.878601%,20.779419%,9.799194%);fill-opacity:1;" d="M 733.207031 287.503906 L 706.949219 287.503906 L 706.949219 234.988281 L 733.207031 234.988281 L 733.207031 287.503906 "/>
</g>
</svg>
