<?xml version="1.0" encoding="UTF-8"?>
<svg xmlns="http://www.w3.org/2000/svg" xmlns:xlink="http://www.w3.org/1999/xlink" width="810pt" height="809.999993pt" viewBox="0 0 810 809.999993" version="1.2">
<defs>
<clipPath id="clip1">
  <path d="M 26.535156 26.535156 L 783.109375 26.535156 L 783.109375 783.109375 L 26.535156 783.109375 Z M 26.535156 26.535156 "/>
</clipPath>
</defs>
<g id="surface1">
<path style=" stroke:none;fill-rule:nonzero;fill:rgb(79.998779%,81.959534%,85.099792%);fill-opacity:1;" d="M 697.6875 233.980469 L 499.25 233.980469 C 488.382812 276.074219 450.296875 307.199219 404.820312 307.199219 C 359.347656 307.199219 321.261719 276.074219 310.394531 233.980469 L 111.953125 233.980469 C 84.972656 233.980469 63.144531 255.8125 63.144531 282.792969 L 63.144531 673.285156 L 746.5 673.285156 L 746.5 282.792969 C 746.5 255.8125 724.667969 233.980469 697.6875 233.980469 "/>
<path style=" stroke:none;fill-rule:nonzero;fill:rgb(58.81958%,62.348938%,66.668701%);fill-opacity:1;" d="M 87.546875 770.90625 C 60.570312 770.90625 38.738281 749.074219 38.738281 722.09375 L 38.738281 673.285156 L 770.90625 673.285156 L 770.90625 722.09375 C 770.90625 749.074219 749.074219 770.90625 722.09375 770.90625 L 87.546875 770.90625 "/>
<path style=" stroke:none;fill-rule:nonzero;fill:rgb(41.178894%,83.918762%,95.689392%);fill-opacity:1;" d="M 685.484375 282.792969 L 124.15625 282.792969 C 117.4375 282.792969 111.953125 288.273438 111.953125 294.996094 L 111.953125 612.269531 C 111.953125 618.992188 117.4375 624.472656 124.15625 624.472656 L 685.484375 624.472656 C 692.207031 624.472656 697.6875 618.992188 697.6875 612.269531 L 697.6875 294.996094 C 697.6875 288.273438 692.207031 282.792969 685.484375 282.792969 "/>
<path style=" stroke:none;fill-rule:nonzero;fill:rgb(70.588684%,86.669922%,49.798584%);fill-opacity:1;" d="M 343.808594 446.339844 C 351.625 459.113281 356.011719 474.128906 356.011719 490.242188 C 356.011719 537.480469 317.828125 575.660156 270.589844 575.660156 C 223.351562 575.660156 185.171875 537.480469 185.171875 490.242188 C 185.171875 443.003906 223.351562 404.820312 270.589844 404.820312 C 301.71875 404.820312 328.933594 421.410156 343.808594 446.339844 "/>
<path style=" stroke:none;fill-rule:nonzero;fill:rgb(100%,50.979614%,43.139648%);fill-opacity:1;" d="M 539.050781 404.820312 C 586.289062 404.820312 624.472656 443.003906 624.472656 490.242188 C 624.472656 537.480469 586.289062 575.660156 539.050781 575.660156 C 491.8125 575.660156 453.632812 537.480469 453.632812 490.242188 C 453.632812 443.003906 491.8125 404.820312 539.050781 404.820312 "/>
<path style=" stroke:none;fill-rule:nonzero;fill:rgb(98.81897%,84.309387%,43.919373%);fill-opacity:1;" d="M 453.632812 209.578125 C 453.632812 182.597656 431.800781 160.765625 404.820312 160.765625 C 377.84375 160.765625 356.011719 182.597656 356.011719 209.578125 C 356.011719 236.554688 377.84375 258.386719 404.820312 258.386719 C 431.800781 258.386719 453.632812 236.554688 453.632812 209.578125 Z M 404.820312 111.953125 C 458.734375 111.953125 502.445312 155.664062 502.445312 209.578125 C 502.445312 263.488281 458.734375 307.199219 404.820312 307.199219 C 350.910156 307.199219 307.199219 263.488281 307.199219 209.578125 C 307.199219 155.664062 350.910156 111.953125 404.820312 111.953125 "/>
<path style=" stroke:none;fill-rule:nonzero;fill:rgb(100%,78.039551%,16.079712%);fill-opacity:1;" d="M 502.445312 209.578125 C 502.445312 155.664062 458.734375 111.953125 404.820312 111.953125 C 350.910156 111.953125 307.199219 155.664062 307.199219 209.578125 C 307.199219 263.488281 350.910156 307.199219 404.820312 307.199219 C 458.734375 307.199219 502.445312 263.488281 502.445312 209.578125 Z M 575.660156 233.980469 L 575.660156 246.183594 L 544.4375 253.859375 C 541.863281 261.914062 538.574219 269.496094 534.761719 276.835938 L 538.574219 283.03125 L 551.492188 304.53125 L 499.773438 356.25 L 472.078125 339.566406 C 464.738281 343.332031 457.160156 346.621094 449.105469 349.195312 L 441.429688 380.414062 L 368.214844 380.414062 L 360.539062 349.195312 C 352.484375 346.621094 344.902344 343.332031 337.5625 339.566406 L 309.867188 356.25 L 258.148438 304.53125 L 271.066406 283.03125 L 274.878906 276.835938 C 271.066406 269.496094 267.777344 261.914062 265.203125 253.859375 L 233.980469 246.183594 L 233.980469 172.96875 L 265.203125 165.292969 C 267.777344 157.238281 271.066406 149.660156 274.878906 142.316406 L 258.148438 114.625 L 309.867188 62.90625 L 337.5625 79.589844 C 344.902344 75.824219 352.484375 72.535156 360.539062 69.960938 L 368.214844 38.738281 L 441.429688 38.738281 L 449.105469 69.960938 C 457.160156 72.535156 464.738281 75.824219 472.078125 79.589844 L 499.773438 62.90625 L 551.492188 114.625 L 534.761719 142.316406 C 538.574219 149.660156 541.863281 157.238281 544.4375 165.292969 L 575.660156 172.96875 L 575.660156 233.980469 "/>
<path style=" stroke:none;fill-rule:nonzero;fill:rgb(0%,0%,0%);fill-opacity:1;" d="M 404.820312 124.15625 C 451.917969 124.15625 490.242188 162.480469 490.242188 209.578125 C 490.242188 256.671875 451.917969 294.996094 404.820312 294.996094 C 357.726562 294.996094 319.402344 256.671875 319.402344 209.578125 C 319.402344 162.480469 357.726562 124.15625 404.820312 124.15625 Z M 404.820312 319.402344 C 465.359375 319.402344 514.648438 270.160156 514.648438 209.578125 C 514.648438 148.992188 465.359375 99.75 404.820312 99.75 C 344.285156 99.75 294.996094 148.992188 294.996094 209.578125 C 294.996094 270.160156 344.285156 319.402344 404.820312 319.402344 "/>
<path style=" stroke:none;fill-rule:nonzero;fill:rgb(0%,0%,0%);fill-opacity:1;" d="M 404.820312 172.96875 C 425.03125 172.96875 441.429688 189.367188 441.429688 209.578125 C 441.429688 229.789062 425.03125 246.183594 404.820312 246.183594 C 384.609375 246.183594 368.214844 229.789062 368.214844 209.578125 C 368.214844 189.367188 384.609375 172.96875 404.820312 172.96875 Z M 404.820312 270.589844 C 438.476562 270.589844 465.835938 243.230469 465.835938 209.578125 C 465.835938 175.921875 438.476562 148.5625 404.820312 148.5625 C 371.167969 148.5625 343.808594 175.921875 343.808594 209.578125 C 343.808594 243.230469 371.167969 270.589844 404.820312 270.589844 "/>
<g clip-path="url(#clip1)" clip-rule="nonzero">
<path style=" stroke:none;fill-rule:nonzero;fill:rgb(0%,0%,0%);fill-opacity:1;" d="M 758.703125 722.09375 C 758.703125 742.304688 742.304688 758.703125 722.09375 758.703125 L 87.546875 758.703125 C 67.335938 758.703125 50.941406 742.304688 50.941406 722.09375 L 50.941406 685.484375 L 758.703125 685.484375 Z M 75.347656 282.792969 C 75.347656 262.582031 91.742188 246.183594 111.953125 246.183594 L 221.78125 246.183594 L 221.78125 255.765625 L 255.863281 264.109375 C 256.671875 266.300781 257.671875 268.445312 258.578125 270.589844 L 124.15625 270.589844 C 110.714844 270.589844 99.75 281.554688 99.75 294.996094 L 99.75 612.269531 C 99.75 625.710938 110.714844 636.675781 124.15625 636.675781 L 685.484375 636.675781 C 698.929688 636.675781 709.890625 625.710938 709.890625 612.269531 L 709.890625 294.996094 C 709.890625 281.554688 698.929688 270.589844 685.484375 270.589844 L 551.066406 270.589844 C 551.96875 268.445312 552.972656 266.300781 553.78125 264.109375 L 587.863281 255.765625 L 587.863281 246.183594 L 697.6875 246.183594 C 717.898438 246.183594 734.296875 262.582031 734.296875 282.792969 L 734.296875 661.082031 L 75.347656 661.082031 Z M 308.058594 371.644531 L 338.136719 353.4375 C 342.140625 355.34375 346.191406 357.011719 350.289062 358.535156 L 358.632812 392.617188 L 451.011719 392.617188 L 459.351562 358.535156 C 463.40625 357.011719 467.503906 355.34375 471.507812 353.4375 L 501.585938 371.644531 L 566.890625 306.339844 L 560.027344 294.996094 L 685.484375 294.996094 L 685.484375 612.269531 L 124.15625 612.269531 L 124.15625 294.996094 L 249.617188 294.996094 L 242.753906 306.339844 Z M 246.183594 182.550781 L 274.785156 175.496094 L 276.882812 168.964844 C 279.074219 162.003906 282.078125 154.902344 285.703125 147.894531 L 288.847656 141.839844 L 273.546875 116.53125 L 311.773438 78.300781 L 337.085938 93.601562 L 343.140625 90.457031 C 350.148438 86.832031 357.25 83.832031 364.210938 81.636719 L 370.738281 79.589844 L 377.792969 50.941406 L 431.847656 50.941406 L 438.902344 79.589844 L 445.433594 81.636719 C 452.394531 83.832031 459.496094 86.832031 466.503906 90.457031 L 472.558594 93.601562 L 497.867188 78.300781 L 536.144531 116.53125 L 520.796875 141.839844 L 523.941406 147.894531 C 527.566406 154.902344 530.519531 161.957031 532.761719 168.964844 L 534.859375 175.496094 L 563.457031 182.550781 L 563.457031 236.605469 L 534.859375 243.660156 L 532.761719 250.1875 C 530.519531 257.195312 527.566406 264.25 523.941406 271.257812 L 520.796875 277.3125 L 536.144531 302.625 L 497.867188 340.851562 L 472.558594 325.550781 L 466.503906 328.695312 C 459.496094 332.320312 452.394531 335.324219 445.433594 337.515625 L 438.902344 339.566406 L 431.847656 368.214844 L 377.792969 368.214844 L 370.738281 339.613281 L 364.210938 337.515625 C 357.203125 335.324219 350.148438 332.320312 343.140625 328.695312 L 337.085938 325.550781 L 311.773438 340.851562 L 273.5 302.625 L 288.847656 277.3125 L 285.703125 271.257812 C 282.078125 264.25 279.125 257.195312 276.882812 250.1875 L 274.785156 243.660156 L 246.183594 236.605469 Z M 758.703125 661.082031 L 758.703125 282.792969 C 758.703125 249.140625 731.34375 221.78125 697.6875 221.78125 L 587.863281 221.78125 L 587.863281 163.386719 L 553.78125 155.046875 C 552.257812 150.992188 550.589844 146.894531 548.679688 142.890625 L 566.890625 112.8125 L 501.585938 47.507812 L 471.507812 65.71875 C 467.503906 63.808594 463.40625 62.140625 459.351562 60.617188 L 451.011719 26.535156 L 358.632812 26.535156 L 350.289062 60.617188 C 346.238281 62.140625 342.140625 63.808594 338.136719 65.71875 L 308.058594 47.507812 L 242.753906 112.8125 L 260.960938 142.890625 C 259.054688 146.894531 257.386719 150.992188 255.863281 155.046875 L 221.78125 163.386719 L 221.78125 221.78125 L 111.953125 221.78125 C 78.300781 221.78125 50.941406 249.140625 50.941406 282.792969 L 50.941406 661.082031 L 26.535156 661.082031 L 26.535156 722.09375 C 26.535156 755.746094 53.894531 783.109375 87.546875 783.109375 L 722.09375 783.109375 C 755.746094 783.109375 783.109375 755.746094 783.109375 722.09375 L 783.109375 661.082031 L 758.703125 661.082031 "/>
</g>
<path style=" stroke:none;fill-rule:nonzero;fill:rgb(0%,0%,0%);fill-opacity:1;" d="M 99.75 709.890625 L 75.347656 709.890625 L 75.347656 734.296875 L 99.75 734.296875 L 99.75 709.890625 "/>
<path style=" stroke:none;fill-rule:nonzero;fill:rgb(0%,0%,0%);fill-opacity:1;" d="M 148.5625 709.890625 L 124.15625 709.890625 L 124.15625 734.296875 L 148.5625 734.296875 L 148.5625 709.890625 "/>
<path style=" stroke:none;fill-rule:nonzero;fill:rgb(0%,0%,0%);fill-opacity:1;" d="M 197.375 709.890625 L 172.96875 709.890625 L 172.96875 734.296875 L 197.375 734.296875 L 197.375 709.890625 "/>
<path style=" stroke:none;fill-rule:nonzero;fill:rgb(0%,0%,0%);fill-opacity:1;" d="M 270.589844 417.023438 C 293.421875 417.023438 313.824219 427.511719 327.265625 443.957031 L 259.292969 498.296875 L 230.40625 469.410156 L 213.152344 486.667969 L 257.480469 530.996094 L 339.421875 465.453125 C 342.1875 473.222656 343.808594 481.519531 343.808594 490.242188 C 343.808594 530.617188 310.964844 563.457031 270.589844 563.457031 C 230.214844 563.457031 197.375 530.617188 197.375 490.242188 C 197.375 449.867188 230.214844 417.023438 270.589844 417.023438 Z M 172.96875 490.242188 C 172.96875 544.058594 216.773438 587.863281 270.589844 587.863281 C 324.40625 587.863281 368.214844 544.058594 368.214844 490.242188 C 368.214844 475.703125 364.925781 461.976562 359.25 449.582031 L 388.042969 426.558594 L 372.789062 407.492188 L 346.285156 428.703125 C 328.363281 406.726562 301.097656 392.617188 270.589844 392.617188 C 216.773438 392.617188 172.96875 436.425781 172.96875 490.242188 "/>
<path style=" stroke:none;fill-rule:nonzero;fill:rgb(0%,0%,0%);fill-opacity:1;" d="M 539.050781 417.023438 C 579.425781 417.023438 612.269531 449.867188 612.269531 490.242188 C 612.269531 530.617188 579.425781 563.457031 539.050781 563.457031 C 498.679688 563.457031 465.835938 530.617188 465.835938 490.242188 C 465.835938 449.867188 498.679688 417.023438 539.050781 417.023438 Z M 539.050781 587.863281 C 592.867188 587.863281 636.675781 544.058594 636.675781 490.242188 C 636.675781 436.425781 592.867188 392.617188 539.050781 392.617188 C 485.234375 392.617188 441.429688 436.425781 441.429688 490.242188 C 441.429688 544.058594 485.234375 587.863281 539.050781 587.863281 "/>
<path style=" stroke:none;fill-rule:nonzero;fill:rgb(0%,0%,0%);fill-opacity:1;" d="M 511.070312 535.476562 L 539.050781 507.496094 L 567.03125 535.476562 L 584.289062 518.222656 L 556.308594 490.242188 L 584.289062 462.261719 L 567.03125 445.003906 L 539.050781 472.984375 L 511.070312 445.003906 L 493.816406 462.261719 L 521.796875 490.242188 L 493.816406 518.222656 L 511.070312 535.476562 "/>
</g>
</svg>
