<?xml version="1.0" encoding="UTF-8"?>
<svg xmlns="http://www.w3.org/2000/svg" xmlns:xlink="http://www.w3.org/1999/xlink" width="810pt" height="809.999993pt" viewBox="0 0 810 809.999993" version="1.2">
<defs>
<clipPath id="clip1">
  <path d="M 30.609375 30.609375 L 778.828125 30.609375 L 778.828125 778.828125 L 30.609375 778.828125 Z M 30.609375 30.609375 "/>
</clipPath>
</defs>
<g id="surface1">
<path style=" stroke:none;fill-rule:nonzero;fill:rgb(56.079102%,74.899292%,14.898682%);fill-opacity:1;" d="M 766.355469 142.839844 L 666.59375 43.078125 L 43.078125 43.078125 L 43.078125 766.355469 L 766.355469 766.355469 Z M 766.355469 142.839844 "/>
<path style=" stroke:none;fill-rule:nonzero;fill:rgb(94.898987%,70.979309%,26.669312%);fill-opacity:1;" d="M 654.125 716.476562 L 716.476562 654.125 L 467.070312 404.71875 L 379.777344 379.777344 L 404.71875 467.070312 Z M 654.125 716.476562 "/>
<path style=" stroke:none;fill-rule:nonzero;fill:rgb(85.099792%,53.329468%,14.509583%);fill-opacity:1;" d="M 404.71875 467.070312 L 467.070312 404.71875 L 379.777344 379.777344 Z M 404.71875 467.070312 "/>
<g clip-path="url(#clip1)" clip-rule="nonzero">
<path style=" stroke:none;fill-rule:nonzero;fill:rgb(25.099182%,17.649841%,10.978699%);fill-opacity:1;" d="M 775.171875 134.023438 L 675.410156 34.261719 C 673.078125 31.917969 669.910156 30.609375 666.59375 30.609375 L 43.078125 30.609375 C 36.183594 30.609375 30.609375 36.195312 30.609375 43.078125 L 30.609375 766.355469 C 30.609375 773.238281 36.183594 778.828125 43.078125 778.828125 L 766.355469 778.828125 C 773.253906 778.828125 778.828125 773.238281 778.828125 766.355469 L 778.828125 142.839844 C 778.828125 139.535156 777.515625 136.355469 775.171875 134.023438 Z M 55.546875 753.886719 L 55.546875 55.546875 L 661.429688 55.546875 L 736.253906 130.371094 L 679.0625 130.371094 L 679.0625 92.960938 L 654.125 92.960938 L 654.125 142.839844 C 654.125 149.722656 659.699219 155.3125 666.59375 155.3125 L 753.886719 155.3125 L 753.886719 753.886719 Z M 55.546875 753.886719 "/>
</g>
<path style=" stroke:none;fill-rule:nonzero;fill:rgb(25.099182%,17.649841%,10.978699%);fill-opacity:1;" d="M 475.886719 395.902344 C 474.390625 394.402344 472.53125 393.308594 470.484375 392.734375 L 383.195312 367.792969 C 378.878906 366.546875 374.152344 367.753906 370.960938 370.960938 C 367.753906 374.164062 366.546875 378.839844 367.78125 383.207031 L 392.722656 470.5 C 393.308594 472.53125 394.402344 474.390625 395.902344 475.886719 L 645.308594 725.292969 C 647.738281 727.722656 650.929688 728.945312 654.125 728.945312 C 657.316406 728.945312 660.507812 727.722656 662.941406 725.292969 L 725.292969 662.941406 C 730.167969 658.0625 730.167969 650.183594 725.292969 645.308594 Z M 654.125 698.84375 L 415.828125 460.535156 L 397.933594 397.933594 L 460.546875 415.816406 L 648.960938 604.242188 L 620.367188 632.835938 L 638 650.46875 L 666.59375 621.875 L 698.84375 654.125 Z M 654.125 698.84375 "/>
<path style=" stroke:none;fill-rule:nonzero;fill:rgb(25.099182%,17.649841%,10.978699%);fill-opacity:1;" d="M 202.699219 410.054688 C 197.335938 408.546875 193.992188 405.476562 191.835938 400.078125 C 183.28125 378.730469 249.535156 319.082031 297.910156 275.550781 C 360.386719 219.308594 414.34375 170.75 413.273438 134.125 C 412.984375 123.8125 408.394531 114.84375 400.039062 108.148438 C 343.738281 63.082031 149.910156 172.097656 111.628906 194.40625 L 124.171875 215.964844 C 213.273438 164.078125 352.878906 102.4375 384.453125 127.640625 C 387.132812 129.773438 388.257812 131.867188 388.34375 134.859375 C 389.078125 159.9375 329.285156 213.773438 281.222656 257.019531 C 212.785156 318.621094 153.664062 371.832031 168.679688 409.355469 C 173.703125 421.925781 183.144531 430.480469 195.976562 434.074219 C 200.601562 435.371094 205.617188 435.96875 210.929688 435.96875 C 265.734375 435.96875 351.832031 372.679688 362.316406 364.8125 L 347.355469 344.859375 C 307.636719 374.613281 233.261719 418.570312 202.699219 410.054688 Z M 202.699219 410.054688 "/>
<path style=" stroke:none;fill-rule:nonzero;fill:rgb(25.099182%,17.649841%,10.978699%);fill-opacity:1;" d="M 180.25 704.003906 L 205.191406 704.003906 L 205.191406 728.945312 L 180.25 728.945312 Z M 180.25 704.003906 "/>
<path style=" stroke:none;fill-rule:nonzero;fill:rgb(25.099182%,17.649841%,10.978699%);fill-opacity:1;" d="M 130.371094 704.003906 L 155.3125 704.003906 L 155.3125 728.945312 L 130.371094 728.945312 Z M 130.371094 704.003906 "/>
<path style=" stroke:none;fill-rule:nonzero;fill:rgb(25.099182%,17.649841%,10.978699%);fill-opacity:1;" d="M 80.488281 704.003906 L 105.429688 704.003906 L 105.429688 728.945312 L 80.488281 728.945312 Z M 80.488281 704.003906 "/>
</g>
</svg>
