<?xml version="1.0" encoding="UTF-8"?>
<svg xmlns="http://www.w3.org/2000/svg" xmlns:xlink="http://www.w3.org/1999/xlink" width="810pt" height="809.999993pt" viewBox="0 0 810 809.999993" version="1.2">
<defs>
<clipPath id="clip1">
  <path d="M 64 640 L 379 640 L 379 784.113281 L 64 784.113281 Z M 64 640 "/>
</clipPath>
<clipPath id="clip2">
  <path d="M 195 25.371094 L 301 25.371094 L 301 131 L 195 131 Z M 195 25.371094 "/>
</clipPath>
<clipPath id="clip3">
  <path d="M 25.371094 600 L 366 600 L 366 654 L 25.371094 654 Z M 25.371094 600 "/>
</clipPath>
<clipPath id="clip4">
  <path d="M 365 640 L 784.113281 640 L 784.113281 784.113281 L 365 784.113281 Z M 365 640 "/>
</clipPath>
<clipPath id="clip5">
  <path d="M 287 496 L 784.113281 496 L 784.113281 654 L 287 654 Z M 287 496 "/>
</clipPath>
<clipPath id="clip6">
  <path d="M 417 705 L 784.113281 705 L 784.113281 732 L 417 732 Z M 417 705 "/>
</clipPath>
</defs>
<g id="surface1">
<path style=" stroke:none;fill-rule:nonzero;fill:rgb(41.958618%,46.269226%,53.729248%);fill-opacity:1;" d="M 470.152344 260.84375 C 465.347656 260.84375 460.75 258.183594 458.449219 253.636719 L 437.546875 211.785156 C 432.539062 201.769531 432.03125 190.066406 436.21875 179.644531 L 453.953125 135.238281 C 456.660156 128.542969 464.222656 125.273438 470.96875 127.929688 C 477.664062 130.636719 480.933594 138.253906 478.222656 144.945312 L 460.492188 189.351562 C 459.113281 192.828125 459.265625 196.761719 460.953125 200.082031 L 481.851562 241.882812 C 485.070312 248.375 482.464844 256.242188 476.027344 259.460938 C 474.136719 260.382812 472.144531 260.84375 470.152344 260.84375 "/>
<path style=" stroke:none;fill-rule:nonzero;fill:rgb(41.958618%,46.269226%,53.729248%);fill-opacity:1;" d="M 587.886719 195.433594 C 582.929688 195.433594 578.175781 192.570312 575.980469 187.71875 L 556.714844 145.152344 C 555.183594 141.777344 552.269531 139.222656 548.742188 138.097656 L 504.847656 124.351562 C 497.949219 122.15625 494.117188 114.847656 496.261719 107.949219 C 498.410156 101.050781 505.714844 97.167969 512.667969 99.363281 L 556.511719 113.109375 C 567.191406 116.433594 575.980469 124.199219 580.578125 134.367188 L 599.792969 176.984375 C 602.808594 183.578125 599.84375 191.292969 593.253906 194.257812 C 591.515625 195.074219 589.726562 195.433594 587.886719 195.433594 "/>
<g clip-path="url(#clip1)" clip-rule="nonzero">
<path style=" stroke:none;fill-rule:nonzero;fill:rgb(33.329773%,37.249756%,41.569519%);fill-opacity:1;" d="M 365.496094 705.621094 L 247.761719 705.621094 L 247.761719 653.296875 C 247.761719 646.089844 241.882812 640.214844 234.679688 640.214844 C 227.472656 640.214844 221.597656 646.089844 221.597656 653.296875 L 221.597656 705.621094 L 90.78125 705.621094 L 90.78125 653.296875 C 90.78125 646.089844 84.902344 640.214844 77.699219 640.214844 C 70.492188 640.214844 64.617188 646.089844 64.617188 653.296875 L 64.617188 771.03125 C 64.617188 778.238281 70.492188 784.113281 77.699219 784.113281 C 84.902344 784.113281 90.78125 778.238281 90.78125 771.03125 L 90.78125 731.785156 L 221.597656 731.785156 L 221.597656 771.03125 C 221.597656 778.238281 227.472656 784.113281 234.679688 784.113281 C 241.882812 784.113281 247.761719 778.238281 247.761719 771.03125 L 247.761719 731.785156 L 365.496094 731.785156 C 372.703125 731.785156 378.578125 725.910156 378.578125 718.703125 C 378.578125 711.5 372.703125 705.621094 365.496094 705.621094 "/>
</g>
<path style=" stroke:none;fill-rule:nonzero;fill:rgb(80.778503%,83.529663%,86.669922%);fill-opacity:1;" d="M 283.734375 39.730469 L 440.5625 60.679688 L 430.648438 138.148438 L 279.390625 119.292969 L 283.734375 39.730469 "/>
<path style=" stroke:none;fill-rule:nonzero;fill:rgb(67.83905%,70.979309%,76.858521%);fill-opacity:1;" d="M 522.476562 103.859375 C 522.476562 132.785156 499.074219 156.1875 470.152344 156.1875 C 441.226562 156.1875 417.824219 132.785156 417.824219 103.859375 C 417.824219 74.9375 441.226562 51.535156 470.152344 51.535156 C 499.074219 51.535156 522.476562 74.9375 522.476562 103.859375 "/>
<path style=" stroke:none;fill-rule:nonzero;fill:rgb(80.778503%,83.529663%,86.669922%);fill-opacity:1;" d="M 221.597656 600.96875 L 188.226562 339.589844 L 97.984375 339.589844 L 64.617188 600.96875 L 64.617188 614.050781 L 221.597656 614.050781 L 221.597656 600.96875 "/>
<path style=" stroke:none;fill-rule:nonzero;fill:rgb(80.778503%,83.529663%,86.669922%);fill-opacity:1;" d="M 192.828125 296.816406 L 251.695312 129.871094 L 196.863281 89.503906 L 196.863281 89.605469 L 110.914062 271.929688 L 192.828125 296.816406 "/>
<path style=" stroke:none;fill-rule:nonzero;fill:rgb(67.83905%,70.979309%,76.858521%);fill-opacity:1;" d="M 195.433594 313.167969 C 195.433594 342.09375 172.03125 365.496094 143.105469 365.496094 C 114.234375 365.496094 90.78125 342.09375 90.78125 313.167969 C 90.78125 284.246094 114.234375 260.84375 143.105469 260.84375 C 172.03125 260.84375 195.433594 284.246094 195.433594 313.167969 "/>
<g clip-path="url(#clip2)" clip-rule="nonzero">
<path style=" stroke:none;fill-rule:nonzero;fill:rgb(67.83905%,70.979309%,76.858521%);fill-opacity:1;" d="M 300.085938 77.699219 C 300.085938 106.621094 276.683594 130.023438 247.761719 130.023438 C 218.835938 130.023438 195.433594 106.621094 195.433594 77.699219 C 195.433594 48.773438 218.835938 25.371094 247.761719 25.371094 C 276.683594 25.371094 300.085938 48.773438 300.085938 77.699219 "/>
</g>
<g clip-path="url(#clip3)" clip-rule="nonzero">
<path style=" stroke:none;fill-rule:nonzero;fill:rgb(67.83905%,70.979309%,76.858521%);fill-opacity:1;" d="M 365.496094 653.296875 L 51.535156 653.296875 C 37.125 653.296875 25.371094 641.492188 25.371094 627.132812 C 25.371094 619.925781 28.230469 613.386719 33.085938 608.683594 C 37.789062 603.828125 44.328125 600.96875 51.535156 600.96875 L 300.085938 600.96875 L 365.496094 653.296875 "/>
</g>
<path style=" stroke:none;fill-rule:nonzero;fill:rgb(75.689697%,43.919373%,23.529053%);fill-opacity:1;" d="M 522.476562 522.476562 L 391.660156 522.476562 L 391.660156 378.578125 C 391.660156 371.375 397.535156 365.496094 404.742188 365.496094 L 509.394531 365.496094 C 516.601562 365.496094 522.476562 371.375 522.476562 378.578125 L 522.476562 522.476562 "/>
<path style=" stroke:none;fill-rule:nonzero;fill:rgb(75.689697%,43.919373%,23.529053%);fill-opacity:1;" d="M 705.621094 522.476562 L 574.804688 522.476562 L 574.804688 378.578125 C 574.804688 371.375 580.679688 365.496094 587.886719 365.496094 L 692.539062 365.496094 C 699.746094 365.496094 705.621094 371.375 705.621094 378.578125 L 705.621094 522.476562 "/>
<g clip-path="url(#clip4)" clip-rule="nonzero">
<path style=" stroke:none;fill-rule:nonzero;fill:rgb(30.589294%,34.118652%,39.219666%);fill-opacity:1;" d="M 784.113281 640.214844 L 784.113281 771.03125 C 784.113281 778.238281 778.238281 784.113281 771.03125 784.113281 L 378.578125 784.113281 C 371.375 784.113281 365.496094 778.238281 365.496094 771.03125 L 365.496094 640.214844 L 784.113281 640.214844 "/>
</g>
<g clip-path="url(#clip5)" clip-rule="nonzero">
<path style=" stroke:none;fill-rule:nonzero;fill:rgb(22.749329%,25.878906%,30.979919%);fill-opacity:1;" d="M 784.113281 653.296875 L 365.496094 653.296875 C 322.164062 653.296875 287.007812 618.136719 287.007812 574.804688 C 287.007812 531.472656 322.164062 496.3125 365.496094 496.3125 L 771.03125 496.3125 C 778.238281 496.3125 784.113281 502.191406 784.113281 509.394531 L 784.113281 653.296875 "/>
</g>
<path style=" stroke:none;fill-rule:nonzero;fill:rgb(33.329773%,37.249756%,41.569519%);fill-opacity:1;" d="M 404.742188 574.804688 C 404.742188 589.265625 393.039062 600.96875 378.578125 600.96875 C 364.117188 600.96875 352.414062 589.265625 352.414062 574.804688 C 352.414062 560.34375 364.117188 548.640625 378.578125 548.640625 C 393.039062 548.640625 404.742188 560.34375 404.742188 574.804688 "/>
<path style=" stroke:none;fill-rule:nonzero;fill:rgb(33.329773%,37.249756%,41.569519%);fill-opacity:1;" d="M 509.394531 574.804688 C 509.394531 589.265625 497.695312 600.96875 483.230469 600.96875 C 468.769531 600.96875 457.070312 589.265625 457.070312 574.804688 C 457.070312 560.34375 468.769531 548.640625 483.230469 548.640625 C 497.695312 548.640625 509.394531 560.34375 509.394531 574.804688 "/>
<path style=" stroke:none;fill-rule:nonzero;fill:rgb(33.329773%,37.249756%,41.569519%);fill-opacity:1;" d="M 614.050781 574.804688 C 614.050781 589.265625 602.347656 600.96875 587.886719 600.96875 C 573.425781 600.96875 561.722656 589.265625 561.722656 574.804688 C 561.722656 560.34375 573.425781 548.640625 587.886719 548.640625 C 602.347656 548.640625 614.050781 560.34375 614.050781 574.804688 "/>
<path style=" stroke:none;fill-rule:nonzero;fill:rgb(33.329773%,37.249756%,41.569519%);fill-opacity:1;" d="M 718.703125 574.804688 C 718.703125 589.265625 707.003906 600.96875 692.539062 600.96875 C 678.078125 600.96875 666.378906 589.265625 666.378906 574.804688 C 666.378906 560.34375 678.078125 548.640625 692.539062 548.640625 C 707.003906 548.640625 718.703125 560.34375 718.703125 574.804688 "/>
<path style=" stroke:none;fill-rule:nonzero;fill:rgb(92.549133%,93.728638%,94.509888%);fill-opacity:1;" d="M 103.859375 601.070312 C 103.859375 600.558594 103.859375 600.046875 103.964844 599.539062 L 121.390625 442.554688 C 122.15625 435.351562 128.746094 430.34375 135.851562 431.007812 C 143.003906 431.773438 148.164062 438.265625 147.398438 445.417969 L 130.128906 600.96875 L 103.859375 601.070312 "/>
<path style=" stroke:none;fill-rule:nonzero;fill:rgb(90.979004%,70.199585%,45.878601%);fill-opacity:1;" d="M 470.152344 365.496094 L 470.152344 404.742188 C 470.152344 411.945312 464.273438 417.824219 457.070312 417.824219 C 449.863281 417.824219 443.988281 411.945312 443.988281 404.742188 L 443.988281 365.496094 L 470.152344 365.496094 "/>
<path style=" stroke:none;fill-rule:nonzero;fill:rgb(90.979004%,70.199585%,45.878601%);fill-opacity:1;" d="M 653.296875 365.496094 L 653.296875 404.742188 C 653.296875 411.945312 647.417969 417.824219 640.214844 417.824219 C 633.007812 417.824219 627.132812 411.945312 627.132812 404.742188 L 627.132812 365.496094 L 653.296875 365.496094 "/>
<g clip-path="url(#clip6)" clip-rule="nonzero">
<path style=" stroke:none;fill-rule:nonzero;fill:rgb(33.329773%,37.249756%,41.569519%);fill-opacity:1;" d="M 784.113281 731.785156 L 430.90625 731.785156 C 423.699219 731.785156 417.824219 725.910156 417.824219 718.703125 C 417.824219 711.5 423.699219 705.621094 430.90625 705.621094 L 784.113281 705.621094 L 784.113281 731.785156 "/>
</g>
</g>
</svg>
