<?xml version="1.0" encoding="UTF-8"?>
<svg xmlns="http://www.w3.org/2000/svg" xmlns:xlink="http://www.w3.org/1999/xlink" width="810pt" height="809.999993pt" viewBox="0 0 810 809.999993" version="1.2">
<defs>
<clipPath id="clip1">
  <path d="M 585 109 L 777.851562 109 L 777.851562 777.851562 L 585 777.851562 Z M 585 109 "/>
</clipPath>
<clipPath id="clip2">
  <path d="M 405 111 L 586 111 L 586 777.851562 L 405 777.851562 Z M 405 111 "/>
</clipPath>
<clipPath id="clip3">
  <path d="M 225 109 L 410 109 L 410 777.851562 L 225 777.851562 Z M 225 109 "/>
</clipPath>
<clipPath id="clip4">
  <path d="M 32.351562 109 L 226 109 L 226 777.851562 L 32.351562 777.851562 Z M 32.351562 109 "/>
</clipPath>
<clipPath id="clip5">
  <path d="M 559 32.351562 L 714 32.351562 L 714 236 L 559 236 Z M 559 32.351562 "/>
</clipPath>
</defs>
<g id="surface1">
<g clip-path="url(#clip1)" clip-rule="nonzero">
<path style=" stroke:none;fill-rule:nonzero;fill:rgb(15.689087%,35.289001%,63.529968%);fill-opacity:1;" d="M 778.0625 109.496094 L 778.0625 700.921875 L 585.207031 778.0625 L 585.207031 186.636719 L 778.0625 109.496094 "/>
</g>
<g clip-path="url(#clip2)" clip-rule="nonzero">
<path style=" stroke:none;fill-rule:nonzero;fill:rgb(23.919678%,56.079102%,74.899292%);fill-opacity:1;" d="M 585.207031 186.636719 L 585.207031 778.0625 L 405.207031 700.921875 L 405.207031 122.351562 L 409.828125 111.554688 L 585.207031 186.636719 "/>
</g>
<g clip-path="url(#clip3)" clip-rule="nonzero">
<path style=" stroke:none;fill-rule:nonzero;fill:rgb(15.689087%,35.289001%,63.529968%);fill-opacity:1;" d="M 405.207031 122.351562 L 405.207031 700.921875 L 225.210938 778.0625 L 225.210938 186.636719 L 405.207031 109.496094 L 409.828125 111.554688 L 405.207031 122.351562 "/>
</g>
<g clip-path="url(#clip4)" clip-rule="nonzero">
<path style=" stroke:none;fill-rule:nonzero;fill:rgb(23.919678%,56.079102%,74.899292%);fill-opacity:1;" d="M 225.210938 726.636719 L 225.210938 778.0625 L 32.351562 700.921875 L 32.351562 109.496094 L 225.210938 186.636719 L 225.210938 726.636719 "/>
</g>
<path style=" stroke:none;fill-rule:nonzero;fill:rgb(67.83905%,11.759949%,25.099182%);fill-opacity:1;" d="M 238.066406 495.207031 C 238.066406 452.667969 203.464844 418.066406 160.925781 418.066406 C 118.386719 418.066406 83.78125 452.667969 83.78125 495.207031 C 83.78125 531.71875 109.296875 562.355469 143.394531 570.34375 L 160.925781 621.46875 L 178.453125 570.34375 C 212.554688 562.355469 238.066406 531.71875 238.066406 495.207031 "/>
<g clip-path="url(#clip5)" clip-rule="nonzero">
<path style=" stroke:none;fill-rule:nonzero;fill:rgb(67.83905%,11.759949%,25.099182%);fill-opacity:1;" d="M 713.777344 109.496094 C 713.777344 66.957031 679.175781 32.351562 636.636719 32.351562 C 594.097656 32.351562 559.492188 66.957031 559.492188 109.496094 C 559.492188 146.007812 585.007812 176.644531 619.109375 184.628906 L 636.636719 235.757812 L 654.164062 184.628906 C 688.265625 176.644531 713.777344 146.007812 713.777344 109.496094 "/>
</g>
<path style=" stroke:none;fill-rule:nonzero;fill:rgb(94.898987%,56.079102%,11.369324%);fill-opacity:1;" d="M 295.921875 700.921875 L 160.925781 700.921875 L 160.925781 675.207031 L 295.921875 675.207031 C 306.570312 675.207031 315.210938 666.570312 315.210938 655.921875 L 315.210938 565.921875 C 315.210938 541.113281 335.398438 520.921875 360.210938 520.921875 L 630.207031 520.921875 C 640.855469 520.921875 649.492188 512.285156 649.492188 501.636719 L 649.492188 475.921875 C 649.492188 465.277344 640.855469 456.636719 630.207031 456.636719 L 501.636719 456.636719 C 476.828125 456.636719 456.636719 436.449219 456.636719 411.636719 C 456.636719 400.988281 448 392.351562 437.351562 392.351562 L 283.066406 392.351562 C 258.257812 392.351562 238.066406 372.164062 238.066406 347.351562 L 238.066406 334.496094 C 238.066406 309.683594 258.257812 289.496094 283.066406 289.496094 L 636.636719 289.496094 L 636.636719 315.210938 L 283.066406 315.210938 C 272.417969 315.210938 263.78125 323.847656 263.78125 334.496094 L 263.78125 347.351562 C 263.78125 358 272.417969 366.636719 283.066406 366.636719 L 437.351562 366.636719 C 462.160156 366.636719 482.351562 386.828125 482.351562 411.636719 C 482.351562 422.285156 490.988281 430.921875 501.636719 430.921875 L 630.207031 430.921875 C 655.019531 430.921875 675.207031 451.113281 675.207031 475.921875 L 675.207031 501.636719 C 675.207031 526.445312 655.019531 546.636719 630.207031 546.636719 L 360.210938 546.636719 C 349.5625 546.636719 340.921875 555.273438 340.921875 565.921875 L 340.921875 655.921875 C 340.921875 680.730469 320.734375 700.921875 295.921875 700.921875 "/>
<path style=" stroke:none;fill-rule:nonzero;fill:rgb(87.059021%,38.42926%,12.159729%);fill-opacity:1;" d="M 662.351562 302.351562 C 662.351562 316.566406 650.847656 328.066406 636.636719 328.066406 C 622.421875 328.066406 610.921875 316.566406 610.921875 302.351562 C 610.921875 288.140625 622.421875 276.636719 636.636719 276.636719 C 650.847656 276.636719 662.351562 288.140625 662.351562 302.351562 "/>
<path style=" stroke:none;fill-rule:nonzero;fill:rgb(87.059021%,38.42926%,12.159729%);fill-opacity:1;" d="M 186.636719 688.066406 C 186.636719 702.277344 175.136719 713.777344 160.925781 713.777344 C 146.710938 713.777344 135.210938 702.277344 135.210938 688.066406 C 135.210938 673.851562 146.710938 662.351562 160.925781 662.351562 C 175.136719 662.351562 186.636719 673.851562 186.636719 688.066406 "/>
<path style=" stroke:none;fill-rule:nonzero;fill:rgb(93.328857%,13.328552%,26.269531%);fill-opacity:1;" d="M 186.636719 495.207031 C 186.636719 509.421875 175.136719 520.921875 160.925781 520.921875 C 146.710938 520.921875 135.210938 509.421875 135.210938 495.207031 C 135.210938 480.996094 146.710938 469.496094 160.925781 469.496094 C 175.136719 469.496094 186.636719 480.996094 186.636719 495.207031 "/>
<path style=" stroke:none;fill-rule:nonzero;fill:rgb(93.328857%,13.328552%,26.269531%);fill-opacity:1;" d="M 662.351562 109.496094 C 662.351562 123.710938 650.847656 135.210938 636.636719 135.210938 C 622.421875 135.210938 610.921875 123.710938 610.921875 109.496094 C 610.921875 95.28125 622.421875 83.78125 636.636719 83.78125 C 650.847656 83.78125 662.351562 95.28125 662.351562 109.496094 "/>
</g>
</svg>
