<?xml version="1.0" encoding="UTF-8"?>
<svg xmlns="http://www.w3.org/2000/svg" xmlns:xlink="http://www.w3.org/1999/xlink" width="810pt" height="809.999993pt" viewBox="0 0 810 809.999993" version="1.2">
<g id="surface1">
<path style=" stroke:none;fill-rule:nonzero;fill:rgb(28.62854%,70.979309%,76.858521%);fill-opacity:1;" d="M 298.910156 460.753906 C 272.570312 460.753906 251.21875 439.410156 251.21875 413.078125 C 251.21875 386.75 272.570312 365.402344 298.910156 365.402344 C 325.246094 365.402344 346.597656 386.75 346.597656 413.078125 C 346.597656 439.410156 325.246094 460.753906 298.910156 460.753906 M 425.433594 399.484375 L 425.132812 396.699219 L 396.324219 393.398438 C 395.496094 389.261719 394.417969 385.222656 393.113281 381.320312 L 416.398438 364.078125 L 415.257812 361.515625 C 411.601562 353.273438 407.035156 345.390625 401.683594 338.078125 L 400.03125 335.8125 L 373.453125 347.378906 C 370.703125 344.257812 367.746094 341.3125 364.628906 338.554688 L 376.195312 311.984375 L 373.933594 310.335938 C 366.621094 304.992188 358.730469 300.425781 350.488281 296.761719 L 347.921875 295.625 L 330.675781 318.902344 C 326.773438 317.597656 322.730469 316.523438 318.59375 315.695312 L 315.292969 286.890625 L 312.503906 286.597656 C 307.984375 286.117188 303.402344 285.867188 298.910156 285.867188 C 294.40625 285.867188 289.832031 286.117188 285.304688 286.597656 L 282.515625 286.890625 L 279.21875 315.695312 C 275.085938 316.523438 271.039062 317.597656 267.136719 318.902344 L 249.886719 295.625 L 247.328125 296.761719 C 239.078125 300.425781 231.195312 304.992188 223.882812 310.335938 L 221.621094 311.984375 L 233.183594 338.554688 C 230.070312 341.3125 227.113281 344.257812 224.363281 347.378906 L 197.785156 335.8125 L 196.128906 338.078125 C 190.78125 345.382812 186.214844 353.269531 182.558594 361.515625 L 181.417969 364.078125 L 204.703125 381.320312 C 203.398438 385.214844 202.320312 389.261719 201.496094 393.398438 L 172.675781 396.699219 L 172.382812 399.484375 C 171.902344 404.003906 171.660156 408.578125 171.660156 413.078125 C 171.660156 417.585938 171.902344 422.15625 172.382812 426.675781 L 172.675781 429.464844 L 201.496094 432.761719 C 202.320312 436.898438 203.398438 440.945312 204.703125 444.839844 L 181.417969 462.082031 L 182.558594 464.644531 C 186.214844 472.886719 190.78125 480.769531 196.128906 488.082031 L 197.785156 490.347656 L 224.363281 478.78125 C 227.113281 481.902344 230.070312 484.855469 233.183594 487.605469 L 221.621094 514.175781 L 223.878906 515.824219 C 231.195312 521.167969 239.078125 525.734375 247.328125 529.390625 L 249.886719 530.535156 L 267.136719 507.25 C 271.039062 508.5625 275.085938 509.636719 279.21875 510.46875 L 282.515625 539.269531 L 285.304688 539.5625 C 289.828125 540.042969 294.40625 540.285156 298.910156 540.285156 C 303.410156 540.285156 307.984375 540.042969 312.503906 539.5625 L 315.292969 539.269531 L 318.59375 510.46875 C 322.730469 509.636719 326.773438 508.5625 330.675781 507.25 L 347.921875 530.535156 L 350.488281 529.398438 C 358.730469 525.734375 366.617188 521.167969 373.933594 515.824219 L 376.195312 514.175781 L 364.628906 487.605469 C 367.746094 484.855469 370.703125 481.902344 373.453125 478.78125 L 400.03125 490.347656 L 401.683594 488.082031 C 407.035156 480.769531 411.601562 472.886719 415.257812 464.644531 L 416.398438 462.082031 L 393.113281 444.839844 C 394.417969 440.941406 395.496094 436.898438 396.324219 432.761719 L 425.132812 429.464844 L 425.433594 426.675781 C 425.914062 422.148438 426.15625 417.570312 426.15625 413.078125 C 426.15625 408.582031 425.914062 404.011719 425.433594 399.484375 "/>
<path style=" stroke:none;fill-rule:nonzero;fill:rgb(30.979919%,77.249146%,83.529663%);fill-opacity:1;" d="M 298.683594 466.710938 C 268.933594 466.710938 244.824219 442.601562 244.824219 412.859375 C 244.824219 383.117188 268.933594 359.007812 298.683594 359.007812 C 328.4375 359.007812 352.550781 383.117188 352.550781 412.859375 C 352.550781 442.601562 328.4375 466.710938 298.683594 466.710938 M 421.730469 426.085938 C 422.191406 421.742188 422.433594 417.328125 422.433594 412.859375 C 422.433594 408.390625 422.191406 403.980469 421.730469 399.632812 L 393.132812 396.359375 C 392.144531 390.664062 390.675781 385.132812 388.730469 379.824219 L 411.835938 362.71875 C 408.242188 354.625 403.804688 346.988281 398.636719 339.925781 L 372.261719 351.402344 C 368.597656 347.019531 364.550781 342.972656 360.167969 339.3125 L 371.644531 312.9375 C 364.574219 307.773438 356.941406 303.335938 348.84375 299.742188 L 331.734375 322.847656 C 326.425781 320.898438 320.890625 319.433594 315.191406 318.441406 L 311.917969 289.859375 C 307.566406 289.398438 303.15625 289.15625 298.683594 289.15625 C 294.214844 289.15625 289.800781 289.398438 285.457031 289.859375 L 282.183594 318.441406 C 276.484375 319.433594 270.949219 320.898438 265.640625 322.847656 L 248.527344 299.742188 C 240.4375 303.335938 232.800781 307.773438 225.726562 312.9375 L 237.207031 339.3125 C 232.824219 342.972656 228.777344 347.019531 225.113281 351.402344 L 198.738281 339.925781 C 193.570312 346.988281 189.132812 354.625 185.539062 362.71875 L 208.644531 379.824219 C 206.695312 385.132812 205.230469 390.664062 204.238281 396.359375 L 175.644531 399.632812 C 175.183594 403.980469 174.941406 408.390625 174.941406 412.859375 C 174.941406 417.328125 175.183594 421.742188 175.644531 426.085938 L 204.238281 429.359375 C 205.230469 435.058594 206.695312 440.585938 208.644531 445.894531 L 185.539062 463.003906 C 189.132812 471.097656 193.570312 478.730469 198.738281 485.796875 L 225.113281 474.320312 C 228.777344 478.703125 232.824219 482.746094 237.207031 486.410156 L 225.726562 512.78125 C 232.800781 517.945312 240.4375 522.382812 248.527344 525.976562 L 265.640625 502.871094 C 270.949219 504.820312 276.484375 506.285156 282.183594 507.277344 L 285.457031 535.863281 C 289.800781 536.328125 294.214844 536.566406 298.683594 536.566406 C 303.15625 536.566406 307.566406 536.328125 311.917969 535.863281 L 315.191406 507.277344 C 320.890625 506.285156 326.425781 504.820312 331.734375 502.871094 L 348.84375 525.976562 C 356.941406 522.382812 364.574219 517.945312 371.644531 512.78125 L 360.167969 486.410156 C 364.550781 482.746094 368.597656 478.703125 372.261719 474.320312 L 398.636719 485.796875 C 403.804688 478.730469 408.242188 471.097656 411.835938 463.003906 L 388.730469 445.894531 C 390.675781 440.585938 392.144531 435.058594 393.132812 429.359375 L 421.730469 426.085938 "/>
<path style=" stroke:none;fill-rule:nonzero;fill:rgb(70.979309%,84.309387%,83.139038%);fill-opacity:1;" d="M 298.875 540.292969 C 296.632812 540.292969 294.359375 540.226562 292.089844 540.105469 C 294.359375 540.226562 296.625 540.285156 298.875 540.285156 L 298.875 540.292969 M 249.894531 530.535156 L 249.894531 530.53125 L 267.136719 507.25 C 267.136719 507.25 267.136719 507.25 267.144531 507.25 L 249.894531 530.535156 M 249.003906 530.140625 L 247.324219 529.398438 C 246.371094 528.96875 245.410156 528.527344 244.464844 528.082031 C 245.410156 528.527344 246.371094 528.96875 247.328125 529.390625 L 249.003906 530.140625 M 229.890625 519.960938 C 227.847656 518.636719 225.839844 517.261719 223.878906 515.824219 L 223.148438 515.289062 L 223.878906 515.824219 C 225.847656 517.261719 227.847656 518.636719 229.890625 519.960938 M 221.621094 514.167969 L 233.183594 487.605469 C 230.070312 484.855469 227.113281 481.902344 224.359375 478.789062 L 197.785156 490.347656 L 197.785156 490.339844 L 224.363281 478.78125 C 227.113281 481.902344 230.070312 484.855469 233.183594 487.605469 L 221.621094 514.167969 M 274.898438 509.5 L 274.894531 509.5 L 274.898438 509.5 M 274.875 509.496094 C 272.847656 508.996094 270.851562 508.441406 268.886719 507.820312 C 270.851562 508.441406 272.847656 508.996094 274.875 509.496094 M 268.84375 507.808594 C 268.824219 507.800781 268.8125 507.792969 268.792969 507.792969 C 268.8125 507.792969 268.824219 507.800781 268.84375 507.808594 M 196.179688 488.148438 L 196.136719 488.082031 C 190.78125 480.777344 186.214844 472.886719 182.558594 464.644531 L 182.21875 463.878906 L 182.558594 464.644531 C 186.214844 472.886719 190.78125 480.769531 196.128906 488.082031 L 196.179688 488.148438 M 183.492188 430.703125 L 172.671875 429.464844 L 172.53125 428.074219 L 172.675781 429.464844 L 183.492188 430.703125 M 172.523438 398.140625 L 172.671875 396.699219 L 172.675781 396.699219 L 172.523438 398.140625 M 204.703125 381.320312 L 181.417969 364.085938 L 204.703125 381.320312 M 182.878906 360.800781 C 185.53125 354.910156 188.652344 349.214844 192.1875 343.785156 C 188.652344 349.214844 185.539062 354.910156 182.878906 360.800781 M 224.363281 347.378906 L 197.785156 335.8125 L 224.359375 347.378906 C 224.691406 347.003906 225.023438 346.636719 225.355469 346.265625 C 225.023438 346.636719 224.691406 347.003906 224.363281 347.378906 M 231.867188 339.738281 C 232.300781 339.34375 232.742188 338.945312 233.183594 338.554688 L 221.621094 311.992188 L 233.183594 338.554688 C 232.742188 338.945312 232.300781 339.34375 231.867188 339.738281 M 267.136719 318.902344 L 249.894531 295.632812 L 267.136719 318.902344 M 282.523438 286.890625 L 282.523438 286.886719 L 285.3125 286.589844 C 288.242188 286.277344 291.195312 286.066406 294.132812 285.957031 C 291.195312 286.074219 288.242188 286.285156 285.304688 286.597656 L 282.523438 286.890625 "/>
<path style=" stroke:none;fill-rule:nonzero;fill:rgb(20.779419%,66.268921%,71.369934%);fill-opacity:1;" d="M 298.875 540.285156 C 296.625 540.285156 294.359375 540.226562 292.089844 540.105469 C 289.828125 539.984375 287.5625 539.800781 285.3125 539.5625 L 282.523438 539.261719 L 279.222656 510.46875 C 277.765625 510.171875 276.328125 509.851562 274.898438 509.5 L 274.894531 509.5 C 274.886719 509.5 274.882812 509.496094 274.875 509.496094 C 272.847656 508.996094 270.851562 508.441406 268.886719 507.820312 C 268.871094 507.8125 268.855469 507.808594 268.84375 507.808594 C 268.824219 507.800781 268.8125 507.792969 268.792969 507.792969 C 268.242188 507.617188 267.6875 507.4375 267.144531 507.25 C 267.136719 507.25 267.136719 507.25 267.136719 507.25 L 249.894531 530.53125 L 249.003906 530.140625 L 247.328125 529.390625 C 246.371094 528.96875 245.410156 528.527344 244.464844 528.082031 C 239.445312 525.695312 234.570312 522.984375 229.890625 519.960938 C 227.847656 518.636719 225.847656 517.261719 223.878906 515.824219 L 223.148438 515.289062 L 221.621094 514.167969 L 233.183594 487.605469 C 230.070312 484.855469 227.113281 481.902344 224.363281 478.78125 L 197.785156 490.339844 L 196.179688 488.148438 L 196.128906 488.082031 C 190.78125 480.769531 186.214844 472.886719 182.558594 464.644531 L 182.21875 463.878906 L 181.417969 462.082031 L 204.703125 444.839844 C 203.398438 440.941406 202.320312 436.898438 201.496094 432.761719 L 183.492188 430.703125 L 172.675781 429.464844 L 172.53125 428.074219 L 172.390625 426.675781 C 171.910156 422.148438 171.660156 417.585938 171.660156 413.078125 C 171.660156 408.582031 171.910156 404 172.390625 399.480469 L 172.523438 398.140625 L 172.675781 396.699219 L 201.496094 393.40625 C 202.320312 389.269531 203.398438 385.214844 204.703125 381.328125 L 204.703125 381.320312 L 181.417969 364.085938 L 182.558594 361.515625 C 182.660156 361.277344 182.769531 361.035156 182.878906 360.800781 C 185.539062 354.910156 188.652344 349.214844 192.1875 343.785156 C 193.449219 341.847656 194.765625 339.945312 196.136719 338.078125 L 197.785156 335.8125 L 224.363281 347.378906 C 224.691406 347.003906 225.023438 346.636719 225.355469 346.265625 C 227.425781 343.996094 229.601562 341.816406 231.867188 339.738281 C 232.300781 339.34375 232.742188 338.945312 233.183594 338.554688 L 221.621094 311.992188 L 223.878906 310.34375 C 231.195312 304.992188 239.085938 300.421875 247.324219 296.769531 L 249.894531 295.632812 L 267.136719 318.902344 L 267.144531 318.910156 C 271.03125 317.597656 275.085938 316.523438 279.222656 315.699219 L 282.523438 286.890625 L 285.304688 286.597656 C 288.242188 286.285156 291.195312 286.074219 294.132812 285.957031 C 295.71875 285.90625 297.304688 285.875 298.875 285.875 L 298.875 289.15625 C 298.8125 289.15625 298.75 289.15625 298.683594 289.15625 C 294.214844 289.15625 289.800781 289.398438 285.457031 289.859375 L 282.183594 318.441406 C 276.484375 319.433594 270.949219 320.898438 265.640625 322.847656 L 248.527344 299.742188 C 240.4375 303.335938 232.800781 307.773438 225.726562 312.9375 L 237.207031 339.3125 C 232.824219 342.972656 228.777344 347.019531 225.113281 351.402344 L 198.738281 339.925781 C 193.570312 346.988281 189.132812 354.625 185.539062 362.71875 L 208.644531 379.824219 C 206.695312 385.132812 205.230469 390.664062 204.238281 396.359375 L 175.644531 399.632812 C 175.183594 403.980469 174.941406 408.390625 174.941406 412.859375 C 174.941406 417.328125 175.183594 421.742188 175.644531 426.085938 L 204.238281 429.359375 C 205.230469 435.058594 206.695312 440.585938 208.644531 445.894531 L 185.539062 463.003906 C 189.132812 471.097656 193.570312 478.730469 198.738281 485.796875 L 225.113281 474.320312 C 228.777344 478.703125 232.824219 482.746094 237.207031 486.410156 L 225.726562 512.78125 C 232.800781 517.945312 240.4375 522.382812 248.527344 525.976562 L 265.640625 502.871094 C 270.949219 504.820312 276.484375 506.285156 282.183594 507.277344 L 285.457031 535.863281 C 289.800781 536.328125 294.214844 536.566406 298.683594 536.566406 C 298.75 536.566406 298.8125 536.566406 298.875 536.566406 L 298.875 540.292969 M 298.683594 466.710938 C 268.933594 466.710938 244.824219 442.601562 244.824219 412.859375 C 244.824219 383.117188 268.933594 359.007812 298.683594 359.007812 C 298.75 359.007812 298.8125 359.007812 298.875 359.007812 L 298.875 364.660156 C 272.144531 364.679688 250.476562 386.347656 250.476562 413.078125 C 250.476562 439.808594 272.144531 461.480469 298.875 461.492188 L 298.875 466.710938 C 298.8125 466.710938 298.75 466.710938 298.683594 466.710938 "/>
<path style=" stroke:none;fill-rule:nonzero;fill:rgb(22.349548%,72.549438%,77.648926%);fill-opacity:1;" d="M 298.683594 536.566406 C 294.214844 536.566406 289.800781 536.328125 285.457031 535.863281 L 282.183594 507.277344 C 276.484375 506.285156 270.949219 504.820312 265.640625 502.871094 L 248.527344 525.976562 C 240.4375 522.382812 232.800781 517.945312 225.726562 512.78125 L 237.207031 486.410156 C 232.824219 482.746094 228.777344 478.703125 225.113281 474.320312 L 198.738281 485.796875 C 193.570312 478.730469 189.132812 471.097656 185.539062 463.003906 L 208.644531 445.894531 C 206.695312 440.585938 205.230469 435.058594 204.238281 429.359375 L 175.644531 426.085938 C 175.183594 421.742188 174.941406 417.328125 174.941406 412.859375 C 174.941406 408.390625 175.183594 403.980469 175.644531 399.632812 L 204.238281 396.359375 C 205.230469 390.664062 206.695312 385.132812 208.644531 379.824219 L 185.539062 362.71875 C 189.132812 354.625 193.570312 346.988281 198.738281 339.925781 L 225.113281 351.402344 C 228.777344 347.019531 232.824219 342.972656 237.207031 339.3125 L 225.726562 312.9375 C 232.800781 307.773438 240.4375 303.335938 248.527344 299.742188 L 265.640625 322.847656 C 270.949219 320.898438 276.484375 319.433594 282.183594 318.441406 L 285.457031 289.859375 C 289.800781 289.398438 294.214844 289.15625 298.683594 289.15625 C 298.75 289.15625 298.8125 289.15625 298.875 289.15625 L 298.875 359.007812 C 298.8125 359.007812 298.75 359.007812 298.683594 359.007812 C 268.933594 359.007812 244.824219 383.117188 244.824219 412.859375 C 244.824219 442.601562 268.933594 466.710938 298.683594 466.710938 C 298.75 466.710938 298.8125 466.710938 298.875 466.710938 L 298.875 536.566406 C 298.8125 536.566406 298.75 536.566406 298.683594 536.566406 "/>
<path style=" stroke:none;fill-rule:nonzero;fill:rgb(28.62854%,70.979309%,76.858521%);fill-opacity:1;" d="M 426.15625 413.078125 C 426.15625 417.570312 425.90625 422.148438 425.429688 426.675781 L 425.128906 429.464844 L 422.660156 429.75 L 422.660156 396.417969 L 425.128906 396.699219 L 425.429688 399.480469 C 425.90625 404.011719 426.15625 408.582031 426.15625 413.078125 "/>
<path style=" stroke:none;fill-rule:nonzero;fill:rgb(28.62854%,70.979309%,76.858521%);fill-opacity:1;" d="M 472.886719 255.777344 C 461.804688 267.882812 442.996094 268.714844 430.882812 257.636719 C 418.769531 246.550781 417.9375 227.746094 429.027344 215.636719 C 440.117188 203.53125 458.921875 202.699219 471.03125 213.785156 C 483.144531 224.863281 483.976562 243.667969 472.886719 255.777344 M 497.96875 171.820312 L 496.5625 170.777344 L 482.914062 182.636719 C 480.664062 181.273438 478.347656 180.070312 476.007812 179.03125 L 477.875 161.066406 L 476.21875 160.507812 C 470.886719 158.726562 465.335938 157.503906 459.71875 156.882812 L 457.988281 156.691406 L 452.117188 173.773438 C 449.527344 173.730469 446.921875 173.84375 444.34375 174.121094 L 436.992188 157.617188 L 435.277344 157.957031 C 429.738281 159.070312 424.320312 160.777344 419.167969 163.027344 L 417.5625 163.722656 L 421.007812 181.460938 C 418.765625 182.699219 416.570312 184.105469 414.445312 185.660156 L 399.808594 175.054688 L 398.496094 176.210938 C 396.375 178.082031 394.332031 180.085938 392.441406 182.15625 C 390.542969 184.222656 388.730469 186.425781 387.050781 188.710938 L 386.007812 190.121094 L 397.871094 203.765625 C 396.507812 206.011719 395.300781 208.324219 394.261719 210.671875 L 376.292969 208.796875 L 375.734375 210.453125 C 373.945312 215.785156 372.730469 221.335938 372.109375 226.949219 L 371.917969 228.679688 L 389.007812 234.550781 C 388.960938 237.144531 389.078125 239.746094 389.351562 242.316406 L 372.84375 249.671875 L 373.191406 251.382812 C 374.296875 256.921875 376.003906 262.335938 378.253906 267.496094 L 378.953125 269.09375 L 396.6875 265.648438 C 397.933594 267.890625 399.339844 270.089844 400.894531 272.207031 L 390.277344 286.839844 L 391.441406 288.152344 C 393.316406 290.28125 395.320312 292.3125 397.390625 294.210938 C 399.460938 296.105469 401.667969 297.921875 403.953125 299.601562 L 405.351562 300.636719 L 419 288.777344 C 421.25 290.140625 423.566406 291.347656 425.914062 292.390625 L 424.039062 310.347656 L 425.695312 310.90625 C 431.03125 312.695312 436.582031 313.917969 442.195312 314.535156 L 443.929688 314.730469 L 449.800781 297.640625 C 452.398438 297.683594 454.992188 297.574219 457.570312 297.300781 L 464.925781 313.800781 L 466.640625 313.457031 C 472.179688 312.34375 477.601562 310.636719 482.753906 308.386719 L 484.355469 307.691406 L 480.90625 289.960938 C 483.152344 288.714844 485.351562 287.308594 487.46875 285.753906 L 502.113281 296.367188 L 503.417969 295.210938 C 505.550781 293.332031 507.582031 291.328125 509.480469 289.265625 C 511.375 287.191406 513.191406 284.988281 514.875 282.703125 L 515.910156 281.296875 L 504.046875 267.65625 C 505.40625 265.402344 506.617188 263.089844 507.660156 260.75 L 525.625 262.617188 L 526.179688 260.960938 C 527.972656 255.636719 529.191406 250.085938 529.8125 244.472656 L 530.003906 242.734375 L 512.910156 236.863281 C 512.960938 234.273438 512.847656 231.671875 512.566406 229.097656 L 529.078125 221.742188 L 528.730469 220.03125 C 527.621094 214.492188 525.910156 209.078125 523.660156 203.925781 L 522.964844 202.320312 L 505.230469 205.765625 C 503.980469 203.523438 502.574219 201.328125 501.027344 199.207031 L 511.636719 184.574219 L 510.480469 183.261719 C 508.597656 181.132812 506.597656 179.09375 504.53125 177.207031 C 502.460938 175.316406 500.253906 173.5 497.96875 171.820312 "/>
<path style=" stroke:none;fill-rule:nonzero;fill:rgb(30.979919%,77.249146%,83.529663%);fill-opacity:1;" d="M 475.535156 258.382812 C 463.011719 272.066406 441.769531 273 428.089844 260.480469 C 414.410156 247.964844 413.46875 226.722656 425.992188 213.050781 C 438.511719 199.367188 459.757812 198.433594 473.445312 210.953125 C 487.125 223.46875 488.0625 244.707031 475.535156 258.382812 M 508.644531 184.714844 C 506.839844 182.675781 504.914062 180.707031 502.863281 178.824219 C 500.804688 176.945312 498.675781 175.199219 496.480469 173.582031 L 482.933594 185.347656 C 479.898438 183.402344 476.738281 181.746094 473.476562 180.410156 L 475.332031 162.585938 C 470.09375 160.828125 464.714844 159.660156 459.292969 159.058594 L 453.464844 176.019531 C 449.902344 175.859375 446.339844 176.011719 442.808594 176.484375 L 435.511719 160.113281 C 430.160156 161.1875 424.902344 162.828125 419.84375 165.035156 L 423.265625 182.628906 C 420.140625 184.246094 417.132812 186.179688 414.273438 188.378906 L 399.75 177.855469 C 397.703125 179.65625 395.734375 181.582031 393.855469 183.640625 C 391.972656 185.691406 390.226562 187.820312 388.609375 190.015625 L 400.382812 203.554688 C 398.4375 206.589844 396.78125 209.757812 395.441406 213.015625 L 377.609375 211.15625 C 375.855469 216.394531 374.679688 221.769531 374.085938 227.199219 L 391.046875 233.023438 C 390.886719 236.578125 391.046875 240.136719 391.511719 243.667969 L 375.132812 250.960938 C 376.210938 256.3125 377.851562 261.566406 380.058594 266.625 L 397.660156 263.203125 C 399.285156 266.335938 401.207031 269.34375 403.414062 272.195312 L 392.882812 286.71875 C 394.683594 288.757812 396.617188 290.726562 398.667969 292.609375 C 400.722656 294.488281 402.859375 296.234375 405.050781 297.851562 L 418.589844 286.085938 C 421.628906 288.03125 424.792969 289.6875 428.054688 291.023438 L 426.203125 308.847656 C 431.433594 310.605469 436.8125 311.773438 442.242188 312.375 L 448.066406 295.414062 C 451.625 295.574219 455.191406 295.421875 458.714844 294.949219 L 466.019531 311.320312 C 471.371094 310.253906 476.621094 308.605469 481.6875 306.398438 L 478.265625 288.804688 C 481.394531 287.1875 484.398438 285.253906 487.25 283.050781 L 501.78125 293.578125 C 503.820312 291.777344 505.792969 289.851562 507.671875 287.792969 C 509.558594 285.742188 511.304688 283.613281 512.921875 281.417969 L 501.148438 267.878906 C 503.09375 264.839844 504.75 261.675781 506.085938 258.417969 L 523.917969 260.277344 C 525.675781 255.039062 526.84375 249.664062 527.445312 244.242188 L 510.484375 238.410156 C 510.644531 234.855469 510.484375 231.296875 510.011719 227.765625 L 526.398438 220.472656 C 525.324219 215.121094 523.679688 209.863281 521.46875 204.808594 L 503.867188 208.226562 C 502.25 205.097656 500.316406 202.097656 498.117188 199.238281 L 508.644531 184.714844 "/>
<path style=" stroke:none;fill-rule:nonzero;fill:rgb(70.979309%,84.309387%,83.139038%);fill-opacity:1;" d="M 443.9375 314.730469 L 443.9375 314.722656 L 449.800781 297.640625 C 450.179688 297.644531 450.5625 297.652344 450.9375 297.652344 C 453.152344 297.652344 455.371094 297.53125 457.570312 297.300781 L 464.925781 313.800781 L 457.578125 297.300781 C 455.351562 297.535156 453.113281 297.652344 450.875 297.652344 C 450.515625 297.652344 450.160156 297.652344 449.808594 297.644531 L 443.9375 314.730469 M 442.476562 314.570312 L 442.195312 314.535156 C 436.582031 313.917969 431.03125 312.695312 425.695312 310.910156 L 425.273438 310.765625 L 425.695312 310.90625 C 431.03125 312.695312 436.582031 313.917969 442.195312 314.535156 L 442.476562 314.570312 M 465.980469 313.585938 L 466.640625 313.457031 C 468.25 313.128906 469.851562 312.757812 471.441406 312.335938 C 469.851562 312.757812 468.25 313.128906 466.640625 313.457031 L 465.980469 313.585938 M 480.90625 309.167969 C 481.527344 308.917969 482.140625 308.65625 482.753906 308.386719 L 483.816406 307.925781 L 482.753906 308.394531 C 482.140625 308.65625 481.527344 308.917969 480.90625 309.167969 M 484.355469 307.691406 L 480.90625 289.960938 L 484.359375 307.691406 L 484.355469 307.691406 M 405.351562 300.644531 L 404.675781 300.132812 L 405.351562 300.636719 L 412.226562 294.667969 L 405.351562 300.644531 M 506.695312 292.152344 C 507.648438 291.214844 508.574219 290.25 509.46875 289.277344 C 508.574219 290.25 507.648438 291.214844 506.695312 292.152344 M 481.644531 289.546875 C 481.648438 289.546875 481.648438 289.546875 481.648438 289.539062 C 481.648438 289.546875 481.648438 289.546875 481.644531 289.546875 M 481.746094 289.488281 C 482.75 288.914062 483.734375 288.304688 484.707031 287.664062 C 483.734375 288.304688 482.75 288.914062 481.746094 289.488281 M 390.878906 287.519531 L 390.277344 286.847656 L 390.285156 286.847656 L 390.878906 287.519531 M 378.960938 269.097656 L 378.960938 269.09375 L 396.6875 265.648438 C 396.695312 265.648438 396.695312 265.648438 396.695312 265.648438 L 378.960938 269.097656 M 378.039062 266.996094 C 376.464844 263.328125 375.167969 259.523438 374.164062 255.640625 C 375.167969 259.523438 376.464844 263.328125 378.039062 266.996094 M 372.84375 249.671875 L 389.351562 242.316406 C 389.3125 242.003906 389.289062 241.683594 389.253906 241.371094 C 389.289062 241.683594 389.3125 242.003906 389.351562 242.316406 L 372.84375 249.671875 M 389 235.898438 C 388.992188 235.453125 389 235.003906 389.007812 234.554688 L 371.917969 228.6875 L 371.917969 228.679688 L 389.007812 234.550781 C 389 234.996094 388.992188 235.453125 389 235.898438 M 394.261719 210.671875 L 376.292969 208.796875 L 394.261719 210.671875 M 386.007812 190.117188 L 387.050781 188.710938 C 388.128906 187.238281 389.273438 185.792969 390.457031 184.402344 C 389.273438 185.792969 388.136719 187.238281 387.050781 188.710938 L 386.007812 190.117188 "/>
<path style=" stroke:none;fill-rule:nonzero;fill:rgb(20.779419%,66.268921%,71.369934%);fill-opacity:1;" d="M 443.9375 314.722656 L 442.476562 314.570312 L 442.195312 314.535156 C 436.582031 313.917969 431.03125 312.695312 425.695312 310.90625 L 425.273438 310.765625 L 424.039062 310.347656 L 425.914062 292.390625 C 423.566406 291.347656 421.257812 290.140625 419 288.777344 L 412.226562 294.667969 L 405.351562 300.636719 L 404.675781 300.132812 L 403.953125 299.59375 C 401.667969 297.914062 399.460938 296.105469 397.390625 294.207031 C 395.320312 292.3125 393.316406 290.273438 391.4375 288.144531 L 390.878906 287.519531 L 390.285156 286.847656 L 400.894531 272.214844 C 399.339844 270.089844 397.929688 267.882812 396.695312 265.648438 C 396.695312 265.648438 396.695312 265.648438 396.6875 265.648438 L 378.960938 269.09375 L 378.253906 267.496094 C 378.183594 267.328125 378.113281 267.164062 378.039062 266.996094 C 376.464844 263.328125 375.167969 259.523438 374.164062 255.640625 C 373.796875 254.226562 373.472656 252.808594 373.191406 251.382812 L 372.84375 249.671875 L 389.351562 242.316406 C 389.3125 242.003906 389.289062 241.683594 389.253906 241.371094 C 389.089844 239.550781 389.007812 237.722656 389 235.898438 C 388.992188 235.453125 389 234.996094 389.007812 234.550781 L 371.917969 228.679688 L 372.109375 226.949219 C 372.730469 221.335938 373.953125 215.785156 375.734375 210.453125 L 376.292969 208.796875 L 394.261719 210.671875 C 395.300781 208.332031 396.515625 206.015625 397.875 203.757812 L 386.007812 190.117188 L 387.050781 188.710938 C 388.136719 187.238281 389.273438 185.792969 390.457031 184.402344 C 391.105469 183.644531 391.761719 182.898438 392.425781 182.167969 L 393.9375 183.550781 C 393.90625 183.582031 393.878906 183.609375 393.855469 183.640625 C 391.972656 185.691406 390.226562 187.820312 388.609375 190.015625 L 400.382812 203.554688 C 398.4375 206.589844 396.78125 209.757812 395.441406 213.015625 L 377.609375 211.15625 C 375.855469 216.394531 374.679688 221.769531 374.085938 227.199219 L 391.046875 233.023438 C 390.886719 236.578125 391.046875 240.136719 391.511719 243.667969 L 375.132812 250.960938 C 376.210938 256.3125 377.851562 261.566406 380.058594 266.625 L 397.660156 263.203125 C 399.285156 266.335938 401.207031 269.34375 403.414062 272.195312 L 392.882812 286.71875 C 394.683594 288.757812 396.617188 290.726562 398.667969 292.609375 C 400.722656 294.488281 402.859375 296.234375 405.050781 297.851562 L 418.589844 286.085938 C 421.628906 288.03125 424.792969 289.6875 428.054688 291.023438 L 426.203125 308.847656 C 431.433594 310.605469 436.8125 311.773438 442.242188 312.375 L 448.066406 295.414062 C 448.960938 295.460938 449.859375 295.476562 450.746094 295.476562 C 453.414062 295.476562 456.074219 295.300781 458.714844 294.949219 L 466.019531 311.320312 C 471.371094 310.253906 476.621094 308.605469 481.6875 306.398438 L 478.265625 288.804688 C 481.394531 287.1875 484.398438 285.253906 487.25 283.050781 L 501.78125 293.578125 C 503.820312 291.777344 505.792969 289.851562 507.671875 287.792969 C 507.703125 287.769531 507.730469 287.734375 507.753906 287.710938 L 509.46875 289.277344 C 508.574219 290.25 507.648438 291.214844 506.695312 292.152344 C 505.632812 293.203125 504.539062 294.21875 503.417969 295.203125 L 502.109375 296.359375 L 487.476562 285.753906 C 486.566406 286.417969 485.640625 287.058594 484.707031 287.664062 C 483.734375 288.304688 482.75 288.914062 481.746094 289.488281 C 481.714844 289.5 481.679688 289.527344 481.648438 289.539062 C 481.648438 289.546875 481.648438 289.546875 481.644531 289.546875 C 481.398438 289.6875 481.15625 289.820312 480.90625 289.960938 L 484.355469 307.691406 L 483.816406 307.925781 L 482.753906 308.386719 C 482.140625 308.65625 481.527344 308.917969 480.90625 309.167969 C 477.832031 310.414062 474.660156 311.480469 471.441406 312.335938 C 469.851562 312.757812 468.25 313.128906 466.640625 313.457031 L 465.980469 313.585938 L 464.925781 313.800781 L 457.570312 297.300781 C 455.371094 297.53125 453.152344 297.652344 450.9375 297.652344 C 450.5625 297.652344 450.179688 297.644531 449.800781 297.640625 L 443.9375 314.722656 M 450.753906 269.292969 C 442.65625 269.292969 434.535156 266.382812 428.089844 260.480469 C 414.410156 247.964844 413.46875 226.722656 425.992188 213.050781 C 426.015625 213.015625 426.046875 212.992188 426.074219 212.960938 L 428.671875 215.335938 C 417.425781 227.636719 418.269531 246.722656 430.570312 257.976562 C 436.363281 263.28125 443.667969 265.894531 450.953125 265.894531 C 459.117188 265.894531 467.265625 262.597656 473.21875 256.109375 L 475.617188 258.300781 C 475.59375 258.328125 475.5625 258.359375 475.535156 258.382812 C 468.917969 265.621094 459.847656 269.292969 450.753906 269.292969 "/>
<path style=" stroke:none;fill-rule:nonzero;fill:rgb(22.349548%,72.549438%,77.648926%);fill-opacity:1;" d="M 442.242188 312.375 C 436.8125 311.773438 431.433594 310.605469 426.203125 308.847656 L 428.054688 291.023438 C 424.792969 289.6875 421.628906 288.03125 418.589844 286.085938 L 405.050781 297.851562 C 402.859375 296.234375 400.722656 294.488281 398.667969 292.609375 C 396.617188 290.726562 394.683594 288.757812 392.882812 286.71875 L 403.414062 272.195312 C 401.207031 269.34375 399.285156 266.335938 397.660156 263.203125 L 380.058594 266.625 C 377.851562 261.566406 376.210938 256.3125 375.132812 250.960938 L 391.511719 243.667969 C 391.046875 240.136719 390.886719 236.578125 391.046875 233.023438 L 374.085938 227.199219 C 374.679688 221.769531 375.855469 216.394531 377.609375 211.15625 L 395.441406 213.015625 C 396.78125 209.757812 398.4375 206.589844 400.382812 203.554688 L 388.609375 190.015625 C 390.226562 187.820312 391.972656 185.691406 393.855469 183.640625 C 393.878906 183.609375 393.90625 183.582031 393.9375 183.550781 L 426.074219 212.960938 C 426.046875 212.992188 426.015625 213.015625 425.992188 213.050781 C 413.46875 226.722656 414.410156 247.964844 428.089844 260.480469 C 434.535156 266.382812 442.65625 269.292969 450.753906 269.292969 C 459.847656 269.292969 468.917969 265.621094 475.535156 258.382812 C 475.5625 258.359375 475.59375 258.328125 475.617188 258.300781 L 507.753906 287.710938 C 507.730469 287.734375 507.703125 287.769531 507.671875 287.792969 C 505.792969 289.851562 503.820312 291.777344 501.78125 293.578125 L 487.25 283.050781 C 484.398438 285.253906 481.394531 287.1875 478.265625 288.804688 L 481.6875 306.398438 C 476.621094 308.605469 471.371094 310.253906 466.019531 311.320312 L 458.714844 294.949219 C 456.074219 295.300781 453.414062 295.476562 450.746094 295.476562 C 449.859375 295.476562 448.960938 295.460938 448.066406 295.414062 L 442.242188 312.375 "/>
<path style=" stroke:none;fill-rule:nonzero;fill:rgb(28.62854%,70.979309%,76.858521%);fill-opacity:1;" d="M 504.527344 177.207031 C 506.589844 179.09375 508.597656 181.140625 510.472656 183.261719 L 511.632812 184.574219 L 510.722656 185.832031 L 495.394531 171.800781 L 496.5625 170.78125 L 497.964844 171.820312 C 500.253906 173.5 502.460938 175.308594 504.527344 177.207031 "/>
<path style=" stroke:none;fill-rule:nonzero;fill:rgb(28.62854%,70.979309%,76.858521%);fill-opacity:1;" d="M 636.671875 544.148438 C 606.648438 564.144531 566.09375 556.027344 546.089844 526.007812 C 526.085938 496 534.207031 455.457031 564.234375 435.460938 C 594.253906 415.460938 634.804688 423.582031 654.808594 453.59375 C 674.816406 483.609375 666.691406 524.148438 636.671875 544.148438 M 734.34375 378.238281 L 731.886719 375.285156 L 696.539062 393.40625 C 692.453125 389.320312 688.15625 385.527344 683.703125 382.074219 L 697.148438 344.738281 L 693.90625 342.6875 C 683.46875 336.070312 672.269531 330.546875 660.625 326.273438 L 657.015625 324.953125 L 635.507812 358.3125 C 630.003906 356.847656 624.394531 355.722656 618.746094 354.957031 L 611.75 315.886719 L 607.914062 315.726562 C 595.519531 315.183594 583.054688 315.96875 570.878906 318.054688 L 567.089844 318.707031 L 565.117188 358.335938 C 559.679688 359.808594 554.25 361.648438 548.910156 363.847656 L 523.265625 333.523438 L 519.863281 335.300781 C 514.335938 338.1875 508.9375 341.382812 503.804688 344.804688 C 498.679688 348.21875 493.648438 351.96875 488.855469 355.953125 L 485.902344 358.40625 L 504.027344 393.742188 C 499.941406 397.828125 496.140625 402.125 492.6875 406.582031 L 455.34375 393.136719 L 453.285156 396.382812 C 446.671875 406.8125 441.148438 418.007812 436.875 429.648438 L 435.550781 433.253906 L 468.917969 454.761719 C 467.457031 460.261719 466.332031 465.867188 465.566406 471.511719 L 426.484375 478.511719 L 426.316406 482.34375 C 425.773438 494.734375 426.558594 507.1875 428.652344 519.367188 L 429.304688 523.152344 L 468.941406 525.128906 C 470.414062 530.5625 472.261719 535.988281 474.460938 541.328125 L 444.121094 566.964844 L 445.90625 570.371094 C 448.789062 575.890625 451.988281 581.285156 455.402344 586.414062 C 458.824219 591.546875 462.578125 596.578125 466.5625 601.359375 L 469.011719 604.316406 L 504.367188 586.203125 C 508.453125 590.289062 512.75 594.078125 517.203125 597.523438 L 503.757812 634.863281 L 507 636.921875 C 517.4375 643.539062 528.628906 649.054688 540.28125 653.332031 L 543.882812 654.65625 L 565.398438 621.296875 C 570.898438 622.757812 576.511719 623.886719 582.152344 624.652344 L 589.15625 663.714844 L 592.992188 663.882812 C 605.386719 664.425781 617.84375 663.636719 630.027344 661.546875 L 633.8125 660.894531 L 635.785156 621.269531 C 641.226562 619.800781 646.65625 617.953125 651.996094 615.757812 L 677.640625 646.082031 L 681.042969 644.304688 C 686.5625 641.414062 691.96875 638.21875 697.097656 634.804688 C 702.230469 631.382812 707.257812 627.632812 712.046875 623.648438 L 715.003906 621.191406 L 696.878906 585.855469 C 700.964844 581.777344 704.757812 577.480469 708.210938 573.027344 L 745.554688 586.472656 L 747.613281 583.222656 C 754.234375 572.796875 759.75 561.601562 764.03125 549.953125 L 765.355469 546.351562 L 731.984375 524.84375 C 733.449219 519.347656 734.574219 513.734375 735.339844 508.09375 L 774.421875 501.09375 L 774.589844 497.257812 C 775.125 484.867188 774.339844 472.414062 772.253906 460.242188 L 771.601562 456.449219 L 731.957031 454.480469 C 730.488281 449.039062 728.644531 443.613281 726.445312 438.273438 L 756.785156 412.636719 L 755 409.234375 C 752.109375 403.710938 748.910156 398.308594 745.496094 393.1875 C 742.085938 388.066406 738.328125 383.035156 734.34375 378.238281 "/>
<path style=" stroke:none;fill-rule:nonzero;fill:rgb(30.979919%,77.249146%,83.529663%);fill-opacity:1;" d="M 640.945312 551.097656 C 607.035156 573.683594 561.226562 564.515625 538.632812 530.617188 C 516.039062 496.714844 525.207031 450.925781 559.121094 428.339844 C 593.03125 405.75 638.839844 414.917969 661.4375 448.816406 C 684.03125 482.71875 674.851562 528.507812 640.945312 551.097656 M 750.332031 411.371094 C 747.554688 406.070312 744.484375 400.851562 741.089844 395.765625 C 737.695312 390.667969 734.066406 385.828125 730.238281 381.226562 L 695.160156 399.203125 C 689.695312 393.457031 683.824219 388.265625 677.570312 383.699219 L 690.910156 346.652344 C 680.671875 340.15625 669.8125 334.824219 658.550781 330.691406 L 637.203125 363.796875 C 629.703125 361.585938 622.015625 360.050781 614.238281 359.199219 L 607.285156 320.429688 C 595.300781 319.90625 583.226562 320.648438 571.269531 322.699219 L 569.316406 362.027344 C 561.785156 363.828125 554.363281 366.359375 547.113281 369.5625 L 521.664062 339.464844 C 516.355469 342.238281 511.144531 345.3125 506.046875 348.710938 C 500.949219 352.105469 496.109375 355.730469 491.503906 359.558594 L 509.488281 394.625 C 503.746094 400.078125 498.546875 405.957031 493.980469 412.207031 L 456.917969 398.863281 C 450.421875 409.105469 445.085938 419.964844 440.957031 431.214844 L 474.070312 452.5625 C 471.863281 460.0625 470.324219 467.746094 469.472656 475.519531 L 430.691406 482.46875 C 430.167969 494.453125 430.910156 506.523438 432.960938 518.472656 L 472.300781 520.429688 C 474.109375 527.953125 476.640625 535.375 479.839844 542.625 L 449.738281 568.066406 C 452.503906 573.371094 455.582031 578.582031 458.976562 583.675781 C 462.375 588.765625 466 593.613281 469.832031 598.214844 L 504.910156 580.230469 C 510.371094 585.980469 516.242188 591.171875 522.496094 595.742188 L 509.148438 632.785156 C 519.394531 639.28125 530.253906 644.613281 541.515625 648.742188 L 562.863281 615.636719 C 570.367188 617.847656 578.054688 619.390625 585.828125 620.234375 L 592.78125 659.011719 C 604.765625 659.527344 616.839844 658.792969 628.800781 656.738281 L 630.75 617.414062 C 638.285156 615.605469 645.710938 613.074219 652.957031 609.871094 L 678.402344 639.96875 C 683.710938 637.195312 688.921875 634.121094 694.019531 630.730469 C 699.109375 627.335938 703.957031 623.707031 708.5625 619.882812 L 690.578125 584.808594 C 696.324219 579.355469 701.523438 573.480469 706.089844 567.234375 L 743.148438 580.570312 C 749.648438 570.328125 754.972656 559.476562 759.113281 548.21875 L 725.992188 526.878906 C 728.203125 519.371094 729.746094 511.6875 730.59375 503.914062 L 769.375 496.964844 C 769.902344 484.988281 769.160156 472.917969 767.105469 460.964844 L 727.769531 459.007812 C 725.957031 451.480469 723.425781 444.058594 720.226562 436.816406 L 750.332031 411.371094 "/>
<path style=" stroke:none;fill-rule:nonzero;fill:rgb(70.979309%,84.309387%,83.139038%);fill-opacity:1;" d="M 600.550781 664.046875 C 598.03125 664.046875 595.507812 663.996094 592.984375 663.882812 L 591.835938 663.832031 L 592.992188 663.882812 C 595.523438 663.996094 598.058594 664.046875 600.589844 664.046875 C 601.351562 664.046875 602.117188 664.042969 602.878906 664.035156 C 602.105469 664.042969 601.324219 664.046875 600.550781 664.046875 M 589.15625 663.714844 L 582.152344 624.652344 C 576.511719 623.878906 570.902344 622.757812 565.398438 621.300781 L 543.890625 654.65625 L 543.890625 654.648438 L 565.398438 621.296875 C 570.898438 622.757812 576.511719 623.886719 582.152344 624.652344 L 589.15625 663.714844 M 625.828125 662.214844 C 627.234375 662.007812 628.628906 661.785156 630.027344 661.546875 L 632.59375 661.105469 L 630.027344 661.554688 C 628.628906 661.789062 627.234375 662.007812 625.828125 662.214844 M 633.8125 660.894531 L 635.785156 621.269531 C 639.539062 620.253906 643.28125 619.0625 646.996094 617.703125 C 643.285156 619.0625 639.542969 620.253906 635.789062 621.269531 L 633.820312 660.894531 L 633.8125 660.894531 M 540.730469 653.5 L 540.289062 653.332031 C 528.636719 649.0625 517.429688 643.539062 507.007812 636.921875 L 506.097656 636.34375 L 507 636.921875 C 517.4375 643.539062 528.628906 649.054688 540.28125 653.332031 L 540.730469 653.5 M 689.503906 639.582031 C 692.074219 638.050781 694.601562 636.46875 697.0625 634.824219 C 694.601562 636.46875 692.074219 638.050781 689.503906 639.582031 M 469.003906 604.320312 L 467.789062 602.84375 L 469.011719 604.316406 L 482.898438 597.207031 L 469.003906 604.320312 M 445.046875 568.742188 L 444.113281 566.976562 L 444.121094 566.972656 L 445.046875 568.742188 M 468.941406 525.128906 L 429.308594 523.15625 L 429.304688 523.152344 L 468.941406 525.128906 M 428.503906 518.472656 C 427.050781 509.816406 426.277344 501.023438 426.164062 492.214844 C 426.277344 501.023438 427.058594 509.816406 428.503906 518.472656 M 426.488281 478.507812 L 465.558594 471.507812 C 465.65625 470.808594 465.757812 470.113281 465.867188 469.414062 C 465.757812 470.113281 465.65625 470.808594 465.566406 471.511719 L 426.488281 478.507812 M 468.296875 457.183594 C 468.496094 456.371094 468.707031 455.566406 468.917969 454.761719 L 435.550781 433.261719 L 435.558594 433.253906 L 468.917969 454.761719 C 468.707031 455.5625 468.496094 456.371094 468.296875 457.183594 M 492.6875 406.582031 L 455.351562 393.136719 L 492.695312 406.574219 C 492.6875 406.574219 492.6875 406.574219 492.6875 406.582031 M 485.902344 358.40625 L 485.902344 358.402344 L 488.855469 355.945312 C 491.945312 353.371094 495.144531 350.902344 498.398438 348.550781 C 495.144531 350.902344 491.953125 353.382812 488.855469 355.953125 L 485.902344 358.40625 "/>
<path style=" stroke:none;fill-rule:nonzero;fill:rgb(20.779419%,66.268921%,71.369934%);fill-opacity:1;" d="M 600.589844 664.046875 C 598.058594 664.046875 595.523438 663.996094 592.992188 663.882812 L 591.835938 663.832031 L 589.15625 663.714844 L 582.152344 624.652344 C 576.511719 623.886719 570.898438 622.757812 565.398438 621.296875 L 543.890625 654.648438 L 540.730469 653.5 L 540.28125 653.332031 C 528.628906 649.054688 517.4375 643.539062 507 636.921875 L 506.097656 636.34375 L 503.757812 634.855469 L 517.203125 597.523438 C 512.742188 594.074219 508.453125 590.289062 504.367188 586.195312 L 482.898438 597.207031 L 469.011719 604.316406 L 467.789062 602.84375 L 466.5625 601.355469 C 462.578125 596.574219 458.832031 591.546875 455.402344 586.414062 C 451.988281 581.285156 448.789062 575.878906 445.90625 570.359375 L 445.046875 568.742188 L 444.121094 566.972656 L 474.460938 541.335938 C 472.261719 535.988281 470.414062 530.554688 468.949219 525.128906 L 468.941406 525.128906 L 429.304688 523.152344 L 428.652344 519.367188 C 428.601562 519.074219 428.546875 518.773438 428.503906 518.472656 C 427.058594 509.816406 426.277344 501.023438 426.164062 492.214844 C 426.125 488.921875 426.175781 485.628906 426.316406 482.34375 L 426.488281 478.507812 L 465.566406 471.511719 C 465.65625 470.808594 465.757812 470.113281 465.867188 469.414062 C 466.492188 465.304688 467.304688 461.21875 468.296875 457.183594 C 468.496094 456.371094 468.707031 455.5625 468.917969 454.761719 L 435.558594 433.253906 L 436.875 429.65625 C 441.148438 418.011719 446.671875 406.804688 453.285156 396.382812 L 455.351562 393.136719 L 492.6875 406.582031 C 492.6875 406.574219 492.6875 406.574219 492.695312 406.574219 L 492.699219 406.582031 C 496.140625 402.132812 499.941406 397.828125 504.027344 393.742188 L 485.902344 358.40625 L 488.855469 355.953125 C 491.953125 353.382812 495.144531 350.902344 498.398438 348.550781 C 500.175781 347.269531 501.972656 346.03125 503.769531 344.828125 L 506.265625 348.5625 C 506.1875 348.613281 506.117188 348.65625 506.046875 348.710938 C 500.949219 352.105469 496.109375 355.730469 491.503906 359.558594 L 509.488281 394.625 C 503.746094 400.078125 498.546875 405.957031 493.980469 412.207031 L 456.917969 398.863281 C 450.421875 409.105469 445.085938 419.964844 440.957031 431.214844 L 474.070312 452.5625 C 471.863281 460.0625 470.324219 467.746094 469.472656 475.519531 L 430.691406 482.46875 C 430.167969 494.453125 430.910156 506.523438 432.960938 518.472656 L 472.300781 520.429688 C 474.109375 527.953125 476.640625 535.375 479.839844 542.625 L 449.738281 568.066406 C 452.503906 573.371094 455.582031 578.582031 458.976562 583.675781 C 462.375 588.765625 466 593.613281 469.832031 598.214844 L 504.910156 580.230469 C 510.371094 585.980469 516.242188 591.171875 522.496094 595.742188 L 509.148438 632.785156 C 519.394531 639.28125 530.253906 644.613281 541.515625 648.742188 L 562.863281 615.636719 C 570.367188 617.847656 578.054688 619.390625 585.828125 620.234375 L 592.78125 659.011719 C 595.25 659.117188 597.726562 659.167969 600.199219 659.167969 C 609.734375 659.167969 619.304688 658.363281 628.800781 656.738281 L 630.75 617.414062 C 638.285156 615.605469 645.710938 613.074219 652.957031 609.871094 L 678.402344 639.96875 C 683.710938 637.195312 688.921875 634.121094 694.019531 630.730469 C 694.089844 630.679688 694.160156 630.636719 694.238281 630.585938 L 697.0625 634.824219 C 694.601562 636.46875 692.074219 638.050781 689.503906 639.582031 C 686.734375 641.230469 683.902344 642.800781 681.050781 644.292969 L 677.640625 646.074219 L 652.003906 615.753906 C 650.339844 616.4375 648.671875 617.089844 646.996094 617.703125 C 643.28125 619.0625 639.539062 620.253906 635.785156 621.269531 L 633.8125 660.894531 L 632.59375 661.105469 L 630.027344 661.546875 C 628.628906 661.785156 627.234375 662.007812 625.828125 662.214844 C 618.246094 663.320312 610.566406 663.933594 602.878906 664.035156 C 602.117188 664.042969 601.351562 664.046875 600.589844 664.046875 M 600.105469 563.488281 C 576.25 563.488281 552.847656 551.945312 538.632812 530.617188 C 516.039062 496.714844 525.207031 450.925781 559.121094 428.339844 C 559.191406 428.285156 559.261719 428.242188 559.339844 428.191406 L 563.632812 434.636719 C 533.171875 454.953125 524.933594 496.109375 545.246094 526.578125 C 558.023438 545.75 579.070312 556.128906 600.511719 556.128906 C 613.136719 556.128906 625.902344 552.527344 637.203125 545.015625 L 641.164062 550.957031 C 641.09375 551.007812 641.015625 551.050781 640.945312 551.097656 C 628.371094 559.476562 614.15625 563.488281 600.105469 563.488281 "/>
<path style=" stroke:none;fill-rule:nonzero;fill:rgb(22.349548%,72.549438%,77.648926%);fill-opacity:1;" d="M 600.199219 659.167969 C 597.726562 659.167969 595.25 659.117188 592.78125 659.011719 L 585.828125 620.234375 C 578.054688 619.390625 570.367188 617.847656 562.863281 615.636719 L 541.515625 648.742188 C 530.253906 644.613281 519.394531 639.28125 509.148438 632.785156 L 522.496094 595.742188 C 516.242188 591.171875 510.371094 585.980469 504.910156 580.230469 L 469.832031 598.214844 C 466 593.613281 462.375 588.765625 458.976562 583.675781 C 455.582031 578.582031 452.503906 573.371094 449.738281 568.066406 L 479.839844 542.625 C 476.640625 535.375 474.109375 527.953125 472.300781 520.429688 L 432.960938 518.472656 C 430.910156 506.523438 430.167969 494.453125 430.691406 482.46875 L 469.472656 475.519531 C 470.324219 467.746094 471.863281 460.0625 474.070312 452.5625 L 440.957031 431.214844 C 445.085938 419.964844 450.421875 409.105469 456.917969 398.863281 L 493.980469 412.207031 C 498.546875 405.957031 503.746094 400.078125 509.488281 394.625 L 491.503906 359.558594 C 496.109375 355.730469 500.949219 352.105469 506.046875 348.710938 C 506.117188 348.65625 506.1875 348.613281 506.265625 348.5625 L 559.339844 428.191406 C 559.261719 428.242188 559.191406 428.285156 559.121094 428.339844 C 525.207031 450.925781 516.039062 496.714844 538.632812 530.617188 C 552.847656 551.945312 576.25 563.488281 600.105469 563.488281 C 614.15625 563.488281 628.371094 559.476562 640.945312 551.097656 C 641.015625 551.050781 641.09375 551.007812 641.164062 550.957031 L 694.238281 630.585938 C 694.160156 630.636719 694.089844 630.679688 694.019531 630.730469 C 688.921875 634.121094 683.710938 637.195312 678.402344 639.96875 L 652.957031 609.871094 C 645.710938 613.074219 638.285156 615.605469 630.75 617.414062 L 628.800781 656.738281 C 619.304688 658.363281 609.734375 659.167969 600.199219 659.167969 "/>
<path style=" stroke:none;fill-rule:nonzero;fill:rgb(28.62854%,70.979309%,76.858521%);fill-opacity:1;" d="M 745.496094 393.179688 C 748.910156 398.308594 752.109375 403.71875 754.992188 409.234375 L 756.777344 412.644531 L 754.175781 414.84375 L 728.847656 376.847656 L 731.886719 375.292969 L 734.335938 378.238281 C 738.328125 383.042969 742.082031 388.058594 745.496094 393.179688 "/>
<path style=" stroke:none;fill-rule:nonzero;fill:rgb(85.488892%,63.919067%,52.938843%);fill-opacity:1;" d="M 655.738281 660.902344 C 650.84375 660.902344 646.886719 664.867188 646.886719 669.75 L 646.886719 678.164062 L 646.757812 659.789062 C 646.746094 655.121094 642.964844 651.34375 638.304688 651.320312 C 633.597656 651.292969 629.773438 655.089844 629.757812 659.789062 L 629.664062 672.351562 L 629.703125 651.050781 C 629.703125 645.960938 625.617188 641.8125 620.523438 641.734375 C 615.332031 641.660156 611.078125 645.847656 611.078125 651.042969 L 611.078125 672.441406 L 611.355469 613.9375 C 611.355469 608.066406 606.589844 603.304688 600.71875 603.304688 C 594.847656 603.304688 590.082031 608.066406 590.082031 613.9375 L 589.8125 715.167969 L 589.726562 715.167969 L 589.726562 684.703125 C 587.308594 677.953125 581 671.445312 573.492188 672.257812 C 571.503906 672.472656 569.820312 675.121094 569.820312 679.742188 L 569.820312 711.960938 C 569.820312 718.519531 572.183594 724.867188 576.472656 729.835938 L 597.445312 754.109375 L 661.058594 754.109375 L 668.242188 733.671875 L 668.242188 684.773438 L 665.738281 668.582031 C 665.335938 664.007812 660.328125 660.902344 655.738281 660.902344 "/>
<path style=" stroke:none;fill-rule:nonzero;fill:rgb(93.328857%,90.979004%,83.918762%);fill-opacity:1;" d="M 583.996094 754.109375 L 583.996094 765.738281 L 671.960938 765.738281 L 671.960938 754.109375 L 583.996094 754.109375 "/>
<path style=" stroke:none;fill-rule:nonzero;fill:rgb(94.509888%,26.669312%,25.878906%);fill-opacity:1;" d="M 677.417969 807.527344 L 578.910156 807.527344 L 578.910156 765.738281 L 677.417969 765.738281 L 677.417969 807.527344 "/>
<path style=" stroke:none;fill-rule:nonzero;fill:rgb(23.139954%,21.958923%,21.958923%);fill-opacity:1;" d="M 674.960938 805.078125 L 581.367188 805.078125 L 581.367188 768.195312 L 674.960938 768.195312 Z M 586.449219 756.566406 L 669.507812 756.566406 L 669.507812 763.285156 L 586.449219 763.285156 Z M 572.277344 711.960938 L 572.277344 679.742188 C 572.277344 676.136719 573.460938 674.730469 573.761719 674.699219 C 579.84375 674.035156 585.121094 679.550781 587.269531 685.144531 L 587.269531 715.167969 L 587.359375 717.625 L 592.261719 717.625 L 592.539062 613.9375 C 592.539062 609.429688 596.210938 605.757812 600.71875 605.757812 C 605.226562 605.757812 608.890625 609.429688 608.890625 613.925781 L 608.726562 649.453125 L 608.726562 649.457031 C 608.65625 649.984375 608.621094 650.511719 608.621094 651.042969 L 608.621094 672.441406 L 613.535156 672.453125 L 613.636719 649.839844 C 614.210938 646.605469 617.078125 644.191406 620.484375 644.191406 C 624.214844 644.242188 627.246094 647.324219 627.246094 651.042969 L 627.207031 672.347656 L 632.121094 672.371094 L 632.214844 659.796875 C 632.222656 656.476562 634.933594 653.773438 638.289062 653.773438 C 641.589844 653.792969 644.289062 656.492188 644.296875 659.808594 L 644.429688 678.183594 L 649.34375 678.164062 L 649.34375 669.75 C 649.34375 666.226562 652.207031 663.355469 655.738281 663.355469 C 659.089844 663.355469 663.007812 665.589844 663.316406 668.953125 L 665.785156 684.960938 L 665.785156 733.253906 L 659.320312 751.65625 L 598.570312 751.65625 L 578.335938 728.230469 C 574.425781 723.710938 572.277344 717.929688 572.277344 711.960938 Z M 674.417969 763.285156 L 674.417969 751.65625 L 664.523438 751.65625 L 670.695312 734.085938 L 670.695312 684.773438 L 668.183594 668.363281 C 667.644531 662.238281 661.308594 658.445312 655.738281 658.445312 C 653.308594 658.445312 651.0625 659.214844 649.214844 660.519531 L 649.207031 659.785156 C 649.195312 653.792969 644.308594 648.894531 638.257812 648.863281 C 636 648.863281 633.898438 649.554688 632.152344 650.730469 C 631.984375 644.476562 626.851562 639.371094 620.558594 639.28125 L 620.382812 639.28125 C 617.921875 639.28125 615.601562 640.058594 613.675781 641.402344 L 613.804688 613.9375 C 613.804688 606.71875 607.9375 600.851562 600.71875 600.851562 C 593.496094 600.851562 587.625 606.71875 587.625 613.929688 L 587.46875 676.113281 C 583.941406 672.085938 578.953125 669.199219 573.230469 669.820312 C 570.527344 670.113281 567.367188 672.890625 567.367188 679.742188 L 567.367188 711.960938 C 567.367188 719.105469 569.9375 726.03125 574.617188 731.441406 L 592.078125 751.65625 L 581.539062 751.65625 L 581.539062 763.285156 L 576.453125 763.285156 L 576.453125 809.988281 L 679.875 809.988281 L 679.875 763.285156 L 674.417969 763.285156 "/>
<path style=" stroke:none;fill-rule:nonzero;fill:rgb(85.488892%,63.919067%,52.938843%);fill-opacity:1;" d="M 236.328125 438.171875 C 237.757812 433.496094 235.128906 428.550781 230.453125 427.125 L 170.910156 408.941406 L 240.019531 429.910156 C 244.484375 431.261719 249.203125 428.753906 250.589844 424.304688 C 251.992188 419.816406 249.472656 415.039062 244.984375 413.660156 L 181.503906 394.171875 L 253.359375 416.152344 C 258.234375 417.648438 263.394531 414.949219 264.957031 410.105469 C 266.542969 405.164062 263.777344 399.875 258.808594 398.351562 L 197.144531 379.519531 L 242.296875 393.308594 C 247.910156 395.027344 253.851562 391.863281 255.566406 386.25 C 257.289062 380.636719 254.121094 374.699219 248.507812 372.976562 L 152.1875 343.5625 L 152.210938 343.480469 L 181.355469 352.378906 C 188.519531 352.039062 196.589844 347.910156 198.003906 340.5 C 198.375 338.53125 196.332031 336.152344 191.914062 334.804688 L 161.09375 325.386719 C 154.816406 323.46875 148.054688 323.871094 142.042969 326.523438 L 112.695312 339.484375 L 94.109375 400.304688 L 111.570312 413.140625 L 158.34375 427.425781 L 226.027344 444.246094 C 230.515625 445.199219 234.992188 442.558594 236.328125 438.171875 "/>
<path style=" stroke:none;fill-rule:nonzero;fill:rgb(93.328857%,90.979004%,83.918762%);fill-opacity:1;" d="M 116.628906 326.625 L 105.5 323.230469 L 79.796875 407.328125 L 90.925781 410.730469 L 116.628906 326.625 "/>
<path style=" stroke:none;fill-rule:nonzero;fill:rgb(94.509888%,26.669312%,25.878906%);fill-opacity:1;" d="M 38.226562 400.335938 L 67.007812 306.15625 L 106.984375 318.359375 L 78.203125 412.546875 L 38.226562 400.335938 "/>
<path style=" stroke:none;fill-rule:nonzero;fill:rgb(23.139954%,21.958923%,21.958923%);fill-opacity:1;" d="M 262.613281 409.355469 C 261.699219 412.203125 259.078125 414.113281 256.089844 414.113281 C 255.414062 414.113281 254.734375 414.011719 254.082031 413.804688 L 182.226562 391.824219 L 182.21875 391.824219 L 180.78125 396.519531 L 244.261719 416.003906 C 245.800781 416.480469 247.066406 417.535156 247.820312 418.960938 C 248.578125 420.390625 248.730469 422.027344 248.246094 423.574219 C 247.457031 426.113281 245.140625 427.820312 242.480469 427.820312 C 241.886719 427.820312 241.300781 427.730469 240.730469 427.558594 L 171.621094 406.589844 L 170.195312 411.289062 L 229.734375 429.46875 C 233.105469 430.5 235.011719 434.078125 233.984375 437.457031 C 233.164062 440.121094 230.652344 441.980469 227.867188 441.980469 C 227.425781 441.980469 226.972656 441.9375 226.621094 441.859375 L 159.066406 425.078125 L 112.6875 410.917969 L 96.96875 399.355469 L 112.578125 348.273438 L 114.714844 341.273438 L 143.039062 328.773438 C 148.484375 326.371094 154.679688 325.992188 160.378906 327.738281 L 191.199219 337.148438 C 194.644531 338.199219 195.640625 339.746094 195.585938 340.039062 C 194.453125 346.011719 187.789062 349.484375 181.648438 349.90625 L 152.929688 341.125 L 150.542969 340.5 L 149.121094 345.199219 L 247.789062 375.332031 C 252.101562 376.648438 254.539062 381.226562 253.21875 385.535156 C 252.164062 388.992188 249.023438 391.320312 245.40625 391.320312 C 244.597656 391.320312 243.792969 391.199219 243.011719 390.960938 L 197.863281 377.171875 L 196.429688 381.871094 L 258.09375 400.707031 C 259.859375 401.242188 261.308594 402.445312 262.167969 404.082031 C 263.023438 405.71875 263.183594 407.59375 262.613281 409.355469 Z M 89.292969 407.664062 L 82.867188 405.699219 L 101.363281 345.160156 L 107.128906 326.292969 L 113.558594 328.257812 L 109.253906 342.347656 L 91.25 401.25 Z M 41.296875 398.707031 L 68.636719 309.21875 L 103.921875 319.992188 L 103.867188 320.164062 L 78.722656 402.445312 L 76.574219 409.476562 Z M 266.515625 401.804688 C 265.042969 398.992188 262.5625 396.933594 259.527344 396.007812 L 252.8125 393.953125 C 255.191406 392.324219 257.023438 389.902344 257.921875 386.96875 C 260.023438 380.070312 256.128906 372.742188 249.222656 370.632812 L 190.371094 352.660156 C 195.296875 350.398438 199.371094 346.425781 200.414062 340.960938 C 200.917969 338.289062 199.183594 334.453125 192.628906 332.449219 L 161.8125 323.039062 C 154.992188 320.960938 147.574219 321.402344 141.050781 324.28125 L 116.613281 335.070312 L 119.691406 324.996094 L 108.5625 321.601562 L 110.054688 316.734375 L 65.375 303.09375 L 35.164062 401.964844 L 79.835938 415.609375 L 81.425781 410.398438 L 92.554688 413.792969 L 95.445312 404.332031 L 110.449219 415.367188 L 157.757812 429.808594 L 225.515625 446.640625 C 226.289062 446.808594 227.082031 446.890625 227.867188 446.890625 C 232.871094 446.890625 237.210938 443.675781 238.675781 438.886719 C 239.386719 436.566406 239.308594 434.1875 238.601562 432.046875 L 239.308594 432.257812 C 240.339844 432.570312 241.40625 432.730469 242.480469 432.730469 C 247.296875 432.730469 251.507812 429.636719 252.9375 425.03125 C 253.597656 422.902344 253.605469 420.679688 252.964844 418.59375 C 253.988281 418.875 255.035156 419.023438 256.089844 419.023438 C 261.21875 419.023438 265.722656 415.742188 267.289062 410.859375 C 268.261719 407.835938 267.988281 404.617188 266.515625 401.804688 "/>
<path style=" stroke:none;fill-rule:nonzero;fill:rgb(85.488892%,63.919067%,52.938843%);fill-opacity:1;" d="M 485.460938 119.578125 C 488.804688 123.140625 494.40625 123.320312 497.976562 119.96875 L 504.109375 114.214844 L 490.792969 126.886719 C 487.40625 130.089844 487.226562 135.421875 490.40625 138.839844 C 493.601562 142.289062 498.992188 142.480469 502.433594 139.269531 L 511.65625 130.746094 L 496.097656 145.300781 C 492.378906 148.777344 492.152344 154.59375 495.585938 158.359375 C 499.082031 162.195312 505.050781 162.425781 508.835938 158.871094 L 524.441406 144.230469 L 481.585938 184.066406 C 477.308594 188.089844 477.097656 194.816406 481.113281 199.097656 C 485.128906 203.375 491.855469 203.585938 496.140625 199.570312 L 570.15625 130.484375 L 570.21875 130.550781 L 548 151.398438 C 544.726562 157.777344 544.296875 166.839844 550.027344 171.75 C 551.550781 173.050781 554.632812 172.464844 558.003906 169.304688 L 581.5 147.253906 C 586.289062 142.761719 589.300781 136.695312 589.988281 130.164062 L 593.339844 98.261719 L 549.796875 51.898438 L 529.980469 60.65625 L 494.3125 94.125 L 484.214844 107.027344 C 481.15625 110.449219 482.320312 116.226562 485.460938 119.578125 "/>
<path style=" stroke:none;fill-rule:nonzero;fill:rgb(93.328857%,90.979004%,83.918762%);fill-opacity:1;" d="M 602.539062 108.070312 L 611.019531 100.109375 L 550.816406 35.992188 L 542.335938 43.953125 L 602.539062 108.070312 "/>
<path style=" stroke:none;fill-rule:nonzero;fill:rgb(94.509888%,26.669312%,25.878906%);fill-opacity:1;" d="M 577.5625 3.417969 L 644.980469 75.214844 L 614.507812 103.820312 L 547.085938 32.023438 L 577.5625 3.417969 "/>
<path style=" stroke:none;fill-rule:nonzero;fill:rgb(23.139954%,21.958923%,21.958923%);fill-opacity:1;" d="M 550.925781 32.527344 L 550.554688 32.128906 L 577.453125 6.890625 L 641.515625 75.105469 L 614.617188 100.347656 L 614.492188 100.21875 Z M 602.648438 104.597656 L 560.964844 60.210938 L 550.398438 48.953125 L 545.808594 44.058594 L 550.707031 39.464844 L 566.355469 56.132812 L 607.546875 100.003906 Z M 587.542969 129.910156 C 586.917969 135.847656 584.171875 141.375 579.816406 145.464844 L 556.320312 167.515625 C 554.414062 169.300781 552.824219 169.9375 551.972656 169.9375 C 551.75 169.9375 551.648438 169.894531 551.628906 169.882812 C 547.015625 165.921875 547.316406 158.425781 550.003906 152.886719 L 571.902344 132.339844 L 573.628906 130.59375 L 570.269531 127.019531 L 494.460938 197.78125 C 492.9375 199.207031 490.949219 199.992188 488.863281 199.992188 C 486.582031 199.992188 484.464844 199.078125 482.902344 197.417969 C 481.40625 195.824219 480.625 193.746094 480.691406 191.5625 C 480.761719 189.382812 481.675781 187.355469 483.261719 185.871094 L 509.285156 161.679688 C 509.710938 161.367188 510.128906 161.027344 510.519531 160.660156 L 526.121094 146.019531 L 522.773438 142.433594 L 506.207031 157.835938 C 503.496094 159.601562 499.59375 159.113281 497.394531 156.703125 C 494.886719 153.949219 495.054688 149.632812 497.773438 147.089844 L 513.332031 132.539062 L 509.988281 128.945312 L 500.757812 137.472656 C 499.632812 138.523438 498.167969 139.105469 496.632812 139.105469 C 494.933594 139.105469 493.359375 138.417969 492.203125 137.171875 C 489.957031 134.75 490.078125 130.933594 492.488281 128.664062 L 505.804688 115.992188 L 502.429688 112.425781 L 496.292969 118.183594 C 495.105469 119.296875 493.550781 119.910156 491.914062 119.910156 C 490.128906 119.910156 488.472656 119.195312 487.25 117.898438 C 484.960938 115.453125 483.902344 111.0625 486.152344 108.542969 L 496.136719 95.789062 L 531.355469 62.734375 L 549.195312 54.847656 L 590.773438 99.125 Z M 648.453125 75.332031 L 577.667969 -0.0546875 L 543.613281 31.914062 L 547.34375 35.882812 L 538.863281 43.84375 L 545.636719 51.054688 L 528.605469 58.578125 L 492.636719 92.335938 L 482.386719 105.390625 C 478.285156 109.980469 479.859375 117.199219 483.671875 121.253906 C 485.277344 122.96875 487.375 124.125 489.644531 124.589844 L 489.113281 125.097656 C 484.757812 129.207031 484.527344 136.125 488.609375 140.511719 C 490.105469 142.128906 492.0625 143.246094 494.179688 143.734375 C 489.738281 148.132812 489.527344 155.363281 493.769531 160.011719 C 495.429688 161.839844 497.625 163.078125 500.011719 163.589844 L 479.902344 182.277344 C 477.359375 184.675781 475.894531 187.917969 475.785156 191.40625 C 475.667969 194.898438 476.929688 198.230469 479.320312 200.773438 C 481.785156 203.402344 485.261719 204.902344 488.863281 204.902344 C 492.203125 204.902344 495.386719 203.644531 497.816406 201.363281 L 543.289062 158.921875 C 542.757812 164.371094 544.164062 169.953125 548.4375 173.609375 C 549.382812 174.421875 550.605469 174.847656 551.972656 174.847656 C 554.363281 174.847656 557.101562 173.511719 559.6875 171.097656 L 583.183594 149.046875 C 588.394531 144.148438 591.679688 137.539062 592.429688 130.421875 L 595.21875 103.855469 L 602.433594 111.542969 L 610.914062 103.582031 L 614.398438 107.289062 L 648.453125 75.332031 "/>
</g>
</svg>
