<?xml version="1.0" encoding="UTF-8"?>
<svg xmlns="http://www.w3.org/2000/svg" xmlns:xlink="http://www.w3.org/1999/xlink" width="810pt" height="809.999993pt" viewBox="0 0 810 809.999993" version="1.2">
<defs>
<clipPath id="clip1">
  <path d="M 15.226562 15.226562 L 794.183594 15.226562 L 794.183594 794.183594 L 15.226562 794.183594 Z M 15.226562 15.226562 "/>
</clipPath>
</defs>
<g id="surface1">
<path style=" stroke:none;fill-rule:nonzero;fill:rgb(98.81897%,84.309387%,43.919373%);fill-opacity:1;" d="M 769.054688 542.90625 L 769.054688 618.289062 L 643.417969 618.289062 L 643.417969 542.90625 L 769.054688 542.90625 "/>
<path style=" stroke:none;fill-rule:nonzero;fill:rgb(98.81897%,84.309387%,43.919373%);fill-opacity:1;" d="M 769.054688 693.671875 L 769.054688 769.054688 L 643.417969 769.054688 L 643.417969 693.671875 L 769.054688 693.671875 "/>
<path style=" stroke:none;fill-rule:nonzero;fill:rgb(98.81897%,84.309387%,43.919373%);fill-opacity:1;" d="M 517.78125 731.363281 L 517.78125 769.054688 L 392.140625 769.054688 L 392.140625 693.671875 L 517.78125 693.671875 L 517.78125 731.363281 "/>
<path style=" stroke:none;fill-rule:nonzero;fill:rgb(98.81897%,84.309387%,43.919373%);fill-opacity:1;" d="M 517.78125 580.597656 L 517.78125 618.289062 L 392.140625 618.289062 L 392.140625 542.90625 L 517.78125 542.90625 L 517.78125 580.597656 "/>
<path style=" stroke:none;fill-rule:nonzero;fill:rgb(100%,50.979614%,43.139648%);fill-opacity:1;" d="M 27.789062 781.621094 L 27.789062 681.109375 L 153.429688 681.109375 L 153.429688 781.621094 L 27.789062 781.621094 "/>
<path style=" stroke:none;fill-rule:nonzero;fill:rgb(100%,50.979614%,43.139648%);fill-opacity:1;" d="M 27.789062 630.855469 L 27.789062 530.34375 L 153.429688 530.34375 L 153.429688 630.855469 L 27.789062 630.855469 "/>
<path style=" stroke:none;fill-rule:nonzero;fill:rgb(100%,50.979614%,43.139648%);fill-opacity:1;" d="M 27.789062 480.089844 L 27.789062 379.578125 L 153.429688 379.578125 L 153.429688 480.089844 L 27.789062 480.089844 "/>
<path style=" stroke:none;fill-rule:nonzero;fill:rgb(79.998779%,81.959534%,85.099792%);fill-opacity:1;" d="M 767.683594 142.238281 C 758.996094 133.550781 747.214844 128.300781 734.015625 128.300781 L 449.414062 128.300781 L 434.496094 261.839844 C 431.84375 285.988281 411.476562 304.195312 387.234375 304.195312 L 368.386719 304.195312 L 374.914062 362.351562 C 377.566406 386.496094 397.933594 404.703125 422.175781 404.703125 L 442.398438 404.703125 L 442.398438 437.242188 C 442.398438 445.292969 447.796875 452.210938 455.207031 454.222656 C 456.726562 454.714844 458.347656 454.960938 460.113281 454.960938 C 464.875 454.960938 469.4375 453.046875 472.675781 449.808594 L 517.78125 404.703125 L 718.800781 404.460938 C 740.789062 402.203125 758.601562 384.828125 761.15625 362.351562 L 781.375 181.207031 C 781.472656 179.441406 781.621094 177.671875 781.621094 175.90625 C 781.621094 162.703125 776.367188 150.925781 767.683594 142.238281 "/>
<path style=" stroke:none;fill-rule:nonzero;fill:rgb(90.19928%,91.369629%,92.939758%);fill-opacity:1;" d="M 441.023438 41.726562 C 432.335938 33.042969 420.558594 27.789062 407.355469 27.789062 L 75.394531 27.789062 C 49.140625 27.789062 27.789062 49.140625 27.789062 75.394531 C 27.789062 77.164062 27.9375 78.929688 28.035156 80.695312 L 48.253906 261.839844 C 50.808594 284.316406 68.621094 301.691406 90.609375 303.949219 L 266.503906 304.195312 L 311.605469 349.296875 C 314.84375 352.585938 319.410156 354.449219 324.167969 354.449219 C 333.984375 354.449219 341.886719 346.546875 341.886719 336.734375 L 341.886719 304.195312 L 387.234375 304.195312 C 411.476562 304.195312 431.84375 285.988281 434.496094 261.839844 L 449.414062 128.300781 L 454.714844 80.695312 C 454.8125 78.929688 454.960938 77.164062 454.960938 75.394531 C 454.960938 62.195312 449.710938 50.414062 441.023438 41.726562 "/>
<path style=" stroke:none;fill-rule:nonzero;fill:rgb(98.81897%,84.309387%,43.919373%);fill-opacity:1;" d="M 266.503906 266.503906 L 266.503906 304.195312 L 95.515625 304.195312 C 93.898438 304.195312 92.230469 304.046875 90.609375 303.949219 L 90.609375 266.503906 C 90.609375 242.113281 100.425781 220.273438 116.375 204.320312 C 132.324219 188.371094 154.164062 178.554688 178.554688 178.554688 C 227.191406 178.554688 266.503906 217.867188 266.503906 266.503906 "/>
<path style=" stroke:none;fill-rule:nonzero;fill:rgb(70.588684%,86.669922%,49.798584%);fill-opacity:1;" d="M 718.800781 367.011719 L 718.800781 404.460938 C 717.179688 404.558594 715.511719 404.703125 713.894531 404.703125 L 542.90625 404.703125 L 542.90625 367.011719 C 542.90625 342.621094 552.722656 320.78125 568.671875 304.832031 C 584.621094 288.882812 606.460938 279.066406 630.855469 279.066406 C 679.488281 279.066406 718.800781 318.378906 718.800781 367.011719 "/>
<path style=" stroke:none;fill-rule:nonzero;fill:rgb(94.119263%,81.568909%,70.588684%);fill-opacity:1;" d="M 178.554688 78.046875 C 206.335938 78.046875 228.8125 100.523438 228.8125 128.300781 C 228.8125 156.078125 206.335938 178.554688 178.554688 178.554688 C 150.777344 178.554688 128.300781 156.078125 128.300781 128.300781 C 128.300781 100.523438 150.777344 78.046875 178.554688 78.046875 "/>
<path style=" stroke:none;fill-rule:nonzero;fill:rgb(94.119263%,81.568909%,70.588684%);fill-opacity:1;" d="M 630.855469 178.554688 C 658.632812 178.554688 681.109375 201.035156 681.109375 228.8125 C 681.109375 256.589844 658.632812 279.066406 630.855469 279.066406 C 603.074219 279.066406 580.597656 256.589844 580.597656 228.8125 C 580.597656 201.035156 603.074219 178.554688 630.855469 178.554688 "/>
<path style=" stroke:none;fill-rule:nonzero;fill:rgb(0%,0%,0%);fill-opacity:1;" d="M 417.269531 65.480469 L 291.628906 65.480469 L 291.628906 90.609375 L 417.269531 90.609375 L 417.269531 65.480469 "/>
<path style=" stroke:none;fill-rule:nonzero;fill:rgb(0%,0%,0%);fill-opacity:1;" d="M 417.269531 115.738281 L 291.628906 115.738281 L 291.628906 140.863281 L 417.269531 140.863281 L 417.269531 115.738281 "/>
<path style=" stroke:none;fill-rule:nonzero;fill:rgb(0%,0%,0%);fill-opacity:1;" d="M 341.886719 191.121094 L 367.011719 191.121094 L 367.011719 165.992188 L 341.886719 165.992188 L 341.886719 191.121094 "/>
<path style=" stroke:none;fill-rule:nonzero;fill:rgb(0%,0%,0%);fill-opacity:1;" d="M 392.140625 191.121094 L 417.269531 191.121094 L 417.269531 165.992188 L 392.140625 165.992188 L 392.140625 191.121094 "/>
<path style=" stroke:none;fill-rule:nonzero;fill:rgb(0%,0%,0%);fill-opacity:1;" d="M 316.757812 165.992188 L 291.628906 165.992188 L 291.628906 191.121094 L 316.757812 191.121094 L 316.757812 165.992188 "/>
<g clip-path="url(#clip1)" clip-rule="nonzero">
<path style=" stroke:none;fill-rule:nonzero;fill:rgb(0%,0%,0%);fill-opacity:1;" d="M 379.578125 530.34375 L 379.578125 568.035156 L 241.375 568.035156 L 241.375 316.757812 L 261.300781 316.757812 L 302.671875 358.128906 C 308.316406 363.773438 316.121094 367.011719 324.121094 367.011719 C 340.855469 367.011719 354.449219 353.417969 354.449219 336.683594 L 354.449219 316.757812 L 357.148438 316.757812 L 362.398438 363.726562 C 365.785156 394.25 391.503906 417.269531 422.226562 417.269531 L 429.832031 417.269531 L 429.832031 437.195312 C 429.832031 447.253906 434.839844 456.136719 442.398438 461.636719 L 442.398438 530.34375 Z M 505.214844 605.726562 L 404.703125 605.726562 L 404.703125 555.472656 L 505.214844 555.472656 Z M 630.855469 593.164062 L 630.855469 630.855469 L 693.671875 630.855469 L 693.671875 681.109375 L 630.855469 681.109375 L 630.855469 718.800781 L 530.34375 718.800781 L 530.34375 681.109375 L 467.523438 681.109375 L 467.523438 630.855469 L 530.34375 630.855469 L 530.34375 593.164062 Z M 655.980469 555.472656 L 756.492188 555.472656 L 756.492188 605.726562 L 655.980469 605.726562 Z M 756.492188 756.492188 L 655.980469 756.492188 L 655.980469 706.238281 L 756.492188 706.238281 Z M 505.214844 756.492188 L 404.703125 756.492188 L 404.703125 706.238281 L 505.214844 706.238281 Z M 253.9375 291.628906 L 103.171875 291.628906 L 103.171875 266.503906 C 103.171875 224.933594 136.988281 191.121094 178.554688 191.121094 C 220.125 191.121094 253.9375 224.933594 253.9375 266.503906 Z M 140.863281 128.300781 C 140.863281 107.492188 157.746094 90.609375 178.554688 90.609375 C 199.363281 90.609375 216.246094 107.492188 216.246094 128.300781 C 216.246094 149.109375 199.363281 165.992188 178.554688 165.992188 C 157.746094 165.992188 140.863281 149.109375 140.863281 128.300781 Z M 60.671875 260.464844 L 40.597656 79.273438 C 40.453125 77.996094 40.355469 76.671875 40.355469 75.394531 C 40.355469 56.058594 56.058594 40.355469 75.394531 40.355469 L 407.355469 40.355469 C 426.644531 40.355469 442.398438 56.058594 442.398438 75.394531 C 442.398438 76.671875 442.296875 77.996094 442.152344 79.273438 L 422.078125 260.464844 C 420.066406 278.234375 405.097656 291.628906 387.183594 291.628906 L 329.320312 291.628906 L 329.320312 336.683594 C 329.320312 340.90625 323.433594 343.359375 320.4375 340.363281 L 279.066406 298.992188 L 279.066406 266.503906 C 279.066406 225.914062 254.824219 190.921875 220.074219 175.070312 C 233.03125 163.539062 241.375 146.949219 241.375 128.300781 C 241.375 93.652344 213.203125 65.480469 178.554688 65.480469 C 143.90625 65.480469 115.738281 93.652344 115.738281 128.300781 C 115.738281 146.949219 124.082031 163.539062 137.035156 175.070312 C 102.289062 190.921875 78.046875 225.914062 78.046875 266.503906 L 78.046875 286.871094 C 68.671875 281.472656 61.949219 271.902344 60.671875 260.464844 Z M 460.652344 140.863281 L 734.015625 140.863281 C 753.300781 140.863281 769.054688 156.570312 769.054688 175.90625 C 769.054688 177.183594 768.957031 178.507812 768.8125 179.78125 L 748.738281 360.976562 C 747.460938 372.414062 740.738281 381.980469 731.363281 387.378906 L 731.363281 367.011719 C 731.363281 326.425781 707.121094 291.433594 672.375 275.582031 C 685.328125 264.050781 693.671875 247.460938 693.671875 228.8125 C 693.671875 194.164062 665.503906 165.992188 630.855469 165.992188 C 596.207031 165.992188 568.035156 194.164062 568.035156 228.8125 C 568.035156 247.460938 576.378906 264.050781 589.335938 275.582031 C 554.585938 291.433594 530.34375 326.425781 530.34375 367.011719 L 530.34375 392.140625 L 512.578125 392.140625 L 463.84375 440.875 C 460.851562 443.867188 454.960938 441.414062 454.960938 437.195312 L 454.960938 392.140625 L 422.226562 392.140625 C 404.3125 392.140625 389.34375 378.742188 387.332031 360.976562 L 382.425781 316.757812 L 387.183594 316.757812 C 417.90625 316.757812 443.625 293.742188 447.011719 263.214844 Z M 706.238281 392.140625 L 555.472656 392.140625 L 555.472656 367.011719 C 555.472656 325.445312 589.285156 291.628906 630.855469 291.628906 C 672.421875 291.628906 706.238281 325.445312 706.238281 367.011719 Z M 593.164062 228.8125 C 593.164062 208.003906 610.046875 191.121094 630.855469 191.121094 C 651.664062 191.121094 668.546875 208.003906 668.546875 228.8125 C 668.546875 249.621094 651.664062 266.503906 630.855469 266.503906 C 610.046875 266.503906 593.164062 249.621094 593.164062 228.8125 Z M 140.863281 769.054688 L 40.355469 769.054688 L 40.355469 693.671875 L 140.863281 693.671875 Z M 140.863281 618.289062 L 40.355469 618.289062 L 40.355469 542.90625 L 140.863281 542.90625 Z M 140.863281 467.523438 L 40.355469 467.523438 L 40.355469 392.140625 L 140.863281 392.140625 Z M 481.609375 458.640625 L 522.980469 417.269531 L 713.84375 417.269531 C 744.566406 417.269531 770.28125 394.25 773.667969 363.726562 L 793.789062 182.582031 C 794.035156 180.371094 794.183594 178.164062 794.183594 175.90625 C 794.183594 142.730469 767.191406 115.738281 734.015625 115.738281 L 463.402344 115.738281 L 467.132812 82.070312 C 467.375 79.863281 467.523438 77.652344 467.523438 75.394531 C 467.523438 42.21875 440.53125 15.226562 407.355469 15.226562 L 75.394531 15.226562 C 42.21875 15.226562 15.226562 42.21875 15.226562 75.394531 C 15.226562 77.652344 15.375 79.863281 15.617188 82.070312 L 35.742188 263.214844 C 39.128906 293.742188 64.84375 316.757812 95.566406 316.757812 L 216.246094 316.757812 L 216.246094 417.269531 L 165.992188 417.269531 L 165.992188 367.011719 L 15.226562 367.011719 L 15.226562 492.652344 L 165.992188 492.652344 L 165.992188 442.398438 L 216.246094 442.398438 L 216.246094 568.035156 L 165.992188 568.035156 L 165.992188 517.78125 L 15.226562 517.78125 L 15.226562 643.417969 L 165.992188 643.417969 L 165.992188 593.164062 L 216.246094 593.164062 L 216.246094 718.800781 L 165.992188 718.800781 L 165.992188 668.546875 L 15.226562 668.546875 L 15.226562 794.183594 L 165.992188 794.183594 L 165.992188 743.929688 L 241.375 743.929688 L 241.375 593.164062 L 379.578125 593.164062 L 379.578125 630.855469 L 442.398438 630.855469 L 442.398438 681.109375 L 379.578125 681.109375 L 379.578125 781.621094 L 530.34375 781.621094 L 530.34375 743.929688 L 630.855469 743.929688 L 630.855469 781.621094 L 781.621094 781.621094 L 781.621094 681.109375 L 718.800781 681.109375 L 718.800781 630.855469 L 781.621094 630.855469 L 781.621094 530.34375 L 630.855469 530.34375 L 630.855469 568.035156 L 530.34375 568.035156 L 530.34375 530.34375 L 467.523438 530.34375 L 467.523438 466.492188 C 472.777344 465.167969 477.730469 462.519531 481.609375 458.640625 "/>
</g>
<path style=" stroke:none;fill-rule:nonzero;fill:rgb(0%,0%,0%);fill-opacity:1;" d="M 115.738281 718.800781 L 65.480469 718.800781 L 65.480469 743.929688 L 115.738281 743.929688 L 115.738281 718.800781 "/>
<path style=" stroke:none;fill-rule:nonzero;fill:rgb(0%,0%,0%);fill-opacity:1;" d="M 115.738281 568.035156 L 65.480469 568.035156 L 65.480469 593.164062 L 115.738281 593.164062 L 115.738281 568.035156 "/>
<path style=" stroke:none;fill-rule:nonzero;fill:rgb(0%,0%,0%);fill-opacity:1;" d="M 115.738281 417.269531 L 65.480469 417.269531 L 65.480469 442.398438 L 115.738281 442.398438 L 115.738281 417.269531 "/>
</g>
</svg>
