<?xml version="1.0" encoding="UTF-8"?>
<svg xmlns="http://www.w3.org/2000/svg" xmlns:xlink="http://www.w3.org/1999/xlink" width="810pt" height="809.999993pt" viewBox="0 0 810 809.999993" version="1.2">
<defs>
<clipPath id="clip1">
  <path d="M 13.976562 13.976562 L 796.226562 13.976562 L 796.226562 796.226562 L 13.976562 796.226562 Z M 13.976562 13.976562 "/>
</clipPath>
</defs>
<g id="surface1">
<path style=" stroke:none;fill-rule:nonzero;fill:rgb(21.179199%,68.629456%,67.83905%);fill-opacity:1;" d="M 783.398438 783.398438 L 209.59375 783.398438 L 209.59375 27.019531 L 679.070312 27.019531 L 783.398438 131.347656 L 783.398438 783.398438 "/>
<path style=" stroke:none;fill-rule:nonzero;fill:rgb(96.469116%,74.899292%,60.778809%);fill-opacity:1;" d="M 418.25 340.003906 L 418.25 313.921875 L 261.757812 313.921875 L 261.757812 431.289062 L 287.839844 431.289062 L 326.960938 470.414062 L 340.003906 457.371094 L 509.535156 626.90625 L 652.988281 483.453125 L 509.535156 340.003906 L 418.25 340.003906 "/>
<path style=" stroke:none;fill-rule:nonzero;fill:rgb(92.939758%,70.199585%,54.899597%);fill-opacity:1;" d="M 418.25 613.863281 L 457.371094 574.742188 L 496.496094 613.863281 L 457.371094 652.988281 L 418.25 613.863281 "/>
<path style=" stroke:none;fill-rule:nonzero;fill:rgb(80.778503%,57.249451%,41.569519%);fill-opacity:1;" d="M 379.125 574.742188 L 418.25 535.617188 L 457.371094 574.742188 L 418.25 613.863281 L 379.125 574.742188 "/>
<path style=" stroke:none;fill-rule:nonzero;fill:rgb(92.939758%,70.199585%,54.899597%);fill-opacity:1;" d="M 340.003906 535.617188 L 379.125 496.496094 L 418.25 535.617188 L 379.125 574.742188 L 340.003906 535.617188 "/>
<path style=" stroke:none;fill-rule:nonzero;fill:rgb(80.778503%,57.249451%,41.569519%);fill-opacity:1;" d="M 300.878906 496.496094 L 340.003906 457.371094 L 379.125 496.496094 L 340.003906 535.617188 L 300.878906 496.496094 "/>
<path style=" stroke:none;fill-rule:nonzero;fill:rgb(80.778503%,57.249451%,41.569519%);fill-opacity:1;" d="M 600.824219 548.660156 C 597.460938 548.660156 594.152344 547.386719 591.605469 544.839844 L 526.398438 479.632812 C 521.304688 474.539062 521.304688 466.289062 526.398438 461.195312 C 531.492188 456.097656 539.746094 456.097656 544.839844 461.195312 L 610.042969 526.398438 C 615.140625 531.492188 615.140625 539.746094 610.042969 544.839844 C 607.496094 547.386719 604.1875 548.660156 600.824219 548.660156 "/>
<path style=" stroke:none;fill-rule:nonzero;fill:rgb(80.778503%,57.249451%,41.569519%);fill-opacity:1;" d="M 561.699219 587.78125 C 558.339844 587.78125 555.027344 586.507812 552.480469 583.960938 L 487.277344 518.757812 C 482.179688 513.664062 482.179688 505.410156 487.277344 500.316406 C 492.371094 495.222656 500.621094 495.222656 505.714844 500.316406 L 570.921875 565.523438 C 576.015625 570.617188 576.015625 578.867188 570.921875 583.960938 C 568.375 586.507812 565.0625 587.78125 561.699219 587.78125 "/>
<path style=" stroke:none;fill-rule:nonzero;fill:rgb(80.778503%,57.249451%,41.569519%);fill-opacity:1;" d="M 705.152344 353.042969 L 626.90625 287.839844 L 418.25 287.839844 L 418.25 340.003906 L 509.535156 340.003906 L 652.988281 483.453125 L 731.234375 483.453125 L 731.234375 353.042969 L 705.152344 353.042969 "/>
<path style=" stroke:none;fill-rule:nonzero;fill:rgb(97.648621%,79.998779%,56.858826%);fill-opacity:1;" d="M 561.699219 235.675781 L 405.207031 235.675781 L 405.207031 131.347656 L 561.699219 131.347656 L 561.699219 235.675781 "/>
<path style=" stroke:none;fill-rule:nonzero;fill:rgb(91.369629%,40.779114%,41.569519%);fill-opacity:1;" d="M 366.085938 131.347656 L 483.453125 53.101562 L 600.824219 131.347656 Z M 366.085938 131.347656 "/>
<path style=" stroke:none;fill-rule:nonzero;fill:rgb(100%,100%,100%);fill-opacity:1;" d="M 509.535156 235.675781 L 457.371094 235.675781 L 457.371094 183.511719 L 509.535156 183.511719 L 509.535156 235.675781 "/>
<path style=" stroke:none;fill-rule:nonzero;fill:rgb(91.369629%,40.779114%,41.569519%);fill-opacity:1;" d="M 600.824219 248.714844 L 366.085938 248.714844 C 358.902344 248.714844 353.042969 242.859375 353.042969 235.675781 C 353.042969 228.492188 358.902344 222.632812 366.085938 222.632812 L 600.824219 222.632812 C 608.007812 222.632812 613.863281 228.492188 613.863281 235.675781 C 613.863281 242.859375 608.007812 248.714844 600.824219 248.714844 "/>
<path style=" stroke:none;fill-rule:nonzero;fill:rgb(100%,100%,100%);fill-opacity:1;" d="M 731.234375 666.027344 L 600.824219 666.027344 C 593.640625 666.027344 587.78125 660.171875 587.78125 652.988281 C 587.78125 645.804688 593.640625 639.945312 600.824219 639.945312 L 731.234375 639.945312 C 738.417969 639.945312 744.273438 645.804688 744.273438 652.988281 C 744.273438 660.171875 738.417969 666.027344 731.234375 666.027344 "/>
<path style=" stroke:none;fill-rule:nonzero;fill:rgb(100%,100%,100%);fill-opacity:1;" d="M 731.234375 718.191406 L 600.824219 718.191406 C 593.640625 718.191406 587.78125 712.335938 587.78125 705.152344 C 587.78125 697.96875 593.640625 692.109375 600.824219 692.109375 L 731.234375 692.109375 C 738.417969 692.109375 744.273438 697.96875 744.273438 705.152344 C 744.273438 712.335938 738.417969 718.191406 731.234375 718.191406 "/>
<path style=" stroke:none;fill-rule:nonzero;fill:rgb(13.729858%,53.329468%,57.249451%);fill-opacity:1;" d="M 679.070312 131.347656 L 783.398438 131.347656 L 679.070312 27.019531 Z M 679.070312 131.347656 "/>
<path style=" stroke:none;fill-rule:nonzero;fill:rgb(13.729858%,53.329468%,57.249451%);fill-opacity:1;" d="M 209.59375 66.140625 L 27.019531 118.304688 L 209.59375 666.027344 Z M 209.59375 66.140625 "/>
<path style=" stroke:none;fill-rule:nonzero;fill:rgb(0%,0%,0%);fill-opacity:1;" d="M 718.191406 470.414062 L 658.386719 470.414062 L 518.757812 330.785156 C 516.3125 328.339844 513 326.960938 509.535156 326.960938 L 431.289062 326.960938 L 431.289062 300.878906 L 622.167969 300.878906 L 696.796875 363.082031 C 699.140625 365.015625 702.097656 366.085938 705.152344 366.085938 L 718.191406 366.085938 Z M 600.824219 517.179688 L 544.839844 461.195312 C 539.746094 456.097656 531.492188 456.097656 526.398438 461.195312 C 521.304688 466.289062 521.304688 474.539062 526.398438 479.632812 L 582.382812 535.617188 L 561.699219 556.300781 L 505.714844 500.316406 C 500.621094 495.222656 492.371094 495.222656 487.277344 500.316406 C 482.179688 505.410156 482.179688 513.664062 487.277344 518.757812 L 543.261719 574.742188 L 509.535156 608.464844 L 349.222656 448.152344 C 346.675781 445.605469 343.367188 444.332031 340.003906 444.332031 C 336.640625 444.332031 333.332031 445.605469 330.785156 448.152344 L 326.960938 451.972656 L 297.058594 422.070312 C 294.613281 419.625 291.304688 418.25 287.839844 418.25 L 274.796875 418.25 L 274.796875 326.960938 L 405.207031 326.960938 L 405.207031 340.003906 C 405.207031 347.1875 411.066406 353.042969 418.25 353.042969 L 504.136719 353.042969 L 634.546875 483.453125 Z M 457.371094 634.546875 L 436.691406 613.863281 L 457.371094 593.183594 L 478.054688 613.863281 Z M 418.25 554.058594 L 438.933594 574.742188 L 418.25 595.425781 L 397.566406 574.742188 Z M 379.125 514.9375 L 399.808594 535.617188 L 379.125 556.300781 L 358.445312 535.617188 Z M 336.183594 479.632812 L 340.003906 475.8125 L 360.6875 496.496094 L 340.003906 517.179688 L 319.320312 496.496094 Z M 731.234375 340.003906 L 709.890625 340.003906 L 635.261719 277.804688 C 632.917969 275.867188 629.960938 274.796875 626.90625 274.796875 L 418.25 274.796875 C 411.066406 274.796875 405.207031 280.65625 405.207031 287.839844 L 405.207031 300.878906 L 261.757812 300.878906 C 254.574219 300.878906 248.714844 306.738281 248.714844 313.921875 L 248.714844 431.289062 C 248.714844 438.472656 254.574219 444.332031 261.757812 444.332031 L 282.441406 444.332031 L 308.523438 470.414062 L 291.660156 487.277344 C 286.566406 492.371094 286.566406 500.621094 291.660156 505.714844 L 448.152344 662.207031 C 450.699219 664.753906 454.011719 666.027344 457.371094 666.027344 C 460.734375 666.027344 464.046875 664.753906 466.59375 662.207031 L 496.496094 632.304688 L 500.316406 636.125 C 502.863281 638.671875 506.175781 639.945312 509.535156 639.945312 C 512.898438 639.945312 516.210938 638.671875 518.757812 636.125 L 658.386719 496.496094 L 731.234375 496.496094 C 738.417969 496.496094 744.273438 490.636719 744.273438 483.453125 L 744.273438 353.042969 C 744.273438 345.863281 738.417969 340.003906 731.234375 340.003906 "/>
<path style=" stroke:none;fill-rule:nonzero;fill:rgb(0%,0%,0%);fill-opacity:1;" d="M 418.25 144.386719 L 548.660156 144.386719 L 548.660156 222.632812 L 522.578125 222.632812 L 522.578125 183.511719 C 522.578125 176.328125 516.71875 170.46875 509.535156 170.46875 L 457.371094 170.46875 C 450.191406 170.46875 444.332031 176.328125 444.332031 183.511719 L 444.332031 222.632812 L 418.25 222.632812 Z M 483.453125 68.792969 L 557.777344 118.304688 L 409.132812 118.304688 Z M 470.414062 222.632812 L 470.414062 196.550781 L 496.496094 196.550781 L 496.496094 222.632812 Z M 366.085938 222.632812 C 358.902344 222.632812 353.042969 228.492188 353.042969 235.675781 C 353.042969 242.859375 358.902344 248.714844 366.085938 248.714844 L 600.824219 248.714844 C 608.007812 248.714844 613.863281 242.859375 613.863281 235.675781 C 613.863281 228.492188 608.007812 222.632812 600.824219 222.632812 L 574.742188 222.632812 L 574.742188 144.386719 L 600.824219 144.386719 C 606.582031 144.386719 611.625 140.617188 613.304688 135.117188 C 614.984375 129.617188 612.847656 123.707031 608.058594 120.496094 L 490.6875 42.25 C 486.308594 39.347656 480.601562 39.347656 476.222656 42.25 L 358.851562 120.496094 C 354.0625 123.707031 351.925781 129.617188 353.605469 135.117188 C 355.285156 140.617188 360.328125 144.386719 366.085938 144.386719 L 392.167969 144.386719 L 392.167969 222.632812 L 366.085938 222.632812 "/>
<path style=" stroke:none;fill-rule:nonzero;fill:rgb(0%,0%,0%);fill-opacity:1;" d="M 731.234375 639.945312 L 600.824219 639.945312 C 593.640625 639.945312 587.78125 645.804688 587.78125 652.988281 C 587.78125 660.171875 593.640625 666.027344 600.824219 666.027344 L 731.234375 666.027344 C 738.417969 666.027344 744.273438 660.171875 744.273438 652.988281 C 744.273438 645.804688 738.417969 639.945312 731.234375 639.945312 "/>
<path style=" stroke:none;fill-rule:nonzero;fill:rgb(0%,0%,0%);fill-opacity:1;" d="M 731.234375 692.109375 L 600.824219 692.109375 C 593.640625 692.109375 587.78125 697.96875 587.78125 705.152344 C 587.78125 712.335938 593.640625 718.191406 600.824219 718.191406 L 731.234375 718.191406 C 738.417969 718.191406 744.273438 712.335938 744.273438 705.152344 C 744.273438 697.96875 738.417969 692.109375 731.234375 692.109375 "/>
<g clip-path="url(#clip1)" clip-rule="nonzero">
<path style=" stroke:none;fill-rule:nonzero;fill:rgb(0%,0%,0%);fill-opacity:1;" d="M 222.632812 770.355469 L 222.632812 40.058594 L 666.027344 40.058594 L 666.027344 131.347656 C 666.027344 138.53125 671.886719 144.386719 679.070312 144.386719 L 770.355469 144.386719 L 770.355469 770.355469 Z M 43.726562 127.121094 L 196.550781 83.410156 L 196.550781 585.695312 Z M 751.917969 118.304688 L 692.109375 118.304688 L 692.109375 58.5 Z M 795.625 127.171875 C 795.472656 126.761719 795.371094 126.355469 795.164062 125.949219 C 794.554688 124.574219 793.738281 123.246094 792.617188 122.128906 L 688.289062 17.800781 C 687.171875 16.679688 685.84375 15.863281 684.46875 15.253906 C 684.0625 15.046875 683.65625 14.945312 683.246094 14.792969 C 682.125 14.4375 681.058594 14.234375 679.9375 14.132812 C 679.628906 14.132812 679.375 13.976562 679.070312 13.976562 L 209.59375 13.976562 C 202.410156 13.976562 196.550781 19.835938 196.550781 27.019531 L 196.550781 56.3125 L 23.453125 105.773438 C 19.988281 106.742188 17.136719 109.085938 15.457031 112.246094 C 13.824219 115.351562 13.519531 119.070312 14.640625 122.433594 L 196.550781 668.117188 L 196.550781 783.398438 C 196.550781 790.582031 202.410156 796.4375 209.59375 796.4375 L 783.398438 796.4375 C 790.582031 796.4375 796.4375 790.582031 796.4375 783.398438 L 796.4375 131.347656 C 796.4375 131.042969 795.980469 128.292969 795.625 127.171875 "/>
</g>
</g>
</svg>
