<?xml version="1.0" encoding="UTF-8"?>
<svg xmlns="http://www.w3.org/2000/svg" xmlns:xlink="http://www.w3.org/1999/xlink" width="810pt" height="809.999993pt" viewBox="0 0 810 809.999993" version="1.2">
<defs>
<clipPath id="clip1">
  <path d="M 15.226562 15.226562 L 794.183594 15.226562 L 794.183594 794.183594 L 15.226562 794.183594 Z M 15.226562 15.226562 "/>
</clipPath>
</defs>
<g id="surface1">
<path style=" stroke:none;fill-rule:nonzero;fill:rgb(98.81897%,84.309387%,43.919373%);fill-opacity:1;" d="M 706.238281 467.523438 L 655.980469 467.523438 L 655.980469 367.011719 L 618.289062 367.011719 L 655.980469 241.375 L 745.84375 268.269531 C 767.042969 274.648438 781.621094 294.28125 781.621094 316.511719 L 781.621094 467.523438 L 706.238281 467.523438 "/>
<path style=" stroke:none;fill-rule:nonzero;fill:rgb(98.81897%,84.309387%,43.919373%);fill-opacity:1;" d="M 580.597656 241.375 L 618.289062 367.011719 L 580.597656 367.011719 L 580.597656 467.523438 L 480.089844 467.523438 L 477.683594 466.394531 C 482.738281 458.835938 486.761719 450.542969 489.265625 441.511719 L 492.652344 442.398438 C 522.050781 442.398438 545.558594 417.121094 542.660156 387.234375 C 540.257812 361.859375 518.023438 342.917969 492.652344 342.03125 C 491.914062 341.886719 491.277344 341.886719 490.542969 341.886719 L 489.65625 338.253906 C 528.578125 329.175781 562.242188 303.164062 580.597656 266.503906 C 564.011719 266.503906 547.816406 262.722656 533.238281 255.558594 L 580.597656 241.375 "/>
<path style=" stroke:none;fill-rule:nonzero;fill:rgb(100%,50.979614%,43.139648%);fill-opacity:1;" d="M 228.8125 367.011719 L 191.121094 367.011719 L 228.8125 241.375 L 277.300781 255.953125 C 270.378906 271.753906 266.503906 289.226562 266.503906 307.582031 L 266.503906 392.140625 C 266.503906 419.773438 288.980469 442.398438 316.757812 442.398438 L 320.144531 441.511719 C 322.648438 450.542969 326.671875 458.835938 331.726562 466.394531 L 329.320312 467.523438 L 228.8125 467.523438 L 228.8125 367.011719 "/>
<path style=" stroke:none;fill-rule:nonzero;fill:rgb(100%,50.979614%,43.139648%);fill-opacity:1;" d="M 103.171875 467.523438 L 27.789062 467.523438 L 27.789062 316.511719 C 27.789062 294.28125 42.367188 274.648438 63.617188 268.269531 L 153.429688 241.375 L 191.121094 367.011719 L 153.429688 367.011719 L 153.429688 467.523438 L 103.171875 467.523438 "/>
<path style=" stroke:none;fill-rule:nonzero;fill:rgb(90.19928%,91.369629%,92.939758%);fill-opacity:1;" d="M 655.980469 367.011719 L 655.980469 467.523438 L 580.597656 467.523438 L 580.597656 367.011719 L 655.980469 367.011719 "/>
<path style=" stroke:none;fill-rule:nonzero;fill:rgb(90.19928%,91.369629%,92.939758%);fill-opacity:1;" d="M 228.8125 367.011719 L 228.8125 467.523438 L 153.429688 467.523438 L 153.429688 367.011719 L 228.8125 367.011719 "/>
<path style=" stroke:none;fill-rule:nonzero;fill:rgb(94.119263%,81.568909%,70.588684%);fill-opacity:1;" d="M 655.980469 206.089844 C 644.9375 212.617188 632.082031 216.246094 618.289062 216.246094 C 604.597656 216.246094 591.640625 212.617188 580.597656 206.089844 C 558.121094 193.132812 542.90625 168.742188 542.90625 140.863281 L 542.90625 103.171875 C 542.90625 82.316406 551.300781 63.46875 565.042969 49.925781 C 578.585938 36.183594 597.433594 27.789062 618.289062 27.789062 C 659.859375 27.789062 693.671875 61.605469 693.671875 103.171875 L 693.671875 140.863281 C 693.671875 161.722656 685.28125 180.570312 671.539062 194.113281 C 666.925781 198.777344 661.773438 202.800781 655.980469 206.089844 "/>
<path style=" stroke:none;fill-rule:nonzero;fill:rgb(94.119263%,81.568909%,70.588684%);fill-opacity:1;" d="M 580.597656 206.089844 C 591.640625 212.617188 604.597656 216.246094 618.289062 216.246094 C 632.082031 216.246094 644.9375 212.617188 655.980469 206.089844 L 655.980469 241.375 L 618.289062 367.011719 L 580.597656 241.375 L 580.597656 206.089844 "/>
<path style=" stroke:none;fill-rule:nonzero;fill:rgb(94.119263%,81.568909%,70.588684%);fill-opacity:1;" d="M 228.8125 206.089844 C 217.769531 212.617188 204.910156 216.246094 191.121094 216.246094 L 153.429688 206.089844 C 147.636719 202.800781 142.484375 198.777344 137.871094 194.113281 C 124.128906 180.570312 115.738281 161.722656 115.738281 140.863281 L 115.738281 103.171875 C 115.738281 61.605469 149.550781 27.789062 191.121094 27.789062 C 211.976562 27.789062 230.824219 36.183594 244.367188 49.925781 C 258.109375 63.46875 266.503906 82.316406 266.503906 103.171875 L 266.503906 140.863281 C 266.503906 168.742188 251.289062 193.132812 228.8125 206.089844 "/>
<path style=" stroke:none;fill-rule:nonzero;fill:rgb(94.119263%,81.568909%,70.588684%);fill-opacity:1;" d="M 153.429688 206.089844 L 191.121094 216.246094 C 204.910156 216.246094 217.769531 212.617188 228.8125 206.089844 L 228.8125 241.375 L 191.121094 367.011719 L 153.429688 241.375 L 153.429688 206.089844 "/>
<path style=" stroke:none;fill-rule:nonzero;fill:rgb(70.588684%,86.669922%,49.798584%);fill-opacity:1;" d="M 559.839844 554.585938 L 478.175781 535.742188 L 453.585938 604.449219 L 453.195312 604.351562 L 404.703125 568.035156 L 355.824219 604.695312 L 331.234375 535.742188 L 249.570312 554.585938 C 215.363281 562.488281 191.121094 592.917969 191.121094 627.957031 L 191.121094 781.621094 L 329.320312 781.621094 L 329.320312 706.238281 L 480.089844 706.238281 L 480.089844 781.621094 L 618.289062 781.621094 L 618.289062 627.957031 C 618.289062 592.917969 594.046875 562.488281 559.839844 554.585938 "/>
<path style=" stroke:none;fill-rule:nonzero;fill:rgb(90.19928%,91.369629%,92.939758%);fill-opacity:1;" d="M 417.269531 706.238281 L 480.089844 706.238281 L 480.089844 781.621094 L 329.320312 781.621094 L 329.320312 706.238281 L 417.269531 706.238281 "/>
<path style=" stroke:none;fill-rule:nonzero;fill:rgb(54.899597%,75.689697%,32.159424%);fill-opacity:1;" d="M 454.960938 530.34375 L 478.175781 535.742188 L 453.585938 604.449219 L 453.195312 604.351562 L 404.703125 568.035156 L 454.960938 530.34375 "/>
<path style=" stroke:none;fill-rule:nonzero;fill:rgb(54.899597%,75.689697%,32.159424%);fill-opacity:1;" d="M 354.449219 530.34375 L 404.703125 568.035156 L 355.824219 604.695312 L 331.234375 535.742188 L 354.449219 530.34375 "/>
<path style=" stroke:none;fill-rule:nonzero;fill:rgb(69.799805%,47.44873%,27.449036%);fill-opacity:1;" d="M 533.238281 255.558594 C 547.816406 262.722656 564.011719 266.503906 580.597656 266.503906 C 562.242188 303.164062 528.578125 329.175781 489.65625 338.253906 C 479.597656 340.609375 469.144531 341.886719 458.59375 341.886719 L 318.867188 341.886719 C 318.132812 341.886719 317.496094 341.886719 316.757812 342.03125 C 291.386719 342.917969 269.152344 361.859375 266.75 387.234375 C 266.648438 388.851562 266.503906 390.523438 266.503906 392.140625 L 266.503906 307.582031 C 266.503906 289.226562 270.378906 271.753906 277.300781 255.953125 C 283.828125 241.128906 293.003906 227.683594 304.339844 216.394531 C 327.703125 192.984375 359.996094 178.554688 395.527344 178.554688 C 433.21875 178.554688 469.046875 194.996094 493.683594 223.660156 L 497.707031 228.320312 C 507.621094 239.855469 519.792969 249.179688 533.238281 255.558594 "/>
<path style=" stroke:none;fill-rule:nonzero;fill:rgb(94.119263%,81.568909%,70.588684%);fill-opacity:1;" d="M 404.703125 505.214844 C 422.914062 505.214844 439.894531 499.667969 453.832031 490.246094 L 454.960938 492.652344 L 454.960938 530.34375 L 404.703125 568.035156 L 354.449219 530.34375 L 354.449219 492.652344 L 355.578125 490.246094 C 392.632812 504.578125 398.667969 505.214844 404.703125 505.214844 "/>
<path style=" stroke:none;fill-rule:nonzero;fill:rgb(94.119263%,81.568909%,70.588684%);fill-opacity:1;" d="M 542.660156 387.234375 C 545.558594 417.121094 522.050781 442.398438 492.652344 442.398438 L 489.265625 441.511719 C 491.523438 433.855469 492.652344 425.660156 492.652344 417.269531 L 492.652344 342.03125 C 518.023438 342.917969 540.257812 361.859375 542.660156 387.234375 "/>
<path style=" stroke:none;fill-rule:nonzero;fill:rgb(94.119263%,81.568909%,70.588684%);fill-opacity:1;" d="M 490.542969 341.886719 C 491.277344 341.886719 491.914062 341.886719 492.652344 342.03125 L 492.652344 417.269531 C 492.652344 425.660156 491.523438 433.855469 489.265625 441.511719 C 486.761719 450.542969 482.738281 458.835938 477.683594 466.394531 C 471.304688 475.816406 463.253906 483.867188 453.832031 490.246094 C 439.894531 499.667969 422.914062 505.214844 404.703125 505.214844 C 398.667969 505.214844 392.632812 504.578125 355.578125 490.246094 C 350.816406 487.007812 346.546875 483.472656 342.523438 479.449219 C 338.5 475.425781 334.964844 471.15625 331.726562 466.394531 C 326.671875 458.835938 322.648438 450.542969 320.144531 441.511719 C 317.886719 433.855469 316.757812 425.660156 316.757812 417.269531 L 316.757812 342.03125 C 317.496094 341.886719 318.132812 341.886719 318.867188 341.886719 L 458.59375 341.886719 C 469.144531 341.886719 479.597656 340.609375 489.65625 338.253906 L 490.542969 341.886719 "/>
<path style=" stroke:none;fill-rule:nonzero;fill:rgb(94.119263%,81.568909%,70.588684%);fill-opacity:1;" d="M 316.757812 417.269531 C 316.757812 425.660156 317.886719 433.855469 320.144531 441.511719 L 316.757812 442.398438 C 288.980469 442.398438 266.503906 419.773438 266.503906 392.140625 C 266.503906 390.523438 266.648438 388.851562 266.75 387.234375 C 269.152344 361.859375 291.386719 342.917969 316.757812 342.03125 L 316.757812 417.269531 "/>
<g clip-path="url(#clip1)" clip-rule="nonzero">
<path style=" stroke:none;fill-rule:nonzero;fill:rgb(0%,0%,0%);fill-opacity:1;" d="M 442.398438 524.0625 L 404.703125 552.328125 L 367.011719 524.0625 L 367.011719 510.367188 C 378.644531 515.128906 391.355469 517.78125 404.703125 517.78125 C 418.054688 517.78125 430.765625 515.128906 442.398438 510.367188 Z M 605.726562 628.007812 L 605.726562 769.054688 L 542.90625 769.054688 L 542.90625 630.855469 L 517.78125 630.855469 L 517.78125 769.054688 L 492.652344 769.054688 L 492.652344 693.671875 L 435.085938 693.671875 L 486.222656 550.464844 L 557.042969 566.808594 C 585.703125 573.382812 605.726562 598.5625 605.726562 628.007812 Z M 203.683594 628.007812 C 203.683594 598.5625 223.707031 573.382812 252.367188 566.808594 L 323.1875 550.464844 L 374.324219 693.671875 L 316.757812 693.671875 L 316.757812 769.054688 L 291.628906 769.054688 L 291.628906 630.855469 L 266.503906 630.855469 L 266.503906 769.054688 L 203.683594 769.054688 Z M 361.957031 584.378906 L 347.824219 544.773438 L 351.601562 543.890625 L 383.796875 568.035156 Z M 400.976562 693.671875 L 370.792969 609.160156 L 404.703125 583.738281 L 438.617188 609.160156 L 408.433594 693.671875 Z M 467.523438 769.054688 L 341.886719 769.054688 L 341.886719 718.800781 L 467.523438 718.800781 Z M 457.808594 543.890625 L 461.585938 544.773438 L 447.453125 584.378906 L 425.613281 568.035156 Z M 329.320312 417.269531 L 329.320312 354.449219 L 458.640625 354.449219 C 465.90625 354.449219 473.070312 353.910156 480.089844 352.929688 L 480.089844 417.269531 C 480.089844 458.835938 446.273438 492.652344 404.703125 492.652344 C 363.136719 492.652344 329.320312 458.835938 329.320312 417.269531 Z M 241.375 454.960938 L 241.375 354.449219 L 208.003906 354.449219 L 237.253906 257.03125 L 260.859375 264.097656 C 256.394531 277.839844 253.9375 292.464844 253.9375 307.628906 L 253.9375 392.140625 L 254.28125 392.140625 C 254.332031 407.699219 259.78125 422.863281 270.28125 434.398438 C 280.933594 446.125 295.703125 453.046875 311.410156 454.421875 C 311.457031 454.566406 311.507812 454.765625 311.605469 454.960938 Z M 40.355469 316.464844 C 40.355469 299.679688 51.152344 285.152344 67.199219 280.34375 L 144.988281 257.03125 L 174.238281 354.449219 L 140.863281 354.449219 L 140.863281 454.960938 L 115.738281 454.960938 L 115.738281 316.757812 L 90.609375 316.757812 L 90.609375 454.960938 L 40.355469 454.960938 Z M 216.246094 454.960938 L 165.992188 454.960938 L 165.992188 379.578125 L 216.246094 379.578125 Z M 191.121094 228.8125 C 199.855469 228.8125 208.25 227.488281 216.246094 225.128906 L 216.246094 239.511719 L 191.121094 323.285156 L 165.992188 239.511719 L 165.992188 225.128906 C 173.992188 227.488281 182.382812 228.8125 191.121094 228.8125 Z M 128.300781 140.863281 L 128.300781 103.171875 C 128.300781 68.523438 156.472656 40.355469 191.121094 40.355469 C 225.769531 40.355469 253.9375 68.523438 253.9375 103.171875 L 253.9375 140.863281 C 253.9375 175.511719 225.769531 203.683594 191.121094 203.683594 C 156.472656 203.683594 128.300781 175.511719 128.300781 140.863281 Z M 304.734375 427.671875 C 298.746094 425.613281 293.199219 422.273438 288.882812 417.464844 C 281.617188 409.515625 278.183594 399.207031 279.261719 388.410156 C 280.589844 374.179688 290.648438 362.253906 304.195312 357.148438 L 304.195312 417.269531 C 304.195312 420.753906 304.390625 424.238281 304.734375 427.671875 Z M 395.578125 191.121094 C 429.636719 191.121094 461.878906 205.941406 484.0625 231.804688 L 488.085938 236.515625 C 506.640625 258.160156 531.960938 272.246094 559.59375 277.054688 C 536.574219 309.640625 499.425781 329.320312 458.640625 329.320312 L 318.917969 329.320312 C 304 329.320312 290.207031 334.523438 279.066406 342.964844 L 279.066406 307.628906 C 279.066406 243.386719 331.335938 191.121094 395.578125 191.121094 Z M 618.289062 228.8125 C 627.027344 228.8125 635.417969 227.488281 643.417969 225.128906 L 643.417969 239.511719 L 618.289062 323.285156 L 593.164062 239.511719 L 593.164062 225.128906 C 601.160156 227.488281 609.554688 228.8125 618.289062 228.8125 Z M 555.472656 140.863281 L 555.472656 103.171875 C 555.472656 68.523438 583.640625 40.355469 618.289062 40.355469 C 652.9375 40.355469 681.109375 68.523438 681.109375 103.171875 L 681.109375 140.863281 C 681.109375 175.511719 652.9375 203.683594 618.289062 203.683594 C 583.640625 203.683594 555.472656 175.511719 555.472656 140.863281 Z M 742.210938 280.34375 C 758.257812 285.152344 769.054688 299.679688 769.054688 316.464844 L 769.054688 454.960938 L 718.800781 454.960938 L 718.800781 316.757812 L 693.671875 316.757812 L 693.671875 454.960938 L 668.546875 454.960938 L 668.546875 354.449219 L 635.171875 354.449219 L 664.421875 257.03125 Z M 643.417969 454.960938 L 593.164062 454.960938 L 593.164062 379.578125 L 643.417969 379.578125 Z M 498 454.421875 C 513.707031 453.046875 528.476562 446.125 539.128906 434.398438 C 551.003906 421.34375 556.84375 403.675781 555.175781 386.007812 C 553.3125 366.179688 541.53125 349.050781 524.894531 338.941406 C 547.570312 327.703125 567.25 310.722656 581.824219 289.175781 L 601.40625 354.449219 L 568.035156 354.449219 L 568.035156 454.960938 L 497.804688 454.960938 C 497.902344 454.765625 497.953125 454.566406 498 454.421875 Z M 505.214844 417.269531 L 505.214844 357.148438 C 518.761719 362.253906 528.820312 374.179688 530.148438 388.410156 C 531.226562 399.207031 527.792969 409.515625 520.527344 417.464844 C 516.210938 422.273438 510.664062 425.613281 504.675781 427.671875 C 505.019531 424.238281 505.214844 420.753906 505.214844 417.269531 Z M 483.03125 480.089844 L 794.183594 480.089844 L 794.183594 316.464844 C 794.183594 288.488281 776.222656 264.34375 749.425781 256.292969 L 668.546875 232.050781 L 668.546875 212.910156 C 691.269531 197.007812 706.238281 170.65625 706.238281 140.863281 L 706.238281 103.171875 C 706.238281 54.683594 666.777344 15.226562 618.289062 15.226562 C 569.800781 15.226562 530.34375 54.683594 530.34375 103.171875 L 530.34375 140.863281 C 530.34375 170.65625 545.3125 197.007812 568.035156 212.910156 L 568.035156 232.050781 L 534.464844 242.113281 C 524.257812 236.515625 514.933594 229.203125 507.179688 220.175781 L 503.15625 215.460938 C 476.210938 184.003906 436.996094 165.992188 395.578125 165.992188 C 341.640625 165.992188 294.625 196.320312 270.773438 240.835938 L 241.375 232.050781 L 241.375 212.910156 C 264.097656 197.007812 279.066406 170.65625 279.066406 140.863281 L 279.066406 103.171875 C 279.066406 54.683594 239.609375 15.226562 191.121094 15.226562 C 142.632812 15.226562 103.171875 54.683594 103.171875 103.171875 L 103.171875 140.863281 C 103.171875 170.65625 118.09375 197.007812 140.863281 212.910156 L 140.863281 232.050781 L 59.984375 256.292969 C 33.1875 264.34375 15.226562 288.488281 15.226562 316.464844 L 15.226562 480.089844 L 326.378906 480.089844 C 330.992188 485.828125 336.144531 490.984375 341.886719 495.597656 L 341.886719 520.332031 L 246.726562 542.316406 C 206.578125 551.59375 178.554688 586.832031 178.554688 628.007812 L 178.554688 794.183594 L 630.855469 794.183594 L 630.855469 628.007812 C 630.855469 586.832031 602.832031 551.59375 562.683594 542.316406 L 467.523438 520.332031 L 467.523438 495.597656 C 473.265625 490.984375 478.417969 485.828125 483.03125 480.089844 "/>
</g>
</g>
</svg>
