<?xml version="1.0" encoding="UTF-8"?>
<svg xmlns="http://www.w3.org/2000/svg" xmlns:xlink="http://www.w3.org/1999/xlink" width="810pt" height="809.999993pt" viewBox="0 0 810 809.999993" version="1.2">
<defs>
<clipPath id="clip1">
  <path d="M 35.820312 95 L 773.46875 95 L 773.46875 773.46875 L 35.820312 773.46875 Z M 35.820312 95 "/>
</clipPath>
<clipPath id="clip2">
  <path d="M 487 35.820312 L 773.46875 35.820312 L 773.46875 298 L 487 298 Z M 487 35.820312 "/>
</clipPath>
</defs>
<g id="surface1">
<rect x="0" y="0" width="810" height="809.999993" style="fill:rgb(100%,100%,100%);fill-opacity:1;stroke:none;"/>
<rect x="0" y="0" width="810" height="809.999993" style="fill:rgb(100%,100%,100%);fill-opacity:1;stroke:none;"/>
<rect x="0" y="0" width="810" height="809.999993" style="fill:rgb(100%,100%,100%);fill-opacity:1;stroke:none;"/>
<path style=" stroke:none;fill-rule:nonzero;fill:rgb(98.81897%,84.309387%,43.919373%);fill-opacity:1;" d="M 671.269531 102.324219 C 675.683594 106.601562 678.289062 112.550781 678.289062 119.101562 C 678.289062 132.207031 667.597656 142.898438 654.492188 142.898438 L 606.902344 142.898438 C 600.347656 142.898438 594.402344 140.296875 590.125 135.878906 C 585.710938 131.605469 583.105469 125.65625 583.105469 119.101562 C 583.105469 105.996094 593.796875 95.308594 606.902344 95.308594 L 654.492188 95.308594 C 661.046875 95.308594 666.996094 97.910156 671.269531 102.324219 "/>
<path style=" stroke:none;fill-rule:nonzero;fill:rgb(98.81897%,84.309387%,43.919373%);fill-opacity:1;" d="M 671.269531 149.914062 C 675.683594 154.191406 678.289062 160.140625 678.289062 166.691406 C 678.289062 179.796875 667.597656 190.488281 654.492188 190.488281 L 606.902344 190.488281 C 600.347656 190.488281 594.402344 187.886719 590.125 183.46875 C 585.710938 179.195312 583.105469 173.246094 583.105469 166.691406 C 583.105469 153.585938 593.796875 142.898438 606.902344 142.898438 L 654.492188 142.898438 C 661.046875 142.898438 666.996094 145.5 671.269531 149.914062 "/>
<path style=" stroke:none;fill-rule:nonzero;fill:rgb(98.81897%,84.309387%,43.919373%);fill-opacity:1;" d="M 671.269531 197.503906 C 675.683594 201.78125 678.289062 207.730469 678.289062 214.28125 C 678.289062 227.390625 667.597656 238.078125 654.492188 238.078125 L 606.902344 238.078125 C 600.347656 238.078125 594.402344 235.476562 590.125 231.058594 C 585.710938 226.785156 583.105469 220.835938 583.105469 214.28125 C 583.105469 201.175781 593.796875 190.488281 606.902344 190.488281 L 654.492188 190.488281 C 661.046875 190.488281 666.996094 193.089844 671.269531 197.503906 "/>
<path style=" stroke:none;fill-rule:nonzero;fill:rgb(98.81897%,84.309387%,43.919373%);fill-opacity:1;" d="M 671.269531 54.734375 C 675.683594 59.011719 678.289062 64.960938 678.289062 71.511719 C 678.289062 84.617188 667.597656 95.308594 654.492188 95.308594 L 606.902344 95.308594 C 600.347656 95.308594 594.402344 92.703125 590.125 88.289062 C 585.710938 84.015625 583.105469 78.066406 583.105469 71.511719 C 583.105469 58.40625 593.796875 47.71875 606.902344 47.71875 L 654.492188 47.71875 C 661.046875 47.71875 666.996094 50.320312 671.269531 54.734375 "/>
<path style=" stroke:none;fill-rule:nonzero;fill:rgb(79.998779%,81.959534%,85.099792%);fill-opacity:1;" d="M 713.980469 261.875 L 713.980469 285.667969 L 547.414062 285.667969 L 547.414062 261.875 C 547.414062 248.765625 558.105469 238.078125 571.210938 238.078125 L 690.183594 238.078125 C 703.292969 238.078125 713.980469 248.765625 713.980469 261.875 "/>
<path style=" stroke:none;fill-rule:nonzero;fill:rgb(58.81958%,62.348938%,66.668701%);fill-opacity:1;" d="M 499.824219 761.570312 L 47.71875 761.570312 L 47.71875 107.207031 L 499.824219 107.207031 L 499.824219 761.570312 "/>
<path style=" stroke:none;fill-rule:nonzero;fill:rgb(90.19928%,91.369629%,92.939758%);fill-opacity:1;" d="M 452.234375 404.644531 L 95.308594 404.644531 L 95.308594 154.796875 L 452.234375 154.796875 L 452.234375 404.644531 "/>
<path style=" stroke:none;fill-rule:nonzero;fill:rgb(70.588684%,86.669922%,49.798584%);fill-opacity:1;" d="M 178.589844 761.570312 L 107.203125 761.570312 L 107.203125 666.390625 C 107.203125 627.027344 139.226562 595.003906 178.589844 595.003906 L 368.953125 595.003906 C 382.058594 595.003906 392.746094 584.316406 392.746094 571.210938 L 392.746094 410.59375 C 392.746094 394.1875 406.085938 380.847656 422.492188 380.847656 C 430.714844 380.847656 438.199219 384.195312 443.542969 389.539062 C 447.585938 393.582031 450.46875 398.835938 451.628906 404.644531 C 452 406.550781 452.234375 408.59375 452.234375 410.59375 L 452.234375 583.105469 C 452.234375 622.472656 420.214844 654.492188 380.847656 654.492188 L 357.054688 654.492188 L 357.054688 761.570312 L 178.589844 761.570312 "/>
<path style=" stroke:none;fill-rule:nonzero;fill:rgb(94.119263%,81.568909%,70.588684%);fill-opacity:1;" d="M 249.976562 559.3125 C 262.847656 559.3125 274.839844 556.476562 285.667969 551.226562 L 285.667969 595.003906 L 214.28125 595.003906 L 214.28125 551.226562 C 225.113281 556.476562 237.101562 559.3125 249.976562 559.3125 "/>
<path style=" stroke:none;fill-rule:nonzero;fill:rgb(94.119263%,81.568909%,70.588684%);fill-opacity:1;" d="M 333.257812 440.335938 L 333.257812 476.03125 C 333.257812 499.128906 323.964844 519.808594 308.859375 534.914062 C 302.214844 541.605469 294.359375 547.183594 285.667969 551.226562 C 274.839844 556.476562 262.847656 559.3125 249.976562 559.3125 C 237.101562 559.3125 225.113281 556.476562 214.28125 551.226562 C 186.074219 537.886719 166.691406 509.351562 166.691406 476.03125 L 166.691406 440.335938 L 333.257812 440.335938 "/>
<path style=" stroke:none;fill-rule:nonzero;fill:rgb(100%,91.758728%,65.489197%);fill-opacity:1;" d="M 356.355469 392.746094 L 143.59375 392.746094 C 149.542969 339.207031 194.902344 297.566406 249.976562 297.566406 C 305.046875 297.566406 350.40625 339.207031 356.355469 392.746094 "/>
<path style=" stroke:none;fill-rule:nonzero;fill:rgb(98.81897%,84.309387%,43.919373%);fill-opacity:1;" d="M 368.953125 404.644531 L 368.953125 428.4375 C 368.953125 434.992188 363.605469 440.335938 357.054688 440.335938 L 142.898438 440.335938 C 136.34375 440.335938 131 434.992188 131 428.4375 L 131 404.644531 C 131 398.089844 136.34375 392.746094 142.898438 392.746094 L 357.054688 392.746094 C 363.605469 392.746094 368.953125 398.089844 368.953125 404.644531 "/>
<path style=" stroke:none;fill-rule:nonzero;fill:rgb(81.17981%,61.959839%,46.269226%);fill-opacity:1;" d="M 713.980469 595.003906 L 713.980469 761.570312 L 499.824219 761.570312 L 499.824219 595.003906 L 713.980469 595.003906 "/>
<path style=" stroke:none;fill-rule:nonzero;fill:rgb(79.998779%,81.959534%,85.099792%);fill-opacity:1;" d="M 713.980469 499.824219 C 740.285156 499.824219 761.570312 521.109375 761.570312 547.414062 C 761.570312 560.519531 756.226562 572.417969 747.675781 581.109375 C 738.984375 589.660156 727.085938 595.003906 713.980469 595.003906 L 499.824219 595.003906 L 499.824219 499.824219 L 713.980469 499.824219 "/>
<path style=" stroke:none;fill-rule:nonzero;fill:rgb(58.81958%,62.348938%,66.668701%);fill-opacity:1;" d="M 583.105469 511.722656 C 602.859375 511.722656 618.800781 527.664062 618.800781 547.414062 C 618.800781 567.167969 602.859375 583.105469 583.105469 583.105469 C 563.355469 583.105469 547.414062 567.167969 547.414062 547.414062 C 547.414062 527.664062 563.355469 511.722656 583.105469 511.722656 "/>
<path style=" stroke:none;fill-rule:nonzero;fill:rgb(58.81958%,62.348938%,66.668701%);fill-opacity:1;" d="M 678.289062 511.722656 C 698.039062 511.722656 713.980469 527.664062 713.980469 547.414062 C 713.980469 567.167969 698.039062 583.105469 678.289062 583.105469 C 658.535156 583.105469 642.59375 567.167969 642.59375 547.414062 C 642.59375 527.664062 658.535156 511.722656 678.289062 511.722656 "/>
<path style=" stroke:none;fill-rule:nonzero;fill:rgb(82.749939%,62.748718%,42.349243%);fill-opacity:1;" d="M 690.183594 333.257812 L 571.210938 333.257812 C 558.105469 333.257812 547.414062 343.949219 547.414062 357.054688 L 547.414062 476.03125 C 547.414062 489.136719 558.105469 499.824219 571.210938 499.824219 L 690.183594 499.824219 C 703.292969 499.824219 713.980469 489.136719 713.980469 476.03125 L 713.980469 357.054688 C 713.980469 343.949219 703.292969 333.257812 690.183594 333.257812 "/>
<path style=" stroke:none;fill-rule:nonzero;fill:rgb(69.799805%,47.44873%,27.449036%);fill-opacity:1;" d="M 666.390625 333.257812 L 666.390625 380.847656 L 595.003906 380.847656 L 595.003906 333.257812 L 666.390625 333.257812 "/>
<g clip-path="url(#clip1)" clip-rule="nonzero">
<path style=" stroke:none;fill-rule:nonzero;fill:rgb(0%,0%,0%);fill-opacity:1;" d="M 713.980469 583.105469 L 709.425781 583.105469 C 719.417969 574.371094 725.878906 561.683594 725.878906 547.414062 C 725.878906 533.148438 719.417969 520.460938 709.425781 511.722656 L 713.980469 511.722656 C 733.6875 511.722656 749.671875 527.710938 749.671875 547.414062 C 749.671875 567.121094 733.6875 583.105469 713.980469 583.105469 Z M 511.722656 749.671875 L 511.722656 606.902344 L 702.082031 606.902344 L 702.082031 749.671875 Z M 487.925781 749.671875 L 368.953125 749.671875 L 368.953125 666.390625 L 380.847656 666.390625 C 426.765625 666.390625 464.132812 629.023438 464.132812 583.105469 L 464.132812 410.59375 C 464.132812 408.546875 463.804688 406.597656 463.527344 404.644531 L 464.132812 404.644531 L 464.132812 142.898438 L 83.410156 142.898438 L 83.410156 416.542969 L 119.101562 416.542969 L 119.101562 428.4375 C 119.101562 441.546875 129.792969 452.234375 142.898438 452.234375 L 154.796875 452.234375 L 154.796875 476.03125 C 154.796875 511.164062 173.988281 541.835938 202.386719 558.335938 L 202.386719 583.105469 L 178.589844 583.105469 C 132.671875 583.105469 95.308594 620.472656 95.308594 666.390625 L 95.308594 749.671875 L 59.613281 749.671875 L 59.613281 119.101562 L 487.925781 119.101562 Z M 368.953125 606.902344 C 388.65625 606.902344 404.644531 590.914062 404.644531 571.210938 L 404.644531 410.59375 C 404.644531 400.738281 412.636719 392.746094 422.492188 392.746094 C 432.34375 392.746094 440.335938 400.738281 440.335938 410.59375 L 440.335938 583.105469 C 440.335938 615.917969 413.660156 642.59375 380.847656 642.59375 L 345.15625 642.59375 L 345.15625 749.671875 L 190.488281 749.671875 L 190.488281 681.078125 C 190.488281 660.164062 178.871094 641.339844 160.140625 631.953125 L 149.449219 653.238281 C 160.09375 658.535156 166.691406 669.226562 166.691406 681.078125 L 166.691406 749.671875 L 119.101562 749.671875 L 119.101562 666.390625 C 119.101562 633.578125 145.777344 606.902344 178.589844 606.902344 Z M 249.976562 571.210938 C 258.203125 571.210938 266.148438 570.046875 273.769531 568.097656 L 273.769531 583.105469 L 226.179688 583.105469 L 226.179688 568.097656 C 233.800781 570.046875 241.75 571.210938 249.976562 571.210938 Z M 178.589844 452.234375 L 321.359375 452.234375 L 321.359375 476.03125 C 321.359375 515.394531 289.339844 547.414062 249.976562 547.414062 C 210.613281 547.414062 178.589844 515.394531 178.589844 476.03125 Z M 142.898438 404.644531 L 357.054688 404.644531 L 357.054688 428.4375 L 142.898438 428.4375 Z M 341.996094 380.847656 L 157.957031 380.847656 C 168.550781 339.347656 205.964844 309.464844 249.976562 309.464844 C 293.988281 309.464844 331.398438 339.347656 341.996094 380.847656 Z M 345.15625 476.03125 L 345.15625 452.234375 L 357.054688 452.234375 C 370.160156 452.234375 380.847656 441.546875 380.847656 428.4375 L 380.847656 571.210938 C 380.847656 577.761719 375.503906 583.105469 368.953125 583.105469 L 297.566406 583.105469 L 297.566406 558.335938 C 325.960938 541.835938 345.15625 511.164062 345.15625 476.03125 Z M 122.402344 392.746094 L 107.203125 392.746094 L 107.203125 166.691406 L 440.335938 166.691406 L 440.335938 373.132812 C 434.898438 370.53125 428.902344 368.953125 422.492188 368.953125 C 399.53125 368.953125 380.847656 387.632812 380.847656 410.59375 L 380.847656 404.644531 C 380.847656 395.023438 375.085938 386.75 366.859375 383.035156 C 356.589844 326.984375 307.789062 285.667969 249.976562 285.667969 C 192.160156 285.667969 143.363281 326.984375 133.089844 383.035156 C 128.582031 385.078125 124.910156 388.515625 122.402344 392.746094 Z M 551.96875 511.722656 C 541.976562 520.460938 535.515625 533.148438 535.515625 547.414062 C 535.515625 561.683594 541.976562 574.371094 551.96875 583.105469 L 511.722656 583.105469 L 511.722656 511.722656 Z M 559.3125 476.03125 L 559.3125 357.054688 C 559.3125 350.5 564.65625 345.15625 571.210938 345.15625 L 583.105469 345.15625 L 583.105469 392.746094 L 678.289062 392.746094 L 678.289062 345.15625 L 690.183594 345.15625 C 696.738281 345.15625 702.082031 350.5 702.082031 357.054688 L 702.082031 476.03125 C 702.082031 482.582031 696.738281 487.925781 690.183594 487.925781 L 571.210938 487.925781 C 564.65625 487.925781 559.3125 482.582031 559.3125 476.03125 Z M 606.902344 345.15625 L 654.492188 345.15625 L 654.492188 368.953125 L 606.902344 368.953125 Z M 678.289062 571.210938 C 665.183594 571.210938 654.492188 560.519531 654.492188 547.414062 C 654.492188 534.308594 665.183594 523.621094 678.289062 523.621094 C 691.394531 523.621094 702.082031 534.308594 702.082031 547.414062 C 702.082031 560.519531 691.394531 571.210938 678.289062 571.210938 Z M 614.246094 511.722656 L 647.148438 511.722656 C 637.15625 520.460938 630.699219 533.148438 630.699219 547.414062 C 630.699219 561.683594 637.15625 574.371094 647.148438 583.105469 L 614.246094 583.105469 C 624.238281 574.371094 630.699219 561.683594 630.699219 547.414062 C 630.699219 533.148438 624.238281 520.460938 614.246094 511.722656 Z M 583.105469 523.621094 C 596.214844 523.621094 606.902344 534.308594 606.902344 547.414062 C 606.902344 560.519531 596.214844 571.210938 583.105469 571.210938 C 570 571.210938 559.3125 560.519531 559.3125 547.414062 C 559.3125 534.308594 570 523.621094 583.105469 523.621094 Z M 723.367188 488.902344 C 724.949219 484.859375 725.878906 480.582031 725.878906 476.03125 L 725.878906 357.054688 C 725.878906 337.347656 709.890625 321.359375 690.183594 321.359375 L 571.210938 321.359375 C 551.503906 321.359375 535.515625 337.347656 535.515625 357.054688 L 535.515625 476.03125 C 535.515625 480.210938 536.398438 484.164062 537.703125 487.925781 L 511.722656 487.925781 L 511.722656 95.308594 L 35.820312 95.308594 L 35.820312 773.46875 L 725.878906 773.46875 L 725.878906 605.695312 C 753.019531 600.164062 773.46875 576.136719 773.46875 547.414062 C 773.46875 517.855469 751.71875 493.410156 723.367188 488.902344 "/>
</g>
<g clip-path="url(#clip2)" clip-rule="nonzero">
<path style=" stroke:none;fill-rule:nonzero;fill:rgb(0%,0%,0%);fill-opacity:1;" d="M 666.390625 71.511719 C 666.390625 78.066406 661.046875 83.410156 654.492188 83.410156 L 606.902344 83.410156 C 600.347656 83.410156 595.003906 78.066406 595.003906 71.511719 C 595.003906 64.960938 600.347656 59.613281 606.902344 59.613281 L 654.492188 59.613281 C 661.046875 59.613281 666.390625 64.960938 666.390625 71.511719 Z M 606.902344 226.179688 C 600.347656 226.179688 595.003906 220.835938 595.003906 214.28125 C 595.003906 207.730469 600.347656 202.386719 606.902344 202.386719 L 654.492188 202.386719 C 661.046875 202.386719 666.390625 207.730469 666.390625 214.28125 C 666.390625 220.835938 661.046875 226.179688 654.492188 226.179688 Z M 702.082031 261.875 L 702.082031 273.769531 L 559.3125 273.769531 L 559.3125 261.875 C 559.3125 255.320312 564.65625 249.976562 571.210938 249.976562 L 690.183594 249.976562 C 696.738281 249.976562 702.082031 255.320312 702.082031 261.875 Z M 666.390625 166.691406 C 666.390625 173.246094 661.046875 178.589844 654.492188 178.589844 L 606.902344 178.589844 C 600.347656 178.589844 595.003906 173.246094 595.003906 166.691406 C 595.003906 160.140625 600.347656 154.796875 606.902344 154.796875 L 654.492188 154.796875 C 661.046875 154.796875 666.390625 160.140625 666.390625 166.691406 Z M 666.390625 119.101562 C 666.390625 125.65625 661.046875 131 654.492188 131 L 606.902344 131 C 600.347656 131 595.003906 125.65625 595.003906 119.101562 C 595.003906 112.550781 600.347656 107.207031 606.902344 107.207031 L 654.492188 107.207031 C 661.046875 107.207031 666.390625 112.550781 666.390625 119.101562 Z M 654.492188 35.820312 L 487.925781 35.820312 L 487.925781 59.613281 L 573.394531 59.613281 C 572.09375 63.378906 571.210938 67.328125 571.210938 71.511719 C 571.210938 80.667969 574.789062 88.988281 580.503906 95.308594 C 574.789062 101.628906 571.210938 109.945312 571.210938 119.101562 C 571.210938 128.257812 574.789062 136.578125 580.503906 142.898438 C 574.789062 149.21875 571.210938 157.539062 571.210938 166.691406 C 571.210938 175.847656 574.789062 184.167969 580.503906 190.488281 C 574.789062 196.808594 571.210938 205.128906 571.210938 214.28125 C 571.210938 218.464844 572.09375 222.417969 573.394531 226.179688 L 571.210938 226.179688 C 551.503906 226.179688 535.515625 242.167969 535.515625 261.875 L 535.515625 297.566406 L 725.878906 297.566406 L 725.878906 261.875 C 725.878906 242.167969 709.890625 226.179688 690.183594 226.179688 L 688 226.179688 C 689.300781 222.417969 690.183594 218.464844 690.183594 214.28125 C 690.183594 205.128906 686.605469 196.808594 680.890625 190.488281 C 686.605469 184.167969 690.183594 175.847656 690.183594 166.691406 C 690.183594 157.539062 686.605469 149.21875 680.890625 142.898438 C 686.605469 136.578125 690.183594 128.257812 690.183594 119.101562 C 690.183594 109.945312 686.605469 101.628906 680.890625 95.308594 C 686.605469 88.988281 690.183594 80.667969 690.183594 71.511719 C 690.183594 67.328125 689.300781 63.378906 688 59.613281 L 773.46875 59.613281 L 773.46875 35.820312 L 654.492188 35.820312 "/>
</g>
<path style=" stroke:none;fill-rule:nonzero;fill:rgb(0%,0%,0%);fill-opacity:1;" d="M 154.796875 190.488281 L 131 190.488281 L 131 214.28125 L 154.796875 214.28125 L 154.796875 190.488281 "/>
<path style=" stroke:none;fill-rule:nonzero;fill:rgb(0%,0%,0%);fill-opacity:1;" d="M 416.542969 190.488281 L 178.589844 190.488281 L 178.589844 214.28125 L 416.542969 214.28125 L 416.542969 190.488281 "/>
<path style=" stroke:none;fill-rule:nonzero;fill:rgb(0%,0%,0%);fill-opacity:1;" d="M 416.542969 238.078125 L 131 238.078125 L 131 261.875 L 416.542969 261.875 L 416.542969 238.078125 "/>
</g>
</svg>
