<?xml version="1.0" encoding="UTF-8"?>
<svg xmlns="http://www.w3.org/2000/svg" xmlns:xlink="http://www.w3.org/1999/xlink" width="810pt" height="809.999993pt" viewBox="0 0 810 809.999993" version="1.2">
<defs>
<clipPath id="clip1">
  <path d="M 288 14.578125 L 524 14.578125 L 524 249 L 288 249 Z M 288 14.578125 "/>
</clipPath>
<clipPath id="clip2">
  <path d="M 15 482 L 317 482 L 317 795.234375 L 15 795.234375 Z M 15 482 "/>
</clipPath>
<clipPath id="clip3">
  <path d="M 495 482 L 797 482 L 797 795.234375 L 495 795.234375 Z M 495 482 "/>
</clipPath>
<clipPath id="clip4">
  <path d="M 15 509 L 317 509 L 317 795.234375 L 15 795.234375 Z M 15 509 "/>
</clipPath>
<clipPath id="clip5">
  <path d="M 495 508 L 797 508 L 797 795.234375 L 495 795.234375 Z M 495 508 "/>
</clipPath>
</defs>
<g id="surface1">
<path style=" stroke:none;fill-rule:nonzero;fill:rgb(100%,50.19989%,53.329468%);fill-opacity:1;" d="M 783.554688 248.773438 C 783.554688 250.691406 783.507812 252.605469 783.414062 254.519531 C 783.320312 256.433594 783.179688 258.34375 782.992188 260.253906 C 782.804688 262.160156 782.570312 264.0625 782.289062 265.957031 C 782.007812 267.851562 781.679688 269.738281 781.304688 271.621094 C 780.929688 273.5 780.511719 275.367188 780.042969 277.226562 C 779.578125 279.085938 779.066406 280.933594 778.511719 282.765625 C 777.953125 284.601562 777.351562 286.417969 776.707031 288.222656 C 776.058594 290.027344 775.367188 291.816406 774.636719 293.585938 C 773.902344 295.355469 773.125 297.109375 772.304688 298.839844 C 771.484375 300.574219 770.621094 302.285156 769.71875 303.976562 C 768.8125 305.664062 767.867188 307.332031 766.882812 308.976562 C 765.894531 310.621094 764.871094 312.238281 763.804688 313.832031 C 762.738281 315.425781 761.632812 316.992188 760.492188 318.53125 C 759.347656 320.070312 758.167969 321.578125 756.953125 323.0625 C 755.734375 324.542969 754.484375 325.992188 753.195312 327.414062 C 751.90625 328.832031 750.585938 330.222656 749.230469 331.574219 C 747.871094 332.929688 746.484375 334.253906 745.0625 335.539062 C 743.640625 336.824219 742.1875 338.078125 740.707031 339.292969 C 739.222656 340.507812 737.710938 341.6875 736.171875 342.828125 C 734.628906 343.972656 733.0625 345.074219 731.46875 346.136719 C 729.875 347.203125 728.253906 348.226562 726.609375 349.214844 C 724.960938 350.199219 723.292969 351.144531 721.601562 352.046875 C 719.910156 352.949219 718.199219 353.8125 716.464844 354.628906 C 714.730469 355.449219 712.976562 356.226562 711.207031 356.960938 C 709.433594 357.691406 707.644531 358.382812 705.839844 359.027344 C 704.03125 359.671875 702.210938 360.273438 700.375 360.832031 C 698.539062 361.386719 696.691406 361.898438 694.832031 362.363281 C 692.972656 362.828125 691.101562 363.25 689.21875 363.625 C 687.335938 363.996094 685.449219 364.324219 683.550781 364.605469 C 681.652344 364.886719 679.75 365.121094 677.84375 365.308594 C 675.933594 365.496094 674.019531 365.636719 672.105469 365.730469 C 670.1875 365.828125 668.273438 365.875 666.355469 365.875 C 664.4375 365.875 662.519531 365.828125 660.601562 365.730469 C 658.6875 365.636719 656.773438 365.496094 654.867188 365.308594 C 652.957031 365.121094 651.054688 364.886719 649.15625 364.605469 C 647.257812 364.324219 645.371094 363.996094 643.488281 363.625 C 641.609375 363.25 639.738281 362.828125 637.875 362.363281 C 636.015625 361.898438 634.167969 361.386719 632.332031 360.832031 C 630.496094 360.273438 628.675781 359.671875 626.871094 359.027344 C 625.0625 358.382812 623.273438 357.691406 621.503906 356.960938 C 619.730469 356.226562 617.976562 355.449219 616.242188 354.628906 C 614.507812 353.8125 612.796875 352.949219 611.105469 352.046875 C 609.414062 351.144531 607.746094 350.199219 606.101562 349.214844 C 604.453125 348.226562 602.835938 347.203125 601.238281 346.136719 C 599.644531 345.074219 598.078125 343.972656 596.535156 342.828125 C 594.996094 341.6875 593.484375 340.507812 592 339.292969 C 590.519531 338.078125 589.066406 336.824219 587.644531 335.539062 C 586.222656 334.253906 584.835938 332.929688 583.480469 331.574219 C 582.121094 330.222656 580.800781 328.832031 579.511719 327.414062 C 578.222656 325.992188 576.972656 324.542969 575.753906 323.0625 C 574.539062 321.578125 573.359375 320.070312 572.214844 318.53125 C 571.074219 316.992188 569.96875 315.425781 568.902344 313.832031 C 567.839844 312.238281 566.8125 310.621094 565.824219 308.976562 C 564.839844 307.332031 563.894531 305.664062 562.992188 303.976562 C 562.085938 302.285156 561.222656 300.574219 560.402344 298.839844 C 559.585938 297.109375 558.808594 295.355469 558.074219 293.585938 C 557.339844 291.816406 556.648438 290.027344 556.003906 288.222656 C 555.355469 286.417969 554.753906 284.601562 554.199219 282.765625 C 553.640625 280.933594 553.128906 279.085938 552.664062 277.226562 C 552.199219 275.367188 551.777344 273.5 551.402344 271.621094 C 551.027344 269.738281 550.703125 267.851562 550.421875 265.957031 C 550.136719 264.0625 549.902344 262.160156 549.714844 260.253906 C 549.527344 258.34375 549.386719 256.433594 549.292969 254.519531 C 549.199219 252.605469 549.152344 250.691406 549.152344 248.773438 C 549.152344 246.859375 549.199219 244.941406 549.292969 243.027344 C 549.386719 241.113281 549.527344 239.203125 549.714844 237.296875 C 549.902344 235.390625 550.136719 233.488281 550.421875 231.59375 C 550.703125 229.699219 551.027344 227.808594 551.402344 225.929688 C 551.777344 224.050781 552.199219 222.179688 552.664062 220.324219 C 553.128906 218.464844 553.640625 216.617188 554.199219 214.78125 C 554.753906 212.949219 555.355469 211.128906 556.003906 209.324219 C 556.648438 207.519531 557.339844 205.734375 558.074219 203.964844 C 558.808594 202.191406 559.585938 200.441406 560.402344 198.707031 C 561.222656 196.976562 562.085938 195.265625 562.992188 193.574219 C 563.894531 191.886719 564.839844 190.21875 565.824219 188.574219 C 566.8125 186.929688 567.839844 185.3125 568.902344 183.71875 C 569.96875 182.125 571.074219 180.558594 572.214844 179.019531 C 573.359375 177.480469 574.539062 175.96875 575.753906 174.488281 C 576.972656 173.007812 578.222656 171.554688 579.511719 170.136719 C 580.800781 168.714844 582.121094 167.328125 583.480469 165.972656 C 584.835938 164.617188 586.222656 163.296875 587.644531 162.011719 C 589.066406 160.722656 590.519531 159.472656 592 158.257812 C 593.484375 157.039062 594.996094 155.863281 596.535156 154.71875 C 598.078125 153.578125 599.644531 152.476562 601.238281 151.410156 C 602.835938 150.347656 604.453125 149.320312 606.101562 148.335938 C 607.746094 147.351562 609.414062 146.40625 611.105469 145.503906 C 612.796875 144.601562 614.507812 143.738281 616.242188 142.917969 C 617.976562 142.101562 619.730469 141.324219 621.503906 140.589844 C 623.273438 139.855469 625.0625 139.167969 626.871094 138.523438 C 628.675781 137.875 630.496094 137.273438 632.332031 136.71875 C 634.167969 136.164062 636.015625 135.652344 637.875 135.1875 C 639.738281 134.71875 641.609375 134.300781 643.488281 133.925781 C 645.371094 133.550781 647.257812 133.226562 649.15625 132.945312 C 651.054688 132.664062 652.957031 132.429688 654.867188 132.242188 C 656.773438 132.050781 658.6875 131.910156 660.601562 131.816406 C 662.519531 131.722656 664.4375 131.675781 666.355469 131.675781 C 668.273438 131.675781 670.1875 131.722656 672.105469 131.816406 C 674.019531 131.910156 675.933594 132.050781 677.84375 132.242188 C 679.75 132.429688 681.652344 132.664062 683.550781 132.945312 C 685.449219 133.226562 687.335938 133.550781 689.21875 133.925781 C 691.101562 134.300781 692.972656 134.71875 694.832031 135.1875 C 696.691406 135.652344 698.539062 136.164062 700.375 136.71875 C 702.210938 137.273438 704.03125 137.875 705.839844 138.523438 C 707.644531 139.167969 709.433594 139.855469 711.207031 140.589844 C 712.976562 141.324219 714.730469 142.101562 716.464844 142.917969 C 718.199219 143.738281 719.910156 144.601562 721.601562 145.503906 C 723.292969 146.40625 724.960938 147.351562 726.609375 148.335938 C 728.253906 149.320312 729.875 150.347656 731.46875 151.410156 C 733.0625 152.476562 734.628906 153.578125 736.171875 154.71875 C 737.710938 155.863281 739.222656 157.039062 740.707031 158.257812 C 742.1875 159.472656 743.640625 160.722656 745.0625 162.011719 C 746.484375 163.296875 747.871094 164.617188 749.230469 165.972656 C 750.585938 167.328125 751.90625 168.714844 753.195312 170.136719 C 754.484375 171.554688 755.734375 173.007812 756.953125 174.488281 C 758.167969 175.96875 759.347656 177.480469 760.492188 179.019531 C 761.632812 180.558594 762.738281 182.125 763.804688 183.71875 C 764.871094 185.3125 765.894531 186.929688 766.882812 188.574219 C 767.867188 190.21875 768.8125 191.886719 769.71875 193.574219 C 770.621094 195.265625 771.484375 196.976562 772.304688 198.707031 C 773.125 200.441406 773.902344 202.191406 774.636719 203.964844 C 775.367188 205.734375 776.058594 207.519531 776.707031 209.324219 C 777.351562 211.128906 777.953125 212.949219 778.511719 214.78125 C 779.066406 216.617188 779.578125 218.464844 780.042969 220.324219 C 780.511719 222.179688 780.929688 224.050781 781.304688 225.929688 C 781.679688 227.808594 782.007812 229.699219 782.289062 231.59375 C 782.570312 233.488281 782.804688 235.390625 782.992188 237.296875 C 783.179688 239.203125 783.320312 241.113281 783.414062 243.027344 C 783.507812 244.941406 783.554688 246.859375 783.554688 248.773438 Z M 783.554688 248.773438 "/>
<path style=" stroke:none;fill-rule:nonzero;fill:rgb(91.758728%,91.758728%,91.758728%);fill-opacity:1;" d="M 731.464844 222.753906 L 692.398438 222.753906 L 692.398438 183.71875 L 640.308594 183.71875 L 640.308594 222.753906 L 601.242188 222.753906 L 601.242188 274.796875 L 640.308594 274.796875 L 640.308594 313.828125 L 692.398438 313.828125 L 692.398438 274.796875 L 731.464844 274.796875 Z M 731.464844 222.753906 "/>
<path style=" stroke:none;fill-rule:nonzero;fill:rgb(56.469727%,82.348633%,98.81897%);fill-opacity:1;" d="M 262.65625 248.773438 C 262.65625 250.691406 262.609375 252.605469 262.515625 254.519531 C 262.421875 256.433594 262.28125 258.34375 262.09375 260.253906 C 261.902344 262.160156 261.667969 264.0625 261.386719 265.957031 C 261.105469 267.851562 260.777344 269.738281 260.40625 271.621094 C 260.03125 273.5 259.609375 275.367188 259.144531 277.226562 C 258.679688 279.085938 258.167969 280.933594 257.609375 282.765625 C 257.054688 284.601562 256.453125 286.417969 255.804688 288.222656 C 255.160156 290.027344 254.46875 291.816406 253.734375 293.585938 C 253 295.355469 252.222656 297.109375 251.402344 298.839844 C 250.582031 300.574219 249.722656 302.285156 248.816406 303.976562 C 247.914062 305.664062 246.96875 307.332031 245.980469 308.976562 C 244.996094 310.621094 243.96875 312.238281 242.902344 313.832031 C 241.839844 315.425781 240.734375 316.992188 239.589844 318.53125 C 238.449219 320.070312 237.269531 321.578125 236.050781 323.0625 C 234.835938 324.542969 233.582031 325.992188 232.296875 327.414062 C 231.007812 328.832031 229.683594 330.222656 228.328125 331.574219 C 226.972656 332.929688 225.582031 334.253906 224.164062 335.539062 C 222.742188 336.824219 221.289062 338.078125 219.804688 339.292969 C 218.324219 340.507812 216.8125 341.6875 215.269531 342.828125 C 213.730469 343.972656 212.164062 345.074219 210.566406 346.136719 C 208.972656 347.203125 207.351562 348.226562 205.707031 349.214844 C 204.0625 350.199219 202.394531 351.144531 200.703125 352.046875 C 199.011719 352.949219 197.296875 353.8125 195.5625 354.628906 C 193.832031 355.449219 192.078125 356.226562 190.304688 356.960938 C 188.53125 357.691406 186.742188 358.382812 184.9375 359.027344 C 183.132812 359.671875 181.3125 360.273438 179.476562 360.832031 C 177.640625 361.386719 175.792969 361.898438 173.933594 362.363281 C 172.070312 362.828125 170.199219 363.25 168.320312 363.625 C 166.4375 363.996094 164.546875 364.324219 162.652344 364.605469 C 160.753906 364.886719 158.851562 365.121094 156.941406 365.308594 C 155.03125 365.496094 153.121094 365.636719 151.203125 365.730469 C 149.289062 365.828125 147.371094 365.875 145.453125 365.875 C 143.535156 365.875 141.617188 365.828125 139.703125 365.730469 C 137.789062 365.636719 135.875 365.496094 133.964844 365.308594 C 132.058594 365.121094 130.152344 364.886719 128.257812 364.605469 C 126.359375 364.324219 124.46875 363.996094 122.589844 363.625 C 120.707031 363.25 118.835938 362.828125 116.976562 362.363281 C 115.117188 361.898438 113.265625 361.386719 111.433594 360.832031 C 109.597656 360.273438 107.777344 359.671875 105.96875 359.027344 C 104.164062 358.382812 102.375 357.691406 100.601562 356.960938 C 98.832031 356.226562 97.078125 355.449219 95.34375 354.628906 C 93.609375 353.8125 91.898438 352.949219 90.203125 352.046875 C 88.511719 351.144531 86.84375 350.199219 85.199219 349.214844 C 83.554688 348.226562 81.933594 347.203125 80.339844 346.136719 C 78.746094 345.074219 77.175781 343.972656 75.636719 342.828125 C 74.09375 341.6875 72.585938 340.507812 71.101562 339.292969 C 69.617188 338.078125 68.167969 336.824219 66.746094 335.539062 C 65.324219 334.253906 63.933594 332.929688 62.578125 331.574219 C 61.222656 330.222656 59.902344 328.832031 58.613281 327.414062 C 57.324219 325.992188 56.070312 324.542969 54.855469 323.0625 C 53.636719 321.578125 52.457031 320.070312 51.316406 318.53125 C 50.171875 316.992188 49.070312 315.425781 48.003906 313.832031 C 46.9375 312.238281 45.910156 310.621094 44.925781 308.976562 C 43.941406 307.332031 42.996094 305.664062 42.089844 303.976562 C 41.1875 302.285156 40.324219 300.574219 39.503906 298.839844 C 38.683594 297.109375 37.90625 295.355469 37.171875 293.585938 C 36.4375 291.816406 35.75 290.027344 35.101562 288.222656 C 34.457031 286.417969 33.855469 284.601562 33.296875 282.765625 C 32.742188 280.933594 32.230469 279.085938 31.761719 277.226562 C 31.296875 275.367188 30.878906 273.5 30.503906 271.621094 C 30.128906 269.738281 29.800781 267.851562 29.519531 265.957031 C 29.238281 264.0625 29.003906 262.160156 28.816406 260.253906 C 28.628906 258.34375 28.488281 256.433594 28.390625 254.519531 C 28.296875 252.605469 28.25 250.691406 28.25 248.773438 C 28.25 246.859375 28.296875 244.941406 28.390625 243.027344 C 28.488281 241.113281 28.628906 239.203125 28.816406 237.296875 C 29.003906 235.390625 29.238281 233.488281 29.519531 231.59375 C 29.800781 229.699219 30.128906 227.808594 30.503906 225.929688 C 30.878906 224.050781 31.296875 222.179688 31.761719 220.324219 C 32.230469 218.464844 32.742188 216.617188 33.296875 214.78125 C 33.855469 212.949219 34.457031 211.128906 35.101562 209.324219 C 35.75 207.519531 36.4375 205.734375 37.171875 203.964844 C 37.90625 202.191406 38.683594 200.441406 39.503906 198.707031 C 40.324219 196.976562 41.1875 195.265625 42.089844 193.574219 C 42.996094 191.886719 43.941406 190.21875 44.925781 188.574219 C 45.910156 186.929688 46.9375 185.3125 48.003906 183.71875 C 49.070312 182.125 50.171875 180.558594 51.316406 179.019531 C 52.457031 177.480469 53.636719 175.96875 54.855469 174.488281 C 56.070312 173.007812 57.324219 171.554688 58.613281 170.136719 C 59.902344 168.714844 61.222656 167.328125 62.578125 165.972656 C 63.933594 164.617188 65.324219 163.296875 66.746094 162.011719 C 68.167969 160.722656 69.617188 159.472656 71.101562 158.257812 C 72.585938 157.039062 74.09375 155.863281 75.636719 154.71875 C 77.175781 153.578125 78.746094 152.476562 80.339844 151.410156 C 81.933594 150.347656 83.554688 149.320312 85.199219 148.335938 C 86.84375 147.351562 88.511719 146.40625 90.203125 145.503906 C 91.898438 144.601562 93.609375 143.738281 95.34375 142.917969 C 97.078125 142.101562 98.832031 141.324219 100.601562 140.589844 C 102.375 139.855469 104.164062 139.167969 105.96875 138.523438 C 107.777344 137.875 109.597656 137.273438 111.433594 136.71875 C 113.265625 136.164062 115.117188 135.652344 116.976562 135.1875 C 118.835938 134.71875 120.707031 134.300781 122.589844 133.925781 C 124.46875 133.550781 126.359375 133.226562 128.257812 132.945312 C 130.152344 132.664062 132.058594 132.429688 133.964844 132.242188 C 135.875 132.050781 137.789062 131.910156 139.703125 131.816406 C 141.617188 131.722656 143.535156 131.675781 145.453125 131.675781 C 147.371094 131.675781 149.289062 131.722656 151.203125 131.816406 C 153.121094 131.910156 155.03125 132.050781 156.941406 132.242188 C 158.851562 132.429688 160.753906 132.664062 162.652344 132.945312 C 164.546875 133.226562 166.4375 133.550781 168.320312 133.925781 C 170.199219 134.300781 172.070312 134.71875 173.933594 135.1875 C 175.792969 135.652344 177.640625 136.164062 179.476562 136.71875 C 181.3125 137.273438 183.132812 137.875 184.9375 138.523438 C 186.742188 139.167969 188.53125 139.855469 190.304688 140.589844 C 192.078125 141.324219 193.832031 142.101562 195.5625 142.917969 C 197.296875 143.738281 199.011719 144.601562 200.703125 145.503906 C 202.394531 146.40625 204.0625 147.351562 205.707031 148.335938 C 207.351562 149.320312 208.972656 150.347656 210.566406 151.410156 C 212.164062 152.476562 213.730469 153.578125 215.269531 154.71875 C 216.8125 155.863281 218.324219 157.039062 219.804688 158.257812 C 221.289062 159.472656 222.742188 160.722656 224.164062 162.011719 C 225.582031 163.296875 226.972656 164.617188 228.328125 165.972656 C 229.683594 167.328125 231.007812 168.714844 232.296875 170.136719 C 233.582031 171.554688 234.835938 173.007812 236.050781 174.488281 C 237.269531 175.96875 238.449219 177.480469 239.589844 179.019531 C 240.734375 180.558594 241.839844 182.125 242.902344 183.71875 C 243.96875 185.3125 244.996094 186.929688 245.980469 188.574219 C 246.96875 190.21875 247.914062 191.886719 248.816406 193.574219 C 249.722656 195.265625 250.582031 196.976562 251.402344 198.707031 C 252.222656 200.441406 253 202.191406 253.734375 203.964844 C 254.46875 205.734375 255.160156 207.519531 255.804688 209.324219 C 256.453125 211.128906 257.054688 212.949219 257.609375 214.78125 C 258.167969 216.617188 258.679688 218.464844 259.144531 220.324219 C 259.609375 222.179688 260.03125 224.050781 260.40625 225.929688 C 260.777344 227.808594 261.105469 229.699219 261.386719 231.59375 C 261.667969 233.488281 261.902344 235.390625 262.09375 237.296875 C 262.28125 239.203125 262.421875 241.113281 262.515625 243.027344 C 262.609375 244.941406 262.65625 246.859375 262.65625 248.773438 Z M 262.65625 248.773438 "/>
<path style=" stroke:none;fill-rule:nonzero;fill:rgb(91.758728%,91.758728%,91.758728%);fill-opacity:1;" d="M 106.386719 235.765625 L 184.519531 235.765625 L 184.519531 300.820312 L 106.386719 300.820312 Z M 106.386719 235.765625 "/>
<path style=" stroke:none;fill-rule:nonzero;fill:rgb(100%,50.19989%,53.329468%);fill-opacity:1;" d="M 145.453125 183.71875 L 80.339844 235.765625 L 210.566406 235.765625 Z M 145.453125 183.71875 "/>
<g clip-path="url(#clip1)" clip-rule="nonzero">
<path style=" stroke:none;fill-rule:nonzero;fill:rgb(100%,91.369629%,56.469727%);fill-opacity:1;" d="M 523.105469 131.675781 C 523.105469 133.59375 523.058594 135.507812 522.964844 137.421875 C 522.871094 139.335938 522.730469 141.246094 522.542969 143.152344 C 522.355469 145.0625 522.121094 146.960938 521.835938 148.859375 C 521.554688 150.753906 521.230469 152.640625 520.855469 154.519531 C 520.480469 156.402344 520.058594 158.269531 519.59375 160.128906 C 519.128906 161.988281 518.617188 163.835938 518.058594 165.667969 C 517.503906 167.503906 516.902344 169.320312 516.253906 171.125 C 515.609375 172.929688 514.917969 174.71875 514.183594 176.488281 C 513.449219 178.257812 512.671875 180.011719 511.855469 181.742188 C 511.035156 183.476562 510.171875 185.1875 509.265625 186.875 C 508.363281 188.566406 507.417969 190.234375 506.433594 191.878906 C 505.445312 193.519531 504.417969 195.140625 503.355469 196.734375 C 502.289062 198.328125 501.183594 199.894531 500.042969 201.433594 C 498.898438 202.972656 497.71875 204.480469 496.503906 205.964844 C 495.285156 207.445312 494.035156 208.894531 492.746094 210.316406 C 491.457031 211.734375 490.136719 213.121094 488.777344 214.476562 C 487.421875 215.832031 486.035156 217.152344 484.613281 218.441406 C 483.191406 219.726562 481.738281 220.980469 480.257812 222.195312 C 478.773438 223.410156 477.261719 224.589844 475.722656 225.730469 C 474.179688 226.871094 472.613281 227.976562 471.019531 229.039062 C 469.421875 230.105469 467.804688 231.128906 466.15625 232.113281 C 464.511719 233.101562 462.84375 234.042969 461.152344 234.949219 C 459.460938 235.851562 457.75 236.710938 456.015625 237.53125 C 454.28125 238.351562 452.527344 239.128906 450.753906 239.859375 C 448.984375 240.59375 447.195312 241.285156 445.386719 241.929688 C 443.582031 242.574219 441.761719 243.175781 439.925781 243.734375 C 438.089844 244.289062 436.242188 244.800781 434.382812 245.265625 C 432.519531 245.730469 430.648438 246.152344 428.769531 246.523438 C 426.886719 246.898438 425 247.226562 423.101562 247.507812 C 421.203125 247.789062 419.300781 248.023438 417.390625 248.210938 C 415.484375 248.398438 413.570312 248.539062 411.65625 248.632812 C 409.738281 248.726562 407.820312 248.773438 405.902344 248.773438 C 403.984375 248.773438 402.070312 248.726562 400.152344 248.632812 C 398.238281 248.539062 396.324219 248.398438 394.417969 248.210938 C 392.507812 248.023438 390.605469 247.789062 388.707031 247.507812 C 386.808594 247.226562 384.921875 246.898438 383.039062 246.523438 C 381.15625 246.152344 379.285156 245.730469 377.425781 245.265625 C 375.566406 244.800781 373.71875 244.289062 371.882812 243.734375 C 370.046875 243.175781 368.226562 242.574219 366.417969 241.929688 C 364.613281 241.285156 362.824219 240.59375 361.050781 239.859375 C 359.28125 239.128906 357.527344 238.351562 355.792969 237.53125 C 354.058594 236.710938 352.347656 235.851562 350.65625 234.949219 C 348.964844 234.042969 347.296875 233.101562 345.648438 232.113281 C 344.003906 231.128906 342.382812 230.105469 340.789062 229.039062 C 339.195312 227.976562 337.628906 226.871094 336.085938 225.730469 C 334.546875 224.589844 333.035156 223.410156 331.550781 222.195312 C 330.070312 220.980469 328.617188 219.726562 327.195312 218.441406 C 325.773438 217.152344 324.386719 215.832031 323.027344 214.476562 C 321.671875 213.121094 320.351562 211.734375 319.0625 210.316406 C 317.773438 208.894531 316.523438 207.445312 315.304688 205.964844 C 314.089844 204.480469 312.910156 202.972656 311.765625 201.433594 C 310.625 199.894531 309.519531 198.328125 308.453125 196.734375 C 307.386719 195.140625 306.363281 193.519531 305.375 191.878906 C 304.390625 190.234375 303.445312 188.566406 302.539062 186.875 C 301.636719 185.1875 300.773438 183.476562 299.953125 181.742188 C 299.132812 180.011719 298.355469 178.257812 297.621094 176.488281 C 296.890625 174.71875 296.199219 172.929688 295.550781 171.125 C 294.90625 169.320312 294.304688 167.503906 293.75 165.667969 C 293.191406 163.835938 292.679688 161.988281 292.214844 160.128906 C 291.746094 158.269531 291.328125 156.402344 290.953125 154.519531 C 290.578125 152.640625 290.25 150.753906 289.96875 148.859375 C 289.6875 146.960938 289.453125 145.0625 289.265625 143.152344 C 289.078125 141.246094 288.9375 139.335938 288.84375 137.421875 C 288.75 135.507812 288.703125 133.59375 288.703125 131.675781 C 288.703125 129.761719 288.75 127.84375 288.84375 125.929688 C 288.9375 124.015625 289.078125 122.105469 289.265625 120.199219 C 289.453125 118.292969 289.6875 116.390625 289.96875 114.496094 C 290.25 112.597656 290.578125 110.710938 290.953125 108.832031 C 291.328125 106.953125 291.746094 105.082031 292.214844 103.222656 C 292.679688 101.363281 293.191406 99.519531 293.75 97.683594 C 294.304688 95.851562 294.90625 94.03125 295.550781 92.226562 C 296.199219 90.421875 296.890625 88.636719 297.621094 86.863281 C 298.355469 85.09375 299.132812 83.34375 299.953125 81.609375 C 300.773438 79.878906 301.636719 78.167969 302.539062 76.476562 C 303.445312 74.785156 304.390625 73.121094 305.375 71.476562 C 306.363281 69.832031 307.386719 68.214844 308.453125 66.621094 C 309.519531 65.027344 310.625 63.460938 311.765625 61.921875 C 312.910156 60.382812 314.089844 58.871094 315.304688 57.390625 C 316.523438 55.910156 317.773438 54.457031 319.0625 53.039062 C 320.351562 51.617188 321.671875 50.230469 323.027344 48.875 C 324.386719 47.519531 325.773438 46.199219 327.195312 44.914062 C 328.617188 43.625 330.070312 42.375 331.550781 41.15625 C 333.035156 39.941406 334.546875 38.765625 336.085938 37.621094 C 337.628906 36.480469 339.195312 35.378906 340.789062 34.3125 C 342.382812 33.246094 344.003906 32.222656 345.648438 31.238281 C 347.296875 30.253906 348.964844 29.308594 350.65625 28.40625 C 352.347656 27.5 354.058594 26.640625 355.792969 25.820312 C 357.527344 25 359.28125 24.226562 361.050781 23.492188 C 362.824219 22.757812 364.613281 22.070312 366.417969 21.421875 C 368.226562 20.777344 370.046875 20.175781 371.882812 19.621094 C 373.71875 19.0625 375.566406 18.554688 377.425781 18.085938 C 379.285156 17.621094 381.15625 17.203125 383.039062 16.828125 C 384.921875 16.453125 386.808594 16.125 388.707031 15.84375 C 390.605469 15.5625 392.507812 15.328125 394.417969 15.140625 C 396.324219 14.953125 398.238281 14.8125 400.152344 14.71875 C 402.070312 14.625 403.984375 14.578125 405.902344 14.578125 C 407.820312 14.578125 409.738281 14.625 411.65625 14.71875 C 413.570312 14.8125 415.484375 14.953125 417.390625 15.140625 C 419.300781 15.328125 421.203125 15.5625 423.101562 15.84375 C 425 16.125 426.886719 16.453125 428.769531 16.828125 C 430.648438 17.203125 432.519531 17.621094 434.382812 18.085938 C 436.242188 18.554688 438.089844 19.0625 439.925781 19.621094 C 441.761719 20.175781 443.582031 20.777344 445.386719 21.421875 C 447.195312 22.070312 448.984375 22.757812 450.753906 23.492188 C 452.527344 24.226562 454.28125 25 456.015625 25.820312 C 457.75 26.640625 459.460938 27.5 461.152344 28.40625 C 462.84375 29.308594 464.511719 30.253906 466.15625 31.238281 C 467.804688 32.222656 469.421875 33.246094 471.019531 34.3125 C 472.613281 35.378906 474.179688 36.480469 475.722656 37.621094 C 477.261719 38.765625 478.773438 39.941406 480.257812 41.15625 C 481.738281 42.375 483.191406 43.625 484.613281 44.914062 C 486.035156 46.199219 487.421875 47.519531 488.777344 48.875 C 490.136719 50.230469 491.457031 51.617188 492.746094 53.039062 C 494.035156 54.457031 495.285156 55.910156 496.503906 57.390625 C 497.71875 58.871094 498.898438 60.382812 500.042969 61.921875 C 501.183594 63.460938 502.289062 65.027344 503.355469 66.621094 C 504.417969 68.214844 505.445312 69.832031 506.433594 71.476562 C 507.417969 73.121094 508.363281 74.785156 509.265625 76.476562 C 510.171875 78.167969 511.035156 79.878906 511.855469 81.609375 C 512.671875 83.34375 513.449219 85.09375 514.183594 86.863281 C 514.917969 88.636719 515.609375 90.421875 516.253906 92.226562 C 516.902344 94.03125 517.503906 95.851562 518.058594 97.683594 C 518.617188 99.519531 519.128906 101.363281 519.59375 103.222656 C 520.058594 105.082031 520.480469 106.953125 520.855469 108.832031 C 521.230469 110.710938 521.554688 112.597656 521.835938 114.496094 C 522.121094 116.390625 522.355469 118.292969 522.542969 120.199219 C 522.730469 122.105469 522.871094 124.015625 522.964844 125.929688 C 523.058594 127.84375 523.105469 129.761719 523.105469 131.675781 Z M 523.105469 131.675781 "/>
</g>
<path style=" stroke:none;fill-rule:nonzero;fill:rgb(65.879822%,65.879822%,65.879822%);fill-opacity:1;" d="M 405.902344 118.664062 C 398.714844 118.664062 392.882812 112.824219 392.882812 105.65625 C 392.882812 98.484375 398.714844 92.644531 405.902344 92.644531 C 413.09375 92.644531 418.925781 98.484375 418.925781 105.65625 L 444.972656 105.65625 C 444.972656 88.714844 434.046875 74.402344 418.925781 69.015625 L 418.925781 53.609375 L 392.882812 53.609375 L 392.882812 69.015625 C 377.761719 74.402344 366.835938 88.714844 366.835938 105.65625 C 366.835938 127.175781 384.363281 144.6875 405.902344 144.6875 C 413.09375 144.6875 418.925781 150.527344 418.925781 157.699219 C 418.925781 164.867188 413.09375 170.710938 405.902344 170.710938 C 398.714844 170.710938 392.882812 164.867188 392.882812 157.699219 L 366.835938 157.699219 C 366.835938 174.636719 377.761719 188.949219 392.882812 194.335938 L 392.882812 209.742188 L 418.925781 209.742188 L 418.925781 194.335938 C 434.046875 188.949219 444.972656 174.636719 444.972656 157.699219 C 444.972656 136.179688 427.441406 118.664062 405.902344 118.664062 Z M 405.902344 118.664062 "/>
<g clip-path="url(#clip2)" clip-rule="nonzero">
<path style=" stroke:none;fill-rule:nonzero;fill:rgb(90.19928%,75.689697%,59.21936%);fill-opacity:1;" d="M 294.132812 629.996094 C 294.117188 629.96875 246.9375 563.378906 246.9375 563.378906 C 242.367188 556.925781 234.945312 553.085938 227.027344 553.085938 C 208.886719 553.085938 197.101562 572.148438 205.214844 588.359375 L 220.945312 623.671875 L 168.492188 607.058594 L 132.429688 535.015625 L 123.183594 498.050781 C 120.621094 487.773438 110.304688 481.058594 99.417969 483.464844 C 88.921875 485.78125 82.644531 496.738281 84.417969 507.339844 L 92.789062 557.539062 L 58.503906 517.582031 C 50.402344 508.148438 36.535156 506.234375 26.179688 513.132812 C 14.695312 520.78125 11.765625 536.367188 19.667969 547.664062 L 94.589844 654.597656 C 95.785156 656.316406 97.191406 657.878906 98.769531 659.257812 C 115.957031 674.285156 133.160156 689.324219 150.351562 704.351562 C 168.789062 720.472656 202.246094 739.523438 200.265625 767.027344 C 199.601562 776.445312 198.558594 785.839844 197.542969 795.234375 L 314.746094 795.234375 C 311.933594 740.160156 328.746094 678.667969 294.132812 629.996094 Z M 294.132812 629.996094 "/>
</g>
<g clip-path="url(#clip3)" clip-rule="nonzero">
<path style=" stroke:none;fill-rule:nonzero;fill:rgb(90.19928%,75.689697%,59.21936%);fill-opacity:1;" d="M 785.628906 513.117188 C 775.273438 506.222656 761.40625 508.136719 753.304688 517.566406 L 719.03125 557.523438 L 727.402344 507.328125 C 729.175781 496.738281 722.898438 485.769531 712.402344 483.453125 C 701.5 481.046875 691.199219 487.761719 688.636719 498.039062 L 679.375 535.015625 L 643.316406 607.058594 L 590.863281 623.671875 L 606.59375 588.359375 C 614.707031 572.160156 602.910156 553.085938 584.78125 553.085938 C 576.863281 553.085938 569.441406 556.925781 564.871094 563.378906 C 564.871094 563.378906 517.703125 629.980469 517.675781 629.996094 C 483.0625 678.667969 499.875 740.160156 497.0625 795.234375 L 614.265625 795.234375 C 613.25 785.839844 612.207031 776.445312 611.53125 767.027344 C 609.550781 739.523438 643.003906 720.472656 661.445312 704.351562 C 678.632812 689.324219 695.835938 674.285156 713.027344 659.257812 C 714.601562 657.878906 716.007812 656.316406 717.207031 654.597656 L 792.125 547.664062 C 800.042969 536.355469 797.113281 520.769531 785.628906 513.117188 Z M 785.628906 513.117188 "/>
</g>
<g clip-path="url(#clip4)" clip-rule="nonzero">
<path style=" stroke:none;fill-rule:nonzero;fill:rgb(100%,85.879517%,67.449951%);fill-opacity:1;" d="M 294.132812 629.996094 C 294.117188 629.96875 246.9375 563.378906 246.9375 563.378906 C 242.367188 556.925781 234.945312 553.085938 227.027344 553.085938 C 208.886719 553.085938 197.101562 572.148438 205.214844 588.359375 L 220.945312 623.671875 L 128.71875 594.460938 C 124.605469 592.925781 120.945312 590.363281 118.09375 587.035156 L 58.503906 517.582031 C 50.402344 508.148438 36.535156 506.234375 26.179688 513.132812 C 14.695312 520.78125 11.765625 536.367188 19.667969 547.664062 L 94.589844 654.597656 C 95.785156 656.316406 97.191406 657.878906 98.769531 659.257812 C 115.957031 674.285156 133.160156 689.324219 150.351562 704.351562 C 168.789062 720.472656 202.246094 739.523438 200.265625 767.027344 C 199.601562 776.445312 198.558594 785.839844 197.542969 795.234375 L 314.746094 795.234375 C 311.933594 740.160156 328.746094 678.667969 294.132812 629.996094 Z M 294.132812 629.996094 "/>
</g>
<g clip-path="url(#clip5)" clip-rule="nonzero">
<path style=" stroke:none;fill-rule:nonzero;fill:rgb(100%,85.879517%,67.449951%);fill-opacity:1;" d="M 517.675781 629.996094 C 517.6875 629.96875 564.871094 563.378906 564.871094 563.378906 C 569.441406 556.925781 576.863281 553.085938 584.78125 553.085938 C 602.921875 553.085938 614.707031 572.148438 606.59375 588.359375 L 590.863281 623.671875 L 683.089844 594.460938 C 687.203125 592.925781 690.863281 590.363281 693.714844 587.035156 L 753.304688 517.566406 C 761.40625 508.136719 775.273438 506.222656 785.628906 513.117188 C 797.113281 520.769531 800.042969 536.355469 792.136719 547.648438 L 717.21875 654.585938 C 716.023438 656.304688 714.617188 657.863281 713.039062 659.242188 C 695.851562 674.273438 678.648438 689.3125 661.457031 704.339844 C 643.019531 720.460938 609.5625 739.507812 611.542969 767.011719 C 612.207031 776.445312 613.25 785.839844 614.265625 795.234375 L 497.0625 795.234375 C 499.875 740.160156 483.0625 678.667969 517.675781 629.996094 Z M 517.675781 629.996094 "/>
</g>
<path style=" stroke:none;fill-rule:nonzero;fill:rgb(100%,83.918762%,65.879822%);fill-opacity:1;" d="M 471.015625 352.863281 C 471.015625 353.925781 470.992188 354.992188 470.9375 356.054688 C 470.886719 357.117188 470.808594 358.179688 470.703125 359.238281 C 470.597656 360.296875 470.46875 361.355469 470.3125 362.40625 C 470.15625 363.460938 469.972656 364.507812 469.765625 365.554688 C 469.558594 366.597656 469.324219 367.636719 469.066406 368.667969 C 468.804688 369.703125 468.523438 370.726562 468.210938 371.746094 C 467.902344 372.765625 467.570312 373.777344 467.210938 374.777344 C 466.851562 375.78125 466.46875 376.773438 466.058594 377.757812 C 465.652344 378.742188 465.21875 379.714844 464.765625 380.675781 C 464.308594 381.640625 463.832031 382.589844 463.328125 383.527344 C 462.824219 384.46875 462.300781 385.394531 461.753906 386.308594 C 461.203125 387.21875 460.636719 388.121094 460.042969 389.003906 C 459.449219 389.890625 458.835938 390.761719 458.203125 391.617188 C 457.566406 392.46875 456.914062 393.308594 456.238281 394.132812 C 455.558594 394.957031 454.863281 395.761719 454.148438 396.550781 C 453.433594 397.339844 452.699219 398.109375 451.945312 398.863281 C 451.191406 399.617188 450.421875 400.351562 449.628906 401.066406 C 448.839844 401.78125 448.035156 402.476562 447.210938 403.148438 C 446.386719 403.824219 445.546875 404.480469 444.691406 405.113281 C 443.835938 405.75 442.964844 406.363281 442.078125 406.953125 C 441.191406 407.542969 440.292969 408.113281 439.378906 408.660156 C 438.464844 409.210938 437.539062 409.734375 436.597656 410.234375 C 435.65625 410.738281 434.707031 411.214844 433.742188 411.671875 C 432.78125 412.125 431.804688 412.558594 430.820312 412.964844 C 429.835938 413.371094 428.84375 413.753906 427.839844 414.113281 C 426.835938 414.472656 425.824219 414.808594 424.804688 415.117188 C 423.785156 415.425781 422.757812 415.707031 421.726562 415.96875 C 420.691406 416.226562 419.652344 416.460938 418.605469 416.667969 C 417.5625 416.875 416.511719 417.058594 415.457031 417.214844 C 414.402344 417.371094 413.347656 417.5 412.285156 417.605469 C 411.226562 417.707031 410.164062 417.785156 409.097656 417.839844 C 408.035156 417.890625 406.96875 417.917969 405.902344 417.917969 C 404.839844 417.917969 403.773438 417.890625 402.710938 417.839844 C 401.644531 417.785156 400.582031 417.707031 399.523438 417.605469 C 398.460938 417.5 397.402344 417.371094 396.351562 417.214844 C 395.296875 417.058594 394.246094 416.875 393.199219 416.667969 C 392.15625 416.460938 391.117188 416.226562 390.082031 415.96875 C 389.050781 415.707031 388.023438 415.425781 387.003906 415.117188 C 385.984375 414.808594 384.972656 414.472656 383.96875 414.113281 C 382.964844 413.753906 381.972656 413.371094 380.988281 412.964844 C 380 412.558594 379.027344 412.125 378.066406 411.671875 C 377.101562 411.214844 376.148438 410.738281 375.210938 410.234375 C 374.269531 409.734375 373.34375 409.210938 372.429688 408.660156 C 371.515625 408.113281 370.617188 407.542969 369.730469 406.953125 C 368.84375 406.363281 367.972656 405.75 367.117188 405.113281 C 366.261719 404.480469 365.421875 403.824219 364.597656 403.148438 C 363.773438 402.476562 362.964844 401.78125 362.175781 401.066406 C 361.386719 400.351562 360.617188 399.617188 359.863281 398.863281 C 359.109375 398.109375 358.375 397.339844 357.660156 396.550781 C 356.941406 395.761719 356.246094 394.957031 355.570312 394.132812 C 354.894531 393.308594 354.238281 392.46875 353.605469 391.617188 C 352.96875 390.761719 352.355469 389.890625 351.765625 389.003906 C 351.171875 388.121094 350.601562 387.21875 350.054688 386.308594 C 349.507812 385.394531 348.980469 384.46875 348.480469 383.527344 C 347.976562 382.589844 347.5 381.640625 347.042969 380.675781 C 346.585938 379.714844 346.15625 378.742188 345.746094 377.757812 C 345.339844 376.773438 344.957031 375.78125 344.597656 374.777344 C 344.238281 373.777344 343.90625 372.765625 343.59375 371.746094 C 343.285156 370.726562 343 369.703125 342.742188 368.667969 C 342.484375 367.636719 342.25 366.597656 342.042969 365.554688 C 341.835938 364.507812 341.652344 363.460938 341.496094 362.40625 C 341.339844 361.355469 341.210938 360.296875 341.105469 359.238281 C 341 358.179688 340.921875 357.117188 340.871094 356.054688 C 340.816406 354.992188 340.792969 353.925781 340.792969 352.863281 C 340.792969 351.796875 340.816406 350.734375 340.871094 349.671875 C 340.921875 348.605469 341 347.546875 341.105469 346.484375 C 341.210938 345.425781 341.339844 344.371094 341.496094 343.316406 C 341.652344 342.265625 341.835938 341.214844 342.042969 340.171875 C 342.25 339.125 342.484375 338.089844 342.742188 337.054688 C 343 336.023438 343.285156 334.996094 343.59375 333.976562 C 343.90625 332.960938 344.238281 331.949219 344.597656 330.945312 C 344.957031 329.945312 345.339844 328.949219 345.746094 327.96875 C 346.15625 326.984375 346.585938 326.011719 347.042969 325.046875 C 347.5 324.085938 347.976562 323.132812 348.480469 322.195312 C 348.980469 321.257812 349.507812 320.332031 350.054688 319.417969 C 350.601562 318.503906 351.171875 317.605469 351.765625 316.71875 C 352.355469 315.835938 352.96875 314.964844 353.605469 314.109375 C 354.238281 313.253906 354.894531 312.414062 355.570312 311.59375 C 356.246094 310.769531 356.941406 309.964844 357.660156 309.175781 C 358.375 308.386719 359.109375 307.613281 359.863281 306.863281 C 360.617188 306.109375 361.386719 305.375 362.175781 304.660156 C 362.964844 303.945312 363.773438 303.25 364.597656 302.574219 C 365.421875 301.898438 366.261719 301.246094 367.117188 300.609375 C 367.972656 299.976562 368.84375 299.363281 369.730469 298.769531 C 370.617188 298.179688 371.515625 297.609375 372.429688 297.0625 C 373.34375 296.515625 374.269531 295.992188 375.210938 295.488281 C 376.148438 294.988281 377.101562 294.507812 378.066406 294.054688 C 379.027344 293.597656 380 293.167969 380.988281 292.757812 C 381.972656 292.351562 382.964844 291.96875 383.96875 291.609375 C 384.972656 291.25 385.984375 290.917969 387.003906 290.609375 C 388.023438 290.300781 389.050781 290.015625 390.082031 289.757812 C 391.117188 289.5 392.15625 289.265625 393.199219 289.058594 C 394.246094 288.851562 395.296875 288.667969 396.351562 288.511719 C 397.402344 288.355469 398.460938 288.226562 399.523438 288.121094 C 400.582031 288.015625 401.644531 287.9375 402.710938 287.886719 C 403.773438 287.832031 404.839844 287.808594 405.902344 287.808594 C 406.96875 287.808594 408.035156 287.832031 409.097656 287.886719 C 410.164062 287.9375 411.226562 288.015625 412.285156 288.121094 C 413.347656 288.226562 414.402344 288.355469 415.457031 288.511719 C 416.511719 288.667969 417.5625 288.851562 418.605469 289.058594 C 419.652344 289.265625 420.691406 289.5 421.726562 289.757812 C 422.757812 290.015625 423.785156 290.300781 424.804688 290.609375 C 425.824219 290.917969 426.835938 291.25 427.839844 291.609375 C 428.84375 291.96875 429.835938 292.351562 430.820312 292.757812 C 431.804688 293.167969 432.78125 293.597656 433.742188 294.054688 C 434.707031 294.507812 435.65625 294.988281 436.597656 295.488281 C 437.539062 295.992188 438.464844 296.515625 439.378906 297.0625 C 440.292969 297.609375 441.191406 298.179688 442.078125 298.769531 C 442.964844 299.363281 443.835938 299.976562 444.691406 300.609375 C 445.546875 301.246094 446.386719 301.898438 447.210938 302.574219 C 448.035156 303.25 448.839844 303.945312 449.628906 304.660156 C 450.421875 305.375 451.191406 306.109375 451.945312 306.863281 C 452.699219 307.613281 453.433594 308.386719 454.148438 309.175781 C 454.863281 309.964844 455.558594 310.769531 456.238281 311.59375 C 456.914062 312.414062 457.566406 313.253906 458.203125 314.109375 C 458.835938 314.964844 459.449219 315.835938 460.042969 316.71875 C 460.636719 317.605469 461.203125 318.503906 461.753906 319.417969 C 462.300781 320.332031 462.824219 321.257812 463.328125 322.195312 C 463.832031 323.132812 464.308594 324.085938 464.765625 325.046875 C 465.21875 326.011719 465.652344 326.984375 466.058594 327.96875 C 466.46875 328.949219 466.851562 329.945312 467.210938 330.945312 C 467.570312 331.949219 467.902344 332.960938 468.210938 333.976562 C 468.523438 334.996094 468.804688 336.023438 469.066406 337.054688 C 469.324219 338.089844 469.558594 339.125 469.765625 340.171875 C 469.972656 341.214844 470.15625 342.265625 470.3125 343.316406 C 470.46875 344.371094 470.597656 345.425781 470.703125 346.484375 C 470.808594 347.546875 470.886719 348.605469 470.9375 349.671875 C 470.992188 350.734375 471.015625 351.796875 471.015625 352.863281 Z M 471.015625 352.863281 "/>
<path style=" stroke:none;fill-rule:nonzero;fill:rgb(59.999084%,59.999084%,59.999084%);fill-opacity:1;" d="M 470.679688 349.453125 C 468.867188 315.144531 440.699219 287.808594 405.902344 287.808594 C 371.109375 287.808594 342.941406 315.144531 341.128906 349.453125 C 358.945312 335.363281 381.382812 326.839844 405.902344 326.839844 C 430.425781 326.839844 452.863281 335.363281 470.679688 349.453125 Z M 470.679688 349.453125 "/>
<path style=" stroke:none;fill-rule:nonzero;fill:rgb(85.879517%,85.879517%,85.879517%);fill-opacity:1;" d="M 497.0625 600.070312 L 314.746094 600.070312 L 314.746094 495.984375 C 314.746094 452.863281 349.726562 417.917969 392.882812 417.917969 L 418.925781 417.917969 C 462.082031 417.917969 497.0625 452.863281 497.0625 495.984375 Z M 497.0625 600.070312 "/>
<path style=" stroke:none;fill-rule:nonzero;fill:rgb(65.879822%,65.879822%,65.879822%);fill-opacity:1;" d="M 405.902344 417.917969 L 379.859375 508.992188 L 405.902344 548.027344 L 431.949219 508.992188 Z M 405.902344 417.917969 "/>
</g>
</svg>
