<?xml version="1.0" encoding="UTF-8"?>
<svg xmlns="http://www.w3.org/2000/svg" xmlns:xlink="http://www.w3.org/1999/xlink" width="810pt" height="809.999993pt" viewBox="0 0 810 809.999993" version="1.2">
<defs>
<clipPath id="clip1">
  <path d="M 49 646 L 318 646 L 318 794.246094 L 49 794.246094 Z M 49 646 "/>
</clipPath>
<clipPath id="clip2">
  <path d="M 49 727 L 104 727 L 104 794.246094 L 49 794.246094 Z M 49 727 "/>
</clipPath>
<clipPath id="clip3">
  <path d="M 264 727 L 318 727 L 318 794.246094 L 264 794.246094 Z M 264 727 "/>
</clipPath>
<clipPath id="clip4">
  <path d="M 505 646 L 774.445312 646 L 774.445312 794.246094 L 505 794.246094 Z M 505 646 "/>
</clipPath>
<clipPath id="clip5">
  <path d="M 505 727 L 560 727 L 560 794.246094 L 505 794.246094 Z M 505 727 "/>
</clipPath>
<clipPath id="clip6">
  <path d="M 720 727 L 774.445312 727 L 774.445312 794.246094 L 720 794.246094 Z M 720 727 "/>
</clipPath>
<clipPath id="clip7">
  <path d="M 35.695312 337 L 63 337 L 63 365 L 35.695312 365 Z M 35.695312 337 "/>
</clipPath>
<clipPath id="clip8">
  <path d="M 62 15.746094 L 600 15.746094 L 600 325 L 62 325 Z M 62 15.746094 "/>
</clipPath>
</defs>
<g id="surface1">
<path style=" stroke:none;fill-rule:nonzero;fill:rgb(91.758728%,77.249146%,68.238831%);fill-opacity:1;" d="M 666.992188 679.054688 L 613.28125 679.054688 L 613.28125 606.332031 L 666.992188 606.332031 L 666.992188 679.054688 "/>
<path style=" stroke:none;fill-rule:nonzero;fill:rgb(96.078491%,69.40918%,50.979614%);fill-opacity:1;" d="M 210.441406 679.054688 L 156.730469 679.054688 L 156.730469 596.265625 L 210.441406 596.265625 L 210.441406 679.054688 "/>
<path style=" stroke:none;fill-rule:nonzero;fill:rgb(98.429871%,75.689697%,60.778809%);fill-opacity:1;" d="M 183.585938 619.757812 C 153.898438 619.757812 129.875 595.742188 129.875 566.066406 L 129.875 498.953125 L 183.585938 472.109375 L 237.296875 498.953125 L 237.296875 566.066406 C 237.296875 595.742188 213.273438 619.757812 183.585938 619.757812 "/>
<g clip-path="url(#clip1)" clip-rule="nonzero">
<path style=" stroke:none;fill-rule:nonzero;fill:rgb(47.44873%,74.899292%,91.369629%);fill-opacity:1;" d="M 317.867188 794.246094 L 49.308594 794.246094 L 49.308594 700.289062 C 49.308594 670.613281 73.382812 646.601562 103.019531 646.601562 L 264.152344 646.601562 C 293.84375 646.601562 317.867188 670.613281 317.867188 700.289062 L 317.867188 794.246094 "/>
</g>
<g clip-path="url(#clip2)" clip-rule="nonzero">
<path style=" stroke:none;fill-rule:nonzero;fill:rgb(98.429871%,75.689697%,60.778809%);fill-opacity:1;" d="M 103.019531 794.246094 L 49.308594 794.246094 L 49.308594 727.136719 L 103.019531 727.136719 L 103.019531 794.246094 "/>
</g>
<g clip-path="url(#clip3)" clip-rule="nonzero">
<path style=" stroke:none;fill-rule:nonzero;fill:rgb(98.429871%,75.689697%,60.778809%);fill-opacity:1;" d="M 317.867188 794.246094 L 264.152344 794.246094 L 264.152344 727.136719 L 317.867188 727.136719 L 317.867188 794.246094 "/>
</g>
<g clip-path="url(#clip4)" clip-rule="nonzero">
<path style=" stroke:none;fill-rule:nonzero;fill:rgb(92.158508%,30.979919%,35.688782%);fill-opacity:1;" d="M 774.417969 794.246094 L 505.855469 794.246094 L 505.855469 700.289062 C 505.855469 670.613281 529.878906 646.601562 559.570312 646.601562 L 720.703125 646.601562 C 750.394531 646.601562 774.417969 670.613281 774.417969 700.289062 L 774.417969 794.246094 "/>
</g>
<g clip-path="url(#clip5)" clip-rule="nonzero">
<path style=" stroke:none;fill-rule:nonzero;fill:rgb(97.24884%,82.348633%,72.549438%);fill-opacity:1;" d="M 559.570312 794.246094 L 505.855469 794.246094 L 505.855469 727.136719 L 559.570312 727.136719 L 559.570312 794.246094 "/>
</g>
<g clip-path="url(#clip6)" clip-rule="nonzero">
<path style=" stroke:none;fill-rule:nonzero;fill:rgb(97.24884%,82.348633%,72.549438%);fill-opacity:1;" d="M 774.417969 794.246094 L 720.703125 794.246094 L 720.703125 727.136719 L 774.417969 727.136719 L 774.417969 794.246094 "/>
</g>
<path style=" stroke:none;fill-rule:nonzero;fill:rgb(38.42926%,21.179199%,15.289307%);fill-opacity:1;" d="M 264.152344 431.84375 C 239.765625 415.589844 207.976562 415.589844 183.585938 431.84375 L 167.167969 429.117188 C 131.394531 423.136719 97.355469 446.628906 90.273438 482.125 C 89.589844 485.53125 88.59375 496.960938 89.589844 498.953125 L 129.875 566.066406 L 129.875 512.375 L 183.585938 485.53125 C 214.375 508.652344 257.546875 505.5625 284.769531 478.347656 L 304.4375 458.6875 L 264.152344 431.84375 "/>
<path style=" stroke:none;fill-rule:nonzero;fill:rgb(94.509888%,65.879822%,16.079712%);fill-opacity:1;" d="M 304.4375 324.464844 L 277.582031 324.464844 L 277.582031 297.617188 L 304.4375 297.617188 L 304.4375 324.464844 "/>
<path style=" stroke:none;fill-rule:nonzero;fill:rgb(94.509888%,65.879822%,16.079712%);fill-opacity:1;" d="M 425.289062 418.417969 L 398.433594 418.417969 L 398.433594 391.574219 L 425.289062 391.574219 L 425.289062 418.417969 "/>
<path style=" stroke:none;fill-rule:nonzero;fill:rgb(94.509888%,65.879822%,16.079712%);fill-opacity:1;" d="M 760.988281 351.308594 L 734.132812 351.308594 L 734.132812 324.464844 L 760.988281 324.464844 L 760.988281 351.308594 "/>
<g clip-path="url(#clip7)" clip-rule="nonzero">
<path style=" stroke:none;fill-rule:nonzero;fill:rgb(94.509888%,65.879822%,16.079712%);fill-opacity:1;" d="M 62.734375 364.730469 L 35.878906 364.730469 L 35.878906 337.886719 L 62.734375 337.886719 L 62.734375 364.730469 "/>
</g>
<g clip-path="url(#clip8)" clip-rule="nonzero">
<path style=" stroke:none;fill-rule:nonzero;fill:rgb(72.549438%,90.589905%,90.19928%);fill-opacity:1;" d="M 502.5 15.746094 L 153.375 15.746094 C 104.800781 15.746094 62.734375 57.796875 62.734375 109.703125 L 62.734375 149.972656 C 62.734375 209.269531 110.835938 257.351562 170.160156 257.351562 L 170.160156 324.464844 L 264.152344 257.351562 L 492.429688 257.351562 C 551.753906 257.351562 599.851562 209.269531 599.851562 149.972656 L 599.851562 109.703125 C 599.851562 57.796875 557.785156 15.746094 502.5 15.746094 "/>
</g>
<path style=" stroke:none;fill-rule:nonzero;fill:rgb(56.079102%,83.529663%,84.309387%);fill-opacity:1;" d="M 640.136719 69.4375 L 411.863281 69.4375 C 367.382812 69.4375 331.292969 105.511719 331.292969 149.972656 L 331.292969 230.507812 C 331.292969 274.96875 367.382812 311.039062 411.863281 311.039062 L 505.855469 378.152344 L 505.855469 311.039062 L 640.136719 311.039062 C 684.617188 311.039062 720.703125 274.96875 720.703125 230.507812 L 720.703125 149.972656 C 720.703125 105.511719 684.617188 69.4375 640.136719 69.4375 "/>
<path style=" stroke:none;fill-rule:nonzero;fill:rgb(45.878601%,75.689697%,77.249146%);fill-opacity:1;" d="M 331.292969 149.972656 L 331.292969 230.507812 C 331.292969 239.945312 333.023438 248.960938 335.960938 257.351562 L 492.429688 257.351562 C 551.753906 257.351562 599.851562 209.269531 599.851562 149.972656 L 599.851562 109.703125 C 599.851562 95.285156 596.496094 81.652344 590.621094 69.4375 L 411.863281 69.4375 C 367.382812 69.4375 331.292969 105.511719 331.292969 149.972656 "/>
<path style=" stroke:none;fill-rule:nonzero;fill:rgb(72.549438%,19.60907%,19.999695%);fill-opacity:1;" d="M 438.71875 217.082031 C 435.253906 217.082031 431.847656 215.773438 429.222656 213.152344 L 402.367188 186.304688 C 397.121094 181.0625 397.121094 172.570312 402.367188 167.328125 C 407.613281 162.082031 416.109375 162.082031 421.355469 167.328125 L 438.71875 184.679688 L 496.363281 127.058594 C 501.609375 121.816406 510.105469 121.816406 515.351562 127.058594 C 520.597656 132.300781 520.597656 140.796875 515.351562 146.039062 L 448.210938 213.152344 C 445.589844 215.773438 442.179688 217.082031 438.71875 217.082031 "/>
<path style=" stroke:none;fill-rule:nonzero;fill:rgb(97.24884%,82.348633%,72.549438%);fill-opacity:1;" d="M 640.136719 619.757812 C 610.449219 619.757812 586.425781 595.742188 586.425781 566.066406 L 585.21875 500.683594 L 680.421875 472.109375 L 693.847656 482.175781 L 693.847656 566.066406 C 693.847656 595.742188 669.824219 619.757812 640.136719 619.757812 "/>
<path style=" stroke:none;fill-rule:nonzero;fill:rgb(91.369629%,58.428955%,10.978699%);fill-opacity:1;" d="M 734.132812 525.800781 L 680.421875 485.53125 L 546.140625 525.800781 L 546.140625 485.53125 C 546.140625 433.625 588.207031 391.574219 640.136719 391.574219 C 692.066406 391.574219 734.132812 433.625 734.132812 485.53125 L 734.132812 525.800781 "/>
</g>
</svg>
