<?xml version="1.0" encoding="UTF-8"?>
<svg xmlns="http://www.w3.org/2000/svg" xmlns:xlink="http://www.w3.org/1999/xlink" width="810pt" height="809.999993pt" viewBox="0 0 810 809.999993" version="1.2">
<defs>
<clipPath id="clip1">
  <path d="M 275 312 L 756.867188 312 L 756.867188 793.375 L 275 793.375 Z M 275 312 "/>
</clipPath>
<clipPath id="clip2">
  <path d="M 53.367188 16.457031 L 554 16.457031 L 554 498 L 53.367188 498 Z M 53.367188 16.457031 "/>
</clipPath>
</defs>
<g id="surface1">
<g clip-path="url(#clip1)" clip-rule="nonzero">
<path style=" stroke:none;fill-rule:nonzero;fill:rgb(100%,34.118652%,13.328552%);fill-opacity:1;" d="M 349.695312 682.386719 L 645.933594 682.386719 L 757.023438 793.375 L 757.023438 386.417969 C 757.023438 345.554688 723.863281 312.425781 682.964844 312.425781 L 349.695312 312.425781 C 308.796875 312.425781 275.636719 345.554688 275.636719 386.417969 L 275.636719 608.394531 C 275.636719 649.238281 308.796875 682.386719 349.695312 682.386719 "/>
</g>
<g clip-path="url(#clip2)" clip-rule="nonzero">
<path style=" stroke:none;fill-rule:nonzero;fill:rgb(54.508972%,76.469421%,29.019165%);fill-opacity:1;" d="M 479.300781 386.417969 L 164.546875 386.417969 L 53.457031 497.40625 L 53.457031 90.449219 C 53.457031 49.585938 86.617188 16.457031 127.515625 16.457031 L 479.300781 16.457031 C 520.199219 16.457031 553.359375 49.585938 553.359375 90.449219 L 553.359375 312.425781 C 553.359375 353.269531 520.199219 386.417969 479.300781 386.417969 "/>
</g>
<path style=" stroke:none;fill-rule:nonzero;fill:rgb(100%,100%,100%);fill-opacity:1;" d="M 294.152344 219.933594 L 442.269531 219.933594 L 442.269531 164.441406 L 294.152344 164.441406 L 294.152344 90.449219 L 164.546875 192.1875 L 294.152344 293.925781 Z M 534.84375 534.402344 L 386.726562 534.402344 L 386.726562 478.90625 L 534.84375 478.90625 L 534.84375 404.914062 L 664.449219 506.65625 L 534.84375 608.394531 Z M 534.84375 534.402344 "/>
</g>
</svg>
