<?xml version="1.0" encoding="UTF-8"?>
<svg xmlns="http://www.w3.org/2000/svg" xmlns:xlink="http://www.w3.org/1999/xlink" width="810pt" height="809.999993pt" viewBox="0 0 810 809.999993" version="1.2">
<defs>
<clipPath id="clip1">
  <path d="M 201.316406 24.453125 L 770.765625 24.453125 L 770.765625 785.703125 L 201.316406 785.703125 Z M 201.316406 24.453125 "/>
</clipPath>
<clipPath id="clip2">
  <path d="M 39.515625 295 L 144 295 L 144 313 L 39.515625 313 Z M 39.515625 295 "/>
</clipPath>
</defs>
<g id="surface1">
<path style=" stroke:none;fill-rule:nonzero;fill:rgb(9.01947%,77.249146%,79.998779%);fill-opacity:1;" d="M 577.148438 501.191406 C 577.417969 488.691406 583.078125 477.21875 592.6875 469.535156 C 600.710938 463.117188 611.8125 454.183594 615.691406 450.691406 L 743.355469 334.722656 C 754.003906 325.125 758.589844 310.511719 755.328125 296.582031 L 702.222656 69.46875 C 699.835938 59.25 693.605469 50.574219 684.695312 45.035156 C 675.773438 39.5 665.230469 37.765625 655.015625 40.160156 C 633.914062 45.089844 620.761719 66.257812 625.695312 87.347656 L 672.53125 287.660156 C 673.152344 290.300781 672.257812 293.070312 670.207031 294.851562 L 591.574219 363.304688 C 590.027344 364.65625 587.96875 365.3125 585.941406 365.0625 C 583.902344 364.835938 582.050781 363.761719 580.839844 362.109375 C 565.648438 341.335938 543.910156 331.046875 514.375 330.652344 L 480.496094 330.144531 C 479.34375 338.527344 475.445312 346.222656 469.238281 352.152344 C 463.675781 357.457031 456.78125 360.832031 449.351562 362.03125 L 450.269531 393.695312 C 455.503906 395.3125 460.652344 397.835938 465.519531 401.328125 C 480.703125 412.226562 489.835938 426.542969 491.929688 442.738281 C 494.667969 463.863281 485.6875 487.101562 465.246094 511.824219 L 359.941406 635.347656 L 358.796875 776.058594 L 578.441406 775.035156 L 577.148438 501.191406 "/>
<path style=" stroke:none;fill-rule:nonzero;fill:rgb(9.01947%,77.249146%,79.998779%);fill-opacity:1;" d="M 376.527344 197.105469 C 376.527344 224.261719 389.4375 248.414062 409.386719 263.921875 L 444.664062 264.734375 C 454.707031 264.96875 464.054688 269.09375 470.988281 276.351562 C 472.277344 277.703125 473.414062 279.152344 474.476562 280.648438 C 514.90625 274.265625 545.960938 239.289062 545.960938 197.105469 C 545.960938 150.410156 507.957031 112.417969 461.246094 112.417969 C 414.53125 112.417969 376.527344 150.410156 376.527344 197.105469 "/>
<path style=" stroke:none;fill-rule:nonzero;fill:rgb(9.01947%,77.249146%,79.998779%);fill-opacity:1;" d="M 456.96875 413.238281 C 454.933594 411.773438 452.84375 410.542969 450.726562 409.53125 L 451.46875 435.089844 C 451.53125 437.070312 450.785156 438.992188 449.40625 440.410156 C 448.027344 441.832031 446.121094 442.632812 444.144531 442.632812 L 404.933594 442.632812 C 403.125 442.632812 401.484375 441.953125 400.203125 440.863281 C 385.746094 463.050781 361.757812 499.070312 358.144531 504.496094 C 356.320312 507.246094 352.878906 508.433594 349.730469 507.390625 C 346.601562 506.347656 344.546875 503.339844 344.722656 500.046875 C 348.949219 420.339844 349.042969 419.746094 349.128906 419.21875 C 349.789062 415.222656 353.574219 412.488281 357.554688 413.175781 C 361.394531 413.808594 364.042969 417.3125 363.667969 421.125 C 363.511719 423.191406 362.148438 448.5625 360.785156 474.03125 C 376.390625 450.511719 392.769531 425.625 397.113281 418.535156 L 395.457031 361.457031 L 391.617188 361.367188 L 278.046875 398.167969 C 276.410156 405.371094 275.347656 413.183594 274.847656 421.65625 L 271.078125 603.617188 C 270.226562 624.996094 274.601562 641.503906 283.089844 648.914062 C 288.164062 653.347656 295.996094 656.214844 303.03125 656.214844 C 309.410156 656.214844 315.753906 654.644531 321.378906 651.683594 C 325.394531 649.558594 332.691406 644.425781 335.480469 641.457031 L 454.019531 502.398438 C 471.699219 481.019531 479.582031 461.550781 477.394531 444.617188 C 475.808594 432.386719 468.941406 421.824219 456.96875 413.238281 "/>
<g clip-path="url(#clip1)" clip-rule="nonzero">
<path style=" stroke:none;fill-rule:nonzero;fill:rgb(10.198975%,9.408569%,38.038635%);fill-opacity:1;" d="M 436.597656 427.976562 L 412.054688 427.976562 L 410.132812 361.796875 L 434.691406 362.363281 Z M 220.753906 212.957031 L 385.011719 275.855469 L 383.332031 348.644531 L 216.371094 402.746094 Z M 545.960938 197.109375 C 545.960938 239.292969 514.90625 274.265625 474.472656 280.648438 C 473.414062 279.152344 472.273438 277.707031 470.984375 276.355469 C 464.050781 269.097656 454.707031 264.972656 444.660156 264.734375 L 409.382812 263.921875 C 389.4375 248.417969 376.527344 224.265625 376.527344 197.109375 C 376.527344 150.410156 414.53125 112.421875 461.246094 112.421875 C 507.953125 112.421875 545.960938 150.410156 545.960938 197.109375 Z M 454.015625 502.398438 L 335.480469 641.457031 C 332.691406 644.425781 325.390625 649.558594 321.375 651.683594 C 315.753906 654.644531 309.410156 656.214844 303.03125 656.214844 C 295.996094 656.214844 288.164062 653.347656 283.089844 648.917969 C 274.601562 641.507812 270.226562 624.996094 271.078125 603.617188 L 274.847656 421.65625 C 275.347656 413.183594 276.410156 405.371094 278.046875 398.167969 L 391.613281 361.371094 L 395.453125 361.460938 L 397.113281 418.539062 C 392.765625 425.625 376.386719 450.511719 360.785156 474.035156 C 362.148438 448.566406 363.511719 423.191406 363.664062 421.125 C 364.039062 417.3125 361.390625 413.808594 357.554688 413.175781 C 353.574219 412.488281 349.789062 415.222656 349.128906 419.222656 C 349.042969 419.746094 348.949219 420.34375 344.71875 500.046875 C 344.546875 503.34375 346.601562 506.347656 349.730469 507.390625 C 352.878906 508.433594 356.316406 507.246094 358.140625 504.5 C 361.757812 499.070312 385.746094 463.050781 400.203125 440.863281 C 401.484375 441.957031 403.121094 442.632812 404.929688 442.632812 L 444.140625 442.632812 C 446.121094 442.632812 448.023438 441.832031 449.402344 440.410156 C 450.78125 438.992188 451.527344 437.070312 451.46875 435.089844 L 450.726562 409.535156 C 452.839844 410.542969 454.929688 411.773438 456.964844 413.238281 C 468.9375 421.824219 475.804688 432.386719 477.390625 444.621094 C 479.582031 461.550781 471.695312 481.019531 454.015625 502.398438 Z M 443.28125 347.894531 C 443.105469 347.894531 442.925781 347.890625 442.742188 347.886719 L 398.042969 346.855469 L 399.625 278.359375 L 444.324219 279.390625 C 456.964844 279.6875 467.015625 290.203125 466.71875 302.839844 L 466.199219 325.5 C 465.910156 337.957031 455.683594 347.894531 443.28125 347.894531 Z M 716.503906 66.128906 C 713.21875 52.101562 704.671875 40.191406 692.429688 32.589844 C 680.179688 24.980469 665.714844 22.617188 651.675781 25.882812 C 637.644531 29.167969 625.726562 37.714844 618.117188 49.949219 C 610.515625 62.191406 608.136719 76.660156 611.414062 90.6875 L 657.25 286.695312 L 587.714844 347.226562 C 570.09375 326.90625 545.535156 316.410156 514.585938 315.996094 L 481.097656 315.496094 L 481.382812 303.179688 C 481.449219 300.234375 481.140625 297.34375 480.546875 294.53125 C 526.132812 285.519531 560.617188 245.277344 560.617188 197.109375 C 560.617188 142.328125 516.039062 97.765625 461.246094 97.765625 C 406.445312 97.765625 361.863281 142.328125 361.863281 197.109375 C 361.863281 220.90625 370.296875 242.769531 384.3125 259.898438 L 216.285156 195.550781 C 214.066406 194.703125 211.558594 194.984375 209.578125 196.304688 C 207.601562 197.636719 206.390625 199.839844 206.332031 202.226562 L 201.46875 412.738281 C 201.417969 415.109375 202.515625 417.363281 204.421875 418.78125 C 205.703125 419.738281 207.246094 420.230469 208.800781 420.230469 C 209.558594 420.230469 210.324219 420.113281 211.0625 419.875 L 262.171875 403.316406 C 261.238281 408.953125 260.566406 414.855469 260.195312 421.074219 L 256.445312 602.429688 L 256.425781 603.035156 C 255.820312 618.214844 257.230469 645.796875 273.441406 659.957031 C 281.15625 666.6875 292.492188 670.875 303.03125 670.875 C 311.785156 670.875 320.496094 668.722656 328.21875 664.648438 C 333.003906 662.121094 340.589844 656.851562 345.136719 652.476562 L 344.113281 778.480469 C 344.078125 782.527344 347.335938 785.835938 351.386719 785.867188 C 351.40625 785.867188 351.425781 785.867188 351.445312 785.867188 C 354.640625 785.867188 357.332031 783.808594 358.335938 780.949219 C 358.597656 780.207031 358.769531 779.425781 358.777344 778.597656 L 358.796875 776.058594 L 359.941406 635.347656 L 465.246094 511.824219 C 485.6875 487.101562 494.664062 463.863281 491.929688 442.738281 C 489.835938 426.546875 480.703125 412.226562 465.519531 401.328125 C 460.652344 397.835938 455.503906 395.3125 450.269531 393.695312 L 449.347656 362.03125 C 456.78125 360.832031 463.675781 357.460938 469.238281 352.152344 C 475.445312 346.222656 479.339844 338.527344 480.492188 330.144531 L 514.375 330.652344 C 543.90625 331.046875 565.648438 341.335938 580.835938 362.109375 C 582.054688 363.761719 583.902344 364.835938 585.941406 365.0625 C 587.96875 365.3125 590.023438 364.65625 591.570312 363.304688 L 670.207031 294.855469 C 672.253906 293.074219 673.148438 290.296875 672.53125 287.65625 L 625.695312 87.347656 C 620.757812 66.261719 633.914062 45.089844 655.015625 40.164062 C 665.230469 37.765625 675.773438 39.503906 684.691406 45.035156 C 693.605469 50.574219 699.835938 59.25 702.222656 69.46875 L 755.328125 296.582031 C 758.589844 310.511719 754.003906 325.121094 743.355469 334.722656 L 615.695312 450.691406 C 611.808594 454.183594 600.707031 463.117188 592.6875 469.535156 C 583.082031 477.21875 577.417969 488.691406 577.148438 501.191406 L 578.445312 775.035156 L 578.453125 777.480469 C 578.460938 778.339844 578.640625 779.15625 578.917969 779.917969 C 579.9375 782.746094 582.613281 784.773438 585.785156 784.773438 C 585.796875 784.773438 585.808594 784.773438 585.820312 784.773438 C 589.871094 784.753906 593.136719 781.457031 593.117188 777.410156 L 591.808594 501.316406 C 591.984375 493.359375 595.640625 485.949219 601.851562 480.976562 C 610.703125 473.894531 621.386719 465.292969 625.53125 461.566406 L 753.199219 345.589844 C 767.789062 332.4375 774.078125 312.375 769.605469 293.242188 L 716.503906 66.128906 "/>
</g>
<path style=" stroke:none;fill-rule:nonzero;fill:rgb(100%,88.238525%,0%);fill-opacity:1;" d="M 412.054688 427.972656 L 436.597656 427.972656 L 434.691406 362.363281 L 410.132812 361.796875 L 412.054688 427.972656 "/>
<path style=" stroke:none;fill-rule:nonzero;fill:rgb(95.289612%,33.329773%,16.859436%);fill-opacity:1;" d="M 383.335938 348.644531 L 385.015625 275.851562 L 220.753906 212.957031 L 216.371094 402.746094 L 383.335938 348.644531 "/>
<path style=" stroke:none;fill-rule:nonzero;fill:rgb(100%,88.238525%,0%);fill-opacity:1;" d="M 466.71875 302.839844 C 467.015625 290.203125 456.964844 279.6875 444.324219 279.394531 L 399.625 278.355469 L 398.042969 346.855469 L 442.746094 347.886719 C 442.925781 347.890625 443.105469 347.894531 443.285156 347.894531 C 455.683594 347.894531 465.910156 337.957031 466.199219 325.496094 L 466.71875 302.839844 "/>
<path style=" stroke:none;fill-rule:nonzero;fill:rgb(95.289612%,33.329773%,16.859436%);fill-opacity:1;" d="M 172.882812 232.472656 L 82.738281 161.582031 C 79.550781 159.066406 74.945312 159.628906 72.445312 162.808594 C 69.9375 165.988281 70.492188 170.597656 73.671875 173.097656 L 163.816406 243.992188 C 165.160156 245.046875 166.761719 245.558594 168.34375 245.558594 C 170.515625 245.558594 172.664062 244.597656 174.109375 242.765625 C 176.617188 239.582031 176.0625 234.972656 172.882812 232.472656 "/>
<path style=" stroke:none;fill-rule:nonzero;fill:rgb(95.289612%,33.329773%,16.859436%);fill-opacity:1;" d="M 161.015625 365.324219 L 67.695312 431.984375 C 64.402344 434.34375 63.636719 438.917969 65.992188 442.207031 C 67.421875 444.214844 69.675781 445.277344 71.960938 445.277344 C 73.4375 445.277344 74.925781 444.832031 76.21875 443.914062 L 169.539062 377.253906 C 172.832031 374.902344 173.59375 370.320312 171.242188 367.027344 C 168.890625 363.730469 164.3125 362.976562 161.015625 365.324219 "/>
<g clip-path="url(#clip2)" clip-rule="nonzero">
<path style=" stroke:none;fill-rule:nonzero;fill:rgb(95.289612%,33.329773%,16.859436%);fill-opacity:1;" d="M 135.964844 312.351562 C 139.929688 312.351562 143.195312 309.179688 143.292969 305.1875 C 143.382812 301.144531 140.179688 297.789062 136.125 297.699219 L 47.132812 295.644531 C 43.023438 295.652344 39.730469 298.757812 39.632812 302.804688 C 39.542969 306.851562 42.75 310.207031 46.800781 310.300781 L 135.792969 312.351562 C 135.851562 312.351562 135.90625 312.351562 135.964844 312.351562 "/>
</g>
</g>
</svg>
