<?xml version="1.0" encoding="UTF-8"?>
<svg xmlns="http://www.w3.org/2000/svg" xmlns:xlink="http://www.w3.org/1999/xlink" width="810pt" height="809.999993pt" viewBox="0 0 810 809.999993" version="1.2">
<defs>
<clipPath id="clip1">
  <path d="M 25.210938 25.210938 L 784.960938 25.210938 L 784.960938 784.960938 L 25.210938 784.960938 Z M 25.210938 25.210938 "/>
</clipPath>
</defs>
<g id="surface1">
<path style=" stroke:none;fill-rule:nonzero;fill:rgb(55.288696%,83.529663%,84.709167%);fill-opacity:1;" d="M 671.148438 721.808594 C 671.148438 749.761719 648.488281 772.472656 620.484375 772.472656 L 139.199219 772.472656 L 139.199219 88.539062 C 139.199219 60.535156 161.859375 37.875 189.863281 37.875 L 721.808594 37.875 C 693.808594 37.875 671.148438 60.535156 671.148438 88.539062 L 671.148438 721.808594 "/>
<path style=" stroke:none;fill-rule:nonzero;fill:rgb(91.369629%,25.878906%,25.099182%);fill-opacity:1;" d="M 772.472656 113.867188 L 671.148438 113.867188 L 671.148438 88.539062 C 671.148438 60.535156 693.808594 37.875 721.808594 37.875 C 749.8125 37.875 772.472656 60.535156 772.472656 88.539062 L 772.472656 113.867188 "/>
<path style=" stroke:none;fill-rule:nonzero;fill:rgb(47.44873%,77.249146%,78.42865%);fill-opacity:1;" d="M 609.550781 562.847656 C 554.289062 555.675781 498.382812 555.425781 443.171875 561.710938 C 421.945312 564.136719 400.820312 567.449219 379.84375 571.851562 L 379.84375 582.488281 L 278.519531 544.492188 L 193.472656 605.25 L 189.863281 607.820312 L 278.519531 671.148438 L 379.84375 633.152344 L 379.84375 643.789062 C 392.460938 646.410156 405.125 648.585938 417.839844 650.515625 C 426.25 651.804688 434.710938 652.941406 443.171875 653.929688 C 498.382812 660.214844 554.289062 659.96875 609.550781 652.792969 L 671.148438 644.878906 L 671.148438 570.765625 L 609.550781 562.847656 "/>
<path style=" stroke:none;fill-rule:nonzero;fill:rgb(91.369629%,25.878906%,25.099182%);fill-opacity:1;" d="M 37.875 696.480469 L 569.824219 696.480469 L 569.824219 721.808594 C 569.824219 749.761719 592.484375 772.472656 620.484375 772.472656 L 88.539062 772.472656 C 60.585938 772.472656 37.875 749.761719 37.875 721.808594 L 37.875 696.480469 "/>
<path style=" stroke:none;fill-rule:nonzero;fill:rgb(32.939148%,59.609985%,84.309387%);fill-opacity:1;" d="M 291.183594 139.199219 L 291.183594 179.769531 C 291.183594 239.832031 326.558594 294.253906 381.425781 318.644531 L 405.175781 329.179688 L 428.921875 318.644531 C 483.789062 294.253906 519.164062 239.832031 519.164062 179.769531 L 519.164062 139.199219 C 478.050781 139.199219 438.074219 125.890625 405.175781 101.203125 C 372.273438 125.890625 332.296875 139.199219 291.183594 139.199219 "/>
<path style=" stroke:none;fill-rule:nonzero;fill:rgb(41.569519%,66.668701%,87.449646%);fill-opacity:1;" d="M 417.839844 177.195312 L 392.507812 177.195312 L 392.507812 151.867188 L 417.839844 151.867188 L 417.839844 177.195312 "/>
<path style=" stroke:none;fill-rule:nonzero;fill:rgb(41.569519%,66.668701%,87.449646%);fill-opacity:1;" d="M 455.835938 265.855469 L 430.503906 265.855469 L 430.503906 240.523438 L 455.835938 240.523438 L 455.835938 265.855469 "/>
<path style=" stroke:none;fill-rule:nonzero;fill:rgb(41.569519%,66.668701%,87.449646%);fill-opacity:1;" d="M 354.511719 202.527344 L 329.179688 202.527344 L 329.179688 177.195312 L 354.511719 177.195312 L 354.511719 202.527344 "/>
<path style=" stroke:none;fill-rule:nonzero;fill:rgb(41.569519%,66.668701%,87.449646%);fill-opacity:1;" d="M 481.167969 202.527344 L 455.835938 202.527344 L 455.835938 177.195312 L 481.167969 177.195312 L 481.167969 202.527344 "/>
<path style=" stroke:none;fill-rule:nonzero;fill:rgb(41.569519%,66.668701%,87.449646%);fill-opacity:1;" d="M 379.84375 265.855469 L 354.511719 265.855469 L 354.511719 240.523438 L 379.84375 240.523438 L 379.84375 265.855469 "/>
<path style=" stroke:none;fill-rule:nonzero;fill:rgb(47.44873%,77.249146%,78.42865%);fill-opacity:1;" d="M 215.191406 405.175781 L 595.15625 405.175781 L 595.15625 379.84375 L 215.191406 379.84375 L 215.191406 405.175781 "/>
<path style=" stroke:none;fill-rule:nonzero;fill:rgb(47.44873%,77.249146%,78.42865%);fill-opacity:1;" d="M 215.191406 468.5 L 354.511719 468.5 L 354.511719 443.171875 L 215.191406 443.171875 L 215.191406 468.5 "/>
<path style=" stroke:none;fill-rule:nonzero;fill:rgb(47.44873%,77.249146%,78.42865%);fill-opacity:1;" d="M 379.84375 468.5 L 595.15625 468.5 L 595.15625 443.171875 L 379.84375 443.171875 L 379.84375 468.5 "/>
<path style=" stroke:none;fill-rule:nonzero;fill:rgb(47.44873%,77.249146%,78.42865%);fill-opacity:1;" d="M 303.851562 316.515625 L 215.191406 316.515625 L 215.191406 341.847656 L 303.851562 341.847656 L 303.851562 316.515625 "/>
<path style=" stroke:none;fill-rule:nonzero;fill:rgb(47.44873%,77.249146%,78.42865%);fill-opacity:1;" d="M 506.496094 316.515625 L 506.496094 341.847656 L 595.15625 341.847656 L 595.15625 316.515625 L 506.496094 316.515625 "/>
<path style=" stroke:none;fill-rule:nonzero;fill:rgb(45.878601%,20.779419%,9.799194%);fill-opacity:1;" d="M 772.472656 606.484375 L 609.550781 627.460938 C 533.015625 637.355469 455.242188 634.289062 379.84375 618.457031 L 379.84375 546.523438 C 455.242188 530.691406 533.015625 527.621094 609.550781 537.519531 L 772.472656 558.496094 L 772.472656 606.484375 "/>
<path style=" stroke:none;fill-rule:nonzero;fill:rgb(41.958618%,19.219971%,9.408569%);fill-opacity:1;" d="M 600.25 588.773438 C 526.929688 598.222656 452.667969 597.035156 379.84375 585.507812 L 379.84375 618.457031 C 455.242188 634.289062 533.015625 637.355469 609.550781 627.460938 L 772.472656 606.484375 L 772.472656 566.558594 L 600.25 588.773438 "/>
<path style=" stroke:none;fill-rule:nonzero;fill:rgb(97.648621%,70.588684%,15.289307%);fill-opacity:1;" d="M 379.84375 557.160156 L 278.519531 519.164062 L 189.863281 582.488281 L 278.519531 645.816406 L 379.84375 607.820312 L 379.84375 557.160156 "/>
<path style=" stroke:none;fill-rule:nonzero;fill:rgb(97.648621%,65.098572%,12.939453%);fill-opacity:1;" d="M 193.472656 579.917969 L 189.863281 582.488281 L 278.519531 645.816406 L 379.84375 607.820312 L 379.84375 578.382812 C 307.363281 584.519531 238.742188 582.636719 193.472656 579.917969 "/>
<path style=" stroke:none;fill-rule:nonzero;fill:rgb(95.689392%,46.269226%,8.239746%);fill-opacity:1;" d="M 278.519531 582.488281 Z M 278.519531 607.820312 C 264.566406 607.820312 253.1875 596.441406 253.1875 582.488281 C 253.1875 568.539062 264.566406 557.160156 278.519531 557.160156 C 292.472656 557.160156 303.851562 568.539062 303.851562 582.488281 C 303.851562 596.441406 292.472656 607.820312 278.519531 607.820312 "/>
<path style=" stroke:none;fill-rule:nonzero;fill:rgb(95.689392%,46.269226%,8.239746%);fill-opacity:1;" d="M 278.519531 569.824219 L 207.621094 569.824219 L 189.863281 582.488281 L 207.621094 595.15625 L 278.519531 595.15625 L 278.519531 569.824219 "/>
<path style=" stroke:none;fill-rule:nonzero;fill:rgb(84.709167%,84.309387%,82.749939%);fill-opacity:1;" d="M 417.839844 539.792969 L 417.839844 625.1875 C 426.25 626.472656 434.710938 627.609375 443.171875 628.601562 L 443.171875 536.378906 C 434.710938 537.371094 426.25 538.507812 417.839844 539.792969 "/>
<g clip-path="url(#clip1)" clip-rule="nonzero">
<path style=" stroke:none;fill-rule:nonzero;fill:rgb(6.269836%,5.879211%,5.099487%);fill-opacity:1;" d="M 759.804688 101.203125 L 683.8125 101.203125 L 683.8125 88.539062 C 683.8125 67.5625 700.832031 50.542969 721.808594 50.542969 C 742.785156 50.542969 759.804688 67.5625 759.804688 88.539062 Z M 759.804688 569.675781 L 759.804688 595.304688 L 607.917969 614.945312 C 552.953125 622.019531 497.789062 622.316406 443.171875 615.933594 L 443.171875 549.046875 C 497.839844 542.664062 553.003906 542.960938 607.917969 550.035156 Z M 278.519531 557.160156 C 269.21875 557.160156 261.105469 562.304688 256.703125 569.824219 L 229.390625 569.824219 L 280.398438 533.410156 L 367.175781 565.917969 L 367.175781 599.0625 L 280.398438 631.570312 L 229.390625 595.15625 L 256.703125 595.15625 C 261.105469 602.675781 269.21875 607.820312 278.519531 607.820312 C 292.472656 607.820312 303.851562 596.441406 303.851562 582.488281 C 303.851562 568.539062 292.472656 557.160156 278.519531 557.160156 Z M 417.839844 552.507812 L 417.839844 612.472656 C 409.378906 611.183594 400.917969 609.75 392.507812 608.066406 L 392.507812 556.910156 C 400.917969 555.230469 409.378906 553.792969 417.839844 552.507812 Z M 658.484375 721.808594 C 658.484375 742.785156 641.464844 759.804688 620.484375 759.804688 C 599.507812 759.804688 582.488281 742.785156 582.488281 721.808594 L 582.488281 696.480469 C 582.488281 689.503906 576.800781 683.8125 569.824219 683.8125 L 151.867188 683.8125 L 151.867188 88.539062 C 151.867188 67.5625 168.882812 50.542969 189.863281 50.542969 L 671.199219 50.542969 C 670.800781 51.035156 670.554688 51.628906 670.160156 52.125 C 669.417969 53.164062 668.824219 54.203125 668.179688 55.292969 C 666.792969 57.417969 665.605469 59.644531 664.519531 61.96875 C 663.925781 63.207031 663.429688 64.394531 662.886719 65.679688 C 661.945312 68.15625 661.203125 70.679688 660.558594 73.25 C 660.261719 74.4375 659.867188 75.574219 659.671875 76.8125 C 658.929688 80.621094 658.484375 84.53125 658.484375 88.539062 L 658.484375 531.035156 L 611.136719 524.953125 C 532.964844 514.808594 454.253906 517.925781 377.222656 534.152344 C 373.855469 534.847656 371.136719 536.972656 369.355469 539.695312 L 282.972656 507.289062 C 279.015625 505.855469 274.609375 506.398438 271.148438 508.871094 L 182.488281 572.199219 C 179.175781 574.574219 177.195312 578.382812 177.195312 582.488281 C 177.195312 586.597656 179.175781 590.40625 182.488281 592.78125 L 271.148438 656.109375 C 273.324219 657.691406 275.898438 658.484375 278.519531 658.484375 C 280.003906 658.484375 281.539062 658.234375 282.972656 657.691406 L 369.355469 625.285156 C 371.136719 628.007812 373.855469 630.132812 377.222656 630.828125 C 424.765625 640.820312 472.90625 645.867188 521.191406 645.867188 C 551.171875 645.867188 581.203125 643.886719 611.136719 640.027344 L 658.484375 633.941406 Z M 139.199219 759.804688 L 88.539062 759.804688 C 67.5625 759.804688 50.542969 742.785156 50.542969 721.808594 L 50.542969 709.144531 L 557.160156 709.144531 L 557.160156 721.808594 C 557.160156 736.058594 561.859375 749.21875 569.875 759.804688 Z M 721.808594 25.210938 L 189.863281 25.210938 C 154.933594 25.210938 126.535156 53.609375 126.535156 88.539062 L 126.535156 683.8125 L 37.875 683.8125 C 30.902344 683.8125 25.210938 689.503906 25.210938 696.480469 L 25.210938 721.808594 C 25.210938 756.738281 53.609375 785.136719 88.539062 785.136719 L 620.484375 785.136719 C 655.414062 785.136719 683.8125 756.738281 683.8125 721.808594 L 683.8125 630.679688 L 774.105469 619.003906 C 780.4375 618.210938 785.136719 612.816406 785.136719 606.484375 L 785.136719 558.496094 C 785.136719 552.164062 780.4375 546.769531 774.105469 545.976562 L 683.8125 534.300781 L 683.8125 126.535156 L 772.472656 126.535156 C 779.449219 126.535156 785.136719 120.84375 785.136719 113.867188 L 785.136719 88.539062 C 785.136719 53.609375 756.738281 25.210938 721.808594 25.210938 "/>
</g>
<path style=" stroke:none;fill-rule:nonzero;fill:rgb(6.269836%,5.879211%,5.099487%);fill-opacity:1;" d="M 303.851562 151.46875 C 339.917969 149.144531 375.242188 137.074219 405.175781 116.738281 C 435.105469 137.074219 470.429688 149.144531 506.496094 151.46875 L 506.496094 179.769531 C 506.496094 234.734375 473.992188 284.703125 423.777344 307.066406 L 405.175781 315.328125 L 386.570312 307.066406 C 336.355469 284.703125 303.851562 234.734375 303.851562 179.769531 Z M 376.28125 330.21875 L 400.027344 340.757812 C 401.660156 341.5 403.394531 341.847656 405.175781 341.847656 C 406.953125 341.847656 408.6875 341.5 410.320312 340.757812 L 434.066406 330.21875 C 493.4375 303.800781 531.828125 244.730469 531.828125 179.769531 L 531.828125 139.199219 C 531.828125 132.222656 526.140625 126.535156 519.164062 126.535156 C 481.066406 126.535156 443.269531 113.917969 412.742188 91.0625 C 408.242188 87.695312 402.105469 87.695312 397.605469 91.0625 C 367.078125 113.917969 329.28125 126.535156 291.183594 126.535156 C 284.210938 126.535156 278.519531 132.222656 278.519531 139.199219 L 278.519531 179.769531 C 278.519531 244.730469 316.910156 303.800781 376.28125 330.21875 "/>
<path style=" stroke:none;fill-rule:nonzero;fill:rgb(6.269836%,5.879211%,5.099487%);fill-opacity:1;" d="M 417.839844 151.867188 L 392.507812 151.867188 L 392.507812 177.195312 L 417.839844 177.195312 L 417.839844 151.867188 "/>
<path style=" stroke:none;fill-rule:nonzero;fill:rgb(6.269836%,5.879211%,5.099487%);fill-opacity:1;" d="M 455.835938 240.523438 L 430.503906 240.523438 L 430.503906 265.855469 L 455.835938 265.855469 L 455.835938 240.523438 "/>
<path style=" stroke:none;fill-rule:nonzero;fill:rgb(6.269836%,5.879211%,5.099487%);fill-opacity:1;" d="M 354.511719 177.195312 L 329.179688 177.195312 L 329.179688 202.527344 L 354.511719 202.527344 L 354.511719 177.195312 "/>
<path style=" stroke:none;fill-rule:nonzero;fill:rgb(6.269836%,5.879211%,5.099487%);fill-opacity:1;" d="M 481.167969 177.195312 L 455.835938 177.195312 L 455.835938 202.527344 L 481.167969 202.527344 L 481.167969 177.195312 "/>
<path style=" stroke:none;fill-rule:nonzero;fill:rgb(6.269836%,5.879211%,5.099487%);fill-opacity:1;" d="M 354.511719 265.855469 L 379.84375 265.855469 L 379.84375 240.523438 L 354.511719 240.523438 L 354.511719 265.855469 "/>
<path style=" stroke:none;fill-rule:nonzero;fill:rgb(6.269836%,5.879211%,5.099487%);fill-opacity:1;" d="M 595.15625 379.84375 L 215.191406 379.84375 L 215.191406 405.175781 L 595.15625 405.175781 L 595.15625 379.84375 "/>
<path style=" stroke:none;fill-rule:nonzero;fill:rgb(6.269836%,5.879211%,5.099487%);fill-opacity:1;" d="M 354.511719 443.171875 L 215.191406 443.171875 L 215.191406 468.5 L 354.511719 468.5 L 354.511719 443.171875 "/>
<path style=" stroke:none;fill-rule:nonzero;fill:rgb(6.269836%,5.879211%,5.099487%);fill-opacity:1;" d="M 379.84375 468.5 L 595.15625 468.5 L 595.15625 443.171875 L 379.84375 443.171875 L 379.84375 468.5 "/>
<path style=" stroke:none;fill-rule:nonzero;fill:rgb(6.269836%,5.879211%,5.099487%);fill-opacity:1;" d="M 303.851562 316.515625 L 215.191406 316.515625 L 215.191406 341.847656 L 303.851562 341.847656 L 303.851562 316.515625 "/>
<path style=" stroke:none;fill-rule:nonzero;fill:rgb(6.269836%,5.879211%,5.099487%);fill-opacity:1;" d="M 506.496094 341.847656 L 595.15625 341.847656 L 595.15625 316.515625 L 506.496094 316.515625 L 506.496094 341.847656 "/>
</g>
</svg>
